G04 #@! TF.GenerationSoftware,KiCad,Pcbnew,(5.1.0)-1*
G04 #@! TF.CreationDate,2019-04-18T19:04:37-04:00*
G04 #@! TF.ProjectId,f-ramune_arduino,662d7261-6d75-46e6-955f-61726475696e,rev?*
G04 #@! TF.SameCoordinates,Original*
G04 #@! TF.FileFunction,Copper,L2,Bot*
G04 #@! TF.FilePolarity,Positive*
%FSLAX46Y46*%
G04 Gerber Fmt 4.6, Leading zero omitted, Abs format (unit mm)*
G04 Created by KiCad (PCBNEW (5.1.0)-1) date 2019-04-18 19:04:37*
%MOMM*%
%LPD*%
G04 APERTURE LIST*
%ADD10C,1.600000*%
%ADD11O,2.000000X1.440000*%
%ADD12R,2.000000X1.440000*%
%ADD13O,2.400000X1.600000*%
%ADD14R,2.400000X1.600000*%
%ADD15C,2.159000*%
%ADD16O,1.600000X1.600000*%
%ADD17O,1.800000X1.800000*%
%ADD18R,1.800000X1.800000*%
%ADD19C,1.800000*%
%ADD20O,2.400000X1.700000*%
%ADD21R,2.400000X1.700000*%
%ADD22C,0.800000*%
%ADD23C,0.250000*%
%ADD24C,0.254000*%
G04 APERTURE END LIST*
D10*
X170220000Y-124460000D03*
X172720000Y-124460000D03*
D11*
X146050000Y-120650000D03*
X135890000Y-120650000D03*
X146050000Y-118110000D03*
X135890000Y-118110000D03*
X146050000Y-115570000D03*
X135890000Y-115570000D03*
X146050000Y-113030000D03*
X135890000Y-113030000D03*
X146050000Y-110490000D03*
X135890000Y-110490000D03*
X146050000Y-107950000D03*
X135890000Y-107950000D03*
X146050000Y-105410000D03*
X135890000Y-105410000D03*
X146050000Y-102870000D03*
X135890000Y-102870000D03*
X146050000Y-100330000D03*
X135890000Y-100330000D03*
X146050000Y-97790000D03*
X135890000Y-97790000D03*
X146050000Y-95250000D03*
X135890000Y-95250000D03*
X146050000Y-92710000D03*
X135890000Y-92710000D03*
X146050000Y-90170000D03*
X135890000Y-90170000D03*
X146050000Y-87630000D03*
D12*
X135890000Y-87630000D03*
D11*
X146050000Y-87630000D03*
X146050000Y-90170000D03*
X146050000Y-92710000D03*
X146050000Y-95250000D03*
X146050000Y-97790000D03*
X146050000Y-100330000D03*
X146050000Y-102870000D03*
X146050000Y-105410000D03*
X146050000Y-107950000D03*
X146050000Y-110490000D03*
X146050000Y-113030000D03*
X146050000Y-115570000D03*
X146050000Y-118110000D03*
X146050000Y-120650000D03*
X146050000Y-120650000D03*
X146050000Y-118110000D03*
X146050000Y-115570000D03*
X146050000Y-113030000D03*
X146050000Y-110490000D03*
X146050000Y-107950000D03*
X146050000Y-105410000D03*
X146050000Y-102870000D03*
X146050000Y-100330000D03*
X146050000Y-97790000D03*
X146050000Y-95250000D03*
X146050000Y-92710000D03*
X146050000Y-90170000D03*
X146050000Y-87630000D03*
X146050000Y-87630000D03*
X146050000Y-90170000D03*
X146050000Y-92710000D03*
X146050000Y-95250000D03*
X146050000Y-97790000D03*
X146050000Y-100330000D03*
X146050000Y-102870000D03*
X146050000Y-105410000D03*
X146050000Y-107950000D03*
X146050000Y-110490000D03*
X146050000Y-113030000D03*
X146050000Y-115570000D03*
X146050000Y-118110000D03*
X146050000Y-120650000D03*
D12*
X138430000Y-87630000D03*
D11*
X138430000Y-90170000D03*
X138430000Y-92710000D03*
X138430000Y-95250000D03*
X138430000Y-97790000D03*
X138430000Y-100330000D03*
X138430000Y-102870000D03*
X138430000Y-105410000D03*
X138430000Y-107950000D03*
X138430000Y-110490000D03*
X138430000Y-113030000D03*
X138430000Y-115570000D03*
X138430000Y-118110000D03*
X138430000Y-120650000D03*
X151130000Y-120650000D03*
X151130000Y-118110000D03*
X151130000Y-115570000D03*
X151130000Y-113030000D03*
X151130000Y-110490000D03*
X151130000Y-107950000D03*
X151130000Y-105410000D03*
X151130000Y-102870000D03*
X151130000Y-100330000D03*
X151130000Y-97790000D03*
X151130000Y-95250000D03*
X151130000Y-92710000D03*
X151130000Y-90170000D03*
X151130000Y-87630000D03*
X151130000Y-87630000D03*
X151130000Y-90170000D03*
X151130000Y-92710000D03*
X151130000Y-95250000D03*
X151130000Y-97790000D03*
X151130000Y-100330000D03*
X151130000Y-102870000D03*
X151130000Y-105410000D03*
X151130000Y-107950000D03*
X151130000Y-110490000D03*
X151130000Y-113030000D03*
X151130000Y-115570000D03*
X151130000Y-118110000D03*
X151130000Y-120650000D03*
X151130000Y-120650000D03*
X151130000Y-118110000D03*
X151130000Y-115570000D03*
X151130000Y-113030000D03*
X151130000Y-110490000D03*
X151130000Y-107950000D03*
X151130000Y-105410000D03*
X151130000Y-102870000D03*
X151130000Y-100330000D03*
X151130000Y-97790000D03*
X151130000Y-95250000D03*
X151130000Y-92710000D03*
X151130000Y-90170000D03*
X151130000Y-87630000D03*
X151130000Y-87630000D03*
X151130000Y-90170000D03*
X151130000Y-92710000D03*
X151130000Y-95250000D03*
X151130000Y-97790000D03*
X151130000Y-100330000D03*
X151130000Y-102870000D03*
X151130000Y-105410000D03*
X151130000Y-107950000D03*
X151130000Y-110490000D03*
X151130000Y-113030000D03*
X151130000Y-115570000D03*
X151130000Y-118110000D03*
X151130000Y-120650000D03*
D13*
X120650000Y-125730000D03*
X128270000Y-107950000D03*
X120650000Y-123190000D03*
X128270000Y-110490000D03*
X120650000Y-120650000D03*
X128270000Y-113030000D03*
X120650000Y-118110000D03*
X128270000Y-115570000D03*
X120650000Y-115570000D03*
X128270000Y-118110000D03*
X120650000Y-113030000D03*
X128270000Y-120650000D03*
X120650000Y-110490000D03*
X128270000Y-123190000D03*
X120650000Y-107950000D03*
D14*
X128270000Y-125730000D03*
D13*
X120650000Y-96520000D03*
X128270000Y-78740000D03*
X120650000Y-93980000D03*
X128270000Y-81280000D03*
X120650000Y-91440000D03*
X128270000Y-83820000D03*
X120650000Y-88900000D03*
X128270000Y-86360000D03*
X120650000Y-86360000D03*
X128270000Y-88900000D03*
X120650000Y-83820000D03*
X128270000Y-91440000D03*
X120650000Y-81280000D03*
X128270000Y-93980000D03*
X120650000Y-78740000D03*
D14*
X128270000Y-96520000D03*
D15*
X180380640Y-128168400D03*
X180380640Y-115671600D03*
X185379360Y-128168400D03*
X185379360Y-115671600D03*
D16*
X157480000Y-118110000D03*
D10*
X167640000Y-118110000D03*
D16*
X180340000Y-111760000D03*
D10*
X180340000Y-101600000D03*
D16*
X185420000Y-111760000D03*
D10*
X185420000Y-101600000D03*
D16*
X187960000Y-87630000D03*
D10*
X187960000Y-77470000D03*
D16*
X184404000Y-87630000D03*
D10*
X184404000Y-77470000D03*
D17*
X185420000Y-95250000D03*
X182880000Y-95250000D03*
D18*
X180340000Y-95250000D03*
D19*
X177800000Y-78740000D03*
D18*
X180340000Y-78740000D03*
D19*
X177800000Y-86360000D03*
D18*
X180340000Y-86360000D03*
D20*
X172720000Y-78740000D03*
X157480000Y-78740000D03*
X172720000Y-81280000D03*
X157480000Y-81280000D03*
X172720000Y-83820000D03*
X157480000Y-83820000D03*
X172720000Y-86360000D03*
X157480000Y-86360000D03*
X172720000Y-88900000D03*
X157480000Y-88900000D03*
X172720000Y-91440000D03*
X157480000Y-91440000D03*
X172720000Y-93980000D03*
X157480000Y-93980000D03*
X172720000Y-96520000D03*
X157480000Y-96520000D03*
X172720000Y-99060000D03*
X157480000Y-99060000D03*
X172720000Y-101600000D03*
X157480000Y-101600000D03*
X172720000Y-104140000D03*
X157480000Y-104140000D03*
X172720000Y-106680000D03*
X157480000Y-106680000D03*
X172720000Y-109220000D03*
X157480000Y-109220000D03*
X172720000Y-111760000D03*
X157480000Y-111760000D03*
D21*
X172720000Y-114300000D03*
D20*
X157480000Y-114300000D03*
D22*
X132080000Y-81280000D03*
X133350000Y-82550000D03*
X125730000Y-86360000D03*
X123190000Y-85090000D03*
X123190000Y-113030000D03*
X161290000Y-109220000D03*
X142240000Y-96520000D03*
X125730000Y-104140000D03*
X123190000Y-104140000D03*
X125730000Y-78740000D03*
X125730000Y-81280000D03*
X124460000Y-113030000D03*
X125730000Y-115570000D03*
X153474136Y-101404135D03*
X156210000Y-123190000D03*
X165099972Y-123190000D03*
D23*
X173070000Y-78740000D02*
X172720000Y-78740000D01*
X174245010Y-79915010D02*
X173070000Y-78740000D01*
X177211999Y-87585001D02*
X174245010Y-84618012D01*
X179568003Y-87585001D02*
X177211999Y-87585001D01*
X186783861Y-94800859D02*
X179568003Y-87585001D01*
X174245010Y-84618012D02*
X174245010Y-79915010D01*
X186783861Y-126763899D02*
X186783861Y-94800859D01*
X185379360Y-128168400D02*
X186783861Y-126763899D01*
X121050000Y-91440000D02*
X120650000Y-91440000D01*
X122175010Y-90314990D02*
X121050000Y-91440000D01*
X122175010Y-87923986D02*
X122175010Y-90314990D01*
X127404006Y-82694990D02*
X122175010Y-87923986D01*
X130665010Y-82694990D02*
X127404006Y-82694990D01*
X132080000Y-81280000D02*
X130665010Y-82694990D01*
X130665010Y-85234990D02*
X126855010Y-85234990D01*
X133350000Y-82550000D02*
X130665010Y-85234990D01*
X126855010Y-85234990D02*
X125730000Y-86360000D01*
X125730000Y-86360000D02*
X125730000Y-86360000D01*
X120650000Y-85310000D02*
X120650000Y-86360000D01*
X120870000Y-85090000D02*
X120650000Y-85310000D01*
X123190000Y-85090000D02*
X120870000Y-85090000D01*
X123190000Y-113030000D02*
X123190000Y-113030000D01*
X124460000Y-111760000D02*
X123190000Y-113030000D01*
X125730000Y-86360000D02*
X124460000Y-87630000D01*
X124460000Y-87630000D02*
X124460000Y-111760000D01*
X161290000Y-109220000D02*
X161290000Y-109220000D01*
X170220000Y-115610000D02*
X170220000Y-124460000D01*
X161290000Y-109220000D02*
X163830000Y-109220000D01*
X163830000Y-109220000D02*
X170220000Y-115610000D01*
X120650000Y-110490000D02*
X120250000Y-110490000D01*
X121050000Y-125730000D02*
X122175001Y-126855001D01*
X120650000Y-125730000D02*
X121050000Y-125730000D01*
X157130000Y-106680000D02*
X157480000Y-106680000D01*
X154795001Y-109014999D02*
X157130000Y-106680000D01*
X154795001Y-126855001D02*
X154795001Y-109014999D01*
X122175001Y-126855001D02*
X154795001Y-126855001D01*
X167640000Y-119241370D02*
X167640000Y-118110000D01*
X167640000Y-125730000D02*
X167640000Y-119241370D01*
X154795001Y-126855001D02*
X166514999Y-126855001D01*
X166514999Y-126855001D02*
X167640000Y-125730000D01*
X120250000Y-110490000D02*
X119380000Y-110490000D01*
X120250000Y-125730000D02*
X120650000Y-125730000D01*
X118110000Y-123590000D02*
X120250000Y-125730000D01*
X119380000Y-110490000D02*
X118110000Y-111760000D01*
X118110000Y-111760000D02*
X118110000Y-123590000D01*
X119380000Y-96520000D02*
X120650000Y-96520000D01*
X118110000Y-97790000D02*
X119380000Y-96520000D01*
X119380000Y-110490000D02*
X118110000Y-109220000D01*
X118110000Y-109220000D02*
X118110000Y-97790000D01*
X119380000Y-81280000D02*
X120650000Y-81280000D01*
X118110000Y-82550000D02*
X119380000Y-81280000D01*
X119380000Y-96520000D02*
X118110000Y-95250000D01*
X118110000Y-95250000D02*
X118110000Y-82550000D01*
X125730000Y-76200000D02*
X120650000Y-81280000D01*
X137160000Y-76200000D02*
X125730000Y-76200000D01*
X146050000Y-87630000D02*
X146050000Y-85090000D01*
X146050000Y-85090000D02*
X137160000Y-76200000D01*
X149860000Y-86360000D02*
X151130000Y-87630000D01*
X146050000Y-87630000D02*
X147320000Y-86360000D01*
X147320000Y-86360000D02*
X149860000Y-86360000D01*
X146050000Y-113030000D02*
X151130000Y-113030000D01*
X146050000Y-102870000D02*
X151130000Y-102870000D01*
X146050000Y-107950000D02*
X151130000Y-107950000D01*
X158279999Y-117310001D02*
X157480000Y-118110000D01*
X159005010Y-116584990D02*
X158279999Y-117310001D01*
X159005010Y-97695010D02*
X159005010Y-116584990D01*
X157830000Y-96520000D02*
X159005010Y-97695010D01*
X157480000Y-96520000D02*
X157830000Y-96520000D01*
X151410000Y-107950000D02*
X151130000Y-107950000D01*
X157480000Y-96520000D02*
X157130000Y-96520000D01*
X157130000Y-96520000D02*
X152455010Y-101194990D01*
X152455010Y-101194990D02*
X152455010Y-106904990D01*
X152455010Y-106904990D02*
X151410000Y-107950000D01*
X151130000Y-118110000D02*
X146050000Y-118110000D01*
X179540001Y-110960001D02*
X180340000Y-111760000D01*
X176624990Y-108044990D02*
X179540001Y-110960001D01*
X171894990Y-108044990D02*
X176624990Y-108044990D01*
X157830000Y-93980000D02*
X171894990Y-108044990D01*
X157480000Y-93980000D02*
X157830000Y-93980000D01*
X185420000Y-111760000D02*
X180340000Y-111760000D01*
X157130000Y-91440000D02*
X157480000Y-91440000D01*
X155954990Y-94722877D02*
X155954990Y-92615010D01*
X151392877Y-99284990D02*
X155954990Y-94722877D01*
X147877143Y-101824990D02*
X150417143Y-99284990D01*
X155954990Y-92615010D02*
X157130000Y-91440000D01*
X150417143Y-99284990D02*
X151392877Y-99284990D01*
X145337143Y-101824990D02*
X147877143Y-101824990D01*
X144724990Y-102437143D02*
X145337143Y-101824990D01*
X144724990Y-112095010D02*
X144724990Y-102437143D01*
X138710000Y-118110000D02*
X144724990Y-112095010D01*
X138430000Y-118110000D02*
X138710000Y-118110000D01*
X152380000Y-90170000D02*
X151130000Y-90170000D01*
X158400000Y-90170000D02*
X152380000Y-90170000D01*
X172370000Y-104140000D02*
X158400000Y-90170000D01*
X172720000Y-104140000D02*
X172370000Y-104140000D01*
X138430000Y-115570000D02*
X135890000Y-115570000D01*
X156030000Y-88900000D02*
X157480000Y-88900000D01*
X145562133Y-88900000D02*
X156030000Y-88900000D01*
X144274980Y-90187153D02*
X145562133Y-88900000D01*
X144274980Y-110005020D02*
X144274980Y-90187153D01*
X138710000Y-115570000D02*
X144274980Y-110005020D01*
X138430000Y-115570000D02*
X138710000Y-115570000D01*
X138710000Y-113030000D02*
X142240000Y-109500000D01*
X138430000Y-113030000D02*
X138710000Y-113030000D01*
X142240000Y-109500000D02*
X142240000Y-96520000D01*
X142240000Y-96520000D02*
X142240000Y-96520000D01*
X135890000Y-110490000D02*
X138430000Y-110490000D01*
X129795010Y-91419988D02*
X129795010Y-102614990D01*
X138430000Y-110490000D02*
X138710000Y-110490000D01*
X139755001Y-109444999D02*
X139755001Y-86649999D01*
X139755001Y-86649999D02*
X139690001Y-86584999D01*
X138710000Y-110490000D02*
X139755001Y-109444999D01*
X139690001Y-86584999D02*
X134629999Y-86584999D01*
X134629999Y-86584999D02*
X129795010Y-91419988D01*
X129795010Y-102614990D02*
X128270000Y-104140000D01*
X128270000Y-104140000D02*
X125730000Y-104140000D01*
X125730000Y-104140000D02*
X125730000Y-104140000D01*
X121050000Y-93980000D02*
X120650000Y-93980000D01*
X123190000Y-96120000D02*
X121050000Y-93980000D01*
X123190000Y-104140000D02*
X123190000Y-96120000D01*
X138430000Y-95250000D02*
X135890000Y-95250000D01*
X135890000Y-100330000D02*
X138430000Y-100330000D01*
X138430000Y-105410000D02*
X135890000Y-105410000D01*
X125730000Y-78740000D02*
X125730000Y-81280000D01*
X125730000Y-81280000D02*
X125730000Y-81280000D01*
X124460000Y-113030000D02*
X124460000Y-114300000D01*
X124460000Y-114300000D02*
X125730000Y-115570000D01*
X125730000Y-115570000D02*
X125730000Y-115570000D01*
X135610000Y-87630000D02*
X135890000Y-87630000D01*
X134114980Y-89125020D02*
X135610000Y-87630000D01*
X134114980Y-107585020D02*
X134114980Y-89125020D01*
X128670000Y-113030000D02*
X134114980Y-107585020D01*
X128270000Y-113030000D02*
X128670000Y-113030000D01*
X151130000Y-92710000D02*
X146050000Y-92710000D01*
X135890000Y-90170000D02*
X138430000Y-90170000D01*
X135610000Y-90170000D02*
X135890000Y-90170000D01*
X134564990Y-91215010D02*
X135610000Y-90170000D01*
X134564990Y-112215010D02*
X134564990Y-91215010D01*
X128670000Y-118110000D02*
X134564990Y-112215010D01*
X128270000Y-118110000D02*
X128670000Y-118110000D01*
X146050000Y-97790000D02*
X151130000Y-97790000D01*
X153670000Y-101600000D02*
X153670000Y-101600000D01*
X153474136Y-101969820D02*
X153474136Y-101404135D01*
X152905020Y-102538936D02*
X153474136Y-101969820D01*
X152905020Y-107091390D02*
X152905020Y-102538936D01*
X152455010Y-107541400D02*
X152905020Y-107091390D01*
X152455010Y-108382857D02*
X152455010Y-107541400D01*
X152400000Y-108437867D02*
X152455010Y-108382857D01*
X152400000Y-110002133D02*
X152400000Y-108437867D01*
X152455010Y-110922857D02*
X152455010Y-110057143D01*
X152400000Y-110977867D02*
X152455010Y-110922857D01*
X152400000Y-118597867D02*
X152455010Y-118542857D01*
X152455010Y-117677143D02*
X152400000Y-117622133D01*
X152400000Y-120162133D02*
X152400000Y-118597867D01*
X152400000Y-112542133D02*
X152400000Y-110977867D01*
X152455010Y-120217143D02*
X152400000Y-120162133D01*
X152400000Y-117622133D02*
X152400000Y-116057867D01*
X152455010Y-121082857D02*
X152455010Y-120217143D01*
X147807867Y-125730000D02*
X152455010Y-121082857D01*
X152455010Y-110057143D02*
X152400000Y-110002133D01*
X152455010Y-115137143D02*
X152400000Y-115082133D01*
X128270000Y-125730000D02*
X147807867Y-125730000D01*
X152455010Y-118542857D02*
X152455010Y-117677143D01*
X152400000Y-116057867D02*
X152455010Y-116002857D01*
X152400000Y-115082133D02*
X152400000Y-113517867D01*
X152455010Y-116002857D02*
X152455010Y-115137143D01*
X152400000Y-113517867D02*
X152455010Y-113462857D01*
X152455010Y-113462857D02*
X152455010Y-112597143D01*
X152455010Y-112597143D02*
X152400000Y-112542133D01*
X135890000Y-120650000D02*
X138430000Y-120650000D01*
X161290000Y-123190000D02*
X161290000Y-123190000D01*
X156210000Y-123190000D02*
X165099972Y-123190000D01*
X180340000Y-81534000D02*
X184404000Y-77470000D01*
X180340000Y-86360000D02*
X180340000Y-81534000D01*
D24*
G36*
X167833748Y-118095858D02*
G01*
X167819605Y-118110000D01*
X168632702Y-118923097D01*
X168783000Y-118878998D01*
X168783000Y-126947394D01*
X166531771Y-129198623D01*
X167497661Y-119539725D01*
X167710512Y-119550217D01*
X167990130Y-119508787D01*
X168256292Y-119413603D01*
X168381514Y-119346671D01*
X168453097Y-119102702D01*
X167640000Y-118289605D01*
X167625858Y-118303748D01*
X167621677Y-118299567D01*
X167659475Y-117921585D01*
X167833748Y-118095858D01*
X167833748Y-118095858D01*
G37*
X167833748Y-118095858D02*
X167819605Y-118110000D01*
X168632702Y-118923097D01*
X168783000Y-118878998D01*
X168783000Y-126947394D01*
X166531771Y-129198623D01*
X167497661Y-119539725D01*
X167710512Y-119550217D01*
X167990130Y-119508787D01*
X168256292Y-119413603D01*
X168381514Y-119346671D01*
X168453097Y-119102702D01*
X167640000Y-118289605D01*
X167625858Y-118303748D01*
X167621677Y-118299567D01*
X167659475Y-117921585D01*
X167833748Y-118095858D01*
G36*
X154813000Y-87503000D02*
G01*
X152765000Y-87503000D01*
X152765000Y-87502998D01*
X152599490Y-87502998D01*
X152722559Y-87293528D01*
X152710458Y-87228797D01*
X152607199Y-86982799D01*
X152457933Y-86761673D01*
X152268395Y-86573916D01*
X152045869Y-86426744D01*
X151798907Y-86325812D01*
X151537000Y-86275000D01*
X151257000Y-86275000D01*
X151257000Y-87503000D01*
X151003000Y-87503000D01*
X151003000Y-86275000D01*
X150723000Y-86275000D01*
X150461093Y-86325812D01*
X150214131Y-86426744D01*
X149991605Y-86573916D01*
X149802067Y-86761673D01*
X149652801Y-86982799D01*
X149549542Y-87228797D01*
X149537441Y-87293528D01*
X149660510Y-87502998D01*
X149495000Y-87502998D01*
X149495000Y-87503000D01*
X147685000Y-87503000D01*
X147685000Y-87502998D01*
X147519490Y-87502998D01*
X147642559Y-87293528D01*
X147630458Y-87228797D01*
X147527199Y-86982799D01*
X147377933Y-86761673D01*
X147188395Y-86573916D01*
X146965869Y-86426744D01*
X146718907Y-86325812D01*
X146457000Y-86275000D01*
X146177000Y-86275000D01*
X146177000Y-87503000D01*
X145923000Y-87503000D01*
X145923000Y-86275000D01*
X145643000Y-86275000D01*
X145381093Y-86325812D01*
X145134131Y-86426744D01*
X144911605Y-86573916D01*
X144722067Y-86761673D01*
X144572801Y-86982799D01*
X144495814Y-87166208D01*
X139117606Y-81788000D01*
X145415000Y-81788000D01*
X145415000Y-83820000D01*
X145417440Y-83844776D01*
X145424667Y-83868601D01*
X145436403Y-83890557D01*
X145452197Y-83909803D01*
X145471443Y-83925597D01*
X145493399Y-83937333D01*
X145517224Y-83944560D01*
X145542000Y-83947000D01*
X150114000Y-83947000D01*
X150138776Y-83944560D01*
X150162601Y-83937333D01*
X150184557Y-83925597D01*
X150203803Y-83909803D01*
X150219597Y-83890557D01*
X150231333Y-83868601D01*
X150238560Y-83844776D01*
X150241000Y-83820000D01*
X150241000Y-81788000D01*
X151003000Y-81788000D01*
X151003000Y-83820000D01*
X151005440Y-83844776D01*
X151012667Y-83868601D01*
X151024403Y-83890557D01*
X151040197Y-83909803D01*
X151059443Y-83925597D01*
X151081399Y-83937333D01*
X151105224Y-83944560D01*
X151130000Y-83947000D01*
X153670000Y-83947000D01*
X153694776Y-83944560D01*
X153718601Y-83937333D01*
X153740557Y-83925597D01*
X153759803Y-83909803D01*
X153775597Y-83890557D01*
X153787333Y-83868601D01*
X153794560Y-83844776D01*
X153797000Y-83820000D01*
X153797000Y-81788000D01*
X153794560Y-81763224D01*
X153787333Y-81739399D01*
X153775597Y-81717443D01*
X153759803Y-81698197D01*
X153740557Y-81682403D01*
X153718601Y-81670667D01*
X153694776Y-81663440D01*
X153670000Y-81661000D01*
X151130000Y-81661000D01*
X151105224Y-81663440D01*
X151081399Y-81670667D01*
X151059443Y-81682403D01*
X151040197Y-81698197D01*
X151024403Y-81717443D01*
X151012667Y-81739399D01*
X151005440Y-81763224D01*
X151003000Y-81788000D01*
X150241000Y-81788000D01*
X150238560Y-81763224D01*
X150231333Y-81739399D01*
X150219597Y-81717443D01*
X150203803Y-81698197D01*
X150184557Y-81682403D01*
X150162601Y-81670667D01*
X150138776Y-81663440D01*
X150114000Y-81661000D01*
X145542000Y-81661000D01*
X145517224Y-81663440D01*
X145493399Y-81670667D01*
X145471443Y-81682403D01*
X145452197Y-81698197D01*
X145436403Y-81717443D01*
X145424667Y-81739399D01*
X145417440Y-81763224D01*
X145415000Y-81788000D01*
X139117606Y-81788000D01*
X136069606Y-78740000D01*
X145415000Y-78740000D01*
X145415000Y-80772000D01*
X145417440Y-80796776D01*
X145424667Y-80820601D01*
X145436403Y-80842557D01*
X145452197Y-80861803D01*
X145471443Y-80877597D01*
X145493399Y-80889333D01*
X145517224Y-80896560D01*
X145542000Y-80899000D01*
X150114000Y-80899000D01*
X150138776Y-80896560D01*
X150162601Y-80889333D01*
X150184557Y-80877597D01*
X150203803Y-80861803D01*
X150219597Y-80842557D01*
X150231333Y-80820601D01*
X150238560Y-80796776D01*
X150241000Y-80772000D01*
X150241000Y-78740000D01*
X151003000Y-78740000D01*
X151003000Y-80772000D01*
X151005440Y-80796776D01*
X151012667Y-80820601D01*
X151024403Y-80842557D01*
X151040197Y-80861803D01*
X151059443Y-80877597D01*
X151081399Y-80889333D01*
X151105224Y-80896560D01*
X151130000Y-80899000D01*
X153670000Y-80899000D01*
X153694776Y-80896560D01*
X153718601Y-80889333D01*
X153740557Y-80877597D01*
X153759803Y-80861803D01*
X153775597Y-80842557D01*
X153787333Y-80820601D01*
X153794560Y-80796776D01*
X153797000Y-80772000D01*
X153797000Y-78740000D01*
X153794560Y-78715224D01*
X153787333Y-78691399D01*
X153775597Y-78669443D01*
X153759803Y-78650197D01*
X153740557Y-78634403D01*
X153718601Y-78622667D01*
X153694776Y-78615440D01*
X153670000Y-78613000D01*
X151130000Y-78613000D01*
X151105224Y-78615440D01*
X151081399Y-78622667D01*
X151059443Y-78634403D01*
X151040197Y-78650197D01*
X151024403Y-78669443D01*
X151012667Y-78691399D01*
X151005440Y-78715224D01*
X151003000Y-78740000D01*
X150241000Y-78740000D01*
X150238560Y-78715224D01*
X150231333Y-78691399D01*
X150219597Y-78669443D01*
X150203803Y-78650197D01*
X150184557Y-78634403D01*
X150162601Y-78622667D01*
X150138776Y-78615440D01*
X150114000Y-78613000D01*
X145542000Y-78613000D01*
X145517224Y-78615440D01*
X145493399Y-78622667D01*
X145471443Y-78634403D01*
X145452197Y-78650197D01*
X145436403Y-78669443D01*
X145424667Y-78691399D01*
X145417440Y-78715224D01*
X145415000Y-78740000D01*
X136069606Y-78740000D01*
X134709803Y-77380197D01*
X134690557Y-77364403D01*
X134668601Y-77352667D01*
X134644776Y-77345440D01*
X134620000Y-77343000D01*
X129008129Y-77343000D01*
X128951309Y-77325764D01*
X128740492Y-77305000D01*
X127799508Y-77305000D01*
X127588691Y-77325764D01*
X127531871Y-77343000D01*
X125730000Y-77343000D01*
X125705224Y-77345440D01*
X125681399Y-77352667D01*
X125659443Y-77364403D01*
X125640197Y-77380197D01*
X125112734Y-77907660D01*
X125070226Y-77936063D01*
X124926063Y-78080226D01*
X124897660Y-78122734D01*
X122349055Y-80671339D01*
X122313715Y-80588354D01*
X122154500Y-80355105D01*
X121952839Y-80157399D01*
X121723259Y-80007265D01*
X121851101Y-79938932D01*
X122069608Y-79759608D01*
X122248932Y-79541101D01*
X122382182Y-79291808D01*
X122464236Y-79021309D01*
X122491943Y-78740000D01*
X122464236Y-78458691D01*
X122382182Y-78188192D01*
X122248932Y-77938899D01*
X122069608Y-77720392D01*
X121851101Y-77541068D01*
X121601808Y-77407818D01*
X121331309Y-77325764D01*
X121120492Y-77305000D01*
X120179508Y-77305000D01*
X119968691Y-77325764D01*
X119698192Y-77407818D01*
X119448899Y-77541068D01*
X119230392Y-77720392D01*
X119051068Y-77938899D01*
X118917818Y-78188192D01*
X118835764Y-78458691D01*
X118808057Y-78740000D01*
X118835764Y-79021309D01*
X118917818Y-79291808D01*
X119051068Y-79541101D01*
X119230392Y-79759608D01*
X119448899Y-79938932D01*
X119576741Y-80007265D01*
X119347161Y-80157399D01*
X119145500Y-80355105D01*
X118986285Y-80588354D01*
X118875633Y-80848182D01*
X118858096Y-80930961D01*
X118980085Y-81153000D01*
X120523000Y-81153000D01*
X120523000Y-81133000D01*
X120777000Y-81133000D01*
X120777000Y-81153000D01*
X120650000Y-81153000D01*
X120625224Y-81155440D01*
X120601399Y-81162667D01*
X120579443Y-81174403D01*
X120560197Y-81190197D01*
X120343394Y-81407000D01*
X118980085Y-81407000D01*
X118858096Y-81629039D01*
X118875633Y-81711818D01*
X118986285Y-81971646D01*
X119145500Y-82204895D01*
X119347161Y-82402601D01*
X119347543Y-82402851D01*
X119290197Y-82460197D01*
X119274403Y-82479443D01*
X119262667Y-82501399D01*
X119255440Y-82525224D01*
X119253000Y-82550000D01*
X119253000Y-82781838D01*
X119230392Y-82800392D01*
X119051068Y-83018899D01*
X118917818Y-83268192D01*
X118835764Y-83538691D01*
X118808057Y-83820000D01*
X118835764Y-84101309D01*
X118917818Y-84371808D01*
X119051068Y-84621101D01*
X119230392Y-84839608D01*
X119253000Y-84858162D01*
X119253000Y-85321838D01*
X119230392Y-85340392D01*
X119051068Y-85558899D01*
X118917818Y-85808192D01*
X118835764Y-86078691D01*
X118808057Y-86360000D01*
X118835764Y-86641309D01*
X118917818Y-86911808D01*
X119051068Y-87161101D01*
X119230392Y-87379608D01*
X119253000Y-87398162D01*
X119253000Y-87861838D01*
X119230392Y-87880392D01*
X119051068Y-88098899D01*
X118917818Y-88348192D01*
X118835764Y-88618691D01*
X118808057Y-88900000D01*
X118835764Y-89181309D01*
X118917818Y-89451808D01*
X119051068Y-89701101D01*
X119230392Y-89919608D01*
X119253000Y-89938162D01*
X119253000Y-90401838D01*
X119230392Y-90420392D01*
X119051068Y-90638899D01*
X118917818Y-90888192D01*
X118835764Y-91158691D01*
X118808057Y-91440000D01*
X118835764Y-91721309D01*
X118917818Y-91991808D01*
X119051068Y-92241101D01*
X119230392Y-92459608D01*
X119253000Y-92478162D01*
X119253000Y-92941838D01*
X119230392Y-92960392D01*
X119051068Y-93178899D01*
X118917818Y-93428192D01*
X118835764Y-93698691D01*
X118808057Y-93980000D01*
X118835764Y-94261309D01*
X118917818Y-94531808D01*
X119051068Y-94781101D01*
X119230392Y-94999608D01*
X119253000Y-95018162D01*
X119253000Y-95250000D01*
X119255440Y-95274776D01*
X119262667Y-95298601D01*
X119274403Y-95320557D01*
X119290197Y-95339803D01*
X119347543Y-95397149D01*
X119347161Y-95397399D01*
X119145500Y-95595105D01*
X118986285Y-95828354D01*
X118875633Y-96088182D01*
X118858096Y-96170961D01*
X118980085Y-96393000D01*
X120343394Y-96393000D01*
X120495471Y-96545077D01*
X120444510Y-96647000D01*
X118980085Y-96647000D01*
X118858096Y-96869039D01*
X118875633Y-96951818D01*
X118986285Y-97211646D01*
X119145500Y-97444895D01*
X119347161Y-97642601D01*
X119583517Y-97797166D01*
X119821512Y-97892996D01*
X119266408Y-99003204D01*
X119257510Y-99026456D01*
X119253000Y-99060000D01*
X119253000Y-106911838D01*
X119230392Y-106930392D01*
X119051068Y-107148899D01*
X118917818Y-107398192D01*
X118835764Y-107668691D01*
X118808057Y-107950000D01*
X118835764Y-108231309D01*
X118917818Y-108501808D01*
X119051068Y-108751101D01*
X119230392Y-108969608D01*
X119253000Y-108988162D01*
X119253000Y-109220000D01*
X119255440Y-109244776D01*
X119262667Y-109268601D01*
X119274403Y-109290557D01*
X119290197Y-109309803D01*
X119347543Y-109367149D01*
X119347161Y-109367399D01*
X119145500Y-109565105D01*
X118986285Y-109798354D01*
X118875633Y-110058182D01*
X118858096Y-110140961D01*
X118980085Y-110363000D01*
X120343394Y-110363000D01*
X120470394Y-110490000D01*
X120343394Y-110617000D01*
X118980085Y-110617000D01*
X118858096Y-110839039D01*
X118875633Y-110921818D01*
X118986285Y-111181646D01*
X119145500Y-111414895D01*
X119347161Y-111612601D01*
X119347543Y-111612851D01*
X119290197Y-111670197D01*
X119274403Y-111689443D01*
X119262667Y-111711399D01*
X119255440Y-111735224D01*
X119253000Y-111760000D01*
X119253000Y-111991838D01*
X119230392Y-112010392D01*
X119051068Y-112228899D01*
X118917818Y-112478192D01*
X118835764Y-112748691D01*
X118808057Y-113030000D01*
X118835764Y-113311309D01*
X118917818Y-113581808D01*
X119051068Y-113831101D01*
X119230392Y-114049608D01*
X119253000Y-114068162D01*
X119253000Y-114531838D01*
X119230392Y-114550392D01*
X119051068Y-114768899D01*
X118917818Y-115018192D01*
X118835764Y-115288691D01*
X118808057Y-115570000D01*
X118835764Y-115851309D01*
X118917818Y-116121808D01*
X119051068Y-116371101D01*
X119230392Y-116589608D01*
X119253000Y-116608162D01*
X119253000Y-117071838D01*
X119230392Y-117090392D01*
X119051068Y-117308899D01*
X118917818Y-117558192D01*
X118835764Y-117828691D01*
X118808057Y-118110000D01*
X118835764Y-118391309D01*
X118917818Y-118661808D01*
X119051068Y-118911101D01*
X119230392Y-119129608D01*
X119253000Y-119148162D01*
X119253000Y-119611838D01*
X119230392Y-119630392D01*
X119051068Y-119848899D01*
X118917818Y-120098192D01*
X118835764Y-120368691D01*
X118808057Y-120650000D01*
X118835764Y-120931309D01*
X118917818Y-121201808D01*
X119051068Y-121451101D01*
X119230392Y-121669608D01*
X119253000Y-121688162D01*
X119253000Y-122151838D01*
X119230392Y-122170392D01*
X119051068Y-122388899D01*
X118917818Y-122638192D01*
X118835764Y-122908691D01*
X118808057Y-123190000D01*
X118835764Y-123471309D01*
X118917818Y-123741808D01*
X119051068Y-123991101D01*
X119230392Y-124209608D01*
X119253000Y-124228162D01*
X119253000Y-124460000D01*
X119255440Y-124484776D01*
X119262667Y-124508601D01*
X119274403Y-124530557D01*
X119290197Y-124549803D01*
X119347543Y-124607149D01*
X119347161Y-124607399D01*
X119145500Y-124805105D01*
X118986285Y-125038354D01*
X118875633Y-125298182D01*
X118858096Y-125380961D01*
X118980085Y-125603000D01*
X120343394Y-125603000D01*
X120777000Y-126036606D01*
X120777000Y-127165000D01*
X121177000Y-127165000D01*
X121454514Y-127112650D01*
X121716483Y-127007166D01*
X121735273Y-126994879D01*
X121830197Y-127089803D01*
X121849443Y-127105597D01*
X121871399Y-127117333D01*
X121895224Y-127124560D01*
X121920000Y-127127000D01*
X126850538Y-127127000D01*
X126945518Y-127155812D01*
X127070000Y-127168072D01*
X129470000Y-127168072D01*
X129594482Y-127155812D01*
X129689462Y-127127000D01*
X147320000Y-127127000D01*
X147344776Y-127124560D01*
X147368601Y-127117333D01*
X147390557Y-127105597D01*
X147409803Y-127089803D01*
X148048361Y-126451245D01*
X148100114Y-126435546D01*
X148232143Y-126364974D01*
X148347868Y-126270001D01*
X148371671Y-126240997D01*
X150025668Y-124587000D01*
X152400000Y-124587000D01*
X152424776Y-124584560D01*
X152448601Y-124577333D01*
X152470557Y-124565597D01*
X152489803Y-124549803D01*
X153759803Y-123279803D01*
X153775597Y-123260557D01*
X153787333Y-123238601D01*
X153794560Y-123214776D01*
X153797000Y-123190000D01*
X153797000Y-108002606D01*
X154992606Y-106807000D01*
X155645000Y-106807000D01*
X155645000Y-106807002D01*
X155809844Y-106807002D01*
X155688524Y-107036890D01*
X155709437Y-107130953D01*
X155824709Y-107399426D01*
X155990143Y-107640252D01*
X156167393Y-107813001D01*
X154850197Y-109130197D01*
X154834403Y-109149443D01*
X154822667Y-109171399D01*
X154815440Y-109195224D01*
X154813000Y-109220000D01*
X154813000Y-123190000D01*
X154815440Y-123214776D01*
X154822667Y-123238601D01*
X154834403Y-123260557D01*
X154850197Y-123279803D01*
X155377660Y-123807266D01*
X155406063Y-123849774D01*
X155550226Y-123993937D01*
X155592734Y-124022340D01*
X156120197Y-124549803D01*
X156139443Y-124565597D01*
X156161399Y-124577333D01*
X156185224Y-124584560D01*
X156210000Y-124587000D01*
X166370000Y-124587000D01*
X166394776Y-124584560D01*
X166418601Y-124577333D01*
X166440557Y-124565597D01*
X166459803Y-124549803D01*
X166475597Y-124530557D01*
X166487333Y-124508601D01*
X166494560Y-124484776D01*
X166497000Y-124460000D01*
X166497000Y-118878998D01*
X166647298Y-118923097D01*
X167460395Y-118110000D01*
X167446253Y-118095858D01*
X167513000Y-118029110D01*
X167513000Y-118416605D01*
X166826903Y-119102702D01*
X166898486Y-119346671D01*
X167153996Y-119467571D01*
X167428184Y-119536300D01*
X167513000Y-119540481D01*
X167513000Y-128217394D01*
X165580394Y-130150000D01*
X119653381Y-130150000D01*
X117500000Y-127996620D01*
X117500000Y-126079039D01*
X118858096Y-126079039D01*
X118875633Y-126161818D01*
X118986285Y-126421646D01*
X119145500Y-126654895D01*
X119347161Y-126852601D01*
X119583517Y-127007166D01*
X119845486Y-127112650D01*
X120123000Y-127165000D01*
X120523000Y-127165000D01*
X120523000Y-125857000D01*
X118980085Y-125857000D01*
X118858096Y-126079039D01*
X117500000Y-126079039D01*
X117500000Y-77743380D01*
X119653381Y-75590000D01*
X154813000Y-75590000D01*
X154813000Y-87503000D01*
X154813000Y-87503000D01*
G37*
X154813000Y-87503000D02*
X152765000Y-87503000D01*
X152765000Y-87502998D01*
X152599490Y-87502998D01*
X152722559Y-87293528D01*
X152710458Y-87228797D01*
X152607199Y-86982799D01*
X152457933Y-86761673D01*
X152268395Y-86573916D01*
X152045869Y-86426744D01*
X151798907Y-86325812D01*
X151537000Y-86275000D01*
X151257000Y-86275000D01*
X151257000Y-87503000D01*
X151003000Y-87503000D01*
X151003000Y-86275000D01*
X150723000Y-86275000D01*
X150461093Y-86325812D01*
X150214131Y-86426744D01*
X149991605Y-86573916D01*
X149802067Y-86761673D01*
X149652801Y-86982799D01*
X149549542Y-87228797D01*
X149537441Y-87293528D01*
X149660510Y-87502998D01*
X149495000Y-87502998D01*
X149495000Y-87503000D01*
X147685000Y-87503000D01*
X147685000Y-87502998D01*
X147519490Y-87502998D01*
X147642559Y-87293528D01*
X147630458Y-87228797D01*
X147527199Y-86982799D01*
X147377933Y-86761673D01*
X147188395Y-86573916D01*
X146965869Y-86426744D01*
X146718907Y-86325812D01*
X146457000Y-86275000D01*
X146177000Y-86275000D01*
X146177000Y-87503000D01*
X145923000Y-87503000D01*
X145923000Y-86275000D01*
X145643000Y-86275000D01*
X145381093Y-86325812D01*
X145134131Y-86426744D01*
X144911605Y-86573916D01*
X144722067Y-86761673D01*
X144572801Y-86982799D01*
X144495814Y-87166208D01*
X139117606Y-81788000D01*
X145415000Y-81788000D01*
X145415000Y-83820000D01*
X145417440Y-83844776D01*
X145424667Y-83868601D01*
X145436403Y-83890557D01*
X145452197Y-83909803D01*
X145471443Y-83925597D01*
X145493399Y-83937333D01*
X145517224Y-83944560D01*
X145542000Y-83947000D01*
X150114000Y-83947000D01*
X150138776Y-83944560D01*
X150162601Y-83937333D01*
X150184557Y-83925597D01*
X150203803Y-83909803D01*
X150219597Y-83890557D01*
X150231333Y-83868601D01*
X150238560Y-83844776D01*
X150241000Y-83820000D01*
X150241000Y-81788000D01*
X151003000Y-81788000D01*
X151003000Y-83820000D01*
X151005440Y-83844776D01*
X151012667Y-83868601D01*
X151024403Y-83890557D01*
X151040197Y-83909803D01*
X151059443Y-83925597D01*
X151081399Y-83937333D01*
X151105224Y-83944560D01*
X151130000Y-83947000D01*
X153670000Y-83947000D01*
X153694776Y-83944560D01*
X153718601Y-83937333D01*
X153740557Y-83925597D01*
X153759803Y-83909803D01*
X153775597Y-83890557D01*
X153787333Y-83868601D01*
X153794560Y-83844776D01*
X153797000Y-83820000D01*
X153797000Y-81788000D01*
X153794560Y-81763224D01*
X153787333Y-81739399D01*
X153775597Y-81717443D01*
X153759803Y-81698197D01*
X153740557Y-81682403D01*
X153718601Y-81670667D01*
X153694776Y-81663440D01*
X153670000Y-81661000D01*
X151130000Y-81661000D01*
X151105224Y-81663440D01*
X151081399Y-81670667D01*
X151059443Y-81682403D01*
X151040197Y-81698197D01*
X151024403Y-81717443D01*
X151012667Y-81739399D01*
X151005440Y-81763224D01*
X151003000Y-81788000D01*
X150241000Y-81788000D01*
X150238560Y-81763224D01*
X150231333Y-81739399D01*
X150219597Y-81717443D01*
X150203803Y-81698197D01*
X150184557Y-81682403D01*
X150162601Y-81670667D01*
X150138776Y-81663440D01*
X150114000Y-81661000D01*
X145542000Y-81661000D01*
X145517224Y-81663440D01*
X145493399Y-81670667D01*
X145471443Y-81682403D01*
X145452197Y-81698197D01*
X145436403Y-81717443D01*
X145424667Y-81739399D01*
X145417440Y-81763224D01*
X145415000Y-81788000D01*
X139117606Y-81788000D01*
X136069606Y-78740000D01*
X145415000Y-78740000D01*
X145415000Y-80772000D01*
X145417440Y-80796776D01*
X145424667Y-80820601D01*
X145436403Y-80842557D01*
X145452197Y-80861803D01*
X145471443Y-80877597D01*
X145493399Y-80889333D01*
X145517224Y-80896560D01*
X145542000Y-80899000D01*
X150114000Y-80899000D01*
X150138776Y-80896560D01*
X150162601Y-80889333D01*
X150184557Y-80877597D01*
X150203803Y-80861803D01*
X150219597Y-80842557D01*
X150231333Y-80820601D01*
X150238560Y-80796776D01*
X150241000Y-80772000D01*
X150241000Y-78740000D01*
X151003000Y-78740000D01*
X151003000Y-80772000D01*
X151005440Y-80796776D01*
X151012667Y-80820601D01*
X151024403Y-80842557D01*
X151040197Y-80861803D01*
X151059443Y-80877597D01*
X151081399Y-80889333D01*
X151105224Y-80896560D01*
X151130000Y-80899000D01*
X153670000Y-80899000D01*
X153694776Y-80896560D01*
X153718601Y-80889333D01*
X153740557Y-80877597D01*
X153759803Y-80861803D01*
X153775597Y-80842557D01*
X153787333Y-80820601D01*
X153794560Y-80796776D01*
X153797000Y-80772000D01*
X153797000Y-78740000D01*
X153794560Y-78715224D01*
X153787333Y-78691399D01*
X153775597Y-78669443D01*
X153759803Y-78650197D01*
X153740557Y-78634403D01*
X153718601Y-78622667D01*
X153694776Y-78615440D01*
X153670000Y-78613000D01*
X151130000Y-78613000D01*
X151105224Y-78615440D01*
X151081399Y-78622667D01*
X151059443Y-78634403D01*
X151040197Y-78650197D01*
X151024403Y-78669443D01*
X151012667Y-78691399D01*
X151005440Y-78715224D01*
X151003000Y-78740000D01*
X150241000Y-78740000D01*
X150238560Y-78715224D01*
X150231333Y-78691399D01*
X150219597Y-78669443D01*
X150203803Y-78650197D01*
X150184557Y-78634403D01*
X150162601Y-78622667D01*
X150138776Y-78615440D01*
X150114000Y-78613000D01*
X145542000Y-78613000D01*
X145517224Y-78615440D01*
X145493399Y-78622667D01*
X145471443Y-78634403D01*
X145452197Y-78650197D01*
X145436403Y-78669443D01*
X145424667Y-78691399D01*
X145417440Y-78715224D01*
X145415000Y-78740000D01*
X136069606Y-78740000D01*
X134709803Y-77380197D01*
X134690557Y-77364403D01*
X134668601Y-77352667D01*
X134644776Y-77345440D01*
X134620000Y-77343000D01*
X129008129Y-77343000D01*
X128951309Y-77325764D01*
X128740492Y-77305000D01*
X127799508Y-77305000D01*
X127588691Y-77325764D01*
X127531871Y-77343000D01*
X125730000Y-77343000D01*
X125705224Y-77345440D01*
X125681399Y-77352667D01*
X125659443Y-77364403D01*
X125640197Y-77380197D01*
X125112734Y-77907660D01*
X125070226Y-77936063D01*
X124926063Y-78080226D01*
X124897660Y-78122734D01*
X122349055Y-80671339D01*
X122313715Y-80588354D01*
X122154500Y-80355105D01*
X121952839Y-80157399D01*
X121723259Y-80007265D01*
X121851101Y-79938932D01*
X122069608Y-79759608D01*
X122248932Y-79541101D01*
X122382182Y-79291808D01*
X122464236Y-79021309D01*
X122491943Y-78740000D01*
X122464236Y-78458691D01*
X122382182Y-78188192D01*
X122248932Y-77938899D01*
X122069608Y-77720392D01*
X121851101Y-77541068D01*
X121601808Y-77407818D01*
X121331309Y-77325764D01*
X121120492Y-77305000D01*
X120179508Y-77305000D01*
X119968691Y-77325764D01*
X119698192Y-77407818D01*
X119448899Y-77541068D01*
X119230392Y-77720392D01*
X119051068Y-77938899D01*
X118917818Y-78188192D01*
X118835764Y-78458691D01*
X118808057Y-78740000D01*
X118835764Y-79021309D01*
X118917818Y-79291808D01*
X119051068Y-79541101D01*
X119230392Y-79759608D01*
X119448899Y-79938932D01*
X119576741Y-80007265D01*
X119347161Y-80157399D01*
X119145500Y-80355105D01*
X118986285Y-80588354D01*
X118875633Y-80848182D01*
X118858096Y-80930961D01*
X118980085Y-81153000D01*
X120523000Y-81153000D01*
X120523000Y-81133000D01*
X120777000Y-81133000D01*
X120777000Y-81153000D01*
X120650000Y-81153000D01*
X120625224Y-81155440D01*
X120601399Y-81162667D01*
X120579443Y-81174403D01*
X120560197Y-81190197D01*
X120343394Y-81407000D01*
X118980085Y-81407000D01*
X118858096Y-81629039D01*
X118875633Y-81711818D01*
X118986285Y-81971646D01*
X119145500Y-82204895D01*
X119347161Y-82402601D01*
X119347543Y-82402851D01*
X119290197Y-82460197D01*
X119274403Y-82479443D01*
X119262667Y-82501399D01*
X119255440Y-82525224D01*
X119253000Y-82550000D01*
X119253000Y-82781838D01*
X119230392Y-82800392D01*
X119051068Y-83018899D01*
X118917818Y-83268192D01*
X118835764Y-83538691D01*
X118808057Y-83820000D01*
X118835764Y-84101309D01*
X118917818Y-84371808D01*
X119051068Y-84621101D01*
X119230392Y-84839608D01*
X119253000Y-84858162D01*
X119253000Y-85321838D01*
X119230392Y-85340392D01*
X119051068Y-85558899D01*
X118917818Y-85808192D01*
X118835764Y-86078691D01*
X118808057Y-86360000D01*
X118835764Y-86641309D01*
X118917818Y-86911808D01*
X119051068Y-87161101D01*
X119230392Y-87379608D01*
X119253000Y-87398162D01*
X119253000Y-87861838D01*
X119230392Y-87880392D01*
X119051068Y-88098899D01*
X118917818Y-88348192D01*
X118835764Y-88618691D01*
X118808057Y-88900000D01*
X118835764Y-89181309D01*
X118917818Y-89451808D01*
X119051068Y-89701101D01*
X119230392Y-89919608D01*
X119253000Y-89938162D01*
X119253000Y-90401838D01*
X119230392Y-90420392D01*
X119051068Y-90638899D01*
X118917818Y-90888192D01*
X118835764Y-91158691D01*
X118808057Y-91440000D01*
X118835764Y-91721309D01*
X118917818Y-91991808D01*
X119051068Y-92241101D01*
X119230392Y-92459608D01*
X119253000Y-92478162D01*
X119253000Y-92941838D01*
X119230392Y-92960392D01*
X119051068Y-93178899D01*
X118917818Y-93428192D01*
X118835764Y-93698691D01*
X118808057Y-93980000D01*
X118835764Y-94261309D01*
X118917818Y-94531808D01*
X119051068Y-94781101D01*
X119230392Y-94999608D01*
X119253000Y-95018162D01*
X119253000Y-95250000D01*
X119255440Y-95274776D01*
X119262667Y-95298601D01*
X119274403Y-95320557D01*
X119290197Y-95339803D01*
X119347543Y-95397149D01*
X119347161Y-95397399D01*
X119145500Y-95595105D01*
X118986285Y-95828354D01*
X118875633Y-96088182D01*
X118858096Y-96170961D01*
X118980085Y-96393000D01*
X120343394Y-96393000D01*
X120495471Y-96545077D01*
X120444510Y-96647000D01*
X118980085Y-96647000D01*
X118858096Y-96869039D01*
X118875633Y-96951818D01*
X118986285Y-97211646D01*
X119145500Y-97444895D01*
X119347161Y-97642601D01*
X119583517Y-97797166D01*
X119821512Y-97892996D01*
X119266408Y-99003204D01*
X119257510Y-99026456D01*
X119253000Y-99060000D01*
X119253000Y-106911838D01*
X119230392Y-106930392D01*
X119051068Y-107148899D01*
X118917818Y-107398192D01*
X118835764Y-107668691D01*
X118808057Y-107950000D01*
X118835764Y-108231309D01*
X118917818Y-108501808D01*
X119051068Y-108751101D01*
X119230392Y-108969608D01*
X119253000Y-108988162D01*
X119253000Y-109220000D01*
X119255440Y-109244776D01*
X119262667Y-109268601D01*
X119274403Y-109290557D01*
X119290197Y-109309803D01*
X119347543Y-109367149D01*
X119347161Y-109367399D01*
X119145500Y-109565105D01*
X118986285Y-109798354D01*
X118875633Y-110058182D01*
X118858096Y-110140961D01*
X118980085Y-110363000D01*
X120343394Y-110363000D01*
X120470394Y-110490000D01*
X120343394Y-110617000D01*
X118980085Y-110617000D01*
X118858096Y-110839039D01*
X118875633Y-110921818D01*
X118986285Y-111181646D01*
X119145500Y-111414895D01*
X119347161Y-111612601D01*
X119347543Y-111612851D01*
X119290197Y-111670197D01*
X119274403Y-111689443D01*
X119262667Y-111711399D01*
X119255440Y-111735224D01*
X119253000Y-111760000D01*
X119253000Y-111991838D01*
X119230392Y-112010392D01*
X119051068Y-112228899D01*
X118917818Y-112478192D01*
X118835764Y-112748691D01*
X118808057Y-113030000D01*
X118835764Y-113311309D01*
X118917818Y-113581808D01*
X119051068Y-113831101D01*
X119230392Y-114049608D01*
X119253000Y-114068162D01*
X119253000Y-114531838D01*
X119230392Y-114550392D01*
X119051068Y-114768899D01*
X118917818Y-115018192D01*
X118835764Y-115288691D01*
X118808057Y-115570000D01*
X118835764Y-115851309D01*
X118917818Y-116121808D01*
X119051068Y-116371101D01*
X119230392Y-116589608D01*
X119253000Y-116608162D01*
X119253000Y-117071838D01*
X119230392Y-117090392D01*
X119051068Y-117308899D01*
X118917818Y-117558192D01*
X118835764Y-117828691D01*
X118808057Y-118110000D01*
X118835764Y-118391309D01*
X118917818Y-118661808D01*
X119051068Y-118911101D01*
X119230392Y-119129608D01*
X119253000Y-119148162D01*
X119253000Y-119611838D01*
X119230392Y-119630392D01*
X119051068Y-119848899D01*
X118917818Y-120098192D01*
X118835764Y-120368691D01*
X118808057Y-120650000D01*
X118835764Y-120931309D01*
X118917818Y-121201808D01*
X119051068Y-121451101D01*
X119230392Y-121669608D01*
X119253000Y-121688162D01*
X119253000Y-122151838D01*
X119230392Y-122170392D01*
X119051068Y-122388899D01*
X118917818Y-122638192D01*
X118835764Y-122908691D01*
X118808057Y-123190000D01*
X118835764Y-123471309D01*
X118917818Y-123741808D01*
X119051068Y-123991101D01*
X119230392Y-124209608D01*
X119253000Y-124228162D01*
X119253000Y-124460000D01*
X119255440Y-124484776D01*
X119262667Y-124508601D01*
X119274403Y-124530557D01*
X119290197Y-124549803D01*
X119347543Y-124607149D01*
X119347161Y-124607399D01*
X119145500Y-124805105D01*
X118986285Y-125038354D01*
X118875633Y-125298182D01*
X118858096Y-125380961D01*
X118980085Y-125603000D01*
X120343394Y-125603000D01*
X120777000Y-126036606D01*
X120777000Y-127165000D01*
X121177000Y-127165000D01*
X121454514Y-127112650D01*
X121716483Y-127007166D01*
X121735273Y-126994879D01*
X121830197Y-127089803D01*
X121849443Y-127105597D01*
X121871399Y-127117333D01*
X121895224Y-127124560D01*
X121920000Y-127127000D01*
X126850538Y-127127000D01*
X126945518Y-127155812D01*
X127070000Y-127168072D01*
X129470000Y-127168072D01*
X129594482Y-127155812D01*
X129689462Y-127127000D01*
X147320000Y-127127000D01*
X147344776Y-127124560D01*
X147368601Y-127117333D01*
X147390557Y-127105597D01*
X147409803Y-127089803D01*
X148048361Y-126451245D01*
X148100114Y-126435546D01*
X148232143Y-126364974D01*
X148347868Y-126270001D01*
X148371671Y-126240997D01*
X150025668Y-124587000D01*
X152400000Y-124587000D01*
X152424776Y-124584560D01*
X152448601Y-124577333D01*
X152470557Y-124565597D01*
X152489803Y-124549803D01*
X153759803Y-123279803D01*
X153775597Y-123260557D01*
X153787333Y-123238601D01*
X153794560Y-123214776D01*
X153797000Y-123190000D01*
X153797000Y-108002606D01*
X154992606Y-106807000D01*
X155645000Y-106807000D01*
X155645000Y-106807002D01*
X155809844Y-106807002D01*
X155688524Y-107036890D01*
X155709437Y-107130953D01*
X155824709Y-107399426D01*
X155990143Y-107640252D01*
X156167393Y-107813001D01*
X154850197Y-109130197D01*
X154834403Y-109149443D01*
X154822667Y-109171399D01*
X154815440Y-109195224D01*
X154813000Y-109220000D01*
X154813000Y-123190000D01*
X154815440Y-123214776D01*
X154822667Y-123238601D01*
X154834403Y-123260557D01*
X154850197Y-123279803D01*
X155377660Y-123807266D01*
X155406063Y-123849774D01*
X155550226Y-123993937D01*
X155592734Y-124022340D01*
X156120197Y-124549803D01*
X156139443Y-124565597D01*
X156161399Y-124577333D01*
X156185224Y-124584560D01*
X156210000Y-124587000D01*
X166370000Y-124587000D01*
X166394776Y-124584560D01*
X166418601Y-124577333D01*
X166440557Y-124565597D01*
X166459803Y-124549803D01*
X166475597Y-124530557D01*
X166487333Y-124508601D01*
X166494560Y-124484776D01*
X166497000Y-124460000D01*
X166497000Y-118878998D01*
X166647298Y-118923097D01*
X167460395Y-118110000D01*
X167446253Y-118095858D01*
X167513000Y-118029110D01*
X167513000Y-118416605D01*
X166826903Y-119102702D01*
X166898486Y-119346671D01*
X167153996Y-119467571D01*
X167428184Y-119536300D01*
X167513000Y-119540481D01*
X167513000Y-128217394D01*
X165580394Y-130150000D01*
X119653381Y-130150000D01*
X117500000Y-127996620D01*
X117500000Y-126079039D01*
X118858096Y-126079039D01*
X118875633Y-126161818D01*
X118986285Y-126421646D01*
X119145500Y-126654895D01*
X119347161Y-126852601D01*
X119583517Y-127007166D01*
X119845486Y-127112650D01*
X120123000Y-127165000D01*
X120523000Y-127165000D01*
X120523000Y-125857000D01*
X118980085Y-125857000D01*
X118858096Y-126079039D01*
X117500000Y-126079039D01*
X117500000Y-77743380D01*
X119653381Y-75590000D01*
X154813000Y-75590000D01*
X154813000Y-87503000D01*
M02*
