G04 #@! TF.GenerationSoftware,KiCad,Pcbnew,(5.1.0)-1*
G04 #@! TF.CreationDate,2019-05-25T00:30:21-04:00*
G04 #@! TF.ProjectId,f-ramune_arduino,662d7261-6d75-46e6-955f-61726475696e,rev?*
G04 #@! TF.SameCoordinates,Original*
G04 #@! TF.FileFunction,Legend,Top*
G04 #@! TF.FilePolarity,Positive*
%FSLAX46Y46*%
G04 Gerber Fmt 4.6, Leading zero omitted, Abs format (unit mm)*
G04 Created by KiCad (PCBNEW (5.1.0)-1) date 2019-05-25 00:30:21*
%MOMM*%
%LPD*%
G04 APERTURE LIST*
%ADD10C,0.120000*%
%ADD11C,0.150000*%
%ADD12C,0.203200*%
%ADD13C,0.698500*%
%ADD14C,0.010000*%
%ADD15C,0.127000*%
G04 APERTURE END LIST*
D10*
X166497000Y-80899000D02*
X166751000Y-78232000D01*
X166751000Y-78232000D02*
X167386000Y-78232000D01*
X167386000Y-78232000D02*
X167640000Y-80899000D01*
X163449000Y-78232000D02*
X163703000Y-80899000D01*
X162814000Y-78232000D02*
X163449000Y-78232000D01*
X162560000Y-80899000D02*
X162814000Y-78232000D01*
X168783000Y-77597000D02*
X168783000Y-85979000D01*
X168402000Y-77216000D02*
X168783000Y-77597000D01*
X161671000Y-77216000D02*
X168402000Y-77216000D01*
X161290000Y-77597000D02*
X161671000Y-77216000D01*
X161290000Y-85979000D02*
X161290000Y-77597000D01*
D11*
X120207809Y-129214571D02*
X119874476Y-129214571D01*
X119874476Y-129738380D02*
X119874476Y-128738380D01*
X120350666Y-128738380D01*
X120731619Y-129357428D02*
X121493523Y-129357428D01*
X122541142Y-129738380D02*
X122207809Y-129262190D01*
X121969714Y-129738380D02*
X121969714Y-128738380D01*
X122350666Y-128738380D01*
X122445904Y-128786000D01*
X122493523Y-128833619D01*
X122541142Y-128928857D01*
X122541142Y-129071714D01*
X122493523Y-129166952D01*
X122445904Y-129214571D01*
X122350666Y-129262190D01*
X121969714Y-129262190D01*
X123398285Y-129738380D02*
X123398285Y-129214571D01*
X123350666Y-129119333D01*
X123255428Y-129071714D01*
X123064952Y-129071714D01*
X122969714Y-129119333D01*
X123398285Y-129690761D02*
X123303047Y-129738380D01*
X123064952Y-129738380D01*
X122969714Y-129690761D01*
X122922095Y-129595523D01*
X122922095Y-129500285D01*
X122969714Y-129405047D01*
X123064952Y-129357428D01*
X123303047Y-129357428D01*
X123398285Y-129309809D01*
X123874476Y-129738380D02*
X123874476Y-129071714D01*
X123874476Y-129166952D02*
X123922095Y-129119333D01*
X124017333Y-129071714D01*
X124160190Y-129071714D01*
X124255428Y-129119333D01*
X124303047Y-129214571D01*
X124303047Y-129738380D01*
X124303047Y-129214571D02*
X124350666Y-129119333D01*
X124445904Y-129071714D01*
X124588761Y-129071714D01*
X124684000Y-129119333D01*
X124731619Y-129214571D01*
X124731619Y-129738380D01*
X125636380Y-129071714D02*
X125636380Y-129738380D01*
X125207809Y-129071714D02*
X125207809Y-129595523D01*
X125255428Y-129690761D01*
X125350666Y-129738380D01*
X125493523Y-129738380D01*
X125588761Y-129690761D01*
X125636380Y-129643142D01*
X126112571Y-129071714D02*
X126112571Y-129738380D01*
X126112571Y-129166952D02*
X126160190Y-129119333D01*
X126255428Y-129071714D01*
X126398285Y-129071714D01*
X126493523Y-129119333D01*
X126541142Y-129214571D01*
X126541142Y-129738380D01*
X127398285Y-129690761D02*
X127303047Y-129738380D01*
X127112571Y-129738380D01*
X127017333Y-129690761D01*
X126969714Y-129595523D01*
X126969714Y-129214571D01*
X127017333Y-129119333D01*
X127112571Y-129071714D01*
X127303047Y-129071714D01*
X127398285Y-129119333D01*
X127445904Y-129214571D01*
X127445904Y-129309809D01*
X126969714Y-129405047D01*
X128541142Y-129071714D02*
X128779238Y-129738380D01*
X129017333Y-129071714D01*
X129922095Y-129738380D02*
X129350666Y-129738380D01*
X129636380Y-129738380D02*
X129636380Y-128738380D01*
X129541142Y-128881238D01*
X129445904Y-128976476D01*
X129350666Y-129024095D01*
X130350666Y-129643142D02*
X130398285Y-129690761D01*
X130350666Y-129738380D01*
X130303047Y-129690761D01*
X130350666Y-129643142D01*
X130350666Y-129738380D01*
X131017333Y-128738380D02*
X131112571Y-128738380D01*
X131207809Y-128786000D01*
X131255428Y-128833619D01*
X131303047Y-128928857D01*
X131350666Y-129119333D01*
X131350666Y-129357428D01*
X131303047Y-129547904D01*
X131255428Y-129643142D01*
X131207809Y-129690761D01*
X131112571Y-129738380D01*
X131017333Y-129738380D01*
X130922095Y-129690761D01*
X130874476Y-129643142D01*
X130826857Y-129547904D01*
X130779238Y-129357428D01*
X130779238Y-129119333D01*
X130826857Y-128928857D01*
X130874476Y-128833619D01*
X130922095Y-128786000D01*
X131017333Y-128738380D01*
X133350666Y-128976476D02*
X133255428Y-128928857D01*
X133064952Y-128928857D01*
X132969714Y-128976476D01*
X132874476Y-129071714D01*
X132826857Y-129166952D01*
X132826857Y-129357428D01*
X132874476Y-129452666D01*
X132969714Y-129547904D01*
X133064952Y-129595523D01*
X133255428Y-129595523D01*
X133350666Y-129547904D01*
X133160190Y-128595523D02*
X132922095Y-128643142D01*
X132684000Y-128786000D01*
X132541142Y-129024095D01*
X132493523Y-129262190D01*
X132541142Y-129500285D01*
X132684000Y-129738380D01*
X132922095Y-129881238D01*
X133160190Y-129928857D01*
X133398285Y-129881238D01*
X133636380Y-129738380D01*
X133779238Y-129500285D01*
X133826857Y-129262190D01*
X133779238Y-129024095D01*
X133636380Y-128786000D01*
X133398285Y-128643142D01*
X133160190Y-128595523D01*
X134207809Y-128833619D02*
X134255428Y-128786000D01*
X134350666Y-128738380D01*
X134588761Y-128738380D01*
X134684000Y-128786000D01*
X134731619Y-128833619D01*
X134779238Y-128928857D01*
X134779238Y-129024095D01*
X134731619Y-129166952D01*
X134160190Y-129738380D01*
X134779238Y-129738380D01*
X135398285Y-128738380D02*
X135493523Y-128738380D01*
X135588761Y-128786000D01*
X135636380Y-128833619D01*
X135684000Y-128928857D01*
X135731619Y-129119333D01*
X135731619Y-129357428D01*
X135684000Y-129547904D01*
X135636380Y-129643142D01*
X135588761Y-129690761D01*
X135493523Y-129738380D01*
X135398285Y-129738380D01*
X135303047Y-129690761D01*
X135255428Y-129643142D01*
X135207809Y-129547904D01*
X135160190Y-129357428D01*
X135160190Y-129119333D01*
X135207809Y-128928857D01*
X135255428Y-128833619D01*
X135303047Y-128786000D01*
X135398285Y-128738380D01*
X136684000Y-129738380D02*
X136112571Y-129738380D01*
X136398285Y-129738380D02*
X136398285Y-128738380D01*
X136303047Y-128881238D01*
X136207809Y-128976476D01*
X136112571Y-129024095D01*
X137160190Y-129738380D02*
X137350666Y-129738380D01*
X137445904Y-129690761D01*
X137493523Y-129643142D01*
X137588761Y-129500285D01*
X137636380Y-129309809D01*
X137636380Y-128928857D01*
X137588761Y-128833619D01*
X137541142Y-128786000D01*
X137445904Y-128738380D01*
X137255428Y-128738380D01*
X137160190Y-128786000D01*
X137112571Y-128833619D01*
X137064952Y-128928857D01*
X137064952Y-129166952D01*
X137112571Y-129262190D01*
X137160190Y-129309809D01*
X137255428Y-129357428D01*
X137445904Y-129357428D01*
X137541142Y-129309809D01*
X137588761Y-129262190D01*
X137636380Y-129166952D01*
X138969714Y-129738380D02*
X138874476Y-129690761D01*
X138826857Y-129643142D01*
X138779238Y-129547904D01*
X138779238Y-129262190D01*
X138826857Y-129166952D01*
X138874476Y-129119333D01*
X138969714Y-129071714D01*
X139112571Y-129071714D01*
X139207809Y-129119333D01*
X139255428Y-129166952D01*
X139303047Y-129262190D01*
X139303047Y-129547904D01*
X139255428Y-129643142D01*
X139207809Y-129690761D01*
X139112571Y-129738380D01*
X138969714Y-129738380D01*
X139731619Y-129738380D02*
X139731619Y-128738380D01*
X139731619Y-129119333D02*
X139826857Y-129071714D01*
X140017333Y-129071714D01*
X140112571Y-129119333D01*
X140160190Y-129166952D01*
X140207809Y-129262190D01*
X140207809Y-129547904D01*
X140160190Y-129643142D01*
X140112571Y-129690761D01*
X140017333Y-129738380D01*
X139826857Y-129738380D01*
X139731619Y-129690761D01*
X140588761Y-129690761D02*
X140684000Y-129738380D01*
X140874476Y-129738380D01*
X140969714Y-129690761D01*
X141017333Y-129595523D01*
X141017333Y-129547904D01*
X140969714Y-129452666D01*
X140874476Y-129405047D01*
X140731619Y-129405047D01*
X140636380Y-129357428D01*
X140588761Y-129262190D01*
X140588761Y-129214571D01*
X140636380Y-129119333D01*
X140731619Y-129071714D01*
X140874476Y-129071714D01*
X140969714Y-129119333D01*
X141445904Y-129738380D02*
X141445904Y-128738380D01*
X141541142Y-129357428D02*
X141826857Y-129738380D01*
X141826857Y-129071714D02*
X141445904Y-129452666D01*
X142160190Y-129071714D02*
X142398285Y-129738380D01*
X142636380Y-129071714D02*
X142398285Y-129738380D01*
X142303047Y-129976476D01*
X142255428Y-130024095D01*
X142160190Y-130071714D01*
X143017333Y-129738380D02*
X143017333Y-129071714D01*
X143017333Y-129262190D02*
X143064952Y-129166952D01*
X143112571Y-129119333D01*
X143207809Y-129071714D01*
X143303047Y-129071714D01*
X148207809Y-129738380D02*
X148207809Y-128738380D01*
X148684000Y-129071714D02*
X148684000Y-129738380D01*
X148684000Y-129166952D02*
X148731619Y-129119333D01*
X148826857Y-129071714D01*
X148969714Y-129071714D01*
X149064952Y-129119333D01*
X149112571Y-129214571D01*
X149112571Y-129738380D01*
X149445904Y-129071714D02*
X149826857Y-129071714D01*
X149588761Y-129738380D02*
X149588761Y-128881238D01*
X149636380Y-128786000D01*
X149731619Y-128738380D01*
X149826857Y-128738380D01*
X150303047Y-129738380D02*
X150207809Y-129690761D01*
X150160190Y-129643142D01*
X150112571Y-129547904D01*
X150112571Y-129262190D01*
X150160190Y-129166952D01*
X150207809Y-129119333D01*
X150303047Y-129071714D01*
X150445904Y-129071714D01*
X150541142Y-129119333D01*
X150588761Y-129166952D01*
X150636380Y-129262190D01*
X150636380Y-129547904D01*
X150588761Y-129643142D01*
X150541142Y-129690761D01*
X150445904Y-129738380D01*
X150303047Y-129738380D01*
X151969714Y-129738380D02*
X151874476Y-129690761D01*
X151826857Y-129643142D01*
X151779238Y-129547904D01*
X151779238Y-129262190D01*
X151826857Y-129166952D01*
X151874476Y-129119333D01*
X151969714Y-129071714D01*
X152112571Y-129071714D01*
X152207809Y-129119333D01*
X152255428Y-129166952D01*
X152303047Y-129262190D01*
X152303047Y-129547904D01*
X152255428Y-129643142D01*
X152207809Y-129690761D01*
X152112571Y-129738380D01*
X151969714Y-129738380D01*
X152731619Y-129071714D02*
X152731619Y-129738380D01*
X152731619Y-129166952D02*
X152779238Y-129119333D01*
X152874476Y-129071714D01*
X153017333Y-129071714D01*
X153112571Y-129119333D01*
X153160190Y-129214571D01*
X153160190Y-129738380D01*
X154731619Y-129214571D02*
X154874476Y-129262190D01*
X154922095Y-129309809D01*
X154969714Y-129405047D01*
X154969714Y-129547904D01*
X154922095Y-129643142D01*
X154874476Y-129690761D01*
X154779238Y-129738380D01*
X154398285Y-129738380D01*
X154398285Y-128738380D01*
X154731619Y-128738380D01*
X154826857Y-128786000D01*
X154874476Y-128833619D01*
X154922095Y-128928857D01*
X154922095Y-129024095D01*
X154874476Y-129119333D01*
X154826857Y-129166952D01*
X154731619Y-129214571D01*
X154398285Y-129214571D01*
X155826857Y-129738380D02*
X155826857Y-129214571D01*
X155779238Y-129119333D01*
X155683999Y-129071714D01*
X155493523Y-129071714D01*
X155398285Y-129119333D01*
X155826857Y-129690761D02*
X155731619Y-129738380D01*
X155493523Y-129738380D01*
X155398285Y-129690761D01*
X155350666Y-129595523D01*
X155350666Y-129500285D01*
X155398285Y-129405047D01*
X155493523Y-129357428D01*
X155731619Y-129357428D01*
X155826857Y-129309809D01*
X156731619Y-129690761D02*
X156636380Y-129738380D01*
X156445904Y-129738380D01*
X156350666Y-129690761D01*
X156303047Y-129643142D01*
X156255428Y-129547904D01*
X156255428Y-129262190D01*
X156303047Y-129166952D01*
X156350666Y-129119333D01*
X156445904Y-129071714D01*
X156636380Y-129071714D01*
X156731619Y-129119333D01*
X157160190Y-129738380D02*
X157160190Y-128738380D01*
X157255428Y-129357428D02*
X157541142Y-129738380D01*
X157541142Y-129071714D02*
X157160190Y-129452666D01*
D10*
X130940000Y-88900000D02*
X130940000Y-86360000D01*
X134240000Y-76970000D02*
X134240000Y-79230000D01*
X131970000Y-76970000D02*
X131970000Y-78830000D01*
X155050000Y-76970000D02*
X131970000Y-76970000D01*
X155050000Y-127670000D02*
X155050000Y-76970000D01*
X131970000Y-127670000D02*
X155050000Y-127670000D01*
X131970000Y-83730000D02*
X131970000Y-127670000D01*
X133590000Y-81280000D02*
G75*
G03X133590000Y-81280000I-900000J0D01*
G01*
X135240000Y-81280000D02*
G75*
G03X135240000Y-81280000I-2550000J0D01*
G01*
D12*
X187878720Y-127919480D02*
G75*
G03X188879480Y-126918720I0J1000760D01*
G01*
X188879480Y-116921280D02*
G75*
G03X187878720Y-115920520I-1000760J0D01*
G01*
X177881280Y-115920520D02*
G75*
G03X176880520Y-116921280I0J-1000760D01*
G01*
X176880520Y-126918720D02*
G75*
G03X177881280Y-127919480I1000760J0D01*
G01*
D13*
X187678060Y-126418340D02*
G75*
G03X187678060Y-126418340I-299720J0D01*
G01*
X187678060Y-117421660D02*
G75*
G03X187678060Y-117421660I-299720J0D01*
G01*
X178681380Y-117421660D02*
G75*
G03X178681380Y-117421660I-299720J0D01*
G01*
X178681380Y-126418340D02*
G75*
G03X178681380Y-126418340I-299720J0D01*
G01*
D12*
X186377580Y-121920000D02*
G75*
G03X186377580Y-121920000I-3497580J0D01*
G01*
X183878220Y-127919480D02*
X181881780Y-127919480D01*
X187878720Y-127919480D02*
X186877960Y-127919480D01*
X188879480Y-116921280D02*
X188879480Y-126918720D01*
X186877960Y-115920520D02*
X187878720Y-115920520D01*
X181881780Y-115920520D02*
X183878220Y-115920520D01*
X177881280Y-115920520D02*
X178882040Y-115920520D01*
X176880520Y-126918720D02*
X176880520Y-116921280D01*
X178882040Y-127919480D02*
X177881280Y-127919480D01*
D14*
G36*
X165232187Y-119380103D02*
G01*
X165335021Y-119380477D01*
X165417245Y-119381215D01*
X165481255Y-119382412D01*
X165529446Y-119384162D01*
X165564213Y-119386559D01*
X165587951Y-119389697D01*
X165603055Y-119393671D01*
X165611921Y-119398575D01*
X165613442Y-119399957D01*
X165629395Y-119419606D01*
X165633400Y-119429136D01*
X165635652Y-119443284D01*
X165642071Y-119479617D01*
X165652147Y-119535357D01*
X165665373Y-119607723D01*
X165681240Y-119693934D01*
X165699239Y-119791212D01*
X165718863Y-119896775D01*
X165721941Y-119913293D01*
X165746645Y-120044403D01*
X165767582Y-120152255D01*
X165785154Y-120238647D01*
X165799763Y-120305377D01*
X165811811Y-120354241D01*
X165821701Y-120387038D01*
X165829835Y-120405565D01*
X165833066Y-120409760D01*
X165850416Y-120420017D01*
X165888119Y-120438217D01*
X165942920Y-120462928D01*
X166011566Y-120492717D01*
X166090804Y-120526150D01*
X166177381Y-120561795D01*
X166188016Y-120566116D01*
X166289342Y-120606927D01*
X166369841Y-120638601D01*
X166432035Y-120661995D01*
X166478447Y-120677969D01*
X166511600Y-120687381D01*
X166534016Y-120691091D01*
X166548218Y-120689957D01*
X166549966Y-120689356D01*
X166566846Y-120679720D01*
X166602118Y-120657287D01*
X166653293Y-120623718D01*
X166717878Y-120580673D01*
X166793385Y-120529815D01*
X166877321Y-120472803D01*
X166967197Y-120411299D01*
X166978495Y-120403537D01*
X167068132Y-120342163D01*
X167151458Y-120285575D01*
X167226107Y-120235347D01*
X167289711Y-120193050D01*
X167339904Y-120160257D01*
X167374317Y-120138540D01*
X167390586Y-120129472D01*
X167391330Y-120129300D01*
X167403082Y-120138000D01*
X167430710Y-120162816D01*
X167472212Y-120201821D01*
X167525585Y-120253088D01*
X167588828Y-120314688D01*
X167659939Y-120384696D01*
X167736916Y-120461182D01*
X167759374Y-120483624D01*
X167854681Y-120579376D01*
X167932813Y-120658812D01*
X167994934Y-120723195D01*
X168042205Y-120773785D01*
X168075788Y-120811846D01*
X168096846Y-120838638D01*
X168106540Y-120855423D01*
X168107330Y-120861449D01*
X168098926Y-120876949D01*
X168077687Y-120910866D01*
X168045247Y-120960740D01*
X168003237Y-121024109D01*
X167953289Y-121098514D01*
X167897036Y-121181494D01*
X167836111Y-121270588D01*
X167830621Y-121278580D01*
X167749118Y-121398024D01*
X167682553Y-121497442D01*
X167630702Y-121577189D01*
X167593342Y-121637615D01*
X167570247Y-121679075D01*
X167561196Y-121701923D01*
X167561039Y-121704030D01*
X167566309Y-121724756D01*
X167580483Y-121764862D01*
X167601968Y-121820617D01*
X167629171Y-121888293D01*
X167660497Y-121964160D01*
X167694353Y-122044487D01*
X167729144Y-122125546D01*
X167763277Y-122203607D01*
X167795158Y-122274940D01*
X167823193Y-122335815D01*
X167845788Y-122382503D01*
X167861349Y-122411275D01*
X167866114Y-122417899D01*
X167880720Y-122425637D01*
X167912077Y-122435591D01*
X167961585Y-122448072D01*
X168030647Y-122463393D01*
X168120664Y-122481865D01*
X168233037Y-122503801D01*
X168359936Y-122527787D01*
X168466449Y-122547837D01*
X168565269Y-122566724D01*
X168653572Y-122583889D01*
X168728535Y-122598770D01*
X168787334Y-122610805D01*
X168827146Y-122619433D01*
X168845145Y-122624093D01*
X168845711Y-122624362D01*
X168849629Y-122638488D01*
X168852861Y-122675858D01*
X168855417Y-122736868D01*
X168857309Y-122821912D01*
X168858546Y-122931386D01*
X168859140Y-123065685D01*
X168859200Y-123132044D01*
X168859066Y-123261300D01*
X168858615Y-123367374D01*
X168857769Y-123452483D01*
X168856452Y-123518845D01*
X168854586Y-123568677D01*
X168852095Y-123604195D01*
X168848902Y-123627617D01*
X168844929Y-123641160D01*
X168841372Y-123646185D01*
X168825164Y-123651836D01*
X168786872Y-123661413D01*
X168729400Y-123674303D01*
X168655656Y-123689890D01*
X168568545Y-123707562D01*
X168470972Y-123726704D01*
X168365845Y-123746702D01*
X168364853Y-123746888D01*
X168239648Y-123770748D01*
X168130903Y-123792315D01*
X168040211Y-123811239D01*
X167969163Y-123827172D01*
X167919350Y-123839767D01*
X167892366Y-123848674D01*
X167888325Y-123851122D01*
X167877927Y-123868823D01*
X167860148Y-123906693D01*
X167836428Y-123961080D01*
X167808207Y-124028335D01*
X167776924Y-124104806D01*
X167744021Y-124186842D01*
X167710935Y-124270793D01*
X167679107Y-124353008D01*
X167649977Y-124429837D01*
X167624985Y-124497627D01*
X167605569Y-124552730D01*
X167593171Y-124591494D01*
X167589200Y-124609607D01*
X167594584Y-124627799D01*
X167611192Y-124660424D01*
X167639704Y-124708567D01*
X167680801Y-124773312D01*
X167735164Y-124855743D01*
X167803473Y-124956945D01*
X167849550Y-125024377D01*
X167909330Y-125112100D01*
X167964276Y-125193780D01*
X168012770Y-125266934D01*
X168053195Y-125329077D01*
X168083935Y-125377724D01*
X168103373Y-125410391D01*
X168109900Y-125424446D01*
X168101174Y-125437654D01*
X168076290Y-125466638D01*
X168037185Y-125509354D01*
X167985798Y-125563755D01*
X167924069Y-125627795D01*
X167853934Y-125699428D01*
X167777333Y-125776608D01*
X167756503Y-125797424D01*
X167664346Y-125889085D01*
X167588337Y-125963978D01*
X167526906Y-126023535D01*
X167478480Y-126069187D01*
X167441490Y-126102363D01*
X167414362Y-126124494D01*
X167395525Y-126137010D01*
X167383409Y-126141342D01*
X167379229Y-126140831D01*
X167363444Y-126131679D01*
X167329340Y-126109799D01*
X167279489Y-126076908D01*
X167216462Y-126034726D01*
X167142831Y-125984973D01*
X167061167Y-125929368D01*
X166989172Y-125880034D01*
X166902789Y-125821178D01*
X166822160Y-125767210D01*
X166749869Y-125719784D01*
X166688498Y-125680554D01*
X166640629Y-125651177D01*
X166608846Y-125633307D01*
X166596500Y-125628400D01*
X166576288Y-125634142D01*
X166538481Y-125649944D01*
X166487765Y-125673667D01*
X166428827Y-125703171D01*
X166401750Y-125717300D01*
X166341408Y-125748539D01*
X166288027Y-125774976D01*
X166246058Y-125794497D01*
X166219951Y-125804988D01*
X166214538Y-125806200D01*
X166199104Y-125795105D01*
X166180117Y-125765817D01*
X166167724Y-125739525D01*
X166105585Y-125590563D01*
X166042860Y-125439703D01*
X165980309Y-125288804D01*
X165918691Y-125139727D01*
X165858767Y-124994330D01*
X165801295Y-124854475D01*
X165747036Y-124722021D01*
X165696750Y-124598828D01*
X165651195Y-124486755D01*
X165611132Y-124387662D01*
X165577321Y-124303410D01*
X165550520Y-124235858D01*
X165531491Y-124186866D01*
X165520992Y-124158295D01*
X165519100Y-124151624D01*
X165529125Y-124132758D01*
X165554632Y-124108905D01*
X165572210Y-124096591D01*
X165721194Y-123992158D01*
X165846490Y-123881273D01*
X165949371Y-123762170D01*
X166031113Y-123633085D01*
X166092989Y-123492251D01*
X166136276Y-123337906D01*
X166142510Y-123306876D01*
X166150815Y-123232975D01*
X166152151Y-123143728D01*
X166147043Y-123048058D01*
X166136020Y-122954886D01*
X166119608Y-122873135D01*
X166116114Y-122860291D01*
X166060043Y-122708433D01*
X165983511Y-122569859D01*
X165888533Y-122446089D01*
X165777125Y-122338646D01*
X165651301Y-122249050D01*
X165513078Y-122178824D01*
X165364470Y-122129489D01*
X165207493Y-122102568D01*
X165106350Y-122097799D01*
X164945177Y-122109987D01*
X164791117Y-122145537D01*
X164646188Y-122202925D01*
X164512402Y-122280632D01*
X164391776Y-122377134D01*
X164286325Y-122490911D01*
X164198064Y-122620440D01*
X164129008Y-122764200D01*
X164096585Y-122860291D01*
X164079257Y-122939031D01*
X164067223Y-123030802D01*
X164061009Y-123126681D01*
X164061142Y-123217747D01*
X164068152Y-123295076D01*
X164070189Y-123306876D01*
X164110084Y-123463991D01*
X164168327Y-123607259D01*
X164246193Y-123738442D01*
X164344955Y-123859308D01*
X164465890Y-123971620D01*
X164610271Y-124077144D01*
X164640489Y-124096591D01*
X164671451Y-124120196D01*
X164690592Y-124142608D01*
X164693600Y-124151624D01*
X164688843Y-124166430D01*
X164675078Y-124202823D01*
X164653066Y-124258944D01*
X164623566Y-124332932D01*
X164587338Y-124422928D01*
X164545141Y-124527071D01*
X164497736Y-124643503D01*
X164445881Y-124770362D01*
X164390337Y-124905789D01*
X164331863Y-125047925D01*
X164271219Y-125194910D01*
X164209166Y-125344883D01*
X164146461Y-125495984D01*
X164083866Y-125646355D01*
X164044975Y-125739525D01*
X164025947Y-125777514D01*
X164007702Y-125801251D01*
X163998161Y-125806200D01*
X163980715Y-125800501D01*
X163945388Y-125784814D01*
X163896631Y-125761252D01*
X163838895Y-125731928D01*
X163810950Y-125717300D01*
X163749892Y-125685944D01*
X163695016Y-125659438D01*
X163651006Y-125639920D01*
X163622547Y-125629529D01*
X163616199Y-125628400D01*
X163599822Y-125635396D01*
X163565203Y-125655280D01*
X163514926Y-125686399D01*
X163451573Y-125727096D01*
X163377727Y-125775717D01*
X163295970Y-125830607D01*
X163223527Y-125880034D01*
X163137151Y-125939188D01*
X163056675Y-125993917D01*
X162984670Y-126042501D01*
X162923708Y-126083220D01*
X162876360Y-126114355D01*
X162845197Y-126134187D01*
X162833470Y-126140831D01*
X162824236Y-126140201D01*
X162809102Y-126132134D01*
X162786497Y-126115199D01*
X162754850Y-126087966D01*
X162712588Y-126049003D01*
X162658140Y-125996881D01*
X162589934Y-125930170D01*
X162506400Y-125847438D01*
X162456196Y-125797424D01*
X162378225Y-125719132D01*
X162306215Y-125645853D01*
X162242103Y-125579633D01*
X162187828Y-125522517D01*
X162145329Y-125476552D01*
X162116544Y-125443784D01*
X162103411Y-125426258D01*
X162102800Y-125424446D01*
X162109771Y-125409593D01*
X162129608Y-125376357D01*
X162160694Y-125327224D01*
X162201412Y-125264678D01*
X162250145Y-125191202D01*
X162305277Y-125109282D01*
X162363150Y-125024377D01*
X162439825Y-124911838D01*
X162502160Y-124818696D01*
X162550836Y-124743868D01*
X162586534Y-124686269D01*
X162609935Y-124644813D01*
X162621719Y-124618417D01*
X162623500Y-124609607D01*
X162618847Y-124589144D01*
X162605851Y-124548976D01*
X162585949Y-124492754D01*
X162560582Y-124424128D01*
X162531190Y-124346749D01*
X162499213Y-124264267D01*
X162466090Y-124180334D01*
X162433260Y-124098600D01*
X162402165Y-124022716D01*
X162374243Y-123956333D01*
X162350934Y-123903102D01*
X162333678Y-123866673D01*
X162324374Y-123851122D01*
X162306944Y-123843783D01*
X162266051Y-123832618D01*
X162203287Y-123817975D01*
X162120244Y-123800203D01*
X162018513Y-123779650D01*
X161899686Y-123756663D01*
X161847846Y-123746888D01*
X161742663Y-123726885D01*
X161645008Y-123707733D01*
X161557788Y-123690044D01*
X161483907Y-123674435D01*
X161426273Y-123661517D01*
X161387791Y-123651907D01*
X161371367Y-123646217D01*
X161371327Y-123646185D01*
X161366716Y-123638625D01*
X161362943Y-123622858D01*
X161359929Y-123596667D01*
X161357599Y-123557834D01*
X161355875Y-123504142D01*
X161354681Y-123433375D01*
X161353939Y-123343315D01*
X161353573Y-123231745D01*
X161353499Y-123132044D01*
X161353816Y-122986808D01*
X161354771Y-122866570D01*
X161356376Y-122770933D01*
X161358642Y-122699503D01*
X161361579Y-122651885D01*
X161365196Y-122627683D01*
X161366988Y-122624362D01*
X161382132Y-122620225D01*
X161419433Y-122612052D01*
X161476066Y-122600402D01*
X161549209Y-122585839D01*
X161636035Y-122568922D01*
X161733723Y-122550215D01*
X161839448Y-122530277D01*
X161852763Y-122527787D01*
X161987368Y-122502322D01*
X162098303Y-122480612D01*
X162186968Y-122462346D01*
X162254767Y-122447212D01*
X162303099Y-122434898D01*
X162333368Y-122425092D01*
X162346585Y-122417899D01*
X162357882Y-122399860D01*
X162377038Y-122361975D01*
X162402457Y-122307974D01*
X162432547Y-122241585D01*
X162465714Y-122166539D01*
X162500364Y-122086566D01*
X162534902Y-122005394D01*
X162567736Y-121926754D01*
X162597271Y-121854375D01*
X162621913Y-121791987D01*
X162640069Y-121743320D01*
X162650144Y-121712102D01*
X162651660Y-121704030D01*
X162645038Y-121684397D01*
X162624413Y-121646213D01*
X162589560Y-121589124D01*
X162540256Y-121512778D01*
X162476277Y-121416821D01*
X162397399Y-121300899D01*
X162382078Y-121278580D01*
X162320822Y-121189068D01*
X162264096Y-121105456D01*
X162213532Y-121030204D01*
X162170764Y-120965773D01*
X162137422Y-120914622D01*
X162115140Y-120879213D01*
X162105550Y-120862006D01*
X162105369Y-120861449D01*
X162108470Y-120850346D01*
X162122200Y-120830035D01*
X162147719Y-120799254D01*
X162186191Y-120756741D01*
X162238777Y-120701236D01*
X162306638Y-120631475D01*
X162390938Y-120546198D01*
X162453325Y-120483624D01*
X162531592Y-120405660D01*
X162604557Y-120333633D01*
X162670218Y-120269471D01*
X162726573Y-120215100D01*
X162771620Y-120172447D01*
X162803357Y-120143441D01*
X162819782Y-120130008D01*
X162821369Y-120129300D01*
X162834617Y-120136270D01*
X162866378Y-120156132D01*
X162914283Y-120187314D01*
X162975967Y-120228243D01*
X163049061Y-120277346D01*
X163131200Y-120333053D01*
X163220015Y-120393789D01*
X163234204Y-120403537D01*
X163324637Y-120465476D01*
X163409435Y-120523128D01*
X163486108Y-120574829D01*
X163552165Y-120618921D01*
X163605116Y-120653740D01*
X163642470Y-120677627D01*
X163661737Y-120688919D01*
X163662733Y-120689356D01*
X163675809Y-120691215D01*
X163696677Y-120688374D01*
X163727862Y-120679974D01*
X163771884Y-120665155D01*
X163831267Y-120643060D01*
X163908534Y-120612829D01*
X164006206Y-120573603D01*
X164024683Y-120566116D01*
X164111921Y-120530299D01*
X164192213Y-120496519D01*
X164262304Y-120466208D01*
X164318939Y-120440801D01*
X164358864Y-120421732D01*
X164378825Y-120410435D01*
X164379716Y-120409677D01*
X164387185Y-120397125D01*
X164396192Y-120371295D01*
X164407144Y-120330370D01*
X164420448Y-120272531D01*
X164436512Y-120195962D01*
X164455743Y-120098844D01*
X164478548Y-119979359D01*
X164490841Y-119913755D01*
X164510662Y-119807227D01*
X164528935Y-119708541D01*
X164545150Y-119620485D01*
X164558798Y-119545844D01*
X164569370Y-119487405D01*
X164576357Y-119447952D01*
X164579250Y-119430274D01*
X164579300Y-119429682D01*
X164587322Y-119413843D01*
X164599257Y-119399957D01*
X164606938Y-119394806D01*
X164620259Y-119390608D01*
X164641616Y-119387270D01*
X164673404Y-119384696D01*
X164718017Y-119382794D01*
X164777851Y-119381467D01*
X164855300Y-119380624D01*
X164952761Y-119380168D01*
X165072628Y-119380005D01*
X165106350Y-119380000D01*
X165232187Y-119380103D01*
X165232187Y-119380103D01*
G37*
X165232187Y-119380103D02*
X165335021Y-119380477D01*
X165417245Y-119381215D01*
X165481255Y-119382412D01*
X165529446Y-119384162D01*
X165564213Y-119386559D01*
X165587951Y-119389697D01*
X165603055Y-119393671D01*
X165611921Y-119398575D01*
X165613442Y-119399957D01*
X165629395Y-119419606D01*
X165633400Y-119429136D01*
X165635652Y-119443284D01*
X165642071Y-119479617D01*
X165652147Y-119535357D01*
X165665373Y-119607723D01*
X165681240Y-119693934D01*
X165699239Y-119791212D01*
X165718863Y-119896775D01*
X165721941Y-119913293D01*
X165746645Y-120044403D01*
X165767582Y-120152255D01*
X165785154Y-120238647D01*
X165799763Y-120305377D01*
X165811811Y-120354241D01*
X165821701Y-120387038D01*
X165829835Y-120405565D01*
X165833066Y-120409760D01*
X165850416Y-120420017D01*
X165888119Y-120438217D01*
X165942920Y-120462928D01*
X166011566Y-120492717D01*
X166090804Y-120526150D01*
X166177381Y-120561795D01*
X166188016Y-120566116D01*
X166289342Y-120606927D01*
X166369841Y-120638601D01*
X166432035Y-120661995D01*
X166478447Y-120677969D01*
X166511600Y-120687381D01*
X166534016Y-120691091D01*
X166548218Y-120689957D01*
X166549966Y-120689356D01*
X166566846Y-120679720D01*
X166602118Y-120657287D01*
X166653293Y-120623718D01*
X166717878Y-120580673D01*
X166793385Y-120529815D01*
X166877321Y-120472803D01*
X166967197Y-120411299D01*
X166978495Y-120403537D01*
X167068132Y-120342163D01*
X167151458Y-120285575D01*
X167226107Y-120235347D01*
X167289711Y-120193050D01*
X167339904Y-120160257D01*
X167374317Y-120138540D01*
X167390586Y-120129472D01*
X167391330Y-120129300D01*
X167403082Y-120138000D01*
X167430710Y-120162816D01*
X167472212Y-120201821D01*
X167525585Y-120253088D01*
X167588828Y-120314688D01*
X167659939Y-120384696D01*
X167736916Y-120461182D01*
X167759374Y-120483624D01*
X167854681Y-120579376D01*
X167932813Y-120658812D01*
X167994934Y-120723195D01*
X168042205Y-120773785D01*
X168075788Y-120811846D01*
X168096846Y-120838638D01*
X168106540Y-120855423D01*
X168107330Y-120861449D01*
X168098926Y-120876949D01*
X168077687Y-120910866D01*
X168045247Y-120960740D01*
X168003237Y-121024109D01*
X167953289Y-121098514D01*
X167897036Y-121181494D01*
X167836111Y-121270588D01*
X167830621Y-121278580D01*
X167749118Y-121398024D01*
X167682553Y-121497442D01*
X167630702Y-121577189D01*
X167593342Y-121637615D01*
X167570247Y-121679075D01*
X167561196Y-121701923D01*
X167561039Y-121704030D01*
X167566309Y-121724756D01*
X167580483Y-121764862D01*
X167601968Y-121820617D01*
X167629171Y-121888293D01*
X167660497Y-121964160D01*
X167694353Y-122044487D01*
X167729144Y-122125546D01*
X167763277Y-122203607D01*
X167795158Y-122274940D01*
X167823193Y-122335815D01*
X167845788Y-122382503D01*
X167861349Y-122411275D01*
X167866114Y-122417899D01*
X167880720Y-122425637D01*
X167912077Y-122435591D01*
X167961585Y-122448072D01*
X168030647Y-122463393D01*
X168120664Y-122481865D01*
X168233037Y-122503801D01*
X168359936Y-122527787D01*
X168466449Y-122547837D01*
X168565269Y-122566724D01*
X168653572Y-122583889D01*
X168728535Y-122598770D01*
X168787334Y-122610805D01*
X168827146Y-122619433D01*
X168845145Y-122624093D01*
X168845711Y-122624362D01*
X168849629Y-122638488D01*
X168852861Y-122675858D01*
X168855417Y-122736868D01*
X168857309Y-122821912D01*
X168858546Y-122931386D01*
X168859140Y-123065685D01*
X168859200Y-123132044D01*
X168859066Y-123261300D01*
X168858615Y-123367374D01*
X168857769Y-123452483D01*
X168856452Y-123518845D01*
X168854586Y-123568677D01*
X168852095Y-123604195D01*
X168848902Y-123627617D01*
X168844929Y-123641160D01*
X168841372Y-123646185D01*
X168825164Y-123651836D01*
X168786872Y-123661413D01*
X168729400Y-123674303D01*
X168655656Y-123689890D01*
X168568545Y-123707562D01*
X168470972Y-123726704D01*
X168365845Y-123746702D01*
X168364853Y-123746888D01*
X168239648Y-123770748D01*
X168130903Y-123792315D01*
X168040211Y-123811239D01*
X167969163Y-123827172D01*
X167919350Y-123839767D01*
X167892366Y-123848674D01*
X167888325Y-123851122D01*
X167877927Y-123868823D01*
X167860148Y-123906693D01*
X167836428Y-123961080D01*
X167808207Y-124028335D01*
X167776924Y-124104806D01*
X167744021Y-124186842D01*
X167710935Y-124270793D01*
X167679107Y-124353008D01*
X167649977Y-124429837D01*
X167624985Y-124497627D01*
X167605569Y-124552730D01*
X167593171Y-124591494D01*
X167589200Y-124609607D01*
X167594584Y-124627799D01*
X167611192Y-124660424D01*
X167639704Y-124708567D01*
X167680801Y-124773312D01*
X167735164Y-124855743D01*
X167803473Y-124956945D01*
X167849550Y-125024377D01*
X167909330Y-125112100D01*
X167964276Y-125193780D01*
X168012770Y-125266934D01*
X168053195Y-125329077D01*
X168083935Y-125377724D01*
X168103373Y-125410391D01*
X168109900Y-125424446D01*
X168101174Y-125437654D01*
X168076290Y-125466638D01*
X168037185Y-125509354D01*
X167985798Y-125563755D01*
X167924069Y-125627795D01*
X167853934Y-125699428D01*
X167777333Y-125776608D01*
X167756503Y-125797424D01*
X167664346Y-125889085D01*
X167588337Y-125963978D01*
X167526906Y-126023535D01*
X167478480Y-126069187D01*
X167441490Y-126102363D01*
X167414362Y-126124494D01*
X167395525Y-126137010D01*
X167383409Y-126141342D01*
X167379229Y-126140831D01*
X167363444Y-126131679D01*
X167329340Y-126109799D01*
X167279489Y-126076908D01*
X167216462Y-126034726D01*
X167142831Y-125984973D01*
X167061167Y-125929368D01*
X166989172Y-125880034D01*
X166902789Y-125821178D01*
X166822160Y-125767210D01*
X166749869Y-125719784D01*
X166688498Y-125680554D01*
X166640629Y-125651177D01*
X166608846Y-125633307D01*
X166596500Y-125628400D01*
X166576288Y-125634142D01*
X166538481Y-125649944D01*
X166487765Y-125673667D01*
X166428827Y-125703171D01*
X166401750Y-125717300D01*
X166341408Y-125748539D01*
X166288027Y-125774976D01*
X166246058Y-125794497D01*
X166219951Y-125804988D01*
X166214538Y-125806200D01*
X166199104Y-125795105D01*
X166180117Y-125765817D01*
X166167724Y-125739525D01*
X166105585Y-125590563D01*
X166042860Y-125439703D01*
X165980309Y-125288804D01*
X165918691Y-125139727D01*
X165858767Y-124994330D01*
X165801295Y-124854475D01*
X165747036Y-124722021D01*
X165696750Y-124598828D01*
X165651195Y-124486755D01*
X165611132Y-124387662D01*
X165577321Y-124303410D01*
X165550520Y-124235858D01*
X165531491Y-124186866D01*
X165520992Y-124158295D01*
X165519100Y-124151624D01*
X165529125Y-124132758D01*
X165554632Y-124108905D01*
X165572210Y-124096591D01*
X165721194Y-123992158D01*
X165846490Y-123881273D01*
X165949371Y-123762170D01*
X166031113Y-123633085D01*
X166092989Y-123492251D01*
X166136276Y-123337906D01*
X166142510Y-123306876D01*
X166150815Y-123232975D01*
X166152151Y-123143728D01*
X166147043Y-123048058D01*
X166136020Y-122954886D01*
X166119608Y-122873135D01*
X166116114Y-122860291D01*
X166060043Y-122708433D01*
X165983511Y-122569859D01*
X165888533Y-122446089D01*
X165777125Y-122338646D01*
X165651301Y-122249050D01*
X165513078Y-122178824D01*
X165364470Y-122129489D01*
X165207493Y-122102568D01*
X165106350Y-122097799D01*
X164945177Y-122109987D01*
X164791117Y-122145537D01*
X164646188Y-122202925D01*
X164512402Y-122280632D01*
X164391776Y-122377134D01*
X164286325Y-122490911D01*
X164198064Y-122620440D01*
X164129008Y-122764200D01*
X164096585Y-122860291D01*
X164079257Y-122939031D01*
X164067223Y-123030802D01*
X164061009Y-123126681D01*
X164061142Y-123217747D01*
X164068152Y-123295076D01*
X164070189Y-123306876D01*
X164110084Y-123463991D01*
X164168327Y-123607259D01*
X164246193Y-123738442D01*
X164344955Y-123859308D01*
X164465890Y-123971620D01*
X164610271Y-124077144D01*
X164640489Y-124096591D01*
X164671451Y-124120196D01*
X164690592Y-124142608D01*
X164693600Y-124151624D01*
X164688843Y-124166430D01*
X164675078Y-124202823D01*
X164653066Y-124258944D01*
X164623566Y-124332932D01*
X164587338Y-124422928D01*
X164545141Y-124527071D01*
X164497736Y-124643503D01*
X164445881Y-124770362D01*
X164390337Y-124905789D01*
X164331863Y-125047925D01*
X164271219Y-125194910D01*
X164209166Y-125344883D01*
X164146461Y-125495984D01*
X164083866Y-125646355D01*
X164044975Y-125739525D01*
X164025947Y-125777514D01*
X164007702Y-125801251D01*
X163998161Y-125806200D01*
X163980715Y-125800501D01*
X163945388Y-125784814D01*
X163896631Y-125761252D01*
X163838895Y-125731928D01*
X163810950Y-125717300D01*
X163749892Y-125685944D01*
X163695016Y-125659438D01*
X163651006Y-125639920D01*
X163622547Y-125629529D01*
X163616199Y-125628400D01*
X163599822Y-125635396D01*
X163565203Y-125655280D01*
X163514926Y-125686399D01*
X163451573Y-125727096D01*
X163377727Y-125775717D01*
X163295970Y-125830607D01*
X163223527Y-125880034D01*
X163137151Y-125939188D01*
X163056675Y-125993917D01*
X162984670Y-126042501D01*
X162923708Y-126083220D01*
X162876360Y-126114355D01*
X162845197Y-126134187D01*
X162833470Y-126140831D01*
X162824236Y-126140201D01*
X162809102Y-126132134D01*
X162786497Y-126115199D01*
X162754850Y-126087966D01*
X162712588Y-126049003D01*
X162658140Y-125996881D01*
X162589934Y-125930170D01*
X162506400Y-125847438D01*
X162456196Y-125797424D01*
X162378225Y-125719132D01*
X162306215Y-125645853D01*
X162242103Y-125579633D01*
X162187828Y-125522517D01*
X162145329Y-125476552D01*
X162116544Y-125443784D01*
X162103411Y-125426258D01*
X162102800Y-125424446D01*
X162109771Y-125409593D01*
X162129608Y-125376357D01*
X162160694Y-125327224D01*
X162201412Y-125264678D01*
X162250145Y-125191202D01*
X162305277Y-125109282D01*
X162363150Y-125024377D01*
X162439825Y-124911838D01*
X162502160Y-124818696D01*
X162550836Y-124743868D01*
X162586534Y-124686269D01*
X162609935Y-124644813D01*
X162621719Y-124618417D01*
X162623500Y-124609607D01*
X162618847Y-124589144D01*
X162605851Y-124548976D01*
X162585949Y-124492754D01*
X162560582Y-124424128D01*
X162531190Y-124346749D01*
X162499213Y-124264267D01*
X162466090Y-124180334D01*
X162433260Y-124098600D01*
X162402165Y-124022716D01*
X162374243Y-123956333D01*
X162350934Y-123903102D01*
X162333678Y-123866673D01*
X162324374Y-123851122D01*
X162306944Y-123843783D01*
X162266051Y-123832618D01*
X162203287Y-123817975D01*
X162120244Y-123800203D01*
X162018513Y-123779650D01*
X161899686Y-123756663D01*
X161847846Y-123746888D01*
X161742663Y-123726885D01*
X161645008Y-123707733D01*
X161557788Y-123690044D01*
X161483907Y-123674435D01*
X161426273Y-123661517D01*
X161387791Y-123651907D01*
X161371367Y-123646217D01*
X161371327Y-123646185D01*
X161366716Y-123638625D01*
X161362943Y-123622858D01*
X161359929Y-123596667D01*
X161357599Y-123557834D01*
X161355875Y-123504142D01*
X161354681Y-123433375D01*
X161353939Y-123343315D01*
X161353573Y-123231745D01*
X161353499Y-123132044D01*
X161353816Y-122986808D01*
X161354771Y-122866570D01*
X161356376Y-122770933D01*
X161358642Y-122699503D01*
X161361579Y-122651885D01*
X161365196Y-122627683D01*
X161366988Y-122624362D01*
X161382132Y-122620225D01*
X161419433Y-122612052D01*
X161476066Y-122600402D01*
X161549209Y-122585839D01*
X161636035Y-122568922D01*
X161733723Y-122550215D01*
X161839448Y-122530277D01*
X161852763Y-122527787D01*
X161987368Y-122502322D01*
X162098303Y-122480612D01*
X162186968Y-122462346D01*
X162254767Y-122447212D01*
X162303099Y-122434898D01*
X162333368Y-122425092D01*
X162346585Y-122417899D01*
X162357882Y-122399860D01*
X162377038Y-122361975D01*
X162402457Y-122307974D01*
X162432547Y-122241585D01*
X162465714Y-122166539D01*
X162500364Y-122086566D01*
X162534902Y-122005394D01*
X162567736Y-121926754D01*
X162597271Y-121854375D01*
X162621913Y-121791987D01*
X162640069Y-121743320D01*
X162650144Y-121712102D01*
X162651660Y-121704030D01*
X162645038Y-121684397D01*
X162624413Y-121646213D01*
X162589560Y-121589124D01*
X162540256Y-121512778D01*
X162476277Y-121416821D01*
X162397399Y-121300899D01*
X162382078Y-121278580D01*
X162320822Y-121189068D01*
X162264096Y-121105456D01*
X162213532Y-121030204D01*
X162170764Y-120965773D01*
X162137422Y-120914622D01*
X162115140Y-120879213D01*
X162105550Y-120862006D01*
X162105369Y-120861449D01*
X162108470Y-120850346D01*
X162122200Y-120830035D01*
X162147719Y-120799254D01*
X162186191Y-120756741D01*
X162238777Y-120701236D01*
X162306638Y-120631475D01*
X162390938Y-120546198D01*
X162453325Y-120483624D01*
X162531592Y-120405660D01*
X162604557Y-120333633D01*
X162670218Y-120269471D01*
X162726573Y-120215100D01*
X162771620Y-120172447D01*
X162803357Y-120143441D01*
X162819782Y-120130008D01*
X162821369Y-120129300D01*
X162834617Y-120136270D01*
X162866378Y-120156132D01*
X162914283Y-120187314D01*
X162975967Y-120228243D01*
X163049061Y-120277346D01*
X163131200Y-120333053D01*
X163220015Y-120393789D01*
X163234204Y-120403537D01*
X163324637Y-120465476D01*
X163409435Y-120523128D01*
X163486108Y-120574829D01*
X163552165Y-120618921D01*
X163605116Y-120653740D01*
X163642470Y-120677627D01*
X163661737Y-120688919D01*
X163662733Y-120689356D01*
X163675809Y-120691215D01*
X163696677Y-120688374D01*
X163727862Y-120679974D01*
X163771884Y-120665155D01*
X163831267Y-120643060D01*
X163908534Y-120612829D01*
X164006206Y-120573603D01*
X164024683Y-120566116D01*
X164111921Y-120530299D01*
X164192213Y-120496519D01*
X164262304Y-120466208D01*
X164318939Y-120440801D01*
X164358864Y-120421732D01*
X164378825Y-120410435D01*
X164379716Y-120409677D01*
X164387185Y-120397125D01*
X164396192Y-120371295D01*
X164407144Y-120330370D01*
X164420448Y-120272531D01*
X164436512Y-120195962D01*
X164455743Y-120098844D01*
X164478548Y-119979359D01*
X164490841Y-119913755D01*
X164510662Y-119807227D01*
X164528935Y-119708541D01*
X164545150Y-119620485D01*
X164558798Y-119545844D01*
X164569370Y-119487405D01*
X164576357Y-119447952D01*
X164579250Y-119430274D01*
X164579300Y-119429682D01*
X164587322Y-119413843D01*
X164599257Y-119399957D01*
X164606938Y-119394806D01*
X164620259Y-119390608D01*
X164641616Y-119387270D01*
X164673404Y-119384696D01*
X164718017Y-119382794D01*
X164777851Y-119381467D01*
X164855300Y-119380624D01*
X164952761Y-119380168D01*
X165072628Y-119380005D01*
X165106350Y-119380000D01*
X165232187Y-119380103D01*
G36*
X168114910Y-126927198D02*
G01*
X168176653Y-126947619D01*
X168193136Y-126955329D01*
X168262771Y-126989399D01*
X168225370Y-127035974D01*
X168192270Y-127076619D01*
X168157589Y-127118383D01*
X168150759Y-127126481D01*
X168113549Y-127170412D01*
X168076799Y-127146292D01*
X168021836Y-127124361D01*
X167960906Y-127122723D01*
X167900649Y-127139621D01*
X167847709Y-127173299D01*
X167811899Y-127216349D01*
X167804086Y-127231211D01*
X167797947Y-127248211D01*
X167793229Y-127270571D01*
X167789680Y-127301514D01*
X167787046Y-127344262D01*
X167785075Y-127402037D01*
X167783514Y-127478063D01*
X167782110Y-127575560D01*
X167781799Y-127600075D01*
X167777549Y-127939800D01*
X167682976Y-127939800D01*
X167625441Y-127937736D01*
X167592049Y-127931448D01*
X167582297Y-127923889D01*
X167581020Y-127908012D01*
X167580004Y-127869596D01*
X167579264Y-127811502D01*
X167578817Y-127736590D01*
X167578678Y-127647721D01*
X167578862Y-127547754D01*
X167579387Y-127439550D01*
X167579521Y-127419064D01*
X167582850Y-126930150D01*
X167681275Y-126926440D01*
X167779700Y-126922731D01*
X167779700Y-126974065D01*
X167782588Y-127010760D01*
X167792369Y-127023640D01*
X167810710Y-127013750D01*
X167823087Y-127001174D01*
X167862690Y-126971137D01*
X167918989Y-126945766D01*
X167983332Y-126928122D01*
X168047065Y-126921267D01*
X168048981Y-126921259D01*
X168114910Y-126927198D01*
X168114910Y-126927198D01*
G37*
X168114910Y-126927198D02*
X168176653Y-126947619D01*
X168193136Y-126955329D01*
X168262771Y-126989399D01*
X168225370Y-127035974D01*
X168192270Y-127076619D01*
X168157589Y-127118383D01*
X168150759Y-127126481D01*
X168113549Y-127170412D01*
X168076799Y-127146292D01*
X168021836Y-127124361D01*
X167960906Y-127122723D01*
X167900649Y-127139621D01*
X167847709Y-127173299D01*
X167811899Y-127216349D01*
X167804086Y-127231211D01*
X167797947Y-127248211D01*
X167793229Y-127270571D01*
X167789680Y-127301514D01*
X167787046Y-127344262D01*
X167785075Y-127402037D01*
X167783514Y-127478063D01*
X167782110Y-127575560D01*
X167781799Y-127600075D01*
X167777549Y-127939800D01*
X167682976Y-127939800D01*
X167625441Y-127937736D01*
X167592049Y-127931448D01*
X167582297Y-127923889D01*
X167581020Y-127908012D01*
X167580004Y-127869596D01*
X167579264Y-127811502D01*
X167578817Y-127736590D01*
X167578678Y-127647721D01*
X167578862Y-127547754D01*
X167579387Y-127439550D01*
X167579521Y-127419064D01*
X167582850Y-126930150D01*
X167681275Y-126926440D01*
X167779700Y-126922731D01*
X167779700Y-126974065D01*
X167782588Y-127010760D01*
X167792369Y-127023640D01*
X167810710Y-127013750D01*
X167823087Y-127001174D01*
X167862690Y-126971137D01*
X167918989Y-126945766D01*
X167983332Y-126928122D01*
X168047065Y-126921267D01*
X168048981Y-126921259D01*
X168114910Y-126927198D01*
G36*
X163776094Y-126932528D02*
G01*
X163858693Y-126965585D01*
X163928520Y-127018548D01*
X163982314Y-127089371D01*
X163996473Y-127117382D01*
X164005072Y-127137286D01*
X164011849Y-127156446D01*
X164017023Y-127178061D01*
X164020812Y-127205329D01*
X164023435Y-127241449D01*
X164025111Y-127289619D01*
X164026057Y-127353039D01*
X164026494Y-127434908D01*
X164026640Y-127538423D01*
X164026651Y-127558800D01*
X164026850Y-127933450D01*
X163831878Y-127940834D01*
X163827764Y-127606942D01*
X163826389Y-127505235D01*
X163824894Y-127425603D01*
X163823013Y-127364719D01*
X163820479Y-127319258D01*
X163817028Y-127285895D01*
X163812392Y-127261303D01*
X163806307Y-127242157D01*
X163798506Y-127225132D01*
X163797011Y-127222250D01*
X163757342Y-127171027D01*
X163705050Y-127137842D01*
X163645489Y-127122786D01*
X163584014Y-127125952D01*
X163525977Y-127147432D01*
X163476734Y-127187320D01*
X163455799Y-127216349D01*
X163447989Y-127231191D01*
X163441858Y-127248137D01*
X163437155Y-127270410D01*
X163433631Y-127301232D01*
X163431036Y-127343825D01*
X163429118Y-127401413D01*
X163427629Y-127477217D01*
X163426318Y-127574461D01*
X163426017Y-127600075D01*
X163422085Y-127939800D01*
X163220400Y-127939800D01*
X163220400Y-126923800D01*
X163423600Y-126923800D01*
X163423600Y-127040731D01*
X163470301Y-126999726D01*
X163532154Y-126955294D01*
X163597758Y-126930291D01*
X163675818Y-126921525D01*
X163683985Y-126921423D01*
X163776094Y-126932528D01*
X163776094Y-126932528D01*
G37*
X163776094Y-126932528D02*
X163858693Y-126965585D01*
X163928520Y-127018548D01*
X163982314Y-127089371D01*
X163996473Y-127117382D01*
X164005072Y-127137286D01*
X164011849Y-127156446D01*
X164017023Y-127178061D01*
X164020812Y-127205329D01*
X164023435Y-127241449D01*
X164025111Y-127289619D01*
X164026057Y-127353039D01*
X164026494Y-127434908D01*
X164026640Y-127538423D01*
X164026651Y-127558800D01*
X164026850Y-127933450D01*
X163831878Y-127940834D01*
X163827764Y-127606942D01*
X163826389Y-127505235D01*
X163824894Y-127425603D01*
X163823013Y-127364719D01*
X163820479Y-127319258D01*
X163817028Y-127285895D01*
X163812392Y-127261303D01*
X163806307Y-127242157D01*
X163798506Y-127225132D01*
X163797011Y-127222250D01*
X163757342Y-127171027D01*
X163705050Y-127137842D01*
X163645489Y-127122786D01*
X163584014Y-127125952D01*
X163525977Y-127147432D01*
X163476734Y-127187320D01*
X163455799Y-127216349D01*
X163447989Y-127231191D01*
X163441858Y-127248137D01*
X163437155Y-127270410D01*
X163433631Y-127301232D01*
X163431036Y-127343825D01*
X163429118Y-127401413D01*
X163427629Y-127477217D01*
X163426318Y-127574461D01*
X163426017Y-127600075D01*
X163422085Y-127939800D01*
X163220400Y-127939800D01*
X163220400Y-126923800D01*
X163423600Y-126923800D01*
X163423600Y-127040731D01*
X163470301Y-126999726D01*
X163532154Y-126955294D01*
X163597758Y-126930291D01*
X163675818Y-126921525D01*
X163683985Y-126921423D01*
X163776094Y-126932528D01*
G36*
X169658048Y-126941569D02*
G01*
X169744918Y-126982000D01*
X169798484Y-127020565D01*
X169859877Y-127088785D01*
X169903717Y-127175345D01*
X169929995Y-127280217D01*
X169938700Y-127402718D01*
X169938700Y-127508000D01*
X169313096Y-127508000D01*
X169319701Y-127566600D01*
X169338460Y-127632780D01*
X169375786Y-127686002D01*
X169427672Y-127724955D01*
X169490113Y-127748326D01*
X169559102Y-127754805D01*
X169630633Y-127743078D01*
X169700701Y-127711835D01*
X169721329Y-127698105D01*
X169771944Y-127661439D01*
X169842622Y-127719625D01*
X169877234Y-127749338D01*
X169902428Y-127773288D01*
X169913207Y-127786695D01*
X169913300Y-127787256D01*
X169904054Y-127799524D01*
X169880099Y-127821615D01*
X169854393Y-127842595D01*
X169762101Y-127898704D01*
X169658777Y-127932743D01*
X169547026Y-127944069D01*
X169466140Y-127938274D01*
X169367178Y-127913367D01*
X169284021Y-127868767D01*
X169216969Y-127804900D01*
X169166322Y-127722192D01*
X169132381Y-127621069D01*
X169115447Y-127501956D01*
X169113447Y-127438150D01*
X169117302Y-127342900D01*
X169316400Y-127342900D01*
X169735500Y-127342900D01*
X169735500Y-127313840D01*
X169727505Y-127276209D01*
X169707107Y-127230299D01*
X169679685Y-127185970D01*
X169650619Y-127153078D01*
X169645617Y-127149125D01*
X169585127Y-127119900D01*
X169516703Y-127110787D01*
X169448056Y-127121890D01*
X169397599Y-127145767D01*
X169368043Y-127175847D01*
X169341296Y-127220875D01*
X169322518Y-127270508D01*
X169316678Y-127307975D01*
X169316400Y-127342900D01*
X169117302Y-127342900D01*
X169117570Y-127336297D01*
X169130946Y-127251095D01*
X169155235Y-127174957D01*
X169184155Y-127114521D01*
X169238629Y-127039114D01*
X169307940Y-126981569D01*
X169388312Y-126942465D01*
X169475970Y-126922379D01*
X169567141Y-126921888D01*
X169658048Y-126941569D01*
X169658048Y-126941569D01*
G37*
X169658048Y-126941569D02*
X169744918Y-126982000D01*
X169798484Y-127020565D01*
X169859877Y-127088785D01*
X169903717Y-127175345D01*
X169929995Y-127280217D01*
X169938700Y-127402718D01*
X169938700Y-127508000D01*
X169313096Y-127508000D01*
X169319701Y-127566600D01*
X169338460Y-127632780D01*
X169375786Y-127686002D01*
X169427672Y-127724955D01*
X169490113Y-127748326D01*
X169559102Y-127754805D01*
X169630633Y-127743078D01*
X169700701Y-127711835D01*
X169721329Y-127698105D01*
X169771944Y-127661439D01*
X169842622Y-127719625D01*
X169877234Y-127749338D01*
X169902428Y-127773288D01*
X169913207Y-127786695D01*
X169913300Y-127787256D01*
X169904054Y-127799524D01*
X169880099Y-127821615D01*
X169854393Y-127842595D01*
X169762101Y-127898704D01*
X169658777Y-127932743D01*
X169547026Y-127944069D01*
X169466140Y-127938274D01*
X169367178Y-127913367D01*
X169284021Y-127868767D01*
X169216969Y-127804900D01*
X169166322Y-127722192D01*
X169132381Y-127621069D01*
X169115447Y-127501956D01*
X169113447Y-127438150D01*
X169117302Y-127342900D01*
X169316400Y-127342900D01*
X169735500Y-127342900D01*
X169735500Y-127313840D01*
X169727505Y-127276209D01*
X169707107Y-127230299D01*
X169679685Y-127185970D01*
X169650619Y-127153078D01*
X169645617Y-127149125D01*
X169585127Y-127119900D01*
X169516703Y-127110787D01*
X169448056Y-127121890D01*
X169397599Y-127145767D01*
X169368043Y-127175847D01*
X169341296Y-127220875D01*
X169322518Y-127270508D01*
X169316678Y-127307975D01*
X169316400Y-127342900D01*
X169117302Y-127342900D01*
X169117570Y-127336297D01*
X169130946Y-127251095D01*
X169155235Y-127174957D01*
X169184155Y-127114521D01*
X169238629Y-127039114D01*
X169307940Y-126981569D01*
X169388312Y-126942465D01*
X169475970Y-126922379D01*
X169567141Y-126921888D01*
X169658048Y-126941569D01*
G36*
X168825471Y-126938011D02*
G01*
X168915237Y-126975052D01*
X168941750Y-126991285D01*
X168977885Y-127017792D01*
X169011801Y-127046483D01*
X169037625Y-127071974D01*
X169049487Y-127088880D01*
X169049700Y-127090294D01*
X169040725Y-127102563D01*
X169017105Y-127126079D01*
X168983796Y-127155931D01*
X168981007Y-127158322D01*
X168912314Y-127217008D01*
X168856317Y-127177537D01*
X168780081Y-127137613D01*
X168701006Y-127122126D01*
X168621829Y-127131231D01*
X168552963Y-127160452D01*
X168507934Y-127200562D01*
X168474178Y-127258332D01*
X168452005Y-127328508D01*
X168441725Y-127405836D01*
X168443649Y-127485064D01*
X168458086Y-127560938D01*
X168485348Y-127628206D01*
X168522374Y-127678327D01*
X168580747Y-127719738D01*
X168649244Y-127740339D01*
X168723274Y-127740024D01*
X168798249Y-127718687D01*
X168856317Y-127686062D01*
X168912314Y-127646591D01*
X168981007Y-127705277D01*
X169014850Y-127735411D01*
X169039381Y-127759581D01*
X169049643Y-127772878D01*
X169049700Y-127773305D01*
X169041195Y-127787210D01*
X169020199Y-127809634D01*
X169014775Y-127814730D01*
X168924802Y-127881993D01*
X168827718Y-127924879D01*
X168723195Y-127943492D01*
X168615360Y-127938589D01*
X168516596Y-127912470D01*
X168430814Y-127865257D01*
X168359315Y-127798409D01*
X168303400Y-127713387D01*
X168264370Y-127611651D01*
X168246939Y-127525094D01*
X168241325Y-127413763D01*
X168253139Y-127304525D01*
X168281005Y-127202560D01*
X168323545Y-127113046D01*
X168374088Y-127046527D01*
X168448080Y-126987279D01*
X168535201Y-126946318D01*
X168630465Y-126924130D01*
X168728885Y-126921199D01*
X168825471Y-126938011D01*
X168825471Y-126938011D01*
G37*
X168825471Y-126938011D02*
X168915237Y-126975052D01*
X168941750Y-126991285D01*
X168977885Y-127017792D01*
X169011801Y-127046483D01*
X169037625Y-127071974D01*
X169049487Y-127088880D01*
X169049700Y-127090294D01*
X169040725Y-127102563D01*
X169017105Y-127126079D01*
X168983796Y-127155931D01*
X168981007Y-127158322D01*
X168912314Y-127217008D01*
X168856317Y-127177537D01*
X168780081Y-127137613D01*
X168701006Y-127122126D01*
X168621829Y-127131231D01*
X168552963Y-127160452D01*
X168507934Y-127200562D01*
X168474178Y-127258332D01*
X168452005Y-127328508D01*
X168441725Y-127405836D01*
X168443649Y-127485064D01*
X168458086Y-127560938D01*
X168485348Y-127628206D01*
X168522374Y-127678327D01*
X168580747Y-127719738D01*
X168649244Y-127740339D01*
X168723274Y-127740024D01*
X168798249Y-127718687D01*
X168856317Y-127686062D01*
X168912314Y-127646591D01*
X168981007Y-127705277D01*
X169014850Y-127735411D01*
X169039381Y-127759581D01*
X169049643Y-127772878D01*
X169049700Y-127773305D01*
X169041195Y-127787210D01*
X169020199Y-127809634D01*
X169014775Y-127814730D01*
X168924802Y-127881993D01*
X168827718Y-127924879D01*
X168723195Y-127943492D01*
X168615360Y-127938589D01*
X168516596Y-127912470D01*
X168430814Y-127865257D01*
X168359315Y-127798409D01*
X168303400Y-127713387D01*
X168264370Y-127611651D01*
X168246939Y-127525094D01*
X168241325Y-127413763D01*
X168253139Y-127304525D01*
X168281005Y-127202560D01*
X168323545Y-127113046D01*
X168374088Y-127046527D01*
X168448080Y-126987279D01*
X168535201Y-126946318D01*
X168630465Y-126924130D01*
X168728885Y-126921199D01*
X168825471Y-126938011D01*
G36*
X166658925Y-126926440D02*
G01*
X166757350Y-126930150D01*
X166763700Y-127273050D01*
X166765920Y-127383326D01*
X166768439Y-127471194D01*
X166771849Y-127539642D01*
X166776744Y-127591659D01*
X166783716Y-127630234D01*
X166793358Y-127658357D01*
X166806261Y-127679017D01*
X166823019Y-127695202D01*
X166844225Y-127709903D01*
X166851166Y-127714238D01*
X166897748Y-127734526D01*
X166954325Y-127741097D01*
X166964273Y-127741068D01*
X167026445Y-127733070D01*
X167073814Y-127708714D01*
X167112010Y-127664365D01*
X167128825Y-127634740D01*
X167137541Y-127616649D01*
X167144279Y-127598423D01*
X167149293Y-127576654D01*
X167152836Y-127547932D01*
X167155163Y-127508848D01*
X167156528Y-127455992D01*
X167157185Y-127385957D01*
X167157388Y-127295332D01*
X167157400Y-127251309D01*
X167157400Y-126923800D01*
X167360600Y-126923800D01*
X167360600Y-127939800D01*
X167157400Y-127939800D01*
X167157400Y-127822544D01*
X167108259Y-127866939D01*
X167038006Y-127913771D01*
X166956146Y-127939535D01*
X166866666Y-127943215D01*
X166829063Y-127938170D01*
X166761485Y-127916696D01*
X166695982Y-127880333D01*
X166642730Y-127835093D01*
X166631029Y-127821169D01*
X166611903Y-127794678D01*
X166596571Y-127768627D01*
X166584619Y-127739918D01*
X166575628Y-127705449D01*
X166569183Y-127662119D01*
X166564866Y-127606828D01*
X166562261Y-127536475D01*
X166560951Y-127447960D01*
X166560520Y-127338181D01*
X166560500Y-127296319D01*
X166560500Y-126922731D01*
X166658925Y-126926440D01*
X166658925Y-126926440D01*
G37*
X166658925Y-126926440D02*
X166757350Y-126930150D01*
X166763700Y-127273050D01*
X166765920Y-127383326D01*
X166768439Y-127471194D01*
X166771849Y-127539642D01*
X166776744Y-127591659D01*
X166783716Y-127630234D01*
X166793358Y-127658357D01*
X166806261Y-127679017D01*
X166823019Y-127695202D01*
X166844225Y-127709903D01*
X166851166Y-127714238D01*
X166897748Y-127734526D01*
X166954325Y-127741097D01*
X166964273Y-127741068D01*
X167026445Y-127733070D01*
X167073814Y-127708714D01*
X167112010Y-127664365D01*
X167128825Y-127634740D01*
X167137541Y-127616649D01*
X167144279Y-127598423D01*
X167149293Y-127576654D01*
X167152836Y-127547932D01*
X167155163Y-127508848D01*
X167156528Y-127455992D01*
X167157185Y-127385957D01*
X167157388Y-127295332D01*
X167157400Y-127251309D01*
X167157400Y-126923800D01*
X167360600Y-126923800D01*
X167360600Y-127939800D01*
X167157400Y-127939800D01*
X167157400Y-127822544D01*
X167108259Y-127866939D01*
X167038006Y-127913771D01*
X166956146Y-127939535D01*
X166866666Y-127943215D01*
X166829063Y-127938170D01*
X166761485Y-127916696D01*
X166695982Y-127880333D01*
X166642730Y-127835093D01*
X166631029Y-127821169D01*
X166611903Y-127794678D01*
X166596571Y-127768627D01*
X166584619Y-127739918D01*
X166575628Y-127705449D01*
X166569183Y-127662119D01*
X166564866Y-127606828D01*
X166562261Y-127536475D01*
X166560951Y-127447960D01*
X166560520Y-127338181D01*
X166560500Y-127296319D01*
X166560500Y-126922731D01*
X166658925Y-126926440D01*
G36*
X166050502Y-126926483D02*
G01*
X166129558Y-126948052D01*
X166199314Y-126987431D01*
X166256217Y-127036958D01*
X166298773Y-127084110D01*
X166330318Y-127131213D01*
X166352350Y-127183183D01*
X166366364Y-127244937D01*
X166373855Y-127321393D01*
X166376320Y-127417465D01*
X166376350Y-127431800D01*
X166374433Y-127530814D01*
X166367687Y-127609565D01*
X166354616Y-127672969D01*
X166333722Y-127725944D01*
X166303512Y-127773405D01*
X166262487Y-127820271D01*
X166256217Y-127826641D01*
X166179671Y-127888248D01*
X166094401Y-127927091D01*
X165998589Y-127943732D01*
X165891982Y-127938944D01*
X165802988Y-127914721D01*
X165721593Y-127868823D01*
X165652281Y-127804784D01*
X165599535Y-127726136D01*
X165586903Y-127698500D01*
X165577816Y-127672183D01*
X165571360Y-127641690D01*
X165567123Y-127602335D01*
X165564695Y-127549434D01*
X165563667Y-127478302D01*
X165563550Y-127431800D01*
X165760400Y-127431800D01*
X165761070Y-127503012D01*
X165763494Y-127554203D01*
X165768292Y-127590725D01*
X165776084Y-127617932D01*
X165783913Y-127634789D01*
X165827063Y-127690968D01*
X165883701Y-127726913D01*
X165950746Y-127741641D01*
X166025118Y-127734170D01*
X166060781Y-127723069D01*
X166108528Y-127693213D01*
X166143745Y-127643811D01*
X166166807Y-127573934D01*
X166178088Y-127482656D01*
X166179429Y-127429351D01*
X166176425Y-127346816D01*
X166166529Y-127283371D01*
X166148225Y-127233281D01*
X166120000Y-127190811D01*
X166114799Y-127184723D01*
X166065846Y-127146955D01*
X166004969Y-127126528D01*
X165939348Y-127124047D01*
X165876166Y-127140117D01*
X165838871Y-127161490D01*
X165808261Y-127188865D01*
X165786473Y-127221100D01*
X165772171Y-127262794D01*
X165764021Y-127318546D01*
X165760685Y-127392955D01*
X165760400Y-127431800D01*
X165563550Y-127431800D01*
X165564004Y-127349153D01*
X165565642Y-127287210D01*
X165568872Y-127241287D01*
X165574106Y-127206698D01*
X165581752Y-127178760D01*
X165586903Y-127165100D01*
X165634961Y-127079411D01*
X165700927Y-127010068D01*
X165781713Y-126959117D01*
X165874231Y-126928608D01*
X165955867Y-126920285D01*
X166050502Y-126926483D01*
X166050502Y-126926483D01*
G37*
X166050502Y-126926483D02*
X166129558Y-126948052D01*
X166199314Y-126987431D01*
X166256217Y-127036958D01*
X166298773Y-127084110D01*
X166330318Y-127131213D01*
X166352350Y-127183183D01*
X166366364Y-127244937D01*
X166373855Y-127321393D01*
X166376320Y-127417465D01*
X166376350Y-127431800D01*
X166374433Y-127530814D01*
X166367687Y-127609565D01*
X166354616Y-127672969D01*
X166333722Y-127725944D01*
X166303512Y-127773405D01*
X166262487Y-127820271D01*
X166256217Y-127826641D01*
X166179671Y-127888248D01*
X166094401Y-127927091D01*
X165998589Y-127943732D01*
X165891982Y-127938944D01*
X165802988Y-127914721D01*
X165721593Y-127868823D01*
X165652281Y-127804784D01*
X165599535Y-127726136D01*
X165586903Y-127698500D01*
X165577816Y-127672183D01*
X165571360Y-127641690D01*
X165567123Y-127602335D01*
X165564695Y-127549434D01*
X165563667Y-127478302D01*
X165563550Y-127431800D01*
X165760400Y-127431800D01*
X165761070Y-127503012D01*
X165763494Y-127554203D01*
X165768292Y-127590725D01*
X165776084Y-127617932D01*
X165783913Y-127634789D01*
X165827063Y-127690968D01*
X165883701Y-127726913D01*
X165950746Y-127741641D01*
X166025118Y-127734170D01*
X166060781Y-127723069D01*
X166108528Y-127693213D01*
X166143745Y-127643811D01*
X166166807Y-127573934D01*
X166178088Y-127482656D01*
X166179429Y-127429351D01*
X166176425Y-127346816D01*
X166166529Y-127283371D01*
X166148225Y-127233281D01*
X166120000Y-127190811D01*
X166114799Y-127184723D01*
X166065846Y-127146955D01*
X166004969Y-127126528D01*
X165939348Y-127124047D01*
X165876166Y-127140117D01*
X165838871Y-127161490D01*
X165808261Y-127188865D01*
X165786473Y-127221100D01*
X165772171Y-127262794D01*
X165764021Y-127318546D01*
X165760685Y-127392955D01*
X165760400Y-127431800D01*
X165563550Y-127431800D01*
X165564004Y-127349153D01*
X165565642Y-127287210D01*
X165568872Y-127241287D01*
X165574106Y-127206698D01*
X165581752Y-127178760D01*
X165586903Y-127165100D01*
X165634961Y-127079411D01*
X165700927Y-127010068D01*
X165781713Y-126959117D01*
X165874231Y-126928608D01*
X165955867Y-126920285D01*
X166050502Y-126926483D01*
G36*
X165074563Y-126924272D02*
G01*
X165145593Y-126931129D01*
X165199595Y-126941699D01*
X165237806Y-126954971D01*
X165282428Y-126974615D01*
X165327450Y-126997399D01*
X165366859Y-127020091D01*
X165394643Y-127039459D01*
X165404800Y-127052024D01*
X165397287Y-127065365D01*
X165377513Y-127092439D01*
X165349627Y-127127592D01*
X165347269Y-127130463D01*
X165289739Y-127200345D01*
X165223206Y-127164309D01*
X165152682Y-127133685D01*
X165081662Y-127116182D01*
X165013870Y-127111177D01*
X164953027Y-127118047D01*
X164902856Y-127136171D01*
X164867079Y-127164925D01*
X164849419Y-127203688D01*
X164848573Y-127226941D01*
X164855401Y-127260033D01*
X164871620Y-127284793D01*
X164900659Y-127302849D01*
X164945947Y-127315831D01*
X165010911Y-127325366D01*
X165066793Y-127330609D01*
X165157923Y-127340416D01*
X165228540Y-127354125D01*
X165283429Y-127373351D01*
X165327372Y-127399708D01*
X165360443Y-127429718D01*
X165396789Y-127477931D01*
X165418591Y-127533175D01*
X165428258Y-127602554D01*
X165429233Y-127632455D01*
X165423571Y-127706142D01*
X165402337Y-127766568D01*
X165362175Y-127822739D01*
X165355725Y-127829838D01*
X165296409Y-127876952D01*
X165219001Y-127912802D01*
X165128807Y-127936004D01*
X165031132Y-127945176D01*
X164934900Y-127939450D01*
X164826704Y-127914405D01*
X164723607Y-127871688D01*
X164634036Y-127814937D01*
X164620153Y-127803640D01*
X164578456Y-127768315D01*
X164714664Y-127633799D01*
X164781246Y-127678606D01*
X164856879Y-127720852D01*
X164934057Y-127744354D01*
X165022627Y-127752016D01*
X165030150Y-127752033D01*
X165111135Y-127745319D01*
X165171068Y-127725836D01*
X165209537Y-127693826D01*
X165226126Y-127649534D01*
X165226805Y-127636206D01*
X165224154Y-127601134D01*
X165214247Y-127574988D01*
X165193639Y-127555935D01*
X165158887Y-127542144D01*
X165106547Y-127531781D01*
X165033174Y-127523014D01*
X165009764Y-127520726D01*
X164898601Y-127504577D01*
X164809780Y-127478696D01*
X164741732Y-127441910D01*
X164692886Y-127393049D01*
X164661671Y-127330942D01*
X164646517Y-127254419D01*
X164646105Y-127249601D01*
X164643744Y-127199050D01*
X164647972Y-127161015D01*
X164661071Y-127122981D01*
X164674398Y-127094421D01*
X164722077Y-127025116D01*
X164788601Y-126971860D01*
X164871919Y-126936268D01*
X164877554Y-126934689D01*
X164931079Y-126925846D01*
X164999903Y-126922442D01*
X165074563Y-126924272D01*
X165074563Y-126924272D01*
G37*
X165074563Y-126924272D02*
X165145593Y-126931129D01*
X165199595Y-126941699D01*
X165237806Y-126954971D01*
X165282428Y-126974615D01*
X165327450Y-126997399D01*
X165366859Y-127020091D01*
X165394643Y-127039459D01*
X165404800Y-127052024D01*
X165397287Y-127065365D01*
X165377513Y-127092439D01*
X165349627Y-127127592D01*
X165347269Y-127130463D01*
X165289739Y-127200345D01*
X165223206Y-127164309D01*
X165152682Y-127133685D01*
X165081662Y-127116182D01*
X165013870Y-127111177D01*
X164953027Y-127118047D01*
X164902856Y-127136171D01*
X164867079Y-127164925D01*
X164849419Y-127203688D01*
X164848573Y-127226941D01*
X164855401Y-127260033D01*
X164871620Y-127284793D01*
X164900659Y-127302849D01*
X164945947Y-127315831D01*
X165010911Y-127325366D01*
X165066793Y-127330609D01*
X165157923Y-127340416D01*
X165228540Y-127354125D01*
X165283429Y-127373351D01*
X165327372Y-127399708D01*
X165360443Y-127429718D01*
X165396789Y-127477931D01*
X165418591Y-127533175D01*
X165428258Y-127602554D01*
X165429233Y-127632455D01*
X165423571Y-127706142D01*
X165402337Y-127766568D01*
X165362175Y-127822739D01*
X165355725Y-127829838D01*
X165296409Y-127876952D01*
X165219001Y-127912802D01*
X165128807Y-127936004D01*
X165031132Y-127945176D01*
X164934900Y-127939450D01*
X164826704Y-127914405D01*
X164723607Y-127871688D01*
X164634036Y-127814937D01*
X164620153Y-127803640D01*
X164578456Y-127768315D01*
X164714664Y-127633799D01*
X164781246Y-127678606D01*
X164856879Y-127720852D01*
X164934057Y-127744354D01*
X165022627Y-127752016D01*
X165030150Y-127752033D01*
X165111135Y-127745319D01*
X165171068Y-127725836D01*
X165209537Y-127693826D01*
X165226126Y-127649534D01*
X165226805Y-127636206D01*
X165224154Y-127601134D01*
X165214247Y-127574988D01*
X165193639Y-127555935D01*
X165158887Y-127542144D01*
X165106547Y-127531781D01*
X165033174Y-127523014D01*
X165009764Y-127520726D01*
X164898601Y-127504577D01*
X164809780Y-127478696D01*
X164741732Y-127441910D01*
X164692886Y-127393049D01*
X164661671Y-127330942D01*
X164646517Y-127254419D01*
X164646105Y-127249601D01*
X164643744Y-127199050D01*
X164647972Y-127161015D01*
X164661071Y-127122981D01*
X164674398Y-127094421D01*
X164722077Y-127025116D01*
X164788601Y-126971860D01*
X164871919Y-126936268D01*
X164877554Y-126934689D01*
X164931079Y-126925846D01*
X164999903Y-126922442D01*
X165074563Y-126924272D01*
G36*
X162720186Y-126929891D02*
G01*
X162809735Y-126958279D01*
X162888947Y-127004531D01*
X162926329Y-127037585D01*
X162980607Y-127106416D01*
X163019295Y-127186476D01*
X163043480Y-127281122D01*
X163054250Y-127393714D01*
X163055044Y-127434975D01*
X163055300Y-127508000D01*
X162416976Y-127508000D01*
X162424393Y-127553702D01*
X162447469Y-127628334D01*
X162487831Y-127686794D01*
X162542252Y-127727894D01*
X162607508Y-127750444D01*
X162680373Y-127753256D01*
X162757621Y-127735140D01*
X162825605Y-127701603D01*
X162886820Y-127663550D01*
X162957474Y-127723842D01*
X163028129Y-127784133D01*
X162987739Y-127821872D01*
X162902802Y-127884318D01*
X162805943Y-127925620D01*
X162700740Y-127944756D01*
X162590772Y-127940701D01*
X162578622Y-127938810D01*
X162478368Y-127910888D01*
X162394395Y-127863493D01*
X162326779Y-127796714D01*
X162275600Y-127710640D01*
X162240934Y-127605360D01*
X162229104Y-127540531D01*
X162221473Y-127421808D01*
X162228310Y-127342900D01*
X162417473Y-127342900D01*
X162848689Y-127342900D01*
X162839837Y-127295275D01*
X162816644Y-127220004D01*
X162778234Y-127164656D01*
X162723632Y-127128120D01*
X162680936Y-127114364D01*
X162610666Y-127110332D01*
X162546364Y-127128967D01*
X162491736Y-127167637D01*
X162450489Y-127223710D01*
X162426328Y-127294554D01*
X162426196Y-127295275D01*
X162417473Y-127342900D01*
X162228310Y-127342900D01*
X162231274Y-127308704D01*
X162257288Y-127204450D01*
X162298296Y-127112277D01*
X162353080Y-127035416D01*
X162420421Y-126977098D01*
X162447645Y-126961192D01*
X162533328Y-126930420D01*
X162626113Y-126920295D01*
X162720186Y-126929891D01*
X162720186Y-126929891D01*
G37*
X162720186Y-126929891D02*
X162809735Y-126958279D01*
X162888947Y-127004531D01*
X162926329Y-127037585D01*
X162980607Y-127106416D01*
X163019295Y-127186476D01*
X163043480Y-127281122D01*
X163054250Y-127393714D01*
X163055044Y-127434975D01*
X163055300Y-127508000D01*
X162416976Y-127508000D01*
X162424393Y-127553702D01*
X162447469Y-127628334D01*
X162487831Y-127686794D01*
X162542252Y-127727894D01*
X162607508Y-127750444D01*
X162680373Y-127753256D01*
X162757621Y-127735140D01*
X162825605Y-127701603D01*
X162886820Y-127663550D01*
X162957474Y-127723842D01*
X163028129Y-127784133D01*
X162987739Y-127821872D01*
X162902802Y-127884318D01*
X162805943Y-127925620D01*
X162700740Y-127944756D01*
X162590772Y-127940701D01*
X162578622Y-127938810D01*
X162478368Y-127910888D01*
X162394395Y-127863493D01*
X162326779Y-127796714D01*
X162275600Y-127710640D01*
X162240934Y-127605360D01*
X162229104Y-127540531D01*
X162221473Y-127421808D01*
X162228310Y-127342900D01*
X162417473Y-127342900D01*
X162848689Y-127342900D01*
X162839837Y-127295275D01*
X162816644Y-127220004D01*
X162778234Y-127164656D01*
X162723632Y-127128120D01*
X162680936Y-127114364D01*
X162610666Y-127110332D01*
X162546364Y-127128967D01*
X162491736Y-127167637D01*
X162450489Y-127223710D01*
X162426328Y-127294554D01*
X162426196Y-127295275D01*
X162417473Y-127342900D01*
X162228310Y-127342900D01*
X162231274Y-127308704D01*
X162257288Y-127204450D01*
X162298296Y-127112277D01*
X162353080Y-127035416D01*
X162420421Y-126977098D01*
X162447645Y-126961192D01*
X162533328Y-126930420D01*
X162626113Y-126920295D01*
X162720186Y-126929891D01*
G36*
X160743382Y-126921441D02*
G01*
X160837247Y-126944134D01*
X160921986Y-126987338D01*
X160994480Y-127049742D01*
X161051610Y-127130036D01*
X161068522Y-127164688D01*
X161077952Y-127189732D01*
X161084673Y-127217637D01*
X161089119Y-127253107D01*
X161091722Y-127300846D01*
X161092916Y-127365556D01*
X161093150Y-127431800D01*
X161092761Y-127513250D01*
X161091307Y-127574012D01*
X161088354Y-127618789D01*
X161083467Y-127652283D01*
X161076214Y-127679198D01*
X161068522Y-127698911D01*
X161018993Y-127786285D01*
X160954267Y-127853904D01*
X160880092Y-127900041D01*
X160796803Y-127931392D01*
X160713587Y-127943781D01*
X160620776Y-127938718D01*
X160530551Y-127914884D01*
X160448537Y-127870209D01*
X160379086Y-127808299D01*
X160326548Y-127732764D01*
X160302509Y-127674828D01*
X160290290Y-127616909D01*
X160282526Y-127541549D01*
X160279201Y-127456312D01*
X160279789Y-127409401D01*
X160478135Y-127409401D01*
X160480164Y-127481082D01*
X160486545Y-127549079D01*
X160496867Y-127605691D01*
X160507598Y-127637431D01*
X160545724Y-127689518D01*
X160598760Y-127724624D01*
X160661633Y-127741449D01*
X160729270Y-127738693D01*
X160796599Y-127715056D01*
X160801050Y-127712652D01*
X160829914Y-127688383D01*
X160858207Y-127651804D01*
X160867725Y-127635193D01*
X160880485Y-127606784D01*
X160888806Y-127577595D01*
X160893572Y-127541268D01*
X160895672Y-127491442D01*
X160896021Y-127432284D01*
X160892422Y-127336715D01*
X160881017Y-127262807D01*
X160860282Y-127207608D01*
X160828689Y-127168167D01*
X160784715Y-127141533D01*
X160738297Y-127127168D01*
X160666129Y-127122619D01*
X160600782Y-127140804D01*
X160546192Y-127179220D01*
X160506295Y-127235366D01*
X160488783Y-127285776D01*
X160480871Y-127341732D01*
X160478135Y-127409401D01*
X160279789Y-127409401D01*
X160280299Y-127368759D01*
X160285806Y-127286455D01*
X160295707Y-127216962D01*
X160303491Y-127185392D01*
X160337541Y-127112651D01*
X160390461Y-127044431D01*
X160455854Y-126987273D01*
X160527324Y-126947716D01*
X160540745Y-126942834D01*
X160643508Y-126920571D01*
X160743382Y-126921441D01*
X160743382Y-126921441D01*
G37*
X160743382Y-126921441D02*
X160837247Y-126944134D01*
X160921986Y-126987338D01*
X160994480Y-127049742D01*
X161051610Y-127130036D01*
X161068522Y-127164688D01*
X161077952Y-127189732D01*
X161084673Y-127217637D01*
X161089119Y-127253107D01*
X161091722Y-127300846D01*
X161092916Y-127365556D01*
X161093150Y-127431800D01*
X161092761Y-127513250D01*
X161091307Y-127574012D01*
X161088354Y-127618789D01*
X161083467Y-127652283D01*
X161076214Y-127679198D01*
X161068522Y-127698911D01*
X161018993Y-127786285D01*
X160954267Y-127853904D01*
X160880092Y-127900041D01*
X160796803Y-127931392D01*
X160713587Y-127943781D01*
X160620776Y-127938718D01*
X160530551Y-127914884D01*
X160448537Y-127870209D01*
X160379086Y-127808299D01*
X160326548Y-127732764D01*
X160302509Y-127674828D01*
X160290290Y-127616909D01*
X160282526Y-127541549D01*
X160279201Y-127456312D01*
X160279789Y-127409401D01*
X160478135Y-127409401D01*
X160480164Y-127481082D01*
X160486545Y-127549079D01*
X160496867Y-127605691D01*
X160507598Y-127637431D01*
X160545724Y-127689518D01*
X160598760Y-127724624D01*
X160661633Y-127741449D01*
X160729270Y-127738693D01*
X160796599Y-127715056D01*
X160801050Y-127712652D01*
X160829914Y-127688383D01*
X160858207Y-127651804D01*
X160867725Y-127635193D01*
X160880485Y-127606784D01*
X160888806Y-127577595D01*
X160893572Y-127541268D01*
X160895672Y-127491442D01*
X160896021Y-127432284D01*
X160892422Y-127336715D01*
X160881017Y-127262807D01*
X160860282Y-127207608D01*
X160828689Y-127168167D01*
X160784715Y-127141533D01*
X160738297Y-127127168D01*
X160666129Y-127122619D01*
X160600782Y-127140804D01*
X160546192Y-127179220D01*
X160506295Y-127235366D01*
X160488783Y-127285776D01*
X160480871Y-127341732D01*
X160478135Y-127409401D01*
X160279789Y-127409401D01*
X160280299Y-127368759D01*
X160285806Y-127286455D01*
X160295707Y-127216962D01*
X160303491Y-127185392D01*
X160337541Y-127112651D01*
X160390461Y-127044431D01*
X160455854Y-126987273D01*
X160527324Y-126947716D01*
X160540745Y-126942834D01*
X160643508Y-126920571D01*
X160743382Y-126921441D01*
G36*
X167911500Y-128531796D02*
G01*
X167992301Y-128571727D01*
X167994611Y-128573261D01*
X168000605Y-128583032D01*
X167994926Y-128599972D01*
X167975506Y-128627889D01*
X167944356Y-128665801D01*
X167912529Y-128703378D01*
X167887583Y-128733019D01*
X167873637Y-128749820D01*
X167872159Y-128751701D01*
X167859485Y-128750288D01*
X167832724Y-128740044D01*
X167823559Y-128735826D01*
X167756365Y-128716179D01*
X167689586Y-128718851D01*
X167628573Y-128742387D01*
X167578676Y-128785333D01*
X167563731Y-128806458D01*
X167556133Y-128820406D01*
X167550228Y-128836449D01*
X167545803Y-128857786D01*
X167542646Y-128887615D01*
X167540546Y-128929136D01*
X167539289Y-128985547D01*
X167538664Y-129060046D01*
X167538458Y-129155831D01*
X167538447Y-129187575D01*
X167538400Y-129527300D01*
X167335200Y-129527300D01*
X167335200Y-128524000D01*
X167538400Y-128524000D01*
X167538400Y-128627579D01*
X167589731Y-128583641D01*
X167660322Y-128539192D01*
X167740692Y-128515652D01*
X167826024Y-128513146D01*
X167911500Y-128531796D01*
X167911500Y-128531796D01*
G37*
X167911500Y-128531796D02*
X167992301Y-128571727D01*
X167994611Y-128573261D01*
X168000605Y-128583032D01*
X167994926Y-128599972D01*
X167975506Y-128627889D01*
X167944356Y-128665801D01*
X167912529Y-128703378D01*
X167887583Y-128733019D01*
X167873637Y-128749820D01*
X167872159Y-128751701D01*
X167859485Y-128750288D01*
X167832724Y-128740044D01*
X167823559Y-128735826D01*
X167756365Y-128716179D01*
X167689586Y-128718851D01*
X167628573Y-128742387D01*
X167578676Y-128785333D01*
X167563731Y-128806458D01*
X167556133Y-128820406D01*
X167550228Y-128836449D01*
X167545803Y-128857786D01*
X167542646Y-128887615D01*
X167540546Y-128929136D01*
X167539289Y-128985547D01*
X167538664Y-129060046D01*
X167538458Y-129155831D01*
X167538447Y-129187575D01*
X167538400Y-129527300D01*
X167335200Y-129527300D01*
X167335200Y-128524000D01*
X167538400Y-128524000D01*
X167538400Y-128627579D01*
X167589731Y-128583641D01*
X167660322Y-128539192D01*
X167740692Y-128515652D01*
X167826024Y-128513146D01*
X167911500Y-128531796D01*
G36*
X165163968Y-128866900D02*
G01*
X165188350Y-128955771D01*
X165210863Y-129036080D01*
X165230595Y-129104721D01*
X165246638Y-129158586D01*
X165258081Y-129194565D01*
X165264014Y-129209553D01*
X165264358Y-129209800D01*
X165269992Y-129198210D01*
X165282314Y-129165471D01*
X165300271Y-129114622D01*
X165322812Y-129048706D01*
X165348885Y-128970764D01*
X165377438Y-128883838D01*
X165382946Y-128866900D01*
X165494260Y-128524000D01*
X165643645Y-128524000D01*
X165732618Y-128800225D01*
X165759770Y-128884660D01*
X165785713Y-128965589D01*
X165808942Y-129038299D01*
X165827953Y-129098081D01*
X165841243Y-129140222D01*
X165844523Y-129150772D01*
X165857910Y-129190484D01*
X165867425Y-129208230D01*
X165874889Y-129206801D01*
X165877669Y-129201572D01*
X165883663Y-129183322D01*
X165895270Y-129144073D01*
X165911492Y-129087349D01*
X165931328Y-129016675D01*
X165953782Y-128935576D01*
X165975475Y-128856324D01*
X165999132Y-128770004D01*
X166020809Y-128691994D01*
X166039570Y-128625575D01*
X166054479Y-128574032D01*
X166064598Y-128540648D01*
X166068906Y-128528760D01*
X166083457Y-128526469D01*
X166116922Y-128525569D01*
X166162846Y-128526186D01*
X166176715Y-128526635D01*
X166278686Y-128530350D01*
X166140154Y-128962150D01*
X166107145Y-129065165D01*
X166075814Y-129163187D01*
X166047209Y-129252922D01*
X166022375Y-129331074D01*
X166002361Y-129394350D01*
X165988214Y-129439453D01*
X165981709Y-129460625D01*
X165961797Y-129527300D01*
X165870623Y-129527228D01*
X165779450Y-129527156D01*
X165685286Y-129206553D01*
X165659452Y-129118916D01*
X165635408Y-129037967D01*
X165614245Y-128967322D01*
X165597050Y-128910600D01*
X165584911Y-128871415D01*
X165579236Y-128854200D01*
X165574801Y-128848049D01*
X165568725Y-128851756D01*
X165560212Y-128867480D01*
X165548468Y-128897381D01*
X165532698Y-128943617D01*
X165512106Y-129008348D01*
X165485897Y-129093734D01*
X165462356Y-129171700D01*
X165357364Y-129520950D01*
X165267583Y-129524665D01*
X165177803Y-129528380D01*
X165095173Y-129270665D01*
X165064754Y-129175736D01*
X165033057Y-129076724D01*
X165001176Y-128977055D01*
X164970204Y-128880153D01*
X164941237Y-128789445D01*
X164915366Y-128708354D01*
X164893686Y-128640307D01*
X164877291Y-128588728D01*
X164867274Y-128557043D01*
X164865877Y-128552575D01*
X164862628Y-128538692D01*
X164866569Y-128530240D01*
X164882321Y-128525872D01*
X164914504Y-128524241D01*
X164963919Y-128524000D01*
X165070851Y-128524000D01*
X165163968Y-128866900D01*
X165163968Y-128866900D01*
G37*
X165163968Y-128866900D02*
X165188350Y-128955771D01*
X165210863Y-129036080D01*
X165230595Y-129104721D01*
X165246638Y-129158586D01*
X165258081Y-129194565D01*
X165264014Y-129209553D01*
X165264358Y-129209800D01*
X165269992Y-129198210D01*
X165282314Y-129165471D01*
X165300271Y-129114622D01*
X165322812Y-129048706D01*
X165348885Y-128970764D01*
X165377438Y-128883838D01*
X165382946Y-128866900D01*
X165494260Y-128524000D01*
X165643645Y-128524000D01*
X165732618Y-128800225D01*
X165759770Y-128884660D01*
X165785713Y-128965589D01*
X165808942Y-129038299D01*
X165827953Y-129098081D01*
X165841243Y-129140222D01*
X165844523Y-129150772D01*
X165857910Y-129190484D01*
X165867425Y-129208230D01*
X165874889Y-129206801D01*
X165877669Y-129201572D01*
X165883663Y-129183322D01*
X165895270Y-129144073D01*
X165911492Y-129087349D01*
X165931328Y-129016675D01*
X165953782Y-128935576D01*
X165975475Y-128856324D01*
X165999132Y-128770004D01*
X166020809Y-128691994D01*
X166039570Y-128625575D01*
X166054479Y-128574032D01*
X166064598Y-128540648D01*
X166068906Y-128528760D01*
X166083457Y-128526469D01*
X166116922Y-128525569D01*
X166162846Y-128526186D01*
X166176715Y-128526635D01*
X166278686Y-128530350D01*
X166140154Y-128962150D01*
X166107145Y-129065165D01*
X166075814Y-129163187D01*
X166047209Y-129252922D01*
X166022375Y-129331074D01*
X166002361Y-129394350D01*
X165988214Y-129439453D01*
X165981709Y-129460625D01*
X165961797Y-129527300D01*
X165870623Y-129527228D01*
X165779450Y-129527156D01*
X165685286Y-129206553D01*
X165659452Y-129118916D01*
X165635408Y-129037967D01*
X165614245Y-128967322D01*
X165597050Y-128910600D01*
X165584911Y-128871415D01*
X165579236Y-128854200D01*
X165574801Y-128848049D01*
X165568725Y-128851756D01*
X165560212Y-128867480D01*
X165548468Y-128897381D01*
X165532698Y-128943617D01*
X165512106Y-129008348D01*
X165485897Y-129093734D01*
X165462356Y-129171700D01*
X165357364Y-129520950D01*
X165267583Y-129524665D01*
X165177803Y-129528380D01*
X165095173Y-129270665D01*
X165064754Y-129175736D01*
X165033057Y-129076724D01*
X165001176Y-128977055D01*
X164970204Y-128880153D01*
X164941237Y-128789445D01*
X164915366Y-128708354D01*
X164893686Y-128640307D01*
X164877291Y-128588728D01*
X164867274Y-128557043D01*
X164865877Y-128552575D01*
X164862628Y-128538692D01*
X164866569Y-128530240D01*
X164882321Y-128525872D01*
X164914504Y-128524241D01*
X164963919Y-128524000D01*
X165070851Y-128524000D01*
X165163968Y-128866900D01*
G36*
X163813383Y-128524535D02*
G01*
X163893810Y-128557661D01*
X163917874Y-128572825D01*
X163923955Y-128582669D01*
X163918854Y-128599578D01*
X163900548Y-128627457D01*
X163868031Y-128668952D01*
X163835583Y-128707033D01*
X163808009Y-128735922D01*
X163789841Y-128750995D01*
X163786507Y-128752149D01*
X163766208Y-128745951D01*
X163741100Y-128733550D01*
X163690904Y-128717276D01*
X163631953Y-128716213D01*
X163575398Y-128729791D01*
X163549303Y-128743328D01*
X163524620Y-128760964D01*
X163505061Y-128779245D01*
X163490033Y-128801226D01*
X163478940Y-128829966D01*
X163471190Y-128868521D01*
X163466187Y-128919947D01*
X163463337Y-128987302D01*
X163462047Y-129073642D01*
X163461722Y-129182024D01*
X163461719Y-129193925D01*
X163461700Y-129527300D01*
X163258500Y-129527300D01*
X163258500Y-128524000D01*
X163461700Y-128524000D01*
X163461700Y-128630352D01*
X163496625Y-128596974D01*
X163564628Y-128548722D01*
X163643570Y-128520366D01*
X163728229Y-128512204D01*
X163813383Y-128524535D01*
X163813383Y-128524535D01*
G37*
X163813383Y-128524535D02*
X163893810Y-128557661D01*
X163917874Y-128572825D01*
X163923955Y-128582669D01*
X163918854Y-128599578D01*
X163900548Y-128627457D01*
X163868031Y-128668952D01*
X163835583Y-128707033D01*
X163808009Y-128735922D01*
X163789841Y-128750995D01*
X163786507Y-128752149D01*
X163766208Y-128745951D01*
X163741100Y-128733550D01*
X163690904Y-128717276D01*
X163631953Y-128716213D01*
X163575398Y-128729791D01*
X163549303Y-128743328D01*
X163524620Y-128760964D01*
X163505061Y-128779245D01*
X163490033Y-128801226D01*
X163478940Y-128829966D01*
X163471190Y-128868521D01*
X163466187Y-128919947D01*
X163463337Y-128987302D01*
X163462047Y-129073642D01*
X163461722Y-129182024D01*
X163461719Y-129193925D01*
X163461700Y-129527300D01*
X163258500Y-129527300D01*
X163258500Y-128524000D01*
X163461700Y-128524000D01*
X163461700Y-128630352D01*
X163496625Y-128596974D01*
X163564628Y-128548722D01*
X163643570Y-128520366D01*
X163728229Y-128512204D01*
X163813383Y-128524535D01*
G36*
X161833273Y-126933415D02*
G01*
X161912791Y-126965226D01*
X161979734Y-127014945D01*
X162030561Y-127079874D01*
X162061730Y-127157314D01*
X162063530Y-127165179D01*
X162069313Y-127207545D01*
X162073484Y-127269056D01*
X162076041Y-127343509D01*
X162076987Y-127424699D01*
X162076319Y-127506423D01*
X162074039Y-127582477D01*
X162070146Y-127646658D01*
X162064640Y-127692762D01*
X162063530Y-127698420D01*
X162034980Y-127775869D01*
X161987803Y-127840402D01*
X161926042Y-127890568D01*
X161853738Y-127924913D01*
X161774930Y-127941986D01*
X161693660Y-127940334D01*
X161613970Y-127918503D01*
X161550350Y-127882895D01*
X161520650Y-127862038D01*
X161498211Y-127847186D01*
X161496375Y-127846075D01*
X161491786Y-127848240D01*
X161488117Y-127862151D01*
X161485282Y-127889933D01*
X161483194Y-127933713D01*
X161481764Y-127995616D01*
X161480906Y-128077769D01*
X161480533Y-128182299D01*
X161480500Y-128233526D01*
X161480500Y-128630352D01*
X161515425Y-128596974D01*
X161584588Y-128547036D01*
X161661787Y-128518547D01*
X161742916Y-128510649D01*
X161823866Y-128522483D01*
X161900530Y-128553190D01*
X161968800Y-128601911D01*
X162024569Y-128667788D01*
X162047081Y-128708150D01*
X162055669Y-128726976D01*
X162062445Y-128745158D01*
X162067624Y-128765849D01*
X162071423Y-128792202D01*
X162074058Y-128827373D01*
X162075743Y-128874514D01*
X162076695Y-128936780D01*
X162077130Y-129017324D01*
X162077264Y-129119301D01*
X162077275Y-129149475D01*
X162077400Y-129527300D01*
X161874200Y-129527300D01*
X161874180Y-129193925D01*
X161873999Y-129090977D01*
X161873346Y-129010202D01*
X161872028Y-128948371D01*
X161869858Y-128902259D01*
X161866644Y-128868637D01*
X161862196Y-128844280D01*
X161856326Y-128825961D01*
X161851955Y-128816353D01*
X161813321Y-128764498D01*
X161762077Y-128730603D01*
X161703521Y-128714679D01*
X161642954Y-128716736D01*
X161585673Y-128736787D01*
X161536979Y-128774842D01*
X161509075Y-128815615D01*
X161500357Y-128833946D01*
X161493618Y-128852380D01*
X161488604Y-128874334D01*
X161485061Y-128903226D01*
X161482734Y-128942470D01*
X161481369Y-128995484D01*
X161480713Y-129065685D01*
X161480510Y-129156489D01*
X161480500Y-129199790D01*
X161480500Y-129527300D01*
X161277300Y-129527300D01*
X161277300Y-127401579D01*
X161482682Y-127401579D01*
X161483946Y-127509700D01*
X161497159Y-127596105D01*
X161522693Y-127661685D01*
X161560920Y-127707332D01*
X161612212Y-127733939D01*
X161622545Y-127736701D01*
X161688758Y-127741389D01*
X161757673Y-127728102D01*
X161789473Y-127715010D01*
X161821645Y-127691565D01*
X161845197Y-127656389D01*
X161861074Y-127606302D01*
X161870219Y-127538127D01*
X161873578Y-127448687D01*
X161873642Y-127431800D01*
X161870347Y-127332626D01*
X161859451Y-127255772D01*
X161839435Y-127198897D01*
X161808781Y-127159661D01*
X161765970Y-127135722D01*
X161709485Y-127124739D01*
X161673581Y-127123371D01*
X161611010Y-127130811D01*
X161562249Y-127154279D01*
X161526118Y-127195492D01*
X161501438Y-127256169D01*
X161487029Y-127338029D01*
X161482682Y-127401579D01*
X161277300Y-127401579D01*
X161277300Y-126923800D01*
X161480500Y-126923800D01*
X161480500Y-127026692D01*
X161522458Y-126994689D01*
X161595156Y-126950710D01*
X161673623Y-126927503D01*
X161744720Y-126922212D01*
X161833273Y-126933415D01*
X161833273Y-126933415D01*
G37*
X161833273Y-126933415D02*
X161912791Y-126965226D01*
X161979734Y-127014945D01*
X162030561Y-127079874D01*
X162061730Y-127157314D01*
X162063530Y-127165179D01*
X162069313Y-127207545D01*
X162073484Y-127269056D01*
X162076041Y-127343509D01*
X162076987Y-127424699D01*
X162076319Y-127506423D01*
X162074039Y-127582477D01*
X162070146Y-127646658D01*
X162064640Y-127692762D01*
X162063530Y-127698420D01*
X162034980Y-127775869D01*
X161987803Y-127840402D01*
X161926042Y-127890568D01*
X161853738Y-127924913D01*
X161774930Y-127941986D01*
X161693660Y-127940334D01*
X161613970Y-127918503D01*
X161550350Y-127882895D01*
X161520650Y-127862038D01*
X161498211Y-127847186D01*
X161496375Y-127846075D01*
X161491786Y-127848240D01*
X161488117Y-127862151D01*
X161485282Y-127889933D01*
X161483194Y-127933713D01*
X161481764Y-127995616D01*
X161480906Y-128077769D01*
X161480533Y-128182299D01*
X161480500Y-128233526D01*
X161480500Y-128630352D01*
X161515425Y-128596974D01*
X161584588Y-128547036D01*
X161661787Y-128518547D01*
X161742916Y-128510649D01*
X161823866Y-128522483D01*
X161900530Y-128553190D01*
X161968800Y-128601911D01*
X162024569Y-128667788D01*
X162047081Y-128708150D01*
X162055669Y-128726976D01*
X162062445Y-128745158D01*
X162067624Y-128765849D01*
X162071423Y-128792202D01*
X162074058Y-128827373D01*
X162075743Y-128874514D01*
X162076695Y-128936780D01*
X162077130Y-129017324D01*
X162077264Y-129119301D01*
X162077275Y-129149475D01*
X162077400Y-129527300D01*
X161874200Y-129527300D01*
X161874180Y-129193925D01*
X161873999Y-129090977D01*
X161873346Y-129010202D01*
X161872028Y-128948371D01*
X161869858Y-128902259D01*
X161866644Y-128868637D01*
X161862196Y-128844280D01*
X161856326Y-128825961D01*
X161851955Y-128816353D01*
X161813321Y-128764498D01*
X161762077Y-128730603D01*
X161703521Y-128714679D01*
X161642954Y-128716736D01*
X161585673Y-128736787D01*
X161536979Y-128774842D01*
X161509075Y-128815615D01*
X161500357Y-128833946D01*
X161493618Y-128852380D01*
X161488604Y-128874334D01*
X161485061Y-128903226D01*
X161482734Y-128942470D01*
X161481369Y-128995484D01*
X161480713Y-129065685D01*
X161480510Y-129156489D01*
X161480500Y-129199790D01*
X161480500Y-129527300D01*
X161277300Y-129527300D01*
X161277300Y-127401579D01*
X161482682Y-127401579D01*
X161483946Y-127509700D01*
X161497159Y-127596105D01*
X161522693Y-127661685D01*
X161560920Y-127707332D01*
X161612212Y-127733939D01*
X161622545Y-127736701D01*
X161688758Y-127741389D01*
X161757673Y-127728102D01*
X161789473Y-127715010D01*
X161821645Y-127691565D01*
X161845197Y-127656389D01*
X161861074Y-127606302D01*
X161870219Y-127538127D01*
X161873578Y-127448687D01*
X161873642Y-127431800D01*
X161870347Y-127332626D01*
X161859451Y-127255772D01*
X161839435Y-127198897D01*
X161808781Y-127159661D01*
X161765970Y-127135722D01*
X161709485Y-127124739D01*
X161673581Y-127123371D01*
X161611010Y-127130811D01*
X161562249Y-127154279D01*
X161526118Y-127195492D01*
X161501438Y-127256169D01*
X161487029Y-127338029D01*
X161482682Y-127401579D01*
X161277300Y-127401579D01*
X161277300Y-126923800D01*
X161480500Y-126923800D01*
X161480500Y-127026692D01*
X161522458Y-126994689D01*
X161595156Y-126950710D01*
X161673623Y-126927503D01*
X161744720Y-126922212D01*
X161833273Y-126933415D01*
G36*
X168499744Y-128518250D02*
G01*
X168589290Y-128543332D01*
X168671809Y-128587603D01*
X168725339Y-128632286D01*
X168779198Y-128700367D01*
X168816760Y-128781785D01*
X168838898Y-128879199D01*
X168846486Y-128995265D01*
X168846500Y-129000875D01*
X168846500Y-129095500D01*
X168224200Y-129095500D01*
X168224200Y-129141395D01*
X168234751Y-129196702D01*
X168262525Y-129252371D01*
X168301697Y-129298082D01*
X168320492Y-129312044D01*
X168388201Y-129339600D01*
X168463767Y-129345992D01*
X168541605Y-129331604D01*
X168616131Y-129296826D01*
X168625094Y-129290957D01*
X168652845Y-129273883D01*
X168675488Y-129267469D01*
X168698729Y-129273356D01*
X168728276Y-129293185D01*
X168769836Y-129328596D01*
X168776471Y-129334477D01*
X168823925Y-129376605D01*
X168794709Y-129407704D01*
X168736262Y-129454990D01*
X168660462Y-129494335D01*
X168574842Y-129522888D01*
X168486936Y-129537801D01*
X168446956Y-129539286D01*
X168398316Y-129534733D01*
X168341346Y-129523780D01*
X168305516Y-129514022D01*
X168223170Y-129476618D01*
X168168461Y-129436988D01*
X168109654Y-129373785D01*
X168066780Y-129300210D01*
X168038650Y-129212940D01*
X168024076Y-129108649D01*
X168021301Y-129025650D01*
X168027954Y-128904222D01*
X168029546Y-128896309D01*
X168224200Y-128896309D01*
X168224200Y-128930400D01*
X168646475Y-128930400D01*
X168638273Y-128889391D01*
X168618351Y-128828152D01*
X168586724Y-128773060D01*
X168550880Y-128735358D01*
X168501153Y-128712046D01*
X168440074Y-128703273D01*
X168377336Y-128709355D01*
X168326979Y-128728063D01*
X168281081Y-128765754D01*
X168245622Y-128817347D01*
X168226214Y-128873652D01*
X168224200Y-128896309D01*
X168029546Y-128896309D01*
X168048612Y-128801576D01*
X168084319Y-128714646D01*
X168136124Y-128640367D01*
X168162187Y-128612928D01*
X168234393Y-128559695D01*
X168317751Y-128526275D01*
X168407716Y-128512512D01*
X168499744Y-128518250D01*
X168499744Y-128518250D01*
G37*
X168499744Y-128518250D02*
X168589290Y-128543332D01*
X168671809Y-128587603D01*
X168725339Y-128632286D01*
X168779198Y-128700367D01*
X168816760Y-128781785D01*
X168838898Y-128879199D01*
X168846486Y-128995265D01*
X168846500Y-129000875D01*
X168846500Y-129095500D01*
X168224200Y-129095500D01*
X168224200Y-129141395D01*
X168234751Y-129196702D01*
X168262525Y-129252371D01*
X168301697Y-129298082D01*
X168320492Y-129312044D01*
X168388201Y-129339600D01*
X168463767Y-129345992D01*
X168541605Y-129331604D01*
X168616131Y-129296826D01*
X168625094Y-129290957D01*
X168652845Y-129273883D01*
X168675488Y-129267469D01*
X168698729Y-129273356D01*
X168728276Y-129293185D01*
X168769836Y-129328596D01*
X168776471Y-129334477D01*
X168823925Y-129376605D01*
X168794709Y-129407704D01*
X168736262Y-129454990D01*
X168660462Y-129494335D01*
X168574842Y-129522888D01*
X168486936Y-129537801D01*
X168446956Y-129539286D01*
X168398316Y-129534733D01*
X168341346Y-129523780D01*
X168305516Y-129514022D01*
X168223170Y-129476618D01*
X168168461Y-129436988D01*
X168109654Y-129373785D01*
X168066780Y-129300210D01*
X168038650Y-129212940D01*
X168024076Y-129108649D01*
X168021301Y-129025650D01*
X168027954Y-128904222D01*
X168029546Y-128896309D01*
X168224200Y-128896309D01*
X168224200Y-128930400D01*
X168646475Y-128930400D01*
X168638273Y-128889391D01*
X168618351Y-128828152D01*
X168586724Y-128773060D01*
X168550880Y-128735358D01*
X168501153Y-128712046D01*
X168440074Y-128703273D01*
X168377336Y-128709355D01*
X168326979Y-128728063D01*
X168281081Y-128765754D01*
X168245622Y-128817347D01*
X168226214Y-128873652D01*
X168224200Y-128896309D01*
X168029546Y-128896309D01*
X168048612Y-128801576D01*
X168084319Y-128714646D01*
X168136124Y-128640367D01*
X168162187Y-128612928D01*
X168234393Y-128559695D01*
X168317751Y-128526275D01*
X168407716Y-128512512D01*
X168499744Y-128518250D01*
G36*
X166771774Y-128515817D02*
G01*
X166852772Y-128527468D01*
X166919476Y-128546426D01*
X166926177Y-128549208D01*
X166993245Y-128589484D01*
X167048362Y-128644387D01*
X167085608Y-128707622D01*
X167091860Y-128725402D01*
X167097011Y-128757041D01*
X167101069Y-128813754D01*
X167104025Y-128895239D01*
X167105869Y-129001193D01*
X167106589Y-129131314D01*
X167106600Y-129150948D01*
X167106600Y-129527300D01*
X166903400Y-129527300D01*
X166903400Y-129440909D01*
X166865670Y-129476153D01*
X166813381Y-129509585D01*
X166744917Y-129530858D01*
X166666795Y-129539227D01*
X166585534Y-129533943D01*
X166513922Y-129516491D01*
X166429920Y-129476631D01*
X166366821Y-129422482D01*
X166324846Y-129354344D01*
X166304218Y-129272519D01*
X166301960Y-129229446D01*
X166302830Y-129222886D01*
X166491495Y-129222886D01*
X166500324Y-129261431D01*
X166502984Y-129268034D01*
X166515660Y-129296217D01*
X166524051Y-129310969D01*
X166524926Y-129311591D01*
X166538030Y-129315745D01*
X166566400Y-129325953D01*
X166579550Y-129330845D01*
X166622657Y-129340861D01*
X166678275Y-129345508D01*
X166737993Y-129345019D01*
X166793399Y-129339627D01*
X166836083Y-129329565D01*
X166849198Y-129323389D01*
X166879386Y-129290826D01*
X166897311Y-129238127D01*
X166903395Y-129164029D01*
X166903400Y-129161740D01*
X166903400Y-129092070D01*
X166747825Y-129098109D01*
X166663154Y-129103098D01*
X166600197Y-129111395D01*
X166555351Y-129124257D01*
X166525011Y-129142942D01*
X166505574Y-129168709D01*
X166498659Y-129185098D01*
X166491495Y-129222886D01*
X166302830Y-129222886D01*
X166313392Y-129143275D01*
X166347342Y-129068705D01*
X166391061Y-129016798D01*
X166424563Y-128988784D01*
X166460694Y-128967963D01*
X166504071Y-128953149D01*
X166559310Y-128943151D01*
X166631027Y-128936781D01*
X166716075Y-128933085D01*
X166903400Y-128927256D01*
X166903400Y-128858143D01*
X166900929Y-128814081D01*
X166894611Y-128777255D01*
X166889677Y-128763389D01*
X166861366Y-128735153D01*
X166815250Y-128715323D01*
X166757533Y-128704012D01*
X166694417Y-128701332D01*
X166632106Y-128707396D01*
X166576802Y-128722317D01*
X166534709Y-128746208D01*
X166524210Y-128756753D01*
X166513516Y-128765932D01*
X166499987Y-128765614D01*
X166478536Y-128753698D01*
X166444080Y-128728087D01*
X166432135Y-128718747D01*
X166396120Y-128689230D01*
X166369595Y-128665162D01*
X166357550Y-128651118D01*
X166357300Y-128650116D01*
X166367828Y-128631447D01*
X166395351Y-128606363D01*
X166433775Y-128579033D01*
X166477006Y-128553629D01*
X166518952Y-128534322D01*
X166533792Y-128529302D01*
X166603206Y-128516273D01*
X166685559Y-128511931D01*
X166771774Y-128515817D01*
X166771774Y-128515817D01*
G37*
X166771774Y-128515817D02*
X166852772Y-128527468D01*
X166919476Y-128546426D01*
X166926177Y-128549208D01*
X166993245Y-128589484D01*
X167048362Y-128644387D01*
X167085608Y-128707622D01*
X167091860Y-128725402D01*
X167097011Y-128757041D01*
X167101069Y-128813754D01*
X167104025Y-128895239D01*
X167105869Y-129001193D01*
X167106589Y-129131314D01*
X167106600Y-129150948D01*
X167106600Y-129527300D01*
X166903400Y-129527300D01*
X166903400Y-129440909D01*
X166865670Y-129476153D01*
X166813381Y-129509585D01*
X166744917Y-129530858D01*
X166666795Y-129539227D01*
X166585534Y-129533943D01*
X166513922Y-129516491D01*
X166429920Y-129476631D01*
X166366821Y-129422482D01*
X166324846Y-129354344D01*
X166304218Y-129272519D01*
X166301960Y-129229446D01*
X166302830Y-129222886D01*
X166491495Y-129222886D01*
X166500324Y-129261431D01*
X166502984Y-129268034D01*
X166515660Y-129296217D01*
X166524051Y-129310969D01*
X166524926Y-129311591D01*
X166538030Y-129315745D01*
X166566400Y-129325953D01*
X166579550Y-129330845D01*
X166622657Y-129340861D01*
X166678275Y-129345508D01*
X166737993Y-129345019D01*
X166793399Y-129339627D01*
X166836083Y-129329565D01*
X166849198Y-129323389D01*
X166879386Y-129290826D01*
X166897311Y-129238127D01*
X166903395Y-129164029D01*
X166903400Y-129161740D01*
X166903400Y-129092070D01*
X166747825Y-129098109D01*
X166663154Y-129103098D01*
X166600197Y-129111395D01*
X166555351Y-129124257D01*
X166525011Y-129142942D01*
X166505574Y-129168709D01*
X166498659Y-129185098D01*
X166491495Y-129222886D01*
X166302830Y-129222886D01*
X166313392Y-129143275D01*
X166347342Y-129068705D01*
X166391061Y-129016798D01*
X166424563Y-128988784D01*
X166460694Y-128967963D01*
X166504071Y-128953149D01*
X166559310Y-128943151D01*
X166631027Y-128936781D01*
X166716075Y-128933085D01*
X166903400Y-128927256D01*
X166903400Y-128858143D01*
X166900929Y-128814081D01*
X166894611Y-128777255D01*
X166889677Y-128763389D01*
X166861366Y-128735153D01*
X166815250Y-128715323D01*
X166757533Y-128704012D01*
X166694417Y-128701332D01*
X166632106Y-128707396D01*
X166576802Y-128722317D01*
X166534709Y-128746208D01*
X166524210Y-128756753D01*
X166513516Y-128765932D01*
X166499987Y-128765614D01*
X166478536Y-128753698D01*
X166444080Y-128728087D01*
X166432135Y-128718747D01*
X166396120Y-128689230D01*
X166369595Y-128665162D01*
X166357550Y-128651118D01*
X166357300Y-128650116D01*
X166367828Y-128631447D01*
X166395351Y-128606363D01*
X166433775Y-128579033D01*
X166477006Y-128553629D01*
X166518952Y-128534322D01*
X166533792Y-128529302D01*
X166603206Y-128516273D01*
X166685559Y-128511931D01*
X166771774Y-128515817D01*
G36*
X164744400Y-129527300D02*
G01*
X164541200Y-129527300D01*
X164541200Y-129424503D01*
X164492155Y-129463916D01*
X164414762Y-129510432D01*
X164328516Y-129533976D01*
X164236438Y-129534034D01*
X164168328Y-129519274D01*
X164109663Y-129491135D01*
X164052629Y-129446451D01*
X164004349Y-129392203D01*
X163971948Y-129335370D01*
X163967417Y-129322422D01*
X163960289Y-129284823D01*
X163954965Y-129228574D01*
X163951412Y-129158699D01*
X163949597Y-129080219D01*
X163949525Y-129025650D01*
X164153850Y-129025650D01*
X164154264Y-129098688D01*
X164155897Y-129151358D01*
X164159331Y-129188681D01*
X164165152Y-129215682D01*
X164173942Y-129237384D01*
X164179682Y-129247900D01*
X164220804Y-129294675D01*
X164277524Y-129325471D01*
X164343300Y-129336757D01*
X164344350Y-129336760D01*
X164390626Y-129330792D01*
X164435249Y-129316252D01*
X164438728Y-129314555D01*
X164473785Y-129291856D01*
X164499579Y-129262102D01*
X164517343Y-129221506D01*
X164528308Y-129166283D01*
X164533708Y-129092648D01*
X164534850Y-129019300D01*
X164533526Y-128934361D01*
X164528672Y-128870427D01*
X164518961Y-128823197D01*
X164503066Y-128788369D01*
X164479661Y-128761645D01*
X164448508Y-128739385D01*
X164389655Y-128716803D01*
X164326182Y-128714223D01*
X164264733Y-128730016D01*
X164211954Y-128762553D01*
X164176691Y-128806013D01*
X164167188Y-128827625D01*
X164160657Y-128854822D01*
X164156594Y-128892452D01*
X164154493Y-128945362D01*
X164153853Y-129018398D01*
X164153850Y-129025650D01*
X163949525Y-129025650D01*
X163949488Y-128998158D01*
X163951053Y-128917538D01*
X163954258Y-128843381D01*
X163959072Y-128780711D01*
X163965462Y-128734550D01*
X163971362Y-128713576D01*
X164019063Y-128636318D01*
X164081717Y-128576869D01*
X164155374Y-128536129D01*
X164236081Y-128514998D01*
X164319888Y-128514375D01*
X164402843Y-128535161D01*
X164480994Y-128578254D01*
X164500020Y-128593207D01*
X164541200Y-128627857D01*
X164541200Y-128117600D01*
X164744400Y-128117600D01*
X164744400Y-129527300D01*
X164744400Y-129527300D01*
G37*
X164744400Y-129527300D02*
X164541200Y-129527300D01*
X164541200Y-129424503D01*
X164492155Y-129463916D01*
X164414762Y-129510432D01*
X164328516Y-129533976D01*
X164236438Y-129534034D01*
X164168328Y-129519274D01*
X164109663Y-129491135D01*
X164052629Y-129446451D01*
X164004349Y-129392203D01*
X163971948Y-129335370D01*
X163967417Y-129322422D01*
X163960289Y-129284823D01*
X163954965Y-129228574D01*
X163951412Y-129158699D01*
X163949597Y-129080219D01*
X163949525Y-129025650D01*
X164153850Y-129025650D01*
X164154264Y-129098688D01*
X164155897Y-129151358D01*
X164159331Y-129188681D01*
X164165152Y-129215682D01*
X164173942Y-129237384D01*
X164179682Y-129247900D01*
X164220804Y-129294675D01*
X164277524Y-129325471D01*
X164343300Y-129336757D01*
X164344350Y-129336760D01*
X164390626Y-129330792D01*
X164435249Y-129316252D01*
X164438728Y-129314555D01*
X164473785Y-129291856D01*
X164499579Y-129262102D01*
X164517343Y-129221506D01*
X164528308Y-129166283D01*
X164533708Y-129092648D01*
X164534850Y-129019300D01*
X164533526Y-128934361D01*
X164528672Y-128870427D01*
X164518961Y-128823197D01*
X164503066Y-128788369D01*
X164479661Y-128761645D01*
X164448508Y-128739385D01*
X164389655Y-128716803D01*
X164326182Y-128714223D01*
X164264733Y-128730016D01*
X164211954Y-128762553D01*
X164176691Y-128806013D01*
X164167188Y-128827625D01*
X164160657Y-128854822D01*
X164156594Y-128892452D01*
X164154493Y-128945362D01*
X164153853Y-129018398D01*
X164153850Y-129025650D01*
X163949525Y-129025650D01*
X163949488Y-128998158D01*
X163951053Y-128917538D01*
X163954258Y-128843381D01*
X163959072Y-128780711D01*
X163965462Y-128734550D01*
X163971362Y-128713576D01*
X164019063Y-128636318D01*
X164081717Y-128576869D01*
X164155374Y-128536129D01*
X164236081Y-128514998D01*
X164319888Y-128514375D01*
X164402843Y-128535161D01*
X164480994Y-128578254D01*
X164500020Y-128593207D01*
X164541200Y-128627857D01*
X164541200Y-128117600D01*
X164744400Y-128117600D01*
X164744400Y-129527300D01*
G36*
X162711842Y-128516330D02*
G01*
X162813006Y-128535682D01*
X162895558Y-128571803D01*
X162959244Y-128624589D01*
X162998144Y-128682068D01*
X163029900Y-128744887D01*
X163029900Y-129527300D01*
X162826700Y-129527300D01*
X162826700Y-129448842D01*
X162788205Y-129481232D01*
X162731307Y-129514333D01*
X162658890Y-129534166D01*
X162577479Y-129540086D01*
X162493599Y-129531446D01*
X162436145Y-129516126D01*
X162354587Y-129476565D01*
X162293077Y-129421487D01*
X162252090Y-129351556D01*
X162232099Y-129267433D01*
X162230078Y-129228365D01*
X162230825Y-129222500D01*
X162420300Y-129222500D01*
X162432018Y-129271329D01*
X162465031Y-129309948D01*
X162516124Y-129334819D01*
X162524245Y-129336934D01*
X162586752Y-129345973D01*
X162656357Y-129347274D01*
X162719981Y-129340876D01*
X162740600Y-129336235D01*
X162781656Y-129319082D01*
X162807952Y-129291896D01*
X162822090Y-129250005D01*
X162826667Y-129188740D01*
X162826700Y-129181574D01*
X162826700Y-129095500D01*
X162709225Y-129096053D01*
X162610767Y-129099517D01*
X162535097Y-129109452D01*
X162480225Y-129126725D01*
X162444162Y-129152208D01*
X162424921Y-129186772D01*
X162420300Y-129222500D01*
X162230825Y-129222500D01*
X162241044Y-129142338D01*
X162273575Y-129068777D01*
X162326125Y-129009616D01*
X162397145Y-128966790D01*
X162454265Y-128948204D01*
X162497909Y-128941041D01*
X162558145Y-128935270D01*
X162626172Y-128931582D01*
X162678055Y-128930598D01*
X162827860Y-128930400D01*
X162824105Y-128845980D01*
X162818020Y-128790187D01*
X162802999Y-128751318D01*
X162775176Y-128726204D01*
X162730686Y-128711679D01*
X162665664Y-128704576D01*
X162650577Y-128703800D01*
X162574378Y-128704847D01*
X162513939Y-128717145D01*
X162461393Y-128742620D01*
X162444472Y-128754226D01*
X162429927Y-128759505D01*
X162410152Y-128753857D01*
X162379931Y-128735053D01*
X162352397Y-128714855D01*
X162316986Y-128686968D01*
X162291339Y-128664572D01*
X162280653Y-128652230D01*
X162280600Y-128651850D01*
X162290882Y-128633443D01*
X162317663Y-128608199D01*
X162354847Y-128580881D01*
X162396335Y-128556250D01*
X162413950Y-128547685D01*
X162465726Y-128529720D01*
X162528456Y-128518696D01*
X162592322Y-128513854D01*
X162711842Y-128516330D01*
X162711842Y-128516330D01*
G37*
X162711842Y-128516330D02*
X162813006Y-128535682D01*
X162895558Y-128571803D01*
X162959244Y-128624589D01*
X162998144Y-128682068D01*
X163029900Y-128744887D01*
X163029900Y-129527300D01*
X162826700Y-129527300D01*
X162826700Y-129448842D01*
X162788205Y-129481232D01*
X162731307Y-129514333D01*
X162658890Y-129534166D01*
X162577479Y-129540086D01*
X162493599Y-129531446D01*
X162436145Y-129516126D01*
X162354587Y-129476565D01*
X162293077Y-129421487D01*
X162252090Y-129351556D01*
X162232099Y-129267433D01*
X162230078Y-129228365D01*
X162230825Y-129222500D01*
X162420300Y-129222500D01*
X162432018Y-129271329D01*
X162465031Y-129309948D01*
X162516124Y-129334819D01*
X162524245Y-129336934D01*
X162586752Y-129345973D01*
X162656357Y-129347274D01*
X162719981Y-129340876D01*
X162740600Y-129336235D01*
X162781656Y-129319082D01*
X162807952Y-129291896D01*
X162822090Y-129250005D01*
X162826667Y-129188740D01*
X162826700Y-129181574D01*
X162826700Y-129095500D01*
X162709225Y-129096053D01*
X162610767Y-129099517D01*
X162535097Y-129109452D01*
X162480225Y-129126725D01*
X162444162Y-129152208D01*
X162424921Y-129186772D01*
X162420300Y-129222500D01*
X162230825Y-129222500D01*
X162241044Y-129142338D01*
X162273575Y-129068777D01*
X162326125Y-129009616D01*
X162397145Y-128966790D01*
X162454265Y-128948204D01*
X162497909Y-128941041D01*
X162558145Y-128935270D01*
X162626172Y-128931582D01*
X162678055Y-128930598D01*
X162827860Y-128930400D01*
X162824105Y-128845980D01*
X162818020Y-128790187D01*
X162802999Y-128751318D01*
X162775176Y-128726204D01*
X162730686Y-128711679D01*
X162665664Y-128704576D01*
X162650577Y-128703800D01*
X162574378Y-128704847D01*
X162513939Y-128717145D01*
X162461393Y-128742620D01*
X162444472Y-128754226D01*
X162429927Y-128759505D01*
X162410152Y-128753857D01*
X162379931Y-128735053D01*
X162352397Y-128714855D01*
X162316986Y-128686968D01*
X162291339Y-128664572D01*
X162280653Y-128652230D01*
X162280600Y-128651850D01*
X162290882Y-128633443D01*
X162317663Y-128608199D01*
X162354847Y-128580881D01*
X162396335Y-128556250D01*
X162413950Y-128547685D01*
X162465726Y-128529720D01*
X162528456Y-128518696D01*
X162592322Y-128513854D01*
X162711842Y-128516330D01*
D10*
X172057000Y-123599000D02*
X170883000Y-123599000D01*
X172057000Y-125321000D02*
X170883000Y-125321000D01*
X122210000Y-126425000D02*
X123460000Y-126425000D01*
X122210000Y-105985000D02*
X122210000Y-126425000D01*
X126710000Y-105985000D02*
X122210000Y-105985000D01*
X126710000Y-126425000D02*
X126710000Y-105985000D01*
X125460000Y-126425000D02*
X126710000Y-126425000D01*
X123460000Y-126425000D02*
G75*
G02X125460000Y-126425000I1000000J0D01*
G01*
X122210000Y-97850000D02*
X123460000Y-97850000D01*
X122210000Y-77410000D02*
X122210000Y-97850000D01*
X126710000Y-77410000D02*
X122210000Y-77410000D01*
X126710000Y-97850000D02*
X126710000Y-77410000D01*
X125460000Y-97850000D02*
X126710000Y-97850000D01*
X123460000Y-97850000D02*
G75*
G02X125460000Y-97850000I1000000J0D01*
G01*
X158460000Y-117856000D02*
X159350000Y-117856000D01*
X166660000Y-117856000D02*
X165770000Y-117856000D01*
X159350000Y-119166000D02*
X165770000Y-119166000D01*
X159350000Y-116546000D02*
X159350000Y-119166000D01*
X165770000Y-116546000D02*
X159350000Y-116546000D01*
X165770000Y-119166000D02*
X165770000Y-116546000D01*
X180340000Y-110780000D02*
X180340000Y-109890000D01*
X180340000Y-102580000D02*
X180340000Y-103470000D01*
X181650000Y-109890000D02*
X181650000Y-103470000D01*
X179030000Y-109890000D02*
X181650000Y-109890000D01*
X179030000Y-103470000D02*
X179030000Y-109890000D01*
X181650000Y-103470000D02*
X179030000Y-103470000D01*
X185420000Y-110780000D02*
X185420000Y-109890000D01*
X185420000Y-102580000D02*
X185420000Y-103470000D01*
X186730000Y-109890000D02*
X186730000Y-103470000D01*
X184110000Y-109890000D02*
X186730000Y-109890000D01*
X184110000Y-103470000D02*
X184110000Y-109890000D01*
X186730000Y-103470000D02*
X184110000Y-103470000D01*
X187960000Y-86650000D02*
X187960000Y-85760000D01*
X187960000Y-78450000D02*
X187960000Y-79340000D01*
X189270000Y-85760000D02*
X189270000Y-79340000D01*
X186650000Y-85760000D02*
X189270000Y-85760000D01*
X186650000Y-79340000D02*
X186650000Y-85760000D01*
X189270000Y-79340000D02*
X186650000Y-79340000D01*
X184404000Y-86650000D02*
X184404000Y-85760000D01*
X184404000Y-78450000D02*
X184404000Y-79340000D01*
X185714000Y-85760000D02*
X185714000Y-79340000D01*
X183094000Y-85760000D02*
X185714000Y-85760000D01*
X183094000Y-79340000D02*
X183094000Y-85760000D01*
X185714000Y-79340000D02*
X183094000Y-79340000D01*
X184731000Y-92630000D02*
X184731000Y-94140000D01*
X181030000Y-92630000D02*
X181030000Y-94140000D01*
X177760000Y-94140000D02*
X188000000Y-94140000D01*
X188000000Y-92630000D02*
X188000000Y-97271000D01*
X177760000Y-92630000D02*
X177760000Y-97271000D01*
X177760000Y-97271000D02*
X188000000Y-97271000D01*
X177760000Y-92630000D02*
X188000000Y-92630000D01*
X181630000Y-80285000D02*
X181630000Y-77195000D01*
X181570000Y-78740000D02*
G75*
G03X181570000Y-78740000I-2500000J0D01*
G01*
X176080000Y-78740462D02*
G75*
G02X181630000Y-77195170I2990000J462D01*
G01*
X176080000Y-78739538D02*
G75*
G03X181630000Y-80284830I2990000J-462D01*
G01*
X181630000Y-87905000D02*
X181630000Y-84815000D01*
X181570000Y-86360000D02*
G75*
G03X181570000Y-86360000I-2500000J0D01*
G01*
X176080000Y-86360462D02*
G75*
G02X181630000Y-84815170I2990000J462D01*
G01*
X176080000Y-86359538D02*
G75*
G03X181630000Y-87904830I2990000J-462D01*
G01*
D11*
X171450000Y-115570000D02*
X171450000Y-114300000D01*
X172720000Y-115570000D02*
X171450000Y-115570000D01*
X173990000Y-77470000D02*
X173990000Y-113030000D01*
X171450000Y-77470000D02*
X173990000Y-77470000D01*
X171450000Y-113030000D02*
X171450000Y-77470000D01*
X173990000Y-113030000D02*
X171450000Y-113030000D01*
X156210000Y-115570000D02*
X156210000Y-114300000D01*
X157480000Y-115570000D02*
X156210000Y-115570000D01*
X158750000Y-77470000D02*
X158750000Y-113030000D01*
X156210000Y-77470000D02*
X158750000Y-77470000D01*
X156210000Y-113030000D02*
X156210000Y-77470000D01*
X158750000Y-113030000D02*
X156210000Y-113030000D01*
X142748095Y-75652380D02*
X142748095Y-76461904D01*
X142795714Y-76557142D01*
X142843333Y-76604761D01*
X142938571Y-76652380D01*
X143129047Y-76652380D01*
X143224285Y-76604761D01*
X143271904Y-76557142D01*
X143319523Y-76461904D01*
X143319523Y-75652380D01*
X143700476Y-75652380D02*
X144319523Y-75652380D01*
X143986190Y-76033333D01*
X144129047Y-76033333D01*
X144224285Y-76080952D01*
X144271904Y-76128571D01*
X144319523Y-76223809D01*
X144319523Y-76461904D01*
X144271904Y-76557142D01*
X144224285Y-76604761D01*
X144129047Y-76652380D01*
X143843333Y-76652380D01*
X143748095Y-76604761D01*
X143700476Y-76557142D01*
D15*
X178554742Y-122732800D02*
X178583771Y-122645714D01*
X178583771Y-122500571D01*
X178554742Y-122442514D01*
X178525714Y-122413485D01*
X178467657Y-122384457D01*
X178409600Y-122384457D01*
X178351542Y-122413485D01*
X178322514Y-122442514D01*
X178293485Y-122500571D01*
X178264457Y-122616685D01*
X178235428Y-122674742D01*
X178206400Y-122703771D01*
X178148342Y-122732800D01*
X178090285Y-122732800D01*
X178032228Y-122703771D01*
X178003200Y-122674742D01*
X177974171Y-122616685D01*
X177974171Y-122471542D01*
X178003200Y-122384457D01*
X177974171Y-122181257D02*
X178583771Y-122036114D01*
X178148342Y-121920000D01*
X178583771Y-121803885D01*
X177974171Y-121658742D01*
X178583771Y-121107200D02*
X178583771Y-121455542D01*
X178583771Y-121281371D02*
X177974171Y-121281371D01*
X178061257Y-121339428D01*
X178119314Y-121397485D01*
X178148342Y-121455542D01*
X187698742Y-123777828D02*
X187727771Y-123690742D01*
X187727771Y-123545600D01*
X187698742Y-123487542D01*
X187669714Y-123458514D01*
X187611657Y-123429485D01*
X187553600Y-123429485D01*
X187495542Y-123458514D01*
X187466514Y-123487542D01*
X187437485Y-123545600D01*
X187408457Y-123661714D01*
X187379428Y-123719771D01*
X187350400Y-123748800D01*
X187292342Y-123777828D01*
X187234285Y-123777828D01*
X187176228Y-123748800D01*
X187147200Y-123719771D01*
X187118171Y-123661714D01*
X187118171Y-123516571D01*
X187147200Y-123429485D01*
X187118171Y-123226285D02*
X187727771Y-123081142D01*
X187292342Y-122965028D01*
X187727771Y-122848914D01*
X187118171Y-122703771D01*
X187785828Y-122616685D02*
X187785828Y-122152228D01*
X187727771Y-122007085D02*
X187118171Y-122007085D01*
X187118171Y-121774857D01*
X187147200Y-121716800D01*
X187176228Y-121687771D01*
X187234285Y-121658742D01*
X187321371Y-121658742D01*
X187379428Y-121687771D01*
X187408457Y-121716800D01*
X187437485Y-121774857D01*
X187437485Y-122007085D01*
X187321371Y-121136228D02*
X187727771Y-121136228D01*
X187321371Y-121397485D02*
X187640685Y-121397485D01*
X187698742Y-121368457D01*
X187727771Y-121310400D01*
X187727771Y-121223314D01*
X187698742Y-121165257D01*
X187669714Y-121136228D01*
X187698742Y-120874971D02*
X187727771Y-120816914D01*
X187727771Y-120700800D01*
X187698742Y-120642742D01*
X187640685Y-120613714D01*
X187611657Y-120613714D01*
X187553600Y-120642742D01*
X187524571Y-120700800D01*
X187524571Y-120787885D01*
X187495542Y-120845942D01*
X187437485Y-120874971D01*
X187408457Y-120874971D01*
X187350400Y-120845942D01*
X187321371Y-120787885D01*
X187321371Y-120700800D01*
X187350400Y-120642742D01*
X187727771Y-120352457D02*
X187118171Y-120352457D01*
X187727771Y-120091200D02*
X187408457Y-120091200D01*
X187350400Y-120120228D01*
X187321371Y-120178285D01*
X187321371Y-120265371D01*
X187350400Y-120323428D01*
X187379428Y-120352457D01*
D11*
X171303333Y-126927142D02*
X171255714Y-126974761D01*
X171112857Y-127022380D01*
X171017619Y-127022380D01*
X170874761Y-126974761D01*
X170779523Y-126879523D01*
X170731904Y-126784285D01*
X170684285Y-126593809D01*
X170684285Y-126450952D01*
X170731904Y-126260476D01*
X170779523Y-126165238D01*
X170874761Y-126070000D01*
X171017619Y-126022380D01*
X171112857Y-126022380D01*
X171255714Y-126070000D01*
X171303333Y-126117619D01*
X172255714Y-127022380D02*
X171684285Y-127022380D01*
X171970000Y-127022380D02*
X171970000Y-126022380D01*
X171874761Y-126165238D01*
X171779523Y-126260476D01*
X171684285Y-126308095D01*
X169946190Y-122802380D02*
X169374761Y-122802380D01*
X169660476Y-122802380D02*
X169660476Y-121802380D01*
X169565238Y-121945238D01*
X169470000Y-122040476D01*
X169374761Y-122088095D01*
X170565238Y-121802380D02*
X170660476Y-121802380D01*
X170755714Y-121850000D01*
X170803333Y-121897619D01*
X170850952Y-121992857D01*
X170898571Y-122183333D01*
X170898571Y-122421428D01*
X170850952Y-122611904D01*
X170803333Y-122707142D01*
X170755714Y-122754761D01*
X170660476Y-122802380D01*
X170565238Y-122802380D01*
X170470000Y-122754761D01*
X170422380Y-122707142D01*
X170374761Y-122611904D01*
X170327142Y-122421428D01*
X170327142Y-122183333D01*
X170374761Y-121992857D01*
X170422380Y-121897619D01*
X170470000Y-121850000D01*
X170565238Y-121802380D01*
X172089047Y-122135714D02*
X172089047Y-123135714D01*
X172565238Y-122659523D02*
X172612857Y-122754761D01*
X172708095Y-122802380D01*
X172089047Y-122659523D02*
X172136666Y-122754761D01*
X172231904Y-122802380D01*
X172422380Y-122802380D01*
X172517619Y-122754761D01*
X172565238Y-122659523D01*
X172565238Y-122135714D01*
X173470000Y-122278571D02*
X173136666Y-122278571D01*
X173136666Y-122802380D02*
X173136666Y-121802380D01*
X173612857Y-121802380D01*
X123698095Y-126877380D02*
X123698095Y-127686904D01*
X123745714Y-127782142D01*
X123793333Y-127829761D01*
X123888571Y-127877380D01*
X124079047Y-127877380D01*
X124174285Y-127829761D01*
X124221904Y-127782142D01*
X124269523Y-127686904D01*
X124269523Y-126877380D01*
X124698095Y-126972619D02*
X124745714Y-126925000D01*
X124840952Y-126877380D01*
X125079047Y-126877380D01*
X125174285Y-126925000D01*
X125221904Y-126972619D01*
X125269523Y-127067857D01*
X125269523Y-127163095D01*
X125221904Y-127305952D01*
X124650476Y-127877380D01*
X125269523Y-127877380D01*
X123912380Y-119466904D02*
X123912380Y-118800238D01*
X124912380Y-119228809D01*
X124245714Y-117990714D02*
X124912380Y-117990714D01*
X123864761Y-118228809D02*
X124579047Y-118466904D01*
X124579047Y-117847857D01*
X124912380Y-117466904D02*
X123912380Y-117466904D01*
X124388571Y-117466904D02*
X124388571Y-116895476D01*
X124912380Y-116895476D02*
X123912380Y-116895476D01*
X124817142Y-115847857D02*
X124864761Y-115895476D01*
X124912380Y-116038333D01*
X124912380Y-116133571D01*
X124864761Y-116276428D01*
X124769523Y-116371666D01*
X124674285Y-116419285D01*
X124483809Y-116466904D01*
X124340952Y-116466904D01*
X124150476Y-116419285D01*
X124055238Y-116371666D01*
X123960000Y-116276428D01*
X123912380Y-116133571D01*
X123912380Y-116038333D01*
X123960000Y-115895476D01*
X124007619Y-115847857D01*
X123912380Y-114943095D02*
X123912380Y-115419285D01*
X124388571Y-115466904D01*
X124340952Y-115419285D01*
X124293333Y-115324047D01*
X124293333Y-115085952D01*
X124340952Y-114990714D01*
X124388571Y-114943095D01*
X124483809Y-114895476D01*
X124721904Y-114895476D01*
X124817142Y-114943095D01*
X124864761Y-114990714D01*
X124912380Y-115085952D01*
X124912380Y-115324047D01*
X124864761Y-115419285D01*
X124817142Y-115466904D01*
X124912380Y-114419285D02*
X124912380Y-114228809D01*
X124864761Y-114133571D01*
X124817142Y-114085952D01*
X124674285Y-113990714D01*
X124483809Y-113943095D01*
X124102857Y-113943095D01*
X124007619Y-113990714D01*
X123960000Y-114038333D01*
X123912380Y-114133571D01*
X123912380Y-114324047D01*
X123960000Y-114419285D01*
X124007619Y-114466904D01*
X124102857Y-114514523D01*
X124340952Y-114514523D01*
X124436190Y-114466904D01*
X124483809Y-114419285D01*
X124531428Y-114324047D01*
X124531428Y-114133571D01*
X124483809Y-114038333D01*
X124436190Y-113990714D01*
X124340952Y-113943095D01*
X123912380Y-113038333D02*
X123912380Y-113514523D01*
X124388571Y-113562142D01*
X124340952Y-113514523D01*
X124293333Y-113419285D01*
X124293333Y-113181190D01*
X124340952Y-113085952D01*
X124388571Y-113038333D01*
X124483809Y-112990714D01*
X124721904Y-112990714D01*
X124817142Y-113038333D01*
X124864761Y-113085952D01*
X124912380Y-113181190D01*
X124912380Y-113419285D01*
X124864761Y-113514523D01*
X124817142Y-113562142D01*
X123698095Y-98302380D02*
X123698095Y-99111904D01*
X123745714Y-99207142D01*
X123793333Y-99254761D01*
X123888571Y-99302380D01*
X124079047Y-99302380D01*
X124174285Y-99254761D01*
X124221904Y-99207142D01*
X124269523Y-99111904D01*
X124269523Y-98302380D01*
X125269523Y-99302380D02*
X124698095Y-99302380D01*
X124983809Y-99302380D02*
X124983809Y-98302380D01*
X124888571Y-98445238D01*
X124793333Y-98540476D01*
X124698095Y-98588095D01*
X123912380Y-90891904D02*
X123912380Y-90225238D01*
X124912380Y-90653809D01*
X124245714Y-89415714D02*
X124912380Y-89415714D01*
X123864761Y-89653809D02*
X124579047Y-89891904D01*
X124579047Y-89272857D01*
X124912380Y-88891904D02*
X123912380Y-88891904D01*
X124388571Y-88891904D02*
X124388571Y-88320476D01*
X124912380Y-88320476D02*
X123912380Y-88320476D01*
X124817142Y-87272857D02*
X124864761Y-87320476D01*
X124912380Y-87463333D01*
X124912380Y-87558571D01*
X124864761Y-87701428D01*
X124769523Y-87796666D01*
X124674285Y-87844285D01*
X124483809Y-87891904D01*
X124340952Y-87891904D01*
X124150476Y-87844285D01*
X124055238Y-87796666D01*
X123960000Y-87701428D01*
X123912380Y-87558571D01*
X123912380Y-87463333D01*
X123960000Y-87320476D01*
X124007619Y-87272857D01*
X123912380Y-86368095D02*
X123912380Y-86844285D01*
X124388571Y-86891904D01*
X124340952Y-86844285D01*
X124293333Y-86749047D01*
X124293333Y-86510952D01*
X124340952Y-86415714D01*
X124388571Y-86368095D01*
X124483809Y-86320476D01*
X124721904Y-86320476D01*
X124817142Y-86368095D01*
X124864761Y-86415714D01*
X124912380Y-86510952D01*
X124912380Y-86749047D01*
X124864761Y-86844285D01*
X124817142Y-86891904D01*
X124912380Y-85844285D02*
X124912380Y-85653809D01*
X124864761Y-85558571D01*
X124817142Y-85510952D01*
X124674285Y-85415714D01*
X124483809Y-85368095D01*
X124102857Y-85368095D01*
X124007619Y-85415714D01*
X123960000Y-85463333D01*
X123912380Y-85558571D01*
X123912380Y-85749047D01*
X123960000Y-85844285D01*
X124007619Y-85891904D01*
X124102857Y-85939523D01*
X124340952Y-85939523D01*
X124436190Y-85891904D01*
X124483809Y-85844285D01*
X124531428Y-85749047D01*
X124531428Y-85558571D01*
X124483809Y-85463333D01*
X124436190Y-85415714D01*
X124340952Y-85368095D01*
X123912380Y-84463333D02*
X123912380Y-84939523D01*
X124388571Y-84987142D01*
X124340952Y-84939523D01*
X124293333Y-84844285D01*
X124293333Y-84606190D01*
X124340952Y-84510952D01*
X124388571Y-84463333D01*
X124483809Y-84415714D01*
X124721904Y-84415714D01*
X124817142Y-84463333D01*
X124864761Y-84510952D01*
X124912380Y-84606190D01*
X124912380Y-84844285D01*
X124864761Y-84939523D01*
X124817142Y-84987142D01*
X159980333Y-120975380D02*
X159647000Y-120499190D01*
X159408904Y-120975380D02*
X159408904Y-119975380D01*
X159789857Y-119975380D01*
X159885095Y-120023000D01*
X159932714Y-120070619D01*
X159980333Y-120165857D01*
X159980333Y-120308714D01*
X159932714Y-120403952D01*
X159885095Y-120451571D01*
X159789857Y-120499190D01*
X159408904Y-120499190D01*
X160885095Y-119975380D02*
X160408904Y-119975380D01*
X160361285Y-120451571D01*
X160408904Y-120403952D01*
X160504142Y-120356333D01*
X160742238Y-120356333D01*
X160837476Y-120403952D01*
X160885095Y-120451571D01*
X160932714Y-120546809D01*
X160932714Y-120784904D01*
X160885095Y-120880142D01*
X160837476Y-120927761D01*
X160742238Y-120975380D01*
X160504142Y-120975380D01*
X160408904Y-120927761D01*
X160361285Y-120880142D01*
X161393333Y-118308380D02*
X160821904Y-118308380D01*
X161107619Y-118308380D02*
X161107619Y-117308380D01*
X161012380Y-117451238D01*
X160917142Y-117546476D01*
X160821904Y-117594095D01*
X162012380Y-117308380D02*
X162107619Y-117308380D01*
X162202857Y-117356000D01*
X162250476Y-117403619D01*
X162298095Y-117498857D01*
X162345714Y-117689333D01*
X162345714Y-117927428D01*
X162298095Y-118117904D01*
X162250476Y-118213142D01*
X162202857Y-118260761D01*
X162107619Y-118308380D01*
X162012380Y-118308380D01*
X161917142Y-118260761D01*
X161869523Y-118213142D01*
X161821904Y-118117904D01*
X161774285Y-117927428D01*
X161774285Y-117689333D01*
X161821904Y-117498857D01*
X161869523Y-117403619D01*
X161917142Y-117356000D01*
X162012380Y-117308380D01*
X162774285Y-118308380D02*
X162774285Y-117308380D01*
X162869523Y-117927428D02*
X163155238Y-118308380D01*
X163155238Y-117641714D02*
X162774285Y-118022666D01*
X163536190Y-118308380D02*
X163774285Y-118308380D01*
X163774285Y-118117904D01*
X163679047Y-118070285D01*
X163583809Y-117975047D01*
X163536190Y-117832190D01*
X163536190Y-117594095D01*
X163583809Y-117451238D01*
X163679047Y-117356000D01*
X163821904Y-117308380D01*
X164012380Y-117308380D01*
X164155238Y-117356000D01*
X164250476Y-117451238D01*
X164298095Y-117594095D01*
X164298095Y-117832190D01*
X164250476Y-117975047D01*
X164155238Y-118070285D01*
X164060000Y-118117904D01*
X164060000Y-118308380D01*
X164298095Y-118308380D01*
X183102380Y-106846666D02*
X182626190Y-107180000D01*
X183102380Y-107418095D02*
X182102380Y-107418095D01*
X182102380Y-107037142D01*
X182150000Y-106941904D01*
X182197619Y-106894285D01*
X182292857Y-106846666D01*
X182435714Y-106846666D01*
X182530952Y-106894285D01*
X182578571Y-106941904D01*
X182626190Y-107037142D01*
X182626190Y-107418095D01*
X182435714Y-105989523D02*
X183102380Y-105989523D01*
X182054761Y-106227619D02*
X182769047Y-106465714D01*
X182769047Y-105846666D01*
X180792380Y-107918095D02*
X180792380Y-108489523D01*
X180792380Y-108203809D02*
X179792380Y-108203809D01*
X179935238Y-108299047D01*
X180030476Y-108394285D01*
X180078095Y-108489523D01*
X179792380Y-107299047D02*
X179792380Y-107203809D01*
X179840000Y-107108571D01*
X179887619Y-107060952D01*
X179982857Y-107013333D01*
X180173333Y-106965714D01*
X180411428Y-106965714D01*
X180601904Y-107013333D01*
X180697142Y-107060952D01*
X180744761Y-107108571D01*
X180792380Y-107203809D01*
X180792380Y-107299047D01*
X180744761Y-107394285D01*
X180697142Y-107441904D01*
X180601904Y-107489523D01*
X180411428Y-107537142D01*
X180173333Y-107537142D01*
X179982857Y-107489523D01*
X179887619Y-107441904D01*
X179840000Y-107394285D01*
X179792380Y-107299047D01*
X179792380Y-106346666D02*
X179792380Y-106251428D01*
X179840000Y-106156190D01*
X179887619Y-106108571D01*
X179982857Y-106060952D01*
X180173333Y-106013333D01*
X180411428Y-106013333D01*
X180601904Y-106060952D01*
X180697142Y-106108571D01*
X180744761Y-106156190D01*
X180792380Y-106251428D01*
X180792380Y-106346666D01*
X180744761Y-106441904D01*
X180697142Y-106489523D01*
X180601904Y-106537142D01*
X180411428Y-106584761D01*
X180173333Y-106584761D01*
X179982857Y-106537142D01*
X179887619Y-106489523D01*
X179840000Y-106441904D01*
X179792380Y-106346666D01*
X180792380Y-105632380D02*
X180792380Y-105394285D01*
X180601904Y-105394285D01*
X180554285Y-105489523D01*
X180459047Y-105584761D01*
X180316190Y-105632380D01*
X180078095Y-105632380D01*
X179935238Y-105584761D01*
X179840000Y-105489523D01*
X179792380Y-105346666D01*
X179792380Y-105156190D01*
X179840000Y-105013333D01*
X179935238Y-104918095D01*
X180078095Y-104870476D01*
X180316190Y-104870476D01*
X180459047Y-104918095D01*
X180554285Y-105013333D01*
X180601904Y-105108571D01*
X180792380Y-105108571D01*
X180792380Y-104870476D01*
X188182380Y-106846666D02*
X187706190Y-107180000D01*
X188182380Y-107418095D02*
X187182380Y-107418095D01*
X187182380Y-107037142D01*
X187230000Y-106941904D01*
X187277619Y-106894285D01*
X187372857Y-106846666D01*
X187515714Y-106846666D01*
X187610952Y-106894285D01*
X187658571Y-106941904D01*
X187706190Y-107037142D01*
X187706190Y-107418095D01*
X187182380Y-106513333D02*
X187182380Y-105894285D01*
X187563333Y-106227619D01*
X187563333Y-106084761D01*
X187610952Y-105989523D01*
X187658571Y-105941904D01*
X187753809Y-105894285D01*
X187991904Y-105894285D01*
X188087142Y-105941904D01*
X188134761Y-105989523D01*
X188182380Y-106084761D01*
X188182380Y-106370476D01*
X188134761Y-106465714D01*
X188087142Y-106513333D01*
X185872380Y-107846666D02*
X185872380Y-108418095D01*
X185872380Y-108132380D02*
X184872380Y-108132380D01*
X185015238Y-108227619D01*
X185110476Y-108322857D01*
X185158095Y-108418095D01*
X184872380Y-107227619D02*
X184872380Y-107132380D01*
X184920000Y-107037142D01*
X184967619Y-106989523D01*
X185062857Y-106941904D01*
X185253333Y-106894285D01*
X185491428Y-106894285D01*
X185681904Y-106941904D01*
X185777142Y-106989523D01*
X185824761Y-107037142D01*
X185872380Y-107132380D01*
X185872380Y-107227619D01*
X185824761Y-107322857D01*
X185777142Y-107370476D01*
X185681904Y-107418095D01*
X185491428Y-107465714D01*
X185253333Y-107465714D01*
X185062857Y-107418095D01*
X184967619Y-107370476D01*
X184920000Y-107322857D01*
X184872380Y-107227619D01*
X185872380Y-106465714D02*
X184872380Y-106465714D01*
X185491428Y-106370476D02*
X185872380Y-106084761D01*
X185205714Y-106084761D02*
X185586666Y-106465714D01*
X185872380Y-105703809D02*
X185872380Y-105465714D01*
X185681904Y-105465714D01*
X185634285Y-105560952D01*
X185539047Y-105656190D01*
X185396190Y-105703809D01*
X185158095Y-105703809D01*
X185015238Y-105656190D01*
X184920000Y-105560952D01*
X184872380Y-105418095D01*
X184872380Y-105227619D01*
X184920000Y-105084761D01*
X185015238Y-104989523D01*
X185158095Y-104941904D01*
X185396190Y-104941904D01*
X185539047Y-104989523D01*
X185634285Y-105084761D01*
X185681904Y-105180000D01*
X185872380Y-105180000D01*
X185872380Y-104941904D01*
X188412380Y-90082666D02*
X187936190Y-90416000D01*
X188412380Y-90654095D02*
X187412380Y-90654095D01*
X187412380Y-90273142D01*
X187460000Y-90177904D01*
X187507619Y-90130285D01*
X187602857Y-90082666D01*
X187745714Y-90082666D01*
X187840952Y-90130285D01*
X187888571Y-90177904D01*
X187936190Y-90273142D01*
X187936190Y-90654095D01*
X187507619Y-89701714D02*
X187460000Y-89654095D01*
X187412380Y-89558857D01*
X187412380Y-89320761D01*
X187460000Y-89225523D01*
X187507619Y-89177904D01*
X187602857Y-89130285D01*
X187698095Y-89130285D01*
X187840952Y-89177904D01*
X188412380Y-89749333D01*
X188412380Y-89130285D01*
X187412380Y-84407142D02*
X187412380Y-83788095D01*
X187793333Y-84121428D01*
X187793333Y-83978571D01*
X187840952Y-83883333D01*
X187888571Y-83835714D01*
X187983809Y-83788095D01*
X188221904Y-83788095D01*
X188317142Y-83835714D01*
X188364761Y-83883333D01*
X188412380Y-83978571D01*
X188412380Y-84264285D01*
X188364761Y-84359523D01*
X188317142Y-84407142D01*
X187412380Y-83454761D02*
X187412380Y-82835714D01*
X187793333Y-83169047D01*
X187793333Y-83026190D01*
X187840952Y-82930952D01*
X187888571Y-82883333D01*
X187983809Y-82835714D01*
X188221904Y-82835714D01*
X188317142Y-82883333D01*
X188364761Y-82930952D01*
X188412380Y-83026190D01*
X188412380Y-83311904D01*
X188364761Y-83407142D01*
X188317142Y-83454761D01*
X187412380Y-82216666D02*
X187412380Y-82121428D01*
X187460000Y-82026190D01*
X187507619Y-81978571D01*
X187602857Y-81930952D01*
X187793333Y-81883333D01*
X188031428Y-81883333D01*
X188221904Y-81930952D01*
X188317142Y-81978571D01*
X188364761Y-82026190D01*
X188412380Y-82121428D01*
X188412380Y-82216666D01*
X188364761Y-82311904D01*
X188317142Y-82359523D01*
X188221904Y-82407142D01*
X188031428Y-82454761D01*
X187793333Y-82454761D01*
X187602857Y-82407142D01*
X187507619Y-82359523D01*
X187460000Y-82311904D01*
X187412380Y-82216666D01*
X188412380Y-81502380D02*
X188412380Y-81264285D01*
X188221904Y-81264285D01*
X188174285Y-81359523D01*
X188079047Y-81454761D01*
X187936190Y-81502380D01*
X187698095Y-81502380D01*
X187555238Y-81454761D01*
X187460000Y-81359523D01*
X187412380Y-81216666D01*
X187412380Y-81026190D01*
X187460000Y-80883333D01*
X187555238Y-80788095D01*
X187698095Y-80740476D01*
X187936190Y-80740476D01*
X188079047Y-80788095D01*
X188174285Y-80883333D01*
X188221904Y-80978571D01*
X188412380Y-80978571D01*
X188412380Y-80740476D01*
X184856380Y-90082666D02*
X184380190Y-90416000D01*
X184856380Y-90654095D02*
X183856380Y-90654095D01*
X183856380Y-90273142D01*
X183904000Y-90177904D01*
X183951619Y-90130285D01*
X184046857Y-90082666D01*
X184189714Y-90082666D01*
X184284952Y-90130285D01*
X184332571Y-90177904D01*
X184380190Y-90273142D01*
X184380190Y-90654095D01*
X184856380Y-89130285D02*
X184856380Y-89701714D01*
X184856380Y-89416000D02*
X183856380Y-89416000D01*
X183999238Y-89511238D01*
X184094476Y-89606476D01*
X184142095Y-89701714D01*
X183856380Y-84407142D02*
X183856380Y-83788095D01*
X184237333Y-84121428D01*
X184237333Y-83978571D01*
X184284952Y-83883333D01*
X184332571Y-83835714D01*
X184427809Y-83788095D01*
X184665904Y-83788095D01*
X184761142Y-83835714D01*
X184808761Y-83883333D01*
X184856380Y-83978571D01*
X184856380Y-84264285D01*
X184808761Y-84359523D01*
X184761142Y-84407142D01*
X183856380Y-83454761D02*
X183856380Y-82835714D01*
X184237333Y-83169047D01*
X184237333Y-83026190D01*
X184284952Y-82930952D01*
X184332571Y-82883333D01*
X184427809Y-82835714D01*
X184665904Y-82835714D01*
X184761142Y-82883333D01*
X184808761Y-82930952D01*
X184856380Y-83026190D01*
X184856380Y-83311904D01*
X184808761Y-83407142D01*
X184761142Y-83454761D01*
X183856380Y-82216666D02*
X183856380Y-82121428D01*
X183904000Y-82026190D01*
X183951619Y-81978571D01*
X184046857Y-81930952D01*
X184237333Y-81883333D01*
X184475428Y-81883333D01*
X184665904Y-81930952D01*
X184761142Y-81978571D01*
X184808761Y-82026190D01*
X184856380Y-82121428D01*
X184856380Y-82216666D01*
X184808761Y-82311904D01*
X184761142Y-82359523D01*
X184665904Y-82407142D01*
X184475428Y-82454761D01*
X184237333Y-82454761D01*
X184046857Y-82407142D01*
X183951619Y-82359523D01*
X183904000Y-82311904D01*
X183856380Y-82216666D01*
X184856380Y-81502380D02*
X184856380Y-81264285D01*
X184665904Y-81264285D01*
X184618285Y-81359523D01*
X184523047Y-81454761D01*
X184380190Y-81502380D01*
X184142095Y-81502380D01*
X183999238Y-81454761D01*
X183904000Y-81359523D01*
X183856380Y-81216666D01*
X183856380Y-81026190D01*
X183904000Y-80883333D01*
X183999238Y-80788095D01*
X184142095Y-80740476D01*
X184380190Y-80740476D01*
X184523047Y-80788095D01*
X184618285Y-80883333D01*
X184665904Y-80978571D01*
X184856380Y-80978571D01*
X184856380Y-80740476D01*
X189523619Y-95091238D02*
X189476000Y-95186476D01*
X189380761Y-95281714D01*
X189237904Y-95424571D01*
X189190285Y-95519809D01*
X189190285Y-95615047D01*
X189428380Y-95567428D02*
X189380761Y-95662666D01*
X189285523Y-95757904D01*
X189095047Y-95805523D01*
X188761714Y-95805523D01*
X188571238Y-95757904D01*
X188476000Y-95662666D01*
X188428380Y-95567428D01*
X188428380Y-95376952D01*
X188476000Y-95281714D01*
X188571238Y-95186476D01*
X188761714Y-95138857D01*
X189095047Y-95138857D01*
X189285523Y-95186476D01*
X189380761Y-95281714D01*
X189428380Y-95376952D01*
X189428380Y-95567428D01*
X189428380Y-94186476D02*
X189428380Y-94757904D01*
X189428380Y-94472190D02*
X188428380Y-94472190D01*
X188571238Y-94567428D01*
X188666476Y-94662666D01*
X188714095Y-94757904D01*
X176982380Y-97853142D02*
X175982380Y-97853142D01*
X176982380Y-96805523D02*
X176506190Y-97138857D01*
X176982380Y-97376952D02*
X175982380Y-97376952D01*
X175982380Y-96996000D01*
X176030000Y-96900761D01*
X176077619Y-96853142D01*
X176172857Y-96805523D01*
X176315714Y-96805523D01*
X176410952Y-96853142D01*
X176458571Y-96900761D01*
X176506190Y-96996000D01*
X176506190Y-97376952D01*
X176982380Y-95900761D02*
X176982380Y-96376952D01*
X175982380Y-96376952D01*
X175982380Y-95091238D02*
X175982380Y-95567428D01*
X176458571Y-95615047D01*
X176410952Y-95567428D01*
X176363333Y-95472190D01*
X176363333Y-95234095D01*
X176410952Y-95138857D01*
X176458571Y-95091238D01*
X176553809Y-95043619D01*
X176791904Y-95043619D01*
X176887142Y-95091238D01*
X176934761Y-95138857D01*
X176982380Y-95234095D01*
X176982380Y-95472190D01*
X176934761Y-95567428D01*
X176887142Y-95615047D01*
X176077619Y-94662666D02*
X176030000Y-94615047D01*
X175982380Y-94519809D01*
X175982380Y-94281714D01*
X176030000Y-94186476D01*
X176077619Y-94138857D01*
X176172857Y-94091238D01*
X176268095Y-94091238D01*
X176410952Y-94138857D01*
X176982380Y-94710285D01*
X176982380Y-94091238D01*
X175982380Y-93472190D02*
X175982380Y-93376952D01*
X176030000Y-93281714D01*
X176077619Y-93234095D01*
X176172857Y-93186476D01*
X176363333Y-93138857D01*
X176601428Y-93138857D01*
X176791904Y-93186476D01*
X176887142Y-93234095D01*
X176934761Y-93281714D01*
X176982380Y-93376952D01*
X176982380Y-93472190D01*
X176934761Y-93567428D01*
X176887142Y-93615047D01*
X176791904Y-93662666D01*
X176601428Y-93710285D01*
X176363333Y-93710285D01*
X176172857Y-93662666D01*
X176077619Y-93615047D01*
X176030000Y-93567428D01*
X175982380Y-93472190D01*
X176982380Y-92710285D02*
X175982380Y-92710285D01*
X176982380Y-92138857D01*
X175982380Y-92138857D01*
X175712380Y-79478095D02*
X174712380Y-79478095D01*
X174712380Y-79240000D01*
X174760000Y-79097142D01*
X174855238Y-79001904D01*
X174950476Y-78954285D01*
X175140952Y-78906666D01*
X175283809Y-78906666D01*
X175474285Y-78954285D01*
X175569523Y-79001904D01*
X175664761Y-79097142D01*
X175712380Y-79240000D01*
X175712380Y-79478095D01*
X174807619Y-78525714D02*
X174760000Y-78478095D01*
X174712380Y-78382857D01*
X174712380Y-78144761D01*
X174760000Y-78049523D01*
X174807619Y-78001904D01*
X174902857Y-77954285D01*
X174998095Y-77954285D01*
X175140952Y-78001904D01*
X175712380Y-78573333D01*
X175712380Y-77954285D01*
X181872000Y-80097142D02*
X181824380Y-80192380D01*
X181824380Y-80335238D01*
X181872000Y-80478095D01*
X181967238Y-80573333D01*
X182062476Y-80620952D01*
X182252952Y-80668571D01*
X182395809Y-80668571D01*
X182586285Y-80620952D01*
X182681523Y-80573333D01*
X182776761Y-80478095D01*
X182824380Y-80335238D01*
X182824380Y-80240000D01*
X182776761Y-80097142D01*
X182729142Y-80049523D01*
X182395809Y-80049523D01*
X182395809Y-80240000D01*
X182824380Y-79620952D02*
X182157714Y-79620952D01*
X182348190Y-79620952D02*
X182252952Y-79573333D01*
X182205333Y-79525714D01*
X182157714Y-79430476D01*
X182157714Y-79335238D01*
X182776761Y-78620952D02*
X182824380Y-78716190D01*
X182824380Y-78906666D01*
X182776761Y-79001904D01*
X182681523Y-79049523D01*
X182300571Y-79049523D01*
X182205333Y-79001904D01*
X182157714Y-78906666D01*
X182157714Y-78716190D01*
X182205333Y-78620952D01*
X182300571Y-78573333D01*
X182395809Y-78573333D01*
X182491047Y-79049523D01*
X182776761Y-77763809D02*
X182824380Y-77859047D01*
X182824380Y-78049523D01*
X182776761Y-78144761D01*
X182681523Y-78192380D01*
X182300571Y-78192380D01*
X182205333Y-78144761D01*
X182157714Y-78049523D01*
X182157714Y-77859047D01*
X182205333Y-77763809D01*
X182300571Y-77716190D01*
X182395809Y-77716190D01*
X182491047Y-78192380D01*
X182157714Y-77287619D02*
X182824380Y-77287619D01*
X182252952Y-77287619D02*
X182205333Y-77240000D01*
X182157714Y-77144761D01*
X182157714Y-77001904D01*
X182205333Y-76906666D01*
X182300571Y-76859047D01*
X182824380Y-76859047D01*
X175712380Y-87098095D02*
X174712380Y-87098095D01*
X174712380Y-86860000D01*
X174760000Y-86717142D01*
X174855238Y-86621904D01*
X174950476Y-86574285D01*
X175140952Y-86526666D01*
X175283809Y-86526666D01*
X175474285Y-86574285D01*
X175569523Y-86621904D01*
X175664761Y-86717142D01*
X175712380Y-86860000D01*
X175712380Y-87098095D01*
X175712380Y-85574285D02*
X175712380Y-86145714D01*
X175712380Y-85860000D02*
X174712380Y-85860000D01*
X174855238Y-85955238D01*
X174950476Y-86050476D01*
X174998095Y-86145714D01*
X182824380Y-86931428D02*
X182348190Y-87264761D01*
X182824380Y-87502857D02*
X181824380Y-87502857D01*
X181824380Y-87121904D01*
X181872000Y-87026666D01*
X181919619Y-86979047D01*
X182014857Y-86931428D01*
X182157714Y-86931428D01*
X182252952Y-86979047D01*
X182300571Y-87026666D01*
X182348190Y-87121904D01*
X182348190Y-87502857D01*
X182776761Y-86121904D02*
X182824380Y-86217142D01*
X182824380Y-86407619D01*
X182776761Y-86502857D01*
X182681523Y-86550476D01*
X182300571Y-86550476D01*
X182205333Y-86502857D01*
X182157714Y-86407619D01*
X182157714Y-86217142D01*
X182205333Y-86121904D01*
X182300571Y-86074285D01*
X182395809Y-86074285D01*
X182491047Y-86550476D01*
X182824380Y-85217142D02*
X181824380Y-85217142D01*
X182776761Y-85217142D02*
X182824380Y-85312380D01*
X182824380Y-85502857D01*
X182776761Y-85598095D01*
X182729142Y-85645714D01*
X182633904Y-85693333D01*
X182348190Y-85693333D01*
X182252952Y-85645714D01*
X182205333Y-85598095D01*
X182157714Y-85502857D01*
X182157714Y-85312380D01*
X182205333Y-85217142D01*
X164385714Y-114466666D02*
X164861904Y-114466666D01*
X164290476Y-114752380D02*
X164623809Y-113752380D01*
X164957142Y-114752380D01*
X165814285Y-114752380D02*
X165242857Y-114752380D01*
X165528571Y-114752380D02*
X165528571Y-113752380D01*
X165433333Y-113895238D01*
X165338095Y-113990476D01*
X165242857Y-114038095D01*
X158290476Y-76112666D02*
X158766666Y-76112666D01*
X158195238Y-76398380D02*
X158528571Y-75398380D01*
X158861904Y-76398380D01*
X159195238Y-76398380D02*
X159195238Y-75731714D01*
X159195238Y-75922190D02*
X159242857Y-75826952D01*
X159290476Y-75779333D01*
X159385714Y-75731714D01*
X159480952Y-75731714D01*
X160242857Y-76398380D02*
X160242857Y-75398380D01*
X160242857Y-76350761D02*
X160147619Y-76398380D01*
X159957142Y-76398380D01*
X159861904Y-76350761D01*
X159814285Y-76303142D01*
X159766666Y-76207904D01*
X159766666Y-75922190D01*
X159814285Y-75826952D01*
X159861904Y-75779333D01*
X159957142Y-75731714D01*
X160147619Y-75731714D01*
X160242857Y-75779333D01*
X161147619Y-75731714D02*
X161147619Y-76398380D01*
X160719047Y-75731714D02*
X160719047Y-76255523D01*
X160766666Y-76350761D01*
X160861904Y-76398380D01*
X161004761Y-76398380D01*
X161100000Y-76350761D01*
X161147619Y-76303142D01*
X161623809Y-76398380D02*
X161623809Y-75731714D01*
X161623809Y-75398380D02*
X161576190Y-75446000D01*
X161623809Y-75493619D01*
X161671428Y-75446000D01*
X161623809Y-75398380D01*
X161623809Y-75493619D01*
X162100000Y-75731714D02*
X162100000Y-76398380D01*
X162100000Y-75826952D02*
X162147619Y-75779333D01*
X162242857Y-75731714D01*
X162385714Y-75731714D01*
X162480952Y-75779333D01*
X162528571Y-75874571D01*
X162528571Y-76398380D01*
X163147619Y-76398380D02*
X163052380Y-76350761D01*
X163004761Y-76303142D01*
X162957142Y-76207904D01*
X162957142Y-75922190D01*
X163004761Y-75826952D01*
X163052380Y-75779333D01*
X163147619Y-75731714D01*
X163290476Y-75731714D01*
X163385714Y-75779333D01*
X163433333Y-75826952D01*
X163480952Y-75922190D01*
X163480952Y-76207904D01*
X163433333Y-76303142D01*
X163385714Y-76350761D01*
X163290476Y-76398380D01*
X163147619Y-76398380D01*
X164671428Y-76398380D02*
X164671428Y-75398380D01*
X165242857Y-76398380D01*
X165242857Y-75398380D01*
X166147619Y-76398380D02*
X166147619Y-75874571D01*
X166100000Y-75779333D01*
X166004761Y-75731714D01*
X165814285Y-75731714D01*
X165719047Y-75779333D01*
X166147619Y-76350761D02*
X166052380Y-76398380D01*
X165814285Y-76398380D01*
X165719047Y-76350761D01*
X165671428Y-76255523D01*
X165671428Y-76160285D01*
X165719047Y-76065047D01*
X165814285Y-76017428D01*
X166052380Y-76017428D01*
X166147619Y-75969809D01*
X166623809Y-75731714D02*
X166623809Y-76398380D01*
X166623809Y-75826952D02*
X166671428Y-75779333D01*
X166766666Y-75731714D01*
X166909523Y-75731714D01*
X167004761Y-75779333D01*
X167052380Y-75874571D01*
X167052380Y-76398380D01*
X167671428Y-76398380D02*
X167576190Y-76350761D01*
X167528571Y-76303142D01*
X167480952Y-76207904D01*
X167480952Y-75922190D01*
X167528571Y-75826952D01*
X167576190Y-75779333D01*
X167671428Y-75731714D01*
X167814285Y-75731714D01*
X167909523Y-75779333D01*
X167957142Y-75826952D01*
X168004761Y-75922190D01*
X168004761Y-76207904D01*
X167957142Y-76303142D01*
X167909523Y-76350761D01*
X167814285Y-76398380D01*
X167671428Y-76398380D01*
X169100000Y-75731714D02*
X169338095Y-76398380D01*
X169576190Y-75731714D01*
X169861904Y-75398380D02*
X170480952Y-75398380D01*
X170147619Y-75779333D01*
X170290476Y-75779333D01*
X170385714Y-75826952D01*
X170433333Y-75874571D01*
X170480952Y-75969809D01*
X170480952Y-76207904D01*
X170433333Y-76303142D01*
X170385714Y-76350761D01*
X170290476Y-76398380D01*
X170004761Y-76398380D01*
X169909523Y-76350761D01*
X169861904Y-76303142D01*
X170909523Y-76303142D02*
X170957142Y-76350761D01*
X170909523Y-76398380D01*
X170861904Y-76350761D01*
X170909523Y-76303142D01*
X170909523Y-76398380D01*
X171576190Y-75398380D02*
X171671428Y-75398380D01*
X171766666Y-75446000D01*
X171814285Y-75493619D01*
X171861904Y-75588857D01*
X171909523Y-75779333D01*
X171909523Y-76017428D01*
X171861904Y-76207904D01*
X171814285Y-76303142D01*
X171766666Y-76350761D01*
X171671428Y-76398380D01*
X171576190Y-76398380D01*
X171480952Y-76350761D01*
X171433333Y-76303142D01*
X171385714Y-76207904D01*
X171338095Y-76017428D01*
X171338095Y-75779333D01*
X171385714Y-75588857D01*
X171433333Y-75493619D01*
X171480952Y-75446000D01*
X171576190Y-75398380D01*
M02*
