M48
; DRILL file {KiCad (5.1.0)-1} date 4/17/2019 12:58:56 PM
; FORMAT={-:-/ absolute / inch / decimal}
; #@! TF.CreationDate,2019-04-17T12:58:56-04:00
; #@! TF.GenerationSoftware,Kicad,Pcbnew,(5.1.0)-1
; #@! TF.FileFunction,Plated,1,2,PTH
FMAT,2
INCH
T1C0.0157
T2C0.0315
T3C0.0354
T4C0.0394
T5C0.0472
%
G90
G05
T1
X4.85Y-3.35
X4.85Y-4.1
X4.85Y-4.45
X4.9Y-4.45
X4.95Y-3.1
X4.95Y-3.2
X4.95Y-3.4
X4.95Y-4.1
X4.95Y-4.55
X5.2Y-3.2
X5.25Y-3.25
X5.6Y-3.8
X6.0423Y-3.9923
X6.15Y-4.85
X6.35Y-4.3
X6.5Y-4.85
T2
X6.7016Y-4.9
X6.8Y-4.9
X7.25Y-3.05
X7.25Y-3.45
X7.3Y-4.0
X7.3Y-4.4
X4.75Y-4.25
X4.75Y-4.35
X4.75Y-4.45
X4.75Y-4.55
X4.75Y-4.65
X4.75Y-4.75
X4.75Y-4.85
X4.75Y-4.95
X5.05Y-4.25
X5.05Y-4.35
X5.05Y-4.45
X5.05Y-4.55
X5.05Y-4.65
X5.05Y-4.75
X5.05Y-4.85
X5.05Y-4.95
X7.4Y-3.05
X7.4Y-3.45
X4.75Y-3.1
X4.75Y-3.2
X4.75Y-3.3
X4.75Y-3.4
X4.75Y-3.5
X4.75Y-3.6
X4.75Y-3.7
X4.75Y-3.8
X5.05Y-3.1
X5.05Y-3.2
X5.05Y-3.3
X5.05Y-3.4
X5.05Y-3.5
X5.05Y-3.6
X5.05Y-3.7
X5.05Y-3.8
X6.2Y-4.65
X6.6Y-4.65
X7.1Y-4.0
X7.1Y-4.4
T3
X7.0Y-3.4
X7.1Y-3.4
X7.0Y-3.1
X7.1Y-3.1
T4
X5.35Y-3.45
X5.35Y-3.55
X5.35Y-3.65
X5.35Y-3.75
X5.35Y-3.85
X5.35Y-3.95
X5.35Y-4.05
X5.35Y-4.15
X5.35Y-4.25
X5.35Y-4.35
X5.35Y-4.45
X5.35Y-4.55
X5.35Y-4.65
X5.35Y-4.75
X5.45Y-3.45
X5.45Y-3.55
X5.45Y-3.65
X5.45Y-3.75
X5.45Y-3.85
X5.45Y-3.95
X5.45Y-4.05
X5.45Y-4.15
X5.45Y-4.25
X5.45Y-4.35
X5.45Y-4.45
X5.45Y-4.55
X5.45Y-4.65
X5.45Y-4.75
X5.75Y-3.45
X5.75Y-3.45
X5.75Y-3.45
X5.75Y-3.45
X5.75Y-3.55
X5.75Y-3.55
X5.75Y-3.55
X5.75Y-3.55
X5.75Y-3.65
X5.75Y-3.65
X5.75Y-3.65
X5.75Y-3.65
X5.75Y-3.75
X5.75Y-3.75
X5.75Y-3.75
X5.75Y-3.75
X5.75Y-3.85
X5.75Y-3.85
X5.75Y-3.85
X5.75Y-3.85
X5.75Y-3.95
X5.75Y-3.95
X5.75Y-3.95
X5.75Y-3.95
X5.75Y-4.05
X5.75Y-4.05
X5.75Y-4.05
X5.75Y-4.05
X5.75Y-4.15
X5.75Y-4.15
X5.75Y-4.15
X5.75Y-4.15
X5.75Y-4.25
X5.75Y-4.25
X5.75Y-4.25
X5.75Y-4.25
X5.75Y-4.35
X5.75Y-4.35
X5.75Y-4.35
X5.75Y-4.35
X5.75Y-4.45
X5.75Y-4.45
X5.75Y-4.45
X5.75Y-4.45
X5.75Y-4.55
X5.75Y-4.55
X5.75Y-4.55
X5.75Y-4.55
X5.75Y-4.65
X5.75Y-4.65
X5.75Y-4.65
X5.75Y-4.65
X5.75Y-4.75
X5.75Y-4.75
X5.75Y-4.75
X5.75Y-4.75
X5.95Y-3.45
X5.95Y-3.45
X5.95Y-3.45
X5.95Y-3.45
X5.95Y-3.55
X5.95Y-3.55
X5.95Y-3.55
X5.95Y-3.55
X5.95Y-3.65
X5.95Y-3.65
X5.95Y-3.65
X5.95Y-3.65
X5.95Y-3.75
X5.95Y-3.75
X5.95Y-3.75
X5.95Y-3.75
X5.95Y-3.85
X5.95Y-3.85
X5.95Y-3.85
X5.95Y-3.85
X5.95Y-3.95
X5.95Y-3.95
X5.95Y-3.95
X5.95Y-3.95
X5.95Y-4.05
X5.95Y-4.05
X5.95Y-4.05
X5.95Y-4.05
X5.95Y-4.15
X5.95Y-4.15
X5.95Y-4.15
X5.95Y-4.15
X5.95Y-4.25
X5.95Y-4.25
X5.95Y-4.25
X5.95Y-4.25
X5.95Y-4.35
X5.95Y-4.35
X5.95Y-4.35
X5.95Y-4.35
X5.95Y-4.45
X5.95Y-4.45
X5.95Y-4.45
X5.95Y-4.45
X5.95Y-4.55
X5.95Y-4.55
X5.95Y-4.55
X5.95Y-4.55
X5.95Y-4.65
X5.95Y-4.65
X5.95Y-4.65
X5.95Y-4.65
X5.95Y-4.75
X5.95Y-4.75
X5.95Y-4.75
X5.95Y-4.75
X6.2Y-3.1
X6.2Y-3.2
X6.2Y-3.3
X6.2Y-3.4
X6.2Y-3.5
X6.2Y-3.6
X6.2Y-3.7
X6.2Y-3.8
X6.2Y-3.9
X6.2Y-4.0
X6.2Y-4.1
X6.2Y-4.2
X6.2Y-4.3
X6.2Y-4.4
X6.2Y-4.5
X6.8Y-3.1
X6.8Y-3.2
X6.8Y-3.3
X6.8Y-3.4
X6.8Y-3.5
X6.8Y-3.6
X6.8Y-3.7
X6.8Y-3.8
X6.8Y-3.9
X6.8Y-4.0
X6.8Y-4.1
X6.8Y-4.2
X6.8Y-4.3
X6.8Y-4.4
X6.8Y-4.5
X7.1Y-3.75
X7.2Y-3.75
X7.3Y-3.75
T5
X7.1016Y-4.554
X7.1016Y-5.046
X7.2984Y-4.554
X7.2984Y-5.046
T0
M30
