G04 #@! TF.GenerationSoftware,KiCad,Pcbnew,(5.1.0)-1*
G04 #@! TF.CreationDate,2019-04-18T19:04:37-04:00*
G04 #@! TF.ProjectId,f-ramune_arduino,662d7261-6d75-46e6-955f-61726475696e,rev?*
G04 #@! TF.SameCoordinates,Original*
G04 #@! TF.FileFunction,Legend,Top*
G04 #@! TF.FilePolarity,Positive*
%FSLAX46Y46*%
G04 Gerber Fmt 4.6, Leading zero omitted, Abs format (unit mm)*
G04 Created by KiCad (PCBNEW (5.1.0)-1) date 2019-04-18 19:04:37*
%MOMM*%
%LPD*%
G04 APERTURE LIST*
%ADD10C,0.120000*%
%ADD11C,0.150000*%
%ADD12C,0.203200*%
%ADD13C,0.698500*%
%ADD14C,0.127000*%
G04 APERTURE END LIST*
D10*
X166497000Y-80899000D02*
X166751000Y-78232000D01*
X166751000Y-78232000D02*
X167386000Y-78232000D01*
X167386000Y-78232000D02*
X167640000Y-80899000D01*
X163449000Y-78232000D02*
X163703000Y-80899000D01*
X162814000Y-78232000D02*
X163449000Y-78232000D01*
X162560000Y-80899000D02*
X162814000Y-78232000D01*
X168783000Y-77597000D02*
X168783000Y-85979000D01*
X168402000Y-77216000D02*
X168783000Y-77597000D01*
X161671000Y-77216000D02*
X168402000Y-77216000D01*
X161290000Y-77597000D02*
X161671000Y-77216000D01*
X161290000Y-85979000D02*
X161290000Y-77597000D01*
D11*
X132200476Y-129468571D02*
X131867142Y-129468571D01*
X131867142Y-129992380D02*
X131867142Y-128992380D01*
X132343333Y-128992380D01*
X132724285Y-129611428D02*
X133486190Y-129611428D01*
X134533809Y-129992380D02*
X134200476Y-129516190D01*
X133962380Y-129992380D02*
X133962380Y-128992380D01*
X134343333Y-128992380D01*
X134438571Y-129040000D01*
X134486190Y-129087619D01*
X134533809Y-129182857D01*
X134533809Y-129325714D01*
X134486190Y-129420952D01*
X134438571Y-129468571D01*
X134343333Y-129516190D01*
X133962380Y-129516190D01*
X135390952Y-129992380D02*
X135390952Y-129468571D01*
X135343333Y-129373333D01*
X135248095Y-129325714D01*
X135057619Y-129325714D01*
X134962380Y-129373333D01*
X135390952Y-129944761D02*
X135295714Y-129992380D01*
X135057619Y-129992380D01*
X134962380Y-129944761D01*
X134914761Y-129849523D01*
X134914761Y-129754285D01*
X134962380Y-129659047D01*
X135057619Y-129611428D01*
X135295714Y-129611428D01*
X135390952Y-129563809D01*
X135867142Y-129992380D02*
X135867142Y-129325714D01*
X135867142Y-129420952D02*
X135914761Y-129373333D01*
X136010000Y-129325714D01*
X136152857Y-129325714D01*
X136248095Y-129373333D01*
X136295714Y-129468571D01*
X136295714Y-129992380D01*
X136295714Y-129468571D02*
X136343333Y-129373333D01*
X136438571Y-129325714D01*
X136581428Y-129325714D01*
X136676666Y-129373333D01*
X136724285Y-129468571D01*
X136724285Y-129992380D01*
X137629047Y-129325714D02*
X137629047Y-129992380D01*
X137200476Y-129325714D02*
X137200476Y-129849523D01*
X137248095Y-129944761D01*
X137343333Y-129992380D01*
X137486190Y-129992380D01*
X137581428Y-129944761D01*
X137629047Y-129897142D01*
X138105238Y-129325714D02*
X138105238Y-129992380D01*
X138105238Y-129420952D02*
X138152857Y-129373333D01*
X138248095Y-129325714D01*
X138390952Y-129325714D01*
X138486190Y-129373333D01*
X138533809Y-129468571D01*
X138533809Y-129992380D01*
X139390952Y-129944761D02*
X139295714Y-129992380D01*
X139105238Y-129992380D01*
X139010000Y-129944761D01*
X138962380Y-129849523D01*
X138962380Y-129468571D01*
X139010000Y-129373333D01*
X139105238Y-129325714D01*
X139295714Y-129325714D01*
X139390952Y-129373333D01*
X139438571Y-129468571D01*
X139438571Y-129563809D01*
X138962380Y-129659047D01*
X140533809Y-129325714D02*
X140771904Y-129992380D01*
X141010000Y-129325714D01*
X141914761Y-129992380D02*
X141343333Y-129992380D01*
X141629047Y-129992380D02*
X141629047Y-128992380D01*
X141533809Y-129135238D01*
X141438571Y-129230476D01*
X141343333Y-129278095D01*
X142343333Y-129897142D02*
X142390952Y-129944761D01*
X142343333Y-129992380D01*
X142295714Y-129944761D01*
X142343333Y-129897142D01*
X142343333Y-129992380D01*
X143010000Y-128992380D02*
X143105238Y-128992380D01*
X143200476Y-129040000D01*
X143248095Y-129087619D01*
X143295714Y-129182857D01*
X143343333Y-129373333D01*
X143343333Y-129611428D01*
X143295714Y-129801904D01*
X143248095Y-129897142D01*
X143200476Y-129944761D01*
X143105238Y-129992380D01*
X143010000Y-129992380D01*
X142914761Y-129944761D01*
X142867142Y-129897142D01*
X142819523Y-129801904D01*
X142771904Y-129611428D01*
X142771904Y-129373333D01*
X142819523Y-129182857D01*
X142867142Y-129087619D01*
X142914761Y-129040000D01*
X143010000Y-128992380D01*
X145343333Y-129230476D02*
X145248095Y-129182857D01*
X145057619Y-129182857D01*
X144962380Y-129230476D01*
X144867142Y-129325714D01*
X144819523Y-129420952D01*
X144819523Y-129611428D01*
X144867142Y-129706666D01*
X144962380Y-129801904D01*
X145057619Y-129849523D01*
X145248095Y-129849523D01*
X145343333Y-129801904D01*
X145152857Y-128849523D02*
X144914761Y-128897142D01*
X144676666Y-129040000D01*
X144533809Y-129278095D01*
X144486190Y-129516190D01*
X144533809Y-129754285D01*
X144676666Y-129992380D01*
X144914761Y-130135238D01*
X145152857Y-130182857D01*
X145390952Y-130135238D01*
X145629047Y-129992380D01*
X145771904Y-129754285D01*
X145819523Y-129516190D01*
X145771904Y-129278095D01*
X145629047Y-129040000D01*
X145390952Y-128897142D01*
X145152857Y-128849523D01*
X146200476Y-129087619D02*
X146248095Y-129040000D01*
X146343333Y-128992380D01*
X146581428Y-128992380D01*
X146676666Y-129040000D01*
X146724285Y-129087619D01*
X146771904Y-129182857D01*
X146771904Y-129278095D01*
X146724285Y-129420952D01*
X146152857Y-129992380D01*
X146771904Y-129992380D01*
X147390952Y-128992380D02*
X147486190Y-128992380D01*
X147581428Y-129040000D01*
X147629047Y-129087619D01*
X147676666Y-129182857D01*
X147724285Y-129373333D01*
X147724285Y-129611428D01*
X147676666Y-129801904D01*
X147629047Y-129897142D01*
X147581428Y-129944761D01*
X147486190Y-129992380D01*
X147390952Y-129992380D01*
X147295714Y-129944761D01*
X147248095Y-129897142D01*
X147200476Y-129801904D01*
X147152857Y-129611428D01*
X147152857Y-129373333D01*
X147200476Y-129182857D01*
X147248095Y-129087619D01*
X147295714Y-129040000D01*
X147390952Y-128992380D01*
X148676666Y-129992380D02*
X148105238Y-129992380D01*
X148390952Y-129992380D02*
X148390952Y-128992380D01*
X148295714Y-129135238D01*
X148200476Y-129230476D01*
X148105238Y-129278095D01*
X149152857Y-129992380D02*
X149343333Y-129992380D01*
X149438571Y-129944761D01*
X149486190Y-129897142D01*
X149581428Y-129754285D01*
X149629047Y-129563809D01*
X149629047Y-129182857D01*
X149581428Y-129087619D01*
X149533809Y-129040000D01*
X149438571Y-128992380D01*
X149248095Y-128992380D01*
X149152857Y-129040000D01*
X149105238Y-129087619D01*
X149057619Y-129182857D01*
X149057619Y-129420952D01*
X149105238Y-129516190D01*
X149152857Y-129563809D01*
X149248095Y-129611428D01*
X149438571Y-129611428D01*
X149533809Y-129563809D01*
X149581428Y-129516190D01*
X149629047Y-129420952D01*
X150962380Y-129992380D02*
X150867142Y-129944761D01*
X150819523Y-129897142D01*
X150771904Y-129801904D01*
X150771904Y-129516190D01*
X150819523Y-129420952D01*
X150867142Y-129373333D01*
X150962380Y-129325714D01*
X151105238Y-129325714D01*
X151200476Y-129373333D01*
X151248095Y-129420952D01*
X151295714Y-129516190D01*
X151295714Y-129801904D01*
X151248095Y-129897142D01*
X151200476Y-129944761D01*
X151105238Y-129992380D01*
X150962380Y-129992380D01*
X151724285Y-129992380D02*
X151724285Y-128992380D01*
X151724285Y-129373333D02*
X151819523Y-129325714D01*
X152009999Y-129325714D01*
X152105238Y-129373333D01*
X152152857Y-129420952D01*
X152200476Y-129516190D01*
X152200476Y-129801904D01*
X152152857Y-129897142D01*
X152105238Y-129944761D01*
X152009999Y-129992380D01*
X151819523Y-129992380D01*
X151724285Y-129944761D01*
X152581428Y-129944761D02*
X152676666Y-129992380D01*
X152867142Y-129992380D01*
X152962380Y-129944761D01*
X153009999Y-129849523D01*
X153009999Y-129801904D01*
X152962380Y-129706666D01*
X152867142Y-129659047D01*
X152724285Y-129659047D01*
X152629047Y-129611428D01*
X152581428Y-129516190D01*
X152581428Y-129468571D01*
X152629047Y-129373333D01*
X152724285Y-129325714D01*
X152867142Y-129325714D01*
X152962380Y-129373333D01*
X153438571Y-129992380D02*
X153438571Y-128992380D01*
X153533809Y-129611428D02*
X153819523Y-129992380D01*
X153819523Y-129325714D02*
X153438571Y-129706666D01*
X154152857Y-129325714D02*
X154390952Y-129992380D01*
X154629047Y-129325714D02*
X154390952Y-129992380D01*
X154295714Y-130230476D01*
X154248095Y-130278095D01*
X154152857Y-130325714D01*
X155009999Y-129992380D02*
X155009999Y-129325714D01*
X155009999Y-129516190D02*
X155057619Y-129420952D01*
X155105238Y-129373333D01*
X155200476Y-129325714D01*
X155295714Y-129325714D01*
D10*
X172057000Y-123599000D02*
X170883000Y-123599000D01*
X172057000Y-125321000D02*
X170883000Y-125321000D01*
X130940000Y-88900000D02*
X130940000Y-86360000D01*
X134240000Y-76970000D02*
X134240000Y-79230000D01*
X131970000Y-76970000D02*
X131970000Y-78830000D01*
X155050000Y-76970000D02*
X131970000Y-76970000D01*
X155050000Y-127670000D02*
X155050000Y-76970000D01*
X131970000Y-127670000D02*
X155050000Y-127670000D01*
X131970000Y-83730000D02*
X131970000Y-127670000D01*
X133590000Y-81280000D02*
G75*
G03X133590000Y-81280000I-900000J0D01*
G01*
X135240000Y-81280000D02*
G75*
G03X135240000Y-81280000I-2550000J0D01*
G01*
X122210000Y-127060000D02*
X123460000Y-127060000D01*
X122210000Y-106620000D02*
X122210000Y-127060000D01*
X126710000Y-106620000D02*
X122210000Y-106620000D01*
X126710000Y-127060000D02*
X126710000Y-106620000D01*
X125460000Y-127060000D02*
X126710000Y-127060000D01*
X123460000Y-127060000D02*
G75*
G02X125460000Y-127060000I1000000J0D01*
G01*
X122210000Y-97850000D02*
X123460000Y-97850000D01*
X122210000Y-77410000D02*
X122210000Y-97850000D01*
X126710000Y-77410000D02*
X122210000Y-77410000D01*
X126710000Y-97850000D02*
X126710000Y-77410000D01*
X125460000Y-97850000D02*
X126710000Y-97850000D01*
X123460000Y-97850000D02*
G75*
G02X125460000Y-97850000I1000000J0D01*
G01*
D12*
X187878720Y-127919480D02*
G75*
G03X188879480Y-126918720I0J1000760D01*
G01*
X188879480Y-116921280D02*
G75*
G03X187878720Y-115920520I-1000760J0D01*
G01*
X177881280Y-115920520D02*
G75*
G03X176880520Y-116921280I0J-1000760D01*
G01*
X176880520Y-126918720D02*
G75*
G03X177881280Y-127919480I1000760J0D01*
G01*
D13*
X187678060Y-126418340D02*
G75*
G03X187678060Y-126418340I-299720J0D01*
G01*
X187678060Y-117421660D02*
G75*
G03X187678060Y-117421660I-299720J0D01*
G01*
X178681380Y-117421660D02*
G75*
G03X178681380Y-117421660I-299720J0D01*
G01*
X178681380Y-126418340D02*
G75*
G03X178681380Y-126418340I-299720J0D01*
G01*
D12*
X186377580Y-121920000D02*
G75*
G03X186377580Y-121920000I-3497580J0D01*
G01*
X183878220Y-127919480D02*
X181881780Y-127919480D01*
X187878720Y-127919480D02*
X186877960Y-127919480D01*
X188879480Y-116921280D02*
X188879480Y-126918720D01*
X186877960Y-115920520D02*
X187878720Y-115920520D01*
X181881780Y-115920520D02*
X183878220Y-115920520D01*
X177881280Y-115920520D02*
X178882040Y-115920520D01*
X176880520Y-126918720D02*
X176880520Y-116921280D01*
X178882040Y-127919480D02*
X177881280Y-127919480D01*
D10*
X158460000Y-118110000D02*
X159350000Y-118110000D01*
X166660000Y-118110000D02*
X165770000Y-118110000D01*
X159350000Y-119420000D02*
X165770000Y-119420000D01*
X159350000Y-116800000D02*
X159350000Y-119420000D01*
X165770000Y-116800000D02*
X159350000Y-116800000D01*
X165770000Y-119420000D02*
X165770000Y-116800000D01*
X180340000Y-110780000D02*
X180340000Y-109890000D01*
X180340000Y-102580000D02*
X180340000Y-103470000D01*
X181650000Y-109890000D02*
X181650000Y-103470000D01*
X179030000Y-109890000D02*
X181650000Y-109890000D01*
X179030000Y-103470000D02*
X179030000Y-109890000D01*
X181650000Y-103470000D02*
X179030000Y-103470000D01*
X185420000Y-110780000D02*
X185420000Y-109890000D01*
X185420000Y-102580000D02*
X185420000Y-103470000D01*
X186730000Y-109890000D02*
X186730000Y-103470000D01*
X184110000Y-109890000D02*
X186730000Y-109890000D01*
X184110000Y-103470000D02*
X184110000Y-109890000D01*
X186730000Y-103470000D02*
X184110000Y-103470000D01*
X187960000Y-86650000D02*
X187960000Y-85760000D01*
X187960000Y-78450000D02*
X187960000Y-79340000D01*
X189270000Y-85760000D02*
X189270000Y-79340000D01*
X186650000Y-85760000D02*
X189270000Y-85760000D01*
X186650000Y-79340000D02*
X186650000Y-85760000D01*
X189270000Y-79340000D02*
X186650000Y-79340000D01*
X184404000Y-86650000D02*
X184404000Y-85760000D01*
X184404000Y-78450000D02*
X184404000Y-79340000D01*
X185714000Y-85760000D02*
X185714000Y-79340000D01*
X183094000Y-85760000D02*
X185714000Y-85760000D01*
X183094000Y-79340000D02*
X183094000Y-85760000D01*
X185714000Y-79340000D02*
X183094000Y-79340000D01*
X184731000Y-92630000D02*
X184731000Y-94140000D01*
X181030000Y-92630000D02*
X181030000Y-94140000D01*
X177760000Y-94140000D02*
X188000000Y-94140000D01*
X188000000Y-92630000D02*
X188000000Y-97271000D01*
X177760000Y-92630000D02*
X177760000Y-97271000D01*
X177760000Y-97271000D02*
X188000000Y-97271000D01*
X177760000Y-92630000D02*
X188000000Y-92630000D01*
X181630000Y-80285000D02*
X181630000Y-77195000D01*
X181570000Y-78740000D02*
G75*
G03X181570000Y-78740000I-2500000J0D01*
G01*
X176080000Y-78740462D02*
G75*
G02X181630000Y-77195170I2990000J462D01*
G01*
X176080000Y-78739538D02*
G75*
G03X181630000Y-80284830I2990000J-462D01*
G01*
X181630000Y-87905000D02*
X181630000Y-84815000D01*
X181570000Y-86360000D02*
G75*
G03X181570000Y-86360000I-2500000J0D01*
G01*
X176080000Y-86360462D02*
G75*
G02X181630000Y-84815170I2990000J462D01*
G01*
X176080000Y-86359538D02*
G75*
G03X181630000Y-87904830I2990000J-462D01*
G01*
D11*
X171450000Y-115570000D02*
X171450000Y-114300000D01*
X172720000Y-115570000D02*
X171450000Y-115570000D01*
X173990000Y-77470000D02*
X173990000Y-113030000D01*
X171450000Y-77470000D02*
X173990000Y-77470000D01*
X171450000Y-113030000D02*
X171450000Y-77470000D01*
X173990000Y-113030000D02*
X171450000Y-113030000D01*
X156210000Y-115570000D02*
X156210000Y-114300000D01*
X157480000Y-115570000D02*
X156210000Y-115570000D01*
X158750000Y-77470000D02*
X158750000Y-113030000D01*
X156210000Y-77470000D02*
X158750000Y-77470000D01*
X156210000Y-113030000D02*
X156210000Y-77470000D01*
X158750000Y-113030000D02*
X156210000Y-113030000D01*
X171303333Y-126927142D02*
X171255714Y-126974761D01*
X171112857Y-127022380D01*
X171017619Y-127022380D01*
X170874761Y-126974761D01*
X170779523Y-126879523D01*
X170731904Y-126784285D01*
X170684285Y-126593809D01*
X170684285Y-126450952D01*
X170731904Y-126260476D01*
X170779523Y-126165238D01*
X170874761Y-126070000D01*
X171017619Y-126022380D01*
X171112857Y-126022380D01*
X171255714Y-126070000D01*
X171303333Y-126117619D01*
X172255714Y-127022380D02*
X171684285Y-127022380D01*
X171970000Y-127022380D02*
X171970000Y-126022380D01*
X171874761Y-126165238D01*
X171779523Y-126260476D01*
X171684285Y-126308095D01*
X169946190Y-122802380D02*
X169374761Y-122802380D01*
X169660476Y-122802380D02*
X169660476Y-121802380D01*
X169565238Y-121945238D01*
X169470000Y-122040476D01*
X169374761Y-122088095D01*
X170565238Y-121802380D02*
X170660476Y-121802380D01*
X170755714Y-121850000D01*
X170803333Y-121897619D01*
X170850952Y-121992857D01*
X170898571Y-122183333D01*
X170898571Y-122421428D01*
X170850952Y-122611904D01*
X170803333Y-122707142D01*
X170755714Y-122754761D01*
X170660476Y-122802380D01*
X170565238Y-122802380D01*
X170470000Y-122754761D01*
X170422380Y-122707142D01*
X170374761Y-122611904D01*
X170327142Y-122421428D01*
X170327142Y-122183333D01*
X170374761Y-121992857D01*
X170422380Y-121897619D01*
X170470000Y-121850000D01*
X170565238Y-121802380D01*
X172089047Y-122135714D02*
X172089047Y-123135714D01*
X172565238Y-122659523D02*
X172612857Y-122754761D01*
X172708095Y-122802380D01*
X172089047Y-122659523D02*
X172136666Y-122754761D01*
X172231904Y-122802380D01*
X172422380Y-122802380D01*
X172517619Y-122754761D01*
X172565238Y-122659523D01*
X172565238Y-122135714D01*
X173470000Y-122278571D02*
X173136666Y-122278571D01*
X173136666Y-122802380D02*
X173136666Y-121802380D01*
X173612857Y-121802380D01*
X142748095Y-75652380D02*
X142748095Y-76461904D01*
X142795714Y-76557142D01*
X142843333Y-76604761D01*
X142938571Y-76652380D01*
X143129047Y-76652380D01*
X143224285Y-76604761D01*
X143271904Y-76557142D01*
X143319523Y-76461904D01*
X143319523Y-75652380D01*
X143700476Y-75652380D02*
X144319523Y-75652380D01*
X143986190Y-76033333D01*
X144129047Y-76033333D01*
X144224285Y-76080952D01*
X144271904Y-76128571D01*
X144319523Y-76223809D01*
X144319523Y-76461904D01*
X144271904Y-76557142D01*
X144224285Y-76604761D01*
X144129047Y-76652380D01*
X143843333Y-76652380D01*
X143748095Y-76604761D01*
X143700476Y-76557142D01*
X123698095Y-127512380D02*
X123698095Y-128321904D01*
X123745714Y-128417142D01*
X123793333Y-128464761D01*
X123888571Y-128512380D01*
X124079047Y-128512380D01*
X124174285Y-128464761D01*
X124221904Y-128417142D01*
X124269523Y-128321904D01*
X124269523Y-127512380D01*
X124698095Y-127607619D02*
X124745714Y-127560000D01*
X124840952Y-127512380D01*
X125079047Y-127512380D01*
X125174285Y-127560000D01*
X125221904Y-127607619D01*
X125269523Y-127702857D01*
X125269523Y-127798095D01*
X125221904Y-127940952D01*
X124650476Y-128512380D01*
X125269523Y-128512380D01*
X123912380Y-120101904D02*
X123912380Y-119435238D01*
X124912380Y-119863809D01*
X124245714Y-118625714D02*
X124912380Y-118625714D01*
X123864761Y-118863809D02*
X124579047Y-119101904D01*
X124579047Y-118482857D01*
X124912380Y-118101904D02*
X123912380Y-118101904D01*
X124388571Y-118101904D02*
X124388571Y-117530476D01*
X124912380Y-117530476D02*
X123912380Y-117530476D01*
X124817142Y-116482857D02*
X124864761Y-116530476D01*
X124912380Y-116673333D01*
X124912380Y-116768571D01*
X124864761Y-116911428D01*
X124769523Y-117006666D01*
X124674285Y-117054285D01*
X124483809Y-117101904D01*
X124340952Y-117101904D01*
X124150476Y-117054285D01*
X124055238Y-117006666D01*
X123960000Y-116911428D01*
X123912380Y-116768571D01*
X123912380Y-116673333D01*
X123960000Y-116530476D01*
X124007619Y-116482857D01*
X123912380Y-115578095D02*
X123912380Y-116054285D01*
X124388571Y-116101904D01*
X124340952Y-116054285D01*
X124293333Y-115959047D01*
X124293333Y-115720952D01*
X124340952Y-115625714D01*
X124388571Y-115578095D01*
X124483809Y-115530476D01*
X124721904Y-115530476D01*
X124817142Y-115578095D01*
X124864761Y-115625714D01*
X124912380Y-115720952D01*
X124912380Y-115959047D01*
X124864761Y-116054285D01*
X124817142Y-116101904D01*
X124912380Y-115054285D02*
X124912380Y-114863809D01*
X124864761Y-114768571D01*
X124817142Y-114720952D01*
X124674285Y-114625714D01*
X124483809Y-114578095D01*
X124102857Y-114578095D01*
X124007619Y-114625714D01*
X123960000Y-114673333D01*
X123912380Y-114768571D01*
X123912380Y-114959047D01*
X123960000Y-115054285D01*
X124007619Y-115101904D01*
X124102857Y-115149523D01*
X124340952Y-115149523D01*
X124436190Y-115101904D01*
X124483809Y-115054285D01*
X124531428Y-114959047D01*
X124531428Y-114768571D01*
X124483809Y-114673333D01*
X124436190Y-114625714D01*
X124340952Y-114578095D01*
X123912380Y-113673333D02*
X123912380Y-114149523D01*
X124388571Y-114197142D01*
X124340952Y-114149523D01*
X124293333Y-114054285D01*
X124293333Y-113816190D01*
X124340952Y-113720952D01*
X124388571Y-113673333D01*
X124483809Y-113625714D01*
X124721904Y-113625714D01*
X124817142Y-113673333D01*
X124864761Y-113720952D01*
X124912380Y-113816190D01*
X124912380Y-114054285D01*
X124864761Y-114149523D01*
X124817142Y-114197142D01*
X123698095Y-98302380D02*
X123698095Y-99111904D01*
X123745714Y-99207142D01*
X123793333Y-99254761D01*
X123888571Y-99302380D01*
X124079047Y-99302380D01*
X124174285Y-99254761D01*
X124221904Y-99207142D01*
X124269523Y-99111904D01*
X124269523Y-98302380D01*
X125269523Y-99302380D02*
X124698095Y-99302380D01*
X124983809Y-99302380D02*
X124983809Y-98302380D01*
X124888571Y-98445238D01*
X124793333Y-98540476D01*
X124698095Y-98588095D01*
X123912380Y-90891904D02*
X123912380Y-90225238D01*
X124912380Y-90653809D01*
X124245714Y-89415714D02*
X124912380Y-89415714D01*
X123864761Y-89653809D02*
X124579047Y-89891904D01*
X124579047Y-89272857D01*
X124912380Y-88891904D02*
X123912380Y-88891904D01*
X124388571Y-88891904D02*
X124388571Y-88320476D01*
X124912380Y-88320476D02*
X123912380Y-88320476D01*
X124817142Y-87272857D02*
X124864761Y-87320476D01*
X124912380Y-87463333D01*
X124912380Y-87558571D01*
X124864761Y-87701428D01*
X124769523Y-87796666D01*
X124674285Y-87844285D01*
X124483809Y-87891904D01*
X124340952Y-87891904D01*
X124150476Y-87844285D01*
X124055238Y-87796666D01*
X123960000Y-87701428D01*
X123912380Y-87558571D01*
X123912380Y-87463333D01*
X123960000Y-87320476D01*
X124007619Y-87272857D01*
X123912380Y-86368095D02*
X123912380Y-86844285D01*
X124388571Y-86891904D01*
X124340952Y-86844285D01*
X124293333Y-86749047D01*
X124293333Y-86510952D01*
X124340952Y-86415714D01*
X124388571Y-86368095D01*
X124483809Y-86320476D01*
X124721904Y-86320476D01*
X124817142Y-86368095D01*
X124864761Y-86415714D01*
X124912380Y-86510952D01*
X124912380Y-86749047D01*
X124864761Y-86844285D01*
X124817142Y-86891904D01*
X124912380Y-85844285D02*
X124912380Y-85653809D01*
X124864761Y-85558571D01*
X124817142Y-85510952D01*
X124674285Y-85415714D01*
X124483809Y-85368095D01*
X124102857Y-85368095D01*
X124007619Y-85415714D01*
X123960000Y-85463333D01*
X123912380Y-85558571D01*
X123912380Y-85749047D01*
X123960000Y-85844285D01*
X124007619Y-85891904D01*
X124102857Y-85939523D01*
X124340952Y-85939523D01*
X124436190Y-85891904D01*
X124483809Y-85844285D01*
X124531428Y-85749047D01*
X124531428Y-85558571D01*
X124483809Y-85463333D01*
X124436190Y-85415714D01*
X124340952Y-85368095D01*
X123912380Y-84463333D02*
X123912380Y-84939523D01*
X124388571Y-84987142D01*
X124340952Y-84939523D01*
X124293333Y-84844285D01*
X124293333Y-84606190D01*
X124340952Y-84510952D01*
X124388571Y-84463333D01*
X124483809Y-84415714D01*
X124721904Y-84415714D01*
X124817142Y-84463333D01*
X124864761Y-84510952D01*
X124912380Y-84606190D01*
X124912380Y-84844285D01*
X124864761Y-84939523D01*
X124817142Y-84987142D01*
D14*
X178554742Y-122732800D02*
X178583771Y-122645714D01*
X178583771Y-122500571D01*
X178554742Y-122442514D01*
X178525714Y-122413485D01*
X178467657Y-122384457D01*
X178409600Y-122384457D01*
X178351542Y-122413485D01*
X178322514Y-122442514D01*
X178293485Y-122500571D01*
X178264457Y-122616685D01*
X178235428Y-122674742D01*
X178206400Y-122703771D01*
X178148342Y-122732800D01*
X178090285Y-122732800D01*
X178032228Y-122703771D01*
X178003200Y-122674742D01*
X177974171Y-122616685D01*
X177974171Y-122471542D01*
X178003200Y-122384457D01*
X177974171Y-122181257D02*
X178583771Y-122036114D01*
X178148342Y-121920000D01*
X178583771Y-121803885D01*
X177974171Y-121658742D01*
X178583771Y-121107200D02*
X178583771Y-121455542D01*
X178583771Y-121281371D02*
X177974171Y-121281371D01*
X178061257Y-121339428D01*
X178119314Y-121397485D01*
X178148342Y-121455542D01*
X187698742Y-123777828D02*
X187727771Y-123690742D01*
X187727771Y-123545600D01*
X187698742Y-123487542D01*
X187669714Y-123458514D01*
X187611657Y-123429485D01*
X187553600Y-123429485D01*
X187495542Y-123458514D01*
X187466514Y-123487542D01*
X187437485Y-123545600D01*
X187408457Y-123661714D01*
X187379428Y-123719771D01*
X187350400Y-123748800D01*
X187292342Y-123777828D01*
X187234285Y-123777828D01*
X187176228Y-123748800D01*
X187147200Y-123719771D01*
X187118171Y-123661714D01*
X187118171Y-123516571D01*
X187147200Y-123429485D01*
X187118171Y-123226285D02*
X187727771Y-123081142D01*
X187292342Y-122965028D01*
X187727771Y-122848914D01*
X187118171Y-122703771D01*
X187785828Y-122616685D02*
X187785828Y-122152228D01*
X187727771Y-122007085D02*
X187118171Y-122007085D01*
X187118171Y-121774857D01*
X187147200Y-121716800D01*
X187176228Y-121687771D01*
X187234285Y-121658742D01*
X187321371Y-121658742D01*
X187379428Y-121687771D01*
X187408457Y-121716800D01*
X187437485Y-121774857D01*
X187437485Y-122007085D01*
X187321371Y-121136228D02*
X187727771Y-121136228D01*
X187321371Y-121397485D02*
X187640685Y-121397485D01*
X187698742Y-121368457D01*
X187727771Y-121310400D01*
X187727771Y-121223314D01*
X187698742Y-121165257D01*
X187669714Y-121136228D01*
X187698742Y-120874971D02*
X187727771Y-120816914D01*
X187727771Y-120700800D01*
X187698742Y-120642742D01*
X187640685Y-120613714D01*
X187611657Y-120613714D01*
X187553600Y-120642742D01*
X187524571Y-120700800D01*
X187524571Y-120787885D01*
X187495542Y-120845942D01*
X187437485Y-120874971D01*
X187408457Y-120874971D01*
X187350400Y-120845942D01*
X187321371Y-120787885D01*
X187321371Y-120700800D01*
X187350400Y-120642742D01*
X187727771Y-120352457D02*
X187118171Y-120352457D01*
X187727771Y-120091200D02*
X187408457Y-120091200D01*
X187350400Y-120120228D01*
X187321371Y-120178285D01*
X187321371Y-120265371D01*
X187350400Y-120323428D01*
X187379428Y-120352457D01*
D11*
X162393333Y-120872380D02*
X162060000Y-120396190D01*
X161821904Y-120872380D02*
X161821904Y-119872380D01*
X162202857Y-119872380D01*
X162298095Y-119920000D01*
X162345714Y-119967619D01*
X162393333Y-120062857D01*
X162393333Y-120205714D01*
X162345714Y-120300952D01*
X162298095Y-120348571D01*
X162202857Y-120396190D01*
X161821904Y-120396190D01*
X163298095Y-119872380D02*
X162821904Y-119872380D01*
X162774285Y-120348571D01*
X162821904Y-120300952D01*
X162917142Y-120253333D01*
X163155238Y-120253333D01*
X163250476Y-120300952D01*
X163298095Y-120348571D01*
X163345714Y-120443809D01*
X163345714Y-120681904D01*
X163298095Y-120777142D01*
X163250476Y-120824761D01*
X163155238Y-120872380D01*
X162917142Y-120872380D01*
X162821904Y-120824761D01*
X162774285Y-120777142D01*
X161393333Y-118562380D02*
X160821904Y-118562380D01*
X161107619Y-118562380D02*
X161107619Y-117562380D01*
X161012380Y-117705238D01*
X160917142Y-117800476D01*
X160821904Y-117848095D01*
X162012380Y-117562380D02*
X162107619Y-117562380D01*
X162202857Y-117610000D01*
X162250476Y-117657619D01*
X162298095Y-117752857D01*
X162345714Y-117943333D01*
X162345714Y-118181428D01*
X162298095Y-118371904D01*
X162250476Y-118467142D01*
X162202857Y-118514761D01*
X162107619Y-118562380D01*
X162012380Y-118562380D01*
X161917142Y-118514761D01*
X161869523Y-118467142D01*
X161821904Y-118371904D01*
X161774285Y-118181428D01*
X161774285Y-117943333D01*
X161821904Y-117752857D01*
X161869523Y-117657619D01*
X161917142Y-117610000D01*
X162012380Y-117562380D01*
X162774285Y-118562380D02*
X162774285Y-117562380D01*
X162869523Y-118181428D02*
X163155238Y-118562380D01*
X163155238Y-117895714D02*
X162774285Y-118276666D01*
X163536190Y-118562380D02*
X163774285Y-118562380D01*
X163774285Y-118371904D01*
X163679047Y-118324285D01*
X163583809Y-118229047D01*
X163536190Y-118086190D01*
X163536190Y-117848095D01*
X163583809Y-117705238D01*
X163679047Y-117610000D01*
X163821904Y-117562380D01*
X164012380Y-117562380D01*
X164155238Y-117610000D01*
X164250476Y-117705238D01*
X164298095Y-117848095D01*
X164298095Y-118086190D01*
X164250476Y-118229047D01*
X164155238Y-118324285D01*
X164060000Y-118371904D01*
X164060000Y-118562380D01*
X164298095Y-118562380D01*
X183102380Y-106846666D02*
X182626190Y-107180000D01*
X183102380Y-107418095D02*
X182102380Y-107418095D01*
X182102380Y-107037142D01*
X182150000Y-106941904D01*
X182197619Y-106894285D01*
X182292857Y-106846666D01*
X182435714Y-106846666D01*
X182530952Y-106894285D01*
X182578571Y-106941904D01*
X182626190Y-107037142D01*
X182626190Y-107418095D01*
X182435714Y-105989523D02*
X183102380Y-105989523D01*
X182054761Y-106227619D02*
X182769047Y-106465714D01*
X182769047Y-105846666D01*
X180792380Y-107918095D02*
X180792380Y-108489523D01*
X180792380Y-108203809D02*
X179792380Y-108203809D01*
X179935238Y-108299047D01*
X180030476Y-108394285D01*
X180078095Y-108489523D01*
X179792380Y-107299047D02*
X179792380Y-107203809D01*
X179840000Y-107108571D01*
X179887619Y-107060952D01*
X179982857Y-107013333D01*
X180173333Y-106965714D01*
X180411428Y-106965714D01*
X180601904Y-107013333D01*
X180697142Y-107060952D01*
X180744761Y-107108571D01*
X180792380Y-107203809D01*
X180792380Y-107299047D01*
X180744761Y-107394285D01*
X180697142Y-107441904D01*
X180601904Y-107489523D01*
X180411428Y-107537142D01*
X180173333Y-107537142D01*
X179982857Y-107489523D01*
X179887619Y-107441904D01*
X179840000Y-107394285D01*
X179792380Y-107299047D01*
X179792380Y-106346666D02*
X179792380Y-106251428D01*
X179840000Y-106156190D01*
X179887619Y-106108571D01*
X179982857Y-106060952D01*
X180173333Y-106013333D01*
X180411428Y-106013333D01*
X180601904Y-106060952D01*
X180697142Y-106108571D01*
X180744761Y-106156190D01*
X180792380Y-106251428D01*
X180792380Y-106346666D01*
X180744761Y-106441904D01*
X180697142Y-106489523D01*
X180601904Y-106537142D01*
X180411428Y-106584761D01*
X180173333Y-106584761D01*
X179982857Y-106537142D01*
X179887619Y-106489523D01*
X179840000Y-106441904D01*
X179792380Y-106346666D01*
X180792380Y-105632380D02*
X180792380Y-105394285D01*
X180601904Y-105394285D01*
X180554285Y-105489523D01*
X180459047Y-105584761D01*
X180316190Y-105632380D01*
X180078095Y-105632380D01*
X179935238Y-105584761D01*
X179840000Y-105489523D01*
X179792380Y-105346666D01*
X179792380Y-105156190D01*
X179840000Y-105013333D01*
X179935238Y-104918095D01*
X180078095Y-104870476D01*
X180316190Y-104870476D01*
X180459047Y-104918095D01*
X180554285Y-105013333D01*
X180601904Y-105108571D01*
X180792380Y-105108571D01*
X180792380Y-104870476D01*
X188182380Y-106846666D02*
X187706190Y-107180000D01*
X188182380Y-107418095D02*
X187182380Y-107418095D01*
X187182380Y-107037142D01*
X187230000Y-106941904D01*
X187277619Y-106894285D01*
X187372857Y-106846666D01*
X187515714Y-106846666D01*
X187610952Y-106894285D01*
X187658571Y-106941904D01*
X187706190Y-107037142D01*
X187706190Y-107418095D01*
X187182380Y-106513333D02*
X187182380Y-105894285D01*
X187563333Y-106227619D01*
X187563333Y-106084761D01*
X187610952Y-105989523D01*
X187658571Y-105941904D01*
X187753809Y-105894285D01*
X187991904Y-105894285D01*
X188087142Y-105941904D01*
X188134761Y-105989523D01*
X188182380Y-106084761D01*
X188182380Y-106370476D01*
X188134761Y-106465714D01*
X188087142Y-106513333D01*
X185872380Y-107846666D02*
X185872380Y-108418095D01*
X185872380Y-108132380D02*
X184872380Y-108132380D01*
X185015238Y-108227619D01*
X185110476Y-108322857D01*
X185158095Y-108418095D01*
X184872380Y-107227619D02*
X184872380Y-107132380D01*
X184920000Y-107037142D01*
X184967619Y-106989523D01*
X185062857Y-106941904D01*
X185253333Y-106894285D01*
X185491428Y-106894285D01*
X185681904Y-106941904D01*
X185777142Y-106989523D01*
X185824761Y-107037142D01*
X185872380Y-107132380D01*
X185872380Y-107227619D01*
X185824761Y-107322857D01*
X185777142Y-107370476D01*
X185681904Y-107418095D01*
X185491428Y-107465714D01*
X185253333Y-107465714D01*
X185062857Y-107418095D01*
X184967619Y-107370476D01*
X184920000Y-107322857D01*
X184872380Y-107227619D01*
X185872380Y-106465714D02*
X184872380Y-106465714D01*
X185491428Y-106370476D02*
X185872380Y-106084761D01*
X185205714Y-106084761D02*
X185586666Y-106465714D01*
X185872380Y-105703809D02*
X185872380Y-105465714D01*
X185681904Y-105465714D01*
X185634285Y-105560952D01*
X185539047Y-105656190D01*
X185396190Y-105703809D01*
X185158095Y-105703809D01*
X185015238Y-105656190D01*
X184920000Y-105560952D01*
X184872380Y-105418095D01*
X184872380Y-105227619D01*
X184920000Y-105084761D01*
X185015238Y-104989523D01*
X185158095Y-104941904D01*
X185396190Y-104941904D01*
X185539047Y-104989523D01*
X185634285Y-105084761D01*
X185681904Y-105180000D01*
X185872380Y-105180000D01*
X185872380Y-104941904D01*
X188412380Y-90082666D02*
X187936190Y-90416000D01*
X188412380Y-90654095D02*
X187412380Y-90654095D01*
X187412380Y-90273142D01*
X187460000Y-90177904D01*
X187507619Y-90130285D01*
X187602857Y-90082666D01*
X187745714Y-90082666D01*
X187840952Y-90130285D01*
X187888571Y-90177904D01*
X187936190Y-90273142D01*
X187936190Y-90654095D01*
X187507619Y-89701714D02*
X187460000Y-89654095D01*
X187412380Y-89558857D01*
X187412380Y-89320761D01*
X187460000Y-89225523D01*
X187507619Y-89177904D01*
X187602857Y-89130285D01*
X187698095Y-89130285D01*
X187840952Y-89177904D01*
X188412380Y-89749333D01*
X188412380Y-89130285D01*
X187412380Y-84407142D02*
X187412380Y-83788095D01*
X187793333Y-84121428D01*
X187793333Y-83978571D01*
X187840952Y-83883333D01*
X187888571Y-83835714D01*
X187983809Y-83788095D01*
X188221904Y-83788095D01*
X188317142Y-83835714D01*
X188364761Y-83883333D01*
X188412380Y-83978571D01*
X188412380Y-84264285D01*
X188364761Y-84359523D01*
X188317142Y-84407142D01*
X187412380Y-83454761D02*
X187412380Y-82835714D01*
X187793333Y-83169047D01*
X187793333Y-83026190D01*
X187840952Y-82930952D01*
X187888571Y-82883333D01*
X187983809Y-82835714D01*
X188221904Y-82835714D01*
X188317142Y-82883333D01*
X188364761Y-82930952D01*
X188412380Y-83026190D01*
X188412380Y-83311904D01*
X188364761Y-83407142D01*
X188317142Y-83454761D01*
X187412380Y-82216666D02*
X187412380Y-82121428D01*
X187460000Y-82026190D01*
X187507619Y-81978571D01*
X187602857Y-81930952D01*
X187793333Y-81883333D01*
X188031428Y-81883333D01*
X188221904Y-81930952D01*
X188317142Y-81978571D01*
X188364761Y-82026190D01*
X188412380Y-82121428D01*
X188412380Y-82216666D01*
X188364761Y-82311904D01*
X188317142Y-82359523D01*
X188221904Y-82407142D01*
X188031428Y-82454761D01*
X187793333Y-82454761D01*
X187602857Y-82407142D01*
X187507619Y-82359523D01*
X187460000Y-82311904D01*
X187412380Y-82216666D01*
X188412380Y-81502380D02*
X188412380Y-81264285D01*
X188221904Y-81264285D01*
X188174285Y-81359523D01*
X188079047Y-81454761D01*
X187936190Y-81502380D01*
X187698095Y-81502380D01*
X187555238Y-81454761D01*
X187460000Y-81359523D01*
X187412380Y-81216666D01*
X187412380Y-81026190D01*
X187460000Y-80883333D01*
X187555238Y-80788095D01*
X187698095Y-80740476D01*
X187936190Y-80740476D01*
X188079047Y-80788095D01*
X188174285Y-80883333D01*
X188221904Y-80978571D01*
X188412380Y-80978571D01*
X188412380Y-80740476D01*
X184856380Y-90082666D02*
X184380190Y-90416000D01*
X184856380Y-90654095D02*
X183856380Y-90654095D01*
X183856380Y-90273142D01*
X183904000Y-90177904D01*
X183951619Y-90130285D01*
X184046857Y-90082666D01*
X184189714Y-90082666D01*
X184284952Y-90130285D01*
X184332571Y-90177904D01*
X184380190Y-90273142D01*
X184380190Y-90654095D01*
X184856380Y-89130285D02*
X184856380Y-89701714D01*
X184856380Y-89416000D02*
X183856380Y-89416000D01*
X183999238Y-89511238D01*
X184094476Y-89606476D01*
X184142095Y-89701714D01*
X183856380Y-84407142D02*
X183856380Y-83788095D01*
X184237333Y-84121428D01*
X184237333Y-83978571D01*
X184284952Y-83883333D01*
X184332571Y-83835714D01*
X184427809Y-83788095D01*
X184665904Y-83788095D01*
X184761142Y-83835714D01*
X184808761Y-83883333D01*
X184856380Y-83978571D01*
X184856380Y-84264285D01*
X184808761Y-84359523D01*
X184761142Y-84407142D01*
X183856380Y-83454761D02*
X183856380Y-82835714D01*
X184237333Y-83169047D01*
X184237333Y-83026190D01*
X184284952Y-82930952D01*
X184332571Y-82883333D01*
X184427809Y-82835714D01*
X184665904Y-82835714D01*
X184761142Y-82883333D01*
X184808761Y-82930952D01*
X184856380Y-83026190D01*
X184856380Y-83311904D01*
X184808761Y-83407142D01*
X184761142Y-83454761D01*
X183856380Y-82216666D02*
X183856380Y-82121428D01*
X183904000Y-82026190D01*
X183951619Y-81978571D01*
X184046857Y-81930952D01*
X184237333Y-81883333D01*
X184475428Y-81883333D01*
X184665904Y-81930952D01*
X184761142Y-81978571D01*
X184808761Y-82026190D01*
X184856380Y-82121428D01*
X184856380Y-82216666D01*
X184808761Y-82311904D01*
X184761142Y-82359523D01*
X184665904Y-82407142D01*
X184475428Y-82454761D01*
X184237333Y-82454761D01*
X184046857Y-82407142D01*
X183951619Y-82359523D01*
X183904000Y-82311904D01*
X183856380Y-82216666D01*
X184856380Y-81502380D02*
X184856380Y-81264285D01*
X184665904Y-81264285D01*
X184618285Y-81359523D01*
X184523047Y-81454761D01*
X184380190Y-81502380D01*
X184142095Y-81502380D01*
X183999238Y-81454761D01*
X183904000Y-81359523D01*
X183856380Y-81216666D01*
X183856380Y-81026190D01*
X183904000Y-80883333D01*
X183999238Y-80788095D01*
X184142095Y-80740476D01*
X184380190Y-80740476D01*
X184523047Y-80788095D01*
X184618285Y-80883333D01*
X184665904Y-80978571D01*
X184856380Y-80978571D01*
X184856380Y-80740476D01*
X189523619Y-95091238D02*
X189476000Y-95186476D01*
X189380761Y-95281714D01*
X189237904Y-95424571D01*
X189190285Y-95519809D01*
X189190285Y-95615047D01*
X189428380Y-95567428D02*
X189380761Y-95662666D01*
X189285523Y-95757904D01*
X189095047Y-95805523D01*
X188761714Y-95805523D01*
X188571238Y-95757904D01*
X188476000Y-95662666D01*
X188428380Y-95567428D01*
X188428380Y-95376952D01*
X188476000Y-95281714D01*
X188571238Y-95186476D01*
X188761714Y-95138857D01*
X189095047Y-95138857D01*
X189285523Y-95186476D01*
X189380761Y-95281714D01*
X189428380Y-95376952D01*
X189428380Y-95567428D01*
X189428380Y-94186476D02*
X189428380Y-94757904D01*
X189428380Y-94472190D02*
X188428380Y-94472190D01*
X188571238Y-94567428D01*
X188666476Y-94662666D01*
X188714095Y-94757904D01*
X176982380Y-97853142D02*
X175982380Y-97853142D01*
X176982380Y-96805523D02*
X176506190Y-97138857D01*
X176982380Y-97376952D02*
X175982380Y-97376952D01*
X175982380Y-96996000D01*
X176030000Y-96900761D01*
X176077619Y-96853142D01*
X176172857Y-96805523D01*
X176315714Y-96805523D01*
X176410952Y-96853142D01*
X176458571Y-96900761D01*
X176506190Y-96996000D01*
X176506190Y-97376952D01*
X176982380Y-95900761D02*
X176982380Y-96376952D01*
X175982380Y-96376952D01*
X175982380Y-95091238D02*
X175982380Y-95567428D01*
X176458571Y-95615047D01*
X176410952Y-95567428D01*
X176363333Y-95472190D01*
X176363333Y-95234095D01*
X176410952Y-95138857D01*
X176458571Y-95091238D01*
X176553809Y-95043619D01*
X176791904Y-95043619D01*
X176887142Y-95091238D01*
X176934761Y-95138857D01*
X176982380Y-95234095D01*
X176982380Y-95472190D01*
X176934761Y-95567428D01*
X176887142Y-95615047D01*
X176077619Y-94662666D02*
X176030000Y-94615047D01*
X175982380Y-94519809D01*
X175982380Y-94281714D01*
X176030000Y-94186476D01*
X176077619Y-94138857D01*
X176172857Y-94091238D01*
X176268095Y-94091238D01*
X176410952Y-94138857D01*
X176982380Y-94710285D01*
X176982380Y-94091238D01*
X175982380Y-93472190D02*
X175982380Y-93376952D01*
X176030000Y-93281714D01*
X176077619Y-93234095D01*
X176172857Y-93186476D01*
X176363333Y-93138857D01*
X176601428Y-93138857D01*
X176791904Y-93186476D01*
X176887142Y-93234095D01*
X176934761Y-93281714D01*
X176982380Y-93376952D01*
X176982380Y-93472190D01*
X176934761Y-93567428D01*
X176887142Y-93615047D01*
X176791904Y-93662666D01*
X176601428Y-93710285D01*
X176363333Y-93710285D01*
X176172857Y-93662666D01*
X176077619Y-93615047D01*
X176030000Y-93567428D01*
X175982380Y-93472190D01*
X176982380Y-92710285D02*
X175982380Y-92710285D01*
X176982380Y-92138857D01*
X175982380Y-92138857D01*
X175712380Y-79478095D02*
X174712380Y-79478095D01*
X174712380Y-79240000D01*
X174760000Y-79097142D01*
X174855238Y-79001904D01*
X174950476Y-78954285D01*
X175140952Y-78906666D01*
X175283809Y-78906666D01*
X175474285Y-78954285D01*
X175569523Y-79001904D01*
X175664761Y-79097142D01*
X175712380Y-79240000D01*
X175712380Y-79478095D01*
X174807619Y-78525714D02*
X174760000Y-78478095D01*
X174712380Y-78382857D01*
X174712380Y-78144761D01*
X174760000Y-78049523D01*
X174807619Y-78001904D01*
X174902857Y-77954285D01*
X174998095Y-77954285D01*
X175140952Y-78001904D01*
X175712380Y-78573333D01*
X175712380Y-77954285D01*
X181872000Y-80097142D02*
X181824380Y-80192380D01*
X181824380Y-80335238D01*
X181872000Y-80478095D01*
X181967238Y-80573333D01*
X182062476Y-80620952D01*
X182252952Y-80668571D01*
X182395809Y-80668571D01*
X182586285Y-80620952D01*
X182681523Y-80573333D01*
X182776761Y-80478095D01*
X182824380Y-80335238D01*
X182824380Y-80240000D01*
X182776761Y-80097142D01*
X182729142Y-80049523D01*
X182395809Y-80049523D01*
X182395809Y-80240000D01*
X182824380Y-79620952D02*
X182157714Y-79620952D01*
X182348190Y-79620952D02*
X182252952Y-79573333D01*
X182205333Y-79525714D01*
X182157714Y-79430476D01*
X182157714Y-79335238D01*
X182776761Y-78620952D02*
X182824380Y-78716190D01*
X182824380Y-78906666D01*
X182776761Y-79001904D01*
X182681523Y-79049523D01*
X182300571Y-79049523D01*
X182205333Y-79001904D01*
X182157714Y-78906666D01*
X182157714Y-78716190D01*
X182205333Y-78620952D01*
X182300571Y-78573333D01*
X182395809Y-78573333D01*
X182491047Y-79049523D01*
X182776761Y-77763809D02*
X182824380Y-77859047D01*
X182824380Y-78049523D01*
X182776761Y-78144761D01*
X182681523Y-78192380D01*
X182300571Y-78192380D01*
X182205333Y-78144761D01*
X182157714Y-78049523D01*
X182157714Y-77859047D01*
X182205333Y-77763809D01*
X182300571Y-77716190D01*
X182395809Y-77716190D01*
X182491047Y-78192380D01*
X182157714Y-77287619D02*
X182824380Y-77287619D01*
X182252952Y-77287619D02*
X182205333Y-77240000D01*
X182157714Y-77144761D01*
X182157714Y-77001904D01*
X182205333Y-76906666D01*
X182300571Y-76859047D01*
X182824380Y-76859047D01*
X175712380Y-87098095D02*
X174712380Y-87098095D01*
X174712380Y-86860000D01*
X174760000Y-86717142D01*
X174855238Y-86621904D01*
X174950476Y-86574285D01*
X175140952Y-86526666D01*
X175283809Y-86526666D01*
X175474285Y-86574285D01*
X175569523Y-86621904D01*
X175664761Y-86717142D01*
X175712380Y-86860000D01*
X175712380Y-87098095D01*
X175712380Y-85574285D02*
X175712380Y-86145714D01*
X175712380Y-85860000D02*
X174712380Y-85860000D01*
X174855238Y-85955238D01*
X174950476Y-86050476D01*
X174998095Y-86145714D01*
X182824380Y-86931428D02*
X182348190Y-87264761D01*
X182824380Y-87502857D02*
X181824380Y-87502857D01*
X181824380Y-87121904D01*
X181872000Y-87026666D01*
X181919619Y-86979047D01*
X182014857Y-86931428D01*
X182157714Y-86931428D01*
X182252952Y-86979047D01*
X182300571Y-87026666D01*
X182348190Y-87121904D01*
X182348190Y-87502857D01*
X182776761Y-86121904D02*
X182824380Y-86217142D01*
X182824380Y-86407619D01*
X182776761Y-86502857D01*
X182681523Y-86550476D01*
X182300571Y-86550476D01*
X182205333Y-86502857D01*
X182157714Y-86407619D01*
X182157714Y-86217142D01*
X182205333Y-86121904D01*
X182300571Y-86074285D01*
X182395809Y-86074285D01*
X182491047Y-86550476D01*
X182824380Y-85217142D02*
X181824380Y-85217142D01*
X182776761Y-85217142D02*
X182824380Y-85312380D01*
X182824380Y-85502857D01*
X182776761Y-85598095D01*
X182729142Y-85645714D01*
X182633904Y-85693333D01*
X182348190Y-85693333D01*
X182252952Y-85645714D01*
X182205333Y-85598095D01*
X182157714Y-85502857D01*
X182157714Y-85312380D01*
X182205333Y-85217142D01*
X164385714Y-114466666D02*
X164861904Y-114466666D01*
X164290476Y-114752380D02*
X164623809Y-113752380D01*
X164957142Y-114752380D01*
X165814285Y-114752380D02*
X165242857Y-114752380D01*
X165528571Y-114752380D02*
X165528571Y-113752380D01*
X165433333Y-113895238D01*
X165338095Y-113990476D01*
X165242857Y-114038095D01*
X158290476Y-76112666D02*
X158766666Y-76112666D01*
X158195238Y-76398380D02*
X158528571Y-75398380D01*
X158861904Y-76398380D01*
X159195238Y-76398380D02*
X159195238Y-75731714D01*
X159195238Y-75922190D02*
X159242857Y-75826952D01*
X159290476Y-75779333D01*
X159385714Y-75731714D01*
X159480952Y-75731714D01*
X160242857Y-76398380D02*
X160242857Y-75398380D01*
X160242857Y-76350761D02*
X160147619Y-76398380D01*
X159957142Y-76398380D01*
X159861904Y-76350761D01*
X159814285Y-76303142D01*
X159766666Y-76207904D01*
X159766666Y-75922190D01*
X159814285Y-75826952D01*
X159861904Y-75779333D01*
X159957142Y-75731714D01*
X160147619Y-75731714D01*
X160242857Y-75779333D01*
X161147619Y-75731714D02*
X161147619Y-76398380D01*
X160719047Y-75731714D02*
X160719047Y-76255523D01*
X160766666Y-76350761D01*
X160861904Y-76398380D01*
X161004761Y-76398380D01*
X161100000Y-76350761D01*
X161147619Y-76303142D01*
X161623809Y-76398380D02*
X161623809Y-75731714D01*
X161623809Y-75398380D02*
X161576190Y-75446000D01*
X161623809Y-75493619D01*
X161671428Y-75446000D01*
X161623809Y-75398380D01*
X161623809Y-75493619D01*
X162100000Y-75731714D02*
X162100000Y-76398380D01*
X162100000Y-75826952D02*
X162147619Y-75779333D01*
X162242857Y-75731714D01*
X162385714Y-75731714D01*
X162480952Y-75779333D01*
X162528571Y-75874571D01*
X162528571Y-76398380D01*
X163147619Y-76398380D02*
X163052380Y-76350761D01*
X163004761Y-76303142D01*
X162957142Y-76207904D01*
X162957142Y-75922190D01*
X163004761Y-75826952D01*
X163052380Y-75779333D01*
X163147619Y-75731714D01*
X163290476Y-75731714D01*
X163385714Y-75779333D01*
X163433333Y-75826952D01*
X163480952Y-75922190D01*
X163480952Y-76207904D01*
X163433333Y-76303142D01*
X163385714Y-76350761D01*
X163290476Y-76398380D01*
X163147619Y-76398380D01*
X164671428Y-76398380D02*
X164671428Y-75398380D01*
X165242857Y-76398380D01*
X165242857Y-75398380D01*
X166147619Y-76398380D02*
X166147619Y-75874571D01*
X166100000Y-75779333D01*
X166004761Y-75731714D01*
X165814285Y-75731714D01*
X165719047Y-75779333D01*
X166147619Y-76350761D02*
X166052380Y-76398380D01*
X165814285Y-76398380D01*
X165719047Y-76350761D01*
X165671428Y-76255523D01*
X165671428Y-76160285D01*
X165719047Y-76065047D01*
X165814285Y-76017428D01*
X166052380Y-76017428D01*
X166147619Y-75969809D01*
X166623809Y-75731714D02*
X166623809Y-76398380D01*
X166623809Y-75826952D02*
X166671428Y-75779333D01*
X166766666Y-75731714D01*
X166909523Y-75731714D01*
X167004761Y-75779333D01*
X167052380Y-75874571D01*
X167052380Y-76398380D01*
X167671428Y-76398380D02*
X167576190Y-76350761D01*
X167528571Y-76303142D01*
X167480952Y-76207904D01*
X167480952Y-75922190D01*
X167528571Y-75826952D01*
X167576190Y-75779333D01*
X167671428Y-75731714D01*
X167814285Y-75731714D01*
X167909523Y-75779333D01*
X167957142Y-75826952D01*
X168004761Y-75922190D01*
X168004761Y-76207904D01*
X167957142Y-76303142D01*
X167909523Y-76350761D01*
X167814285Y-76398380D01*
X167671428Y-76398380D01*
X169100000Y-75731714D02*
X169338095Y-76398380D01*
X169576190Y-75731714D01*
X169861904Y-75398380D02*
X170480952Y-75398380D01*
X170147619Y-75779333D01*
X170290476Y-75779333D01*
X170385714Y-75826952D01*
X170433333Y-75874571D01*
X170480952Y-75969809D01*
X170480952Y-76207904D01*
X170433333Y-76303142D01*
X170385714Y-76350761D01*
X170290476Y-76398380D01*
X170004761Y-76398380D01*
X169909523Y-76350761D01*
X169861904Y-76303142D01*
X170909523Y-76303142D02*
X170957142Y-76350761D01*
X170909523Y-76398380D01*
X170861904Y-76350761D01*
X170909523Y-76303142D01*
X170909523Y-76398380D01*
X171576190Y-75398380D02*
X171671428Y-75398380D01*
X171766666Y-75446000D01*
X171814285Y-75493619D01*
X171861904Y-75588857D01*
X171909523Y-75779333D01*
X171909523Y-76017428D01*
X171861904Y-76207904D01*
X171814285Y-76303142D01*
X171766666Y-76350761D01*
X171671428Y-76398380D01*
X171576190Y-76398380D01*
X171480952Y-76350761D01*
X171433333Y-76303142D01*
X171385714Y-76207904D01*
X171338095Y-76017428D01*
X171338095Y-75779333D01*
X171385714Y-75588857D01*
X171433333Y-75493619D01*
X171480952Y-75446000D01*
X171576190Y-75398380D01*
M02*
