G04 #@! TF.GenerationSoftware,KiCad,Pcbnew,(5.1.0)-1*
G04 #@! TF.CreationDate,2019-05-25T00:30:21-04:00*
G04 #@! TF.ProjectId,f-ramune_arduino,662d7261-6d75-46e6-955f-61726475696e,rev?*
G04 #@! TF.SameCoordinates,Original*
G04 #@! TF.FileFunction,Soldermask,Top*
G04 #@! TF.FilePolarity,Negative*
%FSLAX46Y46*%
G04 Gerber Fmt 4.6, Leading zero omitted, Abs format (unit mm)*
G04 Created by KiCad (PCBNEW (5.1.0)-1) date 2019-05-25 00:30:21*
%MOMM*%
%LPD*%
G04 APERTURE LIST*
%ADD10C,0.100000*%
G04 APERTURE END LIST*
D10*
G36*
X185723873Y-127032688D02*
G01*
X185938822Y-127121723D01*
X186132265Y-127250977D01*
X186296783Y-127415495D01*
X186426037Y-127608938D01*
X186515072Y-127823887D01*
X186560460Y-128052070D01*
X186560460Y-128284730D01*
X186515072Y-128512913D01*
X186426037Y-128727862D01*
X186296783Y-128921305D01*
X186132265Y-129085823D01*
X185938822Y-129215077D01*
X185723873Y-129304112D01*
X185495690Y-129349500D01*
X185263030Y-129349500D01*
X185034847Y-129304112D01*
X184819898Y-129215077D01*
X184626455Y-129085823D01*
X184461937Y-128921305D01*
X184332683Y-128727862D01*
X184243648Y-128512913D01*
X184198260Y-128284730D01*
X184198260Y-128052070D01*
X184243648Y-127823887D01*
X184332683Y-127608938D01*
X184461937Y-127415495D01*
X184626455Y-127250977D01*
X184819898Y-127121723D01*
X185034847Y-127032688D01*
X185263030Y-126987300D01*
X185495690Y-126987300D01*
X185723873Y-127032688D01*
X185723873Y-127032688D01*
G37*
G36*
X180725153Y-127032688D02*
G01*
X180940102Y-127121723D01*
X181133545Y-127250977D01*
X181298063Y-127415495D01*
X181427317Y-127608938D01*
X181516352Y-127823887D01*
X181561740Y-128052070D01*
X181561740Y-128284730D01*
X181516352Y-128512913D01*
X181427317Y-128727862D01*
X181298063Y-128921305D01*
X181133545Y-129085823D01*
X180940102Y-129215077D01*
X180725153Y-129304112D01*
X180496970Y-129349500D01*
X180264310Y-129349500D01*
X180036127Y-129304112D01*
X179821178Y-129215077D01*
X179627735Y-129085823D01*
X179463217Y-128921305D01*
X179333963Y-128727862D01*
X179244928Y-128512913D01*
X179199540Y-128284730D01*
X179199540Y-128052070D01*
X179244928Y-127823887D01*
X179333963Y-127608938D01*
X179463217Y-127415495D01*
X179627735Y-127250977D01*
X179821178Y-127121723D01*
X180036127Y-127032688D01*
X180264310Y-126987300D01*
X180496970Y-126987300D01*
X180725153Y-127032688D01*
X180725153Y-127032688D01*
G37*
G36*
X121216823Y-124256313D02*
G01*
X121377242Y-124304976D01*
X121509906Y-124375886D01*
X121525078Y-124383996D01*
X121654659Y-124490341D01*
X121761004Y-124619922D01*
X121761005Y-124619924D01*
X121840024Y-124767758D01*
X121888687Y-124928177D01*
X121905117Y-125095000D01*
X121888687Y-125261823D01*
X121840024Y-125422242D01*
X121769114Y-125554906D01*
X121761004Y-125570078D01*
X121654659Y-125699659D01*
X121525078Y-125806004D01*
X121525076Y-125806005D01*
X121377242Y-125885024D01*
X121216823Y-125933687D01*
X121091804Y-125946000D01*
X120208196Y-125946000D01*
X120083177Y-125933687D01*
X119922758Y-125885024D01*
X119774924Y-125806005D01*
X119774922Y-125806004D01*
X119645341Y-125699659D01*
X119538996Y-125570078D01*
X119530886Y-125554906D01*
X119459976Y-125422242D01*
X119411313Y-125261823D01*
X119394883Y-125095000D01*
X119411313Y-124928177D01*
X119459976Y-124767758D01*
X119538995Y-124619924D01*
X119538996Y-124619922D01*
X119645341Y-124490341D01*
X119774922Y-124383996D01*
X119790094Y-124375886D01*
X119922758Y-124304976D01*
X120083177Y-124256313D01*
X120208196Y-124244000D01*
X121091804Y-124244000D01*
X121216823Y-124256313D01*
X121216823Y-124256313D01*
G37*
G36*
X129521000Y-125946000D02*
G01*
X127019000Y-125946000D01*
X127019000Y-124244000D01*
X129521000Y-124244000D01*
X129521000Y-125946000D01*
X129521000Y-125946000D01*
G37*
G36*
X172968228Y-123641703D02*
G01*
X173123100Y-123705853D01*
X173262481Y-123798985D01*
X173381015Y-123917519D01*
X173474147Y-124056900D01*
X173538297Y-124211772D01*
X173571000Y-124376184D01*
X173571000Y-124543816D01*
X173538297Y-124708228D01*
X173474147Y-124863100D01*
X173381015Y-125002481D01*
X173262481Y-125121015D01*
X173123100Y-125214147D01*
X172968228Y-125278297D01*
X172803816Y-125311000D01*
X172636184Y-125311000D01*
X172471772Y-125278297D01*
X172316900Y-125214147D01*
X172177519Y-125121015D01*
X172058985Y-125002481D01*
X171965853Y-124863100D01*
X171901703Y-124708228D01*
X171869000Y-124543816D01*
X171869000Y-124376184D01*
X171901703Y-124211772D01*
X171965853Y-124056900D01*
X172058985Y-123917519D01*
X172177519Y-123798985D01*
X172316900Y-123705853D01*
X172471772Y-123641703D01*
X172636184Y-123609000D01*
X172803816Y-123609000D01*
X172968228Y-123641703D01*
X172968228Y-123641703D01*
G37*
G36*
X170468228Y-123641703D02*
G01*
X170623100Y-123705853D01*
X170762481Y-123798985D01*
X170881015Y-123917519D01*
X170974147Y-124056900D01*
X171038297Y-124211772D01*
X171071000Y-124376184D01*
X171071000Y-124543816D01*
X171038297Y-124708228D01*
X170974147Y-124863100D01*
X170881015Y-125002481D01*
X170762481Y-125121015D01*
X170623100Y-125214147D01*
X170468228Y-125278297D01*
X170303816Y-125311000D01*
X170136184Y-125311000D01*
X169971772Y-125278297D01*
X169816900Y-125214147D01*
X169677519Y-125121015D01*
X169558985Y-125002481D01*
X169465853Y-124863100D01*
X169401703Y-124708228D01*
X169369000Y-124543816D01*
X169369000Y-124376184D01*
X169401703Y-124211772D01*
X169465853Y-124056900D01*
X169558985Y-123917519D01*
X169677519Y-123798985D01*
X169816900Y-123705853D01*
X169971772Y-123641703D01*
X170136184Y-123609000D01*
X170303816Y-123609000D01*
X170468228Y-123641703D01*
X170468228Y-123641703D01*
G37*
G36*
X121216823Y-121716313D02*
G01*
X121377242Y-121764976D01*
X121509906Y-121835886D01*
X121525078Y-121843996D01*
X121654659Y-121950341D01*
X121761004Y-122079922D01*
X121761005Y-122079924D01*
X121840024Y-122227758D01*
X121888687Y-122388177D01*
X121905117Y-122555000D01*
X121888687Y-122721823D01*
X121840024Y-122882242D01*
X121769114Y-123014906D01*
X121761004Y-123030078D01*
X121654659Y-123159659D01*
X121525078Y-123266004D01*
X121525076Y-123266005D01*
X121377242Y-123345024D01*
X121216823Y-123393687D01*
X121091804Y-123406000D01*
X120208196Y-123406000D01*
X120083177Y-123393687D01*
X119922758Y-123345024D01*
X119774924Y-123266005D01*
X119774922Y-123266004D01*
X119645341Y-123159659D01*
X119538996Y-123030078D01*
X119530886Y-123014906D01*
X119459976Y-122882242D01*
X119411313Y-122721823D01*
X119394883Y-122555000D01*
X119411313Y-122388177D01*
X119459976Y-122227758D01*
X119538995Y-122079924D01*
X119538996Y-122079922D01*
X119645341Y-121950341D01*
X119774922Y-121843996D01*
X119790094Y-121835886D01*
X119922758Y-121764976D01*
X120083177Y-121716313D01*
X120208196Y-121704000D01*
X121091804Y-121704000D01*
X121216823Y-121716313D01*
X121216823Y-121716313D01*
G37*
G36*
X128836823Y-121716313D02*
G01*
X128997242Y-121764976D01*
X129129906Y-121835886D01*
X129145078Y-121843996D01*
X129274659Y-121950341D01*
X129381004Y-122079922D01*
X129381005Y-122079924D01*
X129460024Y-122227758D01*
X129508687Y-122388177D01*
X129525117Y-122555000D01*
X129508687Y-122721823D01*
X129460024Y-122882242D01*
X129389114Y-123014906D01*
X129381004Y-123030078D01*
X129274659Y-123159659D01*
X129145078Y-123266004D01*
X129145076Y-123266005D01*
X128997242Y-123345024D01*
X128836823Y-123393687D01*
X128711804Y-123406000D01*
X127828196Y-123406000D01*
X127703177Y-123393687D01*
X127542758Y-123345024D01*
X127394924Y-123266005D01*
X127394922Y-123266004D01*
X127265341Y-123159659D01*
X127158996Y-123030078D01*
X127150886Y-123014906D01*
X127079976Y-122882242D01*
X127031313Y-122721823D01*
X127014883Y-122555000D01*
X127031313Y-122388177D01*
X127079976Y-122227758D01*
X127158995Y-122079924D01*
X127158996Y-122079922D01*
X127265341Y-121950341D01*
X127394922Y-121843996D01*
X127410094Y-121835886D01*
X127542758Y-121764976D01*
X127703177Y-121716313D01*
X127828196Y-121704000D01*
X128711804Y-121704000D01*
X128836823Y-121716313D01*
X128836823Y-121716313D01*
G37*
G36*
X146405629Y-119882719D02*
G01*
X146481142Y-119890156D01*
X146626476Y-119934243D01*
X146626479Y-119934244D01*
X146760416Y-120005835D01*
X146877817Y-120102183D01*
X146974165Y-120219584D01*
X147045756Y-120353521D01*
X147045757Y-120353524D01*
X147089844Y-120498858D01*
X147104730Y-120650000D01*
X147089844Y-120801142D01*
X147073904Y-120853687D01*
X147045756Y-120946479D01*
X146974165Y-121080416D01*
X146877817Y-121197817D01*
X146760416Y-121294165D01*
X146626479Y-121365756D01*
X146626476Y-121365757D01*
X146481142Y-121409844D01*
X146405629Y-121417281D01*
X146367873Y-121421000D01*
X145732127Y-121421000D01*
X145694371Y-121417281D01*
X145618858Y-121409844D01*
X145473524Y-121365757D01*
X145473521Y-121365756D01*
X145339584Y-121294165D01*
X145222183Y-121197817D01*
X145125835Y-121080416D01*
X145054244Y-120946479D01*
X145026096Y-120853687D01*
X145010156Y-120801142D01*
X144995270Y-120650000D01*
X145010156Y-120498858D01*
X145054243Y-120353524D01*
X145054244Y-120353521D01*
X145125835Y-120219584D01*
X145222183Y-120102183D01*
X145339584Y-120005835D01*
X145473521Y-119934244D01*
X145473524Y-119934243D01*
X145618858Y-119890156D01*
X145694371Y-119882719D01*
X145732127Y-119879000D01*
X146367873Y-119879000D01*
X146405629Y-119882719D01*
X146405629Y-119882719D01*
G37*
G36*
X151485629Y-119882719D02*
G01*
X151561142Y-119890156D01*
X151706476Y-119934243D01*
X151706479Y-119934244D01*
X151840416Y-120005835D01*
X151957817Y-120102183D01*
X152054165Y-120219584D01*
X152125756Y-120353521D01*
X152125757Y-120353524D01*
X152169844Y-120498858D01*
X152184730Y-120650000D01*
X152169844Y-120801142D01*
X152153904Y-120853687D01*
X152125756Y-120946479D01*
X152054165Y-121080416D01*
X151957817Y-121197817D01*
X151840416Y-121294165D01*
X151706479Y-121365756D01*
X151706476Y-121365757D01*
X151561142Y-121409844D01*
X151485629Y-121417281D01*
X151447873Y-121421000D01*
X150812127Y-121421000D01*
X150774371Y-121417281D01*
X150698858Y-121409844D01*
X150553524Y-121365757D01*
X150553521Y-121365756D01*
X150419584Y-121294165D01*
X150302183Y-121197817D01*
X150205835Y-121080416D01*
X150134244Y-120946479D01*
X150106096Y-120853687D01*
X150090156Y-120801142D01*
X150075270Y-120650000D01*
X150090156Y-120498858D01*
X150134243Y-120353524D01*
X150134244Y-120353521D01*
X150205835Y-120219584D01*
X150302183Y-120102183D01*
X150419584Y-120005835D01*
X150553521Y-119934244D01*
X150553524Y-119934243D01*
X150698858Y-119890156D01*
X150774371Y-119882719D01*
X150812127Y-119879000D01*
X151447873Y-119879000D01*
X151485629Y-119882719D01*
X151485629Y-119882719D01*
G37*
G36*
X138785629Y-119882719D02*
G01*
X138861142Y-119890156D01*
X139006476Y-119934243D01*
X139006479Y-119934244D01*
X139140416Y-120005835D01*
X139257817Y-120102183D01*
X139354165Y-120219584D01*
X139425756Y-120353521D01*
X139425757Y-120353524D01*
X139469844Y-120498858D01*
X139484730Y-120650000D01*
X139469844Y-120801142D01*
X139453904Y-120853687D01*
X139425756Y-120946479D01*
X139354165Y-121080416D01*
X139257817Y-121197817D01*
X139140416Y-121294165D01*
X139006479Y-121365756D01*
X139006476Y-121365757D01*
X138861142Y-121409844D01*
X138785629Y-121417281D01*
X138747873Y-121421000D01*
X138112127Y-121421000D01*
X138074371Y-121417281D01*
X137998858Y-121409844D01*
X137853524Y-121365757D01*
X137853521Y-121365756D01*
X137719584Y-121294165D01*
X137602183Y-121197817D01*
X137505835Y-121080416D01*
X137434244Y-120946479D01*
X137406096Y-120853687D01*
X137390156Y-120801142D01*
X137375270Y-120650000D01*
X137390156Y-120498858D01*
X137434243Y-120353524D01*
X137434244Y-120353521D01*
X137505835Y-120219584D01*
X137602183Y-120102183D01*
X137719584Y-120005835D01*
X137853521Y-119934244D01*
X137853524Y-119934243D01*
X137998858Y-119890156D01*
X138074371Y-119882719D01*
X138112127Y-119879000D01*
X138747873Y-119879000D01*
X138785629Y-119882719D01*
X138785629Y-119882719D01*
G37*
G36*
X136245629Y-119882719D02*
G01*
X136321142Y-119890156D01*
X136466476Y-119934243D01*
X136466479Y-119934244D01*
X136600416Y-120005835D01*
X136717817Y-120102183D01*
X136814165Y-120219584D01*
X136885756Y-120353521D01*
X136885757Y-120353524D01*
X136929844Y-120498858D01*
X136944730Y-120650000D01*
X136929844Y-120801142D01*
X136913904Y-120853687D01*
X136885756Y-120946479D01*
X136814165Y-121080416D01*
X136717817Y-121197817D01*
X136600416Y-121294165D01*
X136466479Y-121365756D01*
X136466476Y-121365757D01*
X136321142Y-121409844D01*
X136245629Y-121417281D01*
X136207873Y-121421000D01*
X135572127Y-121421000D01*
X135534371Y-121417281D01*
X135458858Y-121409844D01*
X135313524Y-121365757D01*
X135313521Y-121365756D01*
X135179584Y-121294165D01*
X135062183Y-121197817D01*
X134965835Y-121080416D01*
X134894244Y-120946479D01*
X134866096Y-120853687D01*
X134850156Y-120801142D01*
X134835270Y-120650000D01*
X134850156Y-120498858D01*
X134894243Y-120353524D01*
X134894244Y-120353521D01*
X134965835Y-120219584D01*
X135062183Y-120102183D01*
X135179584Y-120005835D01*
X135313521Y-119934244D01*
X135313524Y-119934243D01*
X135458858Y-119890156D01*
X135534371Y-119882719D01*
X135572127Y-119879000D01*
X136207873Y-119879000D01*
X136245629Y-119882719D01*
X136245629Y-119882719D01*
G37*
G36*
X128836823Y-119176313D02*
G01*
X128997242Y-119224976D01*
X129129906Y-119295886D01*
X129145078Y-119303996D01*
X129274659Y-119410341D01*
X129381004Y-119539922D01*
X129381005Y-119539924D01*
X129460024Y-119687758D01*
X129508687Y-119848177D01*
X129525117Y-120015000D01*
X129508687Y-120181823D01*
X129460024Y-120342242D01*
X129389114Y-120474906D01*
X129381004Y-120490078D01*
X129274659Y-120619659D01*
X129145078Y-120726004D01*
X129145076Y-120726005D01*
X128997242Y-120805024D01*
X128836823Y-120853687D01*
X128711804Y-120866000D01*
X127828196Y-120866000D01*
X127703177Y-120853687D01*
X127542758Y-120805024D01*
X127394924Y-120726005D01*
X127394922Y-120726004D01*
X127265341Y-120619659D01*
X127158996Y-120490078D01*
X127150886Y-120474906D01*
X127079976Y-120342242D01*
X127031313Y-120181823D01*
X127014883Y-120015000D01*
X127031313Y-119848177D01*
X127079976Y-119687758D01*
X127158995Y-119539924D01*
X127158996Y-119539922D01*
X127265341Y-119410341D01*
X127394922Y-119303996D01*
X127410094Y-119295886D01*
X127542758Y-119224976D01*
X127703177Y-119176313D01*
X127828196Y-119164000D01*
X128711804Y-119164000D01*
X128836823Y-119176313D01*
X128836823Y-119176313D01*
G37*
G36*
X121216823Y-119176313D02*
G01*
X121377242Y-119224976D01*
X121509906Y-119295886D01*
X121525078Y-119303996D01*
X121654659Y-119410341D01*
X121761004Y-119539922D01*
X121761005Y-119539924D01*
X121840024Y-119687758D01*
X121888687Y-119848177D01*
X121905117Y-120015000D01*
X121888687Y-120181823D01*
X121840024Y-120342242D01*
X121769114Y-120474906D01*
X121761004Y-120490078D01*
X121654659Y-120619659D01*
X121525078Y-120726004D01*
X121525076Y-120726005D01*
X121377242Y-120805024D01*
X121216823Y-120853687D01*
X121091804Y-120866000D01*
X120208196Y-120866000D01*
X120083177Y-120853687D01*
X119922758Y-120805024D01*
X119774924Y-120726005D01*
X119774922Y-120726004D01*
X119645341Y-120619659D01*
X119538996Y-120490078D01*
X119530886Y-120474906D01*
X119459976Y-120342242D01*
X119411313Y-120181823D01*
X119394883Y-120015000D01*
X119411313Y-119848177D01*
X119459976Y-119687758D01*
X119538995Y-119539924D01*
X119538996Y-119539922D01*
X119645341Y-119410341D01*
X119774922Y-119303996D01*
X119790094Y-119295886D01*
X119922758Y-119224976D01*
X120083177Y-119176313D01*
X120208196Y-119164000D01*
X121091804Y-119164000D01*
X121216823Y-119176313D01*
X121216823Y-119176313D01*
G37*
G36*
X151485629Y-117342719D02*
G01*
X151561142Y-117350156D01*
X151706476Y-117394243D01*
X151706479Y-117394244D01*
X151840416Y-117465835D01*
X151957817Y-117562183D01*
X152054165Y-117679584D01*
X152125756Y-117813521D01*
X152125757Y-117813524D01*
X152169844Y-117958858D01*
X152184730Y-118110000D01*
X152169844Y-118261142D01*
X152128182Y-118398481D01*
X152125756Y-118406479D01*
X152054165Y-118540416D01*
X151957817Y-118657817D01*
X151840416Y-118754165D01*
X151706479Y-118825756D01*
X151706476Y-118825757D01*
X151561142Y-118869844D01*
X151485629Y-118877281D01*
X151447873Y-118881000D01*
X150812127Y-118881000D01*
X150774371Y-118877281D01*
X150698858Y-118869844D01*
X150553524Y-118825757D01*
X150553521Y-118825756D01*
X150419584Y-118754165D01*
X150302183Y-118657817D01*
X150205835Y-118540416D01*
X150134244Y-118406479D01*
X150131818Y-118398481D01*
X150090156Y-118261142D01*
X150075270Y-118110000D01*
X150090156Y-117958858D01*
X150134243Y-117813524D01*
X150134244Y-117813521D01*
X150205835Y-117679584D01*
X150302183Y-117562183D01*
X150419584Y-117465835D01*
X150553521Y-117394244D01*
X150553524Y-117394243D01*
X150698858Y-117350156D01*
X150774371Y-117342719D01*
X150812127Y-117339000D01*
X151447873Y-117339000D01*
X151485629Y-117342719D01*
X151485629Y-117342719D01*
G37*
G36*
X138785629Y-117342719D02*
G01*
X138861142Y-117350156D01*
X139006476Y-117394243D01*
X139006479Y-117394244D01*
X139140416Y-117465835D01*
X139257817Y-117562183D01*
X139354165Y-117679584D01*
X139425756Y-117813521D01*
X139425757Y-117813524D01*
X139469844Y-117958858D01*
X139484730Y-118110000D01*
X139469844Y-118261142D01*
X139428182Y-118398481D01*
X139425756Y-118406479D01*
X139354165Y-118540416D01*
X139257817Y-118657817D01*
X139140416Y-118754165D01*
X139006479Y-118825756D01*
X139006476Y-118825757D01*
X138861142Y-118869844D01*
X138785629Y-118877281D01*
X138747873Y-118881000D01*
X138112127Y-118881000D01*
X138074371Y-118877281D01*
X137998858Y-118869844D01*
X137853524Y-118825757D01*
X137853521Y-118825756D01*
X137719584Y-118754165D01*
X137602183Y-118657817D01*
X137505835Y-118540416D01*
X137434244Y-118406479D01*
X137431818Y-118398481D01*
X137390156Y-118261142D01*
X137375270Y-118110000D01*
X137390156Y-117958858D01*
X137434243Y-117813524D01*
X137434244Y-117813521D01*
X137505835Y-117679584D01*
X137602183Y-117562183D01*
X137719584Y-117465835D01*
X137853521Y-117394244D01*
X137853524Y-117394243D01*
X137998858Y-117350156D01*
X138074371Y-117342719D01*
X138112127Y-117339000D01*
X138747873Y-117339000D01*
X138785629Y-117342719D01*
X138785629Y-117342719D01*
G37*
G36*
X146405629Y-117342719D02*
G01*
X146481142Y-117350156D01*
X146626476Y-117394243D01*
X146626479Y-117394244D01*
X146760416Y-117465835D01*
X146877817Y-117562183D01*
X146974165Y-117679584D01*
X147045756Y-117813521D01*
X147045757Y-117813524D01*
X147089844Y-117958858D01*
X147104730Y-118110000D01*
X147089844Y-118261142D01*
X147048182Y-118398481D01*
X147045756Y-118406479D01*
X146974165Y-118540416D01*
X146877817Y-118657817D01*
X146760416Y-118754165D01*
X146626479Y-118825756D01*
X146626476Y-118825757D01*
X146481142Y-118869844D01*
X146405629Y-118877281D01*
X146367873Y-118881000D01*
X145732127Y-118881000D01*
X145694371Y-118877281D01*
X145618858Y-118869844D01*
X145473524Y-118825757D01*
X145473521Y-118825756D01*
X145339584Y-118754165D01*
X145222183Y-118657817D01*
X145125835Y-118540416D01*
X145054244Y-118406479D01*
X145051818Y-118398481D01*
X145010156Y-118261142D01*
X144995270Y-118110000D01*
X145010156Y-117958858D01*
X145054243Y-117813524D01*
X145054244Y-117813521D01*
X145125835Y-117679584D01*
X145222183Y-117562183D01*
X145339584Y-117465835D01*
X145473521Y-117394244D01*
X145473524Y-117394243D01*
X145618858Y-117350156D01*
X145694371Y-117342719D01*
X145732127Y-117339000D01*
X146367873Y-117339000D01*
X146405629Y-117342719D01*
X146405629Y-117342719D01*
G37*
G36*
X136245629Y-117342719D02*
G01*
X136321142Y-117350156D01*
X136466476Y-117394243D01*
X136466479Y-117394244D01*
X136600416Y-117465835D01*
X136717817Y-117562183D01*
X136814165Y-117679584D01*
X136885756Y-117813521D01*
X136885757Y-117813524D01*
X136929844Y-117958858D01*
X136944730Y-118110000D01*
X136929844Y-118261142D01*
X136888182Y-118398481D01*
X136885756Y-118406479D01*
X136814165Y-118540416D01*
X136717817Y-118657817D01*
X136600416Y-118754165D01*
X136466479Y-118825756D01*
X136466476Y-118825757D01*
X136321142Y-118869844D01*
X136245629Y-118877281D01*
X136207873Y-118881000D01*
X135572127Y-118881000D01*
X135534371Y-118877281D01*
X135458858Y-118869844D01*
X135313524Y-118825757D01*
X135313521Y-118825756D01*
X135179584Y-118754165D01*
X135062183Y-118657817D01*
X134965835Y-118540416D01*
X134894244Y-118406479D01*
X134891818Y-118398481D01*
X134850156Y-118261142D01*
X134835270Y-118110000D01*
X134850156Y-117958858D01*
X134894243Y-117813524D01*
X134894244Y-117813521D01*
X134965835Y-117679584D01*
X135062183Y-117562183D01*
X135179584Y-117465835D01*
X135313521Y-117394244D01*
X135313524Y-117394243D01*
X135458858Y-117350156D01*
X135534371Y-117342719D01*
X135572127Y-117339000D01*
X136207873Y-117339000D01*
X136245629Y-117342719D01*
X136245629Y-117342719D01*
G37*
G36*
X157646823Y-117017313D02*
G01*
X157807242Y-117065976D01*
X157874361Y-117101852D01*
X157955078Y-117144996D01*
X158084659Y-117251341D01*
X158191004Y-117380922D01*
X158191005Y-117380924D01*
X158270024Y-117528758D01*
X158318687Y-117689177D01*
X158335117Y-117856000D01*
X158318687Y-118022823D01*
X158270024Y-118183242D01*
X158226310Y-118265025D01*
X158191004Y-118331078D01*
X158084659Y-118460659D01*
X157955078Y-118567004D01*
X157955076Y-118567005D01*
X157807242Y-118646024D01*
X157646823Y-118694687D01*
X157521804Y-118707000D01*
X157438196Y-118707000D01*
X157313177Y-118694687D01*
X157152758Y-118646024D01*
X157004924Y-118567005D01*
X157004922Y-118567004D01*
X156875341Y-118460659D01*
X156768996Y-118331078D01*
X156733690Y-118265025D01*
X156689976Y-118183242D01*
X156641313Y-118022823D01*
X156624883Y-117856000D01*
X156641313Y-117689177D01*
X156689976Y-117528758D01*
X156768995Y-117380924D01*
X156768996Y-117380922D01*
X156875341Y-117251341D01*
X157004922Y-117144996D01*
X157085639Y-117101852D01*
X157152758Y-117065976D01*
X157313177Y-117017313D01*
X157438196Y-117005000D01*
X157521804Y-117005000D01*
X157646823Y-117017313D01*
X157646823Y-117017313D01*
G37*
G36*
X167888228Y-117037703D02*
G01*
X168043100Y-117101853D01*
X168182481Y-117194985D01*
X168301015Y-117313519D01*
X168394147Y-117452900D01*
X168458297Y-117607772D01*
X168491000Y-117772184D01*
X168491000Y-117939816D01*
X168458297Y-118104228D01*
X168394147Y-118259100D01*
X168301015Y-118398481D01*
X168182481Y-118517015D01*
X168043100Y-118610147D01*
X167888228Y-118674297D01*
X167723816Y-118707000D01*
X167556184Y-118707000D01*
X167391772Y-118674297D01*
X167236900Y-118610147D01*
X167097519Y-118517015D01*
X166978985Y-118398481D01*
X166885853Y-118259100D01*
X166821703Y-118104228D01*
X166789000Y-117939816D01*
X166789000Y-117772184D01*
X166821703Y-117607772D01*
X166885853Y-117452900D01*
X166978985Y-117313519D01*
X167097519Y-117194985D01*
X167236900Y-117101853D01*
X167391772Y-117037703D01*
X167556184Y-117005000D01*
X167723816Y-117005000D01*
X167888228Y-117037703D01*
X167888228Y-117037703D01*
G37*
G36*
X121216823Y-116636313D02*
G01*
X121377242Y-116684976D01*
X121509906Y-116755886D01*
X121525078Y-116763996D01*
X121654659Y-116870341D01*
X121761004Y-116999922D01*
X121761005Y-116999924D01*
X121840024Y-117147758D01*
X121888687Y-117308177D01*
X121905117Y-117475000D01*
X121888687Y-117641823D01*
X121840024Y-117802242D01*
X121769114Y-117934906D01*
X121761004Y-117950078D01*
X121654659Y-118079659D01*
X121525078Y-118186004D01*
X121525076Y-118186005D01*
X121377242Y-118265024D01*
X121216823Y-118313687D01*
X121091804Y-118326000D01*
X120208196Y-118326000D01*
X120083177Y-118313687D01*
X119922758Y-118265024D01*
X119774924Y-118186005D01*
X119774922Y-118186004D01*
X119645341Y-118079659D01*
X119538996Y-117950078D01*
X119530886Y-117934906D01*
X119459976Y-117802242D01*
X119411313Y-117641823D01*
X119394883Y-117475000D01*
X119411313Y-117308177D01*
X119459976Y-117147758D01*
X119538995Y-116999924D01*
X119538996Y-116999922D01*
X119645341Y-116870341D01*
X119774922Y-116763996D01*
X119790094Y-116755886D01*
X119922758Y-116684976D01*
X120083177Y-116636313D01*
X120208196Y-116624000D01*
X121091804Y-116624000D01*
X121216823Y-116636313D01*
X121216823Y-116636313D01*
G37*
G36*
X128836823Y-116636313D02*
G01*
X128997242Y-116684976D01*
X129129906Y-116755886D01*
X129145078Y-116763996D01*
X129274659Y-116870341D01*
X129381004Y-116999922D01*
X129381005Y-116999924D01*
X129460024Y-117147758D01*
X129508687Y-117308177D01*
X129525117Y-117475000D01*
X129508687Y-117641823D01*
X129460024Y-117802242D01*
X129389114Y-117934906D01*
X129381004Y-117950078D01*
X129274659Y-118079659D01*
X129145078Y-118186004D01*
X129145076Y-118186005D01*
X128997242Y-118265024D01*
X128836823Y-118313687D01*
X128711804Y-118326000D01*
X127828196Y-118326000D01*
X127703177Y-118313687D01*
X127542758Y-118265024D01*
X127394924Y-118186005D01*
X127394922Y-118186004D01*
X127265341Y-118079659D01*
X127158996Y-117950078D01*
X127150886Y-117934906D01*
X127079976Y-117802242D01*
X127031313Y-117641823D01*
X127014883Y-117475000D01*
X127031313Y-117308177D01*
X127079976Y-117147758D01*
X127158995Y-116999924D01*
X127158996Y-116999922D01*
X127265341Y-116870341D01*
X127394922Y-116763996D01*
X127410094Y-116755886D01*
X127542758Y-116684976D01*
X127703177Y-116636313D01*
X127828196Y-116624000D01*
X128711804Y-116624000D01*
X128836823Y-116636313D01*
X128836823Y-116636313D01*
G37*
G36*
X185723873Y-114535888D02*
G01*
X185938822Y-114624923D01*
X186132265Y-114754177D01*
X186296783Y-114918695D01*
X186426037Y-115112138D01*
X186515072Y-115327087D01*
X186560460Y-115555270D01*
X186560460Y-115787930D01*
X186515072Y-116016113D01*
X186426037Y-116231062D01*
X186296783Y-116424505D01*
X186132265Y-116589023D01*
X185938822Y-116718277D01*
X185723873Y-116807312D01*
X185495690Y-116852700D01*
X185263030Y-116852700D01*
X185034847Y-116807312D01*
X184819898Y-116718277D01*
X184626455Y-116589023D01*
X184461937Y-116424505D01*
X184332683Y-116231062D01*
X184243648Y-116016113D01*
X184198260Y-115787930D01*
X184198260Y-115555270D01*
X184243648Y-115327087D01*
X184332683Y-115112138D01*
X184461937Y-114918695D01*
X184626455Y-114754177D01*
X184819898Y-114624923D01*
X185034847Y-114535888D01*
X185263030Y-114490500D01*
X185495690Y-114490500D01*
X185723873Y-114535888D01*
X185723873Y-114535888D01*
G37*
G36*
X180725153Y-114535888D02*
G01*
X180940102Y-114624923D01*
X181133545Y-114754177D01*
X181298063Y-114918695D01*
X181427317Y-115112138D01*
X181516352Y-115327087D01*
X181561740Y-115555270D01*
X181561740Y-115787930D01*
X181516352Y-116016113D01*
X181427317Y-116231062D01*
X181298063Y-116424505D01*
X181133545Y-116589023D01*
X180940102Y-116718277D01*
X180725153Y-116807312D01*
X180496970Y-116852700D01*
X180264310Y-116852700D01*
X180036127Y-116807312D01*
X179821178Y-116718277D01*
X179627735Y-116589023D01*
X179463217Y-116424505D01*
X179333963Y-116231062D01*
X179244928Y-116016113D01*
X179199540Y-115787930D01*
X179199540Y-115555270D01*
X179244928Y-115327087D01*
X179333963Y-115112138D01*
X179463217Y-114918695D01*
X179627735Y-114754177D01*
X179821178Y-114624923D01*
X180036127Y-114535888D01*
X180264310Y-114490500D01*
X180496970Y-114490500D01*
X180725153Y-114535888D01*
X180725153Y-114535888D01*
G37*
G36*
X151485629Y-114802719D02*
G01*
X151561142Y-114810156D01*
X151706476Y-114854243D01*
X151706479Y-114854244D01*
X151840416Y-114925835D01*
X151957817Y-115022183D01*
X152054165Y-115139584D01*
X152125756Y-115273521D01*
X152125757Y-115273524D01*
X152169844Y-115418858D01*
X152184730Y-115570000D01*
X152169844Y-115721142D01*
X152153904Y-115773687D01*
X152125756Y-115866479D01*
X152054165Y-116000416D01*
X151957817Y-116117817D01*
X151840416Y-116214165D01*
X151706479Y-116285756D01*
X151706476Y-116285757D01*
X151561142Y-116329844D01*
X151485629Y-116337281D01*
X151447873Y-116341000D01*
X150812127Y-116341000D01*
X150774371Y-116337281D01*
X150698858Y-116329844D01*
X150553524Y-116285757D01*
X150553521Y-116285756D01*
X150419584Y-116214165D01*
X150302183Y-116117817D01*
X150205835Y-116000416D01*
X150134244Y-115866479D01*
X150106096Y-115773687D01*
X150090156Y-115721142D01*
X150075270Y-115570000D01*
X150090156Y-115418858D01*
X150134243Y-115273524D01*
X150134244Y-115273521D01*
X150205835Y-115139584D01*
X150302183Y-115022183D01*
X150419584Y-114925835D01*
X150553521Y-114854244D01*
X150553524Y-114854243D01*
X150698858Y-114810156D01*
X150774371Y-114802719D01*
X150812127Y-114799000D01*
X151447873Y-114799000D01*
X151485629Y-114802719D01*
X151485629Y-114802719D01*
G37*
G36*
X146405629Y-114802719D02*
G01*
X146481142Y-114810156D01*
X146626476Y-114854243D01*
X146626479Y-114854244D01*
X146760416Y-114925835D01*
X146877817Y-115022183D01*
X146974165Y-115139584D01*
X147045756Y-115273521D01*
X147045757Y-115273524D01*
X147089844Y-115418858D01*
X147104730Y-115570000D01*
X147089844Y-115721142D01*
X147073904Y-115773687D01*
X147045756Y-115866479D01*
X146974165Y-116000416D01*
X146877817Y-116117817D01*
X146760416Y-116214165D01*
X146626479Y-116285756D01*
X146626476Y-116285757D01*
X146481142Y-116329844D01*
X146405629Y-116337281D01*
X146367873Y-116341000D01*
X145732127Y-116341000D01*
X145694371Y-116337281D01*
X145618858Y-116329844D01*
X145473524Y-116285757D01*
X145473521Y-116285756D01*
X145339584Y-116214165D01*
X145222183Y-116117817D01*
X145125835Y-116000416D01*
X145054244Y-115866479D01*
X145026096Y-115773687D01*
X145010156Y-115721142D01*
X144995270Y-115570000D01*
X145010156Y-115418858D01*
X145054243Y-115273524D01*
X145054244Y-115273521D01*
X145125835Y-115139584D01*
X145222183Y-115022183D01*
X145339584Y-114925835D01*
X145473521Y-114854244D01*
X145473524Y-114854243D01*
X145618858Y-114810156D01*
X145694371Y-114802719D01*
X145732127Y-114799000D01*
X146367873Y-114799000D01*
X146405629Y-114802719D01*
X146405629Y-114802719D01*
G37*
G36*
X136245629Y-114802719D02*
G01*
X136321142Y-114810156D01*
X136466476Y-114854243D01*
X136466479Y-114854244D01*
X136600416Y-114925835D01*
X136717817Y-115022183D01*
X136814165Y-115139584D01*
X136885756Y-115273521D01*
X136885757Y-115273524D01*
X136929844Y-115418858D01*
X136944730Y-115570000D01*
X136929844Y-115721142D01*
X136913904Y-115773687D01*
X136885756Y-115866479D01*
X136814165Y-116000416D01*
X136717817Y-116117817D01*
X136600416Y-116214165D01*
X136466479Y-116285756D01*
X136466476Y-116285757D01*
X136321142Y-116329844D01*
X136245629Y-116337281D01*
X136207873Y-116341000D01*
X135572127Y-116341000D01*
X135534371Y-116337281D01*
X135458858Y-116329844D01*
X135313524Y-116285757D01*
X135313521Y-116285756D01*
X135179584Y-116214165D01*
X135062183Y-116117817D01*
X134965835Y-116000416D01*
X134894244Y-115866479D01*
X134866096Y-115773687D01*
X134850156Y-115721142D01*
X134835270Y-115570000D01*
X134850156Y-115418858D01*
X134894243Y-115273524D01*
X134894244Y-115273521D01*
X134965835Y-115139584D01*
X135062183Y-115022183D01*
X135179584Y-114925835D01*
X135313521Y-114854244D01*
X135313524Y-114854243D01*
X135458858Y-114810156D01*
X135534371Y-114802719D01*
X135572127Y-114799000D01*
X136207873Y-114799000D01*
X136245629Y-114802719D01*
X136245629Y-114802719D01*
G37*
G36*
X138785629Y-114802719D02*
G01*
X138861142Y-114810156D01*
X139006476Y-114854243D01*
X139006479Y-114854244D01*
X139140416Y-114925835D01*
X139257817Y-115022183D01*
X139354165Y-115139584D01*
X139425756Y-115273521D01*
X139425757Y-115273524D01*
X139469844Y-115418858D01*
X139484730Y-115570000D01*
X139469844Y-115721142D01*
X139453904Y-115773687D01*
X139425756Y-115866479D01*
X139354165Y-116000416D01*
X139257817Y-116117817D01*
X139140416Y-116214165D01*
X139006479Y-116285756D01*
X139006476Y-116285757D01*
X138861142Y-116329844D01*
X138785629Y-116337281D01*
X138747873Y-116341000D01*
X138112127Y-116341000D01*
X138074371Y-116337281D01*
X137998858Y-116329844D01*
X137853524Y-116285757D01*
X137853521Y-116285756D01*
X137719584Y-116214165D01*
X137602183Y-116117817D01*
X137505835Y-116000416D01*
X137434244Y-115866479D01*
X137406096Y-115773687D01*
X137390156Y-115721142D01*
X137375270Y-115570000D01*
X137390156Y-115418858D01*
X137434243Y-115273524D01*
X137434244Y-115273521D01*
X137505835Y-115139584D01*
X137602183Y-115022183D01*
X137719584Y-114925835D01*
X137853521Y-114854244D01*
X137853524Y-114854243D01*
X137998858Y-114810156D01*
X138074371Y-114802719D01*
X138112127Y-114799000D01*
X138747873Y-114799000D01*
X138785629Y-114802719D01*
X138785629Y-114802719D01*
G37*
G36*
X128836823Y-114096313D02*
G01*
X128997242Y-114144976D01*
X129129906Y-114215886D01*
X129145078Y-114223996D01*
X129274659Y-114330341D01*
X129381004Y-114459922D01*
X129381005Y-114459924D01*
X129460024Y-114607758D01*
X129508687Y-114768177D01*
X129525117Y-114935000D01*
X129508687Y-115101823D01*
X129460024Y-115262242D01*
X129389114Y-115394906D01*
X129381004Y-115410078D01*
X129274659Y-115539659D01*
X129145078Y-115646004D01*
X129145076Y-115646005D01*
X128997242Y-115725024D01*
X128836823Y-115773687D01*
X128711804Y-115786000D01*
X127828196Y-115786000D01*
X127703177Y-115773687D01*
X127542758Y-115725024D01*
X127394924Y-115646005D01*
X127394922Y-115646004D01*
X127265341Y-115539659D01*
X127158996Y-115410078D01*
X127150886Y-115394906D01*
X127079976Y-115262242D01*
X127031313Y-115101823D01*
X127014883Y-114935000D01*
X127031313Y-114768177D01*
X127079976Y-114607758D01*
X127158995Y-114459924D01*
X127158996Y-114459922D01*
X127265341Y-114330341D01*
X127394922Y-114223996D01*
X127410094Y-114215886D01*
X127542758Y-114144976D01*
X127703177Y-114096313D01*
X127828196Y-114084000D01*
X128711804Y-114084000D01*
X128836823Y-114096313D01*
X128836823Y-114096313D01*
G37*
G36*
X121216823Y-114096313D02*
G01*
X121377242Y-114144976D01*
X121509906Y-114215886D01*
X121525078Y-114223996D01*
X121654659Y-114330341D01*
X121761004Y-114459922D01*
X121761005Y-114459924D01*
X121840024Y-114607758D01*
X121888687Y-114768177D01*
X121905117Y-114935000D01*
X121888687Y-115101823D01*
X121840024Y-115262242D01*
X121769114Y-115394906D01*
X121761004Y-115410078D01*
X121654659Y-115539659D01*
X121525078Y-115646004D01*
X121525076Y-115646005D01*
X121377242Y-115725024D01*
X121216823Y-115773687D01*
X121091804Y-115786000D01*
X120208196Y-115786000D01*
X120083177Y-115773687D01*
X119922758Y-115725024D01*
X119774924Y-115646005D01*
X119774922Y-115646004D01*
X119645341Y-115539659D01*
X119538996Y-115410078D01*
X119530886Y-115394906D01*
X119459976Y-115262242D01*
X119411313Y-115101823D01*
X119394883Y-114935000D01*
X119411313Y-114768177D01*
X119459976Y-114607758D01*
X119538995Y-114459924D01*
X119538996Y-114459922D01*
X119645341Y-114330341D01*
X119774922Y-114223996D01*
X119790094Y-114215886D01*
X119922758Y-114144976D01*
X120083177Y-114096313D01*
X120208196Y-114084000D01*
X121091804Y-114084000D01*
X121216823Y-114096313D01*
X121216823Y-114096313D01*
G37*
G36*
X157940443Y-113405519D02*
G01*
X158006627Y-113412037D01*
X158176466Y-113463557D01*
X158332991Y-113547222D01*
X158368729Y-113576552D01*
X158470186Y-113659814D01*
X158553448Y-113761271D01*
X158582778Y-113797009D01*
X158666443Y-113953534D01*
X158717963Y-114123373D01*
X158735359Y-114300000D01*
X158717963Y-114476627D01*
X158666443Y-114646466D01*
X158582778Y-114802991D01*
X158553448Y-114838729D01*
X158470186Y-114940186D01*
X158370271Y-115022183D01*
X158332991Y-115052778D01*
X158176466Y-115136443D01*
X158006627Y-115187963D01*
X157940442Y-115194482D01*
X157874260Y-115201000D01*
X157085740Y-115201000D01*
X157019558Y-115194482D01*
X156953373Y-115187963D01*
X156783534Y-115136443D01*
X156627009Y-115052778D01*
X156589729Y-115022183D01*
X156489814Y-114940186D01*
X156406552Y-114838729D01*
X156377222Y-114802991D01*
X156293557Y-114646466D01*
X156242037Y-114476627D01*
X156224641Y-114300000D01*
X156242037Y-114123373D01*
X156293557Y-113953534D01*
X156377222Y-113797009D01*
X156406552Y-113761271D01*
X156489814Y-113659814D01*
X156591271Y-113576552D01*
X156627009Y-113547222D01*
X156783534Y-113463557D01*
X156953373Y-113412037D01*
X157019557Y-113405519D01*
X157085740Y-113399000D01*
X157874260Y-113399000D01*
X157940443Y-113405519D01*
X157940443Y-113405519D01*
G37*
G36*
X173971000Y-115201000D02*
G01*
X171469000Y-115201000D01*
X171469000Y-113399000D01*
X173971000Y-113399000D01*
X173971000Y-115201000D01*
X173971000Y-115201000D01*
G37*
G36*
X146405629Y-112262719D02*
G01*
X146481142Y-112270156D01*
X146626476Y-112314243D01*
X146626479Y-112314244D01*
X146760416Y-112385835D01*
X146877817Y-112482183D01*
X146974165Y-112599584D01*
X147045756Y-112733521D01*
X147045757Y-112733524D01*
X147089844Y-112878858D01*
X147104730Y-113030000D01*
X147089844Y-113181142D01*
X147073904Y-113233687D01*
X147045756Y-113326479D01*
X146974165Y-113460416D01*
X146877817Y-113577817D01*
X146760416Y-113674165D01*
X146626479Y-113745756D01*
X146626476Y-113745757D01*
X146481142Y-113789844D01*
X146408394Y-113797009D01*
X146367873Y-113801000D01*
X145732127Y-113801000D01*
X145691606Y-113797009D01*
X145618858Y-113789844D01*
X145473524Y-113745757D01*
X145473521Y-113745756D01*
X145339584Y-113674165D01*
X145222183Y-113577817D01*
X145125835Y-113460416D01*
X145054244Y-113326479D01*
X145026096Y-113233687D01*
X145010156Y-113181142D01*
X144995270Y-113030000D01*
X145010156Y-112878858D01*
X145054243Y-112733524D01*
X145054244Y-112733521D01*
X145125835Y-112599584D01*
X145222183Y-112482183D01*
X145339584Y-112385835D01*
X145473521Y-112314244D01*
X145473524Y-112314243D01*
X145618858Y-112270156D01*
X145694371Y-112262719D01*
X145732127Y-112259000D01*
X146367873Y-112259000D01*
X146405629Y-112262719D01*
X146405629Y-112262719D01*
G37*
G36*
X136245629Y-112262719D02*
G01*
X136321142Y-112270156D01*
X136466476Y-112314243D01*
X136466479Y-112314244D01*
X136600416Y-112385835D01*
X136717817Y-112482183D01*
X136814165Y-112599584D01*
X136885756Y-112733521D01*
X136885757Y-112733524D01*
X136929844Y-112878858D01*
X136944730Y-113030000D01*
X136929844Y-113181142D01*
X136913904Y-113233687D01*
X136885756Y-113326479D01*
X136814165Y-113460416D01*
X136717817Y-113577817D01*
X136600416Y-113674165D01*
X136466479Y-113745756D01*
X136466476Y-113745757D01*
X136321142Y-113789844D01*
X136248394Y-113797009D01*
X136207873Y-113801000D01*
X135572127Y-113801000D01*
X135531606Y-113797009D01*
X135458858Y-113789844D01*
X135313524Y-113745757D01*
X135313521Y-113745756D01*
X135179584Y-113674165D01*
X135062183Y-113577817D01*
X134965835Y-113460416D01*
X134894244Y-113326479D01*
X134866096Y-113233687D01*
X134850156Y-113181142D01*
X134835270Y-113030000D01*
X134850156Y-112878858D01*
X134894243Y-112733524D01*
X134894244Y-112733521D01*
X134965835Y-112599584D01*
X135062183Y-112482183D01*
X135179584Y-112385835D01*
X135313521Y-112314244D01*
X135313524Y-112314243D01*
X135458858Y-112270156D01*
X135534371Y-112262719D01*
X135572127Y-112259000D01*
X136207873Y-112259000D01*
X136245629Y-112262719D01*
X136245629Y-112262719D01*
G37*
G36*
X151485629Y-112262719D02*
G01*
X151561142Y-112270156D01*
X151706476Y-112314243D01*
X151706479Y-112314244D01*
X151840416Y-112385835D01*
X151957817Y-112482183D01*
X152054165Y-112599584D01*
X152125756Y-112733521D01*
X152125757Y-112733524D01*
X152169844Y-112878858D01*
X152184730Y-113030000D01*
X152169844Y-113181142D01*
X152153904Y-113233687D01*
X152125756Y-113326479D01*
X152054165Y-113460416D01*
X151957817Y-113577817D01*
X151840416Y-113674165D01*
X151706479Y-113745756D01*
X151706476Y-113745757D01*
X151561142Y-113789844D01*
X151488394Y-113797009D01*
X151447873Y-113801000D01*
X150812127Y-113801000D01*
X150771606Y-113797009D01*
X150698858Y-113789844D01*
X150553524Y-113745757D01*
X150553521Y-113745756D01*
X150419584Y-113674165D01*
X150302183Y-113577817D01*
X150205835Y-113460416D01*
X150134244Y-113326479D01*
X150106096Y-113233687D01*
X150090156Y-113181142D01*
X150075270Y-113030000D01*
X150090156Y-112878858D01*
X150134243Y-112733524D01*
X150134244Y-112733521D01*
X150205835Y-112599584D01*
X150302183Y-112482183D01*
X150419584Y-112385835D01*
X150553521Y-112314244D01*
X150553524Y-112314243D01*
X150698858Y-112270156D01*
X150774371Y-112262719D01*
X150812127Y-112259000D01*
X151447873Y-112259000D01*
X151485629Y-112262719D01*
X151485629Y-112262719D01*
G37*
G36*
X138785629Y-112262719D02*
G01*
X138861142Y-112270156D01*
X139006476Y-112314243D01*
X139006479Y-112314244D01*
X139140416Y-112385835D01*
X139257817Y-112482183D01*
X139354165Y-112599584D01*
X139425756Y-112733521D01*
X139425757Y-112733524D01*
X139469844Y-112878858D01*
X139484730Y-113030000D01*
X139469844Y-113181142D01*
X139453904Y-113233687D01*
X139425756Y-113326479D01*
X139354165Y-113460416D01*
X139257817Y-113577817D01*
X139140416Y-113674165D01*
X139006479Y-113745756D01*
X139006476Y-113745757D01*
X138861142Y-113789844D01*
X138788394Y-113797009D01*
X138747873Y-113801000D01*
X138112127Y-113801000D01*
X138071606Y-113797009D01*
X137998858Y-113789844D01*
X137853524Y-113745757D01*
X137853521Y-113745756D01*
X137719584Y-113674165D01*
X137602183Y-113577817D01*
X137505835Y-113460416D01*
X137434244Y-113326479D01*
X137406096Y-113233687D01*
X137390156Y-113181142D01*
X137375270Y-113030000D01*
X137390156Y-112878858D01*
X137434243Y-112733524D01*
X137434244Y-112733521D01*
X137505835Y-112599584D01*
X137602183Y-112482183D01*
X137719584Y-112385835D01*
X137853521Y-112314244D01*
X137853524Y-112314243D01*
X137998858Y-112270156D01*
X138074371Y-112262719D01*
X138112127Y-112259000D01*
X138747873Y-112259000D01*
X138785629Y-112262719D01*
X138785629Y-112262719D01*
G37*
G36*
X128836823Y-111556313D02*
G01*
X128997242Y-111604976D01*
X129129906Y-111675886D01*
X129145078Y-111683996D01*
X129274659Y-111790341D01*
X129381004Y-111919922D01*
X129381005Y-111919924D01*
X129460024Y-112067758D01*
X129508687Y-112228177D01*
X129525117Y-112395000D01*
X129508687Y-112561823D01*
X129460024Y-112722242D01*
X129389114Y-112854906D01*
X129381004Y-112870078D01*
X129274659Y-112999659D01*
X129145078Y-113106004D01*
X129145076Y-113106005D01*
X128997242Y-113185024D01*
X128836823Y-113233687D01*
X128711804Y-113246000D01*
X127828196Y-113246000D01*
X127703177Y-113233687D01*
X127542758Y-113185024D01*
X127394924Y-113106005D01*
X127394922Y-113106004D01*
X127265341Y-112999659D01*
X127158996Y-112870078D01*
X127150886Y-112854906D01*
X127079976Y-112722242D01*
X127031313Y-112561823D01*
X127014883Y-112395000D01*
X127031313Y-112228177D01*
X127079976Y-112067758D01*
X127158995Y-111919924D01*
X127158996Y-111919922D01*
X127265341Y-111790341D01*
X127394922Y-111683996D01*
X127410094Y-111675886D01*
X127542758Y-111604976D01*
X127703177Y-111556313D01*
X127828196Y-111544000D01*
X128711804Y-111544000D01*
X128836823Y-111556313D01*
X128836823Y-111556313D01*
G37*
G36*
X121216823Y-111556313D02*
G01*
X121377242Y-111604976D01*
X121509906Y-111675886D01*
X121525078Y-111683996D01*
X121654659Y-111790341D01*
X121761004Y-111919922D01*
X121761005Y-111919924D01*
X121840024Y-112067758D01*
X121888687Y-112228177D01*
X121905117Y-112395000D01*
X121888687Y-112561823D01*
X121840024Y-112722242D01*
X121769114Y-112854906D01*
X121761004Y-112870078D01*
X121654659Y-112999659D01*
X121525078Y-113106004D01*
X121525076Y-113106005D01*
X121377242Y-113185024D01*
X121216823Y-113233687D01*
X121091804Y-113246000D01*
X120208196Y-113246000D01*
X120083177Y-113233687D01*
X119922758Y-113185024D01*
X119774924Y-113106005D01*
X119774922Y-113106004D01*
X119645341Y-112999659D01*
X119538996Y-112870078D01*
X119530886Y-112854906D01*
X119459976Y-112722242D01*
X119411313Y-112561823D01*
X119394883Y-112395000D01*
X119411313Y-112228177D01*
X119459976Y-112067758D01*
X119538995Y-111919924D01*
X119538996Y-111919922D01*
X119645341Y-111790341D01*
X119774922Y-111683996D01*
X119790094Y-111675886D01*
X119922758Y-111604976D01*
X120083177Y-111556313D01*
X120208196Y-111544000D01*
X121091804Y-111544000D01*
X121216823Y-111556313D01*
X121216823Y-111556313D01*
G37*
G36*
X157940442Y-110865518D02*
G01*
X158006627Y-110872037D01*
X158176466Y-110923557D01*
X158332991Y-111007222D01*
X158368729Y-111036552D01*
X158470186Y-111119814D01*
X158553448Y-111221271D01*
X158582778Y-111257009D01*
X158666443Y-111413534D01*
X158717963Y-111583373D01*
X158735359Y-111760000D01*
X158717963Y-111936627D01*
X158666443Y-112106466D01*
X158582778Y-112262991D01*
X158553448Y-112298729D01*
X158470186Y-112400186D01*
X158370271Y-112482183D01*
X158332991Y-112512778D01*
X158176466Y-112596443D01*
X158006627Y-112647963D01*
X157940442Y-112654482D01*
X157874260Y-112661000D01*
X157085740Y-112661000D01*
X157019558Y-112654482D01*
X156953373Y-112647963D01*
X156783534Y-112596443D01*
X156627009Y-112512778D01*
X156589729Y-112482183D01*
X156489814Y-112400186D01*
X156406552Y-112298729D01*
X156377222Y-112262991D01*
X156293557Y-112106466D01*
X156242037Y-111936627D01*
X156224641Y-111760000D01*
X156242037Y-111583373D01*
X156293557Y-111413534D01*
X156377222Y-111257009D01*
X156406552Y-111221271D01*
X156489814Y-111119814D01*
X156591271Y-111036552D01*
X156627009Y-111007222D01*
X156783534Y-110923557D01*
X156953373Y-110872037D01*
X157019558Y-110865518D01*
X157085740Y-110859000D01*
X157874260Y-110859000D01*
X157940442Y-110865518D01*
X157940442Y-110865518D01*
G37*
G36*
X173180442Y-110865518D02*
G01*
X173246627Y-110872037D01*
X173416466Y-110923557D01*
X173572991Y-111007222D01*
X173608729Y-111036552D01*
X173710186Y-111119814D01*
X173793448Y-111221271D01*
X173822778Y-111257009D01*
X173906443Y-111413534D01*
X173957963Y-111583373D01*
X173975359Y-111760000D01*
X173957963Y-111936627D01*
X173906443Y-112106466D01*
X173822778Y-112262991D01*
X173793448Y-112298729D01*
X173710186Y-112400186D01*
X173610271Y-112482183D01*
X173572991Y-112512778D01*
X173416466Y-112596443D01*
X173246627Y-112647963D01*
X173180442Y-112654482D01*
X173114260Y-112661000D01*
X172325740Y-112661000D01*
X172259558Y-112654482D01*
X172193373Y-112647963D01*
X172023534Y-112596443D01*
X171867009Y-112512778D01*
X171829729Y-112482183D01*
X171729814Y-112400186D01*
X171646552Y-112298729D01*
X171617222Y-112262991D01*
X171533557Y-112106466D01*
X171482037Y-111936627D01*
X171464641Y-111760000D01*
X171482037Y-111583373D01*
X171533557Y-111413534D01*
X171617222Y-111257009D01*
X171646552Y-111221271D01*
X171729814Y-111119814D01*
X171831271Y-111036552D01*
X171867009Y-111007222D01*
X172023534Y-110923557D01*
X172193373Y-110872037D01*
X172259558Y-110865518D01*
X172325740Y-110859000D01*
X173114260Y-110859000D01*
X173180442Y-110865518D01*
X173180442Y-110865518D01*
G37*
G36*
X180506823Y-110921313D02*
G01*
X180667242Y-110969976D01*
X180736922Y-111007221D01*
X180815078Y-111048996D01*
X180944659Y-111155341D01*
X181051004Y-111284922D01*
X181051005Y-111284924D01*
X181130024Y-111432758D01*
X181178687Y-111593177D01*
X181195117Y-111760000D01*
X181178687Y-111926823D01*
X181130024Y-112087242D01*
X181119747Y-112106468D01*
X181051004Y-112235078D01*
X180944659Y-112364659D01*
X180815078Y-112471004D01*
X180815076Y-112471005D01*
X180667242Y-112550024D01*
X180506823Y-112598687D01*
X180381804Y-112611000D01*
X180298196Y-112611000D01*
X180173177Y-112598687D01*
X180012758Y-112550024D01*
X179864924Y-112471005D01*
X179864922Y-112471004D01*
X179735341Y-112364659D01*
X179628996Y-112235078D01*
X179560253Y-112106468D01*
X179549976Y-112087242D01*
X179501313Y-111926823D01*
X179484883Y-111760000D01*
X179501313Y-111593177D01*
X179549976Y-111432758D01*
X179628995Y-111284924D01*
X179628996Y-111284922D01*
X179735341Y-111155341D01*
X179864922Y-111048996D01*
X179943078Y-111007221D01*
X180012758Y-110969976D01*
X180173177Y-110921313D01*
X180298196Y-110909000D01*
X180381804Y-110909000D01*
X180506823Y-110921313D01*
X180506823Y-110921313D01*
G37*
G36*
X185586823Y-110921313D02*
G01*
X185747242Y-110969976D01*
X185816922Y-111007221D01*
X185895078Y-111048996D01*
X186024659Y-111155341D01*
X186131004Y-111284922D01*
X186131005Y-111284924D01*
X186210024Y-111432758D01*
X186258687Y-111593177D01*
X186275117Y-111760000D01*
X186258687Y-111926823D01*
X186210024Y-112087242D01*
X186199747Y-112106468D01*
X186131004Y-112235078D01*
X186024659Y-112364659D01*
X185895078Y-112471004D01*
X185895076Y-112471005D01*
X185747242Y-112550024D01*
X185586823Y-112598687D01*
X185461804Y-112611000D01*
X185378196Y-112611000D01*
X185253177Y-112598687D01*
X185092758Y-112550024D01*
X184944924Y-112471005D01*
X184944922Y-112471004D01*
X184815341Y-112364659D01*
X184708996Y-112235078D01*
X184640253Y-112106468D01*
X184629976Y-112087242D01*
X184581313Y-111926823D01*
X184564883Y-111760000D01*
X184581313Y-111593177D01*
X184629976Y-111432758D01*
X184708995Y-111284924D01*
X184708996Y-111284922D01*
X184815341Y-111155341D01*
X184944922Y-111048996D01*
X185023078Y-111007221D01*
X185092758Y-110969976D01*
X185253177Y-110921313D01*
X185378196Y-110909000D01*
X185461804Y-110909000D01*
X185586823Y-110921313D01*
X185586823Y-110921313D01*
G37*
G36*
X136245629Y-109722719D02*
G01*
X136321142Y-109730156D01*
X136466476Y-109774243D01*
X136466479Y-109774244D01*
X136600416Y-109845835D01*
X136717817Y-109942183D01*
X136814165Y-110059584D01*
X136885756Y-110193521D01*
X136885757Y-110193524D01*
X136929844Y-110338858D01*
X136944730Y-110490000D01*
X136929844Y-110641142D01*
X136913904Y-110693687D01*
X136885756Y-110786479D01*
X136814165Y-110920416D01*
X136717817Y-111037817D01*
X136600416Y-111134165D01*
X136466479Y-111205756D01*
X136466476Y-111205757D01*
X136321142Y-111249844D01*
X136248394Y-111257009D01*
X136207873Y-111261000D01*
X135572127Y-111261000D01*
X135531606Y-111257009D01*
X135458858Y-111249844D01*
X135313524Y-111205757D01*
X135313521Y-111205756D01*
X135179584Y-111134165D01*
X135062183Y-111037817D01*
X134965835Y-110920416D01*
X134894244Y-110786479D01*
X134866096Y-110693687D01*
X134850156Y-110641142D01*
X134835270Y-110490000D01*
X134850156Y-110338858D01*
X134894243Y-110193524D01*
X134894244Y-110193521D01*
X134965835Y-110059584D01*
X135062183Y-109942183D01*
X135179584Y-109845835D01*
X135313521Y-109774244D01*
X135313524Y-109774243D01*
X135458858Y-109730156D01*
X135534371Y-109722719D01*
X135572127Y-109719000D01*
X136207873Y-109719000D01*
X136245629Y-109722719D01*
X136245629Y-109722719D01*
G37*
G36*
X146405629Y-109722719D02*
G01*
X146481142Y-109730156D01*
X146626476Y-109774243D01*
X146626479Y-109774244D01*
X146760416Y-109845835D01*
X146877817Y-109942183D01*
X146974165Y-110059584D01*
X147045756Y-110193521D01*
X147045757Y-110193524D01*
X147089844Y-110338858D01*
X147104730Y-110490000D01*
X147089844Y-110641142D01*
X147073904Y-110693687D01*
X147045756Y-110786479D01*
X146974165Y-110920416D01*
X146877817Y-111037817D01*
X146760416Y-111134165D01*
X146626479Y-111205756D01*
X146626476Y-111205757D01*
X146481142Y-111249844D01*
X146408394Y-111257009D01*
X146367873Y-111261000D01*
X145732127Y-111261000D01*
X145691606Y-111257009D01*
X145618858Y-111249844D01*
X145473524Y-111205757D01*
X145473521Y-111205756D01*
X145339584Y-111134165D01*
X145222183Y-111037817D01*
X145125835Y-110920416D01*
X145054244Y-110786479D01*
X145026096Y-110693687D01*
X145010156Y-110641142D01*
X144995270Y-110490000D01*
X145010156Y-110338858D01*
X145054243Y-110193524D01*
X145054244Y-110193521D01*
X145125835Y-110059584D01*
X145222183Y-109942183D01*
X145339584Y-109845835D01*
X145473521Y-109774244D01*
X145473524Y-109774243D01*
X145618858Y-109730156D01*
X145694371Y-109722719D01*
X145732127Y-109719000D01*
X146367873Y-109719000D01*
X146405629Y-109722719D01*
X146405629Y-109722719D01*
G37*
G36*
X151485629Y-109722719D02*
G01*
X151561142Y-109730156D01*
X151706476Y-109774243D01*
X151706479Y-109774244D01*
X151840416Y-109845835D01*
X151957817Y-109942183D01*
X152054165Y-110059584D01*
X152125756Y-110193521D01*
X152125757Y-110193524D01*
X152169844Y-110338858D01*
X152184730Y-110490000D01*
X152169844Y-110641142D01*
X152153904Y-110693687D01*
X152125756Y-110786479D01*
X152054165Y-110920416D01*
X151957817Y-111037817D01*
X151840416Y-111134165D01*
X151706479Y-111205756D01*
X151706476Y-111205757D01*
X151561142Y-111249844D01*
X151488394Y-111257009D01*
X151447873Y-111261000D01*
X150812127Y-111261000D01*
X150771606Y-111257009D01*
X150698858Y-111249844D01*
X150553524Y-111205757D01*
X150553521Y-111205756D01*
X150419584Y-111134165D01*
X150302183Y-111037817D01*
X150205835Y-110920416D01*
X150134244Y-110786479D01*
X150106096Y-110693687D01*
X150090156Y-110641142D01*
X150075270Y-110490000D01*
X150090156Y-110338858D01*
X150134243Y-110193524D01*
X150134244Y-110193521D01*
X150205835Y-110059584D01*
X150302183Y-109942183D01*
X150419584Y-109845835D01*
X150553521Y-109774244D01*
X150553524Y-109774243D01*
X150698858Y-109730156D01*
X150774371Y-109722719D01*
X150812127Y-109719000D01*
X151447873Y-109719000D01*
X151485629Y-109722719D01*
X151485629Y-109722719D01*
G37*
G36*
X138785629Y-109722719D02*
G01*
X138861142Y-109730156D01*
X139006476Y-109774243D01*
X139006479Y-109774244D01*
X139140416Y-109845835D01*
X139257817Y-109942183D01*
X139354165Y-110059584D01*
X139425756Y-110193521D01*
X139425757Y-110193524D01*
X139469844Y-110338858D01*
X139484730Y-110490000D01*
X139469844Y-110641142D01*
X139453904Y-110693687D01*
X139425756Y-110786479D01*
X139354165Y-110920416D01*
X139257817Y-111037817D01*
X139140416Y-111134165D01*
X139006479Y-111205756D01*
X139006476Y-111205757D01*
X138861142Y-111249844D01*
X138788394Y-111257009D01*
X138747873Y-111261000D01*
X138112127Y-111261000D01*
X138071606Y-111257009D01*
X137998858Y-111249844D01*
X137853524Y-111205757D01*
X137853521Y-111205756D01*
X137719584Y-111134165D01*
X137602183Y-111037817D01*
X137505835Y-110920416D01*
X137434244Y-110786479D01*
X137406096Y-110693687D01*
X137390156Y-110641142D01*
X137375270Y-110490000D01*
X137390156Y-110338858D01*
X137434243Y-110193524D01*
X137434244Y-110193521D01*
X137505835Y-110059584D01*
X137602183Y-109942183D01*
X137719584Y-109845835D01*
X137853521Y-109774244D01*
X137853524Y-109774243D01*
X137998858Y-109730156D01*
X138074371Y-109722719D01*
X138112127Y-109719000D01*
X138747873Y-109719000D01*
X138785629Y-109722719D01*
X138785629Y-109722719D01*
G37*
G36*
X121216823Y-109016313D02*
G01*
X121377242Y-109064976D01*
X121509906Y-109135886D01*
X121525078Y-109143996D01*
X121654659Y-109250341D01*
X121761004Y-109379922D01*
X121761005Y-109379924D01*
X121840024Y-109527758D01*
X121888687Y-109688177D01*
X121905117Y-109855000D01*
X121888687Y-110021823D01*
X121840024Y-110182242D01*
X121769114Y-110314906D01*
X121761004Y-110330078D01*
X121654659Y-110459659D01*
X121525078Y-110566004D01*
X121525076Y-110566005D01*
X121377242Y-110645024D01*
X121216823Y-110693687D01*
X121091804Y-110706000D01*
X120208196Y-110706000D01*
X120083177Y-110693687D01*
X119922758Y-110645024D01*
X119774924Y-110566005D01*
X119774922Y-110566004D01*
X119645341Y-110459659D01*
X119538996Y-110330078D01*
X119530886Y-110314906D01*
X119459976Y-110182242D01*
X119411313Y-110021823D01*
X119394883Y-109855000D01*
X119411313Y-109688177D01*
X119459976Y-109527758D01*
X119538995Y-109379924D01*
X119538996Y-109379922D01*
X119645341Y-109250341D01*
X119774922Y-109143996D01*
X119790094Y-109135886D01*
X119922758Y-109064976D01*
X120083177Y-109016313D01*
X120208196Y-109004000D01*
X121091804Y-109004000D01*
X121216823Y-109016313D01*
X121216823Y-109016313D01*
G37*
G36*
X128836823Y-109016313D02*
G01*
X128997242Y-109064976D01*
X129129906Y-109135886D01*
X129145078Y-109143996D01*
X129274659Y-109250341D01*
X129381004Y-109379922D01*
X129381005Y-109379924D01*
X129460024Y-109527758D01*
X129508687Y-109688177D01*
X129525117Y-109855000D01*
X129508687Y-110021823D01*
X129460024Y-110182242D01*
X129389114Y-110314906D01*
X129381004Y-110330078D01*
X129274659Y-110459659D01*
X129145078Y-110566004D01*
X129145076Y-110566005D01*
X128997242Y-110645024D01*
X128836823Y-110693687D01*
X128711804Y-110706000D01*
X127828196Y-110706000D01*
X127703177Y-110693687D01*
X127542758Y-110645024D01*
X127394924Y-110566005D01*
X127394922Y-110566004D01*
X127265341Y-110459659D01*
X127158996Y-110330078D01*
X127150886Y-110314906D01*
X127079976Y-110182242D01*
X127031313Y-110021823D01*
X127014883Y-109855000D01*
X127031313Y-109688177D01*
X127079976Y-109527758D01*
X127158995Y-109379924D01*
X127158996Y-109379922D01*
X127265341Y-109250341D01*
X127394922Y-109143996D01*
X127410094Y-109135886D01*
X127542758Y-109064976D01*
X127703177Y-109016313D01*
X127828196Y-109004000D01*
X128711804Y-109004000D01*
X128836823Y-109016313D01*
X128836823Y-109016313D01*
G37*
G36*
X157940443Y-108325519D02*
G01*
X158006627Y-108332037D01*
X158176466Y-108383557D01*
X158332991Y-108467222D01*
X158368729Y-108496552D01*
X158470186Y-108579814D01*
X158553448Y-108681271D01*
X158582778Y-108717009D01*
X158666443Y-108873534D01*
X158717963Y-109043373D01*
X158735359Y-109220000D01*
X158717963Y-109396627D01*
X158666443Y-109566466D01*
X158582778Y-109722991D01*
X158553448Y-109758729D01*
X158470186Y-109860186D01*
X158370271Y-109942183D01*
X158332991Y-109972778D01*
X158176466Y-110056443D01*
X158006627Y-110107963D01*
X157940443Y-110114481D01*
X157874260Y-110121000D01*
X157085740Y-110121000D01*
X157019557Y-110114481D01*
X156953373Y-110107963D01*
X156783534Y-110056443D01*
X156627009Y-109972778D01*
X156589729Y-109942183D01*
X156489814Y-109860186D01*
X156406552Y-109758729D01*
X156377222Y-109722991D01*
X156293557Y-109566466D01*
X156242037Y-109396627D01*
X156224641Y-109220000D01*
X156242037Y-109043373D01*
X156293557Y-108873534D01*
X156377222Y-108717009D01*
X156406552Y-108681271D01*
X156489814Y-108579814D01*
X156591271Y-108496552D01*
X156627009Y-108467222D01*
X156783534Y-108383557D01*
X156953373Y-108332037D01*
X157019557Y-108325519D01*
X157085740Y-108319000D01*
X157874260Y-108319000D01*
X157940443Y-108325519D01*
X157940443Y-108325519D01*
G37*
G36*
X173180443Y-108325519D02*
G01*
X173246627Y-108332037D01*
X173416466Y-108383557D01*
X173572991Y-108467222D01*
X173608729Y-108496552D01*
X173710186Y-108579814D01*
X173793448Y-108681271D01*
X173822778Y-108717009D01*
X173906443Y-108873534D01*
X173957963Y-109043373D01*
X173975359Y-109220000D01*
X173957963Y-109396627D01*
X173906443Y-109566466D01*
X173822778Y-109722991D01*
X173793448Y-109758729D01*
X173710186Y-109860186D01*
X173610271Y-109942183D01*
X173572991Y-109972778D01*
X173416466Y-110056443D01*
X173246627Y-110107963D01*
X173180443Y-110114481D01*
X173114260Y-110121000D01*
X172325740Y-110121000D01*
X172259557Y-110114481D01*
X172193373Y-110107963D01*
X172023534Y-110056443D01*
X171867009Y-109972778D01*
X171829729Y-109942183D01*
X171729814Y-109860186D01*
X171646552Y-109758729D01*
X171617222Y-109722991D01*
X171533557Y-109566466D01*
X171482037Y-109396627D01*
X171464641Y-109220000D01*
X171482037Y-109043373D01*
X171533557Y-108873534D01*
X171617222Y-108717009D01*
X171646552Y-108681271D01*
X171729814Y-108579814D01*
X171831271Y-108496552D01*
X171867009Y-108467222D01*
X172023534Y-108383557D01*
X172193373Y-108332037D01*
X172259557Y-108325519D01*
X172325740Y-108319000D01*
X173114260Y-108319000D01*
X173180443Y-108325519D01*
X173180443Y-108325519D01*
G37*
G36*
X151485629Y-107182719D02*
G01*
X151561142Y-107190156D01*
X151706476Y-107234243D01*
X151706479Y-107234244D01*
X151840416Y-107305835D01*
X151957817Y-107402183D01*
X152054165Y-107519584D01*
X152125756Y-107653521D01*
X152125757Y-107653524D01*
X152169844Y-107798858D01*
X152184730Y-107950000D01*
X152169844Y-108101142D01*
X152153904Y-108153687D01*
X152125756Y-108246479D01*
X152054165Y-108380416D01*
X151957817Y-108497817D01*
X151840416Y-108594165D01*
X151706479Y-108665756D01*
X151706476Y-108665757D01*
X151561142Y-108709844D01*
X151488394Y-108717009D01*
X151447873Y-108721000D01*
X150812127Y-108721000D01*
X150771606Y-108717009D01*
X150698858Y-108709844D01*
X150553524Y-108665757D01*
X150553521Y-108665756D01*
X150419584Y-108594165D01*
X150302183Y-108497817D01*
X150205835Y-108380416D01*
X150134244Y-108246479D01*
X150106096Y-108153687D01*
X150090156Y-108101142D01*
X150075270Y-107950000D01*
X150090156Y-107798858D01*
X150134243Y-107653524D01*
X150134244Y-107653521D01*
X150205835Y-107519584D01*
X150302183Y-107402183D01*
X150419584Y-107305835D01*
X150553521Y-107234244D01*
X150553524Y-107234243D01*
X150698858Y-107190156D01*
X150774371Y-107182719D01*
X150812127Y-107179000D01*
X151447873Y-107179000D01*
X151485629Y-107182719D01*
X151485629Y-107182719D01*
G37*
G36*
X146405629Y-107182719D02*
G01*
X146481142Y-107190156D01*
X146626476Y-107234243D01*
X146626479Y-107234244D01*
X146760416Y-107305835D01*
X146877817Y-107402183D01*
X146974165Y-107519584D01*
X147045756Y-107653521D01*
X147045757Y-107653524D01*
X147089844Y-107798858D01*
X147104730Y-107950000D01*
X147089844Y-108101142D01*
X147073904Y-108153687D01*
X147045756Y-108246479D01*
X146974165Y-108380416D01*
X146877817Y-108497817D01*
X146760416Y-108594165D01*
X146626479Y-108665756D01*
X146626476Y-108665757D01*
X146481142Y-108709844D01*
X146408394Y-108717009D01*
X146367873Y-108721000D01*
X145732127Y-108721000D01*
X145691606Y-108717009D01*
X145618858Y-108709844D01*
X145473524Y-108665757D01*
X145473521Y-108665756D01*
X145339584Y-108594165D01*
X145222183Y-108497817D01*
X145125835Y-108380416D01*
X145054244Y-108246479D01*
X145026096Y-108153687D01*
X145010156Y-108101142D01*
X144995270Y-107950000D01*
X145010156Y-107798858D01*
X145054243Y-107653524D01*
X145054244Y-107653521D01*
X145125835Y-107519584D01*
X145222183Y-107402183D01*
X145339584Y-107305835D01*
X145473521Y-107234244D01*
X145473524Y-107234243D01*
X145618858Y-107190156D01*
X145694371Y-107182719D01*
X145732127Y-107179000D01*
X146367873Y-107179000D01*
X146405629Y-107182719D01*
X146405629Y-107182719D01*
G37*
G36*
X136245629Y-107182719D02*
G01*
X136321142Y-107190156D01*
X136466476Y-107234243D01*
X136466479Y-107234244D01*
X136600416Y-107305835D01*
X136717817Y-107402183D01*
X136814165Y-107519584D01*
X136885756Y-107653521D01*
X136885757Y-107653524D01*
X136929844Y-107798858D01*
X136944730Y-107950000D01*
X136929844Y-108101142D01*
X136913904Y-108153687D01*
X136885756Y-108246479D01*
X136814165Y-108380416D01*
X136717817Y-108497817D01*
X136600416Y-108594165D01*
X136466479Y-108665756D01*
X136466476Y-108665757D01*
X136321142Y-108709844D01*
X136248394Y-108717009D01*
X136207873Y-108721000D01*
X135572127Y-108721000D01*
X135531606Y-108717009D01*
X135458858Y-108709844D01*
X135313524Y-108665757D01*
X135313521Y-108665756D01*
X135179584Y-108594165D01*
X135062183Y-108497817D01*
X134965835Y-108380416D01*
X134894244Y-108246479D01*
X134866096Y-108153687D01*
X134850156Y-108101142D01*
X134835270Y-107950000D01*
X134850156Y-107798858D01*
X134894243Y-107653524D01*
X134894244Y-107653521D01*
X134965835Y-107519584D01*
X135062183Y-107402183D01*
X135179584Y-107305835D01*
X135313521Y-107234244D01*
X135313524Y-107234243D01*
X135458858Y-107190156D01*
X135534371Y-107182719D01*
X135572127Y-107179000D01*
X136207873Y-107179000D01*
X136245629Y-107182719D01*
X136245629Y-107182719D01*
G37*
G36*
X138785629Y-107182719D02*
G01*
X138861142Y-107190156D01*
X139006476Y-107234243D01*
X139006479Y-107234244D01*
X139140416Y-107305835D01*
X139257817Y-107402183D01*
X139354165Y-107519584D01*
X139425756Y-107653521D01*
X139425757Y-107653524D01*
X139469844Y-107798858D01*
X139484730Y-107950000D01*
X139469844Y-108101142D01*
X139453904Y-108153687D01*
X139425756Y-108246479D01*
X139354165Y-108380416D01*
X139257817Y-108497817D01*
X139140416Y-108594165D01*
X139006479Y-108665756D01*
X139006476Y-108665757D01*
X138861142Y-108709844D01*
X138788394Y-108717009D01*
X138747873Y-108721000D01*
X138112127Y-108721000D01*
X138071606Y-108717009D01*
X137998858Y-108709844D01*
X137853524Y-108665757D01*
X137853521Y-108665756D01*
X137719584Y-108594165D01*
X137602183Y-108497817D01*
X137505835Y-108380416D01*
X137434244Y-108246479D01*
X137406096Y-108153687D01*
X137390156Y-108101142D01*
X137375270Y-107950000D01*
X137390156Y-107798858D01*
X137434243Y-107653524D01*
X137434244Y-107653521D01*
X137505835Y-107519584D01*
X137602183Y-107402183D01*
X137719584Y-107305835D01*
X137853521Y-107234244D01*
X137853524Y-107234243D01*
X137998858Y-107190156D01*
X138074371Y-107182719D01*
X138112127Y-107179000D01*
X138747873Y-107179000D01*
X138785629Y-107182719D01*
X138785629Y-107182719D01*
G37*
G36*
X121216823Y-106476313D02*
G01*
X121377242Y-106524976D01*
X121509906Y-106595886D01*
X121525078Y-106603996D01*
X121654659Y-106710341D01*
X121761004Y-106839922D01*
X121761005Y-106839924D01*
X121840024Y-106987758D01*
X121888687Y-107148177D01*
X121905117Y-107315000D01*
X121888687Y-107481823D01*
X121840024Y-107642242D01*
X121769114Y-107774906D01*
X121761004Y-107790078D01*
X121654659Y-107919659D01*
X121525078Y-108026004D01*
X121525076Y-108026005D01*
X121377242Y-108105024D01*
X121216823Y-108153687D01*
X121091804Y-108166000D01*
X120208196Y-108166000D01*
X120083177Y-108153687D01*
X119922758Y-108105024D01*
X119774924Y-108026005D01*
X119774922Y-108026004D01*
X119645341Y-107919659D01*
X119538996Y-107790078D01*
X119530886Y-107774906D01*
X119459976Y-107642242D01*
X119411313Y-107481823D01*
X119394883Y-107315000D01*
X119411313Y-107148177D01*
X119459976Y-106987758D01*
X119538995Y-106839924D01*
X119538996Y-106839922D01*
X119645341Y-106710341D01*
X119774922Y-106603996D01*
X119790094Y-106595886D01*
X119922758Y-106524976D01*
X120083177Y-106476313D01*
X120208196Y-106464000D01*
X121091804Y-106464000D01*
X121216823Y-106476313D01*
X121216823Y-106476313D01*
G37*
G36*
X128836823Y-106476313D02*
G01*
X128997242Y-106524976D01*
X129129906Y-106595886D01*
X129145078Y-106603996D01*
X129274659Y-106710341D01*
X129381004Y-106839922D01*
X129381005Y-106839924D01*
X129460024Y-106987758D01*
X129508687Y-107148177D01*
X129525117Y-107315000D01*
X129508687Y-107481823D01*
X129460024Y-107642242D01*
X129389114Y-107774906D01*
X129381004Y-107790078D01*
X129274659Y-107919659D01*
X129145078Y-108026004D01*
X129145076Y-108026005D01*
X128997242Y-108105024D01*
X128836823Y-108153687D01*
X128711804Y-108166000D01*
X127828196Y-108166000D01*
X127703177Y-108153687D01*
X127542758Y-108105024D01*
X127394924Y-108026005D01*
X127394922Y-108026004D01*
X127265341Y-107919659D01*
X127158996Y-107790078D01*
X127150886Y-107774906D01*
X127079976Y-107642242D01*
X127031313Y-107481823D01*
X127014883Y-107315000D01*
X127031313Y-107148177D01*
X127079976Y-106987758D01*
X127158995Y-106839924D01*
X127158996Y-106839922D01*
X127265341Y-106710341D01*
X127394922Y-106603996D01*
X127410094Y-106595886D01*
X127542758Y-106524976D01*
X127703177Y-106476313D01*
X127828196Y-106464000D01*
X128711804Y-106464000D01*
X128836823Y-106476313D01*
X128836823Y-106476313D01*
G37*
G36*
X173180443Y-105785519D02*
G01*
X173246627Y-105792037D01*
X173416466Y-105843557D01*
X173572991Y-105927222D01*
X173608729Y-105956552D01*
X173710186Y-106039814D01*
X173793448Y-106141271D01*
X173822778Y-106177009D01*
X173906443Y-106333534D01*
X173957963Y-106503373D01*
X173975359Y-106680000D01*
X173957963Y-106856627D01*
X173906443Y-107026466D01*
X173822778Y-107182991D01*
X173793448Y-107218729D01*
X173710186Y-107320186D01*
X173610271Y-107402183D01*
X173572991Y-107432778D01*
X173416466Y-107516443D01*
X173246627Y-107567963D01*
X173180443Y-107574481D01*
X173114260Y-107581000D01*
X172325740Y-107581000D01*
X172259557Y-107574481D01*
X172193373Y-107567963D01*
X172023534Y-107516443D01*
X171867009Y-107432778D01*
X171829729Y-107402183D01*
X171729814Y-107320186D01*
X171646552Y-107218729D01*
X171617222Y-107182991D01*
X171533557Y-107026466D01*
X171482037Y-106856627D01*
X171464641Y-106680000D01*
X171482037Y-106503373D01*
X171533557Y-106333534D01*
X171617222Y-106177009D01*
X171646552Y-106141271D01*
X171729814Y-106039814D01*
X171831271Y-105956552D01*
X171867009Y-105927222D01*
X172023534Y-105843557D01*
X172193373Y-105792037D01*
X172259557Y-105785519D01*
X172325740Y-105779000D01*
X173114260Y-105779000D01*
X173180443Y-105785519D01*
X173180443Y-105785519D01*
G37*
G36*
X157940443Y-105785519D02*
G01*
X158006627Y-105792037D01*
X158176466Y-105843557D01*
X158332991Y-105927222D01*
X158368729Y-105956552D01*
X158470186Y-106039814D01*
X158553448Y-106141271D01*
X158582778Y-106177009D01*
X158666443Y-106333534D01*
X158717963Y-106503373D01*
X158735359Y-106680000D01*
X158717963Y-106856627D01*
X158666443Y-107026466D01*
X158582778Y-107182991D01*
X158553448Y-107218729D01*
X158470186Y-107320186D01*
X158370271Y-107402183D01*
X158332991Y-107432778D01*
X158176466Y-107516443D01*
X158006627Y-107567963D01*
X157940443Y-107574481D01*
X157874260Y-107581000D01*
X157085740Y-107581000D01*
X157019557Y-107574481D01*
X156953373Y-107567963D01*
X156783534Y-107516443D01*
X156627009Y-107432778D01*
X156589729Y-107402183D01*
X156489814Y-107320186D01*
X156406552Y-107218729D01*
X156377222Y-107182991D01*
X156293557Y-107026466D01*
X156242037Y-106856627D01*
X156224641Y-106680000D01*
X156242037Y-106503373D01*
X156293557Y-106333534D01*
X156377222Y-106177009D01*
X156406552Y-106141271D01*
X156489814Y-106039814D01*
X156591271Y-105956552D01*
X156627009Y-105927222D01*
X156783534Y-105843557D01*
X156953373Y-105792037D01*
X157019557Y-105785519D01*
X157085740Y-105779000D01*
X157874260Y-105779000D01*
X157940443Y-105785519D01*
X157940443Y-105785519D01*
G37*
G36*
X136245629Y-104642719D02*
G01*
X136321142Y-104650156D01*
X136466476Y-104694243D01*
X136466479Y-104694244D01*
X136600416Y-104765835D01*
X136717817Y-104862183D01*
X136814165Y-104979584D01*
X136885756Y-105113521D01*
X136885757Y-105113524D01*
X136929844Y-105258858D01*
X136944730Y-105410000D01*
X136929844Y-105561142D01*
X136885757Y-105706476D01*
X136885756Y-105706479D01*
X136814165Y-105840416D01*
X136717817Y-105957817D01*
X136600416Y-106054165D01*
X136466479Y-106125756D01*
X136466476Y-106125757D01*
X136321142Y-106169844D01*
X136248394Y-106177009D01*
X136207873Y-106181000D01*
X135572127Y-106181000D01*
X135531606Y-106177009D01*
X135458858Y-106169844D01*
X135313524Y-106125757D01*
X135313521Y-106125756D01*
X135179584Y-106054165D01*
X135062183Y-105957817D01*
X134965835Y-105840416D01*
X134894244Y-105706479D01*
X134894243Y-105706476D01*
X134850156Y-105561142D01*
X134835270Y-105410000D01*
X134850156Y-105258858D01*
X134894243Y-105113524D01*
X134894244Y-105113521D01*
X134965835Y-104979584D01*
X135062183Y-104862183D01*
X135179584Y-104765835D01*
X135313521Y-104694244D01*
X135313524Y-104694243D01*
X135458858Y-104650156D01*
X135534371Y-104642719D01*
X135572127Y-104639000D01*
X136207873Y-104639000D01*
X136245629Y-104642719D01*
X136245629Y-104642719D01*
G37*
G36*
X146405629Y-104642719D02*
G01*
X146481142Y-104650156D01*
X146626476Y-104694243D01*
X146626479Y-104694244D01*
X146760416Y-104765835D01*
X146877817Y-104862183D01*
X146974165Y-104979584D01*
X147045756Y-105113521D01*
X147045757Y-105113524D01*
X147089844Y-105258858D01*
X147104730Y-105410000D01*
X147089844Y-105561142D01*
X147045757Y-105706476D01*
X147045756Y-105706479D01*
X146974165Y-105840416D01*
X146877817Y-105957817D01*
X146760416Y-106054165D01*
X146626479Y-106125756D01*
X146626476Y-106125757D01*
X146481142Y-106169844D01*
X146408394Y-106177009D01*
X146367873Y-106181000D01*
X145732127Y-106181000D01*
X145691606Y-106177009D01*
X145618858Y-106169844D01*
X145473524Y-106125757D01*
X145473521Y-106125756D01*
X145339584Y-106054165D01*
X145222183Y-105957817D01*
X145125835Y-105840416D01*
X145054244Y-105706479D01*
X145054243Y-105706476D01*
X145010156Y-105561142D01*
X144995270Y-105410000D01*
X145010156Y-105258858D01*
X145054243Y-105113524D01*
X145054244Y-105113521D01*
X145125835Y-104979584D01*
X145222183Y-104862183D01*
X145339584Y-104765835D01*
X145473521Y-104694244D01*
X145473524Y-104694243D01*
X145618858Y-104650156D01*
X145694371Y-104642719D01*
X145732127Y-104639000D01*
X146367873Y-104639000D01*
X146405629Y-104642719D01*
X146405629Y-104642719D01*
G37*
G36*
X138785629Y-104642719D02*
G01*
X138861142Y-104650156D01*
X139006476Y-104694243D01*
X139006479Y-104694244D01*
X139140416Y-104765835D01*
X139257817Y-104862183D01*
X139354165Y-104979584D01*
X139425756Y-105113521D01*
X139425757Y-105113524D01*
X139469844Y-105258858D01*
X139484730Y-105410000D01*
X139469844Y-105561142D01*
X139425757Y-105706476D01*
X139425756Y-105706479D01*
X139354165Y-105840416D01*
X139257817Y-105957817D01*
X139140416Y-106054165D01*
X139006479Y-106125756D01*
X139006476Y-106125757D01*
X138861142Y-106169844D01*
X138788394Y-106177009D01*
X138747873Y-106181000D01*
X138112127Y-106181000D01*
X138071606Y-106177009D01*
X137998858Y-106169844D01*
X137853524Y-106125757D01*
X137853521Y-106125756D01*
X137719584Y-106054165D01*
X137602183Y-105957817D01*
X137505835Y-105840416D01*
X137434244Y-105706479D01*
X137434243Y-105706476D01*
X137390156Y-105561142D01*
X137375270Y-105410000D01*
X137390156Y-105258858D01*
X137434243Y-105113524D01*
X137434244Y-105113521D01*
X137505835Y-104979584D01*
X137602183Y-104862183D01*
X137719584Y-104765835D01*
X137853521Y-104694244D01*
X137853524Y-104694243D01*
X137998858Y-104650156D01*
X138074371Y-104642719D01*
X138112127Y-104639000D01*
X138747873Y-104639000D01*
X138785629Y-104642719D01*
X138785629Y-104642719D01*
G37*
G36*
X151485629Y-104642719D02*
G01*
X151561142Y-104650156D01*
X151706476Y-104694243D01*
X151706479Y-104694244D01*
X151840416Y-104765835D01*
X151957817Y-104862183D01*
X152054165Y-104979584D01*
X152125756Y-105113521D01*
X152125757Y-105113524D01*
X152169844Y-105258858D01*
X152184730Y-105410000D01*
X152169844Y-105561142D01*
X152125757Y-105706476D01*
X152125756Y-105706479D01*
X152054165Y-105840416D01*
X151957817Y-105957817D01*
X151840416Y-106054165D01*
X151706479Y-106125756D01*
X151706476Y-106125757D01*
X151561142Y-106169844D01*
X151488394Y-106177009D01*
X151447873Y-106181000D01*
X150812127Y-106181000D01*
X150771606Y-106177009D01*
X150698858Y-106169844D01*
X150553524Y-106125757D01*
X150553521Y-106125756D01*
X150419584Y-106054165D01*
X150302183Y-105957817D01*
X150205835Y-105840416D01*
X150134244Y-105706479D01*
X150134243Y-105706476D01*
X150090156Y-105561142D01*
X150075270Y-105410000D01*
X150090156Y-105258858D01*
X150134243Y-105113524D01*
X150134244Y-105113521D01*
X150205835Y-104979584D01*
X150302183Y-104862183D01*
X150419584Y-104765835D01*
X150553521Y-104694244D01*
X150553524Y-104694243D01*
X150698858Y-104650156D01*
X150774371Y-104642719D01*
X150812127Y-104639000D01*
X151447873Y-104639000D01*
X151485629Y-104642719D01*
X151485629Y-104642719D01*
G37*
G36*
X157940443Y-103245519D02*
G01*
X158006627Y-103252037D01*
X158176466Y-103303557D01*
X158332991Y-103387222D01*
X158368729Y-103416552D01*
X158470186Y-103499814D01*
X158553448Y-103601271D01*
X158582778Y-103637009D01*
X158666443Y-103793534D01*
X158717963Y-103963373D01*
X158735359Y-104140000D01*
X158717963Y-104316627D01*
X158666443Y-104486466D01*
X158582778Y-104642991D01*
X158553448Y-104678729D01*
X158470186Y-104780186D01*
X158370271Y-104862183D01*
X158332991Y-104892778D01*
X158176466Y-104976443D01*
X158006627Y-105027963D01*
X157940442Y-105034482D01*
X157874260Y-105041000D01*
X157085740Y-105041000D01*
X157019557Y-105034481D01*
X156953373Y-105027963D01*
X156783534Y-104976443D01*
X156627009Y-104892778D01*
X156589729Y-104862183D01*
X156489814Y-104780186D01*
X156406552Y-104678729D01*
X156377222Y-104642991D01*
X156293557Y-104486466D01*
X156242037Y-104316627D01*
X156224641Y-104140000D01*
X156242037Y-103963373D01*
X156293557Y-103793534D01*
X156377222Y-103637009D01*
X156406552Y-103601271D01*
X156489814Y-103499814D01*
X156591271Y-103416552D01*
X156627009Y-103387222D01*
X156783534Y-103303557D01*
X156953373Y-103252037D01*
X157019558Y-103245518D01*
X157085740Y-103239000D01*
X157874260Y-103239000D01*
X157940443Y-103245519D01*
X157940443Y-103245519D01*
G37*
G36*
X173180443Y-103245519D02*
G01*
X173246627Y-103252037D01*
X173416466Y-103303557D01*
X173572991Y-103387222D01*
X173608729Y-103416552D01*
X173710186Y-103499814D01*
X173793448Y-103601271D01*
X173822778Y-103637009D01*
X173906443Y-103793534D01*
X173957963Y-103963373D01*
X173975359Y-104140000D01*
X173957963Y-104316627D01*
X173906443Y-104486466D01*
X173822778Y-104642991D01*
X173793448Y-104678729D01*
X173710186Y-104780186D01*
X173610271Y-104862183D01*
X173572991Y-104892778D01*
X173416466Y-104976443D01*
X173246627Y-105027963D01*
X173180442Y-105034482D01*
X173114260Y-105041000D01*
X172325740Y-105041000D01*
X172259557Y-105034481D01*
X172193373Y-105027963D01*
X172023534Y-104976443D01*
X171867009Y-104892778D01*
X171829729Y-104862183D01*
X171729814Y-104780186D01*
X171646552Y-104678729D01*
X171617222Y-104642991D01*
X171533557Y-104486466D01*
X171482037Y-104316627D01*
X171464641Y-104140000D01*
X171482037Y-103963373D01*
X171533557Y-103793534D01*
X171617222Y-103637009D01*
X171646552Y-103601271D01*
X171729814Y-103499814D01*
X171831271Y-103416552D01*
X171867009Y-103387222D01*
X172023534Y-103303557D01*
X172193373Y-103252037D01*
X172259558Y-103245518D01*
X172325740Y-103239000D01*
X173114260Y-103239000D01*
X173180443Y-103245519D01*
X173180443Y-103245519D01*
G37*
G36*
X151485629Y-102102719D02*
G01*
X151561142Y-102110156D01*
X151706476Y-102154243D01*
X151706479Y-102154244D01*
X151840416Y-102225835D01*
X151957817Y-102322183D01*
X152054165Y-102439584D01*
X152125756Y-102573521D01*
X152125757Y-102573524D01*
X152169844Y-102718858D01*
X152184730Y-102870000D01*
X152169844Y-103021142D01*
X152125757Y-103166476D01*
X152125756Y-103166479D01*
X152054165Y-103300416D01*
X151957817Y-103417817D01*
X151840416Y-103514165D01*
X151706479Y-103585756D01*
X151706476Y-103585757D01*
X151561142Y-103629844D01*
X151488394Y-103637009D01*
X151447873Y-103641000D01*
X150812127Y-103641000D01*
X150771606Y-103637009D01*
X150698858Y-103629844D01*
X150553524Y-103585757D01*
X150553521Y-103585756D01*
X150419584Y-103514165D01*
X150302183Y-103417817D01*
X150205835Y-103300416D01*
X150134244Y-103166479D01*
X150134243Y-103166476D01*
X150090156Y-103021142D01*
X150075270Y-102870000D01*
X150090156Y-102718858D01*
X150134243Y-102573524D01*
X150134244Y-102573521D01*
X150205835Y-102439584D01*
X150302183Y-102322183D01*
X150419584Y-102225835D01*
X150553521Y-102154244D01*
X150553524Y-102154243D01*
X150698858Y-102110156D01*
X150774371Y-102102719D01*
X150812127Y-102099000D01*
X151447873Y-102099000D01*
X151485629Y-102102719D01*
X151485629Y-102102719D01*
G37*
G36*
X138785629Y-102102719D02*
G01*
X138861142Y-102110156D01*
X139006476Y-102154243D01*
X139006479Y-102154244D01*
X139140416Y-102225835D01*
X139257817Y-102322183D01*
X139354165Y-102439584D01*
X139425756Y-102573521D01*
X139425757Y-102573524D01*
X139469844Y-102718858D01*
X139484730Y-102870000D01*
X139469844Y-103021142D01*
X139425757Y-103166476D01*
X139425756Y-103166479D01*
X139354165Y-103300416D01*
X139257817Y-103417817D01*
X139140416Y-103514165D01*
X139006479Y-103585756D01*
X139006476Y-103585757D01*
X138861142Y-103629844D01*
X138788394Y-103637009D01*
X138747873Y-103641000D01*
X138112127Y-103641000D01*
X138071606Y-103637009D01*
X137998858Y-103629844D01*
X137853524Y-103585757D01*
X137853521Y-103585756D01*
X137719584Y-103514165D01*
X137602183Y-103417817D01*
X137505835Y-103300416D01*
X137434244Y-103166479D01*
X137434243Y-103166476D01*
X137390156Y-103021142D01*
X137375270Y-102870000D01*
X137390156Y-102718858D01*
X137434243Y-102573524D01*
X137434244Y-102573521D01*
X137505835Y-102439584D01*
X137602183Y-102322183D01*
X137719584Y-102225835D01*
X137853521Y-102154244D01*
X137853524Y-102154243D01*
X137998858Y-102110156D01*
X138074371Y-102102719D01*
X138112127Y-102099000D01*
X138747873Y-102099000D01*
X138785629Y-102102719D01*
X138785629Y-102102719D01*
G37*
G36*
X136245629Y-102102719D02*
G01*
X136321142Y-102110156D01*
X136466476Y-102154243D01*
X136466479Y-102154244D01*
X136600416Y-102225835D01*
X136717817Y-102322183D01*
X136814165Y-102439584D01*
X136885756Y-102573521D01*
X136885757Y-102573524D01*
X136929844Y-102718858D01*
X136944730Y-102870000D01*
X136929844Y-103021142D01*
X136885757Y-103166476D01*
X136885756Y-103166479D01*
X136814165Y-103300416D01*
X136717817Y-103417817D01*
X136600416Y-103514165D01*
X136466479Y-103585756D01*
X136466476Y-103585757D01*
X136321142Y-103629844D01*
X136248394Y-103637009D01*
X136207873Y-103641000D01*
X135572127Y-103641000D01*
X135531606Y-103637009D01*
X135458858Y-103629844D01*
X135313524Y-103585757D01*
X135313521Y-103585756D01*
X135179584Y-103514165D01*
X135062183Y-103417817D01*
X134965835Y-103300416D01*
X134894244Y-103166479D01*
X134894243Y-103166476D01*
X134850156Y-103021142D01*
X134835270Y-102870000D01*
X134850156Y-102718858D01*
X134894243Y-102573524D01*
X134894244Y-102573521D01*
X134965835Y-102439584D01*
X135062183Y-102322183D01*
X135179584Y-102225835D01*
X135313521Y-102154244D01*
X135313524Y-102154243D01*
X135458858Y-102110156D01*
X135534371Y-102102719D01*
X135572127Y-102099000D01*
X136207873Y-102099000D01*
X136245629Y-102102719D01*
X136245629Y-102102719D01*
G37*
G36*
X146405629Y-102102719D02*
G01*
X146481142Y-102110156D01*
X146626476Y-102154243D01*
X146626479Y-102154244D01*
X146760416Y-102225835D01*
X146877817Y-102322183D01*
X146974165Y-102439584D01*
X147045756Y-102573521D01*
X147045757Y-102573524D01*
X147089844Y-102718858D01*
X147104730Y-102870000D01*
X147089844Y-103021142D01*
X147045757Y-103166476D01*
X147045756Y-103166479D01*
X146974165Y-103300416D01*
X146877817Y-103417817D01*
X146760416Y-103514165D01*
X146626479Y-103585756D01*
X146626476Y-103585757D01*
X146481142Y-103629844D01*
X146408394Y-103637009D01*
X146367873Y-103641000D01*
X145732127Y-103641000D01*
X145691606Y-103637009D01*
X145618858Y-103629844D01*
X145473524Y-103585757D01*
X145473521Y-103585756D01*
X145339584Y-103514165D01*
X145222183Y-103417817D01*
X145125835Y-103300416D01*
X145054244Y-103166479D01*
X145054243Y-103166476D01*
X145010156Y-103021142D01*
X144995270Y-102870000D01*
X145010156Y-102718858D01*
X145054243Y-102573524D01*
X145054244Y-102573521D01*
X145125835Y-102439584D01*
X145222183Y-102322183D01*
X145339584Y-102225835D01*
X145473521Y-102154244D01*
X145473524Y-102154243D01*
X145618858Y-102110156D01*
X145694371Y-102102719D01*
X145732127Y-102099000D01*
X146367873Y-102099000D01*
X146405629Y-102102719D01*
X146405629Y-102102719D01*
G37*
G36*
X157940443Y-100705519D02*
G01*
X158006627Y-100712037D01*
X158176466Y-100763557D01*
X158332991Y-100847222D01*
X158368729Y-100876552D01*
X158470186Y-100959814D01*
X158550369Y-101057519D01*
X158582778Y-101097009D01*
X158666443Y-101253534D01*
X158717963Y-101423373D01*
X158735359Y-101600000D01*
X158717963Y-101776627D01*
X158666443Y-101946466D01*
X158582778Y-102102991D01*
X158553448Y-102138729D01*
X158470186Y-102240186D01*
X158370271Y-102322183D01*
X158332991Y-102352778D01*
X158176466Y-102436443D01*
X158006627Y-102487963D01*
X157940442Y-102494482D01*
X157874260Y-102501000D01*
X157085740Y-102501000D01*
X157019558Y-102494482D01*
X156953373Y-102487963D01*
X156783534Y-102436443D01*
X156627009Y-102352778D01*
X156589729Y-102322183D01*
X156489814Y-102240186D01*
X156406552Y-102138729D01*
X156377222Y-102102991D01*
X156293557Y-101946466D01*
X156242037Y-101776627D01*
X156224641Y-101600000D01*
X156242037Y-101423373D01*
X156293557Y-101253534D01*
X156377222Y-101097009D01*
X156409631Y-101057519D01*
X156489814Y-100959814D01*
X156591271Y-100876552D01*
X156627009Y-100847222D01*
X156783534Y-100763557D01*
X156953373Y-100712037D01*
X157019557Y-100705519D01*
X157085740Y-100699000D01*
X157874260Y-100699000D01*
X157940443Y-100705519D01*
X157940443Y-100705519D01*
G37*
G36*
X173180443Y-100705519D02*
G01*
X173246627Y-100712037D01*
X173416466Y-100763557D01*
X173572991Y-100847222D01*
X173608729Y-100876552D01*
X173710186Y-100959814D01*
X173790369Y-101057519D01*
X173822778Y-101097009D01*
X173906443Y-101253534D01*
X173957963Y-101423373D01*
X173975359Y-101600000D01*
X173957963Y-101776627D01*
X173906443Y-101946466D01*
X173822778Y-102102991D01*
X173793448Y-102138729D01*
X173710186Y-102240186D01*
X173610271Y-102322183D01*
X173572991Y-102352778D01*
X173416466Y-102436443D01*
X173246627Y-102487963D01*
X173180442Y-102494482D01*
X173114260Y-102501000D01*
X172325740Y-102501000D01*
X172259558Y-102494482D01*
X172193373Y-102487963D01*
X172023534Y-102436443D01*
X171867009Y-102352778D01*
X171829729Y-102322183D01*
X171729814Y-102240186D01*
X171646552Y-102138729D01*
X171617222Y-102102991D01*
X171533557Y-101946466D01*
X171482037Y-101776627D01*
X171464641Y-101600000D01*
X171482037Y-101423373D01*
X171533557Y-101253534D01*
X171617222Y-101097009D01*
X171649631Y-101057519D01*
X171729814Y-100959814D01*
X171831271Y-100876552D01*
X171867009Y-100847222D01*
X172023534Y-100763557D01*
X172193373Y-100712037D01*
X172259557Y-100705519D01*
X172325740Y-100699000D01*
X173114260Y-100699000D01*
X173180443Y-100705519D01*
X173180443Y-100705519D01*
G37*
G36*
X180588228Y-100781703D02*
G01*
X180743100Y-100845853D01*
X180882481Y-100938985D01*
X181001015Y-101057519D01*
X181094147Y-101196900D01*
X181158297Y-101351772D01*
X181191000Y-101516184D01*
X181191000Y-101683816D01*
X181158297Y-101848228D01*
X181094147Y-102003100D01*
X181001015Y-102142481D01*
X180882481Y-102261015D01*
X180743100Y-102354147D01*
X180588228Y-102418297D01*
X180423816Y-102451000D01*
X180256184Y-102451000D01*
X180091772Y-102418297D01*
X179936900Y-102354147D01*
X179797519Y-102261015D01*
X179678985Y-102142481D01*
X179585853Y-102003100D01*
X179521703Y-101848228D01*
X179489000Y-101683816D01*
X179489000Y-101516184D01*
X179521703Y-101351772D01*
X179585853Y-101196900D01*
X179678985Y-101057519D01*
X179797519Y-100938985D01*
X179936900Y-100845853D01*
X180091772Y-100781703D01*
X180256184Y-100749000D01*
X180423816Y-100749000D01*
X180588228Y-100781703D01*
X180588228Y-100781703D01*
G37*
G36*
X185668228Y-100781703D02*
G01*
X185823100Y-100845853D01*
X185962481Y-100938985D01*
X186081015Y-101057519D01*
X186174147Y-101196900D01*
X186238297Y-101351772D01*
X186271000Y-101516184D01*
X186271000Y-101683816D01*
X186238297Y-101848228D01*
X186174147Y-102003100D01*
X186081015Y-102142481D01*
X185962481Y-102261015D01*
X185823100Y-102354147D01*
X185668228Y-102418297D01*
X185503816Y-102451000D01*
X185336184Y-102451000D01*
X185171772Y-102418297D01*
X185016900Y-102354147D01*
X184877519Y-102261015D01*
X184758985Y-102142481D01*
X184665853Y-102003100D01*
X184601703Y-101848228D01*
X184569000Y-101683816D01*
X184569000Y-101516184D01*
X184601703Y-101351772D01*
X184665853Y-101196900D01*
X184758985Y-101057519D01*
X184877519Y-100938985D01*
X185016900Y-100845853D01*
X185171772Y-100781703D01*
X185336184Y-100749000D01*
X185503816Y-100749000D01*
X185668228Y-100781703D01*
X185668228Y-100781703D01*
G37*
G36*
X146405629Y-99562719D02*
G01*
X146481142Y-99570156D01*
X146626476Y-99614243D01*
X146626479Y-99614244D01*
X146760416Y-99685835D01*
X146877817Y-99782183D01*
X146974165Y-99899584D01*
X147045756Y-100033521D01*
X147045757Y-100033524D01*
X147089844Y-100178858D01*
X147104730Y-100330000D01*
X147089844Y-100481142D01*
X147045757Y-100626476D01*
X147045756Y-100626479D01*
X146974165Y-100760416D01*
X146877817Y-100877817D01*
X146760416Y-100974165D01*
X146626479Y-101045756D01*
X146626476Y-101045757D01*
X146481142Y-101089844D01*
X146408394Y-101097009D01*
X146367873Y-101101000D01*
X145732127Y-101101000D01*
X145691606Y-101097009D01*
X145618858Y-101089844D01*
X145473524Y-101045757D01*
X145473521Y-101045756D01*
X145339584Y-100974165D01*
X145222183Y-100877817D01*
X145125835Y-100760416D01*
X145054244Y-100626479D01*
X145054243Y-100626476D01*
X145010156Y-100481142D01*
X144995270Y-100330000D01*
X145010156Y-100178858D01*
X145054243Y-100033524D01*
X145054244Y-100033521D01*
X145125835Y-99899584D01*
X145222183Y-99782183D01*
X145339584Y-99685835D01*
X145473521Y-99614244D01*
X145473524Y-99614243D01*
X145618858Y-99570156D01*
X145694371Y-99562719D01*
X145732127Y-99559000D01*
X146367873Y-99559000D01*
X146405629Y-99562719D01*
X146405629Y-99562719D01*
G37*
G36*
X138785629Y-99562719D02*
G01*
X138861142Y-99570156D01*
X139006476Y-99614243D01*
X139006479Y-99614244D01*
X139140416Y-99685835D01*
X139257817Y-99782183D01*
X139354165Y-99899584D01*
X139425756Y-100033521D01*
X139425757Y-100033524D01*
X139469844Y-100178858D01*
X139484730Y-100330000D01*
X139469844Y-100481142D01*
X139425757Y-100626476D01*
X139425756Y-100626479D01*
X139354165Y-100760416D01*
X139257817Y-100877817D01*
X139140416Y-100974165D01*
X139006479Y-101045756D01*
X139006476Y-101045757D01*
X138861142Y-101089844D01*
X138788394Y-101097009D01*
X138747873Y-101101000D01*
X138112127Y-101101000D01*
X138071606Y-101097009D01*
X137998858Y-101089844D01*
X137853524Y-101045757D01*
X137853521Y-101045756D01*
X137719584Y-100974165D01*
X137602183Y-100877817D01*
X137505835Y-100760416D01*
X137434244Y-100626479D01*
X137434243Y-100626476D01*
X137390156Y-100481142D01*
X137375270Y-100330000D01*
X137390156Y-100178858D01*
X137434243Y-100033524D01*
X137434244Y-100033521D01*
X137505835Y-99899584D01*
X137602183Y-99782183D01*
X137719584Y-99685835D01*
X137853521Y-99614244D01*
X137853524Y-99614243D01*
X137998858Y-99570156D01*
X138074371Y-99562719D01*
X138112127Y-99559000D01*
X138747873Y-99559000D01*
X138785629Y-99562719D01*
X138785629Y-99562719D01*
G37*
G36*
X151485629Y-99562719D02*
G01*
X151561142Y-99570156D01*
X151706476Y-99614243D01*
X151706479Y-99614244D01*
X151840416Y-99685835D01*
X151957817Y-99782183D01*
X152054165Y-99899584D01*
X152125756Y-100033521D01*
X152125757Y-100033524D01*
X152169844Y-100178858D01*
X152184730Y-100330000D01*
X152169844Y-100481142D01*
X152125757Y-100626476D01*
X152125756Y-100626479D01*
X152054165Y-100760416D01*
X151957817Y-100877817D01*
X151840416Y-100974165D01*
X151706479Y-101045756D01*
X151706476Y-101045757D01*
X151561142Y-101089844D01*
X151488394Y-101097009D01*
X151447873Y-101101000D01*
X150812127Y-101101000D01*
X150771606Y-101097009D01*
X150698858Y-101089844D01*
X150553524Y-101045757D01*
X150553521Y-101045756D01*
X150419584Y-100974165D01*
X150302183Y-100877817D01*
X150205835Y-100760416D01*
X150134244Y-100626479D01*
X150134243Y-100626476D01*
X150090156Y-100481142D01*
X150075270Y-100330000D01*
X150090156Y-100178858D01*
X150134243Y-100033524D01*
X150134244Y-100033521D01*
X150205835Y-99899584D01*
X150302183Y-99782183D01*
X150419584Y-99685835D01*
X150553521Y-99614244D01*
X150553524Y-99614243D01*
X150698858Y-99570156D01*
X150774371Y-99562719D01*
X150812127Y-99559000D01*
X151447873Y-99559000D01*
X151485629Y-99562719D01*
X151485629Y-99562719D01*
G37*
G36*
X136245629Y-99562719D02*
G01*
X136321142Y-99570156D01*
X136466476Y-99614243D01*
X136466479Y-99614244D01*
X136600416Y-99685835D01*
X136717817Y-99782183D01*
X136814165Y-99899584D01*
X136885756Y-100033521D01*
X136885757Y-100033524D01*
X136929844Y-100178858D01*
X136944730Y-100330000D01*
X136929844Y-100481142D01*
X136885757Y-100626476D01*
X136885756Y-100626479D01*
X136814165Y-100760416D01*
X136717817Y-100877817D01*
X136600416Y-100974165D01*
X136466479Y-101045756D01*
X136466476Y-101045757D01*
X136321142Y-101089844D01*
X136248394Y-101097009D01*
X136207873Y-101101000D01*
X135572127Y-101101000D01*
X135531606Y-101097009D01*
X135458858Y-101089844D01*
X135313524Y-101045757D01*
X135313521Y-101045756D01*
X135179584Y-100974165D01*
X135062183Y-100877817D01*
X134965835Y-100760416D01*
X134894244Y-100626479D01*
X134894243Y-100626476D01*
X134850156Y-100481142D01*
X134835270Y-100330000D01*
X134850156Y-100178858D01*
X134894243Y-100033524D01*
X134894244Y-100033521D01*
X134965835Y-99899584D01*
X135062183Y-99782183D01*
X135179584Y-99685835D01*
X135313521Y-99614244D01*
X135313524Y-99614243D01*
X135458858Y-99570156D01*
X135534371Y-99562719D01*
X135572127Y-99559000D01*
X136207873Y-99559000D01*
X136245629Y-99562719D01*
X136245629Y-99562719D01*
G37*
G36*
X173180443Y-98165519D02*
G01*
X173246627Y-98172037D01*
X173416466Y-98223557D01*
X173572991Y-98307222D01*
X173608729Y-98336552D01*
X173710186Y-98419814D01*
X173793448Y-98521271D01*
X173822778Y-98557009D01*
X173906443Y-98713534D01*
X173957963Y-98883373D01*
X173975359Y-99060000D01*
X173957963Y-99236627D01*
X173906443Y-99406466D01*
X173822778Y-99562991D01*
X173793448Y-99598729D01*
X173710186Y-99700186D01*
X173610271Y-99782183D01*
X173572991Y-99812778D01*
X173416466Y-99896443D01*
X173246627Y-99947963D01*
X173180443Y-99954481D01*
X173114260Y-99961000D01*
X172325740Y-99961000D01*
X172259557Y-99954481D01*
X172193373Y-99947963D01*
X172023534Y-99896443D01*
X171867009Y-99812778D01*
X171829729Y-99782183D01*
X171729814Y-99700186D01*
X171646552Y-99598729D01*
X171617222Y-99562991D01*
X171533557Y-99406466D01*
X171482037Y-99236627D01*
X171464641Y-99060000D01*
X171482037Y-98883373D01*
X171533557Y-98713534D01*
X171617222Y-98557009D01*
X171646552Y-98521271D01*
X171729814Y-98419814D01*
X171831271Y-98336552D01*
X171867009Y-98307222D01*
X172023534Y-98223557D01*
X172193373Y-98172037D01*
X172259557Y-98165519D01*
X172325740Y-98159000D01*
X173114260Y-98159000D01*
X173180443Y-98165519D01*
X173180443Y-98165519D01*
G37*
G36*
X157940443Y-98165519D02*
G01*
X158006627Y-98172037D01*
X158176466Y-98223557D01*
X158332991Y-98307222D01*
X158368729Y-98336552D01*
X158470186Y-98419814D01*
X158553448Y-98521271D01*
X158582778Y-98557009D01*
X158666443Y-98713534D01*
X158717963Y-98883373D01*
X158735359Y-99060000D01*
X158717963Y-99236627D01*
X158666443Y-99406466D01*
X158582778Y-99562991D01*
X158553448Y-99598729D01*
X158470186Y-99700186D01*
X158370271Y-99782183D01*
X158332991Y-99812778D01*
X158176466Y-99896443D01*
X158006627Y-99947963D01*
X157940443Y-99954481D01*
X157874260Y-99961000D01*
X157085740Y-99961000D01*
X157019557Y-99954481D01*
X156953373Y-99947963D01*
X156783534Y-99896443D01*
X156627009Y-99812778D01*
X156589729Y-99782183D01*
X156489814Y-99700186D01*
X156406552Y-99598729D01*
X156377222Y-99562991D01*
X156293557Y-99406466D01*
X156242037Y-99236627D01*
X156224641Y-99060000D01*
X156242037Y-98883373D01*
X156293557Y-98713534D01*
X156377222Y-98557009D01*
X156406552Y-98521271D01*
X156489814Y-98419814D01*
X156591271Y-98336552D01*
X156627009Y-98307222D01*
X156783534Y-98223557D01*
X156953373Y-98172037D01*
X157019557Y-98165519D01*
X157085740Y-98159000D01*
X157874260Y-98159000D01*
X157940443Y-98165519D01*
X157940443Y-98165519D01*
G37*
G36*
X138785629Y-97022719D02*
G01*
X138861142Y-97030156D01*
X139006476Y-97074243D01*
X139006479Y-97074244D01*
X139140416Y-97145835D01*
X139257817Y-97242183D01*
X139354165Y-97359584D01*
X139425756Y-97493521D01*
X139425757Y-97493524D01*
X139469844Y-97638858D01*
X139484730Y-97790000D01*
X139469844Y-97941142D01*
X139425757Y-98086476D01*
X139425756Y-98086479D01*
X139354165Y-98220416D01*
X139257817Y-98337817D01*
X139140416Y-98434165D01*
X139006479Y-98505756D01*
X139006476Y-98505757D01*
X138861142Y-98549844D01*
X138788394Y-98557009D01*
X138747873Y-98561000D01*
X138112127Y-98561000D01*
X138071606Y-98557009D01*
X137998858Y-98549844D01*
X137853524Y-98505757D01*
X137853521Y-98505756D01*
X137719584Y-98434165D01*
X137602183Y-98337817D01*
X137505835Y-98220416D01*
X137434244Y-98086479D01*
X137434243Y-98086476D01*
X137390156Y-97941142D01*
X137375270Y-97790000D01*
X137390156Y-97638858D01*
X137434243Y-97493524D01*
X137434244Y-97493521D01*
X137505835Y-97359584D01*
X137602183Y-97242183D01*
X137719584Y-97145835D01*
X137853521Y-97074244D01*
X137853524Y-97074243D01*
X137998858Y-97030156D01*
X138074371Y-97022719D01*
X138112127Y-97019000D01*
X138747873Y-97019000D01*
X138785629Y-97022719D01*
X138785629Y-97022719D01*
G37*
G36*
X151485629Y-97022719D02*
G01*
X151561142Y-97030156D01*
X151706476Y-97074243D01*
X151706479Y-97074244D01*
X151840416Y-97145835D01*
X151957817Y-97242183D01*
X152054165Y-97359584D01*
X152125756Y-97493521D01*
X152125757Y-97493524D01*
X152169844Y-97638858D01*
X152184730Y-97790000D01*
X152169844Y-97941142D01*
X152125757Y-98086476D01*
X152125756Y-98086479D01*
X152054165Y-98220416D01*
X151957817Y-98337817D01*
X151840416Y-98434165D01*
X151706479Y-98505756D01*
X151706476Y-98505757D01*
X151561142Y-98549844D01*
X151488394Y-98557009D01*
X151447873Y-98561000D01*
X150812127Y-98561000D01*
X150771606Y-98557009D01*
X150698858Y-98549844D01*
X150553524Y-98505757D01*
X150553521Y-98505756D01*
X150419584Y-98434165D01*
X150302183Y-98337817D01*
X150205835Y-98220416D01*
X150134244Y-98086479D01*
X150134243Y-98086476D01*
X150090156Y-97941142D01*
X150075270Y-97790000D01*
X150090156Y-97638858D01*
X150134243Y-97493524D01*
X150134244Y-97493521D01*
X150205835Y-97359584D01*
X150302183Y-97242183D01*
X150419584Y-97145835D01*
X150553521Y-97074244D01*
X150553524Y-97074243D01*
X150698858Y-97030156D01*
X150774371Y-97022719D01*
X150812127Y-97019000D01*
X151447873Y-97019000D01*
X151485629Y-97022719D01*
X151485629Y-97022719D01*
G37*
G36*
X146405629Y-97022719D02*
G01*
X146481142Y-97030156D01*
X146626476Y-97074243D01*
X146626479Y-97074244D01*
X146760416Y-97145835D01*
X146877817Y-97242183D01*
X146974165Y-97359584D01*
X147045756Y-97493521D01*
X147045757Y-97493524D01*
X147089844Y-97638858D01*
X147104730Y-97790000D01*
X147089844Y-97941142D01*
X147045757Y-98086476D01*
X147045756Y-98086479D01*
X146974165Y-98220416D01*
X146877817Y-98337817D01*
X146760416Y-98434165D01*
X146626479Y-98505756D01*
X146626476Y-98505757D01*
X146481142Y-98549844D01*
X146408394Y-98557009D01*
X146367873Y-98561000D01*
X145732127Y-98561000D01*
X145691606Y-98557009D01*
X145618858Y-98549844D01*
X145473524Y-98505757D01*
X145473521Y-98505756D01*
X145339584Y-98434165D01*
X145222183Y-98337817D01*
X145125835Y-98220416D01*
X145054244Y-98086479D01*
X145054243Y-98086476D01*
X145010156Y-97941142D01*
X144995270Y-97790000D01*
X145010156Y-97638858D01*
X145054243Y-97493524D01*
X145054244Y-97493521D01*
X145125835Y-97359584D01*
X145222183Y-97242183D01*
X145339584Y-97145835D01*
X145473521Y-97074244D01*
X145473524Y-97074243D01*
X145618858Y-97030156D01*
X145694371Y-97022719D01*
X145732127Y-97019000D01*
X146367873Y-97019000D01*
X146405629Y-97022719D01*
X146405629Y-97022719D01*
G37*
G36*
X136245629Y-97022719D02*
G01*
X136321142Y-97030156D01*
X136466476Y-97074243D01*
X136466479Y-97074244D01*
X136600416Y-97145835D01*
X136717817Y-97242183D01*
X136814165Y-97359584D01*
X136885756Y-97493521D01*
X136885757Y-97493524D01*
X136929844Y-97638858D01*
X136944730Y-97790000D01*
X136929844Y-97941142D01*
X136885757Y-98086476D01*
X136885756Y-98086479D01*
X136814165Y-98220416D01*
X136717817Y-98337817D01*
X136600416Y-98434165D01*
X136466479Y-98505756D01*
X136466476Y-98505757D01*
X136321142Y-98549844D01*
X136248394Y-98557009D01*
X136207873Y-98561000D01*
X135572127Y-98561000D01*
X135531606Y-98557009D01*
X135458858Y-98549844D01*
X135313524Y-98505757D01*
X135313521Y-98505756D01*
X135179584Y-98434165D01*
X135062183Y-98337817D01*
X134965835Y-98220416D01*
X134894244Y-98086479D01*
X134894243Y-98086476D01*
X134850156Y-97941142D01*
X134835270Y-97790000D01*
X134850156Y-97638858D01*
X134894243Y-97493524D01*
X134894244Y-97493521D01*
X134965835Y-97359584D01*
X135062183Y-97242183D01*
X135179584Y-97145835D01*
X135313521Y-97074244D01*
X135313524Y-97074243D01*
X135458858Y-97030156D01*
X135534371Y-97022719D01*
X135572127Y-97019000D01*
X136207873Y-97019000D01*
X136245629Y-97022719D01*
X136245629Y-97022719D01*
G37*
G36*
X173180442Y-95625518D02*
G01*
X173246627Y-95632037D01*
X173416466Y-95683557D01*
X173572991Y-95767222D01*
X173589661Y-95780903D01*
X173710186Y-95879814D01*
X173793448Y-95981271D01*
X173822778Y-96017009D01*
X173906443Y-96173534D01*
X173957963Y-96343373D01*
X173975359Y-96520000D01*
X173957963Y-96696627D01*
X173906443Y-96866466D01*
X173822778Y-97022991D01*
X173793448Y-97058729D01*
X173710186Y-97160186D01*
X173610271Y-97242183D01*
X173572991Y-97272778D01*
X173416466Y-97356443D01*
X173246627Y-97407963D01*
X173180442Y-97414482D01*
X173114260Y-97421000D01*
X172325740Y-97421000D01*
X172259558Y-97414482D01*
X172193373Y-97407963D01*
X172023534Y-97356443D01*
X171867009Y-97272778D01*
X171829729Y-97242183D01*
X171729814Y-97160186D01*
X171646552Y-97058729D01*
X171617222Y-97022991D01*
X171533557Y-96866466D01*
X171482037Y-96696627D01*
X171464641Y-96520000D01*
X171482037Y-96343373D01*
X171533557Y-96173534D01*
X171617222Y-96017009D01*
X171646552Y-95981271D01*
X171729814Y-95879814D01*
X171850339Y-95780903D01*
X171867009Y-95767222D01*
X172023534Y-95683557D01*
X172193373Y-95632037D01*
X172259558Y-95625518D01*
X172325740Y-95619000D01*
X173114260Y-95619000D01*
X173180442Y-95625518D01*
X173180442Y-95625518D01*
G37*
G36*
X157940442Y-95625518D02*
G01*
X158006627Y-95632037D01*
X158176466Y-95683557D01*
X158332991Y-95767222D01*
X158349661Y-95780903D01*
X158470186Y-95879814D01*
X158553448Y-95981271D01*
X158582778Y-96017009D01*
X158666443Y-96173534D01*
X158717963Y-96343373D01*
X158735359Y-96520000D01*
X158717963Y-96696627D01*
X158666443Y-96866466D01*
X158582778Y-97022991D01*
X158553448Y-97058729D01*
X158470186Y-97160186D01*
X158370271Y-97242183D01*
X158332991Y-97272778D01*
X158176466Y-97356443D01*
X158006627Y-97407963D01*
X157940442Y-97414482D01*
X157874260Y-97421000D01*
X157085740Y-97421000D01*
X157019558Y-97414482D01*
X156953373Y-97407963D01*
X156783534Y-97356443D01*
X156627009Y-97272778D01*
X156589729Y-97242183D01*
X156489814Y-97160186D01*
X156406552Y-97058729D01*
X156377222Y-97022991D01*
X156293557Y-96866466D01*
X156242037Y-96696627D01*
X156224641Y-96520000D01*
X156242037Y-96343373D01*
X156293557Y-96173534D01*
X156377222Y-96017009D01*
X156406552Y-95981271D01*
X156489814Y-95879814D01*
X156610339Y-95780903D01*
X156627009Y-95767222D01*
X156783534Y-95683557D01*
X156953373Y-95632037D01*
X157019558Y-95625518D01*
X157085740Y-95619000D01*
X157874260Y-95619000D01*
X157940442Y-95625518D01*
X157940442Y-95625518D01*
G37*
G36*
X121216823Y-95681313D02*
G01*
X121377242Y-95729976D01*
X121504163Y-95797817D01*
X121525078Y-95808996D01*
X121654659Y-95915341D01*
X121761004Y-96044922D01*
X121761005Y-96044924D01*
X121840024Y-96192758D01*
X121888687Y-96353177D01*
X121905117Y-96520000D01*
X121888687Y-96686823D01*
X121840024Y-96847242D01*
X121829747Y-96866468D01*
X121761004Y-96995078D01*
X121654659Y-97124659D01*
X121525078Y-97231004D01*
X121525076Y-97231005D01*
X121377242Y-97310024D01*
X121216823Y-97358687D01*
X121091804Y-97371000D01*
X120208196Y-97371000D01*
X120083177Y-97358687D01*
X119922758Y-97310024D01*
X119774924Y-97231005D01*
X119774922Y-97231004D01*
X119645341Y-97124659D01*
X119538996Y-96995078D01*
X119470253Y-96866468D01*
X119459976Y-96847242D01*
X119411313Y-96686823D01*
X119394883Y-96520000D01*
X119411313Y-96353177D01*
X119459976Y-96192758D01*
X119538995Y-96044924D01*
X119538996Y-96044922D01*
X119645341Y-95915341D01*
X119774922Y-95808996D01*
X119795837Y-95797817D01*
X119922758Y-95729976D01*
X120083177Y-95681313D01*
X120208196Y-95669000D01*
X121091804Y-95669000D01*
X121216823Y-95681313D01*
X121216823Y-95681313D01*
G37*
G36*
X129521000Y-97371000D02*
G01*
X127019000Y-97371000D01*
X127019000Y-95669000D01*
X129521000Y-95669000D01*
X129521000Y-97371000D01*
X129521000Y-97371000D01*
G37*
G36*
X185606425Y-94312760D02*
G01*
X185606428Y-94312761D01*
X185606429Y-94312761D01*
X185785693Y-94367140D01*
X185785696Y-94367142D01*
X185785697Y-94367142D01*
X185950903Y-94455446D01*
X186095712Y-94574288D01*
X186214554Y-94719097D01*
X186302858Y-94884303D01*
X186302860Y-94884307D01*
X186357239Y-95063571D01*
X186357240Y-95063575D01*
X186375601Y-95250000D01*
X186357240Y-95436425D01*
X186357239Y-95436428D01*
X186357239Y-95436429D01*
X186302860Y-95615693D01*
X186302858Y-95615696D01*
X186302858Y-95615697D01*
X186214554Y-95780903D01*
X186095712Y-95925712D01*
X185950903Y-96044554D01*
X185785697Y-96132858D01*
X185785693Y-96132860D01*
X185606429Y-96187239D01*
X185606428Y-96187239D01*
X185606425Y-96187240D01*
X185466718Y-96201000D01*
X185373282Y-96201000D01*
X185233575Y-96187240D01*
X185233572Y-96187239D01*
X185233571Y-96187239D01*
X185054307Y-96132860D01*
X185054303Y-96132858D01*
X184889097Y-96044554D01*
X184744288Y-95925712D01*
X184625446Y-95780903D01*
X184537142Y-95615697D01*
X184537142Y-95615696D01*
X184537140Y-95615693D01*
X184482761Y-95436429D01*
X184482761Y-95436428D01*
X184482760Y-95436425D01*
X184464399Y-95250000D01*
X184482760Y-95063575D01*
X184482761Y-95063571D01*
X184537140Y-94884307D01*
X184537142Y-94884303D01*
X184625446Y-94719097D01*
X184744288Y-94574288D01*
X184889097Y-94455446D01*
X185054303Y-94367142D01*
X185054304Y-94367142D01*
X185054307Y-94367140D01*
X185233571Y-94312761D01*
X185233572Y-94312761D01*
X185233575Y-94312760D01*
X185373282Y-94299000D01*
X185466718Y-94299000D01*
X185606425Y-94312760D01*
X185606425Y-94312760D01*
G37*
G36*
X181291000Y-96201000D02*
G01*
X179389000Y-96201000D01*
X179389000Y-94299000D01*
X181291000Y-94299000D01*
X181291000Y-96201000D01*
X181291000Y-96201000D01*
G37*
G36*
X183066425Y-94312760D02*
G01*
X183066428Y-94312761D01*
X183066429Y-94312761D01*
X183245693Y-94367140D01*
X183245696Y-94367142D01*
X183245697Y-94367142D01*
X183410903Y-94455446D01*
X183555712Y-94574288D01*
X183674554Y-94719097D01*
X183762858Y-94884303D01*
X183762860Y-94884307D01*
X183817239Y-95063571D01*
X183817240Y-95063575D01*
X183835601Y-95250000D01*
X183817240Y-95436425D01*
X183817239Y-95436428D01*
X183817239Y-95436429D01*
X183762860Y-95615693D01*
X183762858Y-95615696D01*
X183762858Y-95615697D01*
X183674554Y-95780903D01*
X183555712Y-95925712D01*
X183410903Y-96044554D01*
X183245697Y-96132858D01*
X183245693Y-96132860D01*
X183066429Y-96187239D01*
X183066428Y-96187239D01*
X183066425Y-96187240D01*
X182926718Y-96201000D01*
X182833282Y-96201000D01*
X182693575Y-96187240D01*
X182693572Y-96187239D01*
X182693571Y-96187239D01*
X182514307Y-96132860D01*
X182514303Y-96132858D01*
X182349097Y-96044554D01*
X182204288Y-95925712D01*
X182085446Y-95780903D01*
X181997142Y-95615697D01*
X181997142Y-95615696D01*
X181997140Y-95615693D01*
X181942761Y-95436429D01*
X181942761Y-95436428D01*
X181942760Y-95436425D01*
X181924399Y-95250000D01*
X181942760Y-95063575D01*
X181942761Y-95063571D01*
X181997140Y-94884307D01*
X181997142Y-94884303D01*
X182085446Y-94719097D01*
X182204288Y-94574288D01*
X182349097Y-94455446D01*
X182514303Y-94367142D01*
X182514304Y-94367142D01*
X182514307Y-94367140D01*
X182693571Y-94312761D01*
X182693572Y-94312761D01*
X182693575Y-94312760D01*
X182833282Y-94299000D01*
X182926718Y-94299000D01*
X183066425Y-94312760D01*
X183066425Y-94312760D01*
G37*
G36*
X136245629Y-94482719D02*
G01*
X136321142Y-94490156D01*
X136466476Y-94534243D01*
X136466479Y-94534244D01*
X136600416Y-94605835D01*
X136717817Y-94702183D01*
X136814165Y-94819584D01*
X136885756Y-94953521D01*
X136885757Y-94953524D01*
X136929844Y-95098858D01*
X136944730Y-95250000D01*
X136929844Y-95401142D01*
X136885757Y-95546476D01*
X136885756Y-95546479D01*
X136814165Y-95680416D01*
X136717817Y-95797817D01*
X136600416Y-95894165D01*
X136466479Y-95965756D01*
X136466476Y-95965757D01*
X136321142Y-96009844D01*
X136248394Y-96017009D01*
X136207873Y-96021000D01*
X135572127Y-96021000D01*
X135531606Y-96017009D01*
X135458858Y-96009844D01*
X135313524Y-95965757D01*
X135313521Y-95965756D01*
X135179584Y-95894165D01*
X135062183Y-95797817D01*
X134965835Y-95680416D01*
X134894244Y-95546479D01*
X134894243Y-95546476D01*
X134850156Y-95401142D01*
X134835270Y-95250000D01*
X134850156Y-95098858D01*
X134894243Y-94953524D01*
X134894244Y-94953521D01*
X134965835Y-94819584D01*
X135062183Y-94702183D01*
X135179584Y-94605835D01*
X135313521Y-94534244D01*
X135313524Y-94534243D01*
X135458858Y-94490156D01*
X135534371Y-94482719D01*
X135572127Y-94479000D01*
X136207873Y-94479000D01*
X136245629Y-94482719D01*
X136245629Y-94482719D01*
G37*
G36*
X151485629Y-94482719D02*
G01*
X151561142Y-94490156D01*
X151706476Y-94534243D01*
X151706479Y-94534244D01*
X151840416Y-94605835D01*
X151957817Y-94702183D01*
X152054165Y-94819584D01*
X152125756Y-94953521D01*
X152125757Y-94953524D01*
X152169844Y-95098858D01*
X152184730Y-95250000D01*
X152169844Y-95401142D01*
X152125757Y-95546476D01*
X152125756Y-95546479D01*
X152054165Y-95680416D01*
X151957817Y-95797817D01*
X151840416Y-95894165D01*
X151706479Y-95965756D01*
X151706476Y-95965757D01*
X151561142Y-96009844D01*
X151488394Y-96017009D01*
X151447873Y-96021000D01*
X150812127Y-96021000D01*
X150771606Y-96017009D01*
X150698858Y-96009844D01*
X150553524Y-95965757D01*
X150553521Y-95965756D01*
X150419584Y-95894165D01*
X150302183Y-95797817D01*
X150205835Y-95680416D01*
X150134244Y-95546479D01*
X150134243Y-95546476D01*
X150090156Y-95401142D01*
X150075270Y-95250000D01*
X150090156Y-95098858D01*
X150134243Y-94953524D01*
X150134244Y-94953521D01*
X150205835Y-94819584D01*
X150302183Y-94702183D01*
X150419584Y-94605835D01*
X150553521Y-94534244D01*
X150553524Y-94534243D01*
X150698858Y-94490156D01*
X150774371Y-94482719D01*
X150812127Y-94479000D01*
X151447873Y-94479000D01*
X151485629Y-94482719D01*
X151485629Y-94482719D01*
G37*
G36*
X138785629Y-94482719D02*
G01*
X138861142Y-94490156D01*
X139006476Y-94534243D01*
X139006479Y-94534244D01*
X139140416Y-94605835D01*
X139257817Y-94702183D01*
X139354165Y-94819584D01*
X139425756Y-94953521D01*
X139425757Y-94953524D01*
X139469844Y-95098858D01*
X139484730Y-95250000D01*
X139469844Y-95401142D01*
X139425757Y-95546476D01*
X139425756Y-95546479D01*
X139354165Y-95680416D01*
X139257817Y-95797817D01*
X139140416Y-95894165D01*
X139006479Y-95965756D01*
X139006476Y-95965757D01*
X138861142Y-96009844D01*
X138788394Y-96017009D01*
X138747873Y-96021000D01*
X138112127Y-96021000D01*
X138071606Y-96017009D01*
X137998858Y-96009844D01*
X137853524Y-95965757D01*
X137853521Y-95965756D01*
X137719584Y-95894165D01*
X137602183Y-95797817D01*
X137505835Y-95680416D01*
X137434244Y-95546479D01*
X137434243Y-95546476D01*
X137390156Y-95401142D01*
X137375270Y-95250000D01*
X137390156Y-95098858D01*
X137434243Y-94953524D01*
X137434244Y-94953521D01*
X137505835Y-94819584D01*
X137602183Y-94702183D01*
X137719584Y-94605835D01*
X137853521Y-94534244D01*
X137853524Y-94534243D01*
X137998858Y-94490156D01*
X138074371Y-94482719D01*
X138112127Y-94479000D01*
X138747873Y-94479000D01*
X138785629Y-94482719D01*
X138785629Y-94482719D01*
G37*
G36*
X146405629Y-94482719D02*
G01*
X146481142Y-94490156D01*
X146626476Y-94534243D01*
X146626479Y-94534244D01*
X146760416Y-94605835D01*
X146877817Y-94702183D01*
X146974165Y-94819584D01*
X147045756Y-94953521D01*
X147045757Y-94953524D01*
X147089844Y-95098858D01*
X147104730Y-95250000D01*
X147089844Y-95401142D01*
X147045757Y-95546476D01*
X147045756Y-95546479D01*
X146974165Y-95680416D01*
X146877817Y-95797817D01*
X146760416Y-95894165D01*
X146626479Y-95965756D01*
X146626476Y-95965757D01*
X146481142Y-96009844D01*
X146408394Y-96017009D01*
X146367873Y-96021000D01*
X145732127Y-96021000D01*
X145691606Y-96017009D01*
X145618858Y-96009844D01*
X145473524Y-95965757D01*
X145473521Y-95965756D01*
X145339584Y-95894165D01*
X145222183Y-95797817D01*
X145125835Y-95680416D01*
X145054244Y-95546479D01*
X145054243Y-95546476D01*
X145010156Y-95401142D01*
X144995270Y-95250000D01*
X145010156Y-95098858D01*
X145054243Y-94953524D01*
X145054244Y-94953521D01*
X145125835Y-94819584D01*
X145222183Y-94702183D01*
X145339584Y-94605835D01*
X145473521Y-94534244D01*
X145473524Y-94534243D01*
X145618858Y-94490156D01*
X145694371Y-94482719D01*
X145732127Y-94479000D01*
X146367873Y-94479000D01*
X146405629Y-94482719D01*
X146405629Y-94482719D01*
G37*
G36*
X173180443Y-93085519D02*
G01*
X173246627Y-93092037D01*
X173416466Y-93143557D01*
X173572991Y-93227222D01*
X173608729Y-93256552D01*
X173710186Y-93339814D01*
X173793448Y-93441271D01*
X173822778Y-93477009D01*
X173906443Y-93633534D01*
X173957963Y-93803373D01*
X173975359Y-93980000D01*
X173957963Y-94156627D01*
X173906443Y-94326466D01*
X173822778Y-94482991D01*
X173793448Y-94518729D01*
X173710186Y-94620186D01*
X173610271Y-94702183D01*
X173572991Y-94732778D01*
X173416466Y-94816443D01*
X173246627Y-94867963D01*
X173180443Y-94874481D01*
X173114260Y-94881000D01*
X172325740Y-94881000D01*
X172259557Y-94874481D01*
X172193373Y-94867963D01*
X172023534Y-94816443D01*
X171867009Y-94732778D01*
X171829729Y-94702183D01*
X171729814Y-94620186D01*
X171646552Y-94518729D01*
X171617222Y-94482991D01*
X171533557Y-94326466D01*
X171482037Y-94156627D01*
X171464641Y-93980000D01*
X171482037Y-93803373D01*
X171533557Y-93633534D01*
X171617222Y-93477009D01*
X171646552Y-93441271D01*
X171729814Y-93339814D01*
X171831271Y-93256552D01*
X171867009Y-93227222D01*
X172023534Y-93143557D01*
X172193373Y-93092037D01*
X172259557Y-93085519D01*
X172325740Y-93079000D01*
X173114260Y-93079000D01*
X173180443Y-93085519D01*
X173180443Y-93085519D01*
G37*
G36*
X157940443Y-93085519D02*
G01*
X158006627Y-93092037D01*
X158176466Y-93143557D01*
X158332991Y-93227222D01*
X158368729Y-93256552D01*
X158470186Y-93339814D01*
X158553448Y-93441271D01*
X158582778Y-93477009D01*
X158666443Y-93633534D01*
X158717963Y-93803373D01*
X158735359Y-93980000D01*
X158717963Y-94156627D01*
X158666443Y-94326466D01*
X158582778Y-94482991D01*
X158553448Y-94518729D01*
X158470186Y-94620186D01*
X158370271Y-94702183D01*
X158332991Y-94732778D01*
X158176466Y-94816443D01*
X158006627Y-94867963D01*
X157940443Y-94874481D01*
X157874260Y-94881000D01*
X157085740Y-94881000D01*
X157019557Y-94874481D01*
X156953373Y-94867963D01*
X156783534Y-94816443D01*
X156627009Y-94732778D01*
X156589729Y-94702183D01*
X156489814Y-94620186D01*
X156406552Y-94518729D01*
X156377222Y-94482991D01*
X156293557Y-94326466D01*
X156242037Y-94156627D01*
X156224641Y-93980000D01*
X156242037Y-93803373D01*
X156293557Y-93633534D01*
X156377222Y-93477009D01*
X156406552Y-93441271D01*
X156489814Y-93339814D01*
X156591271Y-93256552D01*
X156627009Y-93227222D01*
X156783534Y-93143557D01*
X156953373Y-93092037D01*
X157019557Y-93085519D01*
X157085740Y-93079000D01*
X157874260Y-93079000D01*
X157940443Y-93085519D01*
X157940443Y-93085519D01*
G37*
G36*
X121216823Y-93141313D02*
G01*
X121377242Y-93189976D01*
X121446922Y-93227221D01*
X121525078Y-93268996D01*
X121654659Y-93375341D01*
X121761004Y-93504922D01*
X121761005Y-93504924D01*
X121840024Y-93652758D01*
X121888687Y-93813177D01*
X121905117Y-93980000D01*
X121888687Y-94146823D01*
X121840024Y-94307242D01*
X121769114Y-94439906D01*
X121761004Y-94455078D01*
X121654659Y-94584659D01*
X121525078Y-94691004D01*
X121525076Y-94691005D01*
X121377242Y-94770024D01*
X121216823Y-94818687D01*
X121091804Y-94831000D01*
X120208196Y-94831000D01*
X120083177Y-94818687D01*
X119922758Y-94770024D01*
X119774924Y-94691005D01*
X119774922Y-94691004D01*
X119645341Y-94584659D01*
X119538996Y-94455078D01*
X119530886Y-94439906D01*
X119459976Y-94307242D01*
X119411313Y-94146823D01*
X119394883Y-93980000D01*
X119411313Y-93813177D01*
X119459976Y-93652758D01*
X119538995Y-93504924D01*
X119538996Y-93504922D01*
X119645341Y-93375341D01*
X119774922Y-93268996D01*
X119853078Y-93227221D01*
X119922758Y-93189976D01*
X120083177Y-93141313D01*
X120208196Y-93129000D01*
X121091804Y-93129000D01*
X121216823Y-93141313D01*
X121216823Y-93141313D01*
G37*
G36*
X128836823Y-93141313D02*
G01*
X128997242Y-93189976D01*
X129066922Y-93227221D01*
X129145078Y-93268996D01*
X129274659Y-93375341D01*
X129381004Y-93504922D01*
X129381005Y-93504924D01*
X129460024Y-93652758D01*
X129508687Y-93813177D01*
X129525117Y-93980000D01*
X129508687Y-94146823D01*
X129460024Y-94307242D01*
X129389114Y-94439906D01*
X129381004Y-94455078D01*
X129274659Y-94584659D01*
X129145078Y-94691004D01*
X129145076Y-94691005D01*
X128997242Y-94770024D01*
X128836823Y-94818687D01*
X128711804Y-94831000D01*
X127828196Y-94831000D01*
X127703177Y-94818687D01*
X127542758Y-94770024D01*
X127394924Y-94691005D01*
X127394922Y-94691004D01*
X127265341Y-94584659D01*
X127158996Y-94455078D01*
X127150886Y-94439906D01*
X127079976Y-94307242D01*
X127031313Y-94146823D01*
X127014883Y-93980000D01*
X127031313Y-93813177D01*
X127079976Y-93652758D01*
X127158995Y-93504924D01*
X127158996Y-93504922D01*
X127265341Y-93375341D01*
X127394922Y-93268996D01*
X127473078Y-93227221D01*
X127542758Y-93189976D01*
X127703177Y-93141313D01*
X127828196Y-93129000D01*
X128711804Y-93129000D01*
X128836823Y-93141313D01*
X128836823Y-93141313D01*
G37*
G36*
X146405629Y-91942719D02*
G01*
X146481142Y-91950156D01*
X146626476Y-91994243D01*
X146626479Y-91994244D01*
X146760416Y-92065835D01*
X146877817Y-92162183D01*
X146974165Y-92279584D01*
X147045756Y-92413521D01*
X147045757Y-92413524D01*
X147089844Y-92558858D01*
X147104730Y-92710000D01*
X147089844Y-92861142D01*
X147045757Y-93006476D01*
X147045756Y-93006479D01*
X146974165Y-93140416D01*
X146877817Y-93257817D01*
X146760416Y-93354165D01*
X146626479Y-93425756D01*
X146626476Y-93425757D01*
X146481142Y-93469844D01*
X146408394Y-93477009D01*
X146367873Y-93481000D01*
X145732127Y-93481000D01*
X145691606Y-93477009D01*
X145618858Y-93469844D01*
X145473524Y-93425757D01*
X145473521Y-93425756D01*
X145339584Y-93354165D01*
X145222183Y-93257817D01*
X145125835Y-93140416D01*
X145054244Y-93006479D01*
X145054243Y-93006476D01*
X145010156Y-92861142D01*
X144995270Y-92710000D01*
X145010156Y-92558858D01*
X145054243Y-92413524D01*
X145054244Y-92413521D01*
X145125835Y-92279584D01*
X145222183Y-92162183D01*
X145339584Y-92065835D01*
X145473521Y-91994244D01*
X145473524Y-91994243D01*
X145618858Y-91950156D01*
X145694371Y-91942719D01*
X145732127Y-91939000D01*
X146367873Y-91939000D01*
X146405629Y-91942719D01*
X146405629Y-91942719D01*
G37*
G36*
X151485629Y-91942719D02*
G01*
X151561142Y-91950156D01*
X151706476Y-91994243D01*
X151706479Y-91994244D01*
X151840416Y-92065835D01*
X151957817Y-92162183D01*
X152054165Y-92279584D01*
X152125756Y-92413521D01*
X152125757Y-92413524D01*
X152169844Y-92558858D01*
X152184730Y-92710000D01*
X152169844Y-92861142D01*
X152125757Y-93006476D01*
X152125756Y-93006479D01*
X152054165Y-93140416D01*
X151957817Y-93257817D01*
X151840416Y-93354165D01*
X151706479Y-93425756D01*
X151706476Y-93425757D01*
X151561142Y-93469844D01*
X151488394Y-93477009D01*
X151447873Y-93481000D01*
X150812127Y-93481000D01*
X150771606Y-93477009D01*
X150698858Y-93469844D01*
X150553524Y-93425757D01*
X150553521Y-93425756D01*
X150419584Y-93354165D01*
X150302183Y-93257817D01*
X150205835Y-93140416D01*
X150134244Y-93006479D01*
X150134243Y-93006476D01*
X150090156Y-92861142D01*
X150075270Y-92710000D01*
X150090156Y-92558858D01*
X150134243Y-92413524D01*
X150134244Y-92413521D01*
X150205835Y-92279584D01*
X150302183Y-92162183D01*
X150419584Y-92065835D01*
X150553521Y-91994244D01*
X150553524Y-91994243D01*
X150698858Y-91950156D01*
X150774371Y-91942719D01*
X150812127Y-91939000D01*
X151447873Y-91939000D01*
X151485629Y-91942719D01*
X151485629Y-91942719D01*
G37*
G36*
X136245629Y-91942719D02*
G01*
X136321142Y-91950156D01*
X136466476Y-91994243D01*
X136466479Y-91994244D01*
X136600416Y-92065835D01*
X136717817Y-92162183D01*
X136814165Y-92279584D01*
X136885756Y-92413521D01*
X136885757Y-92413524D01*
X136929844Y-92558858D01*
X136944730Y-92710000D01*
X136929844Y-92861142D01*
X136885757Y-93006476D01*
X136885756Y-93006479D01*
X136814165Y-93140416D01*
X136717817Y-93257817D01*
X136600416Y-93354165D01*
X136466479Y-93425756D01*
X136466476Y-93425757D01*
X136321142Y-93469844D01*
X136248394Y-93477009D01*
X136207873Y-93481000D01*
X135572127Y-93481000D01*
X135531606Y-93477009D01*
X135458858Y-93469844D01*
X135313524Y-93425757D01*
X135313521Y-93425756D01*
X135179584Y-93354165D01*
X135062183Y-93257817D01*
X134965835Y-93140416D01*
X134894244Y-93006479D01*
X134894243Y-93006476D01*
X134850156Y-92861142D01*
X134835270Y-92710000D01*
X134850156Y-92558858D01*
X134894243Y-92413524D01*
X134894244Y-92413521D01*
X134965835Y-92279584D01*
X135062183Y-92162183D01*
X135179584Y-92065835D01*
X135313521Y-91994244D01*
X135313524Y-91994243D01*
X135458858Y-91950156D01*
X135534371Y-91942719D01*
X135572127Y-91939000D01*
X136207873Y-91939000D01*
X136245629Y-91942719D01*
X136245629Y-91942719D01*
G37*
G36*
X138785629Y-91942719D02*
G01*
X138861142Y-91950156D01*
X139006476Y-91994243D01*
X139006479Y-91994244D01*
X139140416Y-92065835D01*
X139257817Y-92162183D01*
X139354165Y-92279584D01*
X139425756Y-92413521D01*
X139425757Y-92413524D01*
X139469844Y-92558858D01*
X139484730Y-92710000D01*
X139469844Y-92861142D01*
X139425757Y-93006476D01*
X139425756Y-93006479D01*
X139354165Y-93140416D01*
X139257817Y-93257817D01*
X139140416Y-93354165D01*
X139006479Y-93425756D01*
X139006476Y-93425757D01*
X138861142Y-93469844D01*
X138788394Y-93477009D01*
X138747873Y-93481000D01*
X138112127Y-93481000D01*
X138071606Y-93477009D01*
X137998858Y-93469844D01*
X137853524Y-93425757D01*
X137853521Y-93425756D01*
X137719584Y-93354165D01*
X137602183Y-93257817D01*
X137505835Y-93140416D01*
X137434244Y-93006479D01*
X137434243Y-93006476D01*
X137390156Y-92861142D01*
X137375270Y-92710000D01*
X137390156Y-92558858D01*
X137434243Y-92413524D01*
X137434244Y-92413521D01*
X137505835Y-92279584D01*
X137602183Y-92162183D01*
X137719584Y-92065835D01*
X137853521Y-91994244D01*
X137853524Y-91994243D01*
X137998858Y-91950156D01*
X138074371Y-91942719D01*
X138112127Y-91939000D01*
X138747873Y-91939000D01*
X138785629Y-91942719D01*
X138785629Y-91942719D01*
G37*
G36*
X173180443Y-90545519D02*
G01*
X173246627Y-90552037D01*
X173416466Y-90603557D01*
X173572991Y-90687222D01*
X173608729Y-90716552D01*
X173710186Y-90799814D01*
X173793448Y-90901271D01*
X173822778Y-90937009D01*
X173906443Y-91093534D01*
X173957963Y-91263373D01*
X173975359Y-91440000D01*
X173957963Y-91616627D01*
X173906443Y-91786466D01*
X173822778Y-91942991D01*
X173793448Y-91978729D01*
X173710186Y-92080186D01*
X173610271Y-92162183D01*
X173572991Y-92192778D01*
X173416466Y-92276443D01*
X173246627Y-92327963D01*
X173180443Y-92334481D01*
X173114260Y-92341000D01*
X172325740Y-92341000D01*
X172259557Y-92334481D01*
X172193373Y-92327963D01*
X172023534Y-92276443D01*
X171867009Y-92192778D01*
X171829729Y-92162183D01*
X171729814Y-92080186D01*
X171646552Y-91978729D01*
X171617222Y-91942991D01*
X171533557Y-91786466D01*
X171482037Y-91616627D01*
X171464641Y-91440000D01*
X171482037Y-91263373D01*
X171533557Y-91093534D01*
X171617222Y-90937009D01*
X171646552Y-90901271D01*
X171729814Y-90799814D01*
X171831271Y-90716552D01*
X171867009Y-90687222D01*
X172023534Y-90603557D01*
X172193373Y-90552037D01*
X172259558Y-90545518D01*
X172325740Y-90539000D01*
X173114260Y-90539000D01*
X173180443Y-90545519D01*
X173180443Y-90545519D01*
G37*
G36*
X157940443Y-90545519D02*
G01*
X158006627Y-90552037D01*
X158176466Y-90603557D01*
X158332991Y-90687222D01*
X158368729Y-90716552D01*
X158470186Y-90799814D01*
X158553448Y-90901271D01*
X158582778Y-90937009D01*
X158666443Y-91093534D01*
X158717963Y-91263373D01*
X158735359Y-91440000D01*
X158717963Y-91616627D01*
X158666443Y-91786466D01*
X158582778Y-91942991D01*
X158553448Y-91978729D01*
X158470186Y-92080186D01*
X158370271Y-92162183D01*
X158332991Y-92192778D01*
X158176466Y-92276443D01*
X158006627Y-92327963D01*
X157940443Y-92334481D01*
X157874260Y-92341000D01*
X157085740Y-92341000D01*
X157019557Y-92334481D01*
X156953373Y-92327963D01*
X156783534Y-92276443D01*
X156627009Y-92192778D01*
X156589729Y-92162183D01*
X156489814Y-92080186D01*
X156406552Y-91978729D01*
X156377222Y-91942991D01*
X156293557Y-91786466D01*
X156242037Y-91616627D01*
X156224641Y-91440000D01*
X156242037Y-91263373D01*
X156293557Y-91093534D01*
X156377222Y-90937009D01*
X156406552Y-90901271D01*
X156489814Y-90799814D01*
X156591271Y-90716552D01*
X156627009Y-90687222D01*
X156783534Y-90603557D01*
X156953373Y-90552037D01*
X157019558Y-90545518D01*
X157085740Y-90539000D01*
X157874260Y-90539000D01*
X157940443Y-90545519D01*
X157940443Y-90545519D01*
G37*
G36*
X121216823Y-90601313D02*
G01*
X121377242Y-90649976D01*
X121446922Y-90687221D01*
X121525078Y-90728996D01*
X121654659Y-90835341D01*
X121761004Y-90964922D01*
X121761005Y-90964924D01*
X121840024Y-91112758D01*
X121888687Y-91273177D01*
X121905117Y-91440000D01*
X121888687Y-91606823D01*
X121840024Y-91767242D01*
X121829747Y-91786468D01*
X121761004Y-91915078D01*
X121654659Y-92044659D01*
X121525078Y-92151004D01*
X121525076Y-92151005D01*
X121377242Y-92230024D01*
X121216823Y-92278687D01*
X121091804Y-92291000D01*
X120208196Y-92291000D01*
X120083177Y-92278687D01*
X119922758Y-92230024D01*
X119774924Y-92151005D01*
X119774922Y-92151004D01*
X119645341Y-92044659D01*
X119538996Y-91915078D01*
X119470253Y-91786468D01*
X119459976Y-91767242D01*
X119411313Y-91606823D01*
X119394883Y-91440000D01*
X119411313Y-91273177D01*
X119459976Y-91112758D01*
X119538995Y-90964924D01*
X119538996Y-90964922D01*
X119645341Y-90835341D01*
X119774922Y-90728996D01*
X119853078Y-90687221D01*
X119922758Y-90649976D01*
X120083177Y-90601313D01*
X120208196Y-90589000D01*
X121091804Y-90589000D01*
X121216823Y-90601313D01*
X121216823Y-90601313D01*
G37*
G36*
X128836823Y-90601313D02*
G01*
X128997242Y-90649976D01*
X129066922Y-90687221D01*
X129145078Y-90728996D01*
X129274659Y-90835341D01*
X129381004Y-90964922D01*
X129381005Y-90964924D01*
X129460024Y-91112758D01*
X129508687Y-91273177D01*
X129525117Y-91440000D01*
X129508687Y-91606823D01*
X129460024Y-91767242D01*
X129449747Y-91786468D01*
X129381004Y-91915078D01*
X129274659Y-92044659D01*
X129145078Y-92151004D01*
X129145076Y-92151005D01*
X128997242Y-92230024D01*
X128836823Y-92278687D01*
X128711804Y-92291000D01*
X127828196Y-92291000D01*
X127703177Y-92278687D01*
X127542758Y-92230024D01*
X127394924Y-92151005D01*
X127394922Y-92151004D01*
X127265341Y-92044659D01*
X127158996Y-91915078D01*
X127090253Y-91786468D01*
X127079976Y-91767242D01*
X127031313Y-91606823D01*
X127014883Y-91440000D01*
X127031313Y-91273177D01*
X127079976Y-91112758D01*
X127158995Y-90964924D01*
X127158996Y-90964922D01*
X127265341Y-90835341D01*
X127394922Y-90728996D01*
X127473078Y-90687221D01*
X127542758Y-90649976D01*
X127703177Y-90601313D01*
X127828196Y-90589000D01*
X128711804Y-90589000D01*
X128836823Y-90601313D01*
X128836823Y-90601313D01*
G37*
G36*
X136245629Y-89402719D02*
G01*
X136321142Y-89410156D01*
X136466476Y-89454243D01*
X136466479Y-89454244D01*
X136600416Y-89525835D01*
X136717817Y-89622183D01*
X136814165Y-89739584D01*
X136885756Y-89873521D01*
X136885757Y-89873524D01*
X136929844Y-90018858D01*
X136944730Y-90170000D01*
X136929844Y-90321142D01*
X136885757Y-90466476D01*
X136885756Y-90466479D01*
X136814165Y-90600416D01*
X136717817Y-90717817D01*
X136600416Y-90814165D01*
X136466479Y-90885756D01*
X136466476Y-90885757D01*
X136321142Y-90929844D01*
X136248394Y-90937009D01*
X136207873Y-90941000D01*
X135572127Y-90941000D01*
X135531606Y-90937009D01*
X135458858Y-90929844D01*
X135313524Y-90885757D01*
X135313521Y-90885756D01*
X135179584Y-90814165D01*
X135062183Y-90717817D01*
X134965835Y-90600416D01*
X134894244Y-90466479D01*
X134894243Y-90466476D01*
X134850156Y-90321142D01*
X134835270Y-90170000D01*
X134850156Y-90018858D01*
X134894243Y-89873524D01*
X134894244Y-89873521D01*
X134965835Y-89739584D01*
X135062183Y-89622183D01*
X135179584Y-89525835D01*
X135313521Y-89454244D01*
X135313524Y-89454243D01*
X135458858Y-89410156D01*
X135534371Y-89402719D01*
X135572127Y-89399000D01*
X136207873Y-89399000D01*
X136245629Y-89402719D01*
X136245629Y-89402719D01*
G37*
G36*
X138785629Y-89402719D02*
G01*
X138861142Y-89410156D01*
X139006476Y-89454243D01*
X139006479Y-89454244D01*
X139140416Y-89525835D01*
X139257817Y-89622183D01*
X139354165Y-89739584D01*
X139425756Y-89873521D01*
X139425757Y-89873524D01*
X139469844Y-90018858D01*
X139484730Y-90170000D01*
X139469844Y-90321142D01*
X139425757Y-90466476D01*
X139425756Y-90466479D01*
X139354165Y-90600416D01*
X139257817Y-90717817D01*
X139140416Y-90814165D01*
X139006479Y-90885756D01*
X139006476Y-90885757D01*
X138861142Y-90929844D01*
X138788394Y-90937009D01*
X138747873Y-90941000D01*
X138112127Y-90941000D01*
X138071606Y-90937009D01*
X137998858Y-90929844D01*
X137853524Y-90885757D01*
X137853521Y-90885756D01*
X137719584Y-90814165D01*
X137602183Y-90717817D01*
X137505835Y-90600416D01*
X137434244Y-90466479D01*
X137434243Y-90466476D01*
X137390156Y-90321142D01*
X137375270Y-90170000D01*
X137390156Y-90018858D01*
X137434243Y-89873524D01*
X137434244Y-89873521D01*
X137505835Y-89739584D01*
X137602183Y-89622183D01*
X137719584Y-89525835D01*
X137853521Y-89454244D01*
X137853524Y-89454243D01*
X137998858Y-89410156D01*
X138074371Y-89402719D01*
X138112127Y-89399000D01*
X138747873Y-89399000D01*
X138785629Y-89402719D01*
X138785629Y-89402719D01*
G37*
G36*
X151485629Y-89402719D02*
G01*
X151561142Y-89410156D01*
X151706476Y-89454243D01*
X151706479Y-89454244D01*
X151840416Y-89525835D01*
X151957817Y-89622183D01*
X152054165Y-89739584D01*
X152125756Y-89873521D01*
X152125757Y-89873524D01*
X152169844Y-90018858D01*
X152184730Y-90170000D01*
X152169844Y-90321142D01*
X152125757Y-90466476D01*
X152125756Y-90466479D01*
X152054165Y-90600416D01*
X151957817Y-90717817D01*
X151840416Y-90814165D01*
X151706479Y-90885756D01*
X151706476Y-90885757D01*
X151561142Y-90929844D01*
X151488394Y-90937009D01*
X151447873Y-90941000D01*
X150812127Y-90941000D01*
X150771606Y-90937009D01*
X150698858Y-90929844D01*
X150553524Y-90885757D01*
X150553521Y-90885756D01*
X150419584Y-90814165D01*
X150302183Y-90717817D01*
X150205835Y-90600416D01*
X150134244Y-90466479D01*
X150134243Y-90466476D01*
X150090156Y-90321142D01*
X150075270Y-90170000D01*
X150090156Y-90018858D01*
X150134243Y-89873524D01*
X150134244Y-89873521D01*
X150205835Y-89739584D01*
X150302183Y-89622183D01*
X150419584Y-89525835D01*
X150553521Y-89454244D01*
X150553524Y-89454243D01*
X150698858Y-89410156D01*
X150774371Y-89402719D01*
X150812127Y-89399000D01*
X151447873Y-89399000D01*
X151485629Y-89402719D01*
X151485629Y-89402719D01*
G37*
G36*
X146405629Y-89402719D02*
G01*
X146481142Y-89410156D01*
X146626476Y-89454243D01*
X146626479Y-89454244D01*
X146760416Y-89525835D01*
X146877817Y-89622183D01*
X146974165Y-89739584D01*
X147045756Y-89873521D01*
X147045757Y-89873524D01*
X147089844Y-90018858D01*
X147104730Y-90170000D01*
X147089844Y-90321142D01*
X147045757Y-90466476D01*
X147045756Y-90466479D01*
X146974165Y-90600416D01*
X146877817Y-90717817D01*
X146760416Y-90814165D01*
X146626479Y-90885756D01*
X146626476Y-90885757D01*
X146481142Y-90929844D01*
X146408394Y-90937009D01*
X146367873Y-90941000D01*
X145732127Y-90941000D01*
X145691606Y-90937009D01*
X145618858Y-90929844D01*
X145473524Y-90885757D01*
X145473521Y-90885756D01*
X145339584Y-90814165D01*
X145222183Y-90717817D01*
X145125835Y-90600416D01*
X145054244Y-90466479D01*
X145054243Y-90466476D01*
X145010156Y-90321142D01*
X144995270Y-90170000D01*
X145010156Y-90018858D01*
X145054243Y-89873524D01*
X145054244Y-89873521D01*
X145125835Y-89739584D01*
X145222183Y-89622183D01*
X145339584Y-89525835D01*
X145473521Y-89454244D01*
X145473524Y-89454243D01*
X145618858Y-89410156D01*
X145694371Y-89402719D01*
X145732127Y-89399000D01*
X146367873Y-89399000D01*
X146405629Y-89402719D01*
X146405629Y-89402719D01*
G37*
G36*
X157940443Y-88005519D02*
G01*
X158006627Y-88012037D01*
X158176466Y-88063557D01*
X158332991Y-88147222D01*
X158368729Y-88176552D01*
X158470186Y-88259814D01*
X158553448Y-88361271D01*
X158582778Y-88397009D01*
X158666443Y-88553534D01*
X158717963Y-88723373D01*
X158735359Y-88900000D01*
X158717963Y-89076627D01*
X158666443Y-89246466D01*
X158582778Y-89402991D01*
X158553448Y-89438729D01*
X158470186Y-89540186D01*
X158370271Y-89622183D01*
X158332991Y-89652778D01*
X158176466Y-89736443D01*
X158006627Y-89787963D01*
X157940443Y-89794481D01*
X157874260Y-89801000D01*
X157085740Y-89801000D01*
X157019557Y-89794481D01*
X156953373Y-89787963D01*
X156783534Y-89736443D01*
X156627009Y-89652778D01*
X156589729Y-89622183D01*
X156489814Y-89540186D01*
X156406552Y-89438729D01*
X156377222Y-89402991D01*
X156293557Y-89246466D01*
X156242037Y-89076627D01*
X156224641Y-88900000D01*
X156242037Y-88723373D01*
X156293557Y-88553534D01*
X156377222Y-88397009D01*
X156406552Y-88361271D01*
X156489814Y-88259814D01*
X156591271Y-88176552D01*
X156627009Y-88147222D01*
X156783534Y-88063557D01*
X156953373Y-88012037D01*
X157019557Y-88005519D01*
X157085740Y-87999000D01*
X157874260Y-87999000D01*
X157940443Y-88005519D01*
X157940443Y-88005519D01*
G37*
G36*
X173180443Y-88005519D02*
G01*
X173246627Y-88012037D01*
X173416466Y-88063557D01*
X173572991Y-88147222D01*
X173608729Y-88176552D01*
X173710186Y-88259814D01*
X173793448Y-88361271D01*
X173822778Y-88397009D01*
X173906443Y-88553534D01*
X173957963Y-88723373D01*
X173975359Y-88900000D01*
X173957963Y-89076627D01*
X173906443Y-89246466D01*
X173822778Y-89402991D01*
X173793448Y-89438729D01*
X173710186Y-89540186D01*
X173610271Y-89622183D01*
X173572991Y-89652778D01*
X173416466Y-89736443D01*
X173246627Y-89787963D01*
X173180443Y-89794481D01*
X173114260Y-89801000D01*
X172325740Y-89801000D01*
X172259557Y-89794481D01*
X172193373Y-89787963D01*
X172023534Y-89736443D01*
X171867009Y-89652778D01*
X171829729Y-89622183D01*
X171729814Y-89540186D01*
X171646552Y-89438729D01*
X171617222Y-89402991D01*
X171533557Y-89246466D01*
X171482037Y-89076627D01*
X171464641Y-88900000D01*
X171482037Y-88723373D01*
X171533557Y-88553534D01*
X171617222Y-88397009D01*
X171646552Y-88361271D01*
X171729814Y-88259814D01*
X171831271Y-88176552D01*
X171867009Y-88147222D01*
X172023534Y-88063557D01*
X172193373Y-88012037D01*
X172259557Y-88005519D01*
X172325740Y-87999000D01*
X173114260Y-87999000D01*
X173180443Y-88005519D01*
X173180443Y-88005519D01*
G37*
G36*
X128836823Y-88061313D02*
G01*
X128997242Y-88109976D01*
X129066922Y-88147221D01*
X129145078Y-88188996D01*
X129274659Y-88295341D01*
X129381004Y-88424922D01*
X129381005Y-88424924D01*
X129460024Y-88572758D01*
X129508687Y-88733177D01*
X129525117Y-88900000D01*
X129508687Y-89066823D01*
X129460024Y-89227242D01*
X129449747Y-89246468D01*
X129381004Y-89375078D01*
X129274659Y-89504659D01*
X129145078Y-89611004D01*
X129145076Y-89611005D01*
X128997242Y-89690024D01*
X128836823Y-89738687D01*
X128711804Y-89751000D01*
X127828196Y-89751000D01*
X127703177Y-89738687D01*
X127542758Y-89690024D01*
X127394924Y-89611005D01*
X127394922Y-89611004D01*
X127265341Y-89504659D01*
X127158996Y-89375078D01*
X127090253Y-89246468D01*
X127079976Y-89227242D01*
X127031313Y-89066823D01*
X127014883Y-88900000D01*
X127031313Y-88733177D01*
X127079976Y-88572758D01*
X127158995Y-88424924D01*
X127158996Y-88424922D01*
X127265341Y-88295341D01*
X127394922Y-88188996D01*
X127473078Y-88147221D01*
X127542758Y-88109976D01*
X127703177Y-88061313D01*
X127828196Y-88049000D01*
X128711804Y-88049000D01*
X128836823Y-88061313D01*
X128836823Y-88061313D01*
G37*
G36*
X121216823Y-88061313D02*
G01*
X121377242Y-88109976D01*
X121446922Y-88147221D01*
X121525078Y-88188996D01*
X121654659Y-88295341D01*
X121761004Y-88424922D01*
X121761005Y-88424924D01*
X121840024Y-88572758D01*
X121888687Y-88733177D01*
X121905117Y-88900000D01*
X121888687Y-89066823D01*
X121840024Y-89227242D01*
X121829747Y-89246468D01*
X121761004Y-89375078D01*
X121654659Y-89504659D01*
X121525078Y-89611004D01*
X121525076Y-89611005D01*
X121377242Y-89690024D01*
X121216823Y-89738687D01*
X121091804Y-89751000D01*
X120208196Y-89751000D01*
X120083177Y-89738687D01*
X119922758Y-89690024D01*
X119774924Y-89611005D01*
X119774922Y-89611004D01*
X119645341Y-89504659D01*
X119538996Y-89375078D01*
X119470253Y-89246468D01*
X119459976Y-89227242D01*
X119411313Y-89066823D01*
X119394883Y-88900000D01*
X119411313Y-88733177D01*
X119459976Y-88572758D01*
X119538995Y-88424924D01*
X119538996Y-88424922D01*
X119645341Y-88295341D01*
X119774922Y-88188996D01*
X119853078Y-88147221D01*
X119922758Y-88109976D01*
X120083177Y-88061313D01*
X120208196Y-88049000D01*
X121091804Y-88049000D01*
X121216823Y-88061313D01*
X121216823Y-88061313D01*
G37*
G36*
X188126823Y-86791313D02*
G01*
X188287242Y-86839976D01*
X188419906Y-86910886D01*
X188435078Y-86918996D01*
X188564659Y-87025341D01*
X188671004Y-87154922D01*
X188671005Y-87154924D01*
X188750024Y-87302758D01*
X188798687Y-87463177D01*
X188815117Y-87630000D01*
X188798687Y-87796823D01*
X188750024Y-87957242D01*
X188720735Y-88012037D01*
X188671004Y-88105078D01*
X188564659Y-88234659D01*
X188435078Y-88341004D01*
X188435076Y-88341005D01*
X188287242Y-88420024D01*
X188126823Y-88468687D01*
X188001804Y-88481000D01*
X187918196Y-88481000D01*
X187793177Y-88468687D01*
X187632758Y-88420024D01*
X187484924Y-88341005D01*
X187484922Y-88341004D01*
X187355341Y-88234659D01*
X187248996Y-88105078D01*
X187199265Y-88012037D01*
X187169976Y-87957242D01*
X187121313Y-87796823D01*
X187104883Y-87630000D01*
X187121313Y-87463177D01*
X187169976Y-87302758D01*
X187248995Y-87154924D01*
X187248996Y-87154922D01*
X187355341Y-87025341D01*
X187484922Y-86918996D01*
X187500094Y-86910886D01*
X187632758Y-86839976D01*
X187793177Y-86791313D01*
X187918196Y-86779000D01*
X188001804Y-86779000D01*
X188126823Y-86791313D01*
X188126823Y-86791313D01*
G37*
G36*
X184570823Y-86791313D02*
G01*
X184731242Y-86839976D01*
X184863906Y-86910886D01*
X184879078Y-86918996D01*
X185008659Y-87025341D01*
X185115004Y-87154922D01*
X185115005Y-87154924D01*
X185194024Y-87302758D01*
X185242687Y-87463177D01*
X185259117Y-87630000D01*
X185242687Y-87796823D01*
X185194024Y-87957242D01*
X185164735Y-88012037D01*
X185115004Y-88105078D01*
X185008659Y-88234659D01*
X184879078Y-88341004D01*
X184879076Y-88341005D01*
X184731242Y-88420024D01*
X184570823Y-88468687D01*
X184445804Y-88481000D01*
X184362196Y-88481000D01*
X184237177Y-88468687D01*
X184076758Y-88420024D01*
X183928924Y-88341005D01*
X183928922Y-88341004D01*
X183799341Y-88234659D01*
X183692996Y-88105078D01*
X183643265Y-88012037D01*
X183613976Y-87957242D01*
X183565313Y-87796823D01*
X183548883Y-87630000D01*
X183565313Y-87463177D01*
X183613976Y-87302758D01*
X183692995Y-87154924D01*
X183692996Y-87154922D01*
X183799341Y-87025341D01*
X183928922Y-86918996D01*
X183944094Y-86910886D01*
X184076758Y-86839976D01*
X184237177Y-86791313D01*
X184362196Y-86779000D01*
X184445804Y-86779000D01*
X184570823Y-86791313D01*
X184570823Y-86791313D01*
G37*
G36*
X146405629Y-86862719D02*
G01*
X146481142Y-86870156D01*
X146626476Y-86914243D01*
X146626479Y-86914244D01*
X146760416Y-86985835D01*
X146877817Y-87082183D01*
X146974165Y-87199584D01*
X147045756Y-87333521D01*
X147045757Y-87333524D01*
X147089844Y-87478858D01*
X147104730Y-87630000D01*
X147089844Y-87781142D01*
X147045757Y-87926476D01*
X147045756Y-87926479D01*
X146974165Y-88060416D01*
X146877817Y-88177817D01*
X146760416Y-88274165D01*
X146626479Y-88345756D01*
X146626476Y-88345757D01*
X146481142Y-88389844D01*
X146408394Y-88397009D01*
X146367873Y-88401000D01*
X145732127Y-88401000D01*
X145691606Y-88397009D01*
X145618858Y-88389844D01*
X145473524Y-88345757D01*
X145473521Y-88345756D01*
X145339584Y-88274165D01*
X145222183Y-88177817D01*
X145125835Y-88060416D01*
X145054244Y-87926479D01*
X145054243Y-87926476D01*
X145010156Y-87781142D01*
X144995270Y-87630000D01*
X145010156Y-87478858D01*
X145054243Y-87333524D01*
X145054244Y-87333521D01*
X145125835Y-87199584D01*
X145222183Y-87082183D01*
X145339584Y-86985835D01*
X145473521Y-86914244D01*
X145473524Y-86914243D01*
X145618858Y-86870156D01*
X145694371Y-86862719D01*
X145732127Y-86859000D01*
X146367873Y-86859000D01*
X146405629Y-86862719D01*
X146405629Y-86862719D01*
G37*
G36*
X136941000Y-88401000D02*
G01*
X134839000Y-88401000D01*
X134839000Y-86859000D01*
X136941000Y-86859000D01*
X136941000Y-88401000D01*
X136941000Y-88401000D01*
G37*
G36*
X151485629Y-86862719D02*
G01*
X151561142Y-86870156D01*
X151706476Y-86914243D01*
X151706479Y-86914244D01*
X151840416Y-86985835D01*
X151957817Y-87082183D01*
X152054165Y-87199584D01*
X152125756Y-87333521D01*
X152125757Y-87333524D01*
X152169844Y-87478858D01*
X152184730Y-87630000D01*
X152169844Y-87781142D01*
X152125757Y-87926476D01*
X152125756Y-87926479D01*
X152054165Y-88060416D01*
X151957817Y-88177817D01*
X151840416Y-88274165D01*
X151706479Y-88345756D01*
X151706476Y-88345757D01*
X151561142Y-88389844D01*
X151488394Y-88397009D01*
X151447873Y-88401000D01*
X150812127Y-88401000D01*
X150771606Y-88397009D01*
X150698858Y-88389844D01*
X150553524Y-88345757D01*
X150553521Y-88345756D01*
X150419584Y-88274165D01*
X150302183Y-88177817D01*
X150205835Y-88060416D01*
X150134244Y-87926479D01*
X150134243Y-87926476D01*
X150090156Y-87781142D01*
X150075270Y-87630000D01*
X150090156Y-87478858D01*
X150134243Y-87333524D01*
X150134244Y-87333521D01*
X150205835Y-87199584D01*
X150302183Y-87082183D01*
X150419584Y-86985835D01*
X150553521Y-86914244D01*
X150553524Y-86914243D01*
X150698858Y-86870156D01*
X150774371Y-86862719D01*
X150812127Y-86859000D01*
X151447873Y-86859000D01*
X151485629Y-86862719D01*
X151485629Y-86862719D01*
G37*
G36*
X139481000Y-88401000D02*
G01*
X137379000Y-88401000D01*
X137379000Y-86859000D01*
X139481000Y-86859000D01*
X139481000Y-88401000D01*
X139481000Y-88401000D01*
G37*
G36*
X178077395Y-85445546D02*
G01*
X178250466Y-85517234D01*
X178327818Y-85568919D01*
X178406227Y-85621310D01*
X178538690Y-85753773D01*
X178591081Y-85832182D01*
X178642766Y-85909534D01*
X178714454Y-86082605D01*
X178751000Y-86266333D01*
X178751000Y-86453667D01*
X178714454Y-86637395D01*
X178642766Y-86810466D01*
X178607671Y-86862989D01*
X178538690Y-86966227D01*
X178406227Y-87098690D01*
X178385141Y-87112779D01*
X178250466Y-87202766D01*
X178077395Y-87274454D01*
X177893667Y-87311000D01*
X177706333Y-87311000D01*
X177522605Y-87274454D01*
X177349534Y-87202766D01*
X177214859Y-87112779D01*
X177193773Y-87098690D01*
X177061310Y-86966227D01*
X176992329Y-86862989D01*
X176957234Y-86810466D01*
X176885546Y-86637395D01*
X176849000Y-86453667D01*
X176849000Y-86266333D01*
X176885546Y-86082605D01*
X176957234Y-85909534D01*
X177008919Y-85832182D01*
X177061310Y-85753773D01*
X177193773Y-85621310D01*
X177272182Y-85568919D01*
X177349534Y-85517234D01*
X177522605Y-85445546D01*
X177706333Y-85409000D01*
X177893667Y-85409000D01*
X178077395Y-85445546D01*
X178077395Y-85445546D01*
G37*
G36*
X181291000Y-87311000D02*
G01*
X179389000Y-87311000D01*
X179389000Y-85409000D01*
X181291000Y-85409000D01*
X181291000Y-87311000D01*
X181291000Y-87311000D01*
G37*
G36*
X173180442Y-85465518D02*
G01*
X173246627Y-85472037D01*
X173416466Y-85523557D01*
X173572991Y-85607222D01*
X173590156Y-85621309D01*
X173710186Y-85719814D01*
X173793448Y-85821271D01*
X173822778Y-85857009D01*
X173906443Y-86013534D01*
X173957963Y-86183373D01*
X173975359Y-86360000D01*
X173957963Y-86536627D01*
X173906443Y-86706466D01*
X173822778Y-86862991D01*
X173793448Y-86898729D01*
X173710186Y-87000186D01*
X173610271Y-87082183D01*
X173572991Y-87112778D01*
X173416466Y-87196443D01*
X173246627Y-87247963D01*
X173180442Y-87254482D01*
X173114260Y-87261000D01*
X172325740Y-87261000D01*
X172259558Y-87254482D01*
X172193373Y-87247963D01*
X172023534Y-87196443D01*
X171867009Y-87112778D01*
X171829729Y-87082183D01*
X171729814Y-87000186D01*
X171646552Y-86898729D01*
X171617222Y-86862991D01*
X171533557Y-86706466D01*
X171482037Y-86536627D01*
X171464641Y-86360000D01*
X171482037Y-86183373D01*
X171533557Y-86013534D01*
X171617222Y-85857009D01*
X171646552Y-85821271D01*
X171729814Y-85719814D01*
X171849844Y-85621309D01*
X171867009Y-85607222D01*
X172023534Y-85523557D01*
X172193373Y-85472037D01*
X172259558Y-85465518D01*
X172325740Y-85459000D01*
X173114260Y-85459000D01*
X173180442Y-85465518D01*
X173180442Y-85465518D01*
G37*
G36*
X157940442Y-85465518D02*
G01*
X158006627Y-85472037D01*
X158176466Y-85523557D01*
X158332991Y-85607222D01*
X158350156Y-85621309D01*
X158470186Y-85719814D01*
X158553448Y-85821271D01*
X158582778Y-85857009D01*
X158666443Y-86013534D01*
X158717963Y-86183373D01*
X158735359Y-86360000D01*
X158717963Y-86536627D01*
X158666443Y-86706466D01*
X158582778Y-86862991D01*
X158553448Y-86898729D01*
X158470186Y-87000186D01*
X158370271Y-87082183D01*
X158332991Y-87112778D01*
X158176466Y-87196443D01*
X158006627Y-87247963D01*
X157940442Y-87254482D01*
X157874260Y-87261000D01*
X157085740Y-87261000D01*
X157019558Y-87254482D01*
X156953373Y-87247963D01*
X156783534Y-87196443D01*
X156627009Y-87112778D01*
X156589729Y-87082183D01*
X156489814Y-87000186D01*
X156406552Y-86898729D01*
X156377222Y-86862991D01*
X156293557Y-86706466D01*
X156242037Y-86536627D01*
X156224641Y-86360000D01*
X156242037Y-86183373D01*
X156293557Y-86013534D01*
X156377222Y-85857009D01*
X156406552Y-85821271D01*
X156489814Y-85719814D01*
X156609844Y-85621309D01*
X156627009Y-85607222D01*
X156783534Y-85523557D01*
X156953373Y-85472037D01*
X157019558Y-85465518D01*
X157085740Y-85459000D01*
X157874260Y-85459000D01*
X157940442Y-85465518D01*
X157940442Y-85465518D01*
G37*
G36*
X121216823Y-85521313D02*
G01*
X121377242Y-85569976D01*
X121446922Y-85607221D01*
X121525078Y-85648996D01*
X121654659Y-85755341D01*
X121761004Y-85884922D01*
X121761005Y-85884924D01*
X121840024Y-86032758D01*
X121888687Y-86193177D01*
X121905117Y-86360000D01*
X121888687Y-86526823D01*
X121840024Y-86687242D01*
X121829747Y-86706468D01*
X121761004Y-86835078D01*
X121654659Y-86964659D01*
X121525078Y-87071004D01*
X121525076Y-87071005D01*
X121377242Y-87150024D01*
X121216823Y-87198687D01*
X121091804Y-87211000D01*
X120208196Y-87211000D01*
X120083177Y-87198687D01*
X119922758Y-87150024D01*
X119774924Y-87071005D01*
X119774922Y-87071004D01*
X119645341Y-86964659D01*
X119538996Y-86835078D01*
X119470253Y-86706468D01*
X119459976Y-86687242D01*
X119411313Y-86526823D01*
X119394883Y-86360000D01*
X119411313Y-86193177D01*
X119459976Y-86032758D01*
X119538995Y-85884924D01*
X119538996Y-85884922D01*
X119645341Y-85755341D01*
X119774922Y-85648996D01*
X119853078Y-85607221D01*
X119922758Y-85569976D01*
X120083177Y-85521313D01*
X120208196Y-85509000D01*
X121091804Y-85509000D01*
X121216823Y-85521313D01*
X121216823Y-85521313D01*
G37*
G36*
X128836823Y-85521313D02*
G01*
X128997242Y-85569976D01*
X129066922Y-85607221D01*
X129145078Y-85648996D01*
X129274659Y-85755341D01*
X129381004Y-85884922D01*
X129381005Y-85884924D01*
X129460024Y-86032758D01*
X129508687Y-86193177D01*
X129525117Y-86360000D01*
X129508687Y-86526823D01*
X129460024Y-86687242D01*
X129449747Y-86706468D01*
X129381004Y-86835078D01*
X129274659Y-86964659D01*
X129145078Y-87071004D01*
X129145076Y-87071005D01*
X128997242Y-87150024D01*
X128836823Y-87198687D01*
X128711804Y-87211000D01*
X127828196Y-87211000D01*
X127703177Y-87198687D01*
X127542758Y-87150024D01*
X127394924Y-87071005D01*
X127394922Y-87071004D01*
X127265341Y-86964659D01*
X127158996Y-86835078D01*
X127090253Y-86706468D01*
X127079976Y-86687242D01*
X127031313Y-86526823D01*
X127014883Y-86360000D01*
X127031313Y-86193177D01*
X127079976Y-86032758D01*
X127158995Y-85884924D01*
X127158996Y-85884922D01*
X127265341Y-85755341D01*
X127394922Y-85648996D01*
X127473078Y-85607221D01*
X127542758Y-85569976D01*
X127703177Y-85521313D01*
X127828196Y-85509000D01*
X128711804Y-85509000D01*
X128836823Y-85521313D01*
X128836823Y-85521313D01*
G37*
G36*
X157940443Y-82925519D02*
G01*
X158006627Y-82932037D01*
X158176466Y-82983557D01*
X158332991Y-83067222D01*
X158368729Y-83096552D01*
X158470186Y-83179814D01*
X158553448Y-83281271D01*
X158582778Y-83317009D01*
X158666443Y-83473534D01*
X158717963Y-83643373D01*
X158735359Y-83820000D01*
X158717963Y-83996627D01*
X158666443Y-84166466D01*
X158582778Y-84322991D01*
X158553448Y-84358729D01*
X158470186Y-84460186D01*
X158368729Y-84543448D01*
X158332991Y-84572778D01*
X158176466Y-84656443D01*
X158006627Y-84707963D01*
X157940443Y-84714481D01*
X157874260Y-84721000D01*
X157085740Y-84721000D01*
X157019557Y-84714481D01*
X156953373Y-84707963D01*
X156783534Y-84656443D01*
X156627009Y-84572778D01*
X156591271Y-84543448D01*
X156489814Y-84460186D01*
X156406552Y-84358729D01*
X156377222Y-84322991D01*
X156293557Y-84166466D01*
X156242037Y-83996627D01*
X156224641Y-83820000D01*
X156242037Y-83643373D01*
X156293557Y-83473534D01*
X156377222Y-83317009D01*
X156406552Y-83281271D01*
X156489814Y-83179814D01*
X156591271Y-83096552D01*
X156627009Y-83067222D01*
X156783534Y-82983557D01*
X156953373Y-82932037D01*
X157019557Y-82925519D01*
X157085740Y-82919000D01*
X157874260Y-82919000D01*
X157940443Y-82925519D01*
X157940443Y-82925519D01*
G37*
G36*
X173180443Y-82925519D02*
G01*
X173246627Y-82932037D01*
X173416466Y-82983557D01*
X173572991Y-83067222D01*
X173608729Y-83096552D01*
X173710186Y-83179814D01*
X173793448Y-83281271D01*
X173822778Y-83317009D01*
X173906443Y-83473534D01*
X173957963Y-83643373D01*
X173975359Y-83820000D01*
X173957963Y-83996627D01*
X173906443Y-84166466D01*
X173822778Y-84322991D01*
X173793448Y-84358729D01*
X173710186Y-84460186D01*
X173608729Y-84543448D01*
X173572991Y-84572778D01*
X173416466Y-84656443D01*
X173246627Y-84707963D01*
X173180443Y-84714481D01*
X173114260Y-84721000D01*
X172325740Y-84721000D01*
X172259557Y-84714481D01*
X172193373Y-84707963D01*
X172023534Y-84656443D01*
X171867009Y-84572778D01*
X171831271Y-84543448D01*
X171729814Y-84460186D01*
X171646552Y-84358729D01*
X171617222Y-84322991D01*
X171533557Y-84166466D01*
X171482037Y-83996627D01*
X171464641Y-83820000D01*
X171482037Y-83643373D01*
X171533557Y-83473534D01*
X171617222Y-83317009D01*
X171646552Y-83281271D01*
X171729814Y-83179814D01*
X171831271Y-83096552D01*
X171867009Y-83067222D01*
X172023534Y-82983557D01*
X172193373Y-82932037D01*
X172259557Y-82925519D01*
X172325740Y-82919000D01*
X173114260Y-82919000D01*
X173180443Y-82925519D01*
X173180443Y-82925519D01*
G37*
G36*
X121216823Y-82981313D02*
G01*
X121377242Y-83029976D01*
X121446922Y-83067221D01*
X121525078Y-83108996D01*
X121654659Y-83215341D01*
X121761004Y-83344922D01*
X121761005Y-83344924D01*
X121840024Y-83492758D01*
X121888687Y-83653177D01*
X121905117Y-83820000D01*
X121888687Y-83986823D01*
X121840024Y-84147242D01*
X121829747Y-84166468D01*
X121761004Y-84295078D01*
X121654659Y-84424659D01*
X121525078Y-84531004D01*
X121525076Y-84531005D01*
X121377242Y-84610024D01*
X121216823Y-84658687D01*
X121091804Y-84671000D01*
X120208196Y-84671000D01*
X120083177Y-84658687D01*
X119922758Y-84610024D01*
X119774924Y-84531005D01*
X119774922Y-84531004D01*
X119645341Y-84424659D01*
X119538996Y-84295078D01*
X119470253Y-84166468D01*
X119459976Y-84147242D01*
X119411313Y-83986823D01*
X119394883Y-83820000D01*
X119411313Y-83653177D01*
X119459976Y-83492758D01*
X119538995Y-83344924D01*
X119538996Y-83344922D01*
X119645341Y-83215341D01*
X119774922Y-83108996D01*
X119853078Y-83067221D01*
X119922758Y-83029976D01*
X120083177Y-82981313D01*
X120208196Y-82969000D01*
X121091804Y-82969000D01*
X121216823Y-82981313D01*
X121216823Y-82981313D01*
G37*
G36*
X128836823Y-82981313D02*
G01*
X128997242Y-83029976D01*
X129066922Y-83067221D01*
X129145078Y-83108996D01*
X129274659Y-83215341D01*
X129381004Y-83344922D01*
X129381005Y-83344924D01*
X129460024Y-83492758D01*
X129508687Y-83653177D01*
X129525117Y-83820000D01*
X129508687Y-83986823D01*
X129460024Y-84147242D01*
X129449747Y-84166468D01*
X129381004Y-84295078D01*
X129274659Y-84424659D01*
X129145078Y-84531004D01*
X129145076Y-84531005D01*
X128997242Y-84610024D01*
X128836823Y-84658687D01*
X128711804Y-84671000D01*
X127828196Y-84671000D01*
X127703177Y-84658687D01*
X127542758Y-84610024D01*
X127394924Y-84531005D01*
X127394922Y-84531004D01*
X127265341Y-84424659D01*
X127158996Y-84295078D01*
X127090253Y-84166468D01*
X127079976Y-84147242D01*
X127031313Y-83986823D01*
X127014883Y-83820000D01*
X127031313Y-83653177D01*
X127079976Y-83492758D01*
X127158995Y-83344924D01*
X127158996Y-83344922D01*
X127265341Y-83215341D01*
X127394922Y-83108996D01*
X127473078Y-83067221D01*
X127542758Y-83029976D01*
X127703177Y-82981313D01*
X127828196Y-82969000D01*
X128711804Y-82969000D01*
X128836823Y-82981313D01*
X128836823Y-82981313D01*
G37*
G36*
X157940442Y-80385518D02*
G01*
X158006627Y-80392037D01*
X158176466Y-80443557D01*
X158332991Y-80527222D01*
X158368729Y-80556552D01*
X158470186Y-80639814D01*
X158553448Y-80741271D01*
X158582778Y-80777009D01*
X158666443Y-80933534D01*
X158717963Y-81103373D01*
X158735359Y-81280000D01*
X158717963Y-81456627D01*
X158666443Y-81626466D01*
X158582778Y-81782991D01*
X158553448Y-81818729D01*
X158470186Y-81920186D01*
X158368729Y-82003448D01*
X158332991Y-82032778D01*
X158176466Y-82116443D01*
X158006627Y-82167963D01*
X157940443Y-82174481D01*
X157874260Y-82181000D01*
X157085740Y-82181000D01*
X157019557Y-82174481D01*
X156953373Y-82167963D01*
X156783534Y-82116443D01*
X156627009Y-82032778D01*
X156591271Y-82003448D01*
X156489814Y-81920186D01*
X156406552Y-81818729D01*
X156377222Y-81782991D01*
X156293557Y-81626466D01*
X156242037Y-81456627D01*
X156224641Y-81280000D01*
X156242037Y-81103373D01*
X156293557Y-80933534D01*
X156377222Y-80777009D01*
X156406552Y-80741271D01*
X156489814Y-80639814D01*
X156591271Y-80556552D01*
X156627009Y-80527222D01*
X156783534Y-80443557D01*
X156953373Y-80392037D01*
X157019558Y-80385518D01*
X157085740Y-80379000D01*
X157874260Y-80379000D01*
X157940442Y-80385518D01*
X157940442Y-80385518D01*
G37*
G36*
X173180442Y-80385518D02*
G01*
X173246627Y-80392037D01*
X173416466Y-80443557D01*
X173572991Y-80527222D01*
X173608729Y-80556552D01*
X173710186Y-80639814D01*
X173793448Y-80741271D01*
X173822778Y-80777009D01*
X173906443Y-80933534D01*
X173957963Y-81103373D01*
X173975359Y-81280000D01*
X173957963Y-81456627D01*
X173906443Y-81626466D01*
X173822778Y-81782991D01*
X173793448Y-81818729D01*
X173710186Y-81920186D01*
X173608729Y-82003448D01*
X173572991Y-82032778D01*
X173416466Y-82116443D01*
X173246627Y-82167963D01*
X173180443Y-82174481D01*
X173114260Y-82181000D01*
X172325740Y-82181000D01*
X172259557Y-82174481D01*
X172193373Y-82167963D01*
X172023534Y-82116443D01*
X171867009Y-82032778D01*
X171831271Y-82003448D01*
X171729814Y-81920186D01*
X171646552Y-81818729D01*
X171617222Y-81782991D01*
X171533557Y-81626466D01*
X171482037Y-81456627D01*
X171464641Y-81280000D01*
X171482037Y-81103373D01*
X171533557Y-80933534D01*
X171617222Y-80777009D01*
X171646552Y-80741271D01*
X171729814Y-80639814D01*
X171831271Y-80556552D01*
X171867009Y-80527222D01*
X172023534Y-80443557D01*
X172193373Y-80392037D01*
X172259558Y-80385518D01*
X172325740Y-80379000D01*
X173114260Y-80379000D01*
X173180442Y-80385518D01*
X173180442Y-80385518D01*
G37*
G36*
X128836823Y-80441313D02*
G01*
X128997242Y-80489976D01*
X129066922Y-80527221D01*
X129145078Y-80568996D01*
X129274659Y-80675341D01*
X129381004Y-80804922D01*
X129381005Y-80804924D01*
X129460024Y-80952758D01*
X129508687Y-81113177D01*
X129525117Y-81280000D01*
X129508687Y-81446823D01*
X129460024Y-81607242D01*
X129449747Y-81626468D01*
X129381004Y-81755078D01*
X129274659Y-81884659D01*
X129145078Y-81991004D01*
X129145076Y-81991005D01*
X128997242Y-82070024D01*
X128836823Y-82118687D01*
X128711804Y-82131000D01*
X127828196Y-82131000D01*
X127703177Y-82118687D01*
X127542758Y-82070024D01*
X127394924Y-81991005D01*
X127394922Y-81991004D01*
X127265341Y-81884659D01*
X127158996Y-81755078D01*
X127090253Y-81626468D01*
X127079976Y-81607242D01*
X127031313Y-81446823D01*
X127014883Y-81280000D01*
X127031313Y-81113177D01*
X127079976Y-80952758D01*
X127158995Y-80804924D01*
X127158996Y-80804922D01*
X127265341Y-80675341D01*
X127394922Y-80568996D01*
X127473078Y-80527221D01*
X127542758Y-80489976D01*
X127703177Y-80441313D01*
X127828196Y-80429000D01*
X128711804Y-80429000D01*
X128836823Y-80441313D01*
X128836823Y-80441313D01*
G37*
G36*
X121216823Y-80441313D02*
G01*
X121377242Y-80489976D01*
X121446922Y-80527221D01*
X121525078Y-80568996D01*
X121654659Y-80675341D01*
X121761004Y-80804922D01*
X121761005Y-80804924D01*
X121840024Y-80952758D01*
X121888687Y-81113177D01*
X121905117Y-81280000D01*
X121888687Y-81446823D01*
X121840024Y-81607242D01*
X121829747Y-81626468D01*
X121761004Y-81755078D01*
X121654659Y-81884659D01*
X121525078Y-81991004D01*
X121525076Y-81991005D01*
X121377242Y-82070024D01*
X121216823Y-82118687D01*
X121091804Y-82131000D01*
X120208196Y-82131000D01*
X120083177Y-82118687D01*
X119922758Y-82070024D01*
X119774924Y-81991005D01*
X119774922Y-81991004D01*
X119645341Y-81884659D01*
X119538996Y-81755078D01*
X119470253Y-81626468D01*
X119459976Y-81607242D01*
X119411313Y-81446823D01*
X119394883Y-81280000D01*
X119411313Y-81113177D01*
X119459976Y-80952758D01*
X119538995Y-80804924D01*
X119538996Y-80804922D01*
X119645341Y-80675341D01*
X119774922Y-80568996D01*
X119853078Y-80527221D01*
X119922758Y-80489976D01*
X120083177Y-80441313D01*
X120208196Y-80429000D01*
X121091804Y-80429000D01*
X121216823Y-80441313D01*
X121216823Y-80441313D01*
G37*
G36*
X181291000Y-79691000D02*
G01*
X179389000Y-79691000D01*
X179389000Y-77789000D01*
X181291000Y-77789000D01*
X181291000Y-79691000D01*
X181291000Y-79691000D01*
G37*
G36*
X178077395Y-77825546D02*
G01*
X178250466Y-77897234D01*
X178327818Y-77948919D01*
X178406227Y-78001310D01*
X178538690Y-78133773D01*
X178591081Y-78212182D01*
X178642766Y-78289534D01*
X178714454Y-78462605D01*
X178751000Y-78646333D01*
X178751000Y-78833667D01*
X178714454Y-79017395D01*
X178642766Y-79190466D01*
X178642765Y-79190467D01*
X178538690Y-79346227D01*
X178406227Y-79478690D01*
X178385141Y-79492779D01*
X178250466Y-79582766D01*
X178077395Y-79654454D01*
X177893667Y-79691000D01*
X177706333Y-79691000D01*
X177522605Y-79654454D01*
X177349534Y-79582766D01*
X177214859Y-79492779D01*
X177193773Y-79478690D01*
X177061310Y-79346227D01*
X176957235Y-79190467D01*
X176957234Y-79190466D01*
X176885546Y-79017395D01*
X176849000Y-78833667D01*
X176849000Y-78646333D01*
X176885546Y-78462605D01*
X176957234Y-78289534D01*
X177008919Y-78212182D01*
X177061310Y-78133773D01*
X177193773Y-78001310D01*
X177272182Y-77948919D01*
X177349534Y-77897234D01*
X177522605Y-77825546D01*
X177706333Y-77789000D01*
X177893667Y-77789000D01*
X178077395Y-77825546D01*
X178077395Y-77825546D01*
G37*
G36*
X157940443Y-77845519D02*
G01*
X158006627Y-77852037D01*
X158176466Y-77903557D01*
X158332991Y-77987222D01*
X158350156Y-78001309D01*
X158470186Y-78099814D01*
X158553448Y-78201271D01*
X158582778Y-78237009D01*
X158666443Y-78393534D01*
X158717963Y-78563373D01*
X158735359Y-78740000D01*
X158717963Y-78916627D01*
X158666443Y-79086466D01*
X158582778Y-79242991D01*
X158553448Y-79278729D01*
X158470186Y-79380186D01*
X158368729Y-79463448D01*
X158332991Y-79492778D01*
X158176466Y-79576443D01*
X158006627Y-79627963D01*
X157940442Y-79634482D01*
X157874260Y-79641000D01*
X157085740Y-79641000D01*
X157019558Y-79634482D01*
X156953373Y-79627963D01*
X156783534Y-79576443D01*
X156627009Y-79492778D01*
X156591271Y-79463448D01*
X156489814Y-79380186D01*
X156406552Y-79278729D01*
X156377222Y-79242991D01*
X156293557Y-79086466D01*
X156242037Y-78916627D01*
X156224641Y-78740000D01*
X156242037Y-78563373D01*
X156293557Y-78393534D01*
X156377222Y-78237009D01*
X156406552Y-78201271D01*
X156489814Y-78099814D01*
X156609844Y-78001309D01*
X156627009Y-77987222D01*
X156783534Y-77903557D01*
X156953373Y-77852037D01*
X157019557Y-77845519D01*
X157085740Y-77839000D01*
X157874260Y-77839000D01*
X157940443Y-77845519D01*
X157940443Y-77845519D01*
G37*
G36*
X173180443Y-77845519D02*
G01*
X173246627Y-77852037D01*
X173416466Y-77903557D01*
X173572991Y-77987222D01*
X173590156Y-78001309D01*
X173710186Y-78099814D01*
X173793448Y-78201271D01*
X173822778Y-78237009D01*
X173906443Y-78393534D01*
X173957963Y-78563373D01*
X173975359Y-78740000D01*
X173957963Y-78916627D01*
X173906443Y-79086466D01*
X173822778Y-79242991D01*
X173793448Y-79278729D01*
X173710186Y-79380186D01*
X173608729Y-79463448D01*
X173572991Y-79492778D01*
X173416466Y-79576443D01*
X173246627Y-79627963D01*
X173180442Y-79634482D01*
X173114260Y-79641000D01*
X172325740Y-79641000D01*
X172259558Y-79634482D01*
X172193373Y-79627963D01*
X172023534Y-79576443D01*
X171867009Y-79492778D01*
X171831271Y-79463448D01*
X171729814Y-79380186D01*
X171646552Y-79278729D01*
X171617222Y-79242991D01*
X171533557Y-79086466D01*
X171482037Y-78916627D01*
X171464641Y-78740000D01*
X171482037Y-78563373D01*
X171533557Y-78393534D01*
X171617222Y-78237009D01*
X171646552Y-78201271D01*
X171729814Y-78099814D01*
X171849844Y-78001309D01*
X171867009Y-77987222D01*
X172023534Y-77903557D01*
X172193373Y-77852037D01*
X172259557Y-77845519D01*
X172325740Y-77839000D01*
X173114260Y-77839000D01*
X173180443Y-77845519D01*
X173180443Y-77845519D01*
G37*
G36*
X121216823Y-77901313D02*
G01*
X121377242Y-77949976D01*
X121509906Y-78020886D01*
X121525078Y-78028996D01*
X121654659Y-78135341D01*
X121761004Y-78264922D01*
X121761005Y-78264924D01*
X121840024Y-78412758D01*
X121888687Y-78573177D01*
X121905117Y-78740000D01*
X121888687Y-78906823D01*
X121840024Y-79067242D01*
X121829747Y-79086468D01*
X121761004Y-79215078D01*
X121654659Y-79344659D01*
X121525078Y-79451004D01*
X121525076Y-79451005D01*
X121377242Y-79530024D01*
X121216823Y-79578687D01*
X121091804Y-79591000D01*
X120208196Y-79591000D01*
X120083177Y-79578687D01*
X119922758Y-79530024D01*
X119774924Y-79451005D01*
X119774922Y-79451004D01*
X119645341Y-79344659D01*
X119538996Y-79215078D01*
X119470253Y-79086468D01*
X119459976Y-79067242D01*
X119411313Y-78906823D01*
X119394883Y-78740000D01*
X119411313Y-78573177D01*
X119459976Y-78412758D01*
X119538995Y-78264924D01*
X119538996Y-78264922D01*
X119645341Y-78135341D01*
X119774922Y-78028996D01*
X119790094Y-78020886D01*
X119922758Y-77949976D01*
X120083177Y-77901313D01*
X120208196Y-77889000D01*
X121091804Y-77889000D01*
X121216823Y-77901313D01*
X121216823Y-77901313D01*
G37*
G36*
X128836823Y-77901313D02*
G01*
X128997242Y-77949976D01*
X129129906Y-78020886D01*
X129145078Y-78028996D01*
X129274659Y-78135341D01*
X129381004Y-78264922D01*
X129381005Y-78264924D01*
X129460024Y-78412758D01*
X129508687Y-78573177D01*
X129525117Y-78740000D01*
X129508687Y-78906823D01*
X129460024Y-79067242D01*
X129449747Y-79086468D01*
X129381004Y-79215078D01*
X129274659Y-79344659D01*
X129145078Y-79451004D01*
X129145076Y-79451005D01*
X128997242Y-79530024D01*
X128836823Y-79578687D01*
X128711804Y-79591000D01*
X127828196Y-79591000D01*
X127703177Y-79578687D01*
X127542758Y-79530024D01*
X127394924Y-79451005D01*
X127394922Y-79451004D01*
X127265341Y-79344659D01*
X127158996Y-79215078D01*
X127090253Y-79086468D01*
X127079976Y-79067242D01*
X127031313Y-78906823D01*
X127014883Y-78740000D01*
X127031313Y-78573177D01*
X127079976Y-78412758D01*
X127158995Y-78264924D01*
X127158996Y-78264922D01*
X127265341Y-78135341D01*
X127394922Y-78028996D01*
X127410094Y-78020886D01*
X127542758Y-77949976D01*
X127703177Y-77901313D01*
X127828196Y-77889000D01*
X128711804Y-77889000D01*
X128836823Y-77901313D01*
X128836823Y-77901313D01*
G37*
G36*
X184652228Y-76651703D02*
G01*
X184807100Y-76715853D01*
X184946481Y-76808985D01*
X185065015Y-76927519D01*
X185158147Y-77066900D01*
X185222297Y-77221772D01*
X185255000Y-77386184D01*
X185255000Y-77553816D01*
X185222297Y-77718228D01*
X185158147Y-77873100D01*
X185065015Y-78012481D01*
X184946481Y-78131015D01*
X184807100Y-78224147D01*
X184652228Y-78288297D01*
X184487816Y-78321000D01*
X184320184Y-78321000D01*
X184155772Y-78288297D01*
X184000900Y-78224147D01*
X183861519Y-78131015D01*
X183742985Y-78012481D01*
X183649853Y-77873100D01*
X183585703Y-77718228D01*
X183553000Y-77553816D01*
X183553000Y-77386184D01*
X183585703Y-77221772D01*
X183649853Y-77066900D01*
X183742985Y-76927519D01*
X183861519Y-76808985D01*
X184000900Y-76715853D01*
X184155772Y-76651703D01*
X184320184Y-76619000D01*
X184487816Y-76619000D01*
X184652228Y-76651703D01*
X184652228Y-76651703D01*
G37*
G36*
X188208228Y-76651703D02*
G01*
X188363100Y-76715853D01*
X188502481Y-76808985D01*
X188621015Y-76927519D01*
X188714147Y-77066900D01*
X188778297Y-77221772D01*
X188811000Y-77386184D01*
X188811000Y-77553816D01*
X188778297Y-77718228D01*
X188714147Y-77873100D01*
X188621015Y-78012481D01*
X188502481Y-78131015D01*
X188363100Y-78224147D01*
X188208228Y-78288297D01*
X188043816Y-78321000D01*
X187876184Y-78321000D01*
X187711772Y-78288297D01*
X187556900Y-78224147D01*
X187417519Y-78131015D01*
X187298985Y-78012481D01*
X187205853Y-77873100D01*
X187141703Y-77718228D01*
X187109000Y-77553816D01*
X187109000Y-77386184D01*
X187141703Y-77221772D01*
X187205853Y-77066900D01*
X187298985Y-76927519D01*
X187417519Y-76808985D01*
X187556900Y-76715853D01*
X187711772Y-76651703D01*
X187876184Y-76619000D01*
X188043816Y-76619000D01*
X188208228Y-76651703D01*
X188208228Y-76651703D01*
G37*
M02*
