G04 #@! TF.GenerationSoftware,KiCad,Pcbnew,(5.1.0)-1*
G04 #@! TF.CreationDate,2019-05-25T00:30:21-04:00*
G04 #@! TF.ProjectId,f-ramune_arduino,662d7261-6d75-46e6-955f-61726475696e,rev?*
G04 #@! TF.SameCoordinates,Original*
G04 #@! TF.FileFunction,Copper,L1,Top*
G04 #@! TF.FilePolarity,Positive*
%FSLAX46Y46*%
G04 Gerber Fmt 4.6, Leading zero omitted, Abs format (unit mm)*
G04 Created by KiCad (PCBNEW (5.1.0)-1) date 2019-05-25 00:30:21*
%MOMM*%
%LPD*%
G04 APERTURE LIST*
%ADD10O,2.000000X1.440000*%
%ADD11R,2.000000X1.440000*%
%ADD12C,2.159000*%
%ADD13C,1.600000*%
%ADD14O,2.400000X1.600000*%
%ADD15R,2.400000X1.600000*%
%ADD16O,1.600000X1.600000*%
%ADD17O,1.800000X1.800000*%
%ADD18R,1.800000X1.800000*%
%ADD19C,1.800000*%
%ADD20O,2.400000X1.700000*%
%ADD21R,2.400000X1.700000*%
%ADD22C,0.800000*%
%ADD23C,0.250000*%
%ADD24C,0.254000*%
G04 APERTURE END LIST*
D10*
X146050000Y-120650000D03*
X135890000Y-120650000D03*
X146050000Y-118110000D03*
X135890000Y-118110000D03*
X146050000Y-115570000D03*
X135890000Y-115570000D03*
X146050000Y-113030000D03*
X135890000Y-113030000D03*
X146050000Y-110490000D03*
X135890000Y-110490000D03*
X146050000Y-107950000D03*
X135890000Y-107950000D03*
X146050000Y-105410000D03*
X135890000Y-105410000D03*
X146050000Y-102870000D03*
X135890000Y-102870000D03*
X146050000Y-100330000D03*
X135890000Y-100330000D03*
X146050000Y-97790000D03*
X135890000Y-97790000D03*
X146050000Y-95250000D03*
X135890000Y-95250000D03*
X146050000Y-92710000D03*
X135890000Y-92710000D03*
X146050000Y-90170000D03*
X135890000Y-90170000D03*
X146050000Y-87630000D03*
D11*
X135890000Y-87630000D03*
D10*
X146050000Y-87630000D03*
X146050000Y-90170000D03*
X146050000Y-92710000D03*
X146050000Y-95250000D03*
X146050000Y-97790000D03*
X146050000Y-100330000D03*
X146050000Y-102870000D03*
X146050000Y-105410000D03*
X146050000Y-107950000D03*
X146050000Y-110490000D03*
X146050000Y-113030000D03*
X146050000Y-115570000D03*
X146050000Y-118110000D03*
X146050000Y-120650000D03*
X146050000Y-120650000D03*
X146050000Y-118110000D03*
X146050000Y-115570000D03*
X146050000Y-113030000D03*
X146050000Y-110490000D03*
X146050000Y-107950000D03*
X146050000Y-105410000D03*
X146050000Y-102870000D03*
X146050000Y-100330000D03*
X146050000Y-97790000D03*
X146050000Y-95250000D03*
X146050000Y-92710000D03*
X146050000Y-90170000D03*
X146050000Y-87630000D03*
X146050000Y-87630000D03*
X146050000Y-90170000D03*
X146050000Y-92710000D03*
X146050000Y-95250000D03*
X146050000Y-97790000D03*
X146050000Y-100330000D03*
X146050000Y-102870000D03*
X146050000Y-105410000D03*
X146050000Y-107950000D03*
X146050000Y-110490000D03*
X146050000Y-113030000D03*
X146050000Y-115570000D03*
X146050000Y-118110000D03*
X146050000Y-120650000D03*
D11*
X138430000Y-87630000D03*
D10*
X138430000Y-90170000D03*
X138430000Y-92710000D03*
X138430000Y-95250000D03*
X138430000Y-97790000D03*
X138430000Y-100330000D03*
X138430000Y-102870000D03*
X138430000Y-105410000D03*
X138430000Y-107950000D03*
X138430000Y-110490000D03*
X138430000Y-113030000D03*
X138430000Y-115570000D03*
X138430000Y-118110000D03*
X138430000Y-120650000D03*
X151130000Y-120650000D03*
X151130000Y-118110000D03*
X151130000Y-115570000D03*
X151130000Y-113030000D03*
X151130000Y-110490000D03*
X151130000Y-107950000D03*
X151130000Y-105410000D03*
X151130000Y-102870000D03*
X151130000Y-100330000D03*
X151130000Y-97790000D03*
X151130000Y-95250000D03*
X151130000Y-92710000D03*
X151130000Y-90170000D03*
X151130000Y-87630000D03*
X151130000Y-87630000D03*
X151130000Y-90170000D03*
X151130000Y-92710000D03*
X151130000Y-95250000D03*
X151130000Y-97790000D03*
X151130000Y-100330000D03*
X151130000Y-102870000D03*
X151130000Y-105410000D03*
X151130000Y-107950000D03*
X151130000Y-110490000D03*
X151130000Y-113030000D03*
X151130000Y-115570000D03*
X151130000Y-118110000D03*
X151130000Y-120650000D03*
X151130000Y-120650000D03*
X151130000Y-118110000D03*
X151130000Y-115570000D03*
X151130000Y-113030000D03*
X151130000Y-110490000D03*
X151130000Y-107950000D03*
X151130000Y-105410000D03*
X151130000Y-102870000D03*
X151130000Y-100330000D03*
X151130000Y-97790000D03*
X151130000Y-95250000D03*
X151130000Y-92710000D03*
X151130000Y-90170000D03*
X151130000Y-87630000D03*
X151130000Y-87630000D03*
X151130000Y-90170000D03*
X151130000Y-92710000D03*
X151130000Y-95250000D03*
X151130000Y-97790000D03*
X151130000Y-100330000D03*
X151130000Y-102870000D03*
X151130000Y-105410000D03*
X151130000Y-107950000D03*
X151130000Y-110490000D03*
X151130000Y-113030000D03*
X151130000Y-115570000D03*
X151130000Y-118110000D03*
X151130000Y-120650000D03*
D12*
X180380640Y-128168400D03*
X180380640Y-115671600D03*
X185379360Y-128168400D03*
X185379360Y-115671600D03*
D13*
X170220000Y-124460000D03*
X172720000Y-124460000D03*
D14*
X120650000Y-125095000D03*
X128270000Y-107315000D03*
X120650000Y-122555000D03*
X128270000Y-109855000D03*
X120650000Y-120015000D03*
X128270000Y-112395000D03*
X120650000Y-117475000D03*
X128270000Y-114935000D03*
X120650000Y-114935000D03*
X128270000Y-117475000D03*
X120650000Y-112395000D03*
X128270000Y-120015000D03*
X120650000Y-109855000D03*
X128270000Y-122555000D03*
X120650000Y-107315000D03*
D15*
X128270000Y-125095000D03*
D14*
X120650000Y-96520000D03*
X128270000Y-78740000D03*
X120650000Y-93980000D03*
X128270000Y-81280000D03*
X120650000Y-91440000D03*
X128270000Y-83820000D03*
X120650000Y-88900000D03*
X128270000Y-86360000D03*
X120650000Y-86360000D03*
X128270000Y-88900000D03*
X120650000Y-83820000D03*
X128270000Y-91440000D03*
X120650000Y-81280000D03*
X128270000Y-93980000D03*
X120650000Y-78740000D03*
D15*
X128270000Y-96520000D03*
D16*
X157480000Y-117856000D03*
D13*
X167640000Y-117856000D03*
D16*
X180340000Y-111760000D03*
D13*
X180340000Y-101600000D03*
D16*
X185420000Y-111760000D03*
D13*
X185420000Y-101600000D03*
D16*
X187960000Y-87630000D03*
D13*
X187960000Y-77470000D03*
D16*
X184404000Y-87630000D03*
D13*
X184404000Y-77470000D03*
D17*
X185420000Y-95250000D03*
X182880000Y-95250000D03*
D18*
X180340000Y-95250000D03*
D19*
X177800000Y-78740000D03*
D18*
X180340000Y-78740000D03*
D19*
X177800000Y-86360000D03*
D18*
X180340000Y-86360000D03*
D20*
X172720000Y-78740000D03*
X157480000Y-78740000D03*
X172720000Y-81280000D03*
X157480000Y-81280000D03*
X172720000Y-83820000D03*
X157480000Y-83820000D03*
X172720000Y-86360000D03*
X157480000Y-86360000D03*
X172720000Y-88900000D03*
X157480000Y-88900000D03*
X172720000Y-91440000D03*
X157480000Y-91440000D03*
X172720000Y-93980000D03*
X157480000Y-93980000D03*
X172720000Y-96520000D03*
X157480000Y-96520000D03*
X172720000Y-99060000D03*
X157480000Y-99060000D03*
X172720000Y-101600000D03*
X157480000Y-101600000D03*
X172720000Y-104140000D03*
X157480000Y-104140000D03*
X172720000Y-106680000D03*
X157480000Y-106680000D03*
X172720000Y-109220000D03*
X157480000Y-109220000D03*
X172720000Y-111760000D03*
X157480000Y-111760000D03*
D21*
X172720000Y-114300000D03*
D20*
X157480000Y-114300000D03*
D22*
X132080000Y-81280000D03*
X133350000Y-82550000D03*
X125730000Y-86360000D03*
X123190000Y-85090000D03*
X123190000Y-113030000D03*
X161290000Y-109220000D03*
X140933010Y-97409000D03*
X122936000Y-99822000D03*
X125984000Y-100838000D03*
X125730000Y-78740000D03*
X125730000Y-81280000D03*
X125984000Y-103886000D03*
X125984014Y-115062000D03*
X153289000Y-101854000D03*
X156210000Y-123190000D03*
X165099972Y-123190000D03*
D23*
X122175010Y-84945010D02*
X121050000Y-83820000D01*
X122175010Y-111904990D02*
X122175010Y-84945010D01*
X121050000Y-113030000D02*
X122175010Y-111904990D01*
X120650000Y-113030000D02*
X121050000Y-113030000D01*
X156030000Y-78740000D02*
X157480000Y-78740000D01*
X154904990Y-79865010D02*
X156030000Y-78740000D01*
X125004990Y-79865010D02*
X154904990Y-79865010D01*
X121050000Y-83820000D02*
X125004990Y-79865010D01*
X120650000Y-83820000D02*
X121050000Y-83820000D01*
X132080000Y-81280000D02*
X132080000Y-81280000D01*
X154126410Y-81280000D02*
X132080000Y-81280000D01*
X155396410Y-80010000D02*
X154126410Y-81280000D01*
X168529000Y-80010000D02*
X155396410Y-80010000D01*
X172720000Y-81280000D02*
X169799000Y-81280000D01*
X169799000Y-81280000D02*
X168529000Y-80010000D01*
X187960000Y-92710000D02*
X185420000Y-95250000D01*
X187960000Y-87630000D02*
X187960000Y-92710000D01*
X187960000Y-99060000D02*
X185420000Y-101600000D01*
X187960000Y-92710000D02*
X187960000Y-99060000D01*
X187960000Y-113090960D02*
X185379360Y-115671600D01*
X187960000Y-99060000D02*
X187960000Y-113090960D01*
X120650000Y-88900000D02*
X120250000Y-88900000D01*
X176590960Y-124460000D02*
X185379360Y-115671600D01*
X172720000Y-124460000D02*
X176590960Y-124460000D01*
X172720000Y-125730000D02*
X172720000Y-124460000D01*
X160020000Y-128270000D02*
X170180000Y-128270000D01*
X170180000Y-128270000D02*
X172720000Y-125730000D01*
X158750000Y-129540000D02*
X160020000Y-128270000D01*
X120650000Y-129540000D02*
X158750000Y-129540000D01*
X118110000Y-127000000D02*
X120650000Y-129540000D01*
X118110000Y-119380000D02*
X118110000Y-127000000D01*
X119380000Y-118110000D02*
X118110000Y-119380000D01*
X118110000Y-91040000D02*
X120250000Y-88900000D01*
X119380000Y-118110000D02*
X118110000Y-116840000D01*
X118110000Y-116840000D02*
X118110000Y-91040000D01*
X126820000Y-78740000D02*
X128270000Y-78740000D01*
X124280000Y-76200000D02*
X126820000Y-78740000D01*
X119380000Y-76200000D02*
X124280000Y-76200000D01*
X118110000Y-77470000D02*
X119380000Y-76200000D01*
X120250000Y-88900000D02*
X118110000Y-86760000D01*
X118110000Y-86760000D02*
X118110000Y-77470000D01*
X160020000Y-123386998D02*
X160020000Y-128270000D01*
X161290000Y-122116998D02*
X160020000Y-123386998D01*
X161290000Y-114300000D02*
X161290000Y-122116998D01*
X157480000Y-111760000D02*
X158750000Y-111760000D01*
X158750000Y-111760000D02*
X161290000Y-114300000D01*
X185535370Y-87630000D02*
X187960000Y-87630000D01*
X184404000Y-87630000D02*
X185535370Y-87630000D01*
X185379360Y-117198243D02*
X185379360Y-128168400D01*
X185379360Y-115671600D02*
X185379360Y-117198243D01*
X125984000Y-109601000D02*
X128270000Y-107315000D01*
X125984000Y-112649000D02*
X125984000Y-109601000D01*
X121158000Y-117475000D02*
X125984000Y-112649000D01*
X119380000Y-118110000D02*
X120015000Y-117475000D01*
X120015000Y-117475000D02*
X121158000Y-117475000D01*
X162031715Y-83820000D02*
X160761715Y-82550000D01*
X172720000Y-83820000D02*
X162031715Y-83820000D01*
X160761715Y-82550000D02*
X133350000Y-82550000D01*
X133350000Y-82550000D02*
X133350000Y-82550000D01*
X125730000Y-86360000D02*
X124460000Y-86360000D01*
X124460000Y-86360000D02*
X123190000Y-85090000D01*
X123190000Y-85090000D02*
X123190000Y-85090000D01*
X123190000Y-113030000D02*
X120650000Y-115570000D01*
X161290000Y-109220000D02*
X157480000Y-109220000D01*
X175260000Y-81280000D02*
X177800000Y-78740000D01*
X175260000Y-84170000D02*
X175260000Y-81280000D01*
X172720000Y-86360000D02*
X173070000Y-86360000D01*
X173070000Y-86360000D02*
X175260000Y-84170000D01*
X175260000Y-88900000D02*
X177800000Y-86360000D01*
X172720000Y-88900000D02*
X175260000Y-88900000D01*
X146050000Y-110490000D02*
X151130000Y-110490000D01*
X172370000Y-91440000D02*
X172720000Y-91440000D01*
X151130000Y-110490000D02*
X151410000Y-110490000D01*
X154027588Y-107872412D02*
X154027588Y-102894822D01*
X154027588Y-102894822D02*
X156687400Y-100235010D01*
X151410000Y-110490000D02*
X154027588Y-107872412D01*
X156687400Y-100235010D02*
X163574990Y-100235010D01*
X163574990Y-100235010D02*
X172370000Y-91440000D01*
X172370000Y-93980000D02*
X172720000Y-93980000D01*
X151130000Y-112247867D02*
X154940000Y-108437867D01*
X151130000Y-113030000D02*
X151130000Y-112247867D01*
X154940000Y-108437867D02*
X154940000Y-104668285D01*
X154940000Y-104668285D02*
X156833275Y-102775010D01*
X156833275Y-102775010D02*
X163574990Y-102775010D01*
X163574990Y-102775010D02*
X172370000Y-93980000D01*
X157226000Y-99060000D02*
X157480000Y-99060000D01*
X153416000Y-102870000D02*
X157226000Y-99060000D01*
X151130000Y-102870000D02*
X153416000Y-102870000D01*
X172370000Y-96520000D02*
X172720000Y-96520000D01*
X163574990Y-105315010D02*
X172370000Y-96520000D01*
X156304990Y-105315010D02*
X163574990Y-105315010D01*
X155954990Y-105665010D02*
X156304990Y-105315010D01*
X155954990Y-108059287D02*
X155954990Y-105665010D01*
X152455010Y-111559267D02*
X155954990Y-108059287D01*
X152455010Y-114524990D02*
X152455010Y-111559267D01*
X151410000Y-115570000D02*
X152455010Y-114524990D01*
X151130000Y-115570000D02*
X151410000Y-115570000D01*
X151130000Y-115570000D02*
X146050000Y-115570000D01*
X172370000Y-99060000D02*
X172720000Y-99060000D01*
X151130000Y-118110000D02*
X151410000Y-118110000D01*
X153670000Y-115850000D02*
X153670000Y-111018285D01*
X153670000Y-111018285D02*
X156833275Y-107855010D01*
X156833275Y-107855010D02*
X163574990Y-107855010D01*
X151410000Y-118110000D02*
X153670000Y-115850000D01*
X163574990Y-107855010D02*
X172370000Y-99060000D01*
X146050000Y-120650000D02*
X151130000Y-120650000D01*
X172370000Y-101600000D02*
X172720000Y-101600000D01*
X163574990Y-110395010D02*
X172370000Y-101600000D01*
X156833275Y-110395010D02*
X163574990Y-110395010D01*
X155954990Y-111273295D02*
X156833275Y-110395010D01*
X155954990Y-116105010D02*
X155954990Y-111273295D01*
X151410000Y-120650000D02*
X155954990Y-116105010D01*
X151130000Y-120650000D02*
X151410000Y-120650000D01*
X135890000Y-118110000D02*
X138430000Y-118110000D01*
X151130000Y-90170000D02*
X146050000Y-90170000D01*
X135890000Y-113030000D02*
X138430000Y-113030000D01*
X140933010Y-90989123D02*
X140933010Y-96843315D01*
X157480000Y-86360000D02*
X145562133Y-86360000D01*
X140933010Y-96843315D02*
X140933010Y-97409000D01*
X145562133Y-86360000D02*
X140933010Y-90989123D01*
X123952000Y-100838000D02*
X125984000Y-100838000D01*
X122936000Y-99822000D02*
X123952000Y-100838000D01*
X135890000Y-92710000D02*
X138430000Y-92710000D01*
X135610000Y-92710000D02*
X135890000Y-92710000D01*
X134564999Y-91664999D02*
X135610000Y-92710000D01*
X134564999Y-87174999D02*
X134564999Y-91664999D01*
X128670000Y-81280000D02*
X134564999Y-87174999D01*
X128270000Y-81280000D02*
X128670000Y-81280000D01*
X135610000Y-95250000D02*
X135890000Y-95250000D01*
X134114989Y-93754989D02*
X135610000Y-95250000D01*
X134114989Y-89264989D02*
X134114989Y-93754989D01*
X128670000Y-83820000D02*
X134114989Y-89264989D01*
X128270000Y-83820000D02*
X128670000Y-83820000D01*
X135890000Y-97790000D02*
X138430000Y-97790000D01*
X135610000Y-97790000D02*
X135890000Y-97790000D01*
X133664979Y-95844979D02*
X135610000Y-97790000D01*
X133664979Y-91354979D02*
X133664979Y-95844979D01*
X128670000Y-86360000D02*
X133664979Y-91354979D01*
X128270000Y-86360000D02*
X128670000Y-86360000D01*
X135610000Y-100330000D02*
X135890000Y-100330000D01*
X133214969Y-97934969D02*
X135610000Y-100330000D01*
X133214969Y-93444969D02*
X133214969Y-97934969D01*
X128670000Y-88900000D02*
X133214969Y-93444969D01*
X128270000Y-88900000D02*
X128670000Y-88900000D01*
X135890000Y-102870000D02*
X138430000Y-102870000D01*
X135610000Y-102870000D02*
X135890000Y-102870000D01*
X132764959Y-100024959D02*
X135610000Y-102870000D01*
X132764959Y-95534959D02*
X132764959Y-100024959D01*
X128670000Y-91440000D02*
X132764959Y-95534959D01*
X128270000Y-91440000D02*
X128670000Y-91440000D01*
X135610000Y-105410000D02*
X135890000Y-105410000D01*
X132314949Y-102114949D02*
X135610000Y-105410000D01*
X132314949Y-97624949D02*
X132314949Y-102114949D01*
X128670000Y-93980000D02*
X132314949Y-97624949D01*
X128270000Y-93980000D02*
X128670000Y-93980000D01*
X120650000Y-78740000D02*
X121050000Y-78740000D01*
X120650000Y-78740000D02*
X125730000Y-78740000D01*
X125730000Y-78740000D02*
X125730000Y-78740000D01*
X126744990Y-103125010D02*
X126383999Y-103486001D01*
X126383999Y-103486001D02*
X125984000Y-103886000D01*
X126744990Y-82294990D02*
X126744990Y-103125010D01*
X125730000Y-81280000D02*
X126744990Y-82294990D01*
X125584015Y-115461999D02*
X125984014Y-115062000D01*
X120650000Y-120015000D02*
X121031014Y-120015000D01*
X121031014Y-120015000D02*
X125584015Y-115461999D01*
X135890000Y-107950000D02*
X138430000Y-107950000D01*
X135610000Y-107950000D02*
X135890000Y-107950000D01*
X128270000Y-100610000D02*
X135610000Y-107950000D01*
X128270000Y-96520000D02*
X128270000Y-100610000D01*
X146050000Y-95250000D02*
X151130000Y-95250000D01*
X145770000Y-95250000D02*
X146050000Y-95250000D01*
X142748000Y-98272000D02*
X145770000Y-95250000D01*
X142748000Y-107929867D02*
X142748000Y-98272000D01*
X120655729Y-122555000D02*
X127005729Y-116205000D01*
X120650000Y-122555000D02*
X120655729Y-122555000D01*
X130556000Y-116205000D02*
X135001000Y-111760000D01*
X127005729Y-116205000D02*
X130556000Y-116205000D01*
X135001000Y-111760000D02*
X138917867Y-111760000D01*
X138917867Y-111760000D02*
X142748000Y-107929867D01*
X135890000Y-87630000D02*
X138430000Y-87630000D01*
X145770000Y-92710000D02*
X146050000Y-92710000D01*
X128670000Y-115570000D02*
X135244990Y-108995010D01*
X128270000Y-115570000D02*
X128670000Y-115570000D01*
X135244990Y-108995010D02*
X139142857Y-108995010D01*
X139142857Y-108995010D02*
X141732000Y-106405867D01*
X141732000Y-106405867D02*
X141732000Y-96748000D01*
X141732000Y-96748000D02*
X145770000Y-92710000D01*
X146050000Y-100330000D02*
X151130000Y-100330000D01*
X145770000Y-100330000D02*
X146050000Y-100330000D01*
X128670000Y-120650000D02*
X135244990Y-114075010D01*
X128270000Y-120650000D02*
X128670000Y-120650000D01*
X135244990Y-114075010D02*
X139142857Y-114075010D01*
X139142857Y-114075010D02*
X143637000Y-109580867D01*
X143637000Y-109580867D02*
X143637000Y-102463000D01*
X143637000Y-102463000D02*
X145770000Y-100330000D01*
X146050000Y-105410000D02*
X151130000Y-105410000D01*
X128670000Y-123190000D02*
X135244990Y-116615010D01*
X128270000Y-123190000D02*
X128670000Y-123190000D01*
X145770000Y-105410000D02*
X146050000Y-105410000D01*
X135244990Y-116615010D02*
X139142857Y-116615010D01*
X139142857Y-116615010D02*
X144399000Y-111358867D01*
X144399000Y-111358867D02*
X144399000Y-106781000D01*
X144399000Y-106781000D02*
X145770000Y-105410000D01*
X151410000Y-97790000D02*
X153289000Y-99669000D01*
X153289000Y-101288315D02*
X153289000Y-101854000D01*
X153289000Y-99669000D02*
X153289000Y-101288315D01*
X151130000Y-97790000D02*
X151410000Y-97790000D01*
X138430000Y-120650000D02*
X139680000Y-120650000D01*
X139680000Y-120650000D02*
X142220000Y-123190000D01*
X155644315Y-123190000D02*
X156210000Y-123190000D01*
X142220000Y-123190000D02*
X155644315Y-123190000D01*
X182880000Y-106775002D02*
X166465002Y-123190000D01*
X165665657Y-123190000D02*
X165099972Y-123190000D01*
X182880000Y-95250000D02*
X182880000Y-106775002D01*
X166465002Y-123190000D02*
X165665657Y-123190000D01*
X185420000Y-80010000D02*
X187960000Y-77470000D01*
X180340000Y-78740000D02*
X181610000Y-80010000D01*
X181610000Y-80010000D02*
X185420000Y-80010000D01*
X180340000Y-101600000D02*
X180340000Y-95250000D01*
D24*
G36*
X154813000Y-78613000D02*
G01*
X130105000Y-78613000D01*
X130105000Y-78612998D01*
X129939916Y-78612998D01*
X130061904Y-78390961D01*
X130044367Y-78308182D01*
X129933715Y-78048354D01*
X129774500Y-77815105D01*
X129572839Y-77617399D01*
X129336483Y-77462834D01*
X129074514Y-77357350D01*
X128797000Y-77305000D01*
X128397000Y-77305000D01*
X128397000Y-78613000D01*
X128143000Y-78613000D01*
X128143000Y-77305000D01*
X127743000Y-77305000D01*
X127465486Y-77357350D01*
X127203517Y-77462834D01*
X126967161Y-77617399D01*
X126765500Y-77815105D01*
X126606285Y-78048354D01*
X126570945Y-78131339D01*
X126562338Y-78122732D01*
X126533937Y-78080226D01*
X126389774Y-77936063D01*
X126347266Y-77907660D01*
X125819803Y-77380197D01*
X125800557Y-77364403D01*
X125778601Y-77352667D01*
X125754776Y-77345440D01*
X125730000Y-77343000D01*
X121388129Y-77343000D01*
X121331309Y-77325764D01*
X121120492Y-77305000D01*
X120179508Y-77305000D01*
X119968691Y-77325764D01*
X119911871Y-77343000D01*
X119380000Y-77343000D01*
X119355224Y-77345440D01*
X119331399Y-77352667D01*
X119309443Y-77364403D01*
X119290197Y-77380197D01*
X119274403Y-77399443D01*
X119262667Y-77421399D01*
X119255440Y-77445224D01*
X119253000Y-77470000D01*
X119253000Y-77701838D01*
X119230392Y-77720392D01*
X119051068Y-77938899D01*
X118917818Y-78188192D01*
X118835764Y-78458691D01*
X118808057Y-78740000D01*
X118835764Y-79021309D01*
X118917818Y-79291808D01*
X119051068Y-79541101D01*
X119230392Y-79759608D01*
X119253000Y-79778162D01*
X119253000Y-80241838D01*
X119230392Y-80260392D01*
X119051068Y-80478899D01*
X118917818Y-80728192D01*
X118835764Y-80998691D01*
X118808057Y-81280000D01*
X118835764Y-81561309D01*
X118917818Y-81831808D01*
X119051068Y-82081101D01*
X119230392Y-82299608D01*
X119253000Y-82318162D01*
X119253000Y-82781838D01*
X119230392Y-82800392D01*
X119051068Y-83018899D01*
X118917818Y-83268192D01*
X118835764Y-83538691D01*
X118808057Y-83820000D01*
X118835764Y-84101309D01*
X118917818Y-84371808D01*
X119051068Y-84621101D01*
X119230392Y-84839608D01*
X119253000Y-84858162D01*
X119253000Y-85321838D01*
X119230392Y-85340392D01*
X119051068Y-85558899D01*
X118917818Y-85808192D01*
X118835764Y-86078691D01*
X118808057Y-86360000D01*
X118835764Y-86641309D01*
X118917818Y-86911808D01*
X119051068Y-87161101D01*
X119230392Y-87379608D01*
X119253000Y-87398162D01*
X119253000Y-87630000D01*
X119255440Y-87654776D01*
X119262667Y-87678601D01*
X119274403Y-87700557D01*
X119290197Y-87719803D01*
X119347543Y-87777149D01*
X119347161Y-87777399D01*
X119145500Y-87975105D01*
X118986285Y-88208354D01*
X118875633Y-88468182D01*
X118858096Y-88550961D01*
X118980085Y-88773000D01*
X120343394Y-88773000D01*
X120470394Y-88900000D01*
X120343394Y-89027000D01*
X118980085Y-89027000D01*
X118858096Y-89249039D01*
X118875633Y-89331818D01*
X118986285Y-89591646D01*
X119145500Y-89824895D01*
X119347161Y-90022601D01*
X119347543Y-90022851D01*
X119290197Y-90080197D01*
X119274403Y-90099443D01*
X119262667Y-90121399D01*
X119255440Y-90145224D01*
X119253000Y-90170000D01*
X119253000Y-90401838D01*
X119230392Y-90420392D01*
X119051068Y-90638899D01*
X118917818Y-90888192D01*
X118835764Y-91158691D01*
X118808057Y-91440000D01*
X118835764Y-91721309D01*
X118917818Y-91991808D01*
X119051068Y-92241101D01*
X119230392Y-92459608D01*
X119253000Y-92478162D01*
X119253000Y-92941838D01*
X119230392Y-92960392D01*
X119051068Y-93178899D01*
X118917818Y-93428192D01*
X118835764Y-93698691D01*
X118808057Y-93980000D01*
X118835764Y-94261309D01*
X118917818Y-94531808D01*
X119051068Y-94781101D01*
X119230392Y-94999608D01*
X119253000Y-95018162D01*
X119253000Y-95481838D01*
X119230392Y-95500392D01*
X119051068Y-95718899D01*
X118917818Y-95968192D01*
X118835764Y-96238691D01*
X118808057Y-96520000D01*
X118835764Y-96801309D01*
X118917818Y-97071808D01*
X119051068Y-97321101D01*
X119230392Y-97539608D01*
X119253000Y-97558162D01*
X119253000Y-106276838D01*
X119230392Y-106295392D01*
X119051068Y-106513899D01*
X118917818Y-106763192D01*
X118835764Y-107033691D01*
X118808057Y-107315000D01*
X118835764Y-107596309D01*
X118917818Y-107866808D01*
X119051068Y-108116101D01*
X119230392Y-108334608D01*
X119253000Y-108353162D01*
X119253000Y-108816838D01*
X119230392Y-108835392D01*
X119051068Y-109053899D01*
X118917818Y-109303192D01*
X118835764Y-109573691D01*
X118808057Y-109855000D01*
X118835764Y-110136309D01*
X118917818Y-110406808D01*
X119051068Y-110656101D01*
X119230392Y-110874608D01*
X119253000Y-110893162D01*
X119253000Y-111356838D01*
X119230392Y-111375392D01*
X119051068Y-111593899D01*
X118917818Y-111843192D01*
X118835764Y-112113691D01*
X118808057Y-112395000D01*
X118835764Y-112676309D01*
X118917818Y-112946808D01*
X119051068Y-113196101D01*
X119230392Y-113414608D01*
X119253000Y-113433162D01*
X119253000Y-113896838D01*
X119230392Y-113915392D01*
X119051068Y-114133899D01*
X118917818Y-114383192D01*
X118835764Y-114653691D01*
X118808057Y-114935000D01*
X118835764Y-115216309D01*
X118917818Y-115486808D01*
X119051068Y-115736101D01*
X119230392Y-115954608D01*
X119253000Y-115973162D01*
X119253000Y-116444713D01*
X119145500Y-116550105D01*
X118986285Y-116783354D01*
X118875633Y-117043182D01*
X118858096Y-117125961D01*
X118980085Y-117348000D01*
X119708394Y-117348000D01*
X119962394Y-117602000D01*
X118980085Y-117602000D01*
X118858096Y-117824039D01*
X118875633Y-117906818D01*
X118986285Y-118166646D01*
X119145500Y-118399895D01*
X119347161Y-118597601D01*
X119576741Y-118747735D01*
X119448899Y-118816068D01*
X119230392Y-118995392D01*
X119051068Y-119213899D01*
X118917818Y-119463192D01*
X118835764Y-119733691D01*
X118808057Y-120015000D01*
X118835764Y-120296309D01*
X118917818Y-120566808D01*
X119051068Y-120816101D01*
X119230392Y-121034608D01*
X119253000Y-121053162D01*
X119253000Y-121516838D01*
X119230392Y-121535392D01*
X119051068Y-121753899D01*
X118917818Y-122003192D01*
X118835764Y-122273691D01*
X118808057Y-122555000D01*
X118835764Y-122836309D01*
X118917818Y-123106808D01*
X119051068Y-123356101D01*
X119230392Y-123574608D01*
X119253000Y-123593162D01*
X119253000Y-124056838D01*
X119230392Y-124075392D01*
X119051068Y-124293899D01*
X118917818Y-124543192D01*
X118835764Y-124813691D01*
X118808057Y-125095000D01*
X118835764Y-125376309D01*
X118917818Y-125646808D01*
X119051068Y-125896101D01*
X119230392Y-126114608D01*
X119253000Y-126133162D01*
X119253000Y-127000000D01*
X119255440Y-127024776D01*
X119262667Y-127048601D01*
X119274403Y-127070557D01*
X119290197Y-127089803D01*
X119309443Y-127105597D01*
X119331399Y-127117333D01*
X119355224Y-127124560D01*
X119380000Y-127127000D01*
X129667000Y-127127000D01*
X129691776Y-127124560D01*
X129715601Y-127117333D01*
X129737557Y-127105597D01*
X129756803Y-127089803D01*
X132259606Y-124587000D01*
X157480000Y-124587000D01*
X157504776Y-124584560D01*
X157528601Y-124577333D01*
X157550557Y-124565597D01*
X157569803Y-124549803D01*
X160109803Y-122009803D01*
X160125597Y-121990557D01*
X160137333Y-121968601D01*
X160144560Y-121944776D01*
X160147000Y-121920000D01*
X160147000Y-114300000D01*
X160144560Y-114275224D01*
X160137333Y-114251399D01*
X160125597Y-114229443D01*
X160109803Y-114210197D01*
X158792607Y-112893001D01*
X158969857Y-112720252D01*
X159135291Y-112479426D01*
X159250563Y-112210953D01*
X159271476Y-112116890D01*
X159150156Y-111887002D01*
X159315000Y-111887002D01*
X159315000Y-111887000D01*
X161237394Y-111887000D01*
X163703000Y-114352606D01*
X163703000Y-125730000D01*
X163705440Y-125754776D01*
X163712667Y-125778601D01*
X163724403Y-125800557D01*
X163740197Y-125819803D01*
X163759443Y-125835597D01*
X163781399Y-125847333D01*
X163805224Y-125854560D01*
X163830000Y-125857000D01*
X169887629Y-125857000D01*
X170078665Y-125895000D01*
X170361335Y-125895000D01*
X170552371Y-125857000D01*
X171450000Y-125857000D01*
X171474776Y-125854560D01*
X171498601Y-125847333D01*
X171520557Y-125835597D01*
X171539803Y-125819803D01*
X171555597Y-125800557D01*
X171567333Y-125778601D01*
X171574560Y-125754776D01*
X171577000Y-125730000D01*
X171577000Y-125452702D01*
X171906903Y-125452702D01*
X171978486Y-125696671D01*
X172233996Y-125817571D01*
X172508184Y-125886300D01*
X172790512Y-125900217D01*
X173070130Y-125858787D01*
X173336292Y-125763603D01*
X173461514Y-125696671D01*
X173533097Y-125452702D01*
X172720000Y-124639605D01*
X171906903Y-125452702D01*
X171577000Y-125452702D01*
X171577000Y-125228998D01*
X171727298Y-125273097D01*
X172540395Y-124460000D01*
X172899605Y-124460000D01*
X173712702Y-125273097D01*
X173956671Y-125201514D01*
X174077571Y-124946004D01*
X174146300Y-124671816D01*
X174160217Y-124389488D01*
X174118787Y-124109870D01*
X174023603Y-123843708D01*
X173956671Y-123718486D01*
X173712702Y-123646903D01*
X172899605Y-124460000D01*
X172540395Y-124460000D01*
X171727298Y-123646903D01*
X171577000Y-123691002D01*
X171577000Y-123467298D01*
X171906903Y-123467298D01*
X172720000Y-124280395D01*
X173533097Y-123467298D01*
X173461514Y-123223329D01*
X173206004Y-123102429D01*
X172931816Y-123033700D01*
X172649488Y-123019783D01*
X172369870Y-123061213D01*
X172103708Y-123156397D01*
X171978486Y-123223329D01*
X171906903Y-123467298D01*
X171577000Y-123467298D01*
X171577000Y-120702606D01*
X175058606Y-117221000D01*
X179641019Y-117221000D01*
X179880539Y-117320213D01*
X180211776Y-117386100D01*
X180549504Y-117386100D01*
X180880741Y-117320213D01*
X181120261Y-117221000D01*
X182372000Y-117221000D01*
X182396776Y-117218560D01*
X182420601Y-117211333D01*
X182442557Y-117199597D01*
X182461803Y-117183803D01*
X182781908Y-116863698D01*
X184366867Y-116863698D01*
X184472226Y-117136228D01*
X184775391Y-117285059D01*
X185101767Y-117371885D01*
X185438810Y-117393370D01*
X185773568Y-117348688D01*
X186093177Y-117239557D01*
X186286494Y-117136228D01*
X186391853Y-116863698D01*
X185379360Y-115851205D01*
X184366867Y-116863698D01*
X182781908Y-116863698D01*
X183687850Y-115957756D01*
X183702272Y-116065808D01*
X183811403Y-116385417D01*
X183914732Y-116578734D01*
X184187262Y-116684093D01*
X185199755Y-115671600D01*
X185558965Y-115671600D01*
X186571458Y-116684093D01*
X186843988Y-116578734D01*
X186992819Y-116275569D01*
X187079645Y-115949193D01*
X187101130Y-115612150D01*
X187056448Y-115277392D01*
X186947317Y-114957783D01*
X186843988Y-114764466D01*
X186571458Y-114659107D01*
X185558965Y-115671600D01*
X185199755Y-115671600D01*
X185185613Y-115657458D01*
X185365218Y-115477853D01*
X185379360Y-115491995D01*
X186391853Y-114479502D01*
X186286494Y-114206972D01*
X185983329Y-114058141D01*
X185670648Y-113974958D01*
X186525803Y-113119803D01*
X186541597Y-113100557D01*
X186553333Y-113078601D01*
X186560560Y-113054776D01*
X186563000Y-113030000D01*
X186563000Y-112629254D01*
X186618932Y-112561101D01*
X186752182Y-112311808D01*
X186834236Y-112041309D01*
X186861943Y-111760000D01*
X186834236Y-111478691D01*
X186752182Y-111208192D01*
X186618932Y-110958899D01*
X186563000Y-110890746D01*
X186563000Y-110490000D01*
X186560560Y-110465224D01*
X186553333Y-110441399D01*
X186541597Y-110419443D01*
X186525803Y-110400197D01*
X184277000Y-108151394D01*
X184277000Y-102592702D01*
X184606903Y-102592702D01*
X184678486Y-102836671D01*
X184933996Y-102957571D01*
X185208184Y-103026300D01*
X185490512Y-103040217D01*
X185770130Y-102998787D01*
X186036292Y-102903603D01*
X186161514Y-102836671D01*
X186233097Y-102592702D01*
X185420000Y-101779605D01*
X184606903Y-102592702D01*
X184277000Y-102592702D01*
X184277000Y-102368998D01*
X184427298Y-102413097D01*
X185240395Y-101600000D01*
X185599605Y-101600000D01*
X186412702Y-102413097D01*
X186656671Y-102341514D01*
X186777571Y-102086004D01*
X186846300Y-101811816D01*
X186860217Y-101529488D01*
X186818787Y-101249870D01*
X186723603Y-100983708D01*
X186656671Y-100858486D01*
X186412702Y-100786903D01*
X185599605Y-101600000D01*
X185240395Y-101600000D01*
X184427298Y-100786903D01*
X184277000Y-100831002D01*
X184277000Y-100607298D01*
X184606903Y-100607298D01*
X185420000Y-101420395D01*
X186233097Y-100607298D01*
X186161514Y-100363329D01*
X185906004Y-100242429D01*
X185631816Y-100173700D01*
X185349488Y-100159783D01*
X185069870Y-100201213D01*
X184803708Y-100296397D01*
X184678486Y-100363329D01*
X184606903Y-100607298D01*
X184277000Y-100607298D01*
X184277000Y-96271986D01*
X184288351Y-96287116D01*
X184512427Y-96487962D01*
X184771380Y-96641234D01*
X185055259Y-96741041D01*
X185293000Y-96620992D01*
X185293000Y-95377000D01*
X185547000Y-95377000D01*
X185547000Y-96620992D01*
X185784741Y-96741041D01*
X186068620Y-96641234D01*
X186327573Y-96487962D01*
X186551649Y-96287116D01*
X186732236Y-96046414D01*
X186862394Y-95775107D01*
X186911036Y-95614740D01*
X186790378Y-95377000D01*
X185547000Y-95377000D01*
X185293000Y-95377000D01*
X185273000Y-95377000D01*
X185273000Y-95123000D01*
X185293000Y-95123000D01*
X185293000Y-93879008D01*
X185547000Y-93879008D01*
X185547000Y-95123000D01*
X186790378Y-95123000D01*
X186911036Y-94885260D01*
X186862394Y-94724893D01*
X186732236Y-94453586D01*
X186551649Y-94212884D01*
X186327573Y-94012038D01*
X186068620Y-93858766D01*
X185784741Y-93758959D01*
X185547000Y-93879008D01*
X185293000Y-93879008D01*
X185055259Y-93758959D01*
X184771380Y-93858766D01*
X184512427Y-94012038D01*
X184288351Y-94212884D01*
X184277000Y-94228014D01*
X184277000Y-90170000D01*
X184274560Y-90145224D01*
X184267333Y-90121399D01*
X184255597Y-90099443D01*
X184239803Y-90080197D01*
X183007000Y-88847394D01*
X183007000Y-87757002D01*
X183133375Y-87757002D01*
X183012091Y-87979040D01*
X183106930Y-88243881D01*
X183251615Y-88485131D01*
X183440586Y-88693519D01*
X183666580Y-88861037D01*
X183920913Y-88981246D01*
X184054961Y-89021904D01*
X184277000Y-88899915D01*
X184277000Y-87757000D01*
X184531000Y-87757000D01*
X184531000Y-88899915D01*
X184753039Y-89021904D01*
X184887087Y-88981246D01*
X185141420Y-88861037D01*
X185367414Y-88693519D01*
X185556385Y-88485131D01*
X185701070Y-88243881D01*
X185795909Y-87979040D01*
X186568091Y-87979040D01*
X186662930Y-88243881D01*
X186807615Y-88485131D01*
X186996586Y-88693519D01*
X187222580Y-88861037D01*
X187476913Y-88981246D01*
X187610961Y-89021904D01*
X187833000Y-88899915D01*
X187833000Y-87757000D01*
X188087000Y-87757000D01*
X188087000Y-88899915D01*
X188309039Y-89021904D01*
X188443087Y-88981246D01*
X188697420Y-88861037D01*
X188923414Y-88693519D01*
X189112385Y-88485131D01*
X189257070Y-88243881D01*
X189351909Y-87979040D01*
X189230624Y-87757000D01*
X188087000Y-87757000D01*
X187833000Y-87757000D01*
X186689376Y-87757000D01*
X186568091Y-87979040D01*
X185795909Y-87979040D01*
X185674624Y-87757000D01*
X184531000Y-87757000D01*
X184277000Y-87757000D01*
X184257000Y-87757000D01*
X184257000Y-87503000D01*
X184277000Y-87503000D01*
X184277000Y-86360085D01*
X184531000Y-86360085D01*
X184531000Y-87503000D01*
X185674624Y-87503000D01*
X185795909Y-87280960D01*
X186568091Y-87280960D01*
X186689376Y-87503000D01*
X187833000Y-87503000D01*
X187833000Y-86360085D01*
X188087000Y-86360085D01*
X188087000Y-87503000D01*
X189230624Y-87503000D01*
X189351909Y-87280960D01*
X189257070Y-87016119D01*
X189112385Y-86774869D01*
X188923414Y-86566481D01*
X188697420Y-86398963D01*
X188443087Y-86278754D01*
X188309039Y-86238096D01*
X188087000Y-86360085D01*
X187833000Y-86360085D01*
X187610961Y-86238096D01*
X187476913Y-86278754D01*
X187222580Y-86398963D01*
X186996586Y-86566481D01*
X186807615Y-86774869D01*
X186662930Y-87016119D01*
X186568091Y-87280960D01*
X185795909Y-87280960D01*
X185701070Y-87016119D01*
X185556385Y-86774869D01*
X185367414Y-86566481D01*
X185141420Y-86398963D01*
X184887087Y-86278754D01*
X184753039Y-86238096D01*
X184531000Y-86360085D01*
X184277000Y-86360085D01*
X184054961Y-86238096D01*
X183920913Y-86278754D01*
X183666580Y-86398963D01*
X183440586Y-86566481D01*
X183251615Y-86774869D01*
X183106930Y-87016119D01*
X183012091Y-87280960D01*
X183133375Y-87502998D01*
X183007000Y-87502998D01*
X183007000Y-84253606D01*
X188433507Y-78827099D01*
X188639727Y-78741680D01*
X188874759Y-78584637D01*
X189074637Y-78384759D01*
X189231680Y-78149727D01*
X189317099Y-77943507D01*
X189663606Y-77597000D01*
X189693619Y-77597000D01*
X189840000Y-77743381D01*
X189840001Y-127996618D01*
X187686620Y-130150000D01*
X119653381Y-130150000D01*
X117502917Y-127999536D01*
X178666140Y-127999536D01*
X178666140Y-128337264D01*
X178732027Y-128668501D01*
X178861270Y-128980520D01*
X179048901Y-129261330D01*
X179287710Y-129500139D01*
X179568520Y-129687770D01*
X179880539Y-129817013D01*
X180211776Y-129882900D01*
X180549504Y-129882900D01*
X180880741Y-129817013D01*
X181192760Y-129687770D01*
X181473570Y-129500139D01*
X181613211Y-129360498D01*
X184366867Y-129360498D01*
X184472226Y-129633028D01*
X184775391Y-129781859D01*
X185101767Y-129868685D01*
X185438810Y-129890170D01*
X185773568Y-129845488D01*
X186093177Y-129736357D01*
X186286494Y-129633028D01*
X186391853Y-129360498D01*
X185379360Y-128348005D01*
X184366867Y-129360498D01*
X181613211Y-129360498D01*
X181712379Y-129261330D01*
X181900010Y-128980520D01*
X182029253Y-128668501D01*
X182095140Y-128337264D01*
X182095140Y-128227850D01*
X183657590Y-128227850D01*
X183702272Y-128562608D01*
X183811403Y-128882217D01*
X183914732Y-129075534D01*
X184187262Y-129180893D01*
X185199755Y-128168400D01*
X185558965Y-128168400D01*
X186571458Y-129180893D01*
X186843988Y-129075534D01*
X186992819Y-128772369D01*
X187079645Y-128445993D01*
X187101130Y-128108950D01*
X187056448Y-127774192D01*
X186947317Y-127454583D01*
X186843988Y-127261266D01*
X186571458Y-127155907D01*
X185558965Y-128168400D01*
X185199755Y-128168400D01*
X184187262Y-127155907D01*
X183914732Y-127261266D01*
X183765901Y-127564431D01*
X183679075Y-127890807D01*
X183657590Y-128227850D01*
X182095140Y-128227850D01*
X182095140Y-127999536D01*
X182029253Y-127668299D01*
X181900010Y-127356280D01*
X181712379Y-127075470D01*
X181613211Y-126976302D01*
X184366867Y-126976302D01*
X185379360Y-127988795D01*
X186391853Y-126976302D01*
X186286494Y-126703772D01*
X185983329Y-126554941D01*
X185656953Y-126468115D01*
X185319910Y-126446630D01*
X184985152Y-126491312D01*
X184665543Y-126600443D01*
X184472226Y-126703772D01*
X184366867Y-126976302D01*
X181613211Y-126976302D01*
X181473570Y-126836661D01*
X181192760Y-126649030D01*
X180880741Y-126519787D01*
X180549504Y-126453900D01*
X180211776Y-126453900D01*
X179880539Y-126519787D01*
X179568520Y-126649030D01*
X179287710Y-126836661D01*
X179048901Y-127075470D01*
X178861270Y-127356280D01*
X178732027Y-127668299D01*
X178666140Y-127999536D01*
X117502917Y-127999536D01*
X117500000Y-127996620D01*
X117500000Y-77743380D01*
X119653381Y-75590000D01*
X154813000Y-75590000D01*
X154813000Y-78613000D01*
X154813000Y-78613000D01*
G37*
X154813000Y-78613000D02*
X130105000Y-78613000D01*
X130105000Y-78612998D01*
X129939916Y-78612998D01*
X130061904Y-78390961D01*
X130044367Y-78308182D01*
X129933715Y-78048354D01*
X129774500Y-77815105D01*
X129572839Y-77617399D01*
X129336483Y-77462834D01*
X129074514Y-77357350D01*
X128797000Y-77305000D01*
X128397000Y-77305000D01*
X128397000Y-78613000D01*
X128143000Y-78613000D01*
X128143000Y-77305000D01*
X127743000Y-77305000D01*
X127465486Y-77357350D01*
X127203517Y-77462834D01*
X126967161Y-77617399D01*
X126765500Y-77815105D01*
X126606285Y-78048354D01*
X126570945Y-78131339D01*
X126562338Y-78122732D01*
X126533937Y-78080226D01*
X126389774Y-77936063D01*
X126347266Y-77907660D01*
X125819803Y-77380197D01*
X125800557Y-77364403D01*
X125778601Y-77352667D01*
X125754776Y-77345440D01*
X125730000Y-77343000D01*
X121388129Y-77343000D01*
X121331309Y-77325764D01*
X121120492Y-77305000D01*
X120179508Y-77305000D01*
X119968691Y-77325764D01*
X119911871Y-77343000D01*
X119380000Y-77343000D01*
X119355224Y-77345440D01*
X119331399Y-77352667D01*
X119309443Y-77364403D01*
X119290197Y-77380197D01*
X119274403Y-77399443D01*
X119262667Y-77421399D01*
X119255440Y-77445224D01*
X119253000Y-77470000D01*
X119253000Y-77701838D01*
X119230392Y-77720392D01*
X119051068Y-77938899D01*
X118917818Y-78188192D01*
X118835764Y-78458691D01*
X118808057Y-78740000D01*
X118835764Y-79021309D01*
X118917818Y-79291808D01*
X119051068Y-79541101D01*
X119230392Y-79759608D01*
X119253000Y-79778162D01*
X119253000Y-80241838D01*
X119230392Y-80260392D01*
X119051068Y-80478899D01*
X118917818Y-80728192D01*
X118835764Y-80998691D01*
X118808057Y-81280000D01*
X118835764Y-81561309D01*
X118917818Y-81831808D01*
X119051068Y-82081101D01*
X119230392Y-82299608D01*
X119253000Y-82318162D01*
X119253000Y-82781838D01*
X119230392Y-82800392D01*
X119051068Y-83018899D01*
X118917818Y-83268192D01*
X118835764Y-83538691D01*
X118808057Y-83820000D01*
X118835764Y-84101309D01*
X118917818Y-84371808D01*
X119051068Y-84621101D01*
X119230392Y-84839608D01*
X119253000Y-84858162D01*
X119253000Y-85321838D01*
X119230392Y-85340392D01*
X119051068Y-85558899D01*
X118917818Y-85808192D01*
X118835764Y-86078691D01*
X118808057Y-86360000D01*
X118835764Y-86641309D01*
X118917818Y-86911808D01*
X119051068Y-87161101D01*
X119230392Y-87379608D01*
X119253000Y-87398162D01*
X119253000Y-87630000D01*
X119255440Y-87654776D01*
X119262667Y-87678601D01*
X119274403Y-87700557D01*
X119290197Y-87719803D01*
X119347543Y-87777149D01*
X119347161Y-87777399D01*
X119145500Y-87975105D01*
X118986285Y-88208354D01*
X118875633Y-88468182D01*
X118858096Y-88550961D01*
X118980085Y-88773000D01*
X120343394Y-88773000D01*
X120470394Y-88900000D01*
X120343394Y-89027000D01*
X118980085Y-89027000D01*
X118858096Y-89249039D01*
X118875633Y-89331818D01*
X118986285Y-89591646D01*
X119145500Y-89824895D01*
X119347161Y-90022601D01*
X119347543Y-90022851D01*
X119290197Y-90080197D01*
X119274403Y-90099443D01*
X119262667Y-90121399D01*
X119255440Y-90145224D01*
X119253000Y-90170000D01*
X119253000Y-90401838D01*
X119230392Y-90420392D01*
X119051068Y-90638899D01*
X118917818Y-90888192D01*
X118835764Y-91158691D01*
X118808057Y-91440000D01*
X118835764Y-91721309D01*
X118917818Y-91991808D01*
X119051068Y-92241101D01*
X119230392Y-92459608D01*
X119253000Y-92478162D01*
X119253000Y-92941838D01*
X119230392Y-92960392D01*
X119051068Y-93178899D01*
X118917818Y-93428192D01*
X118835764Y-93698691D01*
X118808057Y-93980000D01*
X118835764Y-94261309D01*
X118917818Y-94531808D01*
X119051068Y-94781101D01*
X119230392Y-94999608D01*
X119253000Y-95018162D01*
X119253000Y-95481838D01*
X119230392Y-95500392D01*
X119051068Y-95718899D01*
X118917818Y-95968192D01*
X118835764Y-96238691D01*
X118808057Y-96520000D01*
X118835764Y-96801309D01*
X118917818Y-97071808D01*
X119051068Y-97321101D01*
X119230392Y-97539608D01*
X119253000Y-97558162D01*
X119253000Y-106276838D01*
X119230392Y-106295392D01*
X119051068Y-106513899D01*
X118917818Y-106763192D01*
X118835764Y-107033691D01*
X118808057Y-107315000D01*
X118835764Y-107596309D01*
X118917818Y-107866808D01*
X119051068Y-108116101D01*
X119230392Y-108334608D01*
X119253000Y-108353162D01*
X119253000Y-108816838D01*
X119230392Y-108835392D01*
X119051068Y-109053899D01*
X118917818Y-109303192D01*
X118835764Y-109573691D01*
X118808057Y-109855000D01*
X118835764Y-110136309D01*
X118917818Y-110406808D01*
X119051068Y-110656101D01*
X119230392Y-110874608D01*
X119253000Y-110893162D01*
X119253000Y-111356838D01*
X119230392Y-111375392D01*
X119051068Y-111593899D01*
X118917818Y-111843192D01*
X118835764Y-112113691D01*
X118808057Y-112395000D01*
X118835764Y-112676309D01*
X118917818Y-112946808D01*
X119051068Y-113196101D01*
X119230392Y-113414608D01*
X119253000Y-113433162D01*
X119253000Y-113896838D01*
X119230392Y-113915392D01*
X119051068Y-114133899D01*
X118917818Y-114383192D01*
X118835764Y-114653691D01*
X118808057Y-114935000D01*
X118835764Y-115216309D01*
X118917818Y-115486808D01*
X119051068Y-115736101D01*
X119230392Y-115954608D01*
X119253000Y-115973162D01*
X119253000Y-116444713D01*
X119145500Y-116550105D01*
X118986285Y-116783354D01*
X118875633Y-117043182D01*
X118858096Y-117125961D01*
X118980085Y-117348000D01*
X119708394Y-117348000D01*
X119962394Y-117602000D01*
X118980085Y-117602000D01*
X118858096Y-117824039D01*
X118875633Y-117906818D01*
X118986285Y-118166646D01*
X119145500Y-118399895D01*
X119347161Y-118597601D01*
X119576741Y-118747735D01*
X119448899Y-118816068D01*
X119230392Y-118995392D01*
X119051068Y-119213899D01*
X118917818Y-119463192D01*
X118835764Y-119733691D01*
X118808057Y-120015000D01*
X118835764Y-120296309D01*
X118917818Y-120566808D01*
X119051068Y-120816101D01*
X119230392Y-121034608D01*
X119253000Y-121053162D01*
X119253000Y-121516838D01*
X119230392Y-121535392D01*
X119051068Y-121753899D01*
X118917818Y-122003192D01*
X118835764Y-122273691D01*
X118808057Y-122555000D01*
X118835764Y-122836309D01*
X118917818Y-123106808D01*
X119051068Y-123356101D01*
X119230392Y-123574608D01*
X119253000Y-123593162D01*
X119253000Y-124056838D01*
X119230392Y-124075392D01*
X119051068Y-124293899D01*
X118917818Y-124543192D01*
X118835764Y-124813691D01*
X118808057Y-125095000D01*
X118835764Y-125376309D01*
X118917818Y-125646808D01*
X119051068Y-125896101D01*
X119230392Y-126114608D01*
X119253000Y-126133162D01*
X119253000Y-127000000D01*
X119255440Y-127024776D01*
X119262667Y-127048601D01*
X119274403Y-127070557D01*
X119290197Y-127089803D01*
X119309443Y-127105597D01*
X119331399Y-127117333D01*
X119355224Y-127124560D01*
X119380000Y-127127000D01*
X129667000Y-127127000D01*
X129691776Y-127124560D01*
X129715601Y-127117333D01*
X129737557Y-127105597D01*
X129756803Y-127089803D01*
X132259606Y-124587000D01*
X157480000Y-124587000D01*
X157504776Y-124584560D01*
X157528601Y-124577333D01*
X157550557Y-124565597D01*
X157569803Y-124549803D01*
X160109803Y-122009803D01*
X160125597Y-121990557D01*
X160137333Y-121968601D01*
X160144560Y-121944776D01*
X160147000Y-121920000D01*
X160147000Y-114300000D01*
X160144560Y-114275224D01*
X160137333Y-114251399D01*
X160125597Y-114229443D01*
X160109803Y-114210197D01*
X158792607Y-112893001D01*
X158969857Y-112720252D01*
X159135291Y-112479426D01*
X159250563Y-112210953D01*
X159271476Y-112116890D01*
X159150156Y-111887002D01*
X159315000Y-111887002D01*
X159315000Y-111887000D01*
X161237394Y-111887000D01*
X163703000Y-114352606D01*
X163703000Y-125730000D01*
X163705440Y-125754776D01*
X163712667Y-125778601D01*
X163724403Y-125800557D01*
X163740197Y-125819803D01*
X163759443Y-125835597D01*
X163781399Y-125847333D01*
X163805224Y-125854560D01*
X163830000Y-125857000D01*
X169887629Y-125857000D01*
X170078665Y-125895000D01*
X170361335Y-125895000D01*
X170552371Y-125857000D01*
X171450000Y-125857000D01*
X171474776Y-125854560D01*
X171498601Y-125847333D01*
X171520557Y-125835597D01*
X171539803Y-125819803D01*
X171555597Y-125800557D01*
X171567333Y-125778601D01*
X171574560Y-125754776D01*
X171577000Y-125730000D01*
X171577000Y-125452702D01*
X171906903Y-125452702D01*
X171978486Y-125696671D01*
X172233996Y-125817571D01*
X172508184Y-125886300D01*
X172790512Y-125900217D01*
X173070130Y-125858787D01*
X173336292Y-125763603D01*
X173461514Y-125696671D01*
X173533097Y-125452702D01*
X172720000Y-124639605D01*
X171906903Y-125452702D01*
X171577000Y-125452702D01*
X171577000Y-125228998D01*
X171727298Y-125273097D01*
X172540395Y-124460000D01*
X172899605Y-124460000D01*
X173712702Y-125273097D01*
X173956671Y-125201514D01*
X174077571Y-124946004D01*
X174146300Y-124671816D01*
X174160217Y-124389488D01*
X174118787Y-124109870D01*
X174023603Y-123843708D01*
X173956671Y-123718486D01*
X173712702Y-123646903D01*
X172899605Y-124460000D01*
X172540395Y-124460000D01*
X171727298Y-123646903D01*
X171577000Y-123691002D01*
X171577000Y-123467298D01*
X171906903Y-123467298D01*
X172720000Y-124280395D01*
X173533097Y-123467298D01*
X173461514Y-123223329D01*
X173206004Y-123102429D01*
X172931816Y-123033700D01*
X172649488Y-123019783D01*
X172369870Y-123061213D01*
X172103708Y-123156397D01*
X171978486Y-123223329D01*
X171906903Y-123467298D01*
X171577000Y-123467298D01*
X171577000Y-120702606D01*
X175058606Y-117221000D01*
X179641019Y-117221000D01*
X179880539Y-117320213D01*
X180211776Y-117386100D01*
X180549504Y-117386100D01*
X180880741Y-117320213D01*
X181120261Y-117221000D01*
X182372000Y-117221000D01*
X182396776Y-117218560D01*
X182420601Y-117211333D01*
X182442557Y-117199597D01*
X182461803Y-117183803D01*
X182781908Y-116863698D01*
X184366867Y-116863698D01*
X184472226Y-117136228D01*
X184775391Y-117285059D01*
X185101767Y-117371885D01*
X185438810Y-117393370D01*
X185773568Y-117348688D01*
X186093177Y-117239557D01*
X186286494Y-117136228D01*
X186391853Y-116863698D01*
X185379360Y-115851205D01*
X184366867Y-116863698D01*
X182781908Y-116863698D01*
X183687850Y-115957756D01*
X183702272Y-116065808D01*
X183811403Y-116385417D01*
X183914732Y-116578734D01*
X184187262Y-116684093D01*
X185199755Y-115671600D01*
X185558965Y-115671600D01*
X186571458Y-116684093D01*
X186843988Y-116578734D01*
X186992819Y-116275569D01*
X187079645Y-115949193D01*
X187101130Y-115612150D01*
X187056448Y-115277392D01*
X186947317Y-114957783D01*
X186843988Y-114764466D01*
X186571458Y-114659107D01*
X185558965Y-115671600D01*
X185199755Y-115671600D01*
X185185613Y-115657458D01*
X185365218Y-115477853D01*
X185379360Y-115491995D01*
X186391853Y-114479502D01*
X186286494Y-114206972D01*
X185983329Y-114058141D01*
X185670648Y-113974958D01*
X186525803Y-113119803D01*
X186541597Y-113100557D01*
X186553333Y-113078601D01*
X186560560Y-113054776D01*
X186563000Y-113030000D01*
X186563000Y-112629254D01*
X186618932Y-112561101D01*
X186752182Y-112311808D01*
X186834236Y-112041309D01*
X186861943Y-111760000D01*
X186834236Y-111478691D01*
X186752182Y-111208192D01*
X186618932Y-110958899D01*
X186563000Y-110890746D01*
X186563000Y-110490000D01*
X186560560Y-110465224D01*
X186553333Y-110441399D01*
X186541597Y-110419443D01*
X186525803Y-110400197D01*
X184277000Y-108151394D01*
X184277000Y-102592702D01*
X184606903Y-102592702D01*
X184678486Y-102836671D01*
X184933996Y-102957571D01*
X185208184Y-103026300D01*
X185490512Y-103040217D01*
X185770130Y-102998787D01*
X186036292Y-102903603D01*
X186161514Y-102836671D01*
X186233097Y-102592702D01*
X185420000Y-101779605D01*
X184606903Y-102592702D01*
X184277000Y-102592702D01*
X184277000Y-102368998D01*
X184427298Y-102413097D01*
X185240395Y-101600000D01*
X185599605Y-101600000D01*
X186412702Y-102413097D01*
X186656671Y-102341514D01*
X186777571Y-102086004D01*
X186846300Y-101811816D01*
X186860217Y-101529488D01*
X186818787Y-101249870D01*
X186723603Y-100983708D01*
X186656671Y-100858486D01*
X186412702Y-100786903D01*
X185599605Y-101600000D01*
X185240395Y-101600000D01*
X184427298Y-100786903D01*
X184277000Y-100831002D01*
X184277000Y-100607298D01*
X184606903Y-100607298D01*
X185420000Y-101420395D01*
X186233097Y-100607298D01*
X186161514Y-100363329D01*
X185906004Y-100242429D01*
X185631816Y-100173700D01*
X185349488Y-100159783D01*
X185069870Y-100201213D01*
X184803708Y-100296397D01*
X184678486Y-100363329D01*
X184606903Y-100607298D01*
X184277000Y-100607298D01*
X184277000Y-96271986D01*
X184288351Y-96287116D01*
X184512427Y-96487962D01*
X184771380Y-96641234D01*
X185055259Y-96741041D01*
X185293000Y-96620992D01*
X185293000Y-95377000D01*
X185547000Y-95377000D01*
X185547000Y-96620992D01*
X185784741Y-96741041D01*
X186068620Y-96641234D01*
X186327573Y-96487962D01*
X186551649Y-96287116D01*
X186732236Y-96046414D01*
X186862394Y-95775107D01*
X186911036Y-95614740D01*
X186790378Y-95377000D01*
X185547000Y-95377000D01*
X185293000Y-95377000D01*
X185273000Y-95377000D01*
X185273000Y-95123000D01*
X185293000Y-95123000D01*
X185293000Y-93879008D01*
X185547000Y-93879008D01*
X185547000Y-95123000D01*
X186790378Y-95123000D01*
X186911036Y-94885260D01*
X186862394Y-94724893D01*
X186732236Y-94453586D01*
X186551649Y-94212884D01*
X186327573Y-94012038D01*
X186068620Y-93858766D01*
X185784741Y-93758959D01*
X185547000Y-93879008D01*
X185293000Y-93879008D01*
X185055259Y-93758959D01*
X184771380Y-93858766D01*
X184512427Y-94012038D01*
X184288351Y-94212884D01*
X184277000Y-94228014D01*
X184277000Y-90170000D01*
X184274560Y-90145224D01*
X184267333Y-90121399D01*
X184255597Y-90099443D01*
X184239803Y-90080197D01*
X183007000Y-88847394D01*
X183007000Y-87757002D01*
X183133375Y-87757002D01*
X183012091Y-87979040D01*
X183106930Y-88243881D01*
X183251615Y-88485131D01*
X183440586Y-88693519D01*
X183666580Y-88861037D01*
X183920913Y-88981246D01*
X184054961Y-89021904D01*
X184277000Y-88899915D01*
X184277000Y-87757000D01*
X184531000Y-87757000D01*
X184531000Y-88899915D01*
X184753039Y-89021904D01*
X184887087Y-88981246D01*
X185141420Y-88861037D01*
X185367414Y-88693519D01*
X185556385Y-88485131D01*
X185701070Y-88243881D01*
X185795909Y-87979040D01*
X186568091Y-87979040D01*
X186662930Y-88243881D01*
X186807615Y-88485131D01*
X186996586Y-88693519D01*
X187222580Y-88861037D01*
X187476913Y-88981246D01*
X187610961Y-89021904D01*
X187833000Y-88899915D01*
X187833000Y-87757000D01*
X188087000Y-87757000D01*
X188087000Y-88899915D01*
X188309039Y-89021904D01*
X188443087Y-88981246D01*
X188697420Y-88861037D01*
X188923414Y-88693519D01*
X189112385Y-88485131D01*
X189257070Y-88243881D01*
X189351909Y-87979040D01*
X189230624Y-87757000D01*
X188087000Y-87757000D01*
X187833000Y-87757000D01*
X186689376Y-87757000D01*
X186568091Y-87979040D01*
X185795909Y-87979040D01*
X185674624Y-87757000D01*
X184531000Y-87757000D01*
X184277000Y-87757000D01*
X184257000Y-87757000D01*
X184257000Y-87503000D01*
X184277000Y-87503000D01*
X184277000Y-86360085D01*
X184531000Y-86360085D01*
X184531000Y-87503000D01*
X185674624Y-87503000D01*
X185795909Y-87280960D01*
X186568091Y-87280960D01*
X186689376Y-87503000D01*
X187833000Y-87503000D01*
X187833000Y-86360085D01*
X188087000Y-86360085D01*
X188087000Y-87503000D01*
X189230624Y-87503000D01*
X189351909Y-87280960D01*
X189257070Y-87016119D01*
X189112385Y-86774869D01*
X188923414Y-86566481D01*
X188697420Y-86398963D01*
X188443087Y-86278754D01*
X188309039Y-86238096D01*
X188087000Y-86360085D01*
X187833000Y-86360085D01*
X187610961Y-86238096D01*
X187476913Y-86278754D01*
X187222580Y-86398963D01*
X186996586Y-86566481D01*
X186807615Y-86774869D01*
X186662930Y-87016119D01*
X186568091Y-87280960D01*
X185795909Y-87280960D01*
X185701070Y-87016119D01*
X185556385Y-86774869D01*
X185367414Y-86566481D01*
X185141420Y-86398963D01*
X184887087Y-86278754D01*
X184753039Y-86238096D01*
X184531000Y-86360085D01*
X184277000Y-86360085D01*
X184054961Y-86238096D01*
X183920913Y-86278754D01*
X183666580Y-86398963D01*
X183440586Y-86566481D01*
X183251615Y-86774869D01*
X183106930Y-87016119D01*
X183012091Y-87280960D01*
X183133375Y-87502998D01*
X183007000Y-87502998D01*
X183007000Y-84253606D01*
X188433507Y-78827099D01*
X188639727Y-78741680D01*
X188874759Y-78584637D01*
X189074637Y-78384759D01*
X189231680Y-78149727D01*
X189317099Y-77943507D01*
X189663606Y-77597000D01*
X189693619Y-77597000D01*
X189840000Y-77743381D01*
X189840001Y-127996618D01*
X187686620Y-130150000D01*
X119653381Y-130150000D01*
X117502917Y-127999536D01*
X178666140Y-127999536D01*
X178666140Y-128337264D01*
X178732027Y-128668501D01*
X178861270Y-128980520D01*
X179048901Y-129261330D01*
X179287710Y-129500139D01*
X179568520Y-129687770D01*
X179880539Y-129817013D01*
X180211776Y-129882900D01*
X180549504Y-129882900D01*
X180880741Y-129817013D01*
X181192760Y-129687770D01*
X181473570Y-129500139D01*
X181613211Y-129360498D01*
X184366867Y-129360498D01*
X184472226Y-129633028D01*
X184775391Y-129781859D01*
X185101767Y-129868685D01*
X185438810Y-129890170D01*
X185773568Y-129845488D01*
X186093177Y-129736357D01*
X186286494Y-129633028D01*
X186391853Y-129360498D01*
X185379360Y-128348005D01*
X184366867Y-129360498D01*
X181613211Y-129360498D01*
X181712379Y-129261330D01*
X181900010Y-128980520D01*
X182029253Y-128668501D01*
X182095140Y-128337264D01*
X182095140Y-128227850D01*
X183657590Y-128227850D01*
X183702272Y-128562608D01*
X183811403Y-128882217D01*
X183914732Y-129075534D01*
X184187262Y-129180893D01*
X185199755Y-128168400D01*
X185558965Y-128168400D01*
X186571458Y-129180893D01*
X186843988Y-129075534D01*
X186992819Y-128772369D01*
X187079645Y-128445993D01*
X187101130Y-128108950D01*
X187056448Y-127774192D01*
X186947317Y-127454583D01*
X186843988Y-127261266D01*
X186571458Y-127155907D01*
X185558965Y-128168400D01*
X185199755Y-128168400D01*
X184187262Y-127155907D01*
X183914732Y-127261266D01*
X183765901Y-127564431D01*
X183679075Y-127890807D01*
X183657590Y-128227850D01*
X182095140Y-128227850D01*
X182095140Y-127999536D01*
X182029253Y-127668299D01*
X181900010Y-127356280D01*
X181712379Y-127075470D01*
X181613211Y-126976302D01*
X184366867Y-126976302D01*
X185379360Y-127988795D01*
X186391853Y-126976302D01*
X186286494Y-126703772D01*
X185983329Y-126554941D01*
X185656953Y-126468115D01*
X185319910Y-126446630D01*
X184985152Y-126491312D01*
X184665543Y-126600443D01*
X184472226Y-126703772D01*
X184366867Y-126976302D01*
X181613211Y-126976302D01*
X181473570Y-126836661D01*
X181192760Y-126649030D01*
X180880741Y-126519787D01*
X180549504Y-126453900D01*
X180211776Y-126453900D01*
X179880539Y-126519787D01*
X179568520Y-126649030D01*
X179287710Y-126836661D01*
X179048901Y-127075470D01*
X178861270Y-127356280D01*
X178732027Y-127668299D01*
X178666140Y-127999536D01*
X117502917Y-127999536D01*
X117500000Y-127996620D01*
X117500000Y-77743380D01*
X119653381Y-75590000D01*
X154813000Y-75590000D01*
X154813000Y-78613000D01*
M02*
