G04 #@! TF.GenerationSoftware,KiCad,Pcbnew,(5.1.0)-1*
G04 #@! TF.CreationDate,2019-04-17T12:48:29-04:00*
G04 #@! TF.ProjectId,f-ramune_arduino,662d7261-6d75-46e6-955f-61726475696e,rev?*
G04 #@! TF.SameCoordinates,Original*
G04 #@! TF.FileFunction,Legend,Bot*
G04 #@! TF.FilePolarity,Positive*
%FSLAX46Y46*%
G04 Gerber Fmt 4.6, Leading zero omitted, Abs format (unit mm)*
G04 Created by KiCad (PCBNEW (5.1.0)-1) date 2019-04-17 12:48:29*
%MOMM*%
%LPD*%
G04 APERTURE LIST*
%ADD10C,0.120000*%
%ADD11C,0.150000*%
%ADD12C,0.010000*%
G04 APERTURE END LIST*
D10*
X145542000Y-83820000D02*
X145542000Y-78740000D01*
X153670000Y-83820000D02*
X145542000Y-83820000D01*
X153670000Y-78740000D02*
X153670000Y-83820000D01*
X145542000Y-78740000D02*
X153670000Y-78740000D01*
D11*
X153383333Y-77922380D02*
X153383333Y-76922380D01*
X153145238Y-76922380D01*
X153002380Y-76970000D01*
X152907142Y-77065238D01*
X152859523Y-77160476D01*
X152811904Y-77350952D01*
X152811904Y-77493809D01*
X152859523Y-77684285D01*
X152907142Y-77779523D01*
X153002380Y-77874761D01*
X153145238Y-77922380D01*
X153383333Y-77922380D01*
X152002380Y-77874761D02*
X152097619Y-77922380D01*
X152288095Y-77922380D01*
X152383333Y-77874761D01*
X152430952Y-77779523D01*
X152430952Y-77398571D01*
X152383333Y-77303333D01*
X152288095Y-77255714D01*
X152097619Y-77255714D01*
X152002380Y-77303333D01*
X151954761Y-77398571D01*
X151954761Y-77493809D01*
X152430952Y-77589047D01*
X151573809Y-77874761D02*
X151478571Y-77922380D01*
X151288095Y-77922380D01*
X151192857Y-77874761D01*
X151145238Y-77779523D01*
X151145238Y-77731904D01*
X151192857Y-77636666D01*
X151288095Y-77589047D01*
X151430952Y-77589047D01*
X151526190Y-77541428D01*
X151573809Y-77446190D01*
X151573809Y-77398571D01*
X151526190Y-77303333D01*
X151430952Y-77255714D01*
X151288095Y-77255714D01*
X151192857Y-77303333D01*
X150716666Y-77922380D02*
X150716666Y-77255714D01*
X150716666Y-76922380D02*
X150764285Y-76970000D01*
X150716666Y-77017619D01*
X150669047Y-76970000D01*
X150716666Y-76922380D01*
X150716666Y-77017619D01*
X149811904Y-77255714D02*
X149811904Y-78065238D01*
X149859523Y-78160476D01*
X149907142Y-78208095D01*
X150002380Y-78255714D01*
X150145238Y-78255714D01*
X150240476Y-78208095D01*
X149811904Y-77874761D02*
X149907142Y-77922380D01*
X150097619Y-77922380D01*
X150192857Y-77874761D01*
X150240476Y-77827142D01*
X150288095Y-77731904D01*
X150288095Y-77446190D01*
X150240476Y-77350952D01*
X150192857Y-77303333D01*
X150097619Y-77255714D01*
X149907142Y-77255714D01*
X149811904Y-77303333D01*
X149335714Y-77255714D02*
X149335714Y-77922380D01*
X149335714Y-77350952D02*
X149288095Y-77303333D01*
X149192857Y-77255714D01*
X149050000Y-77255714D01*
X148954761Y-77303333D01*
X148907142Y-77398571D01*
X148907142Y-77922380D01*
X148050000Y-77874761D02*
X148145238Y-77922380D01*
X148335714Y-77922380D01*
X148430952Y-77874761D01*
X148478571Y-77779523D01*
X148478571Y-77398571D01*
X148430952Y-77303333D01*
X148335714Y-77255714D01*
X148145238Y-77255714D01*
X148050000Y-77303333D01*
X148002380Y-77398571D01*
X148002380Y-77493809D01*
X148478571Y-77589047D01*
X147145238Y-77922380D02*
X147145238Y-76922380D01*
X147145238Y-77874761D02*
X147240476Y-77922380D01*
X147430952Y-77922380D01*
X147526190Y-77874761D01*
X147573809Y-77827142D01*
X147621428Y-77731904D01*
X147621428Y-77446190D01*
X147573809Y-77350952D01*
X147526190Y-77303333D01*
X147430952Y-77255714D01*
X147240476Y-77255714D01*
X147145238Y-77303333D01*
X145907142Y-77922380D02*
X145907142Y-77255714D01*
X145907142Y-76922380D02*
X145954761Y-76970000D01*
X145907142Y-77017619D01*
X145859523Y-76970000D01*
X145907142Y-76922380D01*
X145907142Y-77017619D01*
X145430952Y-77255714D02*
X145430952Y-77922380D01*
X145430952Y-77350952D02*
X145383333Y-77303333D01*
X145288095Y-77255714D01*
X145145238Y-77255714D01*
X145050000Y-77303333D01*
X145002380Y-77398571D01*
X145002380Y-77922380D01*
X143811904Y-77874761D02*
X143669047Y-77922380D01*
X143430952Y-77922380D01*
X143335714Y-77874761D01*
X143288095Y-77827142D01*
X143240476Y-77731904D01*
X143240476Y-77636666D01*
X143288095Y-77541428D01*
X143335714Y-77493809D01*
X143430952Y-77446190D01*
X143621428Y-77398571D01*
X143716666Y-77350952D01*
X143764285Y-77303333D01*
X143811904Y-77208095D01*
X143811904Y-77112857D01*
X143764285Y-77017619D01*
X143716666Y-76970000D01*
X143621428Y-76922380D01*
X143383333Y-76922380D01*
X143240476Y-76970000D01*
X142907142Y-77255714D02*
X142716666Y-77922380D01*
X142526190Y-77446190D01*
X142335714Y-77922380D01*
X142145238Y-77255714D01*
X141383333Y-77874761D02*
X141478571Y-77922380D01*
X141669047Y-77922380D01*
X141764285Y-77874761D01*
X141811904Y-77779523D01*
X141811904Y-77398571D01*
X141764285Y-77303333D01*
X141669047Y-77255714D01*
X141478571Y-77255714D01*
X141383333Y-77303333D01*
X141335714Y-77398571D01*
X141335714Y-77493809D01*
X141811904Y-77589047D01*
X140478571Y-77922380D02*
X140478571Y-76922380D01*
X140478571Y-77874761D02*
X140573809Y-77922380D01*
X140764285Y-77922380D01*
X140859523Y-77874761D01*
X140907142Y-77827142D01*
X140954761Y-77731904D01*
X140954761Y-77446190D01*
X140907142Y-77350952D01*
X140859523Y-77303333D01*
X140764285Y-77255714D01*
X140573809Y-77255714D01*
X140478571Y-77303333D01*
X139621428Y-77874761D02*
X139716666Y-77922380D01*
X139907142Y-77922380D01*
X140002380Y-77874761D01*
X140050000Y-77779523D01*
X140050000Y-77398571D01*
X140002380Y-77303333D01*
X139907142Y-77255714D01*
X139716666Y-77255714D01*
X139621428Y-77303333D01*
X139573809Y-77398571D01*
X139573809Y-77493809D01*
X140050000Y-77589047D01*
X139145238Y-77255714D02*
X139145238Y-77922380D01*
X139145238Y-77350952D02*
X139097619Y-77303333D01*
X139002380Y-77255714D01*
X138859523Y-77255714D01*
X138764285Y-77303333D01*
X138716666Y-77398571D01*
X138716666Y-77922380D01*
X158200476Y-128722380D02*
X158200476Y-127722380D01*
X157771904Y-128722380D02*
X157771904Y-128198571D01*
X157819523Y-128103333D01*
X157914761Y-128055714D01*
X158057619Y-128055714D01*
X158152857Y-128103333D01*
X158200476Y-128150952D01*
X157438571Y-128055714D02*
X157057619Y-128055714D01*
X157295714Y-127722380D02*
X157295714Y-128579523D01*
X157248095Y-128674761D01*
X157152857Y-128722380D01*
X157057619Y-128722380D01*
X156867142Y-128055714D02*
X156486190Y-128055714D01*
X156724285Y-127722380D02*
X156724285Y-128579523D01*
X156676666Y-128674761D01*
X156581428Y-128722380D01*
X156486190Y-128722380D01*
X156152857Y-128055714D02*
X156152857Y-129055714D01*
X156152857Y-128103333D02*
X156057619Y-128055714D01*
X155867142Y-128055714D01*
X155771904Y-128103333D01*
X155724285Y-128150952D01*
X155676666Y-128246190D01*
X155676666Y-128531904D01*
X155724285Y-128627142D01*
X155771904Y-128674761D01*
X155867142Y-128722380D01*
X156057619Y-128722380D01*
X156152857Y-128674761D01*
X155295714Y-128674761D02*
X155200476Y-128722380D01*
X155010000Y-128722380D01*
X154914761Y-128674761D01*
X154867142Y-128579523D01*
X154867142Y-128531904D01*
X154914761Y-128436666D01*
X155010000Y-128389047D01*
X155152857Y-128389047D01*
X155248095Y-128341428D01*
X155295714Y-128246190D01*
X155295714Y-128198571D01*
X155248095Y-128103333D01*
X155152857Y-128055714D01*
X155010000Y-128055714D01*
X154914761Y-128103333D01*
X154438571Y-128627142D02*
X154390952Y-128674761D01*
X154438571Y-128722380D01*
X154486190Y-128674761D01*
X154438571Y-128627142D01*
X154438571Y-128722380D01*
X154438571Y-128103333D02*
X154390952Y-128150952D01*
X154438571Y-128198571D01*
X154486190Y-128150952D01*
X154438571Y-128103333D01*
X154438571Y-128198571D01*
X153248095Y-127674761D02*
X154105238Y-128960476D01*
X152200476Y-127674761D02*
X153057619Y-128960476D01*
X151438571Y-128055714D02*
X151438571Y-128865238D01*
X151486190Y-128960476D01*
X151533809Y-129008095D01*
X151629047Y-129055714D01*
X151771904Y-129055714D01*
X151867142Y-129008095D01*
X151438571Y-128674761D02*
X151533809Y-128722380D01*
X151724285Y-128722380D01*
X151819523Y-128674761D01*
X151867142Y-128627142D01*
X151914761Y-128531904D01*
X151914761Y-128246190D01*
X151867142Y-128150952D01*
X151819523Y-128103333D01*
X151724285Y-128055714D01*
X151533809Y-128055714D01*
X151438571Y-128103333D01*
X150962380Y-128722380D02*
X150962380Y-128055714D01*
X150962380Y-127722380D02*
X151010000Y-127770000D01*
X150962380Y-127817619D01*
X150914761Y-127770000D01*
X150962380Y-127722380D01*
X150962380Y-127817619D01*
X150629047Y-128055714D02*
X150248095Y-128055714D01*
X150486190Y-127722380D02*
X150486190Y-128579523D01*
X150438571Y-128674761D01*
X150343333Y-128722380D01*
X150248095Y-128722380D01*
X149914761Y-128722380D02*
X149914761Y-127722380D01*
X149486190Y-128722380D02*
X149486190Y-128198571D01*
X149533809Y-128103333D01*
X149629047Y-128055714D01*
X149771904Y-128055714D01*
X149867142Y-128103333D01*
X149914761Y-128150952D01*
X148581428Y-128055714D02*
X148581428Y-128722380D01*
X149010000Y-128055714D02*
X149010000Y-128579523D01*
X148962380Y-128674761D01*
X148867142Y-128722380D01*
X148724285Y-128722380D01*
X148629047Y-128674761D01*
X148581428Y-128627142D01*
X148105238Y-128722380D02*
X148105238Y-127722380D01*
X148105238Y-128103333D02*
X148010000Y-128055714D01*
X147819523Y-128055714D01*
X147724285Y-128103333D01*
X147676666Y-128150952D01*
X147629047Y-128246190D01*
X147629047Y-128531904D01*
X147676666Y-128627142D01*
X147724285Y-128674761D01*
X147819523Y-128722380D01*
X148010000Y-128722380D01*
X148105238Y-128674761D01*
X147200476Y-128627142D02*
X147152857Y-128674761D01*
X147200476Y-128722380D01*
X147248095Y-128674761D01*
X147200476Y-128627142D01*
X147200476Y-128722380D01*
X146295714Y-128674761D02*
X146390952Y-128722380D01*
X146581428Y-128722380D01*
X146676666Y-128674761D01*
X146724285Y-128627142D01*
X146771904Y-128531904D01*
X146771904Y-128246190D01*
X146724285Y-128150952D01*
X146676666Y-128103333D01*
X146581428Y-128055714D01*
X146390952Y-128055714D01*
X146295714Y-128103333D01*
X145724285Y-128722380D02*
X145819523Y-128674761D01*
X145867142Y-128627142D01*
X145914761Y-128531904D01*
X145914761Y-128246190D01*
X145867142Y-128150952D01*
X145819523Y-128103333D01*
X145724285Y-128055714D01*
X145581428Y-128055714D01*
X145486190Y-128103333D01*
X145438571Y-128150952D01*
X145390952Y-128246190D01*
X145390952Y-128531904D01*
X145438571Y-128627142D01*
X145486190Y-128674761D01*
X145581428Y-128722380D01*
X145724285Y-128722380D01*
X144962380Y-128722380D02*
X144962380Y-128055714D01*
X144962380Y-128150952D02*
X144914761Y-128103333D01*
X144819523Y-128055714D01*
X144676666Y-128055714D01*
X144581428Y-128103333D01*
X144533809Y-128198571D01*
X144533809Y-128722380D01*
X144533809Y-128198571D02*
X144486190Y-128103333D01*
X144390952Y-128055714D01*
X144248095Y-128055714D01*
X144152857Y-128103333D01*
X144105238Y-128198571D01*
X144105238Y-128722380D01*
X142914761Y-127674761D02*
X143771904Y-128960476D01*
X142438571Y-128722380D02*
X142533809Y-128674761D01*
X142581428Y-128627142D01*
X142629047Y-128531904D01*
X142629047Y-128246190D01*
X142581428Y-128150952D01*
X142533809Y-128103333D01*
X142438571Y-128055714D01*
X142295714Y-128055714D01*
X142200476Y-128103333D01*
X142152857Y-128150952D01*
X142105238Y-128246190D01*
X142105238Y-128531904D01*
X142152857Y-128627142D01*
X142200476Y-128674761D01*
X142295714Y-128722380D01*
X142438571Y-128722380D01*
X141676666Y-128722380D02*
X141676666Y-127722380D01*
X141676666Y-128103333D02*
X141581428Y-128055714D01*
X141390952Y-128055714D01*
X141295714Y-128103333D01*
X141248095Y-128150952D01*
X141200476Y-128246190D01*
X141200476Y-128531904D01*
X141248095Y-128627142D01*
X141295714Y-128674761D01*
X141390952Y-128722380D01*
X141581428Y-128722380D01*
X141676666Y-128674761D01*
X140819523Y-128674761D02*
X140724285Y-128722380D01*
X140533809Y-128722380D01*
X140438571Y-128674761D01*
X140390952Y-128579523D01*
X140390952Y-128531904D01*
X140438571Y-128436666D01*
X140533809Y-128389047D01*
X140676666Y-128389047D01*
X140771904Y-128341428D01*
X140819523Y-128246190D01*
X140819523Y-128198571D01*
X140771904Y-128103333D01*
X140676666Y-128055714D01*
X140533809Y-128055714D01*
X140438571Y-128103333D01*
X139962380Y-128722380D02*
X139962380Y-127722380D01*
X139867142Y-128341428D02*
X139581428Y-128722380D01*
X139581428Y-128055714D02*
X139962380Y-128436666D01*
X139248095Y-128055714D02*
X139010000Y-128722380D01*
X138771904Y-128055714D02*
X139010000Y-128722380D01*
X139105238Y-128960476D01*
X139152857Y-129008095D01*
X139248095Y-129055714D01*
X138390952Y-128722380D02*
X138390952Y-128055714D01*
X138390952Y-128246190D02*
X138343333Y-128150952D01*
X138295714Y-128103333D01*
X138200476Y-128055714D01*
X138105238Y-128055714D01*
X137057619Y-127674761D02*
X137914761Y-128960476D01*
X136867142Y-128055714D02*
X136486190Y-128055714D01*
X136724285Y-128722380D02*
X136724285Y-127865238D01*
X136676666Y-127770000D01*
X136581428Y-127722380D01*
X136486190Y-127722380D01*
X136152857Y-128341428D02*
X135390952Y-128341428D01*
X134914761Y-128722380D02*
X134914761Y-128055714D01*
X134914761Y-128246190D02*
X134867142Y-128150952D01*
X134819523Y-128103333D01*
X134724285Y-128055714D01*
X134629047Y-128055714D01*
X133867142Y-128722380D02*
X133867142Y-128198571D01*
X133914761Y-128103333D01*
X134010000Y-128055714D01*
X134200476Y-128055714D01*
X134295714Y-128103333D01*
X133867142Y-128674761D02*
X133962380Y-128722380D01*
X134200476Y-128722380D01*
X134295714Y-128674761D01*
X134343333Y-128579523D01*
X134343333Y-128484285D01*
X134295714Y-128389047D01*
X134200476Y-128341428D01*
X133962380Y-128341428D01*
X133867142Y-128293809D01*
X133390952Y-128722380D02*
X133390952Y-128055714D01*
X133390952Y-128150952D02*
X133343333Y-128103333D01*
X133248095Y-128055714D01*
X133105238Y-128055714D01*
X133010000Y-128103333D01*
X132962380Y-128198571D01*
X132962380Y-128722380D01*
X132962380Y-128198571D02*
X132914761Y-128103333D01*
X132819523Y-128055714D01*
X132676666Y-128055714D01*
X132581428Y-128103333D01*
X132533809Y-128198571D01*
X132533809Y-128722380D01*
X131629047Y-128055714D02*
X131629047Y-128722380D01*
X132057619Y-128055714D02*
X132057619Y-128579523D01*
X132010000Y-128674761D01*
X131914761Y-128722380D01*
X131771904Y-128722380D01*
X131676666Y-128674761D01*
X131629047Y-128627142D01*
X131152857Y-128055714D02*
X131152857Y-128722380D01*
X131152857Y-128150952D02*
X131105238Y-128103333D01*
X131010000Y-128055714D01*
X130867142Y-128055714D01*
X130771904Y-128103333D01*
X130724285Y-128198571D01*
X130724285Y-128722380D01*
X129867142Y-128674761D02*
X129962380Y-128722380D01*
X130152857Y-128722380D01*
X130248095Y-128674761D01*
X130295714Y-128579523D01*
X130295714Y-128198571D01*
X130248095Y-128103333D01*
X130152857Y-128055714D01*
X129962380Y-128055714D01*
X129867142Y-128103333D01*
X129819523Y-128198571D01*
X129819523Y-128293809D01*
X130295714Y-128389047D01*
X128676666Y-127674761D02*
X129533809Y-128960476D01*
D12*
G36*
X164967813Y-119380103D02*
G01*
X164864979Y-119380477D01*
X164782755Y-119381215D01*
X164718745Y-119382412D01*
X164670554Y-119384162D01*
X164635787Y-119386559D01*
X164612049Y-119389697D01*
X164596945Y-119393671D01*
X164588079Y-119398575D01*
X164586558Y-119399957D01*
X164570605Y-119419606D01*
X164566600Y-119429136D01*
X164564348Y-119443284D01*
X164557929Y-119479617D01*
X164547853Y-119535357D01*
X164534627Y-119607723D01*
X164518760Y-119693934D01*
X164500761Y-119791212D01*
X164481137Y-119896775D01*
X164478059Y-119913293D01*
X164453355Y-120044403D01*
X164432418Y-120152255D01*
X164414846Y-120238647D01*
X164400237Y-120305377D01*
X164388189Y-120354241D01*
X164378299Y-120387038D01*
X164370165Y-120405565D01*
X164366934Y-120409760D01*
X164349584Y-120420017D01*
X164311881Y-120438217D01*
X164257080Y-120462928D01*
X164188434Y-120492717D01*
X164109196Y-120526150D01*
X164022619Y-120561795D01*
X164011984Y-120566116D01*
X163910658Y-120606927D01*
X163830159Y-120638601D01*
X163767965Y-120661995D01*
X163721553Y-120677969D01*
X163688400Y-120687381D01*
X163665984Y-120691091D01*
X163651782Y-120689957D01*
X163650034Y-120689356D01*
X163633154Y-120679720D01*
X163597882Y-120657287D01*
X163546707Y-120623718D01*
X163482122Y-120580673D01*
X163406615Y-120529815D01*
X163322679Y-120472803D01*
X163232803Y-120411299D01*
X163221505Y-120403537D01*
X163131868Y-120342163D01*
X163048542Y-120285575D01*
X162973893Y-120235347D01*
X162910289Y-120193050D01*
X162860096Y-120160257D01*
X162825683Y-120138540D01*
X162809414Y-120129472D01*
X162808670Y-120129300D01*
X162796918Y-120138000D01*
X162769290Y-120162816D01*
X162727788Y-120201821D01*
X162674415Y-120253088D01*
X162611172Y-120314688D01*
X162540061Y-120384696D01*
X162463084Y-120461182D01*
X162440626Y-120483624D01*
X162345319Y-120579376D01*
X162267187Y-120658812D01*
X162205066Y-120723195D01*
X162157795Y-120773785D01*
X162124212Y-120811846D01*
X162103154Y-120838638D01*
X162093460Y-120855423D01*
X162092670Y-120861449D01*
X162101074Y-120876949D01*
X162122313Y-120910866D01*
X162154753Y-120960740D01*
X162196763Y-121024109D01*
X162246711Y-121098514D01*
X162302964Y-121181494D01*
X162363889Y-121270588D01*
X162369379Y-121278580D01*
X162450882Y-121398024D01*
X162517447Y-121497442D01*
X162569298Y-121577189D01*
X162606658Y-121637615D01*
X162629753Y-121679075D01*
X162638804Y-121701923D01*
X162638961Y-121704030D01*
X162633691Y-121724756D01*
X162619517Y-121764862D01*
X162598032Y-121820617D01*
X162570829Y-121888293D01*
X162539503Y-121964160D01*
X162505647Y-122044487D01*
X162470856Y-122125546D01*
X162436723Y-122203607D01*
X162404842Y-122274940D01*
X162376807Y-122335815D01*
X162354212Y-122382503D01*
X162338651Y-122411275D01*
X162333886Y-122417899D01*
X162319280Y-122425637D01*
X162287923Y-122435591D01*
X162238415Y-122448072D01*
X162169353Y-122463393D01*
X162079336Y-122481865D01*
X161966963Y-122503801D01*
X161840064Y-122527787D01*
X161733551Y-122547837D01*
X161634731Y-122566724D01*
X161546428Y-122583889D01*
X161471465Y-122598770D01*
X161412666Y-122610805D01*
X161372854Y-122619433D01*
X161354855Y-122624093D01*
X161354289Y-122624362D01*
X161350371Y-122638488D01*
X161347139Y-122675858D01*
X161344583Y-122736868D01*
X161342691Y-122821912D01*
X161341454Y-122931386D01*
X161340860Y-123065685D01*
X161340800Y-123132044D01*
X161340934Y-123261300D01*
X161341385Y-123367374D01*
X161342231Y-123452483D01*
X161343548Y-123518845D01*
X161345414Y-123568677D01*
X161347905Y-123604195D01*
X161351098Y-123627617D01*
X161355071Y-123641160D01*
X161358628Y-123646185D01*
X161374836Y-123651836D01*
X161413128Y-123661413D01*
X161470600Y-123674303D01*
X161544344Y-123689890D01*
X161631455Y-123707562D01*
X161729028Y-123726704D01*
X161834155Y-123746702D01*
X161835147Y-123746888D01*
X161960352Y-123770748D01*
X162069097Y-123792315D01*
X162159789Y-123811239D01*
X162230837Y-123827172D01*
X162280650Y-123839767D01*
X162307634Y-123848674D01*
X162311675Y-123851122D01*
X162322073Y-123868823D01*
X162339852Y-123906693D01*
X162363572Y-123961080D01*
X162391793Y-124028335D01*
X162423076Y-124104806D01*
X162455979Y-124186842D01*
X162489065Y-124270793D01*
X162520893Y-124353008D01*
X162550023Y-124429837D01*
X162575015Y-124497627D01*
X162594431Y-124552730D01*
X162606829Y-124591494D01*
X162610800Y-124609607D01*
X162605416Y-124627799D01*
X162588808Y-124660424D01*
X162560296Y-124708567D01*
X162519199Y-124773312D01*
X162464836Y-124855743D01*
X162396527Y-124956945D01*
X162350450Y-125024377D01*
X162290670Y-125112100D01*
X162235724Y-125193780D01*
X162187230Y-125266934D01*
X162146805Y-125329077D01*
X162116065Y-125377724D01*
X162096627Y-125410391D01*
X162090100Y-125424446D01*
X162098826Y-125437654D01*
X162123710Y-125466638D01*
X162162815Y-125509354D01*
X162214202Y-125563755D01*
X162275931Y-125627795D01*
X162346066Y-125699428D01*
X162422667Y-125776608D01*
X162443497Y-125797424D01*
X162535654Y-125889085D01*
X162611663Y-125963978D01*
X162673094Y-126023535D01*
X162721520Y-126069187D01*
X162758510Y-126102363D01*
X162785638Y-126124494D01*
X162804475Y-126137010D01*
X162816591Y-126141342D01*
X162820771Y-126140831D01*
X162836556Y-126131679D01*
X162870660Y-126109799D01*
X162920511Y-126076908D01*
X162983538Y-126034726D01*
X163057169Y-125984973D01*
X163138833Y-125929368D01*
X163210828Y-125880034D01*
X163297211Y-125821178D01*
X163377840Y-125767210D01*
X163450131Y-125719784D01*
X163511502Y-125680554D01*
X163559371Y-125651177D01*
X163591154Y-125633307D01*
X163603500Y-125628400D01*
X163623712Y-125634142D01*
X163661519Y-125649944D01*
X163712235Y-125673667D01*
X163771173Y-125703171D01*
X163798250Y-125717300D01*
X163858592Y-125748539D01*
X163911973Y-125774976D01*
X163953942Y-125794497D01*
X163980049Y-125804988D01*
X163985462Y-125806200D01*
X164000896Y-125795105D01*
X164019883Y-125765817D01*
X164032276Y-125739525D01*
X164094415Y-125590563D01*
X164157140Y-125439703D01*
X164219691Y-125288804D01*
X164281309Y-125139727D01*
X164341233Y-124994330D01*
X164398705Y-124854475D01*
X164452964Y-124722021D01*
X164503250Y-124598828D01*
X164548805Y-124486755D01*
X164588868Y-124387662D01*
X164622679Y-124303410D01*
X164649480Y-124235858D01*
X164668509Y-124186866D01*
X164679008Y-124158295D01*
X164680900Y-124151624D01*
X164670875Y-124132758D01*
X164645368Y-124108905D01*
X164627790Y-124096591D01*
X164478806Y-123992158D01*
X164353510Y-123881273D01*
X164250629Y-123762170D01*
X164168887Y-123633085D01*
X164107011Y-123492251D01*
X164063724Y-123337906D01*
X164057490Y-123306876D01*
X164049185Y-123232975D01*
X164047849Y-123143728D01*
X164052957Y-123048058D01*
X164063980Y-122954886D01*
X164080392Y-122873135D01*
X164083886Y-122860291D01*
X164139957Y-122708433D01*
X164216489Y-122569859D01*
X164311467Y-122446089D01*
X164422875Y-122338646D01*
X164548699Y-122249050D01*
X164686922Y-122178824D01*
X164835530Y-122129489D01*
X164992507Y-122102568D01*
X165093650Y-122097799D01*
X165254823Y-122109987D01*
X165408883Y-122145537D01*
X165553812Y-122202925D01*
X165687598Y-122280632D01*
X165808224Y-122377134D01*
X165913675Y-122490911D01*
X166001936Y-122620440D01*
X166070992Y-122764200D01*
X166103415Y-122860291D01*
X166120743Y-122939031D01*
X166132777Y-123030802D01*
X166138991Y-123126681D01*
X166138858Y-123217747D01*
X166131848Y-123295076D01*
X166129811Y-123306876D01*
X166089916Y-123463991D01*
X166031673Y-123607259D01*
X165953807Y-123738442D01*
X165855045Y-123859308D01*
X165734110Y-123971620D01*
X165589729Y-124077144D01*
X165559511Y-124096591D01*
X165528549Y-124120196D01*
X165509408Y-124142608D01*
X165506400Y-124151624D01*
X165511157Y-124166430D01*
X165524922Y-124202823D01*
X165546934Y-124258944D01*
X165576434Y-124332932D01*
X165612662Y-124422928D01*
X165654859Y-124527071D01*
X165702264Y-124643503D01*
X165754119Y-124770362D01*
X165809663Y-124905789D01*
X165868137Y-125047925D01*
X165928781Y-125194910D01*
X165990834Y-125344883D01*
X166053539Y-125495984D01*
X166116134Y-125646355D01*
X166155025Y-125739525D01*
X166174053Y-125777514D01*
X166192298Y-125801251D01*
X166201839Y-125806200D01*
X166219285Y-125800501D01*
X166254612Y-125784814D01*
X166303369Y-125761252D01*
X166361105Y-125731928D01*
X166389050Y-125717300D01*
X166450108Y-125685944D01*
X166504984Y-125659438D01*
X166548994Y-125639920D01*
X166577453Y-125629529D01*
X166583801Y-125628400D01*
X166600178Y-125635396D01*
X166634797Y-125655280D01*
X166685074Y-125686399D01*
X166748427Y-125727096D01*
X166822273Y-125775717D01*
X166904030Y-125830607D01*
X166976473Y-125880034D01*
X167062849Y-125939188D01*
X167143325Y-125993917D01*
X167215330Y-126042501D01*
X167276292Y-126083220D01*
X167323640Y-126114355D01*
X167354803Y-126134187D01*
X167366530Y-126140831D01*
X167375764Y-126140201D01*
X167390898Y-126132134D01*
X167413503Y-126115199D01*
X167445150Y-126087966D01*
X167487412Y-126049003D01*
X167541860Y-125996881D01*
X167610066Y-125930170D01*
X167693600Y-125847438D01*
X167743804Y-125797424D01*
X167821775Y-125719132D01*
X167893785Y-125645853D01*
X167957897Y-125579633D01*
X168012172Y-125522517D01*
X168054671Y-125476552D01*
X168083456Y-125443784D01*
X168096589Y-125426258D01*
X168097200Y-125424446D01*
X168090229Y-125409593D01*
X168070392Y-125376357D01*
X168039306Y-125327224D01*
X167998588Y-125264678D01*
X167949855Y-125191202D01*
X167894723Y-125109282D01*
X167836850Y-125024377D01*
X167760175Y-124911838D01*
X167697840Y-124818696D01*
X167649164Y-124743868D01*
X167613466Y-124686269D01*
X167590065Y-124644813D01*
X167578281Y-124618417D01*
X167576500Y-124609607D01*
X167581153Y-124589144D01*
X167594149Y-124548976D01*
X167614051Y-124492754D01*
X167639418Y-124424128D01*
X167668810Y-124346749D01*
X167700787Y-124264267D01*
X167733910Y-124180334D01*
X167766740Y-124098600D01*
X167797835Y-124022716D01*
X167825757Y-123956333D01*
X167849066Y-123903102D01*
X167866322Y-123866673D01*
X167875626Y-123851122D01*
X167893056Y-123843783D01*
X167933949Y-123832618D01*
X167996713Y-123817975D01*
X168079756Y-123800203D01*
X168181487Y-123779650D01*
X168300314Y-123756663D01*
X168352154Y-123746888D01*
X168457337Y-123726885D01*
X168554992Y-123707733D01*
X168642212Y-123690044D01*
X168716093Y-123674435D01*
X168773727Y-123661517D01*
X168812209Y-123651907D01*
X168828633Y-123646217D01*
X168828673Y-123646185D01*
X168833284Y-123638625D01*
X168837057Y-123622858D01*
X168840071Y-123596667D01*
X168842401Y-123557834D01*
X168844125Y-123504142D01*
X168845319Y-123433375D01*
X168846061Y-123343315D01*
X168846427Y-123231745D01*
X168846501Y-123132044D01*
X168846184Y-122986808D01*
X168845229Y-122866570D01*
X168843624Y-122770933D01*
X168841358Y-122699503D01*
X168838421Y-122651885D01*
X168834804Y-122627683D01*
X168833012Y-122624362D01*
X168817868Y-122620225D01*
X168780567Y-122612052D01*
X168723934Y-122600402D01*
X168650791Y-122585839D01*
X168563965Y-122568922D01*
X168466277Y-122550215D01*
X168360552Y-122530277D01*
X168347237Y-122527787D01*
X168212632Y-122502322D01*
X168101697Y-122480612D01*
X168013032Y-122462346D01*
X167945233Y-122447212D01*
X167896901Y-122434898D01*
X167866632Y-122425092D01*
X167853415Y-122417899D01*
X167842118Y-122399860D01*
X167822962Y-122361975D01*
X167797543Y-122307974D01*
X167767453Y-122241585D01*
X167734286Y-122166539D01*
X167699636Y-122086566D01*
X167665098Y-122005394D01*
X167632264Y-121926754D01*
X167602729Y-121854375D01*
X167578087Y-121791987D01*
X167559931Y-121743320D01*
X167549856Y-121712102D01*
X167548340Y-121704030D01*
X167554962Y-121684397D01*
X167575587Y-121646213D01*
X167610440Y-121589124D01*
X167659744Y-121512778D01*
X167723723Y-121416821D01*
X167802601Y-121300899D01*
X167817922Y-121278580D01*
X167879178Y-121189068D01*
X167935904Y-121105456D01*
X167986468Y-121030204D01*
X168029236Y-120965773D01*
X168062578Y-120914622D01*
X168084860Y-120879213D01*
X168094450Y-120862006D01*
X168094631Y-120861449D01*
X168091530Y-120850346D01*
X168077800Y-120830035D01*
X168052281Y-120799254D01*
X168013809Y-120756741D01*
X167961223Y-120701236D01*
X167893362Y-120631475D01*
X167809062Y-120546198D01*
X167746675Y-120483624D01*
X167668408Y-120405660D01*
X167595443Y-120333633D01*
X167529782Y-120269471D01*
X167473427Y-120215100D01*
X167428380Y-120172447D01*
X167396643Y-120143441D01*
X167380218Y-120130008D01*
X167378631Y-120129300D01*
X167365383Y-120136270D01*
X167333622Y-120156132D01*
X167285717Y-120187314D01*
X167224033Y-120228243D01*
X167150939Y-120277346D01*
X167068800Y-120333053D01*
X166979985Y-120393789D01*
X166965796Y-120403537D01*
X166875363Y-120465476D01*
X166790565Y-120523128D01*
X166713892Y-120574829D01*
X166647835Y-120618921D01*
X166594884Y-120653740D01*
X166557530Y-120677627D01*
X166538263Y-120688919D01*
X166537267Y-120689356D01*
X166524191Y-120691215D01*
X166503323Y-120688374D01*
X166472138Y-120679974D01*
X166428116Y-120665155D01*
X166368733Y-120643060D01*
X166291466Y-120612829D01*
X166193794Y-120573603D01*
X166175317Y-120566116D01*
X166088079Y-120530299D01*
X166007787Y-120496519D01*
X165937696Y-120466208D01*
X165881061Y-120440801D01*
X165841136Y-120421732D01*
X165821175Y-120410435D01*
X165820284Y-120409677D01*
X165812815Y-120397125D01*
X165803808Y-120371295D01*
X165792856Y-120330370D01*
X165779552Y-120272531D01*
X165763488Y-120195962D01*
X165744257Y-120098844D01*
X165721452Y-119979359D01*
X165709159Y-119913755D01*
X165689338Y-119807227D01*
X165671065Y-119708541D01*
X165654850Y-119620485D01*
X165641202Y-119545844D01*
X165630630Y-119487405D01*
X165623643Y-119447952D01*
X165620750Y-119430274D01*
X165620700Y-119429682D01*
X165612678Y-119413843D01*
X165600743Y-119399957D01*
X165593062Y-119394806D01*
X165579741Y-119390608D01*
X165558384Y-119387270D01*
X165526596Y-119384696D01*
X165481983Y-119382794D01*
X165422149Y-119381467D01*
X165344700Y-119380624D01*
X165247239Y-119380168D01*
X165127372Y-119380005D01*
X165093650Y-119380000D01*
X164967813Y-119380103D01*
X164967813Y-119380103D01*
G37*
X164967813Y-119380103D02*
X164864979Y-119380477D01*
X164782755Y-119381215D01*
X164718745Y-119382412D01*
X164670554Y-119384162D01*
X164635787Y-119386559D01*
X164612049Y-119389697D01*
X164596945Y-119393671D01*
X164588079Y-119398575D01*
X164586558Y-119399957D01*
X164570605Y-119419606D01*
X164566600Y-119429136D01*
X164564348Y-119443284D01*
X164557929Y-119479617D01*
X164547853Y-119535357D01*
X164534627Y-119607723D01*
X164518760Y-119693934D01*
X164500761Y-119791212D01*
X164481137Y-119896775D01*
X164478059Y-119913293D01*
X164453355Y-120044403D01*
X164432418Y-120152255D01*
X164414846Y-120238647D01*
X164400237Y-120305377D01*
X164388189Y-120354241D01*
X164378299Y-120387038D01*
X164370165Y-120405565D01*
X164366934Y-120409760D01*
X164349584Y-120420017D01*
X164311881Y-120438217D01*
X164257080Y-120462928D01*
X164188434Y-120492717D01*
X164109196Y-120526150D01*
X164022619Y-120561795D01*
X164011984Y-120566116D01*
X163910658Y-120606927D01*
X163830159Y-120638601D01*
X163767965Y-120661995D01*
X163721553Y-120677969D01*
X163688400Y-120687381D01*
X163665984Y-120691091D01*
X163651782Y-120689957D01*
X163650034Y-120689356D01*
X163633154Y-120679720D01*
X163597882Y-120657287D01*
X163546707Y-120623718D01*
X163482122Y-120580673D01*
X163406615Y-120529815D01*
X163322679Y-120472803D01*
X163232803Y-120411299D01*
X163221505Y-120403537D01*
X163131868Y-120342163D01*
X163048542Y-120285575D01*
X162973893Y-120235347D01*
X162910289Y-120193050D01*
X162860096Y-120160257D01*
X162825683Y-120138540D01*
X162809414Y-120129472D01*
X162808670Y-120129300D01*
X162796918Y-120138000D01*
X162769290Y-120162816D01*
X162727788Y-120201821D01*
X162674415Y-120253088D01*
X162611172Y-120314688D01*
X162540061Y-120384696D01*
X162463084Y-120461182D01*
X162440626Y-120483624D01*
X162345319Y-120579376D01*
X162267187Y-120658812D01*
X162205066Y-120723195D01*
X162157795Y-120773785D01*
X162124212Y-120811846D01*
X162103154Y-120838638D01*
X162093460Y-120855423D01*
X162092670Y-120861449D01*
X162101074Y-120876949D01*
X162122313Y-120910866D01*
X162154753Y-120960740D01*
X162196763Y-121024109D01*
X162246711Y-121098514D01*
X162302964Y-121181494D01*
X162363889Y-121270588D01*
X162369379Y-121278580D01*
X162450882Y-121398024D01*
X162517447Y-121497442D01*
X162569298Y-121577189D01*
X162606658Y-121637615D01*
X162629753Y-121679075D01*
X162638804Y-121701923D01*
X162638961Y-121704030D01*
X162633691Y-121724756D01*
X162619517Y-121764862D01*
X162598032Y-121820617D01*
X162570829Y-121888293D01*
X162539503Y-121964160D01*
X162505647Y-122044487D01*
X162470856Y-122125546D01*
X162436723Y-122203607D01*
X162404842Y-122274940D01*
X162376807Y-122335815D01*
X162354212Y-122382503D01*
X162338651Y-122411275D01*
X162333886Y-122417899D01*
X162319280Y-122425637D01*
X162287923Y-122435591D01*
X162238415Y-122448072D01*
X162169353Y-122463393D01*
X162079336Y-122481865D01*
X161966963Y-122503801D01*
X161840064Y-122527787D01*
X161733551Y-122547837D01*
X161634731Y-122566724D01*
X161546428Y-122583889D01*
X161471465Y-122598770D01*
X161412666Y-122610805D01*
X161372854Y-122619433D01*
X161354855Y-122624093D01*
X161354289Y-122624362D01*
X161350371Y-122638488D01*
X161347139Y-122675858D01*
X161344583Y-122736868D01*
X161342691Y-122821912D01*
X161341454Y-122931386D01*
X161340860Y-123065685D01*
X161340800Y-123132044D01*
X161340934Y-123261300D01*
X161341385Y-123367374D01*
X161342231Y-123452483D01*
X161343548Y-123518845D01*
X161345414Y-123568677D01*
X161347905Y-123604195D01*
X161351098Y-123627617D01*
X161355071Y-123641160D01*
X161358628Y-123646185D01*
X161374836Y-123651836D01*
X161413128Y-123661413D01*
X161470600Y-123674303D01*
X161544344Y-123689890D01*
X161631455Y-123707562D01*
X161729028Y-123726704D01*
X161834155Y-123746702D01*
X161835147Y-123746888D01*
X161960352Y-123770748D01*
X162069097Y-123792315D01*
X162159789Y-123811239D01*
X162230837Y-123827172D01*
X162280650Y-123839767D01*
X162307634Y-123848674D01*
X162311675Y-123851122D01*
X162322073Y-123868823D01*
X162339852Y-123906693D01*
X162363572Y-123961080D01*
X162391793Y-124028335D01*
X162423076Y-124104806D01*
X162455979Y-124186842D01*
X162489065Y-124270793D01*
X162520893Y-124353008D01*
X162550023Y-124429837D01*
X162575015Y-124497627D01*
X162594431Y-124552730D01*
X162606829Y-124591494D01*
X162610800Y-124609607D01*
X162605416Y-124627799D01*
X162588808Y-124660424D01*
X162560296Y-124708567D01*
X162519199Y-124773312D01*
X162464836Y-124855743D01*
X162396527Y-124956945D01*
X162350450Y-125024377D01*
X162290670Y-125112100D01*
X162235724Y-125193780D01*
X162187230Y-125266934D01*
X162146805Y-125329077D01*
X162116065Y-125377724D01*
X162096627Y-125410391D01*
X162090100Y-125424446D01*
X162098826Y-125437654D01*
X162123710Y-125466638D01*
X162162815Y-125509354D01*
X162214202Y-125563755D01*
X162275931Y-125627795D01*
X162346066Y-125699428D01*
X162422667Y-125776608D01*
X162443497Y-125797424D01*
X162535654Y-125889085D01*
X162611663Y-125963978D01*
X162673094Y-126023535D01*
X162721520Y-126069187D01*
X162758510Y-126102363D01*
X162785638Y-126124494D01*
X162804475Y-126137010D01*
X162816591Y-126141342D01*
X162820771Y-126140831D01*
X162836556Y-126131679D01*
X162870660Y-126109799D01*
X162920511Y-126076908D01*
X162983538Y-126034726D01*
X163057169Y-125984973D01*
X163138833Y-125929368D01*
X163210828Y-125880034D01*
X163297211Y-125821178D01*
X163377840Y-125767210D01*
X163450131Y-125719784D01*
X163511502Y-125680554D01*
X163559371Y-125651177D01*
X163591154Y-125633307D01*
X163603500Y-125628400D01*
X163623712Y-125634142D01*
X163661519Y-125649944D01*
X163712235Y-125673667D01*
X163771173Y-125703171D01*
X163798250Y-125717300D01*
X163858592Y-125748539D01*
X163911973Y-125774976D01*
X163953942Y-125794497D01*
X163980049Y-125804988D01*
X163985462Y-125806200D01*
X164000896Y-125795105D01*
X164019883Y-125765817D01*
X164032276Y-125739525D01*
X164094415Y-125590563D01*
X164157140Y-125439703D01*
X164219691Y-125288804D01*
X164281309Y-125139727D01*
X164341233Y-124994330D01*
X164398705Y-124854475D01*
X164452964Y-124722021D01*
X164503250Y-124598828D01*
X164548805Y-124486755D01*
X164588868Y-124387662D01*
X164622679Y-124303410D01*
X164649480Y-124235858D01*
X164668509Y-124186866D01*
X164679008Y-124158295D01*
X164680900Y-124151624D01*
X164670875Y-124132758D01*
X164645368Y-124108905D01*
X164627790Y-124096591D01*
X164478806Y-123992158D01*
X164353510Y-123881273D01*
X164250629Y-123762170D01*
X164168887Y-123633085D01*
X164107011Y-123492251D01*
X164063724Y-123337906D01*
X164057490Y-123306876D01*
X164049185Y-123232975D01*
X164047849Y-123143728D01*
X164052957Y-123048058D01*
X164063980Y-122954886D01*
X164080392Y-122873135D01*
X164083886Y-122860291D01*
X164139957Y-122708433D01*
X164216489Y-122569859D01*
X164311467Y-122446089D01*
X164422875Y-122338646D01*
X164548699Y-122249050D01*
X164686922Y-122178824D01*
X164835530Y-122129489D01*
X164992507Y-122102568D01*
X165093650Y-122097799D01*
X165254823Y-122109987D01*
X165408883Y-122145537D01*
X165553812Y-122202925D01*
X165687598Y-122280632D01*
X165808224Y-122377134D01*
X165913675Y-122490911D01*
X166001936Y-122620440D01*
X166070992Y-122764200D01*
X166103415Y-122860291D01*
X166120743Y-122939031D01*
X166132777Y-123030802D01*
X166138991Y-123126681D01*
X166138858Y-123217747D01*
X166131848Y-123295076D01*
X166129811Y-123306876D01*
X166089916Y-123463991D01*
X166031673Y-123607259D01*
X165953807Y-123738442D01*
X165855045Y-123859308D01*
X165734110Y-123971620D01*
X165589729Y-124077144D01*
X165559511Y-124096591D01*
X165528549Y-124120196D01*
X165509408Y-124142608D01*
X165506400Y-124151624D01*
X165511157Y-124166430D01*
X165524922Y-124202823D01*
X165546934Y-124258944D01*
X165576434Y-124332932D01*
X165612662Y-124422928D01*
X165654859Y-124527071D01*
X165702264Y-124643503D01*
X165754119Y-124770362D01*
X165809663Y-124905789D01*
X165868137Y-125047925D01*
X165928781Y-125194910D01*
X165990834Y-125344883D01*
X166053539Y-125495984D01*
X166116134Y-125646355D01*
X166155025Y-125739525D01*
X166174053Y-125777514D01*
X166192298Y-125801251D01*
X166201839Y-125806200D01*
X166219285Y-125800501D01*
X166254612Y-125784814D01*
X166303369Y-125761252D01*
X166361105Y-125731928D01*
X166389050Y-125717300D01*
X166450108Y-125685944D01*
X166504984Y-125659438D01*
X166548994Y-125639920D01*
X166577453Y-125629529D01*
X166583801Y-125628400D01*
X166600178Y-125635396D01*
X166634797Y-125655280D01*
X166685074Y-125686399D01*
X166748427Y-125727096D01*
X166822273Y-125775717D01*
X166904030Y-125830607D01*
X166976473Y-125880034D01*
X167062849Y-125939188D01*
X167143325Y-125993917D01*
X167215330Y-126042501D01*
X167276292Y-126083220D01*
X167323640Y-126114355D01*
X167354803Y-126134187D01*
X167366530Y-126140831D01*
X167375764Y-126140201D01*
X167390898Y-126132134D01*
X167413503Y-126115199D01*
X167445150Y-126087966D01*
X167487412Y-126049003D01*
X167541860Y-125996881D01*
X167610066Y-125930170D01*
X167693600Y-125847438D01*
X167743804Y-125797424D01*
X167821775Y-125719132D01*
X167893785Y-125645853D01*
X167957897Y-125579633D01*
X168012172Y-125522517D01*
X168054671Y-125476552D01*
X168083456Y-125443784D01*
X168096589Y-125426258D01*
X168097200Y-125424446D01*
X168090229Y-125409593D01*
X168070392Y-125376357D01*
X168039306Y-125327224D01*
X167998588Y-125264678D01*
X167949855Y-125191202D01*
X167894723Y-125109282D01*
X167836850Y-125024377D01*
X167760175Y-124911838D01*
X167697840Y-124818696D01*
X167649164Y-124743868D01*
X167613466Y-124686269D01*
X167590065Y-124644813D01*
X167578281Y-124618417D01*
X167576500Y-124609607D01*
X167581153Y-124589144D01*
X167594149Y-124548976D01*
X167614051Y-124492754D01*
X167639418Y-124424128D01*
X167668810Y-124346749D01*
X167700787Y-124264267D01*
X167733910Y-124180334D01*
X167766740Y-124098600D01*
X167797835Y-124022716D01*
X167825757Y-123956333D01*
X167849066Y-123903102D01*
X167866322Y-123866673D01*
X167875626Y-123851122D01*
X167893056Y-123843783D01*
X167933949Y-123832618D01*
X167996713Y-123817975D01*
X168079756Y-123800203D01*
X168181487Y-123779650D01*
X168300314Y-123756663D01*
X168352154Y-123746888D01*
X168457337Y-123726885D01*
X168554992Y-123707733D01*
X168642212Y-123690044D01*
X168716093Y-123674435D01*
X168773727Y-123661517D01*
X168812209Y-123651907D01*
X168828633Y-123646217D01*
X168828673Y-123646185D01*
X168833284Y-123638625D01*
X168837057Y-123622858D01*
X168840071Y-123596667D01*
X168842401Y-123557834D01*
X168844125Y-123504142D01*
X168845319Y-123433375D01*
X168846061Y-123343315D01*
X168846427Y-123231745D01*
X168846501Y-123132044D01*
X168846184Y-122986808D01*
X168845229Y-122866570D01*
X168843624Y-122770933D01*
X168841358Y-122699503D01*
X168838421Y-122651885D01*
X168834804Y-122627683D01*
X168833012Y-122624362D01*
X168817868Y-122620225D01*
X168780567Y-122612052D01*
X168723934Y-122600402D01*
X168650791Y-122585839D01*
X168563965Y-122568922D01*
X168466277Y-122550215D01*
X168360552Y-122530277D01*
X168347237Y-122527787D01*
X168212632Y-122502322D01*
X168101697Y-122480612D01*
X168013032Y-122462346D01*
X167945233Y-122447212D01*
X167896901Y-122434898D01*
X167866632Y-122425092D01*
X167853415Y-122417899D01*
X167842118Y-122399860D01*
X167822962Y-122361975D01*
X167797543Y-122307974D01*
X167767453Y-122241585D01*
X167734286Y-122166539D01*
X167699636Y-122086566D01*
X167665098Y-122005394D01*
X167632264Y-121926754D01*
X167602729Y-121854375D01*
X167578087Y-121791987D01*
X167559931Y-121743320D01*
X167549856Y-121712102D01*
X167548340Y-121704030D01*
X167554962Y-121684397D01*
X167575587Y-121646213D01*
X167610440Y-121589124D01*
X167659744Y-121512778D01*
X167723723Y-121416821D01*
X167802601Y-121300899D01*
X167817922Y-121278580D01*
X167879178Y-121189068D01*
X167935904Y-121105456D01*
X167986468Y-121030204D01*
X168029236Y-120965773D01*
X168062578Y-120914622D01*
X168084860Y-120879213D01*
X168094450Y-120862006D01*
X168094631Y-120861449D01*
X168091530Y-120850346D01*
X168077800Y-120830035D01*
X168052281Y-120799254D01*
X168013809Y-120756741D01*
X167961223Y-120701236D01*
X167893362Y-120631475D01*
X167809062Y-120546198D01*
X167746675Y-120483624D01*
X167668408Y-120405660D01*
X167595443Y-120333633D01*
X167529782Y-120269471D01*
X167473427Y-120215100D01*
X167428380Y-120172447D01*
X167396643Y-120143441D01*
X167380218Y-120130008D01*
X167378631Y-120129300D01*
X167365383Y-120136270D01*
X167333622Y-120156132D01*
X167285717Y-120187314D01*
X167224033Y-120228243D01*
X167150939Y-120277346D01*
X167068800Y-120333053D01*
X166979985Y-120393789D01*
X166965796Y-120403537D01*
X166875363Y-120465476D01*
X166790565Y-120523128D01*
X166713892Y-120574829D01*
X166647835Y-120618921D01*
X166594884Y-120653740D01*
X166557530Y-120677627D01*
X166538263Y-120688919D01*
X166537267Y-120689356D01*
X166524191Y-120691215D01*
X166503323Y-120688374D01*
X166472138Y-120679974D01*
X166428116Y-120665155D01*
X166368733Y-120643060D01*
X166291466Y-120612829D01*
X166193794Y-120573603D01*
X166175317Y-120566116D01*
X166088079Y-120530299D01*
X166007787Y-120496519D01*
X165937696Y-120466208D01*
X165881061Y-120440801D01*
X165841136Y-120421732D01*
X165821175Y-120410435D01*
X165820284Y-120409677D01*
X165812815Y-120397125D01*
X165803808Y-120371295D01*
X165792856Y-120330370D01*
X165779552Y-120272531D01*
X165763488Y-120195962D01*
X165744257Y-120098844D01*
X165721452Y-119979359D01*
X165709159Y-119913755D01*
X165689338Y-119807227D01*
X165671065Y-119708541D01*
X165654850Y-119620485D01*
X165641202Y-119545844D01*
X165630630Y-119487405D01*
X165623643Y-119447952D01*
X165620750Y-119430274D01*
X165620700Y-119429682D01*
X165612678Y-119413843D01*
X165600743Y-119399957D01*
X165593062Y-119394806D01*
X165579741Y-119390608D01*
X165558384Y-119387270D01*
X165526596Y-119384696D01*
X165481983Y-119382794D01*
X165422149Y-119381467D01*
X165344700Y-119380624D01*
X165247239Y-119380168D01*
X165127372Y-119380005D01*
X165093650Y-119380000D01*
X164967813Y-119380103D01*
G36*
X162085090Y-126927198D02*
G01*
X162023347Y-126947619D01*
X162006864Y-126955329D01*
X161937229Y-126989399D01*
X161974630Y-127035974D01*
X162007730Y-127076619D01*
X162042411Y-127118383D01*
X162049241Y-127126481D01*
X162086451Y-127170412D01*
X162123201Y-127146292D01*
X162178164Y-127124361D01*
X162239094Y-127122723D01*
X162299351Y-127139621D01*
X162352291Y-127173299D01*
X162388101Y-127216349D01*
X162395914Y-127231211D01*
X162402053Y-127248211D01*
X162406771Y-127270571D01*
X162410320Y-127301514D01*
X162412954Y-127344262D01*
X162414925Y-127402037D01*
X162416486Y-127478063D01*
X162417890Y-127575560D01*
X162418201Y-127600075D01*
X162422451Y-127939800D01*
X162517024Y-127939800D01*
X162574559Y-127937736D01*
X162607951Y-127931448D01*
X162617703Y-127923889D01*
X162618980Y-127908012D01*
X162619996Y-127869596D01*
X162620736Y-127811502D01*
X162621183Y-127736590D01*
X162621322Y-127647721D01*
X162621138Y-127547754D01*
X162620613Y-127439550D01*
X162620479Y-127419064D01*
X162617150Y-126930150D01*
X162518725Y-126926440D01*
X162420300Y-126922731D01*
X162420300Y-126974065D01*
X162417412Y-127010760D01*
X162407631Y-127023640D01*
X162389290Y-127013750D01*
X162376913Y-127001174D01*
X162337310Y-126971137D01*
X162281011Y-126945766D01*
X162216668Y-126928122D01*
X162152935Y-126921267D01*
X162151019Y-126921259D01*
X162085090Y-126927198D01*
X162085090Y-126927198D01*
G37*
X162085090Y-126927198D02*
X162023347Y-126947619D01*
X162006864Y-126955329D01*
X161937229Y-126989399D01*
X161974630Y-127035974D01*
X162007730Y-127076619D01*
X162042411Y-127118383D01*
X162049241Y-127126481D01*
X162086451Y-127170412D01*
X162123201Y-127146292D01*
X162178164Y-127124361D01*
X162239094Y-127122723D01*
X162299351Y-127139621D01*
X162352291Y-127173299D01*
X162388101Y-127216349D01*
X162395914Y-127231211D01*
X162402053Y-127248211D01*
X162406771Y-127270571D01*
X162410320Y-127301514D01*
X162412954Y-127344262D01*
X162414925Y-127402037D01*
X162416486Y-127478063D01*
X162417890Y-127575560D01*
X162418201Y-127600075D01*
X162422451Y-127939800D01*
X162517024Y-127939800D01*
X162574559Y-127937736D01*
X162607951Y-127931448D01*
X162617703Y-127923889D01*
X162618980Y-127908012D01*
X162619996Y-127869596D01*
X162620736Y-127811502D01*
X162621183Y-127736590D01*
X162621322Y-127647721D01*
X162621138Y-127547754D01*
X162620613Y-127439550D01*
X162620479Y-127419064D01*
X162617150Y-126930150D01*
X162518725Y-126926440D01*
X162420300Y-126922731D01*
X162420300Y-126974065D01*
X162417412Y-127010760D01*
X162407631Y-127023640D01*
X162389290Y-127013750D01*
X162376913Y-127001174D01*
X162337310Y-126971137D01*
X162281011Y-126945766D01*
X162216668Y-126928122D01*
X162152935Y-126921267D01*
X162151019Y-126921259D01*
X162085090Y-126927198D01*
G36*
X166423906Y-126932528D02*
G01*
X166341307Y-126965585D01*
X166271480Y-127018548D01*
X166217686Y-127089371D01*
X166203527Y-127117382D01*
X166194928Y-127137286D01*
X166188151Y-127156446D01*
X166182977Y-127178061D01*
X166179188Y-127205329D01*
X166176565Y-127241449D01*
X166174889Y-127289619D01*
X166173943Y-127353039D01*
X166173506Y-127434908D01*
X166173360Y-127538423D01*
X166173349Y-127558800D01*
X166173150Y-127933450D01*
X166368122Y-127940834D01*
X166372236Y-127606942D01*
X166373611Y-127505235D01*
X166375106Y-127425603D01*
X166376987Y-127364719D01*
X166379521Y-127319258D01*
X166382972Y-127285895D01*
X166387608Y-127261303D01*
X166393693Y-127242157D01*
X166401494Y-127225132D01*
X166402989Y-127222250D01*
X166442658Y-127171027D01*
X166494950Y-127137842D01*
X166554511Y-127122786D01*
X166615986Y-127125952D01*
X166674023Y-127147432D01*
X166723266Y-127187320D01*
X166744201Y-127216349D01*
X166752011Y-127231191D01*
X166758142Y-127248137D01*
X166762845Y-127270410D01*
X166766369Y-127301232D01*
X166768964Y-127343825D01*
X166770882Y-127401413D01*
X166772371Y-127477217D01*
X166773682Y-127574461D01*
X166773983Y-127600075D01*
X166777915Y-127939800D01*
X166979600Y-127939800D01*
X166979600Y-126923800D01*
X166776400Y-126923800D01*
X166776400Y-127040731D01*
X166729699Y-126999726D01*
X166667846Y-126955294D01*
X166602242Y-126930291D01*
X166524182Y-126921525D01*
X166516015Y-126921423D01*
X166423906Y-126932528D01*
X166423906Y-126932528D01*
G37*
X166423906Y-126932528D02*
X166341307Y-126965585D01*
X166271480Y-127018548D01*
X166217686Y-127089371D01*
X166203527Y-127117382D01*
X166194928Y-127137286D01*
X166188151Y-127156446D01*
X166182977Y-127178061D01*
X166179188Y-127205329D01*
X166176565Y-127241449D01*
X166174889Y-127289619D01*
X166173943Y-127353039D01*
X166173506Y-127434908D01*
X166173360Y-127538423D01*
X166173349Y-127558800D01*
X166173150Y-127933450D01*
X166368122Y-127940834D01*
X166372236Y-127606942D01*
X166373611Y-127505235D01*
X166375106Y-127425603D01*
X166376987Y-127364719D01*
X166379521Y-127319258D01*
X166382972Y-127285895D01*
X166387608Y-127261303D01*
X166393693Y-127242157D01*
X166401494Y-127225132D01*
X166402989Y-127222250D01*
X166442658Y-127171027D01*
X166494950Y-127137842D01*
X166554511Y-127122786D01*
X166615986Y-127125952D01*
X166674023Y-127147432D01*
X166723266Y-127187320D01*
X166744201Y-127216349D01*
X166752011Y-127231191D01*
X166758142Y-127248137D01*
X166762845Y-127270410D01*
X166766369Y-127301232D01*
X166768964Y-127343825D01*
X166770882Y-127401413D01*
X166772371Y-127477217D01*
X166773682Y-127574461D01*
X166773983Y-127600075D01*
X166777915Y-127939800D01*
X166979600Y-127939800D01*
X166979600Y-126923800D01*
X166776400Y-126923800D01*
X166776400Y-127040731D01*
X166729699Y-126999726D01*
X166667846Y-126955294D01*
X166602242Y-126930291D01*
X166524182Y-126921525D01*
X166516015Y-126921423D01*
X166423906Y-126932528D01*
G36*
X160541952Y-126941569D02*
G01*
X160455082Y-126982000D01*
X160401516Y-127020565D01*
X160340123Y-127088785D01*
X160296283Y-127175345D01*
X160270005Y-127280217D01*
X160261300Y-127402718D01*
X160261300Y-127508000D01*
X160886904Y-127508000D01*
X160880299Y-127566600D01*
X160861540Y-127632780D01*
X160824214Y-127686002D01*
X160772328Y-127724955D01*
X160709887Y-127748326D01*
X160640898Y-127754805D01*
X160569367Y-127743078D01*
X160499299Y-127711835D01*
X160478671Y-127698105D01*
X160428056Y-127661439D01*
X160357378Y-127719625D01*
X160322766Y-127749338D01*
X160297572Y-127773288D01*
X160286793Y-127786695D01*
X160286700Y-127787256D01*
X160295946Y-127799524D01*
X160319901Y-127821615D01*
X160345607Y-127842595D01*
X160437899Y-127898704D01*
X160541223Y-127932743D01*
X160652974Y-127944069D01*
X160733860Y-127938274D01*
X160832822Y-127913367D01*
X160915979Y-127868767D01*
X160983031Y-127804900D01*
X161033678Y-127722192D01*
X161067619Y-127621069D01*
X161084553Y-127501956D01*
X161086553Y-127438150D01*
X161082698Y-127342900D01*
X160883600Y-127342900D01*
X160464500Y-127342900D01*
X160464500Y-127313840D01*
X160472495Y-127276209D01*
X160492893Y-127230299D01*
X160520315Y-127185970D01*
X160549381Y-127153078D01*
X160554383Y-127149125D01*
X160614873Y-127119900D01*
X160683297Y-127110787D01*
X160751944Y-127121890D01*
X160802401Y-127145767D01*
X160831957Y-127175847D01*
X160858704Y-127220875D01*
X160877482Y-127270508D01*
X160883322Y-127307975D01*
X160883600Y-127342900D01*
X161082698Y-127342900D01*
X161082430Y-127336297D01*
X161069054Y-127251095D01*
X161044765Y-127174957D01*
X161015845Y-127114521D01*
X160961371Y-127039114D01*
X160892060Y-126981569D01*
X160811688Y-126942465D01*
X160724030Y-126922379D01*
X160632859Y-126921888D01*
X160541952Y-126941569D01*
X160541952Y-126941569D01*
G37*
X160541952Y-126941569D02*
X160455082Y-126982000D01*
X160401516Y-127020565D01*
X160340123Y-127088785D01*
X160296283Y-127175345D01*
X160270005Y-127280217D01*
X160261300Y-127402718D01*
X160261300Y-127508000D01*
X160886904Y-127508000D01*
X160880299Y-127566600D01*
X160861540Y-127632780D01*
X160824214Y-127686002D01*
X160772328Y-127724955D01*
X160709887Y-127748326D01*
X160640898Y-127754805D01*
X160569367Y-127743078D01*
X160499299Y-127711835D01*
X160478671Y-127698105D01*
X160428056Y-127661439D01*
X160357378Y-127719625D01*
X160322766Y-127749338D01*
X160297572Y-127773288D01*
X160286793Y-127786695D01*
X160286700Y-127787256D01*
X160295946Y-127799524D01*
X160319901Y-127821615D01*
X160345607Y-127842595D01*
X160437899Y-127898704D01*
X160541223Y-127932743D01*
X160652974Y-127944069D01*
X160733860Y-127938274D01*
X160832822Y-127913367D01*
X160915979Y-127868767D01*
X160983031Y-127804900D01*
X161033678Y-127722192D01*
X161067619Y-127621069D01*
X161084553Y-127501956D01*
X161086553Y-127438150D01*
X161082698Y-127342900D01*
X160883600Y-127342900D01*
X160464500Y-127342900D01*
X160464500Y-127313840D01*
X160472495Y-127276209D01*
X160492893Y-127230299D01*
X160520315Y-127185970D01*
X160549381Y-127153078D01*
X160554383Y-127149125D01*
X160614873Y-127119900D01*
X160683297Y-127110787D01*
X160751944Y-127121890D01*
X160802401Y-127145767D01*
X160831957Y-127175847D01*
X160858704Y-127220875D01*
X160877482Y-127270508D01*
X160883322Y-127307975D01*
X160883600Y-127342900D01*
X161082698Y-127342900D01*
X161082430Y-127336297D01*
X161069054Y-127251095D01*
X161044765Y-127174957D01*
X161015845Y-127114521D01*
X160961371Y-127039114D01*
X160892060Y-126981569D01*
X160811688Y-126942465D01*
X160724030Y-126922379D01*
X160632859Y-126921888D01*
X160541952Y-126941569D01*
G36*
X161374529Y-126938011D02*
G01*
X161284763Y-126975052D01*
X161258250Y-126991285D01*
X161222115Y-127017792D01*
X161188199Y-127046483D01*
X161162375Y-127071974D01*
X161150513Y-127088880D01*
X161150300Y-127090294D01*
X161159275Y-127102563D01*
X161182895Y-127126079D01*
X161216204Y-127155931D01*
X161218993Y-127158322D01*
X161287686Y-127217008D01*
X161343683Y-127177537D01*
X161419919Y-127137613D01*
X161498994Y-127122126D01*
X161578171Y-127131231D01*
X161647037Y-127160452D01*
X161692066Y-127200562D01*
X161725822Y-127258332D01*
X161747995Y-127328508D01*
X161758275Y-127405836D01*
X161756351Y-127485064D01*
X161741914Y-127560938D01*
X161714652Y-127628206D01*
X161677626Y-127678327D01*
X161619253Y-127719738D01*
X161550756Y-127740339D01*
X161476726Y-127740024D01*
X161401751Y-127718687D01*
X161343683Y-127686062D01*
X161287686Y-127646591D01*
X161218993Y-127705277D01*
X161185150Y-127735411D01*
X161160619Y-127759581D01*
X161150357Y-127772878D01*
X161150300Y-127773305D01*
X161158805Y-127787210D01*
X161179801Y-127809634D01*
X161185225Y-127814730D01*
X161275198Y-127881993D01*
X161372282Y-127924879D01*
X161476805Y-127943492D01*
X161584640Y-127938589D01*
X161683404Y-127912470D01*
X161769186Y-127865257D01*
X161840685Y-127798409D01*
X161896600Y-127713387D01*
X161935630Y-127611651D01*
X161953061Y-127525094D01*
X161958675Y-127413763D01*
X161946861Y-127304525D01*
X161918995Y-127202560D01*
X161876455Y-127113046D01*
X161825912Y-127046527D01*
X161751920Y-126987279D01*
X161664799Y-126946318D01*
X161569535Y-126924130D01*
X161471115Y-126921199D01*
X161374529Y-126938011D01*
X161374529Y-126938011D01*
G37*
X161374529Y-126938011D02*
X161284763Y-126975052D01*
X161258250Y-126991285D01*
X161222115Y-127017792D01*
X161188199Y-127046483D01*
X161162375Y-127071974D01*
X161150513Y-127088880D01*
X161150300Y-127090294D01*
X161159275Y-127102563D01*
X161182895Y-127126079D01*
X161216204Y-127155931D01*
X161218993Y-127158322D01*
X161287686Y-127217008D01*
X161343683Y-127177537D01*
X161419919Y-127137613D01*
X161498994Y-127122126D01*
X161578171Y-127131231D01*
X161647037Y-127160452D01*
X161692066Y-127200562D01*
X161725822Y-127258332D01*
X161747995Y-127328508D01*
X161758275Y-127405836D01*
X161756351Y-127485064D01*
X161741914Y-127560938D01*
X161714652Y-127628206D01*
X161677626Y-127678327D01*
X161619253Y-127719738D01*
X161550756Y-127740339D01*
X161476726Y-127740024D01*
X161401751Y-127718687D01*
X161343683Y-127686062D01*
X161287686Y-127646591D01*
X161218993Y-127705277D01*
X161185150Y-127735411D01*
X161160619Y-127759581D01*
X161150357Y-127772878D01*
X161150300Y-127773305D01*
X161158805Y-127787210D01*
X161179801Y-127809634D01*
X161185225Y-127814730D01*
X161275198Y-127881993D01*
X161372282Y-127924879D01*
X161476805Y-127943492D01*
X161584640Y-127938589D01*
X161683404Y-127912470D01*
X161769186Y-127865257D01*
X161840685Y-127798409D01*
X161896600Y-127713387D01*
X161935630Y-127611651D01*
X161953061Y-127525094D01*
X161958675Y-127413763D01*
X161946861Y-127304525D01*
X161918995Y-127202560D01*
X161876455Y-127113046D01*
X161825912Y-127046527D01*
X161751920Y-126987279D01*
X161664799Y-126946318D01*
X161569535Y-126924130D01*
X161471115Y-126921199D01*
X161374529Y-126938011D01*
G36*
X163541075Y-126926440D02*
G01*
X163442650Y-126930150D01*
X163436300Y-127273050D01*
X163434080Y-127383326D01*
X163431561Y-127471194D01*
X163428151Y-127539642D01*
X163423256Y-127591659D01*
X163416284Y-127630234D01*
X163406642Y-127658357D01*
X163393739Y-127679017D01*
X163376981Y-127695202D01*
X163355775Y-127709903D01*
X163348834Y-127714238D01*
X163302252Y-127734526D01*
X163245675Y-127741097D01*
X163235727Y-127741068D01*
X163173555Y-127733070D01*
X163126186Y-127708714D01*
X163087990Y-127664365D01*
X163071175Y-127634740D01*
X163062459Y-127616649D01*
X163055721Y-127598423D01*
X163050707Y-127576654D01*
X163047164Y-127547932D01*
X163044837Y-127508848D01*
X163043472Y-127455992D01*
X163042815Y-127385957D01*
X163042612Y-127295332D01*
X163042600Y-127251309D01*
X163042600Y-126923800D01*
X162839400Y-126923800D01*
X162839400Y-127939800D01*
X163042600Y-127939800D01*
X163042600Y-127822544D01*
X163091741Y-127866939D01*
X163161994Y-127913771D01*
X163243854Y-127939535D01*
X163333334Y-127943215D01*
X163370937Y-127938170D01*
X163438515Y-127916696D01*
X163504018Y-127880333D01*
X163557270Y-127835093D01*
X163568971Y-127821169D01*
X163588097Y-127794678D01*
X163603429Y-127768627D01*
X163615381Y-127739918D01*
X163624372Y-127705449D01*
X163630817Y-127662119D01*
X163635134Y-127606828D01*
X163637739Y-127536475D01*
X163639049Y-127447960D01*
X163639480Y-127338181D01*
X163639500Y-127296319D01*
X163639500Y-126922731D01*
X163541075Y-126926440D01*
X163541075Y-126926440D01*
G37*
X163541075Y-126926440D02*
X163442650Y-126930150D01*
X163436300Y-127273050D01*
X163434080Y-127383326D01*
X163431561Y-127471194D01*
X163428151Y-127539642D01*
X163423256Y-127591659D01*
X163416284Y-127630234D01*
X163406642Y-127658357D01*
X163393739Y-127679017D01*
X163376981Y-127695202D01*
X163355775Y-127709903D01*
X163348834Y-127714238D01*
X163302252Y-127734526D01*
X163245675Y-127741097D01*
X163235727Y-127741068D01*
X163173555Y-127733070D01*
X163126186Y-127708714D01*
X163087990Y-127664365D01*
X163071175Y-127634740D01*
X163062459Y-127616649D01*
X163055721Y-127598423D01*
X163050707Y-127576654D01*
X163047164Y-127547932D01*
X163044837Y-127508848D01*
X163043472Y-127455992D01*
X163042815Y-127385957D01*
X163042612Y-127295332D01*
X163042600Y-127251309D01*
X163042600Y-126923800D01*
X162839400Y-126923800D01*
X162839400Y-127939800D01*
X163042600Y-127939800D01*
X163042600Y-127822544D01*
X163091741Y-127866939D01*
X163161994Y-127913771D01*
X163243854Y-127939535D01*
X163333334Y-127943215D01*
X163370937Y-127938170D01*
X163438515Y-127916696D01*
X163504018Y-127880333D01*
X163557270Y-127835093D01*
X163568971Y-127821169D01*
X163588097Y-127794678D01*
X163603429Y-127768627D01*
X163615381Y-127739918D01*
X163624372Y-127705449D01*
X163630817Y-127662119D01*
X163635134Y-127606828D01*
X163637739Y-127536475D01*
X163639049Y-127447960D01*
X163639480Y-127338181D01*
X163639500Y-127296319D01*
X163639500Y-126922731D01*
X163541075Y-126926440D01*
G36*
X164149498Y-126926483D02*
G01*
X164070442Y-126948052D01*
X164000686Y-126987431D01*
X163943783Y-127036958D01*
X163901227Y-127084110D01*
X163869682Y-127131213D01*
X163847650Y-127183183D01*
X163833636Y-127244937D01*
X163826145Y-127321393D01*
X163823680Y-127417465D01*
X163823650Y-127431800D01*
X163825567Y-127530814D01*
X163832313Y-127609565D01*
X163845384Y-127672969D01*
X163866278Y-127725944D01*
X163896488Y-127773405D01*
X163937513Y-127820271D01*
X163943783Y-127826641D01*
X164020329Y-127888248D01*
X164105599Y-127927091D01*
X164201411Y-127943732D01*
X164308018Y-127938944D01*
X164397012Y-127914721D01*
X164478407Y-127868823D01*
X164547719Y-127804784D01*
X164600465Y-127726136D01*
X164613097Y-127698500D01*
X164622184Y-127672183D01*
X164628640Y-127641690D01*
X164632877Y-127602335D01*
X164635305Y-127549434D01*
X164636333Y-127478302D01*
X164636450Y-127431800D01*
X164439600Y-127431800D01*
X164438930Y-127503012D01*
X164436506Y-127554203D01*
X164431708Y-127590725D01*
X164423916Y-127617932D01*
X164416087Y-127634789D01*
X164372937Y-127690968D01*
X164316299Y-127726913D01*
X164249254Y-127741641D01*
X164174882Y-127734170D01*
X164139219Y-127723069D01*
X164091472Y-127693213D01*
X164056255Y-127643811D01*
X164033193Y-127573934D01*
X164021912Y-127482656D01*
X164020571Y-127429351D01*
X164023575Y-127346816D01*
X164033471Y-127283371D01*
X164051775Y-127233281D01*
X164080000Y-127190811D01*
X164085201Y-127184723D01*
X164134154Y-127146955D01*
X164195031Y-127126528D01*
X164260652Y-127124047D01*
X164323834Y-127140117D01*
X164361129Y-127161490D01*
X164391739Y-127188865D01*
X164413527Y-127221100D01*
X164427829Y-127262794D01*
X164435979Y-127318546D01*
X164439315Y-127392955D01*
X164439600Y-127431800D01*
X164636450Y-127431800D01*
X164635996Y-127349153D01*
X164634358Y-127287210D01*
X164631128Y-127241287D01*
X164625894Y-127206698D01*
X164618248Y-127178760D01*
X164613097Y-127165100D01*
X164565039Y-127079411D01*
X164499073Y-127010068D01*
X164418287Y-126959117D01*
X164325769Y-126928608D01*
X164244133Y-126920285D01*
X164149498Y-126926483D01*
X164149498Y-126926483D01*
G37*
X164149498Y-126926483D02*
X164070442Y-126948052D01*
X164000686Y-126987431D01*
X163943783Y-127036958D01*
X163901227Y-127084110D01*
X163869682Y-127131213D01*
X163847650Y-127183183D01*
X163833636Y-127244937D01*
X163826145Y-127321393D01*
X163823680Y-127417465D01*
X163823650Y-127431800D01*
X163825567Y-127530814D01*
X163832313Y-127609565D01*
X163845384Y-127672969D01*
X163866278Y-127725944D01*
X163896488Y-127773405D01*
X163937513Y-127820271D01*
X163943783Y-127826641D01*
X164020329Y-127888248D01*
X164105599Y-127927091D01*
X164201411Y-127943732D01*
X164308018Y-127938944D01*
X164397012Y-127914721D01*
X164478407Y-127868823D01*
X164547719Y-127804784D01*
X164600465Y-127726136D01*
X164613097Y-127698500D01*
X164622184Y-127672183D01*
X164628640Y-127641690D01*
X164632877Y-127602335D01*
X164635305Y-127549434D01*
X164636333Y-127478302D01*
X164636450Y-127431800D01*
X164439600Y-127431800D01*
X164438930Y-127503012D01*
X164436506Y-127554203D01*
X164431708Y-127590725D01*
X164423916Y-127617932D01*
X164416087Y-127634789D01*
X164372937Y-127690968D01*
X164316299Y-127726913D01*
X164249254Y-127741641D01*
X164174882Y-127734170D01*
X164139219Y-127723069D01*
X164091472Y-127693213D01*
X164056255Y-127643811D01*
X164033193Y-127573934D01*
X164021912Y-127482656D01*
X164020571Y-127429351D01*
X164023575Y-127346816D01*
X164033471Y-127283371D01*
X164051775Y-127233281D01*
X164080000Y-127190811D01*
X164085201Y-127184723D01*
X164134154Y-127146955D01*
X164195031Y-127126528D01*
X164260652Y-127124047D01*
X164323834Y-127140117D01*
X164361129Y-127161490D01*
X164391739Y-127188865D01*
X164413527Y-127221100D01*
X164427829Y-127262794D01*
X164435979Y-127318546D01*
X164439315Y-127392955D01*
X164439600Y-127431800D01*
X164636450Y-127431800D01*
X164635996Y-127349153D01*
X164634358Y-127287210D01*
X164631128Y-127241287D01*
X164625894Y-127206698D01*
X164618248Y-127178760D01*
X164613097Y-127165100D01*
X164565039Y-127079411D01*
X164499073Y-127010068D01*
X164418287Y-126959117D01*
X164325769Y-126928608D01*
X164244133Y-126920285D01*
X164149498Y-126926483D01*
G36*
X165125437Y-126924272D02*
G01*
X165054407Y-126931129D01*
X165000405Y-126941699D01*
X164962194Y-126954971D01*
X164917572Y-126974615D01*
X164872550Y-126997399D01*
X164833141Y-127020091D01*
X164805357Y-127039459D01*
X164795200Y-127052024D01*
X164802713Y-127065365D01*
X164822487Y-127092439D01*
X164850373Y-127127592D01*
X164852731Y-127130463D01*
X164910261Y-127200345D01*
X164976794Y-127164309D01*
X165047318Y-127133685D01*
X165118338Y-127116182D01*
X165186130Y-127111177D01*
X165246973Y-127118047D01*
X165297144Y-127136171D01*
X165332921Y-127164925D01*
X165350581Y-127203688D01*
X165351427Y-127226941D01*
X165344599Y-127260033D01*
X165328380Y-127284793D01*
X165299341Y-127302849D01*
X165254053Y-127315831D01*
X165189089Y-127325366D01*
X165133207Y-127330609D01*
X165042077Y-127340416D01*
X164971460Y-127354125D01*
X164916571Y-127373351D01*
X164872628Y-127399708D01*
X164839557Y-127429718D01*
X164803211Y-127477931D01*
X164781409Y-127533175D01*
X164771742Y-127602554D01*
X164770767Y-127632455D01*
X164776429Y-127706142D01*
X164797663Y-127766568D01*
X164837825Y-127822739D01*
X164844275Y-127829838D01*
X164903591Y-127876952D01*
X164980999Y-127912802D01*
X165071193Y-127936004D01*
X165168868Y-127945176D01*
X165265100Y-127939450D01*
X165373296Y-127914405D01*
X165476393Y-127871688D01*
X165565964Y-127814937D01*
X165579847Y-127803640D01*
X165621544Y-127768315D01*
X165485336Y-127633799D01*
X165418754Y-127678606D01*
X165343121Y-127720852D01*
X165265943Y-127744354D01*
X165177373Y-127752016D01*
X165169850Y-127752033D01*
X165088865Y-127745319D01*
X165028932Y-127725836D01*
X164990463Y-127693826D01*
X164973874Y-127649534D01*
X164973195Y-127636206D01*
X164975846Y-127601134D01*
X164985753Y-127574988D01*
X165006361Y-127555935D01*
X165041113Y-127542144D01*
X165093453Y-127531781D01*
X165166826Y-127523014D01*
X165190236Y-127520726D01*
X165301399Y-127504577D01*
X165390220Y-127478696D01*
X165458268Y-127441910D01*
X165507114Y-127393049D01*
X165538329Y-127330942D01*
X165553483Y-127254419D01*
X165553895Y-127249601D01*
X165556256Y-127199050D01*
X165552028Y-127161015D01*
X165538929Y-127122981D01*
X165525602Y-127094421D01*
X165477923Y-127025116D01*
X165411399Y-126971860D01*
X165328081Y-126936268D01*
X165322446Y-126934689D01*
X165268921Y-126925846D01*
X165200097Y-126922442D01*
X165125437Y-126924272D01*
X165125437Y-126924272D01*
G37*
X165125437Y-126924272D02*
X165054407Y-126931129D01*
X165000405Y-126941699D01*
X164962194Y-126954971D01*
X164917572Y-126974615D01*
X164872550Y-126997399D01*
X164833141Y-127020091D01*
X164805357Y-127039459D01*
X164795200Y-127052024D01*
X164802713Y-127065365D01*
X164822487Y-127092439D01*
X164850373Y-127127592D01*
X164852731Y-127130463D01*
X164910261Y-127200345D01*
X164976794Y-127164309D01*
X165047318Y-127133685D01*
X165118338Y-127116182D01*
X165186130Y-127111177D01*
X165246973Y-127118047D01*
X165297144Y-127136171D01*
X165332921Y-127164925D01*
X165350581Y-127203688D01*
X165351427Y-127226941D01*
X165344599Y-127260033D01*
X165328380Y-127284793D01*
X165299341Y-127302849D01*
X165254053Y-127315831D01*
X165189089Y-127325366D01*
X165133207Y-127330609D01*
X165042077Y-127340416D01*
X164971460Y-127354125D01*
X164916571Y-127373351D01*
X164872628Y-127399708D01*
X164839557Y-127429718D01*
X164803211Y-127477931D01*
X164781409Y-127533175D01*
X164771742Y-127602554D01*
X164770767Y-127632455D01*
X164776429Y-127706142D01*
X164797663Y-127766568D01*
X164837825Y-127822739D01*
X164844275Y-127829838D01*
X164903591Y-127876952D01*
X164980999Y-127912802D01*
X165071193Y-127936004D01*
X165168868Y-127945176D01*
X165265100Y-127939450D01*
X165373296Y-127914405D01*
X165476393Y-127871688D01*
X165565964Y-127814937D01*
X165579847Y-127803640D01*
X165621544Y-127768315D01*
X165485336Y-127633799D01*
X165418754Y-127678606D01*
X165343121Y-127720852D01*
X165265943Y-127744354D01*
X165177373Y-127752016D01*
X165169850Y-127752033D01*
X165088865Y-127745319D01*
X165028932Y-127725836D01*
X164990463Y-127693826D01*
X164973874Y-127649534D01*
X164973195Y-127636206D01*
X164975846Y-127601134D01*
X164985753Y-127574988D01*
X165006361Y-127555935D01*
X165041113Y-127542144D01*
X165093453Y-127531781D01*
X165166826Y-127523014D01*
X165190236Y-127520726D01*
X165301399Y-127504577D01*
X165390220Y-127478696D01*
X165458268Y-127441910D01*
X165507114Y-127393049D01*
X165538329Y-127330942D01*
X165553483Y-127254419D01*
X165553895Y-127249601D01*
X165556256Y-127199050D01*
X165552028Y-127161015D01*
X165538929Y-127122981D01*
X165525602Y-127094421D01*
X165477923Y-127025116D01*
X165411399Y-126971860D01*
X165328081Y-126936268D01*
X165322446Y-126934689D01*
X165268921Y-126925846D01*
X165200097Y-126922442D01*
X165125437Y-126924272D01*
G36*
X167479814Y-126929891D02*
G01*
X167390265Y-126958279D01*
X167311053Y-127004531D01*
X167273671Y-127037585D01*
X167219393Y-127106416D01*
X167180705Y-127186476D01*
X167156520Y-127281122D01*
X167145750Y-127393714D01*
X167144956Y-127434975D01*
X167144700Y-127508000D01*
X167783024Y-127508000D01*
X167775607Y-127553702D01*
X167752531Y-127628334D01*
X167712169Y-127686794D01*
X167657748Y-127727894D01*
X167592492Y-127750444D01*
X167519627Y-127753256D01*
X167442379Y-127735140D01*
X167374395Y-127701603D01*
X167313180Y-127663550D01*
X167242526Y-127723842D01*
X167171871Y-127784133D01*
X167212261Y-127821872D01*
X167297198Y-127884318D01*
X167394057Y-127925620D01*
X167499260Y-127944756D01*
X167609228Y-127940701D01*
X167621378Y-127938810D01*
X167721632Y-127910888D01*
X167805605Y-127863493D01*
X167873221Y-127796714D01*
X167924400Y-127710640D01*
X167959066Y-127605360D01*
X167970896Y-127540531D01*
X167978527Y-127421808D01*
X167971690Y-127342900D01*
X167782527Y-127342900D01*
X167351311Y-127342900D01*
X167360163Y-127295275D01*
X167383356Y-127220004D01*
X167421766Y-127164656D01*
X167476368Y-127128120D01*
X167519064Y-127114364D01*
X167589334Y-127110332D01*
X167653636Y-127128967D01*
X167708264Y-127167637D01*
X167749511Y-127223710D01*
X167773672Y-127294554D01*
X167773804Y-127295275D01*
X167782527Y-127342900D01*
X167971690Y-127342900D01*
X167968726Y-127308704D01*
X167942712Y-127204450D01*
X167901704Y-127112277D01*
X167846920Y-127035416D01*
X167779579Y-126977098D01*
X167752355Y-126961192D01*
X167666672Y-126930420D01*
X167573887Y-126920295D01*
X167479814Y-126929891D01*
X167479814Y-126929891D01*
G37*
X167479814Y-126929891D02*
X167390265Y-126958279D01*
X167311053Y-127004531D01*
X167273671Y-127037585D01*
X167219393Y-127106416D01*
X167180705Y-127186476D01*
X167156520Y-127281122D01*
X167145750Y-127393714D01*
X167144956Y-127434975D01*
X167144700Y-127508000D01*
X167783024Y-127508000D01*
X167775607Y-127553702D01*
X167752531Y-127628334D01*
X167712169Y-127686794D01*
X167657748Y-127727894D01*
X167592492Y-127750444D01*
X167519627Y-127753256D01*
X167442379Y-127735140D01*
X167374395Y-127701603D01*
X167313180Y-127663550D01*
X167242526Y-127723842D01*
X167171871Y-127784133D01*
X167212261Y-127821872D01*
X167297198Y-127884318D01*
X167394057Y-127925620D01*
X167499260Y-127944756D01*
X167609228Y-127940701D01*
X167621378Y-127938810D01*
X167721632Y-127910888D01*
X167805605Y-127863493D01*
X167873221Y-127796714D01*
X167924400Y-127710640D01*
X167959066Y-127605360D01*
X167970896Y-127540531D01*
X167978527Y-127421808D01*
X167971690Y-127342900D01*
X167782527Y-127342900D01*
X167351311Y-127342900D01*
X167360163Y-127295275D01*
X167383356Y-127220004D01*
X167421766Y-127164656D01*
X167476368Y-127128120D01*
X167519064Y-127114364D01*
X167589334Y-127110332D01*
X167653636Y-127128967D01*
X167708264Y-127167637D01*
X167749511Y-127223710D01*
X167773672Y-127294554D01*
X167773804Y-127295275D01*
X167782527Y-127342900D01*
X167971690Y-127342900D01*
X167968726Y-127308704D01*
X167942712Y-127204450D01*
X167901704Y-127112277D01*
X167846920Y-127035416D01*
X167779579Y-126977098D01*
X167752355Y-126961192D01*
X167666672Y-126930420D01*
X167573887Y-126920295D01*
X167479814Y-126929891D01*
G36*
X169456618Y-126921441D02*
G01*
X169362753Y-126944134D01*
X169278014Y-126987338D01*
X169205520Y-127049742D01*
X169148390Y-127130036D01*
X169131478Y-127164688D01*
X169122048Y-127189732D01*
X169115327Y-127217637D01*
X169110881Y-127253107D01*
X169108278Y-127300846D01*
X169107084Y-127365556D01*
X169106850Y-127431800D01*
X169107239Y-127513250D01*
X169108693Y-127574012D01*
X169111646Y-127618789D01*
X169116533Y-127652283D01*
X169123786Y-127679198D01*
X169131478Y-127698911D01*
X169181007Y-127786285D01*
X169245733Y-127853904D01*
X169319908Y-127900041D01*
X169403197Y-127931392D01*
X169486413Y-127943781D01*
X169579224Y-127938718D01*
X169669449Y-127914884D01*
X169751463Y-127870209D01*
X169820914Y-127808299D01*
X169873452Y-127732764D01*
X169897491Y-127674828D01*
X169909710Y-127616909D01*
X169917474Y-127541549D01*
X169920799Y-127456312D01*
X169920211Y-127409401D01*
X169721865Y-127409401D01*
X169719836Y-127481082D01*
X169713455Y-127549079D01*
X169703133Y-127605691D01*
X169692402Y-127637431D01*
X169654276Y-127689518D01*
X169601240Y-127724624D01*
X169538367Y-127741449D01*
X169470730Y-127738693D01*
X169403401Y-127715056D01*
X169398950Y-127712652D01*
X169370086Y-127688383D01*
X169341793Y-127651804D01*
X169332275Y-127635193D01*
X169319515Y-127606784D01*
X169311194Y-127577595D01*
X169306428Y-127541268D01*
X169304328Y-127491442D01*
X169303979Y-127432284D01*
X169307578Y-127336715D01*
X169318983Y-127262807D01*
X169339718Y-127207608D01*
X169371311Y-127168167D01*
X169415285Y-127141533D01*
X169461703Y-127127168D01*
X169533871Y-127122619D01*
X169599218Y-127140804D01*
X169653808Y-127179220D01*
X169693705Y-127235366D01*
X169711217Y-127285776D01*
X169719129Y-127341732D01*
X169721865Y-127409401D01*
X169920211Y-127409401D01*
X169919701Y-127368759D01*
X169914194Y-127286455D01*
X169904293Y-127216962D01*
X169896509Y-127185392D01*
X169862459Y-127112651D01*
X169809539Y-127044431D01*
X169744146Y-126987273D01*
X169672676Y-126947716D01*
X169659255Y-126942834D01*
X169556492Y-126920571D01*
X169456618Y-126921441D01*
X169456618Y-126921441D01*
G37*
X169456618Y-126921441D02*
X169362753Y-126944134D01*
X169278014Y-126987338D01*
X169205520Y-127049742D01*
X169148390Y-127130036D01*
X169131478Y-127164688D01*
X169122048Y-127189732D01*
X169115327Y-127217637D01*
X169110881Y-127253107D01*
X169108278Y-127300846D01*
X169107084Y-127365556D01*
X169106850Y-127431800D01*
X169107239Y-127513250D01*
X169108693Y-127574012D01*
X169111646Y-127618789D01*
X169116533Y-127652283D01*
X169123786Y-127679198D01*
X169131478Y-127698911D01*
X169181007Y-127786285D01*
X169245733Y-127853904D01*
X169319908Y-127900041D01*
X169403197Y-127931392D01*
X169486413Y-127943781D01*
X169579224Y-127938718D01*
X169669449Y-127914884D01*
X169751463Y-127870209D01*
X169820914Y-127808299D01*
X169873452Y-127732764D01*
X169897491Y-127674828D01*
X169909710Y-127616909D01*
X169917474Y-127541549D01*
X169920799Y-127456312D01*
X169920211Y-127409401D01*
X169721865Y-127409401D01*
X169719836Y-127481082D01*
X169713455Y-127549079D01*
X169703133Y-127605691D01*
X169692402Y-127637431D01*
X169654276Y-127689518D01*
X169601240Y-127724624D01*
X169538367Y-127741449D01*
X169470730Y-127738693D01*
X169403401Y-127715056D01*
X169398950Y-127712652D01*
X169370086Y-127688383D01*
X169341793Y-127651804D01*
X169332275Y-127635193D01*
X169319515Y-127606784D01*
X169311194Y-127577595D01*
X169306428Y-127541268D01*
X169304328Y-127491442D01*
X169303979Y-127432284D01*
X169307578Y-127336715D01*
X169318983Y-127262807D01*
X169339718Y-127207608D01*
X169371311Y-127168167D01*
X169415285Y-127141533D01*
X169461703Y-127127168D01*
X169533871Y-127122619D01*
X169599218Y-127140804D01*
X169653808Y-127179220D01*
X169693705Y-127235366D01*
X169711217Y-127285776D01*
X169719129Y-127341732D01*
X169721865Y-127409401D01*
X169920211Y-127409401D01*
X169919701Y-127368759D01*
X169914194Y-127286455D01*
X169904293Y-127216962D01*
X169896509Y-127185392D01*
X169862459Y-127112651D01*
X169809539Y-127044431D01*
X169744146Y-126987273D01*
X169672676Y-126947716D01*
X169659255Y-126942834D01*
X169556492Y-126920571D01*
X169456618Y-126921441D01*
G36*
X162288500Y-128531796D02*
G01*
X162207699Y-128571727D01*
X162205389Y-128573261D01*
X162199395Y-128583032D01*
X162205074Y-128599972D01*
X162224494Y-128627889D01*
X162255644Y-128665801D01*
X162287471Y-128703378D01*
X162312417Y-128733019D01*
X162326363Y-128749820D01*
X162327841Y-128751701D01*
X162340515Y-128750288D01*
X162367276Y-128740044D01*
X162376441Y-128735826D01*
X162443635Y-128716179D01*
X162510414Y-128718851D01*
X162571427Y-128742387D01*
X162621324Y-128785333D01*
X162636269Y-128806458D01*
X162643867Y-128820406D01*
X162649772Y-128836449D01*
X162654197Y-128857786D01*
X162657354Y-128887615D01*
X162659454Y-128929136D01*
X162660711Y-128985547D01*
X162661336Y-129060046D01*
X162661542Y-129155831D01*
X162661553Y-129187575D01*
X162661600Y-129527300D01*
X162864800Y-129527300D01*
X162864800Y-128524000D01*
X162661600Y-128524000D01*
X162661600Y-128627579D01*
X162610269Y-128583641D01*
X162539678Y-128539192D01*
X162459308Y-128515652D01*
X162373976Y-128513146D01*
X162288500Y-128531796D01*
X162288500Y-128531796D01*
G37*
X162288500Y-128531796D02*
X162207699Y-128571727D01*
X162205389Y-128573261D01*
X162199395Y-128583032D01*
X162205074Y-128599972D01*
X162224494Y-128627889D01*
X162255644Y-128665801D01*
X162287471Y-128703378D01*
X162312417Y-128733019D01*
X162326363Y-128749820D01*
X162327841Y-128751701D01*
X162340515Y-128750288D01*
X162367276Y-128740044D01*
X162376441Y-128735826D01*
X162443635Y-128716179D01*
X162510414Y-128718851D01*
X162571427Y-128742387D01*
X162621324Y-128785333D01*
X162636269Y-128806458D01*
X162643867Y-128820406D01*
X162649772Y-128836449D01*
X162654197Y-128857786D01*
X162657354Y-128887615D01*
X162659454Y-128929136D01*
X162660711Y-128985547D01*
X162661336Y-129060046D01*
X162661542Y-129155831D01*
X162661553Y-129187575D01*
X162661600Y-129527300D01*
X162864800Y-129527300D01*
X162864800Y-128524000D01*
X162661600Y-128524000D01*
X162661600Y-128627579D01*
X162610269Y-128583641D01*
X162539678Y-128539192D01*
X162459308Y-128515652D01*
X162373976Y-128513146D01*
X162288500Y-128531796D01*
G36*
X165036032Y-128866900D02*
G01*
X165011650Y-128955771D01*
X164989137Y-129036080D01*
X164969405Y-129104721D01*
X164953362Y-129158586D01*
X164941919Y-129194565D01*
X164935986Y-129209553D01*
X164935642Y-129209800D01*
X164930008Y-129198210D01*
X164917686Y-129165471D01*
X164899729Y-129114622D01*
X164877188Y-129048706D01*
X164851115Y-128970764D01*
X164822562Y-128883838D01*
X164817054Y-128866900D01*
X164705740Y-128524000D01*
X164556355Y-128524000D01*
X164467382Y-128800225D01*
X164440230Y-128884660D01*
X164414287Y-128965589D01*
X164391058Y-129038299D01*
X164372047Y-129098081D01*
X164358757Y-129140222D01*
X164355477Y-129150772D01*
X164342090Y-129190484D01*
X164332575Y-129208230D01*
X164325111Y-129206801D01*
X164322331Y-129201572D01*
X164316337Y-129183322D01*
X164304730Y-129144073D01*
X164288508Y-129087349D01*
X164268672Y-129016675D01*
X164246218Y-128935576D01*
X164224525Y-128856324D01*
X164200868Y-128770004D01*
X164179191Y-128691994D01*
X164160430Y-128625575D01*
X164145521Y-128574032D01*
X164135402Y-128540648D01*
X164131094Y-128528760D01*
X164116543Y-128526469D01*
X164083078Y-128525569D01*
X164037154Y-128526186D01*
X164023285Y-128526635D01*
X163921314Y-128530350D01*
X164059846Y-128962150D01*
X164092855Y-129065165D01*
X164124186Y-129163187D01*
X164152791Y-129252922D01*
X164177625Y-129331074D01*
X164197639Y-129394350D01*
X164211786Y-129439453D01*
X164218291Y-129460625D01*
X164238203Y-129527300D01*
X164329377Y-129527228D01*
X164420550Y-129527156D01*
X164514714Y-129206553D01*
X164540548Y-129118916D01*
X164564592Y-129037967D01*
X164585755Y-128967322D01*
X164602950Y-128910600D01*
X164615089Y-128871415D01*
X164620764Y-128854200D01*
X164625199Y-128848049D01*
X164631275Y-128851756D01*
X164639788Y-128867480D01*
X164651532Y-128897381D01*
X164667302Y-128943617D01*
X164687894Y-129008348D01*
X164714103Y-129093734D01*
X164737644Y-129171700D01*
X164842636Y-129520950D01*
X164932417Y-129524665D01*
X165022197Y-129528380D01*
X165104827Y-129270665D01*
X165135246Y-129175736D01*
X165166943Y-129076724D01*
X165198824Y-128977055D01*
X165229796Y-128880153D01*
X165258763Y-128789445D01*
X165284634Y-128708354D01*
X165306314Y-128640307D01*
X165322709Y-128588728D01*
X165332726Y-128557043D01*
X165334123Y-128552575D01*
X165337372Y-128538692D01*
X165333431Y-128530240D01*
X165317679Y-128525872D01*
X165285496Y-128524241D01*
X165236081Y-128524000D01*
X165129149Y-128524000D01*
X165036032Y-128866900D01*
X165036032Y-128866900D01*
G37*
X165036032Y-128866900D02*
X165011650Y-128955771D01*
X164989137Y-129036080D01*
X164969405Y-129104721D01*
X164953362Y-129158586D01*
X164941919Y-129194565D01*
X164935986Y-129209553D01*
X164935642Y-129209800D01*
X164930008Y-129198210D01*
X164917686Y-129165471D01*
X164899729Y-129114622D01*
X164877188Y-129048706D01*
X164851115Y-128970764D01*
X164822562Y-128883838D01*
X164817054Y-128866900D01*
X164705740Y-128524000D01*
X164556355Y-128524000D01*
X164467382Y-128800225D01*
X164440230Y-128884660D01*
X164414287Y-128965589D01*
X164391058Y-129038299D01*
X164372047Y-129098081D01*
X164358757Y-129140222D01*
X164355477Y-129150772D01*
X164342090Y-129190484D01*
X164332575Y-129208230D01*
X164325111Y-129206801D01*
X164322331Y-129201572D01*
X164316337Y-129183322D01*
X164304730Y-129144073D01*
X164288508Y-129087349D01*
X164268672Y-129016675D01*
X164246218Y-128935576D01*
X164224525Y-128856324D01*
X164200868Y-128770004D01*
X164179191Y-128691994D01*
X164160430Y-128625575D01*
X164145521Y-128574032D01*
X164135402Y-128540648D01*
X164131094Y-128528760D01*
X164116543Y-128526469D01*
X164083078Y-128525569D01*
X164037154Y-128526186D01*
X164023285Y-128526635D01*
X163921314Y-128530350D01*
X164059846Y-128962150D01*
X164092855Y-129065165D01*
X164124186Y-129163187D01*
X164152791Y-129252922D01*
X164177625Y-129331074D01*
X164197639Y-129394350D01*
X164211786Y-129439453D01*
X164218291Y-129460625D01*
X164238203Y-129527300D01*
X164329377Y-129527228D01*
X164420550Y-129527156D01*
X164514714Y-129206553D01*
X164540548Y-129118916D01*
X164564592Y-129037967D01*
X164585755Y-128967322D01*
X164602950Y-128910600D01*
X164615089Y-128871415D01*
X164620764Y-128854200D01*
X164625199Y-128848049D01*
X164631275Y-128851756D01*
X164639788Y-128867480D01*
X164651532Y-128897381D01*
X164667302Y-128943617D01*
X164687894Y-129008348D01*
X164714103Y-129093734D01*
X164737644Y-129171700D01*
X164842636Y-129520950D01*
X164932417Y-129524665D01*
X165022197Y-129528380D01*
X165104827Y-129270665D01*
X165135246Y-129175736D01*
X165166943Y-129076724D01*
X165198824Y-128977055D01*
X165229796Y-128880153D01*
X165258763Y-128789445D01*
X165284634Y-128708354D01*
X165306314Y-128640307D01*
X165322709Y-128588728D01*
X165332726Y-128557043D01*
X165334123Y-128552575D01*
X165337372Y-128538692D01*
X165333431Y-128530240D01*
X165317679Y-128525872D01*
X165285496Y-128524241D01*
X165236081Y-128524000D01*
X165129149Y-128524000D01*
X165036032Y-128866900D01*
G36*
X166386617Y-128524535D02*
G01*
X166306190Y-128557661D01*
X166282126Y-128572825D01*
X166276045Y-128582669D01*
X166281146Y-128599578D01*
X166299452Y-128627457D01*
X166331969Y-128668952D01*
X166364417Y-128707033D01*
X166391991Y-128735922D01*
X166410159Y-128750995D01*
X166413493Y-128752149D01*
X166433792Y-128745951D01*
X166458900Y-128733550D01*
X166509096Y-128717276D01*
X166568047Y-128716213D01*
X166624602Y-128729791D01*
X166650697Y-128743328D01*
X166675380Y-128760964D01*
X166694939Y-128779245D01*
X166709967Y-128801226D01*
X166721060Y-128829966D01*
X166728810Y-128868521D01*
X166733813Y-128919947D01*
X166736663Y-128987302D01*
X166737953Y-129073642D01*
X166738278Y-129182024D01*
X166738281Y-129193925D01*
X166738300Y-129527300D01*
X166941500Y-129527300D01*
X166941500Y-128524000D01*
X166738300Y-128524000D01*
X166738300Y-128630352D01*
X166703375Y-128596974D01*
X166635372Y-128548722D01*
X166556430Y-128520366D01*
X166471771Y-128512204D01*
X166386617Y-128524535D01*
X166386617Y-128524535D01*
G37*
X166386617Y-128524535D02*
X166306190Y-128557661D01*
X166282126Y-128572825D01*
X166276045Y-128582669D01*
X166281146Y-128599578D01*
X166299452Y-128627457D01*
X166331969Y-128668952D01*
X166364417Y-128707033D01*
X166391991Y-128735922D01*
X166410159Y-128750995D01*
X166413493Y-128752149D01*
X166433792Y-128745951D01*
X166458900Y-128733550D01*
X166509096Y-128717276D01*
X166568047Y-128716213D01*
X166624602Y-128729791D01*
X166650697Y-128743328D01*
X166675380Y-128760964D01*
X166694939Y-128779245D01*
X166709967Y-128801226D01*
X166721060Y-128829966D01*
X166728810Y-128868521D01*
X166733813Y-128919947D01*
X166736663Y-128987302D01*
X166737953Y-129073642D01*
X166738278Y-129182024D01*
X166738281Y-129193925D01*
X166738300Y-129527300D01*
X166941500Y-129527300D01*
X166941500Y-128524000D01*
X166738300Y-128524000D01*
X166738300Y-128630352D01*
X166703375Y-128596974D01*
X166635372Y-128548722D01*
X166556430Y-128520366D01*
X166471771Y-128512204D01*
X166386617Y-128524535D01*
G36*
X168366727Y-126933415D02*
G01*
X168287209Y-126965226D01*
X168220266Y-127014945D01*
X168169439Y-127079874D01*
X168138270Y-127157314D01*
X168136470Y-127165179D01*
X168130687Y-127207545D01*
X168126516Y-127269056D01*
X168123959Y-127343509D01*
X168123013Y-127424699D01*
X168123681Y-127506423D01*
X168125961Y-127582477D01*
X168129854Y-127646658D01*
X168135360Y-127692762D01*
X168136470Y-127698420D01*
X168165020Y-127775869D01*
X168212197Y-127840402D01*
X168273958Y-127890568D01*
X168346262Y-127924913D01*
X168425070Y-127941986D01*
X168506340Y-127940334D01*
X168586030Y-127918503D01*
X168649650Y-127882895D01*
X168679350Y-127862038D01*
X168701789Y-127847186D01*
X168703625Y-127846075D01*
X168708214Y-127848240D01*
X168711883Y-127862151D01*
X168714718Y-127889933D01*
X168716806Y-127933713D01*
X168718236Y-127995616D01*
X168719094Y-128077769D01*
X168719467Y-128182299D01*
X168719500Y-128233526D01*
X168719500Y-128630352D01*
X168684575Y-128596974D01*
X168615412Y-128547036D01*
X168538213Y-128518547D01*
X168457084Y-128510649D01*
X168376134Y-128522483D01*
X168299470Y-128553190D01*
X168231200Y-128601911D01*
X168175431Y-128667788D01*
X168152919Y-128708150D01*
X168144331Y-128726976D01*
X168137555Y-128745158D01*
X168132376Y-128765849D01*
X168128577Y-128792202D01*
X168125942Y-128827373D01*
X168124257Y-128874514D01*
X168123305Y-128936780D01*
X168122870Y-129017324D01*
X168122736Y-129119301D01*
X168122725Y-129149475D01*
X168122600Y-129527300D01*
X168325800Y-129527300D01*
X168325820Y-129193925D01*
X168326001Y-129090977D01*
X168326654Y-129010202D01*
X168327972Y-128948371D01*
X168330142Y-128902259D01*
X168333356Y-128868637D01*
X168337804Y-128844280D01*
X168343674Y-128825961D01*
X168348045Y-128816353D01*
X168386679Y-128764498D01*
X168437923Y-128730603D01*
X168496479Y-128714679D01*
X168557046Y-128716736D01*
X168614327Y-128736787D01*
X168663021Y-128774842D01*
X168690925Y-128815615D01*
X168699643Y-128833946D01*
X168706382Y-128852380D01*
X168711396Y-128874334D01*
X168714939Y-128903226D01*
X168717266Y-128942470D01*
X168718631Y-128995484D01*
X168719287Y-129065685D01*
X168719490Y-129156489D01*
X168719500Y-129199790D01*
X168719500Y-129527300D01*
X168922700Y-129527300D01*
X168922700Y-127401579D01*
X168717318Y-127401579D01*
X168716054Y-127509700D01*
X168702841Y-127596105D01*
X168677307Y-127661685D01*
X168639080Y-127707332D01*
X168587788Y-127733939D01*
X168577455Y-127736701D01*
X168511242Y-127741389D01*
X168442327Y-127728102D01*
X168410527Y-127715010D01*
X168378355Y-127691565D01*
X168354803Y-127656389D01*
X168338926Y-127606302D01*
X168329781Y-127538127D01*
X168326422Y-127448687D01*
X168326358Y-127431800D01*
X168329653Y-127332626D01*
X168340549Y-127255772D01*
X168360565Y-127198897D01*
X168391219Y-127159661D01*
X168434030Y-127135722D01*
X168490515Y-127124739D01*
X168526419Y-127123371D01*
X168588990Y-127130811D01*
X168637751Y-127154279D01*
X168673882Y-127195492D01*
X168698562Y-127256169D01*
X168712971Y-127338029D01*
X168717318Y-127401579D01*
X168922700Y-127401579D01*
X168922700Y-126923800D01*
X168719500Y-126923800D01*
X168719500Y-127026692D01*
X168677542Y-126994689D01*
X168604844Y-126950710D01*
X168526377Y-126927503D01*
X168455280Y-126922212D01*
X168366727Y-126933415D01*
X168366727Y-126933415D01*
G37*
X168366727Y-126933415D02*
X168287209Y-126965226D01*
X168220266Y-127014945D01*
X168169439Y-127079874D01*
X168138270Y-127157314D01*
X168136470Y-127165179D01*
X168130687Y-127207545D01*
X168126516Y-127269056D01*
X168123959Y-127343509D01*
X168123013Y-127424699D01*
X168123681Y-127506423D01*
X168125961Y-127582477D01*
X168129854Y-127646658D01*
X168135360Y-127692762D01*
X168136470Y-127698420D01*
X168165020Y-127775869D01*
X168212197Y-127840402D01*
X168273958Y-127890568D01*
X168346262Y-127924913D01*
X168425070Y-127941986D01*
X168506340Y-127940334D01*
X168586030Y-127918503D01*
X168649650Y-127882895D01*
X168679350Y-127862038D01*
X168701789Y-127847186D01*
X168703625Y-127846075D01*
X168708214Y-127848240D01*
X168711883Y-127862151D01*
X168714718Y-127889933D01*
X168716806Y-127933713D01*
X168718236Y-127995616D01*
X168719094Y-128077769D01*
X168719467Y-128182299D01*
X168719500Y-128233526D01*
X168719500Y-128630352D01*
X168684575Y-128596974D01*
X168615412Y-128547036D01*
X168538213Y-128518547D01*
X168457084Y-128510649D01*
X168376134Y-128522483D01*
X168299470Y-128553190D01*
X168231200Y-128601911D01*
X168175431Y-128667788D01*
X168152919Y-128708150D01*
X168144331Y-128726976D01*
X168137555Y-128745158D01*
X168132376Y-128765849D01*
X168128577Y-128792202D01*
X168125942Y-128827373D01*
X168124257Y-128874514D01*
X168123305Y-128936780D01*
X168122870Y-129017324D01*
X168122736Y-129119301D01*
X168122725Y-129149475D01*
X168122600Y-129527300D01*
X168325800Y-129527300D01*
X168325820Y-129193925D01*
X168326001Y-129090977D01*
X168326654Y-129010202D01*
X168327972Y-128948371D01*
X168330142Y-128902259D01*
X168333356Y-128868637D01*
X168337804Y-128844280D01*
X168343674Y-128825961D01*
X168348045Y-128816353D01*
X168386679Y-128764498D01*
X168437923Y-128730603D01*
X168496479Y-128714679D01*
X168557046Y-128716736D01*
X168614327Y-128736787D01*
X168663021Y-128774842D01*
X168690925Y-128815615D01*
X168699643Y-128833946D01*
X168706382Y-128852380D01*
X168711396Y-128874334D01*
X168714939Y-128903226D01*
X168717266Y-128942470D01*
X168718631Y-128995484D01*
X168719287Y-129065685D01*
X168719490Y-129156489D01*
X168719500Y-129199790D01*
X168719500Y-129527300D01*
X168922700Y-129527300D01*
X168922700Y-127401579D01*
X168717318Y-127401579D01*
X168716054Y-127509700D01*
X168702841Y-127596105D01*
X168677307Y-127661685D01*
X168639080Y-127707332D01*
X168587788Y-127733939D01*
X168577455Y-127736701D01*
X168511242Y-127741389D01*
X168442327Y-127728102D01*
X168410527Y-127715010D01*
X168378355Y-127691565D01*
X168354803Y-127656389D01*
X168338926Y-127606302D01*
X168329781Y-127538127D01*
X168326422Y-127448687D01*
X168326358Y-127431800D01*
X168329653Y-127332626D01*
X168340549Y-127255772D01*
X168360565Y-127198897D01*
X168391219Y-127159661D01*
X168434030Y-127135722D01*
X168490515Y-127124739D01*
X168526419Y-127123371D01*
X168588990Y-127130811D01*
X168637751Y-127154279D01*
X168673882Y-127195492D01*
X168698562Y-127256169D01*
X168712971Y-127338029D01*
X168717318Y-127401579D01*
X168922700Y-127401579D01*
X168922700Y-126923800D01*
X168719500Y-126923800D01*
X168719500Y-127026692D01*
X168677542Y-126994689D01*
X168604844Y-126950710D01*
X168526377Y-126927503D01*
X168455280Y-126922212D01*
X168366727Y-126933415D01*
G36*
X161700256Y-128518250D02*
G01*
X161610710Y-128543332D01*
X161528191Y-128587603D01*
X161474661Y-128632286D01*
X161420802Y-128700367D01*
X161383240Y-128781785D01*
X161361102Y-128879199D01*
X161353514Y-128995265D01*
X161353500Y-129000875D01*
X161353500Y-129095500D01*
X161975800Y-129095500D01*
X161975800Y-129141395D01*
X161965249Y-129196702D01*
X161937475Y-129252371D01*
X161898303Y-129298082D01*
X161879508Y-129312044D01*
X161811799Y-129339600D01*
X161736233Y-129345992D01*
X161658395Y-129331604D01*
X161583869Y-129296826D01*
X161574906Y-129290957D01*
X161547155Y-129273883D01*
X161524512Y-129267469D01*
X161501271Y-129273356D01*
X161471724Y-129293185D01*
X161430164Y-129328596D01*
X161423529Y-129334477D01*
X161376075Y-129376605D01*
X161405291Y-129407704D01*
X161463738Y-129454990D01*
X161539538Y-129494335D01*
X161625158Y-129522888D01*
X161713064Y-129537801D01*
X161753044Y-129539286D01*
X161801684Y-129534733D01*
X161858654Y-129523780D01*
X161894484Y-129514022D01*
X161976830Y-129476618D01*
X162031539Y-129436988D01*
X162090346Y-129373785D01*
X162133220Y-129300210D01*
X162161350Y-129212940D01*
X162175924Y-129108649D01*
X162178699Y-129025650D01*
X162172046Y-128904222D01*
X162170454Y-128896309D01*
X161975800Y-128896309D01*
X161975800Y-128930400D01*
X161553525Y-128930400D01*
X161561727Y-128889391D01*
X161581649Y-128828152D01*
X161613276Y-128773060D01*
X161649120Y-128735358D01*
X161698847Y-128712046D01*
X161759926Y-128703273D01*
X161822664Y-128709355D01*
X161873021Y-128728063D01*
X161918919Y-128765754D01*
X161954378Y-128817347D01*
X161973786Y-128873652D01*
X161975800Y-128896309D01*
X162170454Y-128896309D01*
X162151388Y-128801576D01*
X162115681Y-128714646D01*
X162063876Y-128640367D01*
X162037813Y-128612928D01*
X161965607Y-128559695D01*
X161882249Y-128526275D01*
X161792284Y-128512512D01*
X161700256Y-128518250D01*
X161700256Y-128518250D01*
G37*
X161700256Y-128518250D02*
X161610710Y-128543332D01*
X161528191Y-128587603D01*
X161474661Y-128632286D01*
X161420802Y-128700367D01*
X161383240Y-128781785D01*
X161361102Y-128879199D01*
X161353514Y-128995265D01*
X161353500Y-129000875D01*
X161353500Y-129095500D01*
X161975800Y-129095500D01*
X161975800Y-129141395D01*
X161965249Y-129196702D01*
X161937475Y-129252371D01*
X161898303Y-129298082D01*
X161879508Y-129312044D01*
X161811799Y-129339600D01*
X161736233Y-129345992D01*
X161658395Y-129331604D01*
X161583869Y-129296826D01*
X161574906Y-129290957D01*
X161547155Y-129273883D01*
X161524512Y-129267469D01*
X161501271Y-129273356D01*
X161471724Y-129293185D01*
X161430164Y-129328596D01*
X161423529Y-129334477D01*
X161376075Y-129376605D01*
X161405291Y-129407704D01*
X161463738Y-129454990D01*
X161539538Y-129494335D01*
X161625158Y-129522888D01*
X161713064Y-129537801D01*
X161753044Y-129539286D01*
X161801684Y-129534733D01*
X161858654Y-129523780D01*
X161894484Y-129514022D01*
X161976830Y-129476618D01*
X162031539Y-129436988D01*
X162090346Y-129373785D01*
X162133220Y-129300210D01*
X162161350Y-129212940D01*
X162175924Y-129108649D01*
X162178699Y-129025650D01*
X162172046Y-128904222D01*
X162170454Y-128896309D01*
X161975800Y-128896309D01*
X161975800Y-128930400D01*
X161553525Y-128930400D01*
X161561727Y-128889391D01*
X161581649Y-128828152D01*
X161613276Y-128773060D01*
X161649120Y-128735358D01*
X161698847Y-128712046D01*
X161759926Y-128703273D01*
X161822664Y-128709355D01*
X161873021Y-128728063D01*
X161918919Y-128765754D01*
X161954378Y-128817347D01*
X161973786Y-128873652D01*
X161975800Y-128896309D01*
X162170454Y-128896309D01*
X162151388Y-128801576D01*
X162115681Y-128714646D01*
X162063876Y-128640367D01*
X162037813Y-128612928D01*
X161965607Y-128559695D01*
X161882249Y-128526275D01*
X161792284Y-128512512D01*
X161700256Y-128518250D01*
G36*
X163428226Y-128515817D02*
G01*
X163347228Y-128527468D01*
X163280524Y-128546426D01*
X163273823Y-128549208D01*
X163206755Y-128589484D01*
X163151638Y-128644387D01*
X163114392Y-128707622D01*
X163108140Y-128725402D01*
X163102989Y-128757041D01*
X163098931Y-128813754D01*
X163095975Y-128895239D01*
X163094131Y-129001193D01*
X163093411Y-129131314D01*
X163093400Y-129150948D01*
X163093400Y-129527300D01*
X163296600Y-129527300D01*
X163296600Y-129440909D01*
X163334330Y-129476153D01*
X163386619Y-129509585D01*
X163455083Y-129530858D01*
X163533205Y-129539227D01*
X163614466Y-129533943D01*
X163686078Y-129516491D01*
X163770080Y-129476631D01*
X163833179Y-129422482D01*
X163875154Y-129354344D01*
X163895782Y-129272519D01*
X163898040Y-129229446D01*
X163897170Y-129222886D01*
X163708505Y-129222886D01*
X163699676Y-129261431D01*
X163697016Y-129268034D01*
X163684340Y-129296217D01*
X163675949Y-129310969D01*
X163675074Y-129311591D01*
X163661970Y-129315745D01*
X163633600Y-129325953D01*
X163620450Y-129330845D01*
X163577343Y-129340861D01*
X163521725Y-129345508D01*
X163462007Y-129345019D01*
X163406601Y-129339627D01*
X163363917Y-129329565D01*
X163350802Y-129323389D01*
X163320614Y-129290826D01*
X163302689Y-129238127D01*
X163296605Y-129164029D01*
X163296600Y-129161740D01*
X163296600Y-129092070D01*
X163452175Y-129098109D01*
X163536846Y-129103098D01*
X163599803Y-129111395D01*
X163644649Y-129124257D01*
X163674989Y-129142942D01*
X163694426Y-129168709D01*
X163701341Y-129185098D01*
X163708505Y-129222886D01*
X163897170Y-129222886D01*
X163886608Y-129143275D01*
X163852658Y-129068705D01*
X163808939Y-129016798D01*
X163775437Y-128988784D01*
X163739306Y-128967963D01*
X163695929Y-128953149D01*
X163640690Y-128943151D01*
X163568973Y-128936781D01*
X163483925Y-128933085D01*
X163296600Y-128927256D01*
X163296600Y-128858143D01*
X163299071Y-128814081D01*
X163305389Y-128777255D01*
X163310323Y-128763389D01*
X163338634Y-128735153D01*
X163384750Y-128715323D01*
X163442467Y-128704012D01*
X163505583Y-128701332D01*
X163567894Y-128707396D01*
X163623198Y-128722317D01*
X163665291Y-128746208D01*
X163675790Y-128756753D01*
X163686484Y-128765932D01*
X163700013Y-128765614D01*
X163721464Y-128753698D01*
X163755920Y-128728087D01*
X163767865Y-128718747D01*
X163803880Y-128689230D01*
X163830405Y-128665162D01*
X163842450Y-128651118D01*
X163842700Y-128650116D01*
X163832172Y-128631447D01*
X163804649Y-128606363D01*
X163766225Y-128579033D01*
X163722994Y-128553629D01*
X163681048Y-128534322D01*
X163666208Y-128529302D01*
X163596794Y-128516273D01*
X163514441Y-128511931D01*
X163428226Y-128515817D01*
X163428226Y-128515817D01*
G37*
X163428226Y-128515817D02*
X163347228Y-128527468D01*
X163280524Y-128546426D01*
X163273823Y-128549208D01*
X163206755Y-128589484D01*
X163151638Y-128644387D01*
X163114392Y-128707622D01*
X163108140Y-128725402D01*
X163102989Y-128757041D01*
X163098931Y-128813754D01*
X163095975Y-128895239D01*
X163094131Y-129001193D01*
X163093411Y-129131314D01*
X163093400Y-129150948D01*
X163093400Y-129527300D01*
X163296600Y-129527300D01*
X163296600Y-129440909D01*
X163334330Y-129476153D01*
X163386619Y-129509585D01*
X163455083Y-129530858D01*
X163533205Y-129539227D01*
X163614466Y-129533943D01*
X163686078Y-129516491D01*
X163770080Y-129476631D01*
X163833179Y-129422482D01*
X163875154Y-129354344D01*
X163895782Y-129272519D01*
X163898040Y-129229446D01*
X163897170Y-129222886D01*
X163708505Y-129222886D01*
X163699676Y-129261431D01*
X163697016Y-129268034D01*
X163684340Y-129296217D01*
X163675949Y-129310969D01*
X163675074Y-129311591D01*
X163661970Y-129315745D01*
X163633600Y-129325953D01*
X163620450Y-129330845D01*
X163577343Y-129340861D01*
X163521725Y-129345508D01*
X163462007Y-129345019D01*
X163406601Y-129339627D01*
X163363917Y-129329565D01*
X163350802Y-129323389D01*
X163320614Y-129290826D01*
X163302689Y-129238127D01*
X163296605Y-129164029D01*
X163296600Y-129161740D01*
X163296600Y-129092070D01*
X163452175Y-129098109D01*
X163536846Y-129103098D01*
X163599803Y-129111395D01*
X163644649Y-129124257D01*
X163674989Y-129142942D01*
X163694426Y-129168709D01*
X163701341Y-129185098D01*
X163708505Y-129222886D01*
X163897170Y-129222886D01*
X163886608Y-129143275D01*
X163852658Y-129068705D01*
X163808939Y-129016798D01*
X163775437Y-128988784D01*
X163739306Y-128967963D01*
X163695929Y-128953149D01*
X163640690Y-128943151D01*
X163568973Y-128936781D01*
X163483925Y-128933085D01*
X163296600Y-128927256D01*
X163296600Y-128858143D01*
X163299071Y-128814081D01*
X163305389Y-128777255D01*
X163310323Y-128763389D01*
X163338634Y-128735153D01*
X163384750Y-128715323D01*
X163442467Y-128704012D01*
X163505583Y-128701332D01*
X163567894Y-128707396D01*
X163623198Y-128722317D01*
X163665291Y-128746208D01*
X163675790Y-128756753D01*
X163686484Y-128765932D01*
X163700013Y-128765614D01*
X163721464Y-128753698D01*
X163755920Y-128728087D01*
X163767865Y-128718747D01*
X163803880Y-128689230D01*
X163830405Y-128665162D01*
X163842450Y-128651118D01*
X163842700Y-128650116D01*
X163832172Y-128631447D01*
X163804649Y-128606363D01*
X163766225Y-128579033D01*
X163722994Y-128553629D01*
X163681048Y-128534322D01*
X163666208Y-128529302D01*
X163596794Y-128516273D01*
X163514441Y-128511931D01*
X163428226Y-128515817D01*
G36*
X165455600Y-129527300D02*
G01*
X165658800Y-129527300D01*
X165658800Y-129424503D01*
X165707845Y-129463916D01*
X165785238Y-129510432D01*
X165871484Y-129533976D01*
X165963562Y-129534034D01*
X166031672Y-129519274D01*
X166090337Y-129491135D01*
X166147371Y-129446451D01*
X166195651Y-129392203D01*
X166228052Y-129335370D01*
X166232583Y-129322422D01*
X166239711Y-129284823D01*
X166245035Y-129228574D01*
X166248588Y-129158699D01*
X166250403Y-129080219D01*
X166250475Y-129025650D01*
X166046150Y-129025650D01*
X166045736Y-129098688D01*
X166044103Y-129151358D01*
X166040669Y-129188681D01*
X166034848Y-129215682D01*
X166026058Y-129237384D01*
X166020318Y-129247900D01*
X165979196Y-129294675D01*
X165922476Y-129325471D01*
X165856700Y-129336757D01*
X165855650Y-129336760D01*
X165809374Y-129330792D01*
X165764751Y-129316252D01*
X165761272Y-129314555D01*
X165726215Y-129291856D01*
X165700421Y-129262102D01*
X165682657Y-129221506D01*
X165671692Y-129166283D01*
X165666292Y-129092648D01*
X165665150Y-129019300D01*
X165666474Y-128934361D01*
X165671328Y-128870427D01*
X165681039Y-128823197D01*
X165696934Y-128788369D01*
X165720339Y-128761645D01*
X165751492Y-128739385D01*
X165810345Y-128716803D01*
X165873818Y-128714223D01*
X165935267Y-128730016D01*
X165988046Y-128762553D01*
X166023309Y-128806013D01*
X166032812Y-128827625D01*
X166039343Y-128854822D01*
X166043406Y-128892452D01*
X166045507Y-128945362D01*
X166046147Y-129018398D01*
X166046150Y-129025650D01*
X166250475Y-129025650D01*
X166250512Y-128998158D01*
X166248947Y-128917538D01*
X166245742Y-128843381D01*
X166240928Y-128780711D01*
X166234538Y-128734550D01*
X166228638Y-128713576D01*
X166180937Y-128636318D01*
X166118283Y-128576869D01*
X166044626Y-128536129D01*
X165963919Y-128514998D01*
X165880112Y-128514375D01*
X165797157Y-128535161D01*
X165719006Y-128578254D01*
X165699980Y-128593207D01*
X165658800Y-128627857D01*
X165658800Y-128117600D01*
X165455600Y-128117600D01*
X165455600Y-129527300D01*
X165455600Y-129527300D01*
G37*
X165455600Y-129527300D02*
X165658800Y-129527300D01*
X165658800Y-129424503D01*
X165707845Y-129463916D01*
X165785238Y-129510432D01*
X165871484Y-129533976D01*
X165963562Y-129534034D01*
X166031672Y-129519274D01*
X166090337Y-129491135D01*
X166147371Y-129446451D01*
X166195651Y-129392203D01*
X166228052Y-129335370D01*
X166232583Y-129322422D01*
X166239711Y-129284823D01*
X166245035Y-129228574D01*
X166248588Y-129158699D01*
X166250403Y-129080219D01*
X166250475Y-129025650D01*
X166046150Y-129025650D01*
X166045736Y-129098688D01*
X166044103Y-129151358D01*
X166040669Y-129188681D01*
X166034848Y-129215682D01*
X166026058Y-129237384D01*
X166020318Y-129247900D01*
X165979196Y-129294675D01*
X165922476Y-129325471D01*
X165856700Y-129336757D01*
X165855650Y-129336760D01*
X165809374Y-129330792D01*
X165764751Y-129316252D01*
X165761272Y-129314555D01*
X165726215Y-129291856D01*
X165700421Y-129262102D01*
X165682657Y-129221506D01*
X165671692Y-129166283D01*
X165666292Y-129092648D01*
X165665150Y-129019300D01*
X165666474Y-128934361D01*
X165671328Y-128870427D01*
X165681039Y-128823197D01*
X165696934Y-128788369D01*
X165720339Y-128761645D01*
X165751492Y-128739385D01*
X165810345Y-128716803D01*
X165873818Y-128714223D01*
X165935267Y-128730016D01*
X165988046Y-128762553D01*
X166023309Y-128806013D01*
X166032812Y-128827625D01*
X166039343Y-128854822D01*
X166043406Y-128892452D01*
X166045507Y-128945362D01*
X166046147Y-129018398D01*
X166046150Y-129025650D01*
X166250475Y-129025650D01*
X166250512Y-128998158D01*
X166248947Y-128917538D01*
X166245742Y-128843381D01*
X166240928Y-128780711D01*
X166234538Y-128734550D01*
X166228638Y-128713576D01*
X166180937Y-128636318D01*
X166118283Y-128576869D01*
X166044626Y-128536129D01*
X165963919Y-128514998D01*
X165880112Y-128514375D01*
X165797157Y-128535161D01*
X165719006Y-128578254D01*
X165699980Y-128593207D01*
X165658800Y-128627857D01*
X165658800Y-128117600D01*
X165455600Y-128117600D01*
X165455600Y-129527300D01*
G36*
X167488158Y-128516330D02*
G01*
X167386994Y-128535682D01*
X167304442Y-128571803D01*
X167240756Y-128624589D01*
X167201856Y-128682068D01*
X167170100Y-128744887D01*
X167170100Y-129527300D01*
X167373300Y-129527300D01*
X167373300Y-129448842D01*
X167411795Y-129481232D01*
X167468693Y-129514333D01*
X167541110Y-129534166D01*
X167622521Y-129540086D01*
X167706401Y-129531446D01*
X167763855Y-129516126D01*
X167845413Y-129476565D01*
X167906923Y-129421487D01*
X167947910Y-129351556D01*
X167967901Y-129267433D01*
X167969922Y-129228365D01*
X167969175Y-129222500D01*
X167779700Y-129222500D01*
X167767982Y-129271329D01*
X167734969Y-129309948D01*
X167683876Y-129334819D01*
X167675755Y-129336934D01*
X167613248Y-129345973D01*
X167543643Y-129347274D01*
X167480019Y-129340876D01*
X167459400Y-129336235D01*
X167418344Y-129319082D01*
X167392048Y-129291896D01*
X167377910Y-129250005D01*
X167373333Y-129188740D01*
X167373300Y-129181574D01*
X167373300Y-129095500D01*
X167490775Y-129096053D01*
X167589233Y-129099517D01*
X167664903Y-129109452D01*
X167719775Y-129126725D01*
X167755838Y-129152208D01*
X167775079Y-129186772D01*
X167779700Y-129222500D01*
X167969175Y-129222500D01*
X167958956Y-129142338D01*
X167926425Y-129068777D01*
X167873875Y-129009616D01*
X167802855Y-128966790D01*
X167745735Y-128948204D01*
X167702091Y-128941041D01*
X167641855Y-128935270D01*
X167573828Y-128931582D01*
X167521945Y-128930598D01*
X167372140Y-128930400D01*
X167375895Y-128845980D01*
X167381980Y-128790187D01*
X167397001Y-128751318D01*
X167424824Y-128726204D01*
X167469314Y-128711679D01*
X167534336Y-128704576D01*
X167549423Y-128703800D01*
X167625622Y-128704847D01*
X167686061Y-128717145D01*
X167738607Y-128742620D01*
X167755528Y-128754226D01*
X167770073Y-128759505D01*
X167789848Y-128753857D01*
X167820069Y-128735053D01*
X167847603Y-128714855D01*
X167883014Y-128686968D01*
X167908661Y-128664572D01*
X167919347Y-128652230D01*
X167919400Y-128651850D01*
X167909118Y-128633443D01*
X167882337Y-128608199D01*
X167845153Y-128580881D01*
X167803665Y-128556250D01*
X167786050Y-128547685D01*
X167734274Y-128529720D01*
X167671544Y-128518696D01*
X167607678Y-128513854D01*
X167488158Y-128516330D01*
X167488158Y-128516330D01*
G37*
X167488158Y-128516330D02*
X167386994Y-128535682D01*
X167304442Y-128571803D01*
X167240756Y-128624589D01*
X167201856Y-128682068D01*
X167170100Y-128744887D01*
X167170100Y-129527300D01*
X167373300Y-129527300D01*
X167373300Y-129448842D01*
X167411795Y-129481232D01*
X167468693Y-129514333D01*
X167541110Y-129534166D01*
X167622521Y-129540086D01*
X167706401Y-129531446D01*
X167763855Y-129516126D01*
X167845413Y-129476565D01*
X167906923Y-129421487D01*
X167947910Y-129351556D01*
X167967901Y-129267433D01*
X167969922Y-129228365D01*
X167969175Y-129222500D01*
X167779700Y-129222500D01*
X167767982Y-129271329D01*
X167734969Y-129309948D01*
X167683876Y-129334819D01*
X167675755Y-129336934D01*
X167613248Y-129345973D01*
X167543643Y-129347274D01*
X167480019Y-129340876D01*
X167459400Y-129336235D01*
X167418344Y-129319082D01*
X167392048Y-129291896D01*
X167377910Y-129250005D01*
X167373333Y-129188740D01*
X167373300Y-129181574D01*
X167373300Y-129095500D01*
X167490775Y-129096053D01*
X167589233Y-129099517D01*
X167664903Y-129109452D01*
X167719775Y-129126725D01*
X167755838Y-129152208D01*
X167775079Y-129186772D01*
X167779700Y-129222500D01*
X167969175Y-129222500D01*
X167958956Y-129142338D01*
X167926425Y-129068777D01*
X167873875Y-129009616D01*
X167802855Y-128966790D01*
X167745735Y-128948204D01*
X167702091Y-128941041D01*
X167641855Y-128935270D01*
X167573828Y-128931582D01*
X167521945Y-128930598D01*
X167372140Y-128930400D01*
X167375895Y-128845980D01*
X167381980Y-128790187D01*
X167397001Y-128751318D01*
X167424824Y-128726204D01*
X167469314Y-128711679D01*
X167534336Y-128704576D01*
X167549423Y-128703800D01*
X167625622Y-128704847D01*
X167686061Y-128717145D01*
X167738607Y-128742620D01*
X167755528Y-128754226D01*
X167770073Y-128759505D01*
X167789848Y-128753857D01*
X167820069Y-128735053D01*
X167847603Y-128714855D01*
X167883014Y-128686968D01*
X167908661Y-128664572D01*
X167919347Y-128652230D01*
X167919400Y-128651850D01*
X167909118Y-128633443D01*
X167882337Y-128608199D01*
X167845153Y-128580881D01*
X167803665Y-128556250D01*
X167786050Y-128547685D01*
X167734274Y-128529720D01*
X167671544Y-128518696D01*
X167607678Y-128513854D01*
X167488158Y-128516330D01*
M02*
