G04 #@! TF.GenerationSoftware,KiCad,Pcbnew,(5.1.0)-1*
G04 #@! TF.CreationDate,2019-05-25T00:30:21-04:00*
G04 #@! TF.ProjectId,f-ramune_arduino,662d7261-6d75-46e6-955f-61726475696e,rev?*
G04 #@! TF.SameCoordinates,Original*
G04 #@! TF.FileFunction,Copper,L2,Bot*
G04 #@! TF.FilePolarity,Positive*
%FSLAX46Y46*%
G04 Gerber Fmt 4.6, Leading zero omitted, Abs format (unit mm)*
G04 Created by KiCad (PCBNEW (5.1.0)-1) date 2019-05-25 00:30:21*
%MOMM*%
%LPD*%
G04 APERTURE LIST*
%ADD10O,2.000000X1.440000*%
%ADD11R,2.000000X1.440000*%
%ADD12C,2.159000*%
%ADD13C,1.600000*%
%ADD14O,2.400000X1.600000*%
%ADD15R,2.400000X1.600000*%
%ADD16O,1.600000X1.600000*%
%ADD17O,1.800000X1.800000*%
%ADD18R,1.800000X1.800000*%
%ADD19C,1.800000*%
%ADD20O,2.400000X1.700000*%
%ADD21R,2.400000X1.700000*%
%ADD22C,0.800000*%
%ADD23C,0.250000*%
%ADD24C,0.254000*%
G04 APERTURE END LIST*
D10*
X146050000Y-120650000D03*
X135890000Y-120650000D03*
X146050000Y-118110000D03*
X135890000Y-118110000D03*
X146050000Y-115570000D03*
X135890000Y-115570000D03*
X146050000Y-113030000D03*
X135890000Y-113030000D03*
X146050000Y-110490000D03*
X135890000Y-110490000D03*
X146050000Y-107950000D03*
X135890000Y-107950000D03*
X146050000Y-105410000D03*
X135890000Y-105410000D03*
X146050000Y-102870000D03*
X135890000Y-102870000D03*
X146050000Y-100330000D03*
X135890000Y-100330000D03*
X146050000Y-97790000D03*
X135890000Y-97790000D03*
X146050000Y-95250000D03*
X135890000Y-95250000D03*
X146050000Y-92710000D03*
X135890000Y-92710000D03*
X146050000Y-90170000D03*
X135890000Y-90170000D03*
X146050000Y-87630000D03*
D11*
X135890000Y-87630000D03*
D10*
X146050000Y-87630000D03*
X146050000Y-90170000D03*
X146050000Y-92710000D03*
X146050000Y-95250000D03*
X146050000Y-97790000D03*
X146050000Y-100330000D03*
X146050000Y-102870000D03*
X146050000Y-105410000D03*
X146050000Y-107950000D03*
X146050000Y-110490000D03*
X146050000Y-113030000D03*
X146050000Y-115570000D03*
X146050000Y-118110000D03*
X146050000Y-120650000D03*
X146050000Y-120650000D03*
X146050000Y-118110000D03*
X146050000Y-115570000D03*
X146050000Y-113030000D03*
X146050000Y-110490000D03*
X146050000Y-107950000D03*
X146050000Y-105410000D03*
X146050000Y-102870000D03*
X146050000Y-100330000D03*
X146050000Y-97790000D03*
X146050000Y-95250000D03*
X146050000Y-92710000D03*
X146050000Y-90170000D03*
X146050000Y-87630000D03*
X146050000Y-87630000D03*
X146050000Y-90170000D03*
X146050000Y-92710000D03*
X146050000Y-95250000D03*
X146050000Y-97790000D03*
X146050000Y-100330000D03*
X146050000Y-102870000D03*
X146050000Y-105410000D03*
X146050000Y-107950000D03*
X146050000Y-110490000D03*
X146050000Y-113030000D03*
X146050000Y-115570000D03*
X146050000Y-118110000D03*
X146050000Y-120650000D03*
D11*
X138430000Y-87630000D03*
D10*
X138430000Y-90170000D03*
X138430000Y-92710000D03*
X138430000Y-95250000D03*
X138430000Y-97790000D03*
X138430000Y-100330000D03*
X138430000Y-102870000D03*
X138430000Y-105410000D03*
X138430000Y-107950000D03*
X138430000Y-110490000D03*
X138430000Y-113030000D03*
X138430000Y-115570000D03*
X138430000Y-118110000D03*
X138430000Y-120650000D03*
X151130000Y-120650000D03*
X151130000Y-118110000D03*
X151130000Y-115570000D03*
X151130000Y-113030000D03*
X151130000Y-110490000D03*
X151130000Y-107950000D03*
X151130000Y-105410000D03*
X151130000Y-102870000D03*
X151130000Y-100330000D03*
X151130000Y-97790000D03*
X151130000Y-95250000D03*
X151130000Y-92710000D03*
X151130000Y-90170000D03*
X151130000Y-87630000D03*
X151130000Y-87630000D03*
X151130000Y-90170000D03*
X151130000Y-92710000D03*
X151130000Y-95250000D03*
X151130000Y-97790000D03*
X151130000Y-100330000D03*
X151130000Y-102870000D03*
X151130000Y-105410000D03*
X151130000Y-107950000D03*
X151130000Y-110490000D03*
X151130000Y-113030000D03*
X151130000Y-115570000D03*
X151130000Y-118110000D03*
X151130000Y-120650000D03*
X151130000Y-120650000D03*
X151130000Y-118110000D03*
X151130000Y-115570000D03*
X151130000Y-113030000D03*
X151130000Y-110490000D03*
X151130000Y-107950000D03*
X151130000Y-105410000D03*
X151130000Y-102870000D03*
X151130000Y-100330000D03*
X151130000Y-97790000D03*
X151130000Y-95250000D03*
X151130000Y-92710000D03*
X151130000Y-90170000D03*
X151130000Y-87630000D03*
X151130000Y-87630000D03*
X151130000Y-90170000D03*
X151130000Y-92710000D03*
X151130000Y-95250000D03*
X151130000Y-97790000D03*
X151130000Y-100330000D03*
X151130000Y-102870000D03*
X151130000Y-105410000D03*
X151130000Y-107950000D03*
X151130000Y-110490000D03*
X151130000Y-113030000D03*
X151130000Y-115570000D03*
X151130000Y-118110000D03*
X151130000Y-120650000D03*
D12*
X180380640Y-128168400D03*
X180380640Y-115671600D03*
X185379360Y-128168400D03*
X185379360Y-115671600D03*
D13*
X170220000Y-124460000D03*
X172720000Y-124460000D03*
D14*
X120650000Y-125095000D03*
X128270000Y-107315000D03*
X120650000Y-122555000D03*
X128270000Y-109855000D03*
X120650000Y-120015000D03*
X128270000Y-112395000D03*
X120650000Y-117475000D03*
X128270000Y-114935000D03*
X120650000Y-114935000D03*
X128270000Y-117475000D03*
X120650000Y-112395000D03*
X128270000Y-120015000D03*
X120650000Y-109855000D03*
X128270000Y-122555000D03*
X120650000Y-107315000D03*
D15*
X128270000Y-125095000D03*
D14*
X120650000Y-96520000D03*
X128270000Y-78740000D03*
X120650000Y-93980000D03*
X128270000Y-81280000D03*
X120650000Y-91440000D03*
X128270000Y-83820000D03*
X120650000Y-88900000D03*
X128270000Y-86360000D03*
X120650000Y-86360000D03*
X128270000Y-88900000D03*
X120650000Y-83820000D03*
X128270000Y-91440000D03*
X120650000Y-81280000D03*
X128270000Y-93980000D03*
X120650000Y-78740000D03*
D15*
X128270000Y-96520000D03*
D16*
X157480000Y-117856000D03*
D13*
X167640000Y-117856000D03*
D16*
X180340000Y-111760000D03*
D13*
X180340000Y-101600000D03*
D16*
X185420000Y-111760000D03*
D13*
X185420000Y-101600000D03*
D16*
X187960000Y-87630000D03*
D13*
X187960000Y-77470000D03*
D16*
X184404000Y-87630000D03*
D13*
X184404000Y-77470000D03*
D17*
X185420000Y-95250000D03*
X182880000Y-95250000D03*
D18*
X180340000Y-95250000D03*
D19*
X177800000Y-78740000D03*
D18*
X180340000Y-78740000D03*
D19*
X177800000Y-86360000D03*
D18*
X180340000Y-86360000D03*
D20*
X172720000Y-78740000D03*
X157480000Y-78740000D03*
X172720000Y-81280000D03*
X157480000Y-81280000D03*
X172720000Y-83820000D03*
X157480000Y-83820000D03*
X172720000Y-86360000D03*
X157480000Y-86360000D03*
X172720000Y-88900000D03*
X157480000Y-88900000D03*
X172720000Y-91440000D03*
X157480000Y-91440000D03*
X172720000Y-93980000D03*
X157480000Y-93980000D03*
X172720000Y-96520000D03*
X157480000Y-96520000D03*
X172720000Y-99060000D03*
X157480000Y-99060000D03*
X172720000Y-101600000D03*
X157480000Y-101600000D03*
X172720000Y-104140000D03*
X157480000Y-104140000D03*
X172720000Y-106680000D03*
X157480000Y-106680000D03*
X172720000Y-109220000D03*
X157480000Y-109220000D03*
X172720000Y-111760000D03*
X157480000Y-111760000D03*
D21*
X172720000Y-114300000D03*
D20*
X157480000Y-114300000D03*
D22*
X132080000Y-81280000D03*
X133350000Y-82550000D03*
X125730000Y-86360000D03*
X123190000Y-85090000D03*
X123190000Y-113030000D03*
X161290000Y-109220000D03*
X140933010Y-97409000D03*
X122936000Y-99822000D03*
X125984000Y-100838000D03*
X125730000Y-78740000D03*
X125730000Y-81280000D03*
X125984000Y-103886000D03*
X125984014Y-115062000D03*
X153289000Y-101854000D03*
X156210000Y-123190000D03*
X165099972Y-123190000D03*
D23*
X180380640Y-128168400D02*
X180380640Y-115671600D01*
X173070000Y-78740000D02*
X172720000Y-78740000D01*
X175260000Y-80930000D02*
X173070000Y-78740000D01*
X182387240Y-113665000D02*
X185928000Y-113665000D01*
X180380640Y-115671600D02*
X182387240Y-113665000D01*
X185928000Y-113665000D02*
X187198000Y-112395000D01*
X187198000Y-112395000D02*
X187198000Y-110744000D01*
X187198000Y-110744000D02*
X175260000Y-98806000D01*
X175260000Y-98806000D02*
X175260000Y-80930000D01*
X121050000Y-91440000D02*
X120650000Y-91440000D01*
X122175010Y-90314990D02*
X121050000Y-91440000D01*
X122175010Y-87923986D02*
X122175010Y-90314990D01*
X127404006Y-82694990D02*
X122175010Y-87923986D01*
X130665010Y-82694990D02*
X127404006Y-82694990D01*
X132080000Y-81280000D02*
X130665010Y-82694990D01*
X130665010Y-85234990D02*
X126855010Y-85234990D01*
X133350000Y-82550000D02*
X130665010Y-85234990D01*
X126855010Y-85234990D02*
X125730000Y-86360000D01*
X125730000Y-86360000D02*
X125730000Y-86360000D01*
X120650000Y-85310000D02*
X120650000Y-86360000D01*
X120870000Y-85090000D02*
X120650000Y-85310000D01*
X123190000Y-85090000D02*
X120870000Y-85090000D01*
X123190000Y-113030000D02*
X123190000Y-113030000D01*
X124460000Y-111760000D02*
X123190000Y-113030000D01*
X125730000Y-86360000D02*
X124460000Y-87630000D01*
X124460000Y-87630000D02*
X124460000Y-111760000D01*
X161290000Y-109220000D02*
X161290000Y-109220000D01*
X170220000Y-115610000D02*
X170220000Y-124460000D01*
X161290000Y-109220000D02*
X163830000Y-109220000D01*
X163830000Y-109220000D02*
X170220000Y-115610000D01*
X154795001Y-126855001D02*
X166514999Y-126855001D01*
X166514999Y-126855001D02*
X167640000Y-125730000D01*
X119380000Y-96520000D02*
X120650000Y-96520000D01*
X118110000Y-97790000D02*
X119380000Y-96520000D01*
X119380000Y-110490000D02*
X118110000Y-109220000D01*
X118110000Y-109220000D02*
X118110000Y-97790000D01*
X119380000Y-81280000D02*
X120650000Y-81280000D01*
X118110000Y-82550000D02*
X119380000Y-81280000D01*
X119380000Y-96520000D02*
X118110000Y-95250000D01*
X118110000Y-95250000D02*
X118110000Y-82550000D01*
X125730000Y-76200000D02*
X120650000Y-81280000D01*
X137160000Y-76200000D02*
X125730000Y-76200000D01*
X146050000Y-87630000D02*
X146050000Y-85090000D01*
X146050000Y-85090000D02*
X137160000Y-76200000D01*
X149860000Y-86360000D02*
X151130000Y-87630000D01*
X146050000Y-87630000D02*
X147320000Y-86360000D01*
X147320000Y-86360000D02*
X149860000Y-86360000D01*
X167640000Y-117475000D02*
X167640000Y-125730000D01*
X156591000Y-106680000D02*
X157480000Y-106680000D01*
X154305000Y-108966000D02*
X156591000Y-106680000D01*
X154795001Y-126855001D02*
X154305000Y-126365000D01*
X154305000Y-126365000D02*
X154305000Y-108966000D01*
X118110000Y-111760000D02*
X118110000Y-122555000D01*
X118110000Y-122555000D02*
X120650000Y-125095000D01*
X153634002Y-128016000D02*
X154795001Y-126855001D01*
X120650000Y-125095000D02*
X120650000Y-127508000D01*
X119380000Y-110490000D02*
X118110000Y-111760000D01*
X120650000Y-127508000D02*
X121158000Y-128016000D01*
X121158000Y-128016000D02*
X153634002Y-128016000D01*
X119815000Y-110055000D02*
X119380000Y-110490000D01*
X120332500Y-110055000D02*
X119815000Y-110055000D01*
X146050000Y-113030000D02*
X151130000Y-113030000D01*
X146050000Y-102870000D02*
X151130000Y-102870000D01*
X146050000Y-107950000D02*
X151130000Y-107950000D01*
X152455010Y-106904990D02*
X151410000Y-107950000D01*
X157130000Y-96520000D02*
X152455010Y-101194990D01*
X157480000Y-96520000D02*
X157130000Y-96520000D01*
X152455010Y-101194990D02*
X152455010Y-106904990D01*
X151410000Y-107950000D02*
X151130000Y-107950000D01*
X157830000Y-96520000D02*
X157480000Y-96520000D01*
X160020000Y-98710000D02*
X157830000Y-96520000D01*
X157480000Y-117856000D02*
X160020000Y-115316000D01*
X160020000Y-115316000D02*
X160020000Y-98710000D01*
X151130000Y-118110000D02*
X146050000Y-118110000D01*
X179540001Y-110960001D02*
X180340000Y-111760000D01*
X176624990Y-108044990D02*
X179540001Y-110960001D01*
X171894990Y-108044990D02*
X176624990Y-108044990D01*
X157830000Y-93980000D02*
X171894990Y-108044990D01*
X157480000Y-93980000D02*
X157830000Y-93980000D01*
X185420000Y-111760000D02*
X180340000Y-111760000D01*
X138710000Y-118110000D02*
X143002000Y-113818000D01*
X138430000Y-118110000D02*
X138710000Y-118110000D01*
X157130000Y-91440000D02*
X157480000Y-91440000D01*
X143002000Y-113818000D02*
X143002000Y-98425000D01*
X143002000Y-98425000D02*
X144907000Y-96520000D01*
X144907000Y-96520000D02*
X152050000Y-96520000D01*
X152050000Y-96520000D02*
X157130000Y-91440000D01*
X152380000Y-90170000D02*
X151130000Y-90170000D01*
X158400000Y-90170000D02*
X152380000Y-90170000D01*
X172370000Y-104140000D02*
X158400000Y-90170000D01*
X172720000Y-104140000D02*
X172370000Y-104140000D01*
X138430000Y-115570000D02*
X135890000Y-115570000D01*
X156030000Y-88900000D02*
X157480000Y-88900000D01*
X145562133Y-88900000D02*
X156030000Y-88900000D01*
X141986000Y-92476133D02*
X145562133Y-88900000D01*
X141986000Y-112294000D02*
X141986000Y-92476133D01*
X138430000Y-115570000D02*
X138710000Y-115570000D01*
X138710000Y-115570000D02*
X141986000Y-112294000D01*
X138430000Y-113030000D02*
X138710000Y-113030000D01*
X140933010Y-110806990D02*
X140933010Y-97974685D01*
X140933010Y-97974685D02*
X140933010Y-97409000D01*
X138710000Y-113030000D02*
X140933010Y-110806990D01*
X135890000Y-110490000D02*
X138430000Y-110490000D01*
X121050000Y-93980000D02*
X122936000Y-95866000D01*
X122936000Y-99256315D02*
X122936000Y-99822000D01*
X120650000Y-93980000D02*
X121050000Y-93980000D01*
X122936000Y-95866000D02*
X122936000Y-99256315D01*
X128905000Y-100838000D02*
X125984000Y-100838000D01*
X131445000Y-98298000D02*
X128905000Y-100838000D01*
X131445000Y-88392000D02*
X131445000Y-98298000D01*
X138430000Y-110490000D02*
X138710000Y-110490000D01*
X140208000Y-108992000D02*
X140208000Y-86233000D01*
X140208000Y-86233000D02*
X139700000Y-85725000D01*
X138710000Y-110490000D02*
X140208000Y-108992000D01*
X139700000Y-85725000D02*
X134112000Y-85725000D01*
X134112000Y-85725000D02*
X131445000Y-88392000D01*
X138430000Y-95250000D02*
X135890000Y-95250000D01*
X135890000Y-100330000D02*
X138430000Y-100330000D01*
X138430000Y-105410000D02*
X135890000Y-105410000D01*
X125730000Y-78740000D02*
X125730000Y-81280000D01*
X125730000Y-81280000D02*
X125730000Y-81280000D01*
X125984000Y-103886000D02*
X125984000Y-115061986D01*
X125984000Y-115061986D02*
X125984014Y-115062000D01*
X134493000Y-87630000D02*
X135890000Y-87630000D01*
X132588000Y-89535000D02*
X134493000Y-87630000D01*
X132588000Y-108585000D02*
X132588000Y-89535000D01*
X128270000Y-112395000D02*
X128778000Y-112395000D01*
X128778000Y-112395000D02*
X132588000Y-108585000D01*
X151130000Y-92710000D02*
X146050000Y-92710000D01*
X135890000Y-90170000D02*
X138430000Y-90170000D01*
X135128000Y-90170000D02*
X135890000Y-90170000D01*
X133604000Y-91694000D02*
X135128000Y-90170000D01*
X133604000Y-113176000D02*
X133604000Y-91694000D01*
X129305000Y-117475000D02*
X133604000Y-113176000D01*
X128270000Y-117475000D02*
X129305000Y-117475000D01*
X146050000Y-97790000D02*
X151130000Y-97790000D01*
X148082000Y-125730000D02*
X153289000Y-120523000D01*
X153289000Y-102419685D02*
X153289000Y-101854000D01*
X153289000Y-120523000D02*
X153289000Y-102419685D01*
X128270000Y-125730000D02*
X148082000Y-125730000D01*
X135890000Y-120650000D02*
X138430000Y-120650000D01*
X161290000Y-123190000D02*
X161290000Y-123190000D01*
X156210000Y-123190000D02*
X165099972Y-123190000D01*
X180340000Y-81534000D02*
X184404000Y-77470000D01*
X180340000Y-86360000D02*
X180340000Y-81534000D01*
D24*
G36*
X167833748Y-117841858D02*
G01*
X167819605Y-117856000D01*
X168632702Y-118669097D01*
X168783000Y-118624998D01*
X168783000Y-126947394D01*
X166531771Y-129198623D01*
X167522937Y-119286971D01*
X167710512Y-119296217D01*
X167990130Y-119254787D01*
X168256292Y-119159603D01*
X168381514Y-119092671D01*
X168453097Y-118848702D01*
X167647339Y-118042944D01*
X167682566Y-117690676D01*
X167833748Y-117841858D01*
X167833748Y-117841858D01*
G37*
X167833748Y-117841858D02*
X167819605Y-117856000D01*
X168632702Y-118669097D01*
X168783000Y-118624998D01*
X168783000Y-126947394D01*
X166531771Y-129198623D01*
X167522937Y-119286971D01*
X167710512Y-119296217D01*
X167990130Y-119254787D01*
X168256292Y-119159603D01*
X168381514Y-119092671D01*
X168453097Y-118848702D01*
X167647339Y-118042944D01*
X167682566Y-117690676D01*
X167833748Y-117841858D01*
G36*
X154813000Y-87503000D02*
G01*
X152765000Y-87503000D01*
X152765000Y-87502998D01*
X152599490Y-87502998D01*
X152722559Y-87293528D01*
X152710458Y-87228797D01*
X152607199Y-86982799D01*
X152457933Y-86761673D01*
X152268395Y-86573916D01*
X152045869Y-86426744D01*
X151798907Y-86325812D01*
X151537000Y-86275000D01*
X151257000Y-86275000D01*
X151257000Y-87503000D01*
X151003000Y-87503000D01*
X151003000Y-86275000D01*
X150723000Y-86275000D01*
X150461093Y-86325812D01*
X150214131Y-86426744D01*
X149991605Y-86573916D01*
X149802067Y-86761673D01*
X149652801Y-86982799D01*
X149549542Y-87228797D01*
X149537441Y-87293528D01*
X149660510Y-87502998D01*
X149495000Y-87502998D01*
X149495000Y-87503000D01*
X147685000Y-87503000D01*
X147685000Y-87502998D01*
X147519490Y-87502998D01*
X147642559Y-87293528D01*
X147630458Y-87228797D01*
X147527199Y-86982799D01*
X147377933Y-86761673D01*
X147188395Y-86573916D01*
X146965869Y-86426744D01*
X146718907Y-86325812D01*
X146457000Y-86275000D01*
X146177000Y-86275000D01*
X146177000Y-87503000D01*
X145923000Y-87503000D01*
X145923000Y-86275000D01*
X145643000Y-86275000D01*
X145381093Y-86325812D01*
X145134131Y-86426744D01*
X144911605Y-86573916D01*
X144722067Y-86761673D01*
X144572801Y-86982799D01*
X144495814Y-87166208D01*
X139117606Y-81788000D01*
X145415000Y-81788000D01*
X145415000Y-83820000D01*
X145417440Y-83844776D01*
X145424667Y-83868601D01*
X145436403Y-83890557D01*
X145452197Y-83909803D01*
X145471443Y-83925597D01*
X145493399Y-83937333D01*
X145517224Y-83944560D01*
X145542000Y-83947000D01*
X150114000Y-83947000D01*
X150138776Y-83944560D01*
X150162601Y-83937333D01*
X150184557Y-83925597D01*
X150203803Y-83909803D01*
X150219597Y-83890557D01*
X150231333Y-83868601D01*
X150238560Y-83844776D01*
X150241000Y-83820000D01*
X150241000Y-81788000D01*
X151003000Y-81788000D01*
X151003000Y-83820000D01*
X151005440Y-83844776D01*
X151012667Y-83868601D01*
X151024403Y-83890557D01*
X151040197Y-83909803D01*
X151059443Y-83925597D01*
X151081399Y-83937333D01*
X151105224Y-83944560D01*
X151130000Y-83947000D01*
X153670000Y-83947000D01*
X153694776Y-83944560D01*
X153718601Y-83937333D01*
X153740557Y-83925597D01*
X153759803Y-83909803D01*
X153775597Y-83890557D01*
X153787333Y-83868601D01*
X153794560Y-83844776D01*
X153797000Y-83820000D01*
X153797000Y-81788000D01*
X153794560Y-81763224D01*
X153787333Y-81739399D01*
X153775597Y-81717443D01*
X153759803Y-81698197D01*
X153740557Y-81682403D01*
X153718601Y-81670667D01*
X153694776Y-81663440D01*
X153670000Y-81661000D01*
X151130000Y-81661000D01*
X151105224Y-81663440D01*
X151081399Y-81670667D01*
X151059443Y-81682403D01*
X151040197Y-81698197D01*
X151024403Y-81717443D01*
X151012667Y-81739399D01*
X151005440Y-81763224D01*
X151003000Y-81788000D01*
X150241000Y-81788000D01*
X150238560Y-81763224D01*
X150231333Y-81739399D01*
X150219597Y-81717443D01*
X150203803Y-81698197D01*
X150184557Y-81682403D01*
X150162601Y-81670667D01*
X150138776Y-81663440D01*
X150114000Y-81661000D01*
X145542000Y-81661000D01*
X145517224Y-81663440D01*
X145493399Y-81670667D01*
X145471443Y-81682403D01*
X145452197Y-81698197D01*
X145436403Y-81717443D01*
X145424667Y-81739399D01*
X145417440Y-81763224D01*
X145415000Y-81788000D01*
X139117606Y-81788000D01*
X136069606Y-78740000D01*
X145415000Y-78740000D01*
X145415000Y-80772000D01*
X145417440Y-80796776D01*
X145424667Y-80820601D01*
X145436403Y-80842557D01*
X145452197Y-80861803D01*
X145471443Y-80877597D01*
X145493399Y-80889333D01*
X145517224Y-80896560D01*
X145542000Y-80899000D01*
X150114000Y-80899000D01*
X150138776Y-80896560D01*
X150162601Y-80889333D01*
X150184557Y-80877597D01*
X150203803Y-80861803D01*
X150219597Y-80842557D01*
X150231333Y-80820601D01*
X150238560Y-80796776D01*
X150241000Y-80772000D01*
X150241000Y-78740000D01*
X151003000Y-78740000D01*
X151003000Y-80772000D01*
X151005440Y-80796776D01*
X151012667Y-80820601D01*
X151024403Y-80842557D01*
X151040197Y-80861803D01*
X151059443Y-80877597D01*
X151081399Y-80889333D01*
X151105224Y-80896560D01*
X151130000Y-80899000D01*
X153670000Y-80899000D01*
X153694776Y-80896560D01*
X153718601Y-80889333D01*
X153740557Y-80877597D01*
X153759803Y-80861803D01*
X153775597Y-80842557D01*
X153787333Y-80820601D01*
X153794560Y-80796776D01*
X153797000Y-80772000D01*
X153797000Y-78740000D01*
X153794560Y-78715224D01*
X153787333Y-78691399D01*
X153775597Y-78669443D01*
X153759803Y-78650197D01*
X153740557Y-78634403D01*
X153718601Y-78622667D01*
X153694776Y-78615440D01*
X153670000Y-78613000D01*
X151130000Y-78613000D01*
X151105224Y-78615440D01*
X151081399Y-78622667D01*
X151059443Y-78634403D01*
X151040197Y-78650197D01*
X151024403Y-78669443D01*
X151012667Y-78691399D01*
X151005440Y-78715224D01*
X151003000Y-78740000D01*
X150241000Y-78740000D01*
X150238560Y-78715224D01*
X150231333Y-78691399D01*
X150219597Y-78669443D01*
X150203803Y-78650197D01*
X150184557Y-78634403D01*
X150162601Y-78622667D01*
X150138776Y-78615440D01*
X150114000Y-78613000D01*
X145542000Y-78613000D01*
X145517224Y-78615440D01*
X145493399Y-78622667D01*
X145471443Y-78634403D01*
X145452197Y-78650197D01*
X145436403Y-78669443D01*
X145424667Y-78691399D01*
X145417440Y-78715224D01*
X145415000Y-78740000D01*
X136069606Y-78740000D01*
X134709803Y-77380197D01*
X134690557Y-77364403D01*
X134668601Y-77352667D01*
X134644776Y-77345440D01*
X134620000Y-77343000D01*
X129008129Y-77343000D01*
X128951309Y-77325764D01*
X128740492Y-77305000D01*
X127799508Y-77305000D01*
X127588691Y-77325764D01*
X127531871Y-77343000D01*
X125730000Y-77343000D01*
X125705224Y-77345440D01*
X125681399Y-77352667D01*
X125659443Y-77364403D01*
X125640197Y-77380197D01*
X125112734Y-77907660D01*
X125070226Y-77936063D01*
X124926063Y-78080226D01*
X124897660Y-78122734D01*
X122349055Y-80671339D01*
X122313715Y-80588354D01*
X122154500Y-80355105D01*
X121952839Y-80157399D01*
X121723259Y-80007265D01*
X121851101Y-79938932D01*
X122069608Y-79759608D01*
X122248932Y-79541101D01*
X122382182Y-79291808D01*
X122464236Y-79021309D01*
X122491943Y-78740000D01*
X122464236Y-78458691D01*
X122382182Y-78188192D01*
X122248932Y-77938899D01*
X122069608Y-77720392D01*
X121851101Y-77541068D01*
X121601808Y-77407818D01*
X121331309Y-77325764D01*
X121120492Y-77305000D01*
X120179508Y-77305000D01*
X119968691Y-77325764D01*
X119698192Y-77407818D01*
X119448899Y-77541068D01*
X119230392Y-77720392D01*
X119051068Y-77938899D01*
X118917818Y-78188192D01*
X118835764Y-78458691D01*
X118808057Y-78740000D01*
X118835764Y-79021309D01*
X118917818Y-79291808D01*
X119051068Y-79541101D01*
X119230392Y-79759608D01*
X119448899Y-79938932D01*
X119576741Y-80007265D01*
X119347161Y-80157399D01*
X119145500Y-80355105D01*
X118986285Y-80588354D01*
X118875633Y-80848182D01*
X118858096Y-80930961D01*
X118980085Y-81153000D01*
X120523000Y-81153000D01*
X120523000Y-81133000D01*
X120777000Y-81133000D01*
X120777000Y-81153000D01*
X120650000Y-81153000D01*
X120625224Y-81155440D01*
X120601399Y-81162667D01*
X120579443Y-81174403D01*
X120560197Y-81190197D01*
X120343394Y-81407000D01*
X118980085Y-81407000D01*
X118858096Y-81629039D01*
X118875633Y-81711818D01*
X118986285Y-81971646D01*
X119145500Y-82204895D01*
X119347161Y-82402601D01*
X119347543Y-82402851D01*
X119290197Y-82460197D01*
X119274403Y-82479443D01*
X119262667Y-82501399D01*
X119255440Y-82525224D01*
X119253000Y-82550000D01*
X119253000Y-82781838D01*
X119230392Y-82800392D01*
X119051068Y-83018899D01*
X118917818Y-83268192D01*
X118835764Y-83538691D01*
X118808057Y-83820000D01*
X118835764Y-84101309D01*
X118917818Y-84371808D01*
X119051068Y-84621101D01*
X119230392Y-84839608D01*
X119253000Y-84858162D01*
X119253000Y-85321838D01*
X119230392Y-85340392D01*
X119051068Y-85558899D01*
X118917818Y-85808192D01*
X118835764Y-86078691D01*
X118808057Y-86360000D01*
X118835764Y-86641309D01*
X118917818Y-86911808D01*
X119051068Y-87161101D01*
X119230392Y-87379608D01*
X119253000Y-87398162D01*
X119253000Y-87861838D01*
X119230392Y-87880392D01*
X119051068Y-88098899D01*
X118917818Y-88348192D01*
X118835764Y-88618691D01*
X118808057Y-88900000D01*
X118835764Y-89181309D01*
X118917818Y-89451808D01*
X119051068Y-89701101D01*
X119230392Y-89919608D01*
X119253000Y-89938162D01*
X119253000Y-90401838D01*
X119230392Y-90420392D01*
X119051068Y-90638899D01*
X118917818Y-90888192D01*
X118835764Y-91158691D01*
X118808057Y-91440000D01*
X118835764Y-91721309D01*
X118917818Y-91991808D01*
X119051068Y-92241101D01*
X119230392Y-92459608D01*
X119253000Y-92478162D01*
X119253000Y-92941838D01*
X119230392Y-92960392D01*
X119051068Y-93178899D01*
X118917818Y-93428192D01*
X118835764Y-93698691D01*
X118808057Y-93980000D01*
X118835764Y-94261309D01*
X118917818Y-94531808D01*
X119051068Y-94781101D01*
X119230392Y-94999608D01*
X119253000Y-95018162D01*
X119253000Y-95250000D01*
X119255440Y-95274776D01*
X119262667Y-95298601D01*
X119274403Y-95320557D01*
X119290197Y-95339803D01*
X119347543Y-95397149D01*
X119347161Y-95397399D01*
X119145500Y-95595105D01*
X118986285Y-95828354D01*
X118875633Y-96088182D01*
X118858096Y-96170961D01*
X118980085Y-96393000D01*
X120343394Y-96393000D01*
X120495471Y-96545077D01*
X120444510Y-96647000D01*
X118980085Y-96647000D01*
X118858096Y-96869039D01*
X118875633Y-96951818D01*
X118986285Y-97211646D01*
X119145500Y-97444895D01*
X119347161Y-97642601D01*
X119583517Y-97797166D01*
X119821512Y-97892996D01*
X119266408Y-99003204D01*
X119257510Y-99026456D01*
X119253000Y-99060000D01*
X119253000Y-106276838D01*
X119230392Y-106295392D01*
X119051068Y-106513899D01*
X118917818Y-106763192D01*
X118835764Y-107033691D01*
X118808057Y-107315000D01*
X118835764Y-107596309D01*
X118917818Y-107866808D01*
X119051068Y-108116101D01*
X119230392Y-108334608D01*
X119253000Y-108353162D01*
X119253000Y-108824713D01*
X119145500Y-108930105D01*
X118986285Y-109163354D01*
X118875633Y-109423182D01*
X118858096Y-109505961D01*
X118980085Y-109728000D01*
X119708394Y-109728000D01*
X119962394Y-109982000D01*
X118980085Y-109982000D01*
X118858096Y-110204039D01*
X118875633Y-110286818D01*
X118986285Y-110546646D01*
X119145500Y-110779895D01*
X119347161Y-110977601D01*
X119576741Y-111127735D01*
X119448899Y-111196068D01*
X119230392Y-111375392D01*
X119051068Y-111593899D01*
X118917818Y-111843192D01*
X118835764Y-112113691D01*
X118808057Y-112395000D01*
X118835764Y-112676309D01*
X118917818Y-112946808D01*
X119051068Y-113196101D01*
X119230392Y-113414608D01*
X119253000Y-113433162D01*
X119253000Y-113896838D01*
X119230392Y-113915392D01*
X119051068Y-114133899D01*
X118917818Y-114383192D01*
X118835764Y-114653691D01*
X118808057Y-114935000D01*
X118835764Y-115216309D01*
X118917818Y-115486808D01*
X119051068Y-115736101D01*
X119230392Y-115954608D01*
X119253000Y-115973162D01*
X119253000Y-116436838D01*
X119230392Y-116455392D01*
X119051068Y-116673899D01*
X118917818Y-116923192D01*
X118835764Y-117193691D01*
X118808057Y-117475000D01*
X118835764Y-117756309D01*
X118917818Y-118026808D01*
X119051068Y-118276101D01*
X119230392Y-118494608D01*
X119253000Y-118513162D01*
X119253000Y-118976838D01*
X119230392Y-118995392D01*
X119051068Y-119213899D01*
X118917818Y-119463192D01*
X118835764Y-119733691D01*
X118808057Y-120015000D01*
X118835764Y-120296309D01*
X118917818Y-120566808D01*
X119051068Y-120816101D01*
X119230392Y-121034608D01*
X119253000Y-121053162D01*
X119253000Y-121516838D01*
X119230392Y-121535392D01*
X119051068Y-121753899D01*
X118917818Y-122003192D01*
X118835764Y-122273691D01*
X118808057Y-122555000D01*
X118835764Y-122836309D01*
X118917818Y-123106808D01*
X119051068Y-123356101D01*
X119230392Y-123574608D01*
X119253000Y-123593162D01*
X119253000Y-124064713D01*
X119145500Y-124170105D01*
X118986285Y-124403354D01*
X118875633Y-124663182D01*
X118858096Y-124745961D01*
X118980085Y-124968000D01*
X119708394Y-124968000D01*
X119962394Y-125222000D01*
X118980085Y-125222000D01*
X118858096Y-125444039D01*
X118875633Y-125526818D01*
X118986285Y-125786646D01*
X119145500Y-126019895D01*
X119347161Y-126217601D01*
X119583517Y-126372166D01*
X119845486Y-126477650D01*
X120123000Y-126530000D01*
X120523000Y-126530000D01*
X120523000Y-125782606D01*
X120777000Y-126036606D01*
X120777000Y-126530000D01*
X121177000Y-126530000D01*
X121255572Y-126515178D01*
X121830197Y-127089803D01*
X121849443Y-127105597D01*
X121871399Y-127117333D01*
X121895224Y-127124560D01*
X121920000Y-127127000D01*
X147320000Y-127127000D01*
X147344776Y-127124560D01*
X147368601Y-127117333D01*
X147390557Y-127105597D01*
X147409803Y-127089803D01*
X148009606Y-126490000D01*
X148044678Y-126490000D01*
X148082000Y-126493676D01*
X148119322Y-126490000D01*
X148119333Y-126490000D01*
X148230986Y-126479003D01*
X148374247Y-126435546D01*
X148506276Y-126364974D01*
X148622001Y-126270001D01*
X148645804Y-126240997D01*
X150299801Y-124587000D01*
X152400000Y-124587000D01*
X152424776Y-124584560D01*
X152448601Y-124577333D01*
X152470557Y-124565597D01*
X152489803Y-124549803D01*
X153759803Y-123279803D01*
X153775597Y-123260557D01*
X153787333Y-123238601D01*
X153794560Y-123214776D01*
X153797000Y-123190000D01*
X153797000Y-121089802D01*
X153800004Y-121086798D01*
X153829001Y-121063001D01*
X153855332Y-121030917D01*
X153923974Y-120947277D01*
X153994546Y-120815247D01*
X153999479Y-120798986D01*
X154038003Y-120671986D01*
X154049000Y-120560333D01*
X154049000Y-120560323D01*
X154052676Y-120523001D01*
X154049000Y-120485678D01*
X154049000Y-107750606D01*
X154992606Y-106807000D01*
X155645000Y-106807000D01*
X155645000Y-106807002D01*
X155809844Y-106807002D01*
X155688524Y-107036890D01*
X155709437Y-107130953D01*
X155824709Y-107399426D01*
X155990143Y-107640252D01*
X156167393Y-107813001D01*
X154850197Y-109130197D01*
X154834403Y-109149443D01*
X154822667Y-109171399D01*
X154815440Y-109195224D01*
X154813000Y-109220000D01*
X154813000Y-123190000D01*
X154815440Y-123214776D01*
X154822667Y-123238601D01*
X154834403Y-123260557D01*
X154850197Y-123279803D01*
X155377660Y-123807266D01*
X155406063Y-123849774D01*
X155550226Y-123993937D01*
X155592734Y-124022340D01*
X156120197Y-124549803D01*
X156139443Y-124565597D01*
X156161399Y-124577333D01*
X156185224Y-124584560D01*
X156210000Y-124587000D01*
X166370000Y-124587000D01*
X166394776Y-124584560D01*
X166418601Y-124577333D01*
X166440557Y-124565597D01*
X166459803Y-124549803D01*
X166475597Y-124530557D01*
X166487333Y-124508601D01*
X166494560Y-124484776D01*
X166497000Y-124460000D01*
X166497000Y-118624998D01*
X166647298Y-118669097D01*
X167460395Y-117856000D01*
X167446253Y-117841858D01*
X167513000Y-117775110D01*
X167513000Y-118162605D01*
X166826903Y-118848702D01*
X166898486Y-119092671D01*
X167153996Y-119213571D01*
X167428184Y-119282300D01*
X167513000Y-119286481D01*
X167513000Y-128217394D01*
X165580394Y-130150000D01*
X119653381Y-130150000D01*
X117500000Y-127996620D01*
X117500000Y-77743380D01*
X119653381Y-75590000D01*
X154813000Y-75590000D01*
X154813000Y-87503000D01*
X154813000Y-87503000D01*
G37*
X154813000Y-87503000D02*
X152765000Y-87503000D01*
X152765000Y-87502998D01*
X152599490Y-87502998D01*
X152722559Y-87293528D01*
X152710458Y-87228797D01*
X152607199Y-86982799D01*
X152457933Y-86761673D01*
X152268395Y-86573916D01*
X152045869Y-86426744D01*
X151798907Y-86325812D01*
X151537000Y-86275000D01*
X151257000Y-86275000D01*
X151257000Y-87503000D01*
X151003000Y-87503000D01*
X151003000Y-86275000D01*
X150723000Y-86275000D01*
X150461093Y-86325812D01*
X150214131Y-86426744D01*
X149991605Y-86573916D01*
X149802067Y-86761673D01*
X149652801Y-86982799D01*
X149549542Y-87228797D01*
X149537441Y-87293528D01*
X149660510Y-87502998D01*
X149495000Y-87502998D01*
X149495000Y-87503000D01*
X147685000Y-87503000D01*
X147685000Y-87502998D01*
X147519490Y-87502998D01*
X147642559Y-87293528D01*
X147630458Y-87228797D01*
X147527199Y-86982799D01*
X147377933Y-86761673D01*
X147188395Y-86573916D01*
X146965869Y-86426744D01*
X146718907Y-86325812D01*
X146457000Y-86275000D01*
X146177000Y-86275000D01*
X146177000Y-87503000D01*
X145923000Y-87503000D01*
X145923000Y-86275000D01*
X145643000Y-86275000D01*
X145381093Y-86325812D01*
X145134131Y-86426744D01*
X144911605Y-86573916D01*
X144722067Y-86761673D01*
X144572801Y-86982799D01*
X144495814Y-87166208D01*
X139117606Y-81788000D01*
X145415000Y-81788000D01*
X145415000Y-83820000D01*
X145417440Y-83844776D01*
X145424667Y-83868601D01*
X145436403Y-83890557D01*
X145452197Y-83909803D01*
X145471443Y-83925597D01*
X145493399Y-83937333D01*
X145517224Y-83944560D01*
X145542000Y-83947000D01*
X150114000Y-83947000D01*
X150138776Y-83944560D01*
X150162601Y-83937333D01*
X150184557Y-83925597D01*
X150203803Y-83909803D01*
X150219597Y-83890557D01*
X150231333Y-83868601D01*
X150238560Y-83844776D01*
X150241000Y-83820000D01*
X150241000Y-81788000D01*
X151003000Y-81788000D01*
X151003000Y-83820000D01*
X151005440Y-83844776D01*
X151012667Y-83868601D01*
X151024403Y-83890557D01*
X151040197Y-83909803D01*
X151059443Y-83925597D01*
X151081399Y-83937333D01*
X151105224Y-83944560D01*
X151130000Y-83947000D01*
X153670000Y-83947000D01*
X153694776Y-83944560D01*
X153718601Y-83937333D01*
X153740557Y-83925597D01*
X153759803Y-83909803D01*
X153775597Y-83890557D01*
X153787333Y-83868601D01*
X153794560Y-83844776D01*
X153797000Y-83820000D01*
X153797000Y-81788000D01*
X153794560Y-81763224D01*
X153787333Y-81739399D01*
X153775597Y-81717443D01*
X153759803Y-81698197D01*
X153740557Y-81682403D01*
X153718601Y-81670667D01*
X153694776Y-81663440D01*
X153670000Y-81661000D01*
X151130000Y-81661000D01*
X151105224Y-81663440D01*
X151081399Y-81670667D01*
X151059443Y-81682403D01*
X151040197Y-81698197D01*
X151024403Y-81717443D01*
X151012667Y-81739399D01*
X151005440Y-81763224D01*
X151003000Y-81788000D01*
X150241000Y-81788000D01*
X150238560Y-81763224D01*
X150231333Y-81739399D01*
X150219597Y-81717443D01*
X150203803Y-81698197D01*
X150184557Y-81682403D01*
X150162601Y-81670667D01*
X150138776Y-81663440D01*
X150114000Y-81661000D01*
X145542000Y-81661000D01*
X145517224Y-81663440D01*
X145493399Y-81670667D01*
X145471443Y-81682403D01*
X145452197Y-81698197D01*
X145436403Y-81717443D01*
X145424667Y-81739399D01*
X145417440Y-81763224D01*
X145415000Y-81788000D01*
X139117606Y-81788000D01*
X136069606Y-78740000D01*
X145415000Y-78740000D01*
X145415000Y-80772000D01*
X145417440Y-80796776D01*
X145424667Y-80820601D01*
X145436403Y-80842557D01*
X145452197Y-80861803D01*
X145471443Y-80877597D01*
X145493399Y-80889333D01*
X145517224Y-80896560D01*
X145542000Y-80899000D01*
X150114000Y-80899000D01*
X150138776Y-80896560D01*
X150162601Y-80889333D01*
X150184557Y-80877597D01*
X150203803Y-80861803D01*
X150219597Y-80842557D01*
X150231333Y-80820601D01*
X150238560Y-80796776D01*
X150241000Y-80772000D01*
X150241000Y-78740000D01*
X151003000Y-78740000D01*
X151003000Y-80772000D01*
X151005440Y-80796776D01*
X151012667Y-80820601D01*
X151024403Y-80842557D01*
X151040197Y-80861803D01*
X151059443Y-80877597D01*
X151081399Y-80889333D01*
X151105224Y-80896560D01*
X151130000Y-80899000D01*
X153670000Y-80899000D01*
X153694776Y-80896560D01*
X153718601Y-80889333D01*
X153740557Y-80877597D01*
X153759803Y-80861803D01*
X153775597Y-80842557D01*
X153787333Y-80820601D01*
X153794560Y-80796776D01*
X153797000Y-80772000D01*
X153797000Y-78740000D01*
X153794560Y-78715224D01*
X153787333Y-78691399D01*
X153775597Y-78669443D01*
X153759803Y-78650197D01*
X153740557Y-78634403D01*
X153718601Y-78622667D01*
X153694776Y-78615440D01*
X153670000Y-78613000D01*
X151130000Y-78613000D01*
X151105224Y-78615440D01*
X151081399Y-78622667D01*
X151059443Y-78634403D01*
X151040197Y-78650197D01*
X151024403Y-78669443D01*
X151012667Y-78691399D01*
X151005440Y-78715224D01*
X151003000Y-78740000D01*
X150241000Y-78740000D01*
X150238560Y-78715224D01*
X150231333Y-78691399D01*
X150219597Y-78669443D01*
X150203803Y-78650197D01*
X150184557Y-78634403D01*
X150162601Y-78622667D01*
X150138776Y-78615440D01*
X150114000Y-78613000D01*
X145542000Y-78613000D01*
X145517224Y-78615440D01*
X145493399Y-78622667D01*
X145471443Y-78634403D01*
X145452197Y-78650197D01*
X145436403Y-78669443D01*
X145424667Y-78691399D01*
X145417440Y-78715224D01*
X145415000Y-78740000D01*
X136069606Y-78740000D01*
X134709803Y-77380197D01*
X134690557Y-77364403D01*
X134668601Y-77352667D01*
X134644776Y-77345440D01*
X134620000Y-77343000D01*
X129008129Y-77343000D01*
X128951309Y-77325764D01*
X128740492Y-77305000D01*
X127799508Y-77305000D01*
X127588691Y-77325764D01*
X127531871Y-77343000D01*
X125730000Y-77343000D01*
X125705224Y-77345440D01*
X125681399Y-77352667D01*
X125659443Y-77364403D01*
X125640197Y-77380197D01*
X125112734Y-77907660D01*
X125070226Y-77936063D01*
X124926063Y-78080226D01*
X124897660Y-78122734D01*
X122349055Y-80671339D01*
X122313715Y-80588354D01*
X122154500Y-80355105D01*
X121952839Y-80157399D01*
X121723259Y-80007265D01*
X121851101Y-79938932D01*
X122069608Y-79759608D01*
X122248932Y-79541101D01*
X122382182Y-79291808D01*
X122464236Y-79021309D01*
X122491943Y-78740000D01*
X122464236Y-78458691D01*
X122382182Y-78188192D01*
X122248932Y-77938899D01*
X122069608Y-77720392D01*
X121851101Y-77541068D01*
X121601808Y-77407818D01*
X121331309Y-77325764D01*
X121120492Y-77305000D01*
X120179508Y-77305000D01*
X119968691Y-77325764D01*
X119698192Y-77407818D01*
X119448899Y-77541068D01*
X119230392Y-77720392D01*
X119051068Y-77938899D01*
X118917818Y-78188192D01*
X118835764Y-78458691D01*
X118808057Y-78740000D01*
X118835764Y-79021309D01*
X118917818Y-79291808D01*
X119051068Y-79541101D01*
X119230392Y-79759608D01*
X119448899Y-79938932D01*
X119576741Y-80007265D01*
X119347161Y-80157399D01*
X119145500Y-80355105D01*
X118986285Y-80588354D01*
X118875633Y-80848182D01*
X118858096Y-80930961D01*
X118980085Y-81153000D01*
X120523000Y-81153000D01*
X120523000Y-81133000D01*
X120777000Y-81133000D01*
X120777000Y-81153000D01*
X120650000Y-81153000D01*
X120625224Y-81155440D01*
X120601399Y-81162667D01*
X120579443Y-81174403D01*
X120560197Y-81190197D01*
X120343394Y-81407000D01*
X118980085Y-81407000D01*
X118858096Y-81629039D01*
X118875633Y-81711818D01*
X118986285Y-81971646D01*
X119145500Y-82204895D01*
X119347161Y-82402601D01*
X119347543Y-82402851D01*
X119290197Y-82460197D01*
X119274403Y-82479443D01*
X119262667Y-82501399D01*
X119255440Y-82525224D01*
X119253000Y-82550000D01*
X119253000Y-82781838D01*
X119230392Y-82800392D01*
X119051068Y-83018899D01*
X118917818Y-83268192D01*
X118835764Y-83538691D01*
X118808057Y-83820000D01*
X118835764Y-84101309D01*
X118917818Y-84371808D01*
X119051068Y-84621101D01*
X119230392Y-84839608D01*
X119253000Y-84858162D01*
X119253000Y-85321838D01*
X119230392Y-85340392D01*
X119051068Y-85558899D01*
X118917818Y-85808192D01*
X118835764Y-86078691D01*
X118808057Y-86360000D01*
X118835764Y-86641309D01*
X118917818Y-86911808D01*
X119051068Y-87161101D01*
X119230392Y-87379608D01*
X119253000Y-87398162D01*
X119253000Y-87861838D01*
X119230392Y-87880392D01*
X119051068Y-88098899D01*
X118917818Y-88348192D01*
X118835764Y-88618691D01*
X118808057Y-88900000D01*
X118835764Y-89181309D01*
X118917818Y-89451808D01*
X119051068Y-89701101D01*
X119230392Y-89919608D01*
X119253000Y-89938162D01*
X119253000Y-90401838D01*
X119230392Y-90420392D01*
X119051068Y-90638899D01*
X118917818Y-90888192D01*
X118835764Y-91158691D01*
X118808057Y-91440000D01*
X118835764Y-91721309D01*
X118917818Y-91991808D01*
X119051068Y-92241101D01*
X119230392Y-92459608D01*
X119253000Y-92478162D01*
X119253000Y-92941838D01*
X119230392Y-92960392D01*
X119051068Y-93178899D01*
X118917818Y-93428192D01*
X118835764Y-93698691D01*
X118808057Y-93980000D01*
X118835764Y-94261309D01*
X118917818Y-94531808D01*
X119051068Y-94781101D01*
X119230392Y-94999608D01*
X119253000Y-95018162D01*
X119253000Y-95250000D01*
X119255440Y-95274776D01*
X119262667Y-95298601D01*
X119274403Y-95320557D01*
X119290197Y-95339803D01*
X119347543Y-95397149D01*
X119347161Y-95397399D01*
X119145500Y-95595105D01*
X118986285Y-95828354D01*
X118875633Y-96088182D01*
X118858096Y-96170961D01*
X118980085Y-96393000D01*
X120343394Y-96393000D01*
X120495471Y-96545077D01*
X120444510Y-96647000D01*
X118980085Y-96647000D01*
X118858096Y-96869039D01*
X118875633Y-96951818D01*
X118986285Y-97211646D01*
X119145500Y-97444895D01*
X119347161Y-97642601D01*
X119583517Y-97797166D01*
X119821512Y-97892996D01*
X119266408Y-99003204D01*
X119257510Y-99026456D01*
X119253000Y-99060000D01*
X119253000Y-106276838D01*
X119230392Y-106295392D01*
X119051068Y-106513899D01*
X118917818Y-106763192D01*
X118835764Y-107033691D01*
X118808057Y-107315000D01*
X118835764Y-107596309D01*
X118917818Y-107866808D01*
X119051068Y-108116101D01*
X119230392Y-108334608D01*
X119253000Y-108353162D01*
X119253000Y-108824713D01*
X119145500Y-108930105D01*
X118986285Y-109163354D01*
X118875633Y-109423182D01*
X118858096Y-109505961D01*
X118980085Y-109728000D01*
X119708394Y-109728000D01*
X119962394Y-109982000D01*
X118980085Y-109982000D01*
X118858096Y-110204039D01*
X118875633Y-110286818D01*
X118986285Y-110546646D01*
X119145500Y-110779895D01*
X119347161Y-110977601D01*
X119576741Y-111127735D01*
X119448899Y-111196068D01*
X119230392Y-111375392D01*
X119051068Y-111593899D01*
X118917818Y-111843192D01*
X118835764Y-112113691D01*
X118808057Y-112395000D01*
X118835764Y-112676309D01*
X118917818Y-112946808D01*
X119051068Y-113196101D01*
X119230392Y-113414608D01*
X119253000Y-113433162D01*
X119253000Y-113896838D01*
X119230392Y-113915392D01*
X119051068Y-114133899D01*
X118917818Y-114383192D01*
X118835764Y-114653691D01*
X118808057Y-114935000D01*
X118835764Y-115216309D01*
X118917818Y-115486808D01*
X119051068Y-115736101D01*
X119230392Y-115954608D01*
X119253000Y-115973162D01*
X119253000Y-116436838D01*
X119230392Y-116455392D01*
X119051068Y-116673899D01*
X118917818Y-116923192D01*
X118835764Y-117193691D01*
X118808057Y-117475000D01*
X118835764Y-117756309D01*
X118917818Y-118026808D01*
X119051068Y-118276101D01*
X119230392Y-118494608D01*
X119253000Y-118513162D01*
X119253000Y-118976838D01*
X119230392Y-118995392D01*
X119051068Y-119213899D01*
X118917818Y-119463192D01*
X118835764Y-119733691D01*
X118808057Y-120015000D01*
X118835764Y-120296309D01*
X118917818Y-120566808D01*
X119051068Y-120816101D01*
X119230392Y-121034608D01*
X119253000Y-121053162D01*
X119253000Y-121516838D01*
X119230392Y-121535392D01*
X119051068Y-121753899D01*
X118917818Y-122003192D01*
X118835764Y-122273691D01*
X118808057Y-122555000D01*
X118835764Y-122836309D01*
X118917818Y-123106808D01*
X119051068Y-123356101D01*
X119230392Y-123574608D01*
X119253000Y-123593162D01*
X119253000Y-124064713D01*
X119145500Y-124170105D01*
X118986285Y-124403354D01*
X118875633Y-124663182D01*
X118858096Y-124745961D01*
X118980085Y-124968000D01*
X119708394Y-124968000D01*
X119962394Y-125222000D01*
X118980085Y-125222000D01*
X118858096Y-125444039D01*
X118875633Y-125526818D01*
X118986285Y-125786646D01*
X119145500Y-126019895D01*
X119347161Y-126217601D01*
X119583517Y-126372166D01*
X119845486Y-126477650D01*
X120123000Y-126530000D01*
X120523000Y-126530000D01*
X120523000Y-125782606D01*
X120777000Y-126036606D01*
X120777000Y-126530000D01*
X121177000Y-126530000D01*
X121255572Y-126515178D01*
X121830197Y-127089803D01*
X121849443Y-127105597D01*
X121871399Y-127117333D01*
X121895224Y-127124560D01*
X121920000Y-127127000D01*
X147320000Y-127127000D01*
X147344776Y-127124560D01*
X147368601Y-127117333D01*
X147390557Y-127105597D01*
X147409803Y-127089803D01*
X148009606Y-126490000D01*
X148044678Y-126490000D01*
X148082000Y-126493676D01*
X148119322Y-126490000D01*
X148119333Y-126490000D01*
X148230986Y-126479003D01*
X148374247Y-126435546D01*
X148506276Y-126364974D01*
X148622001Y-126270001D01*
X148645804Y-126240997D01*
X150299801Y-124587000D01*
X152400000Y-124587000D01*
X152424776Y-124584560D01*
X152448601Y-124577333D01*
X152470557Y-124565597D01*
X152489803Y-124549803D01*
X153759803Y-123279803D01*
X153775597Y-123260557D01*
X153787333Y-123238601D01*
X153794560Y-123214776D01*
X153797000Y-123190000D01*
X153797000Y-121089802D01*
X153800004Y-121086798D01*
X153829001Y-121063001D01*
X153855332Y-121030917D01*
X153923974Y-120947277D01*
X153994546Y-120815247D01*
X153999479Y-120798986D01*
X154038003Y-120671986D01*
X154049000Y-120560333D01*
X154049000Y-120560323D01*
X154052676Y-120523001D01*
X154049000Y-120485678D01*
X154049000Y-107750606D01*
X154992606Y-106807000D01*
X155645000Y-106807000D01*
X155645000Y-106807002D01*
X155809844Y-106807002D01*
X155688524Y-107036890D01*
X155709437Y-107130953D01*
X155824709Y-107399426D01*
X155990143Y-107640252D01*
X156167393Y-107813001D01*
X154850197Y-109130197D01*
X154834403Y-109149443D01*
X154822667Y-109171399D01*
X154815440Y-109195224D01*
X154813000Y-109220000D01*
X154813000Y-123190000D01*
X154815440Y-123214776D01*
X154822667Y-123238601D01*
X154834403Y-123260557D01*
X154850197Y-123279803D01*
X155377660Y-123807266D01*
X155406063Y-123849774D01*
X155550226Y-123993937D01*
X155592734Y-124022340D01*
X156120197Y-124549803D01*
X156139443Y-124565597D01*
X156161399Y-124577333D01*
X156185224Y-124584560D01*
X156210000Y-124587000D01*
X166370000Y-124587000D01*
X166394776Y-124584560D01*
X166418601Y-124577333D01*
X166440557Y-124565597D01*
X166459803Y-124549803D01*
X166475597Y-124530557D01*
X166487333Y-124508601D01*
X166494560Y-124484776D01*
X166497000Y-124460000D01*
X166497000Y-118624998D01*
X166647298Y-118669097D01*
X167460395Y-117856000D01*
X167446253Y-117841858D01*
X167513000Y-117775110D01*
X167513000Y-118162605D01*
X166826903Y-118848702D01*
X166898486Y-119092671D01*
X167153996Y-119213571D01*
X167428184Y-119282300D01*
X167513000Y-119286481D01*
X167513000Y-128217394D01*
X165580394Y-130150000D01*
X119653381Y-130150000D01*
X117500000Y-127996620D01*
X117500000Y-77743380D01*
X119653381Y-75590000D01*
X154813000Y-75590000D01*
X154813000Y-87503000D01*
M02*
