M48
; DRILL file {KiCad (5.1.0)-1} date 5/24/2019 11:34:42 PM
; FORMAT={-:-/ absolute / inch / decimal}
; #@! TF.CreationDate,2019-05-24T23:34:42-04:00
; #@! TF.GenerationSoftware,Kicad,Pcbnew,(5.1.0)-1
; #@! TF.FileFunction,Plated,1,2,PTH
FMAT,2
INCH
T1C0.0157
T2C0.0362
T3C0.0394
T4C0.0917
%
G90
G05
T1
X4.8762Y-4.8781
X4.9085Y-4.34
X4.91Y-4.3
X4.92Y-4.26
X4.935Y-3.555
X4.9374Y-4.4456
X4.95Y-4.155
X4.955Y-4.63
X4.96Y-4.1
X4.9725Y-4.4634
X4.9742Y-4.5027
X5.0Y-3.89
X5.035Y-4.905
X5.0367Y-4.675
X5.0963Y-4.355
X5.097Y-4.565
X5.105Y-4.88
X5.1084Y-4.212
X5.11Y-3.5
X5.12Y-4.64
X5.14Y-4.845
X5.185Y-4.875
X5.225Y-4.29
X5.235Y-4.875
X5.24Y-3.37
X5.25Y-3.67
X5.26Y-3.555
X5.26Y-4.2385
X5.27Y-4.85
X5.285Y-4.0
X5.285Y-4.06
X5.295Y-3.405
X5.33Y-4.61
X5.3898Y-4.1748
X5.4Y-4.585
X5.4315Y-4.0009
X5.4465Y-4.6171
X5.4846Y-4.9852
X5.495Y-3.75
X5.515Y-3.705
X5.515Y-4.885
X5.52Y-4.01
X5.525Y-3.345
X5.525Y-3.415
X5.535Y-4.675
X5.55Y-4.965
X5.575Y-3.545
X5.5889Y-4.0171
X5.6Y-3.705
X5.6Y-4.0665
X5.6184Y-4.142
X5.62Y-4.455
X5.655Y-3.77
X5.68Y-4.89
X5.69Y-3.83
X5.73Y-3.8865
X5.735Y-3.82
X5.795Y-3.82
X5.815Y-3.59
X5.825Y-3.7557
X5.83Y-4.21
X5.91Y-3.61
X5.925Y-4.575
X5.935Y-4.5
X5.965Y-3.61
X5.98Y-4.475
X5.98Y-4.595
X6.075Y-4.595
X6.09Y-4.135
X6.19Y-3.74
X6.3Y-3.95
X6.345Y-4.025
X6.355Y-4.23
T2
X6.245Y-3.585
X6.245Y-3.6834
X6.3237Y-3.585
X6.3237Y-3.6834
T3
X6.32Y-4.625
X6.32Y-4.725
X6.32Y-4.825
X6.42Y-4.625
X6.42Y-4.725
X6.42Y-4.825
X5.37Y-3.42
X5.37Y-3.52
X5.37Y-3.62
X4.215Y-3.5
X4.215Y-3.6
X4.215Y-3.7
X4.215Y-3.8
X4.215Y-3.9
X4.215Y-4.0
X4.215Y-4.1
X4.215Y-4.2
X4.215Y-4.3
X4.215Y-4.4
X4.215Y-4.5
X4.215Y-4.6
X4.215Y-4.7
X4.215Y-4.8
X4.315Y-3.5
X4.315Y-3.6
X4.315Y-3.7
X4.315Y-3.8
X4.315Y-3.9
X4.315Y-4.0
X4.315Y-4.1
X4.315Y-4.2
X4.315Y-4.3
X4.315Y-4.4
X4.315Y-4.5
X4.315Y-4.6
X4.315Y-4.7
X4.315Y-4.8
X4.615Y-3.5
X4.615Y-3.5
X4.615Y-3.5
X4.615Y-3.5
X4.615Y-3.6
X4.615Y-3.6
X4.615Y-3.6
X4.615Y-3.6
X4.615Y-3.7
X4.615Y-3.7
X4.615Y-3.7
X4.615Y-3.7
X4.615Y-3.8
X4.615Y-3.8
X4.615Y-3.8
X4.615Y-3.8
X4.615Y-3.9
X4.615Y-3.9
X4.615Y-3.9
X4.615Y-3.9
X4.615Y-4.0
X4.615Y-4.0
X4.615Y-4.0
X4.615Y-4.0
X4.615Y-4.1
X4.615Y-4.1
X4.615Y-4.1
X4.615Y-4.1
X4.615Y-4.2
X4.615Y-4.2
X4.615Y-4.2
X4.615Y-4.2
X4.615Y-4.3
X4.615Y-4.3
X4.615Y-4.3
X4.615Y-4.3
X4.615Y-4.4
X4.615Y-4.4
X4.615Y-4.4
X4.615Y-4.4
X4.615Y-4.5
X4.615Y-4.5
X4.615Y-4.5
X4.615Y-4.5
X4.615Y-4.6
X4.615Y-4.6
X4.615Y-4.6
X4.615Y-4.6
X4.615Y-4.7
X4.615Y-4.7
X4.615Y-4.7
X4.615Y-4.7
X4.615Y-4.8
X4.615Y-4.8
X4.615Y-4.8
X4.615Y-4.8
X4.815Y-3.5
X4.815Y-3.5
X4.815Y-3.5
X4.815Y-3.5
X4.815Y-3.6
X4.815Y-3.6
X4.815Y-3.6
X4.815Y-3.6
X4.815Y-3.7
X4.815Y-3.7
X4.815Y-3.7
X4.815Y-3.7
X4.815Y-3.8
X4.815Y-3.8
X4.815Y-3.8
X4.815Y-3.8
X4.815Y-3.9
X4.815Y-3.9
X4.815Y-3.9
X4.815Y-3.9
X4.815Y-4.0
X4.815Y-4.0
X4.815Y-4.0
X4.815Y-4.0
X4.815Y-4.1
X4.815Y-4.1
X4.815Y-4.1
X4.815Y-4.1
X4.815Y-4.2
X4.815Y-4.2
X4.815Y-4.2
X4.815Y-4.2
X4.815Y-4.3
X4.815Y-4.3
X4.815Y-4.3
X4.815Y-4.3
X4.815Y-4.4
X4.815Y-4.4
X4.815Y-4.4
X4.815Y-4.4
X4.815Y-4.5
X4.815Y-4.5
X4.815Y-4.5
X4.815Y-4.5
X4.815Y-4.6
X4.815Y-4.6
X4.815Y-4.6
X4.815Y-4.6
X4.815Y-4.7
X4.815Y-4.7
X4.815Y-4.7
X4.815Y-4.7
X4.815Y-4.8
X4.815Y-4.8
X4.815Y-4.8
X4.815Y-4.8
T4
X6.4304Y-3.3972
X6.4304Y-3.8712
T0
M30
