G04 #@! TF.GenerationSoftware,KiCad,Pcbnew,(5.1.0)-1*
G04 #@! TF.CreationDate,2019-05-24T23:33:48-04:00*
G04 #@! TF.ProjectId,f-ramune_avr,662d7261-6d75-46e6-955f-6176722e6b69,rev?*
G04 #@! TF.SameCoordinates,Original*
G04 #@! TF.FileFunction,Legend,Top*
G04 #@! TF.FilePolarity,Positive*
%FSLAX46Y46*%
G04 Gerber Fmt 4.6, Leading zero omitted, Abs format (unit mm)*
G04 Created by KiCad (PCBNEW (5.1.0)-1) date 2019-05-24 23:33:48*
%MOMM*%
%LPD*%
G04 APERTURE LIST*
%ADD10C,0.150000*%
%ADD11C,0.120000*%
%ADD12C,0.090000*%
G04 APERTURE END LIST*
D10*
X143312142Y-118308380D02*
X143312142Y-117308380D01*
X143788333Y-117641714D02*
X143788333Y-118308380D01*
X143788333Y-117736952D02*
X143835952Y-117689333D01*
X143931190Y-117641714D01*
X144074047Y-117641714D01*
X144169285Y-117689333D01*
X144216904Y-117784571D01*
X144216904Y-118308380D01*
X144550238Y-117641714D02*
X144931190Y-117641714D01*
X144693095Y-118308380D02*
X144693095Y-117451238D01*
X144740714Y-117356000D01*
X144835952Y-117308380D01*
X144931190Y-117308380D01*
X145407380Y-118308380D02*
X145312142Y-118260761D01*
X145264523Y-118213142D01*
X145216904Y-118117904D01*
X145216904Y-117832190D01*
X145264523Y-117736952D01*
X145312142Y-117689333D01*
X145407380Y-117641714D01*
X145550238Y-117641714D01*
X145645476Y-117689333D01*
X145693095Y-117736952D01*
X145740714Y-117832190D01*
X145740714Y-118117904D01*
X145693095Y-118213142D01*
X145645476Y-118260761D01*
X145550238Y-118308380D01*
X145407380Y-118308380D01*
X147074047Y-118308380D02*
X146978809Y-118260761D01*
X146931190Y-118213142D01*
X146883571Y-118117904D01*
X146883571Y-117832190D01*
X146931190Y-117736952D01*
X146978809Y-117689333D01*
X147074047Y-117641714D01*
X147216904Y-117641714D01*
X147312142Y-117689333D01*
X147359761Y-117736952D01*
X147407380Y-117832190D01*
X147407380Y-118117904D01*
X147359761Y-118213142D01*
X147312142Y-118260761D01*
X147216904Y-118308380D01*
X147074047Y-118308380D01*
X147835952Y-117641714D02*
X147835952Y-118308380D01*
X147835952Y-117736952D02*
X147883571Y-117689333D01*
X147978809Y-117641714D01*
X148121666Y-117641714D01*
X148216904Y-117689333D01*
X148264523Y-117784571D01*
X148264523Y-118308380D01*
X149835952Y-117784571D02*
X149978809Y-117832190D01*
X150026428Y-117879809D01*
X150074047Y-117975047D01*
X150074047Y-118117904D01*
X150026428Y-118213142D01*
X149978809Y-118260761D01*
X149883571Y-118308380D01*
X149502619Y-118308380D01*
X149502619Y-117308380D01*
X149835952Y-117308380D01*
X149931190Y-117356000D01*
X149978809Y-117403619D01*
X150026428Y-117498857D01*
X150026428Y-117594095D01*
X149978809Y-117689333D01*
X149931190Y-117736952D01*
X149835952Y-117784571D01*
X149502619Y-117784571D01*
X150931190Y-118308380D02*
X150931190Y-117784571D01*
X150883571Y-117689333D01*
X150788333Y-117641714D01*
X150597857Y-117641714D01*
X150502619Y-117689333D01*
X150931190Y-118260761D02*
X150835952Y-118308380D01*
X150597857Y-118308380D01*
X150502619Y-118260761D01*
X150455000Y-118165523D01*
X150455000Y-118070285D01*
X150502619Y-117975047D01*
X150597857Y-117927428D01*
X150835952Y-117927428D01*
X150931190Y-117879809D01*
X151835952Y-118260761D02*
X151740714Y-118308380D01*
X151550238Y-118308380D01*
X151455000Y-118260761D01*
X151407380Y-118213142D01*
X151359761Y-118117904D01*
X151359761Y-117832190D01*
X151407380Y-117736952D01*
X151455000Y-117689333D01*
X151550238Y-117641714D01*
X151740714Y-117641714D01*
X151835952Y-117689333D01*
X152264523Y-118308380D02*
X152264523Y-117308380D01*
X152359761Y-117927428D02*
X152645476Y-118308380D01*
X152645476Y-117641714D02*
X152264523Y-118022666D01*
X128858000Y-117784571D02*
X128524666Y-117784571D01*
X128524666Y-118308380D02*
X128524666Y-117308380D01*
X129000857Y-117308380D01*
X129381809Y-117927428D02*
X130143714Y-117927428D01*
X131191333Y-118308380D02*
X130858000Y-117832190D01*
X130619904Y-118308380D02*
X130619904Y-117308380D01*
X131000857Y-117308380D01*
X131096095Y-117356000D01*
X131143714Y-117403619D01*
X131191333Y-117498857D01*
X131191333Y-117641714D01*
X131143714Y-117736952D01*
X131096095Y-117784571D01*
X131000857Y-117832190D01*
X130619904Y-117832190D01*
X132048476Y-118308380D02*
X132048476Y-117784571D01*
X132000857Y-117689333D01*
X131905619Y-117641714D01*
X131715142Y-117641714D01*
X131619904Y-117689333D01*
X132048476Y-118260761D02*
X131953238Y-118308380D01*
X131715142Y-118308380D01*
X131619904Y-118260761D01*
X131572285Y-118165523D01*
X131572285Y-118070285D01*
X131619904Y-117975047D01*
X131715142Y-117927428D01*
X131953238Y-117927428D01*
X132048476Y-117879809D01*
X132524666Y-118308380D02*
X132524666Y-117641714D01*
X132524666Y-117736952D02*
X132572285Y-117689333D01*
X132667523Y-117641714D01*
X132810380Y-117641714D01*
X132905619Y-117689333D01*
X132953238Y-117784571D01*
X132953238Y-118308380D01*
X132953238Y-117784571D02*
X133000857Y-117689333D01*
X133096095Y-117641714D01*
X133238952Y-117641714D01*
X133334190Y-117689333D01*
X133381809Y-117784571D01*
X133381809Y-118308380D01*
X134286571Y-117641714D02*
X134286571Y-118308380D01*
X133858000Y-117641714D02*
X133858000Y-118165523D01*
X133905619Y-118260761D01*
X134000857Y-118308380D01*
X134143714Y-118308380D01*
X134238952Y-118260761D01*
X134286571Y-118213142D01*
X134762761Y-117641714D02*
X134762761Y-118308380D01*
X134762761Y-117736952D02*
X134810380Y-117689333D01*
X134905619Y-117641714D01*
X135048476Y-117641714D01*
X135143714Y-117689333D01*
X135191333Y-117784571D01*
X135191333Y-118308380D01*
X136048476Y-118260761D02*
X135953238Y-118308380D01*
X135762761Y-118308380D01*
X135667523Y-118260761D01*
X135619904Y-118165523D01*
X135619904Y-117784571D01*
X135667523Y-117689333D01*
X135762761Y-117641714D01*
X135953238Y-117641714D01*
X136048476Y-117689333D01*
X136096095Y-117784571D01*
X136096095Y-117879809D01*
X135619904Y-117975047D01*
X137810380Y-118308380D02*
X137238952Y-118308380D01*
X137524666Y-118308380D02*
X137524666Y-117308380D01*
X137429428Y-117451238D01*
X137334190Y-117546476D01*
X137238952Y-117594095D01*
X138238952Y-118213142D02*
X138286571Y-118260761D01*
X138238952Y-118308380D01*
X138191333Y-118260761D01*
X138238952Y-118213142D01*
X138238952Y-118308380D01*
X138905619Y-117308380D02*
X139000857Y-117308380D01*
X139096095Y-117356000D01*
X139143714Y-117403619D01*
X139191333Y-117498857D01*
X139238952Y-117689333D01*
X139238952Y-117927428D01*
X139191333Y-118117904D01*
X139143714Y-118213142D01*
X139096095Y-118260761D01*
X139000857Y-118308380D01*
X138905619Y-118308380D01*
X138810380Y-118260761D01*
X138762761Y-118213142D01*
X138715142Y-118117904D01*
X138667523Y-117927428D01*
X138667523Y-117689333D01*
X138715142Y-117498857D01*
X138762761Y-117403619D01*
X138810380Y-117356000D01*
X138905619Y-117308380D01*
D11*
X129921000Y-123952000D02*
G75*
G03X129921000Y-123952000I-254000J0D01*
G01*
D10*
X128656000Y-125011000D02*
X128681000Y-125011000D01*
X128656000Y-120861000D02*
X128761000Y-120861000D01*
X138806000Y-120861000D02*
X138701000Y-120861000D01*
X138806000Y-125011000D02*
X138701000Y-125011000D01*
X128656000Y-125011000D02*
X128656000Y-120861000D01*
X138806000Y-125011000D02*
X138806000Y-120861000D01*
X128681000Y-125011000D02*
X128681000Y-126386000D01*
D11*
X161283000Y-86149000D02*
X157023000Y-86149000D01*
X157023000Y-86149000D02*
X157023000Y-98469000D01*
X157023000Y-98469000D02*
X161283000Y-98469000D01*
X156803000Y-91059000D02*
X156303000Y-90559000D01*
X156303000Y-90559000D02*
X156303000Y-91559000D01*
X156303000Y-91559000D02*
X156803000Y-91059000D01*
X133614000Y-112453000D02*
X133614000Y-96478000D01*
X133614000Y-96478000D02*
X128514000Y-96478000D01*
X128514000Y-96478000D02*
X128514000Y-112453000D01*
X143758000Y-109058000D02*
X143348000Y-109058000D01*
X143348000Y-109058000D02*
X143348000Y-115478000D01*
X143348000Y-115478000D02*
X143628000Y-115478000D01*
X145358000Y-115478000D02*
X147758000Y-115478000D01*
X149358000Y-115478000D02*
X149768000Y-115478000D01*
X149768000Y-115478000D02*
X149768000Y-109058000D01*
X149768000Y-109058000D02*
X149358000Y-109058000D01*
X147758000Y-109058000D02*
X145358000Y-109058000D01*
X140743000Y-109817000D02*
X140743000Y-112277000D01*
X140743000Y-112277000D02*
X142213000Y-112277000D01*
X142213000Y-112277000D02*
X142213000Y-109817000D01*
X136425000Y-109817000D02*
X136425000Y-112277000D01*
X136425000Y-112277000D02*
X137895000Y-112277000D01*
X137895000Y-112277000D02*
X137895000Y-109817000D01*
X157099000Y-110363000D02*
G75*
G03X157099000Y-110363000I-254000J0D01*
G01*
D10*
X157904000Y-111511000D02*
X157904000Y-111486000D01*
X153754000Y-111511000D02*
X153754000Y-111396000D01*
X153754000Y-102611000D02*
X153754000Y-102726000D01*
X157904000Y-102611000D02*
X157904000Y-102726000D01*
X157904000Y-111511000D02*
X153754000Y-111511000D01*
X157904000Y-102611000D02*
X153754000Y-102611000D01*
X157904000Y-111486000D02*
X159279000Y-111486000D01*
D11*
X143637000Y-123952000D02*
G75*
G03X143637000Y-123952000I-254000J0D01*
G01*
D10*
X142372000Y-125011000D02*
X142397000Y-125011000D01*
X142372000Y-120861000D02*
X142477000Y-120861000D01*
X152522000Y-120861000D02*
X152417000Y-120861000D01*
X152522000Y-125011000D02*
X152417000Y-125011000D01*
X142372000Y-125011000D02*
X142372000Y-120861000D01*
X152522000Y-125011000D02*
X152522000Y-120861000D01*
X142397000Y-125011000D02*
X142397000Y-126386000D01*
D11*
X143891000Y-95758000D02*
G75*
G03X143891000Y-95758000I-254000J0D01*
G01*
D10*
X142552000Y-94898000D02*
X141127000Y-94898000D01*
X149802000Y-94673000D02*
X149477000Y-94673000D01*
X149802000Y-101923000D02*
X149477000Y-101923000D01*
X142552000Y-101923000D02*
X142877000Y-101923000D01*
X142552000Y-94673000D02*
X142877000Y-94673000D01*
X142552000Y-101923000D02*
X142552000Y-101598000D01*
X149802000Y-101923000D02*
X149802000Y-101598000D01*
X149802000Y-94673000D02*
X149802000Y-94998000D01*
X142552000Y-94673000D02*
X142552000Y-94898000D01*
D11*
X145243733Y-89533000D02*
X145586267Y-89533000D01*
X145243733Y-90553000D02*
X145586267Y-90553000D01*
X130003733Y-92581000D02*
X130346267Y-92581000D01*
X130003733Y-93601000D02*
X130346267Y-93601000D01*
X145243733Y-84453000D02*
X145586267Y-84453000D01*
X145243733Y-85473000D02*
X145586267Y-85473000D01*
X145243733Y-86993000D02*
X145586267Y-86993000D01*
X145243733Y-88013000D02*
X145586267Y-88013000D01*
X138809000Y-110788267D02*
X138809000Y-110445733D01*
X139829000Y-110788267D02*
X139829000Y-110445733D01*
X134491000Y-110788267D02*
X134491000Y-110445733D01*
X135511000Y-110788267D02*
X135511000Y-110445733D01*
X130346267Y-86489000D02*
X130003733Y-86489000D01*
X130346267Y-85469000D02*
X130003733Y-85469000D01*
X153795000Y-121329267D02*
X153795000Y-120986733D01*
X154815000Y-121329267D02*
X154815000Y-120986733D01*
X140079000Y-121329267D02*
X140079000Y-120986733D01*
X141099000Y-121329267D02*
X141099000Y-120986733D01*
X136480733Y-102614000D02*
X136823267Y-102614000D01*
X136480733Y-103634000D02*
X136823267Y-103634000D01*
X136480733Y-99693000D02*
X136823267Y-99693000D01*
X136480733Y-100713000D02*
X136823267Y-100713000D01*
X163493267Y-109476000D02*
X163150733Y-109476000D01*
X163493267Y-108456000D02*
X163150733Y-108456000D01*
X163150733Y-104011000D02*
X163493267Y-104011000D01*
X163150733Y-105031000D02*
X163493267Y-105031000D01*
X136823267Y-97792000D02*
X136480733Y-97792000D01*
X136823267Y-96772000D02*
X136480733Y-96772000D01*
X166243000Y-122555000D02*
X166243000Y-127635000D01*
X165608000Y-122555000D02*
X166243000Y-122555000D01*
X165608000Y-127000000D02*
X165608000Y-122555000D01*
X157988000Y-127000000D02*
X165608000Y-127000000D01*
X157988000Y-113030000D02*
X157988000Y-127000000D01*
X165608000Y-113030000D02*
X157988000Y-113030000D01*
X165608000Y-117475000D02*
X165608000Y-113030000D01*
X166243000Y-117475000D02*
X165608000Y-117475000D01*
X166243000Y-112395000D02*
X166243000Y-117475000D01*
X166243000Y-127635000D02*
X157353000Y-127635000D01*
X157353000Y-112395000D02*
X166243000Y-112395000D01*
X157353000Y-127635000D02*
X157353000Y-112395000D01*
X139018000Y-91259000D02*
X137508000Y-91259000D01*
X139018000Y-87558000D02*
X137508000Y-87558000D01*
X137508000Y-84288000D02*
X137508000Y-94528000D01*
X139018000Y-94528000D02*
X134377000Y-94528000D01*
X139018000Y-84288000D02*
X134377000Y-84288000D01*
X134377000Y-84288000D02*
X134377000Y-94528000D01*
X139018000Y-84288000D02*
X139018000Y-94528000D01*
D10*
X129286095Y-121499380D02*
X129286095Y-122308904D01*
X129333714Y-122404142D01*
X129381333Y-122451761D01*
X129476571Y-122499380D01*
X129667047Y-122499380D01*
X129762285Y-122451761D01*
X129809904Y-122404142D01*
X129857523Y-122308904D01*
X129857523Y-121499380D01*
X130857523Y-122499380D02*
X130286095Y-122499380D01*
X130571809Y-122499380D02*
X130571809Y-121499380D01*
X130476571Y-121642238D01*
X130381333Y-121737476D01*
X130286095Y-121785095D01*
X131866095Y-121499380D02*
X132532761Y-121499380D01*
X132104190Y-122499380D01*
X133342285Y-121832714D02*
X133342285Y-122499380D01*
X133104190Y-121451761D02*
X132866095Y-122166047D01*
X133485142Y-122166047D01*
X133866095Y-122499380D02*
X133866095Y-121499380D01*
X133866095Y-121975571D02*
X134437523Y-121975571D01*
X134437523Y-122499380D02*
X134437523Y-121499380D01*
X135485142Y-122404142D02*
X135437523Y-122451761D01*
X135294666Y-122499380D01*
X135199428Y-122499380D01*
X135056571Y-122451761D01*
X134961333Y-122356523D01*
X134913714Y-122261285D01*
X134866095Y-122070809D01*
X134866095Y-121927952D01*
X134913714Y-121737476D01*
X134961333Y-121642238D01*
X135056571Y-121547000D01*
X135199428Y-121499380D01*
X135294666Y-121499380D01*
X135437523Y-121547000D01*
X135485142Y-121594619D01*
X136389904Y-121499380D02*
X135913714Y-121499380D01*
X135866095Y-121975571D01*
X135913714Y-121927952D01*
X136008952Y-121880333D01*
X136247047Y-121880333D01*
X136342285Y-121927952D01*
X136389904Y-121975571D01*
X136437523Y-122070809D01*
X136437523Y-122308904D01*
X136389904Y-122404142D01*
X136342285Y-122451761D01*
X136247047Y-122499380D01*
X136008952Y-122499380D01*
X135913714Y-122451761D01*
X135866095Y-122404142D01*
X136913714Y-122499380D02*
X137104190Y-122499380D01*
X137199428Y-122451761D01*
X137247047Y-122404142D01*
X137342285Y-122261285D01*
X137389904Y-122070809D01*
X137389904Y-121689857D01*
X137342285Y-121594619D01*
X137294666Y-121547000D01*
X137199428Y-121499380D01*
X137008952Y-121499380D01*
X136913714Y-121547000D01*
X136866095Y-121594619D01*
X136818476Y-121689857D01*
X136818476Y-121927952D01*
X136866095Y-122023190D01*
X136913714Y-122070809D01*
X137008952Y-122118428D01*
X137199428Y-122118428D01*
X137294666Y-122070809D01*
X137342285Y-122023190D01*
X137389904Y-121927952D01*
X138294666Y-121499380D02*
X137818476Y-121499380D01*
X137770857Y-121975571D01*
X137818476Y-121927952D01*
X137913714Y-121880333D01*
X138151809Y-121880333D01*
X138247047Y-121927952D01*
X138294666Y-121975571D01*
X138342285Y-122070809D01*
X138342285Y-122308904D01*
X138294666Y-122404142D01*
X138247047Y-122451761D01*
X138151809Y-122499380D01*
X137913714Y-122499380D01*
X137818476Y-122451761D01*
X137770857Y-122404142D01*
X113919095Y-84923380D02*
X113919095Y-85732904D01*
X113966714Y-85828142D01*
X114014333Y-85875761D01*
X114109571Y-85923380D01*
X114300047Y-85923380D01*
X114395285Y-85875761D01*
X114442904Y-85828142D01*
X114490523Y-85732904D01*
X114490523Y-84923380D01*
X114871476Y-84923380D02*
X115490523Y-84923380D01*
X115157190Y-85304333D01*
X115300047Y-85304333D01*
X115395285Y-85351952D01*
X115442904Y-85399571D01*
X115490523Y-85494809D01*
X115490523Y-85732904D01*
X115442904Y-85828142D01*
X115395285Y-85875761D01*
X115300047Y-85923380D01*
X115014333Y-85923380D01*
X114919095Y-85875761D01*
X114871476Y-85828142D01*
D12*
X109965142Y-125433142D02*
X109765142Y-125433142D01*
X109765142Y-125747428D02*
X109765142Y-125147428D01*
X110050857Y-125147428D01*
X110622285Y-125747428D02*
X110422285Y-125461714D01*
X110279428Y-125747428D02*
X110279428Y-125147428D01*
X110508000Y-125147428D01*
X110565142Y-125176000D01*
X110593714Y-125204571D01*
X110622285Y-125261714D01*
X110622285Y-125347428D01*
X110593714Y-125404571D01*
X110565142Y-125433142D01*
X110508000Y-125461714D01*
X110279428Y-125461714D01*
X110850857Y-125576000D02*
X111136571Y-125576000D01*
X110793714Y-125747428D02*
X110993714Y-125147428D01*
X111193714Y-125747428D01*
X111393714Y-125747428D02*
X111393714Y-125147428D01*
X111593714Y-125576000D01*
X111793714Y-125147428D01*
X111793714Y-125747428D01*
X112508000Y-125718857D02*
X112593714Y-125747428D01*
X112736571Y-125747428D01*
X112793714Y-125718857D01*
X112822285Y-125690285D01*
X112850857Y-125633142D01*
X112850857Y-125576000D01*
X112822285Y-125518857D01*
X112793714Y-125490285D01*
X112736571Y-125461714D01*
X112622285Y-125433142D01*
X112565142Y-125404571D01*
X112536571Y-125376000D01*
X112508000Y-125318857D01*
X112508000Y-125261714D01*
X112536571Y-125204571D01*
X112565142Y-125176000D01*
X112622285Y-125147428D01*
X112765142Y-125147428D01*
X112850857Y-125176000D01*
X113193714Y-125747428D02*
X113136571Y-125718857D01*
X113108000Y-125690285D01*
X113079428Y-125633142D01*
X113079428Y-125461714D01*
X113108000Y-125404571D01*
X113136571Y-125376000D01*
X113193714Y-125347428D01*
X113279428Y-125347428D01*
X113336571Y-125376000D01*
X113365142Y-125404571D01*
X113393714Y-125461714D01*
X113393714Y-125633142D01*
X113365142Y-125690285D01*
X113336571Y-125718857D01*
X113279428Y-125747428D01*
X113193714Y-125747428D01*
X113908000Y-125718857D02*
X113850857Y-125747428D01*
X113736571Y-125747428D01*
X113679428Y-125718857D01*
X113650857Y-125690285D01*
X113622285Y-125633142D01*
X113622285Y-125461714D01*
X113650857Y-125404571D01*
X113679428Y-125376000D01*
X113736571Y-125347428D01*
X113850857Y-125347428D01*
X113908000Y-125376000D01*
X114165142Y-125747428D02*
X114165142Y-125147428D01*
X114222285Y-125518857D02*
X114393714Y-125747428D01*
X114393714Y-125347428D02*
X114165142Y-125576000D01*
X114879428Y-125718857D02*
X114822285Y-125747428D01*
X114708000Y-125747428D01*
X114650857Y-125718857D01*
X114622285Y-125661714D01*
X114622285Y-125433142D01*
X114650857Y-125376000D01*
X114708000Y-125347428D01*
X114822285Y-125347428D01*
X114879428Y-125376000D01*
X114908000Y-125433142D01*
X114908000Y-125490285D01*
X114622285Y-125547428D01*
X115079428Y-125347428D02*
X115308000Y-125347428D01*
X115165142Y-125147428D02*
X115165142Y-125661714D01*
X115193714Y-125718857D01*
X115250857Y-125747428D01*
X115308000Y-125747428D01*
X116136571Y-125976000D02*
X116108000Y-125947428D01*
X116050857Y-125861714D01*
X116022285Y-125804571D01*
X115993714Y-125718857D01*
X115965142Y-125576000D01*
X115965142Y-125461714D01*
X115993714Y-125318857D01*
X116022285Y-125233142D01*
X116050857Y-125176000D01*
X116108000Y-125090285D01*
X116136571Y-125061714D01*
X116365142Y-125747428D02*
X116365142Y-125147428D01*
X116508000Y-125147428D01*
X116593714Y-125176000D01*
X116650857Y-125233142D01*
X116679428Y-125290285D01*
X116708000Y-125404571D01*
X116708000Y-125490285D01*
X116679428Y-125604571D01*
X116650857Y-125661714D01*
X116593714Y-125718857D01*
X116508000Y-125747428D01*
X116365142Y-125747428D01*
X116965142Y-125747428D02*
X116965142Y-125147428D01*
X117250857Y-125747428D02*
X117250857Y-125147428D01*
X117479428Y-125147428D01*
X117536571Y-125176000D01*
X117565142Y-125204571D01*
X117593714Y-125261714D01*
X117593714Y-125347428D01*
X117565142Y-125404571D01*
X117536571Y-125433142D01*
X117479428Y-125461714D01*
X117250857Y-125461714D01*
X117850857Y-125518857D02*
X118308000Y-125518857D01*
X118565142Y-125204571D02*
X118593714Y-125176000D01*
X118650857Y-125147428D01*
X118793714Y-125147428D01*
X118850857Y-125176000D01*
X118879428Y-125204571D01*
X118908000Y-125261714D01*
X118908000Y-125318857D01*
X118879428Y-125404571D01*
X118536571Y-125747428D01*
X118908000Y-125747428D01*
X119250857Y-125404571D02*
X119193714Y-125376000D01*
X119165142Y-125347428D01*
X119136571Y-125290285D01*
X119136571Y-125261714D01*
X119165142Y-125204571D01*
X119193714Y-125176000D01*
X119250857Y-125147428D01*
X119365142Y-125147428D01*
X119422285Y-125176000D01*
X119450857Y-125204571D01*
X119479428Y-125261714D01*
X119479428Y-125290285D01*
X119450857Y-125347428D01*
X119422285Y-125376000D01*
X119365142Y-125404571D01*
X119250857Y-125404571D01*
X119193714Y-125433142D01*
X119165142Y-125461714D01*
X119136571Y-125518857D01*
X119136571Y-125633142D01*
X119165142Y-125690285D01*
X119193714Y-125718857D01*
X119250857Y-125747428D01*
X119365142Y-125747428D01*
X119422285Y-125718857D01*
X119450857Y-125690285D01*
X119479428Y-125633142D01*
X119479428Y-125518857D01*
X119450857Y-125461714D01*
X119422285Y-125433142D01*
X119365142Y-125404571D01*
X119679428Y-125976000D02*
X119708000Y-125947428D01*
X119765142Y-125861714D01*
X119793714Y-125804571D01*
X119822285Y-125718857D01*
X119850857Y-125576000D01*
X119850857Y-125461714D01*
X119822285Y-125318857D01*
X119793714Y-125233142D01*
X119765142Y-125176000D01*
X119708000Y-125090285D01*
X119679428Y-125061714D01*
D10*
X153376380Y-92789333D02*
X154090666Y-92789333D01*
X154233523Y-92836952D01*
X154328761Y-92932190D01*
X154376380Y-93075047D01*
X154376380Y-93170285D01*
X153471619Y-92360761D02*
X153424000Y-92313142D01*
X153376380Y-92217904D01*
X153376380Y-91979809D01*
X153424000Y-91884571D01*
X153471619Y-91836952D01*
X153566857Y-91789333D01*
X153662095Y-91789333D01*
X153804952Y-91836952D01*
X154376380Y-92408380D01*
X154376380Y-91789333D01*
X155027380Y-98662333D02*
X155836904Y-98662333D01*
X155932142Y-98614714D01*
X155979761Y-98567095D01*
X156027380Y-98471857D01*
X156027380Y-98281380D01*
X155979761Y-98186142D01*
X155932142Y-98138523D01*
X155836904Y-98090904D01*
X155027380Y-98090904D01*
X155979761Y-97662333D02*
X156027380Y-97519476D01*
X156027380Y-97281380D01*
X155979761Y-97186142D01*
X155932142Y-97138523D01*
X155836904Y-97090904D01*
X155741666Y-97090904D01*
X155646428Y-97138523D01*
X155598809Y-97186142D01*
X155551190Y-97281380D01*
X155503571Y-97471857D01*
X155455952Y-97567095D01*
X155408333Y-97614714D01*
X155313095Y-97662333D01*
X155217857Y-97662333D01*
X155122619Y-97614714D01*
X155075000Y-97567095D01*
X155027380Y-97471857D01*
X155027380Y-97233761D01*
X155075000Y-97090904D01*
X155503571Y-96329000D02*
X155551190Y-96186142D01*
X155598809Y-96138523D01*
X155694047Y-96090904D01*
X155836904Y-96090904D01*
X155932142Y-96138523D01*
X155979761Y-96186142D01*
X156027380Y-96281380D01*
X156027380Y-96662333D01*
X155027380Y-96662333D01*
X155027380Y-96329000D01*
X155075000Y-96233761D01*
X155122619Y-96186142D01*
X155217857Y-96138523D01*
X155313095Y-96138523D01*
X155408333Y-96186142D01*
X155455952Y-96233761D01*
X155503571Y-96329000D01*
X155503571Y-96662333D01*
X155027380Y-95043285D02*
X155027380Y-94471857D01*
X156027380Y-94757571D02*
X155027380Y-94757571D01*
X155360714Y-94233761D02*
X156027380Y-93995666D01*
X155360714Y-93757571D02*
X156027380Y-93995666D01*
X156265476Y-94090904D01*
X156313095Y-94138523D01*
X156360714Y-94233761D01*
X155360714Y-93376619D02*
X156360714Y-93376619D01*
X155408333Y-93376619D02*
X155360714Y-93281380D01*
X155360714Y-93090904D01*
X155408333Y-92995666D01*
X155455952Y-92948047D01*
X155551190Y-92900428D01*
X155836904Y-92900428D01*
X155932142Y-92948047D01*
X155979761Y-92995666D01*
X156027380Y-93090904D01*
X156027380Y-93281380D01*
X155979761Y-93376619D01*
X155979761Y-92090904D02*
X156027380Y-92186142D01*
X156027380Y-92376619D01*
X155979761Y-92471857D01*
X155884523Y-92519476D01*
X155503571Y-92519476D01*
X155408333Y-92471857D01*
X155360714Y-92376619D01*
X155360714Y-92186142D01*
X155408333Y-92090904D01*
X155503571Y-92043285D01*
X155598809Y-92043285D01*
X155694047Y-92519476D01*
X155646428Y-91614714D02*
X155646428Y-90852809D01*
X155503571Y-90043285D02*
X155551190Y-89900428D01*
X155598809Y-89852809D01*
X155694047Y-89805190D01*
X155836904Y-89805190D01*
X155932142Y-89852809D01*
X155979761Y-89900428D01*
X156027380Y-89995666D01*
X156027380Y-90376619D01*
X155027380Y-90376619D01*
X155027380Y-90043285D01*
X155075000Y-89948047D01*
X155122619Y-89900428D01*
X155217857Y-89852809D01*
X155313095Y-89852809D01*
X155408333Y-89900428D01*
X155455952Y-89948047D01*
X155503571Y-90043285D01*
X155503571Y-90376619D01*
X156027380Y-88614714D02*
X155027380Y-88614714D01*
X155027380Y-88233761D01*
X155075000Y-88138523D01*
X155122619Y-88090904D01*
X155217857Y-88043285D01*
X155360714Y-88043285D01*
X155455952Y-88090904D01*
X155503571Y-88138523D01*
X155551190Y-88233761D01*
X155551190Y-88614714D01*
X156027380Y-87471857D02*
X155979761Y-87567095D01*
X155932142Y-87614714D01*
X155836904Y-87662333D01*
X155551190Y-87662333D01*
X155455952Y-87614714D01*
X155408333Y-87567095D01*
X155360714Y-87471857D01*
X155360714Y-87329000D01*
X155408333Y-87233761D01*
X155455952Y-87186142D01*
X155551190Y-87138523D01*
X155836904Y-87138523D01*
X155932142Y-87186142D01*
X155979761Y-87233761D01*
X156027380Y-87329000D01*
X156027380Y-87471857D01*
X156027380Y-86709952D02*
X155360714Y-86709952D01*
X155551190Y-86709952D02*
X155455952Y-86662333D01*
X155408333Y-86614714D01*
X155360714Y-86519476D01*
X155360714Y-86424238D01*
X155360714Y-86233761D02*
X155360714Y-85852809D01*
X155027380Y-86090904D02*
X155884523Y-86090904D01*
X155979761Y-86043285D01*
X156027380Y-85948047D01*
X156027380Y-85852809D01*
X127484190Y-107029190D02*
X127960380Y-107029190D01*
X126960380Y-107362523D02*
X127484190Y-107029190D01*
X126960380Y-106695857D01*
X127960380Y-105838714D02*
X127960380Y-106410142D01*
X127960380Y-106124428D02*
X126960380Y-106124428D01*
X127103238Y-106219666D01*
X127198476Y-106314904D01*
X127246095Y-106410142D01*
X146962761Y-113601333D02*
X147010380Y-113458476D01*
X147010380Y-113220380D01*
X146962761Y-113125142D01*
X146915142Y-113077523D01*
X146819904Y-113029904D01*
X146724666Y-113029904D01*
X146629428Y-113077523D01*
X146581809Y-113125142D01*
X146534190Y-113220380D01*
X146486571Y-113410857D01*
X146438952Y-113506095D01*
X146391333Y-113553714D01*
X146296095Y-113601333D01*
X146200857Y-113601333D01*
X146105619Y-113553714D01*
X146058000Y-113506095D01*
X146010380Y-113410857D01*
X146010380Y-113172761D01*
X146058000Y-113029904D01*
X146010380Y-112696571D02*
X147010380Y-112458476D01*
X146296095Y-112268000D01*
X147010380Y-112077523D01*
X146010380Y-111839428D01*
X147010380Y-110934666D02*
X147010380Y-111506095D01*
X147010380Y-111220380D02*
X146010380Y-111220380D01*
X146153238Y-111315619D01*
X146248476Y-111410857D01*
X146296095Y-111506095D01*
X141930380Y-108688095D02*
X140930380Y-108688095D01*
X140930380Y-108450000D01*
X140978000Y-108307142D01*
X141073238Y-108211904D01*
X141168476Y-108164285D01*
X141358952Y-108116666D01*
X141501809Y-108116666D01*
X141692285Y-108164285D01*
X141787523Y-108211904D01*
X141882761Y-108307142D01*
X141930380Y-108450000D01*
X141930380Y-108688095D01*
X141025619Y-107735714D02*
X140978000Y-107688095D01*
X140930380Y-107592857D01*
X140930380Y-107354761D01*
X140978000Y-107259523D01*
X141025619Y-107211904D01*
X141120857Y-107164285D01*
X141216095Y-107164285D01*
X141358952Y-107211904D01*
X141930380Y-107783333D01*
X141930380Y-107164285D01*
X140978000Y-116038142D02*
X140930380Y-116133380D01*
X140930380Y-116276238D01*
X140978000Y-116419095D01*
X141073238Y-116514333D01*
X141168476Y-116561952D01*
X141358952Y-116609571D01*
X141501809Y-116609571D01*
X141692285Y-116561952D01*
X141787523Y-116514333D01*
X141882761Y-116419095D01*
X141930380Y-116276238D01*
X141930380Y-116181000D01*
X141882761Y-116038142D01*
X141835142Y-115990523D01*
X141501809Y-115990523D01*
X141501809Y-116181000D01*
X141930380Y-115561952D02*
X141263714Y-115561952D01*
X141454190Y-115561952D02*
X141358952Y-115514333D01*
X141311333Y-115466714D01*
X141263714Y-115371476D01*
X141263714Y-115276238D01*
X141882761Y-114561952D02*
X141930380Y-114657190D01*
X141930380Y-114847666D01*
X141882761Y-114942904D01*
X141787523Y-114990523D01*
X141406571Y-114990523D01*
X141311333Y-114942904D01*
X141263714Y-114847666D01*
X141263714Y-114657190D01*
X141311333Y-114561952D01*
X141406571Y-114514333D01*
X141501809Y-114514333D01*
X141597047Y-114990523D01*
X141882761Y-113704809D02*
X141930380Y-113800047D01*
X141930380Y-113990523D01*
X141882761Y-114085761D01*
X141787523Y-114133380D01*
X141406571Y-114133380D01*
X141311333Y-114085761D01*
X141263714Y-113990523D01*
X141263714Y-113800047D01*
X141311333Y-113704809D01*
X141406571Y-113657190D01*
X141501809Y-113657190D01*
X141597047Y-114133380D01*
X141263714Y-113228619D02*
X141930380Y-113228619D01*
X141358952Y-113228619D02*
X141311333Y-113181000D01*
X141263714Y-113085761D01*
X141263714Y-112942904D01*
X141311333Y-112847666D01*
X141406571Y-112800047D01*
X141930380Y-112800047D01*
X137612380Y-108688095D02*
X136612380Y-108688095D01*
X136612380Y-108450000D01*
X136660000Y-108307142D01*
X136755238Y-108211904D01*
X136850476Y-108164285D01*
X137040952Y-108116666D01*
X137183809Y-108116666D01*
X137374285Y-108164285D01*
X137469523Y-108211904D01*
X137564761Y-108307142D01*
X137612380Y-108450000D01*
X137612380Y-108688095D01*
X137612380Y-107164285D02*
X137612380Y-107735714D01*
X137612380Y-107450000D02*
X136612380Y-107450000D01*
X136755238Y-107545238D01*
X136850476Y-107640476D01*
X136898095Y-107735714D01*
X137612380Y-114490428D02*
X137136190Y-114823761D01*
X137612380Y-115061857D02*
X136612380Y-115061857D01*
X136612380Y-114680904D01*
X136660000Y-114585666D01*
X136707619Y-114538047D01*
X136802857Y-114490428D01*
X136945714Y-114490428D01*
X137040952Y-114538047D01*
X137088571Y-114585666D01*
X137136190Y-114680904D01*
X137136190Y-115061857D01*
X137564761Y-113680904D02*
X137612380Y-113776142D01*
X137612380Y-113966619D01*
X137564761Y-114061857D01*
X137469523Y-114109476D01*
X137088571Y-114109476D01*
X136993333Y-114061857D01*
X136945714Y-113966619D01*
X136945714Y-113776142D01*
X136993333Y-113680904D01*
X137088571Y-113633285D01*
X137183809Y-113633285D01*
X137279047Y-114109476D01*
X137612380Y-112776142D02*
X136612380Y-112776142D01*
X137564761Y-112776142D02*
X137612380Y-112871380D01*
X137612380Y-113061857D01*
X137564761Y-113157095D01*
X137517142Y-113204714D01*
X137421904Y-113252333D01*
X137136190Y-113252333D01*
X137040952Y-113204714D01*
X136993333Y-113157095D01*
X136945714Y-113061857D01*
X136945714Y-112871380D01*
X136993333Y-112776142D01*
X155067095Y-111888380D02*
X155067095Y-112697904D01*
X155114714Y-112793142D01*
X155162333Y-112840761D01*
X155257571Y-112888380D01*
X155448047Y-112888380D01*
X155543285Y-112840761D01*
X155590904Y-112793142D01*
X155638523Y-112697904D01*
X155638523Y-111888380D01*
X156590904Y-111888380D02*
X156114714Y-111888380D01*
X156067095Y-112364571D01*
X156114714Y-112316952D01*
X156209952Y-112269333D01*
X156448047Y-112269333D01*
X156543285Y-112316952D01*
X156590904Y-112364571D01*
X156638523Y-112459809D01*
X156638523Y-112697904D01*
X156590904Y-112793142D01*
X156543285Y-112840761D01*
X156448047Y-112888380D01*
X156209952Y-112888380D01*
X156114714Y-112840761D01*
X156067095Y-112793142D01*
X152162333Y-102138380D02*
X152162333Y-101138380D01*
X152495666Y-101852666D01*
X152829000Y-101138380D01*
X152829000Y-102138380D01*
X153876619Y-102043142D02*
X153829000Y-102090761D01*
X153686142Y-102138380D01*
X153590904Y-102138380D01*
X153448047Y-102090761D01*
X153352809Y-101995523D01*
X153305190Y-101900285D01*
X153257571Y-101709809D01*
X153257571Y-101566952D01*
X153305190Y-101376476D01*
X153352809Y-101281238D01*
X153448047Y-101186000D01*
X153590904Y-101138380D01*
X153686142Y-101138380D01*
X153829000Y-101186000D01*
X153876619Y-101233619D01*
X154305190Y-102138380D02*
X154305190Y-101138380D01*
X154686142Y-101138380D01*
X154781380Y-101186000D01*
X154829000Y-101233619D01*
X154876619Y-101328857D01*
X154876619Y-101471714D01*
X154829000Y-101566952D01*
X154781380Y-101614571D01*
X154686142Y-101662190D01*
X154305190Y-101662190D01*
X155257571Y-101233619D02*
X155305190Y-101186000D01*
X155400428Y-101138380D01*
X155638523Y-101138380D01*
X155733761Y-101186000D01*
X155781380Y-101233619D01*
X155829000Y-101328857D01*
X155829000Y-101424095D01*
X155781380Y-101566952D01*
X155209952Y-102138380D01*
X155829000Y-102138380D01*
X156209952Y-101233619D02*
X156257571Y-101186000D01*
X156352809Y-101138380D01*
X156590904Y-101138380D01*
X156686142Y-101186000D01*
X156733761Y-101233619D01*
X156781380Y-101328857D01*
X156781380Y-101424095D01*
X156733761Y-101566952D01*
X156162333Y-102138380D01*
X156781380Y-102138380D01*
X157162333Y-101233619D02*
X157209952Y-101186000D01*
X157305190Y-101138380D01*
X157543285Y-101138380D01*
X157638523Y-101186000D01*
X157686142Y-101233619D01*
X157733761Y-101328857D01*
X157733761Y-101424095D01*
X157686142Y-101566952D01*
X157114714Y-102138380D01*
X157733761Y-102138380D01*
X158686142Y-102138380D02*
X158114714Y-102138380D01*
X158400428Y-102138380D02*
X158400428Y-101138380D01*
X158305190Y-101281238D01*
X158209952Y-101376476D01*
X158114714Y-101424095D01*
X159067095Y-101852666D02*
X159543285Y-101852666D01*
X158971857Y-102138380D02*
X159305190Y-101138380D01*
X159638523Y-102138380D01*
X143002095Y-121499380D02*
X143002095Y-122308904D01*
X143049714Y-122404142D01*
X143097333Y-122451761D01*
X143192571Y-122499380D01*
X143383047Y-122499380D01*
X143478285Y-122451761D01*
X143525904Y-122404142D01*
X143573523Y-122308904D01*
X143573523Y-121499380D01*
X144002095Y-121594619D02*
X144049714Y-121547000D01*
X144144952Y-121499380D01*
X144383047Y-121499380D01*
X144478285Y-121547000D01*
X144525904Y-121594619D01*
X144573523Y-121689857D01*
X144573523Y-121785095D01*
X144525904Y-121927952D01*
X143954476Y-122499380D01*
X144573523Y-122499380D01*
X145582095Y-121499380D02*
X146248761Y-121499380D01*
X145820190Y-122499380D01*
X147058285Y-121832714D02*
X147058285Y-122499380D01*
X146820190Y-121451761D02*
X146582095Y-122166047D01*
X147201142Y-122166047D01*
X147582095Y-122499380D02*
X147582095Y-121499380D01*
X147582095Y-121975571D02*
X148153523Y-121975571D01*
X148153523Y-122499380D02*
X148153523Y-121499380D01*
X149201142Y-122404142D02*
X149153523Y-122451761D01*
X149010666Y-122499380D01*
X148915428Y-122499380D01*
X148772571Y-122451761D01*
X148677333Y-122356523D01*
X148629714Y-122261285D01*
X148582095Y-122070809D01*
X148582095Y-121927952D01*
X148629714Y-121737476D01*
X148677333Y-121642238D01*
X148772571Y-121547000D01*
X148915428Y-121499380D01*
X149010666Y-121499380D01*
X149153523Y-121547000D01*
X149201142Y-121594619D01*
X150105904Y-121499380D02*
X149629714Y-121499380D01*
X149582095Y-121975571D01*
X149629714Y-121927952D01*
X149724952Y-121880333D01*
X149963047Y-121880333D01*
X150058285Y-121927952D01*
X150105904Y-121975571D01*
X150153523Y-122070809D01*
X150153523Y-122308904D01*
X150105904Y-122404142D01*
X150058285Y-122451761D01*
X149963047Y-122499380D01*
X149724952Y-122499380D01*
X149629714Y-122451761D01*
X149582095Y-122404142D01*
X150629714Y-122499380D02*
X150820190Y-122499380D01*
X150915428Y-122451761D01*
X150963047Y-122404142D01*
X151058285Y-122261285D01*
X151105904Y-122070809D01*
X151105904Y-121689857D01*
X151058285Y-121594619D01*
X151010666Y-121547000D01*
X150915428Y-121499380D01*
X150724952Y-121499380D01*
X150629714Y-121547000D01*
X150582095Y-121594619D01*
X150534476Y-121689857D01*
X150534476Y-121927952D01*
X150582095Y-122023190D01*
X150629714Y-122070809D01*
X150724952Y-122118428D01*
X150915428Y-122118428D01*
X151010666Y-122070809D01*
X151058285Y-122023190D01*
X151105904Y-121927952D01*
X152010666Y-121499380D02*
X151534476Y-121499380D01*
X151486857Y-121975571D01*
X151534476Y-121927952D01*
X151629714Y-121880333D01*
X151867809Y-121880333D01*
X151963047Y-121927952D01*
X152010666Y-121975571D01*
X152058285Y-122070809D01*
X152058285Y-122308904D01*
X152010666Y-122404142D01*
X151963047Y-122451761D01*
X151867809Y-122499380D01*
X151629714Y-122499380D01*
X151534476Y-122451761D01*
X151486857Y-122404142D01*
X145415095Y-91273380D02*
X145415095Y-92082904D01*
X145462714Y-92178142D01*
X145510333Y-92225761D01*
X145605571Y-92273380D01*
X145796047Y-92273380D01*
X145891285Y-92225761D01*
X145938904Y-92178142D01*
X145986523Y-92082904D01*
X145986523Y-91273380D01*
X146891285Y-91606714D02*
X146891285Y-92273380D01*
X146653190Y-91225761D02*
X146415095Y-91940047D01*
X147034142Y-91940047D01*
X139041952Y-105068666D02*
X139518142Y-105068666D01*
X138946714Y-105354380D02*
X139280047Y-104354380D01*
X139613380Y-105354380D01*
X139803857Y-104354380D02*
X140375285Y-104354380D01*
X140089571Y-105354380D02*
X140089571Y-104354380D01*
X140708619Y-105354380D02*
X140708619Y-104687714D01*
X140708619Y-104782952D02*
X140756238Y-104735333D01*
X140851476Y-104687714D01*
X140994333Y-104687714D01*
X141089571Y-104735333D01*
X141137190Y-104830571D01*
X141137190Y-105354380D01*
X141137190Y-104830571D02*
X141184809Y-104735333D01*
X141280047Y-104687714D01*
X141422904Y-104687714D01*
X141518142Y-104735333D01*
X141565761Y-104830571D01*
X141565761Y-105354380D01*
X142422904Y-105306761D02*
X142327666Y-105354380D01*
X142137190Y-105354380D01*
X142041952Y-105306761D01*
X141994333Y-105211523D01*
X141994333Y-104830571D01*
X142041952Y-104735333D01*
X142137190Y-104687714D01*
X142327666Y-104687714D01*
X142422904Y-104735333D01*
X142470523Y-104830571D01*
X142470523Y-104925809D01*
X141994333Y-105021047D01*
X143327666Y-104687714D02*
X143327666Y-105497238D01*
X143280047Y-105592476D01*
X143232428Y-105640095D01*
X143137190Y-105687714D01*
X142994333Y-105687714D01*
X142899095Y-105640095D01*
X143327666Y-105306761D02*
X143232428Y-105354380D01*
X143041952Y-105354380D01*
X142946714Y-105306761D01*
X142899095Y-105259142D01*
X142851476Y-105163904D01*
X142851476Y-104878190D01*
X142899095Y-104782952D01*
X142946714Y-104735333D01*
X143041952Y-104687714D01*
X143232428Y-104687714D01*
X143327666Y-104735333D01*
X144232428Y-105354380D02*
X144232428Y-104830571D01*
X144184809Y-104735333D01*
X144089571Y-104687714D01*
X143899095Y-104687714D01*
X143803857Y-104735333D01*
X144232428Y-105306761D02*
X144137190Y-105354380D01*
X143899095Y-105354380D01*
X143803857Y-105306761D01*
X143756238Y-105211523D01*
X143756238Y-105116285D01*
X143803857Y-105021047D01*
X143899095Y-104973428D01*
X144137190Y-104973428D01*
X144232428Y-104925809D01*
X144613380Y-104354380D02*
X145232428Y-104354380D01*
X144899095Y-104735333D01*
X145041952Y-104735333D01*
X145137190Y-104782952D01*
X145184809Y-104830571D01*
X145232428Y-104925809D01*
X145232428Y-105163904D01*
X145184809Y-105259142D01*
X145137190Y-105306761D01*
X145041952Y-105354380D01*
X144756238Y-105354380D01*
X144661000Y-105306761D01*
X144613380Y-105259142D01*
X145613380Y-104449619D02*
X145661000Y-104402000D01*
X145756238Y-104354380D01*
X145994333Y-104354380D01*
X146089571Y-104402000D01*
X146137190Y-104449619D01*
X146184809Y-104544857D01*
X146184809Y-104640095D01*
X146137190Y-104782952D01*
X145565761Y-105354380D01*
X146184809Y-105354380D01*
X146756238Y-104782952D02*
X146661000Y-104735333D01*
X146613380Y-104687714D01*
X146565761Y-104592476D01*
X146565761Y-104544857D01*
X146613380Y-104449619D01*
X146661000Y-104402000D01*
X146756238Y-104354380D01*
X146946714Y-104354380D01*
X147041952Y-104402000D01*
X147089571Y-104449619D01*
X147137190Y-104544857D01*
X147137190Y-104592476D01*
X147089571Y-104687714D01*
X147041952Y-104735333D01*
X146946714Y-104782952D01*
X146756238Y-104782952D01*
X146661000Y-104830571D01*
X146613380Y-104878190D01*
X146565761Y-104973428D01*
X146565761Y-105163904D01*
X146613380Y-105259142D01*
X146661000Y-105306761D01*
X146756238Y-105354380D01*
X146946714Y-105354380D01*
X147041952Y-105306761D01*
X147089571Y-105259142D01*
X147137190Y-105163904D01*
X147137190Y-104973428D01*
X147089571Y-104878190D01*
X147041952Y-104830571D01*
X146946714Y-104782952D01*
X147565761Y-105354380D02*
X147565761Y-104354380D01*
X147946714Y-104354380D01*
X148041952Y-104402000D01*
X148089571Y-104449619D01*
X148137190Y-104544857D01*
X148137190Y-104687714D01*
X148089571Y-104782952D01*
X148041952Y-104830571D01*
X147946714Y-104878190D01*
X147565761Y-104878190D01*
X148565761Y-104973428D02*
X149327666Y-104973428D01*
X149756238Y-105068666D02*
X150232428Y-105068666D01*
X149661000Y-105354380D02*
X149994333Y-104354380D01*
X150327666Y-105354380D01*
X150661000Y-104354380D02*
X150661000Y-105163904D01*
X150708619Y-105259142D01*
X150756238Y-105306761D01*
X150851476Y-105354380D01*
X151041952Y-105354380D01*
X151137190Y-105306761D01*
X151184809Y-105259142D01*
X151232428Y-105163904D01*
X151232428Y-104354380D01*
X141946333Y-90495380D02*
X141613000Y-90019190D01*
X141374904Y-90495380D02*
X141374904Y-89495380D01*
X141755857Y-89495380D01*
X141851095Y-89543000D01*
X141898714Y-89590619D01*
X141946333Y-89685857D01*
X141946333Y-89828714D01*
X141898714Y-89923952D01*
X141851095Y-89971571D01*
X141755857Y-90019190D01*
X141374904Y-90019190D01*
X142803476Y-89495380D02*
X142613000Y-89495380D01*
X142517761Y-89543000D01*
X142470142Y-89590619D01*
X142374904Y-89733476D01*
X142327285Y-89923952D01*
X142327285Y-90304904D01*
X142374904Y-90400142D01*
X142422523Y-90447761D01*
X142517761Y-90495380D01*
X142708238Y-90495380D01*
X142803476Y-90447761D01*
X142851095Y-90400142D01*
X142898714Y-90304904D01*
X142898714Y-90066809D01*
X142851095Y-89971571D01*
X142803476Y-89923952D01*
X142708238Y-89876333D01*
X142517761Y-89876333D01*
X142422523Y-89923952D01*
X142374904Y-89971571D01*
X142327285Y-90066809D01*
X148185333Y-90495380D02*
X147613904Y-90495380D01*
X147899619Y-90495380D02*
X147899619Y-89495380D01*
X147804380Y-89638238D01*
X147709142Y-89733476D01*
X147613904Y-89781095D01*
X148804380Y-89495380D02*
X148899619Y-89495380D01*
X148994857Y-89543000D01*
X149042476Y-89590619D01*
X149090095Y-89685857D01*
X149137714Y-89876333D01*
X149137714Y-90114428D01*
X149090095Y-90304904D01*
X149042476Y-90400142D01*
X148994857Y-90447761D01*
X148899619Y-90495380D01*
X148804380Y-90495380D01*
X148709142Y-90447761D01*
X148661523Y-90400142D01*
X148613904Y-90304904D01*
X148566285Y-90114428D01*
X148566285Y-89876333D01*
X148613904Y-89685857D01*
X148661523Y-89590619D01*
X148709142Y-89543000D01*
X148804380Y-89495380D01*
X149566285Y-90495380D02*
X149566285Y-89495380D01*
X149661523Y-90114428D02*
X149947238Y-90495380D01*
X149947238Y-89828714D02*
X149566285Y-90209666D01*
X150328190Y-90495380D02*
X150566285Y-90495380D01*
X150566285Y-90304904D01*
X150471047Y-90257285D01*
X150375809Y-90162047D01*
X150328190Y-90019190D01*
X150328190Y-89781095D01*
X150375809Y-89638238D01*
X150471047Y-89543000D01*
X150613904Y-89495380D01*
X150804380Y-89495380D01*
X150947238Y-89543000D01*
X151042476Y-89638238D01*
X151090095Y-89781095D01*
X151090095Y-90019190D01*
X151042476Y-90162047D01*
X150947238Y-90257285D01*
X150852000Y-90304904D01*
X150852000Y-90495380D01*
X151090095Y-90495380D01*
X130008333Y-92019380D02*
X129675000Y-91543190D01*
X129436904Y-92019380D02*
X129436904Y-91019380D01*
X129817857Y-91019380D01*
X129913095Y-91067000D01*
X129960714Y-91114619D01*
X130008333Y-91209857D01*
X130008333Y-91352714D01*
X129960714Y-91447952D01*
X129913095Y-91495571D01*
X129817857Y-91543190D01*
X129436904Y-91543190D01*
X130913095Y-91019380D02*
X130436904Y-91019380D01*
X130389285Y-91495571D01*
X130436904Y-91447952D01*
X130532142Y-91400333D01*
X130770238Y-91400333D01*
X130865476Y-91447952D01*
X130913095Y-91495571D01*
X130960714Y-91590809D01*
X130960714Y-91828904D01*
X130913095Y-91924142D01*
X130865476Y-91971761D01*
X130770238Y-92019380D01*
X130532142Y-92019380D01*
X130436904Y-91971761D01*
X130389285Y-91924142D01*
X129008333Y-95194380D02*
X128436904Y-95194380D01*
X128722619Y-95194380D02*
X128722619Y-94194380D01*
X128627380Y-94337238D01*
X128532142Y-94432476D01*
X128436904Y-94480095D01*
X129627380Y-94194380D02*
X129722619Y-94194380D01*
X129817857Y-94242000D01*
X129865476Y-94289619D01*
X129913095Y-94384857D01*
X129960714Y-94575333D01*
X129960714Y-94813428D01*
X129913095Y-95003904D01*
X129865476Y-95099142D01*
X129817857Y-95146761D01*
X129722619Y-95194380D01*
X129627380Y-95194380D01*
X129532142Y-95146761D01*
X129484523Y-95099142D01*
X129436904Y-95003904D01*
X129389285Y-94813428D01*
X129389285Y-94575333D01*
X129436904Y-94384857D01*
X129484523Y-94289619D01*
X129532142Y-94242000D01*
X129627380Y-94194380D01*
X130389285Y-95194380D02*
X130389285Y-94194380D01*
X130484523Y-94813428D02*
X130770238Y-95194380D01*
X130770238Y-94527714D02*
X130389285Y-94908666D01*
X131151190Y-95194380D02*
X131389285Y-95194380D01*
X131389285Y-95003904D01*
X131294047Y-94956285D01*
X131198809Y-94861047D01*
X131151190Y-94718190D01*
X131151190Y-94480095D01*
X131198809Y-94337238D01*
X131294047Y-94242000D01*
X131436904Y-94194380D01*
X131627380Y-94194380D01*
X131770238Y-94242000D01*
X131865476Y-94337238D01*
X131913095Y-94480095D01*
X131913095Y-94718190D01*
X131865476Y-94861047D01*
X131770238Y-94956285D01*
X131675000Y-95003904D01*
X131675000Y-95194380D01*
X131913095Y-95194380D01*
X141946333Y-85415380D02*
X141613000Y-84939190D01*
X141374904Y-85415380D02*
X141374904Y-84415380D01*
X141755857Y-84415380D01*
X141851095Y-84463000D01*
X141898714Y-84510619D01*
X141946333Y-84605857D01*
X141946333Y-84748714D01*
X141898714Y-84843952D01*
X141851095Y-84891571D01*
X141755857Y-84939190D01*
X141374904Y-84939190D01*
X142803476Y-84748714D02*
X142803476Y-85415380D01*
X142565380Y-84367761D02*
X142327285Y-85082047D01*
X142946333Y-85082047D01*
X148113904Y-85415380D02*
X147542476Y-85415380D01*
X147828190Y-85415380D02*
X147828190Y-84415380D01*
X147732952Y-84558238D01*
X147637714Y-84653476D01*
X147542476Y-84701095D01*
X148732952Y-84415380D02*
X148828190Y-84415380D01*
X148923428Y-84463000D01*
X148971047Y-84510619D01*
X149018666Y-84605857D01*
X149066285Y-84796333D01*
X149066285Y-85034428D01*
X149018666Y-85224904D01*
X148971047Y-85320142D01*
X148923428Y-85367761D01*
X148828190Y-85415380D01*
X148732952Y-85415380D01*
X148637714Y-85367761D01*
X148590095Y-85320142D01*
X148542476Y-85224904D01*
X148494857Y-85034428D01*
X148494857Y-84796333D01*
X148542476Y-84605857D01*
X148590095Y-84510619D01*
X148637714Y-84463000D01*
X148732952Y-84415380D01*
X149685333Y-84415380D02*
X149780571Y-84415380D01*
X149875809Y-84463000D01*
X149923428Y-84510619D01*
X149971047Y-84605857D01*
X150018666Y-84796333D01*
X150018666Y-85034428D01*
X149971047Y-85224904D01*
X149923428Y-85320142D01*
X149875809Y-85367761D01*
X149780571Y-85415380D01*
X149685333Y-85415380D01*
X149590095Y-85367761D01*
X149542476Y-85320142D01*
X149494857Y-85224904D01*
X149447238Y-85034428D01*
X149447238Y-84796333D01*
X149494857Y-84605857D01*
X149542476Y-84510619D01*
X149590095Y-84463000D01*
X149685333Y-84415380D01*
X150399619Y-85415380D02*
X150637714Y-85415380D01*
X150637714Y-85224904D01*
X150542476Y-85177285D01*
X150447238Y-85082047D01*
X150399619Y-84939190D01*
X150399619Y-84701095D01*
X150447238Y-84558238D01*
X150542476Y-84463000D01*
X150685333Y-84415380D01*
X150875809Y-84415380D01*
X151018666Y-84463000D01*
X151113904Y-84558238D01*
X151161523Y-84701095D01*
X151161523Y-84939190D01*
X151113904Y-85082047D01*
X151018666Y-85177285D01*
X150923428Y-85224904D01*
X150923428Y-85415380D01*
X151161523Y-85415380D01*
X141946333Y-87955380D02*
X141613000Y-87479190D01*
X141374904Y-87955380D02*
X141374904Y-86955380D01*
X141755857Y-86955380D01*
X141851095Y-87003000D01*
X141898714Y-87050619D01*
X141946333Y-87145857D01*
X141946333Y-87288714D01*
X141898714Y-87383952D01*
X141851095Y-87431571D01*
X141755857Y-87479190D01*
X141374904Y-87479190D01*
X142279666Y-86955380D02*
X142898714Y-86955380D01*
X142565380Y-87336333D01*
X142708238Y-87336333D01*
X142803476Y-87383952D01*
X142851095Y-87431571D01*
X142898714Y-87526809D01*
X142898714Y-87764904D01*
X142851095Y-87860142D01*
X142803476Y-87907761D01*
X142708238Y-87955380D01*
X142422523Y-87955380D01*
X142327285Y-87907761D01*
X142279666Y-87860142D01*
X148185333Y-87955380D02*
X147613904Y-87955380D01*
X147899619Y-87955380D02*
X147899619Y-86955380D01*
X147804380Y-87098238D01*
X147709142Y-87193476D01*
X147613904Y-87241095D01*
X148804380Y-86955380D02*
X148899619Y-86955380D01*
X148994857Y-87003000D01*
X149042476Y-87050619D01*
X149090095Y-87145857D01*
X149137714Y-87336333D01*
X149137714Y-87574428D01*
X149090095Y-87764904D01*
X149042476Y-87860142D01*
X148994857Y-87907761D01*
X148899619Y-87955380D01*
X148804380Y-87955380D01*
X148709142Y-87907761D01*
X148661523Y-87860142D01*
X148613904Y-87764904D01*
X148566285Y-87574428D01*
X148566285Y-87336333D01*
X148613904Y-87145857D01*
X148661523Y-87050619D01*
X148709142Y-87003000D01*
X148804380Y-86955380D01*
X149566285Y-87955380D02*
X149566285Y-86955380D01*
X149661523Y-87574428D02*
X149947238Y-87955380D01*
X149947238Y-87288714D02*
X149566285Y-87669666D01*
X150328190Y-87955380D02*
X150566285Y-87955380D01*
X150566285Y-87764904D01*
X150471047Y-87717285D01*
X150375809Y-87622047D01*
X150328190Y-87479190D01*
X150328190Y-87241095D01*
X150375809Y-87098238D01*
X150471047Y-87003000D01*
X150613904Y-86955380D01*
X150804380Y-86955380D01*
X150947238Y-87003000D01*
X151042476Y-87098238D01*
X151090095Y-87241095D01*
X151090095Y-87479190D01*
X151042476Y-87622047D01*
X150947238Y-87717285D01*
X150852000Y-87764904D01*
X150852000Y-87955380D01*
X151090095Y-87955380D01*
X139771380Y-108116666D02*
X139295190Y-108450000D01*
X139771380Y-108688095D02*
X138771380Y-108688095D01*
X138771380Y-108307142D01*
X138819000Y-108211904D01*
X138866619Y-108164285D01*
X138961857Y-108116666D01*
X139104714Y-108116666D01*
X139199952Y-108164285D01*
X139247571Y-108211904D01*
X139295190Y-108307142D01*
X139295190Y-108688095D01*
X138866619Y-107735714D02*
X138819000Y-107688095D01*
X138771380Y-107592857D01*
X138771380Y-107354761D01*
X138819000Y-107259523D01*
X138866619Y-107211904D01*
X138961857Y-107164285D01*
X139057095Y-107164285D01*
X139199952Y-107211904D01*
X139771380Y-107783333D01*
X139771380Y-107164285D01*
X138771380Y-116411142D02*
X138771380Y-115792095D01*
X139152333Y-116125428D01*
X139152333Y-115982571D01*
X139199952Y-115887333D01*
X139247571Y-115839714D01*
X139342809Y-115792095D01*
X139580904Y-115792095D01*
X139676142Y-115839714D01*
X139723761Y-115887333D01*
X139771380Y-115982571D01*
X139771380Y-116268285D01*
X139723761Y-116363523D01*
X139676142Y-116411142D01*
X138771380Y-115458761D02*
X138771380Y-114839714D01*
X139152333Y-115173047D01*
X139152333Y-115030190D01*
X139199952Y-114934952D01*
X139247571Y-114887333D01*
X139342809Y-114839714D01*
X139580904Y-114839714D01*
X139676142Y-114887333D01*
X139723761Y-114934952D01*
X139771380Y-115030190D01*
X139771380Y-115315904D01*
X139723761Y-115411142D01*
X139676142Y-115458761D01*
X138771380Y-114220666D02*
X138771380Y-114125428D01*
X138819000Y-114030190D01*
X138866619Y-113982571D01*
X138961857Y-113934952D01*
X139152333Y-113887333D01*
X139390428Y-113887333D01*
X139580904Y-113934952D01*
X139676142Y-113982571D01*
X139723761Y-114030190D01*
X139771380Y-114125428D01*
X139771380Y-114220666D01*
X139723761Y-114315904D01*
X139676142Y-114363523D01*
X139580904Y-114411142D01*
X139390428Y-114458761D01*
X139152333Y-114458761D01*
X138961857Y-114411142D01*
X138866619Y-114363523D01*
X138819000Y-114315904D01*
X138771380Y-114220666D01*
X139771380Y-113506380D02*
X139771380Y-113268285D01*
X139580904Y-113268285D01*
X139533285Y-113363523D01*
X139438047Y-113458761D01*
X139295190Y-113506380D01*
X139057095Y-113506380D01*
X138914238Y-113458761D01*
X138819000Y-113363523D01*
X138771380Y-113220666D01*
X138771380Y-113030190D01*
X138819000Y-112887333D01*
X138914238Y-112792095D01*
X139057095Y-112744476D01*
X139295190Y-112744476D01*
X139438047Y-112792095D01*
X139533285Y-112887333D01*
X139580904Y-112982571D01*
X139771380Y-112982571D01*
X139771380Y-112744476D01*
X135453380Y-108116666D02*
X134977190Y-108450000D01*
X135453380Y-108688095D02*
X134453380Y-108688095D01*
X134453380Y-108307142D01*
X134501000Y-108211904D01*
X134548619Y-108164285D01*
X134643857Y-108116666D01*
X134786714Y-108116666D01*
X134881952Y-108164285D01*
X134929571Y-108211904D01*
X134977190Y-108307142D01*
X134977190Y-108688095D01*
X135453380Y-107164285D02*
X135453380Y-107735714D01*
X135453380Y-107450000D02*
X134453380Y-107450000D01*
X134596238Y-107545238D01*
X134691476Y-107640476D01*
X134739095Y-107735714D01*
X134453380Y-116411142D02*
X134453380Y-115792095D01*
X134834333Y-116125428D01*
X134834333Y-115982571D01*
X134881952Y-115887333D01*
X134929571Y-115839714D01*
X135024809Y-115792095D01*
X135262904Y-115792095D01*
X135358142Y-115839714D01*
X135405761Y-115887333D01*
X135453380Y-115982571D01*
X135453380Y-116268285D01*
X135405761Y-116363523D01*
X135358142Y-116411142D01*
X134453380Y-115458761D02*
X134453380Y-114839714D01*
X134834333Y-115173047D01*
X134834333Y-115030190D01*
X134881952Y-114934952D01*
X134929571Y-114887333D01*
X135024809Y-114839714D01*
X135262904Y-114839714D01*
X135358142Y-114887333D01*
X135405761Y-114934952D01*
X135453380Y-115030190D01*
X135453380Y-115315904D01*
X135405761Y-115411142D01*
X135358142Y-115458761D01*
X134453380Y-114220666D02*
X134453380Y-114125428D01*
X134501000Y-114030190D01*
X134548619Y-113982571D01*
X134643857Y-113934952D01*
X134834333Y-113887333D01*
X135072428Y-113887333D01*
X135262904Y-113934952D01*
X135358142Y-113982571D01*
X135405761Y-114030190D01*
X135453380Y-114125428D01*
X135453380Y-114220666D01*
X135405761Y-114315904D01*
X135358142Y-114363523D01*
X135262904Y-114411142D01*
X135072428Y-114458761D01*
X134834333Y-114458761D01*
X134643857Y-114411142D01*
X134548619Y-114363523D01*
X134501000Y-114315904D01*
X134453380Y-114220666D01*
X135453380Y-113506380D02*
X135453380Y-113268285D01*
X135262904Y-113268285D01*
X135215285Y-113363523D01*
X135120047Y-113458761D01*
X134977190Y-113506380D01*
X134739095Y-113506380D01*
X134596238Y-113458761D01*
X134501000Y-113363523D01*
X134453380Y-113220666D01*
X134453380Y-113030190D01*
X134501000Y-112887333D01*
X134596238Y-112792095D01*
X134739095Y-112744476D01*
X134977190Y-112744476D01*
X135120047Y-112792095D01*
X135215285Y-112887333D01*
X135262904Y-112982571D01*
X135453380Y-112982571D01*
X135453380Y-112744476D01*
X130008333Y-84812142D02*
X129960714Y-84859761D01*
X129817857Y-84907380D01*
X129722619Y-84907380D01*
X129579761Y-84859761D01*
X129484523Y-84764523D01*
X129436904Y-84669285D01*
X129389285Y-84478809D01*
X129389285Y-84335952D01*
X129436904Y-84145476D01*
X129484523Y-84050238D01*
X129579761Y-83955000D01*
X129722619Y-83907380D01*
X129817857Y-83907380D01*
X129960714Y-83955000D01*
X130008333Y-84002619D01*
X130579761Y-84335952D02*
X130484523Y-84288333D01*
X130436904Y-84240714D01*
X130389285Y-84145476D01*
X130389285Y-84097857D01*
X130436904Y-84002619D01*
X130484523Y-83955000D01*
X130579761Y-83907380D01*
X130770238Y-83907380D01*
X130865476Y-83955000D01*
X130913095Y-84002619D01*
X130960714Y-84097857D01*
X130960714Y-84145476D01*
X130913095Y-84240714D01*
X130865476Y-84288333D01*
X130770238Y-84335952D01*
X130579761Y-84335952D01*
X130484523Y-84383571D01*
X130436904Y-84431190D01*
X130389285Y-84526428D01*
X130389285Y-84716904D01*
X130436904Y-84812142D01*
X130484523Y-84859761D01*
X130579761Y-84907380D01*
X130770238Y-84907380D01*
X130865476Y-84859761D01*
X130913095Y-84812142D01*
X130960714Y-84716904D01*
X130960714Y-84526428D01*
X130913095Y-84431190D01*
X130865476Y-84383571D01*
X130770238Y-84335952D01*
X154662142Y-118657666D02*
X154709761Y-118705285D01*
X154757380Y-118848142D01*
X154757380Y-118943380D01*
X154709761Y-119086238D01*
X154614523Y-119181476D01*
X154519285Y-119229095D01*
X154328809Y-119276714D01*
X154185952Y-119276714D01*
X153995476Y-119229095D01*
X153900238Y-119181476D01*
X153805000Y-119086238D01*
X153757380Y-118943380D01*
X153757380Y-118848142D01*
X153805000Y-118705285D01*
X153852619Y-118657666D01*
X153757380Y-118324333D02*
X153757380Y-117657666D01*
X154757380Y-118086238D01*
X140946142Y-124118666D02*
X140993761Y-124166285D01*
X141041380Y-124309142D01*
X141041380Y-124404380D01*
X140993761Y-124547238D01*
X140898523Y-124642476D01*
X140803285Y-124690095D01*
X140612809Y-124737714D01*
X140469952Y-124737714D01*
X140279476Y-124690095D01*
X140184238Y-124642476D01*
X140089000Y-124547238D01*
X140041380Y-124404380D01*
X140041380Y-124309142D01*
X140089000Y-124166285D01*
X140136619Y-124118666D01*
X140041380Y-123261523D02*
X140041380Y-123452000D01*
X140089000Y-123547238D01*
X140136619Y-123594857D01*
X140279476Y-123690095D01*
X140469952Y-123737714D01*
X140850904Y-123737714D01*
X140946142Y-123690095D01*
X140993761Y-123642476D01*
X141041380Y-123547238D01*
X141041380Y-123356761D01*
X140993761Y-123261523D01*
X140946142Y-123213904D01*
X140850904Y-123166285D01*
X140612809Y-123166285D01*
X140517571Y-123213904D01*
X140469952Y-123261523D01*
X140422333Y-123356761D01*
X140422333Y-123547238D01*
X140469952Y-123642476D01*
X140517571Y-123690095D01*
X140612809Y-123737714D01*
X136485333Y-102051142D02*
X136437714Y-102098761D01*
X136294857Y-102146380D01*
X136199619Y-102146380D01*
X136056761Y-102098761D01*
X135961523Y-102003523D01*
X135913904Y-101908285D01*
X135866285Y-101717809D01*
X135866285Y-101574952D01*
X135913904Y-101384476D01*
X135961523Y-101289238D01*
X136056761Y-101194000D01*
X136199619Y-101146380D01*
X136294857Y-101146380D01*
X136437714Y-101194000D01*
X136485333Y-101241619D01*
X137390095Y-101146380D02*
X136913904Y-101146380D01*
X136866285Y-101622571D01*
X136913904Y-101574952D01*
X137009142Y-101527333D01*
X137247238Y-101527333D01*
X137342476Y-101574952D01*
X137390095Y-101622571D01*
X137437714Y-101717809D01*
X137437714Y-101955904D01*
X137390095Y-102051142D01*
X137342476Y-102098761D01*
X137247238Y-102146380D01*
X137009142Y-102146380D01*
X136913904Y-102098761D01*
X136866285Y-102051142D01*
X136485333Y-99163142D02*
X136437714Y-99210761D01*
X136294857Y-99258380D01*
X136199619Y-99258380D01*
X136056761Y-99210761D01*
X135961523Y-99115523D01*
X135913904Y-99020285D01*
X135866285Y-98829809D01*
X135866285Y-98686952D01*
X135913904Y-98496476D01*
X135961523Y-98401238D01*
X136056761Y-98306000D01*
X136199619Y-98258380D01*
X136294857Y-98258380D01*
X136437714Y-98306000D01*
X136485333Y-98353619D01*
X137342476Y-98591714D02*
X137342476Y-99258380D01*
X137104380Y-98210761D02*
X136866285Y-98925047D01*
X137485333Y-98925047D01*
X163155333Y-107926142D02*
X163107714Y-107973761D01*
X162964857Y-108021380D01*
X162869619Y-108021380D01*
X162726761Y-107973761D01*
X162631523Y-107878523D01*
X162583904Y-107783285D01*
X162536285Y-107592809D01*
X162536285Y-107449952D01*
X162583904Y-107259476D01*
X162631523Y-107164238D01*
X162726761Y-107069000D01*
X162869619Y-107021380D01*
X162964857Y-107021380D01*
X163107714Y-107069000D01*
X163155333Y-107116619D01*
X163488666Y-107021380D02*
X164107714Y-107021380D01*
X163774380Y-107402333D01*
X163917238Y-107402333D01*
X164012476Y-107449952D01*
X164060095Y-107497571D01*
X164107714Y-107592809D01*
X164107714Y-107830904D01*
X164060095Y-107926142D01*
X164012476Y-107973761D01*
X163917238Y-108021380D01*
X163631523Y-108021380D01*
X163536285Y-107973761D01*
X163488666Y-107926142D01*
X163155333Y-103481142D02*
X163107714Y-103528761D01*
X162964857Y-103576380D01*
X162869619Y-103576380D01*
X162726761Y-103528761D01*
X162631523Y-103433523D01*
X162583904Y-103338285D01*
X162536285Y-103147809D01*
X162536285Y-103004952D01*
X162583904Y-102814476D01*
X162631523Y-102719238D01*
X162726761Y-102624000D01*
X162869619Y-102576380D01*
X162964857Y-102576380D01*
X163107714Y-102624000D01*
X163155333Y-102671619D01*
X163536285Y-102671619D02*
X163583904Y-102624000D01*
X163679142Y-102576380D01*
X163917238Y-102576380D01*
X164012476Y-102624000D01*
X164060095Y-102671619D01*
X164107714Y-102766857D01*
X164107714Y-102862095D01*
X164060095Y-103004952D01*
X163488666Y-103576380D01*
X164107714Y-103576380D01*
X136485333Y-96242142D02*
X136437714Y-96289761D01*
X136294857Y-96337380D01*
X136199619Y-96337380D01*
X136056761Y-96289761D01*
X135961523Y-96194523D01*
X135913904Y-96099285D01*
X135866285Y-95908809D01*
X135866285Y-95765952D01*
X135913904Y-95575476D01*
X135961523Y-95480238D01*
X136056761Y-95385000D01*
X136199619Y-95337380D01*
X136294857Y-95337380D01*
X136437714Y-95385000D01*
X136485333Y-95432619D01*
X137437714Y-96337380D02*
X136866285Y-96337380D01*
X137152000Y-96337380D02*
X137152000Y-95337380D01*
X137056761Y-95480238D01*
X136961523Y-95575476D01*
X136866285Y-95623095D01*
X161464666Y-114006380D02*
X161464666Y-114720666D01*
X161417047Y-114863523D01*
X161321809Y-114958761D01*
X161178952Y-115006380D01*
X161083714Y-115006380D01*
X162464666Y-115006380D02*
X161893238Y-115006380D01*
X162178952Y-115006380D02*
X162178952Y-114006380D01*
X162083714Y-114149238D01*
X161988476Y-114244476D01*
X161893238Y-114292095D01*
X156662380Y-124094380D02*
X155662380Y-124094380D01*
X156614761Y-123665809D02*
X156662380Y-123522952D01*
X156662380Y-123284857D01*
X156614761Y-123189619D01*
X156567142Y-123142000D01*
X156471904Y-123094380D01*
X156376666Y-123094380D01*
X156281428Y-123142000D01*
X156233809Y-123189619D01*
X156186190Y-123284857D01*
X156138571Y-123475333D01*
X156090952Y-123570571D01*
X156043333Y-123618190D01*
X155948095Y-123665809D01*
X155852857Y-123665809D01*
X155757619Y-123618190D01*
X155710000Y-123570571D01*
X155662380Y-123475333D01*
X155662380Y-123237238D01*
X155710000Y-123094380D01*
X156662380Y-122665809D02*
X155662380Y-122665809D01*
X155662380Y-122284857D01*
X155710000Y-122189619D01*
X155757619Y-122142000D01*
X155852857Y-122094380D01*
X155995714Y-122094380D01*
X156090952Y-122142000D01*
X156138571Y-122189619D01*
X156186190Y-122284857D01*
X156186190Y-122665809D01*
X156662380Y-120903904D02*
X155662380Y-120903904D01*
X156138571Y-120903904D02*
X156138571Y-120332476D01*
X156662380Y-120332476D02*
X155662380Y-120332476D01*
X156614761Y-119475333D02*
X156662380Y-119570571D01*
X156662380Y-119761047D01*
X156614761Y-119856285D01*
X156519523Y-119903904D01*
X156138571Y-119903904D01*
X156043333Y-119856285D01*
X155995714Y-119761047D01*
X155995714Y-119570571D01*
X156043333Y-119475333D01*
X156138571Y-119427714D01*
X156233809Y-119427714D01*
X156329047Y-119903904D01*
X156662380Y-118570571D02*
X156138571Y-118570571D01*
X156043333Y-118618190D01*
X155995714Y-118713428D01*
X155995714Y-118903904D01*
X156043333Y-118999142D01*
X156614761Y-118570571D02*
X156662380Y-118665809D01*
X156662380Y-118903904D01*
X156614761Y-118999142D01*
X156519523Y-119046761D01*
X156424285Y-119046761D01*
X156329047Y-118999142D01*
X156281428Y-118903904D01*
X156281428Y-118665809D01*
X156233809Y-118570571D01*
X156662380Y-117665809D02*
X155662380Y-117665809D01*
X156614761Y-117665809D02*
X156662380Y-117761047D01*
X156662380Y-117951523D01*
X156614761Y-118046761D01*
X156567142Y-118094380D01*
X156471904Y-118142000D01*
X156186190Y-118142000D01*
X156090952Y-118094380D01*
X156043333Y-118046761D01*
X155995714Y-117951523D01*
X155995714Y-117761047D01*
X156043333Y-117665809D01*
X156614761Y-116808666D02*
X156662380Y-116903904D01*
X156662380Y-117094380D01*
X156614761Y-117189619D01*
X156519523Y-117237238D01*
X156138571Y-117237238D01*
X156043333Y-117189619D01*
X155995714Y-117094380D01*
X155995714Y-116903904D01*
X156043333Y-116808666D01*
X156138571Y-116761047D01*
X156233809Y-116761047D01*
X156329047Y-117237238D01*
X156662380Y-116332476D02*
X155995714Y-116332476D01*
X156186190Y-116332476D02*
X156090952Y-116284857D01*
X156043333Y-116237238D01*
X155995714Y-116142000D01*
X155995714Y-116046761D01*
X140628619Y-89503238D02*
X140581000Y-89598476D01*
X140485761Y-89693714D01*
X140342904Y-89836571D01*
X140295285Y-89931809D01*
X140295285Y-90027047D01*
X140533380Y-89979428D02*
X140485761Y-90074666D01*
X140390523Y-90169904D01*
X140200047Y-90217523D01*
X139866714Y-90217523D01*
X139676238Y-90169904D01*
X139581000Y-90074666D01*
X139533380Y-89979428D01*
X139533380Y-89788952D01*
X139581000Y-89693714D01*
X139676238Y-89598476D01*
X139866714Y-89550857D01*
X140200047Y-89550857D01*
X140390523Y-89598476D01*
X140485761Y-89693714D01*
X140533380Y-89788952D01*
X140533380Y-89979428D01*
X140533380Y-88598476D02*
X140533380Y-89169904D01*
X140533380Y-88884190D02*
X139533380Y-88884190D01*
X139676238Y-88979428D01*
X139771476Y-89074666D01*
X139819095Y-89169904D01*
X133802380Y-92265142D02*
X132802380Y-92265142D01*
X133802380Y-91217523D02*
X133326190Y-91550857D01*
X133802380Y-91788952D02*
X132802380Y-91788952D01*
X132802380Y-91408000D01*
X132850000Y-91312761D01*
X132897619Y-91265142D01*
X132992857Y-91217523D01*
X133135714Y-91217523D01*
X133230952Y-91265142D01*
X133278571Y-91312761D01*
X133326190Y-91408000D01*
X133326190Y-91788952D01*
X133802380Y-90312761D02*
X133802380Y-90788952D01*
X132802380Y-90788952D01*
X132802380Y-89503238D02*
X132802380Y-89979428D01*
X133278571Y-90027047D01*
X133230952Y-89979428D01*
X133183333Y-89884190D01*
X133183333Y-89646095D01*
X133230952Y-89550857D01*
X133278571Y-89503238D01*
X133373809Y-89455619D01*
X133611904Y-89455619D01*
X133707142Y-89503238D01*
X133754761Y-89550857D01*
X133802380Y-89646095D01*
X133802380Y-89884190D01*
X133754761Y-89979428D01*
X133707142Y-90027047D01*
X132897619Y-89074666D02*
X132850000Y-89027047D01*
X132802380Y-88931809D01*
X132802380Y-88693714D01*
X132850000Y-88598476D01*
X132897619Y-88550857D01*
X132992857Y-88503238D01*
X133088095Y-88503238D01*
X133230952Y-88550857D01*
X133802380Y-89122285D01*
X133802380Y-88503238D01*
X132802380Y-87884190D02*
X132802380Y-87788952D01*
X132850000Y-87693714D01*
X132897619Y-87646095D01*
X132992857Y-87598476D01*
X133183333Y-87550857D01*
X133421428Y-87550857D01*
X133611904Y-87598476D01*
X133707142Y-87646095D01*
X133754761Y-87693714D01*
X133802380Y-87788952D01*
X133802380Y-87884190D01*
X133754761Y-87979428D01*
X133707142Y-88027047D01*
X133611904Y-88074666D01*
X133421428Y-88122285D01*
X133183333Y-88122285D01*
X132992857Y-88074666D01*
X132897619Y-88027047D01*
X132850000Y-87979428D01*
X132802380Y-87884190D01*
X133802380Y-87122285D02*
X132802380Y-87122285D01*
X133802380Y-86550857D01*
X132802380Y-86550857D01*
M02*
