G04 #@! TF.GenerationSoftware,KiCad,Pcbnew,(5.1.0)-1*
G04 #@! TF.CreationDate,2019-05-24T23:33:48-04:00*
G04 #@! TF.ProjectId,f-ramune_avr,662d7261-6d75-46e6-955f-6176722e6b69,rev?*
G04 #@! TF.SameCoordinates,Original*
G04 #@! TF.FileFunction,Soldermask,Top*
G04 #@! TF.FilePolarity,Negative*
%FSLAX46Y46*%
G04 Gerber Fmt 4.6, Leading zero omitted, Abs format (unit mm)*
G04 Created by KiCad (PCBNEW (5.1.0)-1) date 2019-05-24 23:33:48*
%MOMM*%
%LPD*%
G04 APERTURE LIST*
%ADD10C,0.100000*%
G04 APERTURE END LIST*
D10*
G36*
X138527000Y-126941000D02*
G01*
X137825000Y-126941000D01*
X137825000Y-124839000D01*
X138527000Y-124839000D01*
X138527000Y-126941000D01*
X138527000Y-126941000D01*
G37*
G36*
X152243000Y-126941000D02*
G01*
X151541000Y-126941000D01*
X151541000Y-124839000D01*
X152243000Y-124839000D01*
X152243000Y-126941000D01*
X152243000Y-126941000D01*
G37*
G36*
X129637000Y-126941000D02*
G01*
X128935000Y-126941000D01*
X128935000Y-124839000D01*
X129637000Y-124839000D01*
X129637000Y-126941000D01*
X129637000Y-126941000D01*
G37*
G36*
X130907000Y-126941000D02*
G01*
X130205000Y-126941000D01*
X130205000Y-124839000D01*
X130907000Y-124839000D01*
X130907000Y-126941000D01*
X130907000Y-126941000D01*
G37*
G36*
X132177000Y-126941000D02*
G01*
X131475000Y-126941000D01*
X131475000Y-124839000D01*
X132177000Y-124839000D01*
X132177000Y-126941000D01*
X132177000Y-126941000D01*
G37*
G36*
X133447000Y-126941000D02*
G01*
X132745000Y-126941000D01*
X132745000Y-124839000D01*
X133447000Y-124839000D01*
X133447000Y-126941000D01*
X133447000Y-126941000D01*
G37*
G36*
X134717000Y-126941000D02*
G01*
X134015000Y-126941000D01*
X134015000Y-124839000D01*
X134717000Y-124839000D01*
X134717000Y-126941000D01*
X134717000Y-126941000D01*
G37*
G36*
X135987000Y-126941000D02*
G01*
X135285000Y-126941000D01*
X135285000Y-124839000D01*
X135987000Y-124839000D01*
X135987000Y-126941000D01*
X135987000Y-126941000D01*
G37*
G36*
X137257000Y-126941000D02*
G01*
X136555000Y-126941000D01*
X136555000Y-124839000D01*
X137257000Y-124839000D01*
X137257000Y-126941000D01*
X137257000Y-126941000D01*
G37*
G36*
X143353000Y-126941000D02*
G01*
X142651000Y-126941000D01*
X142651000Y-124839000D01*
X143353000Y-124839000D01*
X143353000Y-126941000D01*
X143353000Y-126941000D01*
G37*
G36*
X144623000Y-126941000D02*
G01*
X143921000Y-126941000D01*
X143921000Y-124839000D01*
X144623000Y-124839000D01*
X144623000Y-126941000D01*
X144623000Y-126941000D01*
G37*
G36*
X145893000Y-126941000D02*
G01*
X145191000Y-126941000D01*
X145191000Y-124839000D01*
X145893000Y-124839000D01*
X145893000Y-126941000D01*
X145893000Y-126941000D01*
G37*
G36*
X147163000Y-126941000D02*
G01*
X146461000Y-126941000D01*
X146461000Y-124839000D01*
X147163000Y-124839000D01*
X147163000Y-126941000D01*
X147163000Y-126941000D01*
G37*
G36*
X148433000Y-126941000D02*
G01*
X147731000Y-126941000D01*
X147731000Y-124839000D01*
X148433000Y-124839000D01*
X148433000Y-126941000D01*
X148433000Y-126941000D01*
G37*
G36*
X149703000Y-126941000D02*
G01*
X149001000Y-126941000D01*
X149001000Y-124839000D01*
X149703000Y-124839000D01*
X149703000Y-126941000D01*
X149703000Y-126941000D01*
G37*
G36*
X150973000Y-126941000D02*
G01*
X150271000Y-126941000D01*
X150271000Y-124839000D01*
X150973000Y-124839000D01*
X150973000Y-126941000D01*
X150973000Y-126941000D01*
G37*
G36*
X160638442Y-121660518D02*
G01*
X160704627Y-121667037D01*
X160874466Y-121718557D01*
X161030991Y-121802222D01*
X161066729Y-121831552D01*
X161168186Y-121914814D01*
X161251448Y-122016271D01*
X161280778Y-122052009D01*
X161364443Y-122208534D01*
X161415963Y-122378373D01*
X161433359Y-122555000D01*
X161415963Y-122731627D01*
X161364443Y-122901466D01*
X161280778Y-123057991D01*
X161251448Y-123093729D01*
X161168186Y-123195186D01*
X161066729Y-123278448D01*
X161030991Y-123307778D01*
X160874466Y-123391443D01*
X160704627Y-123442963D01*
X160638442Y-123449482D01*
X160572260Y-123456000D01*
X160483740Y-123456000D01*
X160417558Y-123449482D01*
X160351373Y-123442963D01*
X160181534Y-123391443D01*
X160025009Y-123307778D01*
X159989271Y-123278448D01*
X159887814Y-123195186D01*
X159804552Y-123093729D01*
X159775222Y-123057991D01*
X159691557Y-122901466D01*
X159640037Y-122731627D01*
X159622641Y-122555000D01*
X159640037Y-122378373D01*
X159691557Y-122208534D01*
X159775222Y-122052009D01*
X159804552Y-122016271D01*
X159887814Y-121914814D01*
X159989271Y-121831552D01*
X160025009Y-121802222D01*
X160181534Y-121718557D01*
X160351373Y-121667037D01*
X160417558Y-121660518D01*
X160483740Y-121654000D01*
X160572260Y-121654000D01*
X160638442Y-121660518D01*
X160638442Y-121660518D01*
G37*
G36*
X163178442Y-121660518D02*
G01*
X163244627Y-121667037D01*
X163414466Y-121718557D01*
X163570991Y-121802222D01*
X163606729Y-121831552D01*
X163708186Y-121914814D01*
X163791448Y-122016271D01*
X163820778Y-122052009D01*
X163904443Y-122208534D01*
X163955963Y-122378373D01*
X163973359Y-122555000D01*
X163955963Y-122731627D01*
X163904443Y-122901466D01*
X163820778Y-123057991D01*
X163791448Y-123093729D01*
X163708186Y-123195186D01*
X163606729Y-123278448D01*
X163570991Y-123307778D01*
X163414466Y-123391443D01*
X163244627Y-123442963D01*
X163178442Y-123449482D01*
X163112260Y-123456000D01*
X163023740Y-123456000D01*
X162957558Y-123449482D01*
X162891373Y-123442963D01*
X162721534Y-123391443D01*
X162565009Y-123307778D01*
X162529271Y-123278448D01*
X162427814Y-123195186D01*
X162344552Y-123093729D01*
X162315222Y-123057991D01*
X162231557Y-122901466D01*
X162180037Y-122731627D01*
X162162641Y-122555000D01*
X162180037Y-122378373D01*
X162231557Y-122208534D01*
X162315222Y-122052009D01*
X162344552Y-122016271D01*
X162427814Y-121914814D01*
X162529271Y-121831552D01*
X162565009Y-121802222D01*
X162721534Y-121718557D01*
X162891373Y-121667037D01*
X162957558Y-121660518D01*
X163023740Y-121654000D01*
X163112260Y-121654000D01*
X163178442Y-121660518D01*
X163178442Y-121660518D01*
G37*
G36*
X122656629Y-121152719D02*
G01*
X122732142Y-121160156D01*
X122877476Y-121204243D01*
X122877479Y-121204244D01*
X123011416Y-121275835D01*
X123128817Y-121372183D01*
X123225165Y-121489584D01*
X123296756Y-121623521D01*
X123296757Y-121623524D01*
X123340844Y-121768858D01*
X123355730Y-121920000D01*
X123340844Y-122071142D01*
X123299167Y-122208532D01*
X123296756Y-122216479D01*
X123225165Y-122350416D01*
X123128817Y-122467817D01*
X123011416Y-122564165D01*
X122877479Y-122635756D01*
X122877476Y-122635757D01*
X122732142Y-122679844D01*
X122656629Y-122687281D01*
X122618873Y-122691000D01*
X121983127Y-122691000D01*
X121945371Y-122687281D01*
X121869858Y-122679844D01*
X121724524Y-122635757D01*
X121724521Y-122635756D01*
X121590584Y-122564165D01*
X121473183Y-122467817D01*
X121376835Y-122350416D01*
X121305244Y-122216479D01*
X121302833Y-122208532D01*
X121261156Y-122071142D01*
X121246270Y-121920000D01*
X121261156Y-121768858D01*
X121305243Y-121623524D01*
X121305244Y-121623521D01*
X121376835Y-121489584D01*
X121473183Y-121372183D01*
X121590584Y-121275835D01*
X121724521Y-121204244D01*
X121724524Y-121204243D01*
X121869858Y-121160156D01*
X121945371Y-121152719D01*
X121983127Y-121149000D01*
X122618873Y-121149000D01*
X122656629Y-121152719D01*
X122656629Y-121152719D01*
G37*
G36*
X109956629Y-121152719D02*
G01*
X110032142Y-121160156D01*
X110177476Y-121204243D01*
X110177479Y-121204244D01*
X110311416Y-121275835D01*
X110428817Y-121372183D01*
X110525165Y-121489584D01*
X110596756Y-121623521D01*
X110596757Y-121623524D01*
X110640844Y-121768858D01*
X110655730Y-121920000D01*
X110640844Y-122071142D01*
X110599167Y-122208532D01*
X110596756Y-122216479D01*
X110525165Y-122350416D01*
X110428817Y-122467817D01*
X110311416Y-122564165D01*
X110177479Y-122635756D01*
X110177476Y-122635757D01*
X110032142Y-122679844D01*
X109956629Y-122687281D01*
X109918873Y-122691000D01*
X109283127Y-122691000D01*
X109245371Y-122687281D01*
X109169858Y-122679844D01*
X109024524Y-122635757D01*
X109024521Y-122635756D01*
X108890584Y-122564165D01*
X108773183Y-122467817D01*
X108676835Y-122350416D01*
X108605244Y-122216479D01*
X108602833Y-122208532D01*
X108561156Y-122071142D01*
X108546270Y-121920000D01*
X108561156Y-121768858D01*
X108605243Y-121623524D01*
X108605244Y-121623521D01*
X108676835Y-121489584D01*
X108773183Y-121372183D01*
X108890584Y-121275835D01*
X109024521Y-121204244D01*
X109024524Y-121204243D01*
X109169858Y-121160156D01*
X109245371Y-121152719D01*
X109283127Y-121149000D01*
X109918873Y-121149000D01*
X109956629Y-121152719D01*
X109956629Y-121152719D01*
G37*
G36*
X117576629Y-121152719D02*
G01*
X117652142Y-121160156D01*
X117797476Y-121204243D01*
X117797479Y-121204244D01*
X117931416Y-121275835D01*
X118048817Y-121372183D01*
X118145165Y-121489584D01*
X118216756Y-121623521D01*
X118216757Y-121623524D01*
X118260844Y-121768858D01*
X118275730Y-121920000D01*
X118260844Y-122071142D01*
X118219167Y-122208532D01*
X118216756Y-122216479D01*
X118145165Y-122350416D01*
X118048817Y-122467817D01*
X117931416Y-122564165D01*
X117797479Y-122635756D01*
X117797476Y-122635757D01*
X117652142Y-122679844D01*
X117576629Y-122687281D01*
X117538873Y-122691000D01*
X116903127Y-122691000D01*
X116865371Y-122687281D01*
X116789858Y-122679844D01*
X116644524Y-122635757D01*
X116644521Y-122635756D01*
X116510584Y-122564165D01*
X116393183Y-122467817D01*
X116296835Y-122350416D01*
X116225244Y-122216479D01*
X116222833Y-122208532D01*
X116181156Y-122071142D01*
X116166270Y-121920000D01*
X116181156Y-121768858D01*
X116225243Y-121623524D01*
X116225244Y-121623521D01*
X116296835Y-121489584D01*
X116393183Y-121372183D01*
X116510584Y-121275835D01*
X116644521Y-121204244D01*
X116644524Y-121204243D01*
X116789858Y-121160156D01*
X116865371Y-121152719D01*
X116903127Y-121149000D01*
X117538873Y-121149000D01*
X117576629Y-121152719D01*
X117576629Y-121152719D01*
G37*
G36*
X107416629Y-121152719D02*
G01*
X107492142Y-121160156D01*
X107637476Y-121204243D01*
X107637479Y-121204244D01*
X107771416Y-121275835D01*
X107888817Y-121372183D01*
X107985165Y-121489584D01*
X108056756Y-121623521D01*
X108056757Y-121623524D01*
X108100844Y-121768858D01*
X108115730Y-121920000D01*
X108100844Y-122071142D01*
X108059167Y-122208532D01*
X108056756Y-122216479D01*
X107985165Y-122350416D01*
X107888817Y-122467817D01*
X107771416Y-122564165D01*
X107637479Y-122635756D01*
X107637476Y-122635757D01*
X107492142Y-122679844D01*
X107416629Y-122687281D01*
X107378873Y-122691000D01*
X106743127Y-122691000D01*
X106705371Y-122687281D01*
X106629858Y-122679844D01*
X106484524Y-122635757D01*
X106484521Y-122635756D01*
X106350584Y-122564165D01*
X106233183Y-122467817D01*
X106136835Y-122350416D01*
X106065244Y-122216479D01*
X106062833Y-122208532D01*
X106021156Y-122071142D01*
X106006270Y-121920000D01*
X106021156Y-121768858D01*
X106065243Y-121623524D01*
X106065244Y-121623521D01*
X106136835Y-121489584D01*
X106233183Y-121372183D01*
X106350584Y-121275835D01*
X106484521Y-121204244D01*
X106484524Y-121204243D01*
X106629858Y-121160156D01*
X106705371Y-121152719D01*
X106743127Y-121149000D01*
X107378873Y-121149000D01*
X107416629Y-121152719D01*
X107416629Y-121152719D01*
G37*
G36*
X140953499Y-121461445D02*
G01*
X140990995Y-121472820D01*
X141025554Y-121491292D01*
X141055847Y-121516153D01*
X141080708Y-121546446D01*
X141099180Y-121581005D01*
X141110555Y-121618501D01*
X141115000Y-121663638D01*
X141115000Y-122402362D01*
X141110555Y-122447499D01*
X141099180Y-122484995D01*
X141080708Y-122519554D01*
X141055847Y-122549847D01*
X141025554Y-122574708D01*
X140990995Y-122593180D01*
X140953499Y-122604555D01*
X140908362Y-122609000D01*
X140269638Y-122609000D01*
X140224501Y-122604555D01*
X140187005Y-122593180D01*
X140152446Y-122574708D01*
X140122153Y-122549847D01*
X140097292Y-122519554D01*
X140078820Y-122484995D01*
X140067445Y-122447499D01*
X140063000Y-122402362D01*
X140063000Y-121663638D01*
X140067445Y-121618501D01*
X140078820Y-121581005D01*
X140097292Y-121546446D01*
X140122153Y-121516153D01*
X140152446Y-121491292D01*
X140187005Y-121472820D01*
X140224501Y-121461445D01*
X140269638Y-121457000D01*
X140908362Y-121457000D01*
X140953499Y-121461445D01*
X140953499Y-121461445D01*
G37*
G36*
X154669499Y-121461445D02*
G01*
X154706995Y-121472820D01*
X154741554Y-121491292D01*
X154771847Y-121516153D01*
X154796708Y-121546446D01*
X154815180Y-121581005D01*
X154826555Y-121618501D01*
X154831000Y-121663638D01*
X154831000Y-122402362D01*
X154826555Y-122447499D01*
X154815180Y-122484995D01*
X154796708Y-122519554D01*
X154771847Y-122549847D01*
X154741554Y-122574708D01*
X154706995Y-122593180D01*
X154669499Y-122604555D01*
X154624362Y-122609000D01*
X153985638Y-122609000D01*
X153940501Y-122604555D01*
X153903005Y-122593180D01*
X153868446Y-122574708D01*
X153838153Y-122549847D01*
X153813292Y-122519554D01*
X153794820Y-122484995D01*
X153783445Y-122447499D01*
X153779000Y-122402362D01*
X153779000Y-121663638D01*
X153783445Y-121618501D01*
X153794820Y-121581005D01*
X153813292Y-121546446D01*
X153838153Y-121516153D01*
X153868446Y-121491292D01*
X153903005Y-121472820D01*
X153940501Y-121461445D01*
X153985638Y-121457000D01*
X154624362Y-121457000D01*
X154669499Y-121461445D01*
X154669499Y-121461445D01*
G37*
G36*
X145893000Y-121033000D02*
G01*
X145191000Y-121033000D01*
X145191000Y-118931000D01*
X145893000Y-118931000D01*
X145893000Y-121033000D01*
X145893000Y-121033000D01*
G37*
G36*
X144623000Y-121033000D02*
G01*
X143921000Y-121033000D01*
X143921000Y-118931000D01*
X144623000Y-118931000D01*
X144623000Y-121033000D01*
X144623000Y-121033000D01*
G37*
G36*
X152243000Y-121033000D02*
G01*
X151541000Y-121033000D01*
X151541000Y-118931000D01*
X152243000Y-118931000D01*
X152243000Y-121033000D01*
X152243000Y-121033000D01*
G37*
G36*
X147163000Y-121033000D02*
G01*
X146461000Y-121033000D01*
X146461000Y-118931000D01*
X147163000Y-118931000D01*
X147163000Y-121033000D01*
X147163000Y-121033000D01*
G37*
G36*
X143353000Y-121033000D02*
G01*
X142651000Y-121033000D01*
X142651000Y-118931000D01*
X143353000Y-118931000D01*
X143353000Y-121033000D01*
X143353000Y-121033000D01*
G37*
G36*
X150973000Y-121033000D02*
G01*
X150271000Y-121033000D01*
X150271000Y-118931000D01*
X150973000Y-118931000D01*
X150973000Y-121033000D01*
X150973000Y-121033000D01*
G37*
G36*
X138527000Y-121033000D02*
G01*
X137825000Y-121033000D01*
X137825000Y-118931000D01*
X138527000Y-118931000D01*
X138527000Y-121033000D01*
X138527000Y-121033000D01*
G37*
G36*
X135987000Y-121033000D02*
G01*
X135285000Y-121033000D01*
X135285000Y-118931000D01*
X135987000Y-118931000D01*
X135987000Y-121033000D01*
X135987000Y-121033000D01*
G37*
G36*
X148433000Y-121033000D02*
G01*
X147731000Y-121033000D01*
X147731000Y-118931000D01*
X148433000Y-118931000D01*
X148433000Y-121033000D01*
X148433000Y-121033000D01*
G37*
G36*
X134717000Y-121033000D02*
G01*
X134015000Y-121033000D01*
X134015000Y-118931000D01*
X134717000Y-118931000D01*
X134717000Y-121033000D01*
X134717000Y-121033000D01*
G37*
G36*
X129637000Y-121033000D02*
G01*
X128935000Y-121033000D01*
X128935000Y-118931000D01*
X129637000Y-118931000D01*
X129637000Y-121033000D01*
X129637000Y-121033000D01*
G37*
G36*
X137257000Y-121033000D02*
G01*
X136555000Y-121033000D01*
X136555000Y-118931000D01*
X137257000Y-118931000D01*
X137257000Y-121033000D01*
X137257000Y-121033000D01*
G37*
G36*
X130907000Y-121033000D02*
G01*
X130205000Y-121033000D01*
X130205000Y-118931000D01*
X130907000Y-118931000D01*
X130907000Y-121033000D01*
X130907000Y-121033000D01*
G37*
G36*
X133447000Y-121033000D02*
G01*
X132745000Y-121033000D01*
X132745000Y-118931000D01*
X133447000Y-118931000D01*
X133447000Y-121033000D01*
X133447000Y-121033000D01*
G37*
G36*
X149703000Y-121033000D02*
G01*
X149001000Y-121033000D01*
X149001000Y-118931000D01*
X149703000Y-118931000D01*
X149703000Y-121033000D01*
X149703000Y-121033000D01*
G37*
G36*
X132177000Y-121033000D02*
G01*
X131475000Y-121033000D01*
X131475000Y-118931000D01*
X132177000Y-118931000D01*
X132177000Y-121033000D01*
X132177000Y-121033000D01*
G37*
G36*
X163178443Y-119120519D02*
G01*
X163244627Y-119127037D01*
X163414466Y-119178557D01*
X163570991Y-119262222D01*
X163606729Y-119291552D01*
X163708186Y-119374814D01*
X163791448Y-119476271D01*
X163820778Y-119512009D01*
X163904443Y-119668534D01*
X163955963Y-119838373D01*
X163973359Y-120015000D01*
X163955963Y-120191627D01*
X163904443Y-120361466D01*
X163820778Y-120517991D01*
X163791448Y-120553729D01*
X163708186Y-120655186D01*
X163610937Y-120734995D01*
X163570991Y-120767778D01*
X163570989Y-120767779D01*
X163437783Y-120838980D01*
X163414466Y-120851443D01*
X163244627Y-120902963D01*
X163178442Y-120909482D01*
X163112260Y-120916000D01*
X163023740Y-120916000D01*
X162957558Y-120909482D01*
X162891373Y-120902963D01*
X162721534Y-120851443D01*
X162698218Y-120838980D01*
X162565011Y-120767779D01*
X162565009Y-120767778D01*
X162525063Y-120734995D01*
X162427814Y-120655186D01*
X162344552Y-120553729D01*
X162315222Y-120517991D01*
X162231557Y-120361466D01*
X162180037Y-120191627D01*
X162162641Y-120015000D01*
X162180037Y-119838373D01*
X162231557Y-119668534D01*
X162315222Y-119512009D01*
X162344552Y-119476271D01*
X162427814Y-119374814D01*
X162529271Y-119291552D01*
X162565009Y-119262222D01*
X162721534Y-119178557D01*
X162891373Y-119127037D01*
X162957557Y-119120519D01*
X163023740Y-119114000D01*
X163112260Y-119114000D01*
X163178443Y-119120519D01*
X163178443Y-119120519D01*
G37*
G36*
X160638443Y-119120519D02*
G01*
X160704627Y-119127037D01*
X160874466Y-119178557D01*
X161030991Y-119262222D01*
X161066729Y-119291552D01*
X161168186Y-119374814D01*
X161251448Y-119476271D01*
X161280778Y-119512009D01*
X161364443Y-119668534D01*
X161415963Y-119838373D01*
X161433359Y-120015000D01*
X161415963Y-120191627D01*
X161364443Y-120361466D01*
X161280778Y-120517991D01*
X161251448Y-120553729D01*
X161168186Y-120655186D01*
X161070937Y-120734995D01*
X161030991Y-120767778D01*
X161030989Y-120767779D01*
X160897783Y-120838980D01*
X160874466Y-120851443D01*
X160704627Y-120902963D01*
X160638442Y-120909482D01*
X160572260Y-120916000D01*
X160483740Y-120916000D01*
X160417558Y-120909482D01*
X160351373Y-120902963D01*
X160181534Y-120851443D01*
X160158218Y-120838980D01*
X160025011Y-120767779D01*
X160025009Y-120767778D01*
X159985063Y-120734995D01*
X159887814Y-120655186D01*
X159804552Y-120553729D01*
X159775222Y-120517991D01*
X159691557Y-120361466D01*
X159640037Y-120191627D01*
X159622641Y-120015000D01*
X159640037Y-119838373D01*
X159691557Y-119668534D01*
X159775222Y-119512009D01*
X159804552Y-119476271D01*
X159887814Y-119374814D01*
X159989271Y-119291552D01*
X160025009Y-119262222D01*
X160181534Y-119178557D01*
X160351373Y-119127037D01*
X160417557Y-119120519D01*
X160483740Y-119114000D01*
X160572260Y-119114000D01*
X160638443Y-119120519D01*
X160638443Y-119120519D01*
G37*
G36*
X140953499Y-119711445D02*
G01*
X140990995Y-119722820D01*
X141025554Y-119741292D01*
X141055847Y-119766153D01*
X141080708Y-119796446D01*
X141099180Y-119831005D01*
X141110555Y-119868501D01*
X141115000Y-119913638D01*
X141115000Y-120652362D01*
X141110555Y-120697499D01*
X141099180Y-120734995D01*
X141080708Y-120769554D01*
X141055847Y-120799847D01*
X141025554Y-120824708D01*
X140990995Y-120843180D01*
X140953499Y-120854555D01*
X140908362Y-120859000D01*
X140269638Y-120859000D01*
X140224501Y-120854555D01*
X140187005Y-120843180D01*
X140152446Y-120824708D01*
X140122153Y-120799847D01*
X140097292Y-120769554D01*
X140078820Y-120734995D01*
X140067445Y-120697499D01*
X140063000Y-120652362D01*
X140063000Y-119913638D01*
X140067445Y-119868501D01*
X140078820Y-119831005D01*
X140097292Y-119796446D01*
X140122153Y-119766153D01*
X140152446Y-119741292D01*
X140187005Y-119722820D01*
X140224501Y-119711445D01*
X140269638Y-119707000D01*
X140908362Y-119707000D01*
X140953499Y-119711445D01*
X140953499Y-119711445D01*
G37*
G36*
X154669499Y-119711445D02*
G01*
X154706995Y-119722820D01*
X154741554Y-119741292D01*
X154771847Y-119766153D01*
X154796708Y-119796446D01*
X154815180Y-119831005D01*
X154826555Y-119868501D01*
X154831000Y-119913638D01*
X154831000Y-120652362D01*
X154826555Y-120697499D01*
X154815180Y-120734995D01*
X154796708Y-120769554D01*
X154771847Y-120799847D01*
X154741554Y-120824708D01*
X154706995Y-120843180D01*
X154669499Y-120854555D01*
X154624362Y-120859000D01*
X153985638Y-120859000D01*
X153940501Y-120854555D01*
X153903005Y-120843180D01*
X153868446Y-120824708D01*
X153838153Y-120799847D01*
X153813292Y-120769554D01*
X153794820Y-120734995D01*
X153783445Y-120697499D01*
X153779000Y-120652362D01*
X153779000Y-119913638D01*
X153783445Y-119868501D01*
X153794820Y-119831005D01*
X153813292Y-119796446D01*
X153838153Y-119766153D01*
X153868446Y-119741292D01*
X153903005Y-119722820D01*
X153940501Y-119711445D01*
X153985638Y-119707000D01*
X154624362Y-119707000D01*
X154669499Y-119711445D01*
X154669499Y-119711445D01*
G37*
G36*
X122656629Y-118612719D02*
G01*
X122732142Y-118620156D01*
X122877476Y-118664243D01*
X122877479Y-118664244D01*
X123011416Y-118735835D01*
X123128817Y-118832183D01*
X123225165Y-118949584D01*
X123296756Y-119083521D01*
X123296757Y-119083524D01*
X123340844Y-119228858D01*
X123355730Y-119380000D01*
X123340844Y-119531142D01*
X123299167Y-119668532D01*
X123296756Y-119676479D01*
X123225165Y-119810416D01*
X123128817Y-119927817D01*
X123011416Y-120024165D01*
X122877479Y-120095756D01*
X122877476Y-120095757D01*
X122732142Y-120139844D01*
X122656629Y-120147281D01*
X122618873Y-120151000D01*
X121983127Y-120151000D01*
X121945371Y-120147281D01*
X121869858Y-120139844D01*
X121724524Y-120095757D01*
X121724521Y-120095756D01*
X121590584Y-120024165D01*
X121473183Y-119927817D01*
X121376835Y-119810416D01*
X121305244Y-119676479D01*
X121302833Y-119668532D01*
X121261156Y-119531142D01*
X121246270Y-119380000D01*
X121261156Y-119228858D01*
X121305243Y-119083524D01*
X121305244Y-119083521D01*
X121376835Y-118949584D01*
X121473183Y-118832183D01*
X121590584Y-118735835D01*
X121724521Y-118664244D01*
X121724524Y-118664243D01*
X121869858Y-118620156D01*
X121945371Y-118612719D01*
X121983127Y-118609000D01*
X122618873Y-118609000D01*
X122656629Y-118612719D01*
X122656629Y-118612719D01*
G37*
G36*
X109956629Y-118612719D02*
G01*
X110032142Y-118620156D01*
X110177476Y-118664243D01*
X110177479Y-118664244D01*
X110311416Y-118735835D01*
X110428817Y-118832183D01*
X110525165Y-118949584D01*
X110596756Y-119083521D01*
X110596757Y-119083524D01*
X110640844Y-119228858D01*
X110655730Y-119380000D01*
X110640844Y-119531142D01*
X110599167Y-119668532D01*
X110596756Y-119676479D01*
X110525165Y-119810416D01*
X110428817Y-119927817D01*
X110311416Y-120024165D01*
X110177479Y-120095756D01*
X110177476Y-120095757D01*
X110032142Y-120139844D01*
X109956629Y-120147281D01*
X109918873Y-120151000D01*
X109283127Y-120151000D01*
X109245371Y-120147281D01*
X109169858Y-120139844D01*
X109024524Y-120095757D01*
X109024521Y-120095756D01*
X108890584Y-120024165D01*
X108773183Y-119927817D01*
X108676835Y-119810416D01*
X108605244Y-119676479D01*
X108602833Y-119668532D01*
X108561156Y-119531142D01*
X108546270Y-119380000D01*
X108561156Y-119228858D01*
X108605243Y-119083524D01*
X108605244Y-119083521D01*
X108676835Y-118949584D01*
X108773183Y-118832183D01*
X108890584Y-118735835D01*
X109024521Y-118664244D01*
X109024524Y-118664243D01*
X109169858Y-118620156D01*
X109245371Y-118612719D01*
X109283127Y-118609000D01*
X109918873Y-118609000D01*
X109956629Y-118612719D01*
X109956629Y-118612719D01*
G37*
G36*
X117576629Y-118612719D02*
G01*
X117652142Y-118620156D01*
X117797476Y-118664243D01*
X117797479Y-118664244D01*
X117931416Y-118735835D01*
X118048817Y-118832183D01*
X118145165Y-118949584D01*
X118216756Y-119083521D01*
X118216757Y-119083524D01*
X118260844Y-119228858D01*
X118275730Y-119380000D01*
X118260844Y-119531142D01*
X118219167Y-119668532D01*
X118216756Y-119676479D01*
X118145165Y-119810416D01*
X118048817Y-119927817D01*
X117931416Y-120024165D01*
X117797479Y-120095756D01*
X117797476Y-120095757D01*
X117652142Y-120139844D01*
X117576629Y-120147281D01*
X117538873Y-120151000D01*
X116903127Y-120151000D01*
X116865371Y-120147281D01*
X116789858Y-120139844D01*
X116644524Y-120095757D01*
X116644521Y-120095756D01*
X116510584Y-120024165D01*
X116393183Y-119927817D01*
X116296835Y-119810416D01*
X116225244Y-119676479D01*
X116222833Y-119668532D01*
X116181156Y-119531142D01*
X116166270Y-119380000D01*
X116181156Y-119228858D01*
X116225243Y-119083524D01*
X116225244Y-119083521D01*
X116296835Y-118949584D01*
X116393183Y-118832183D01*
X116510584Y-118735835D01*
X116644521Y-118664244D01*
X116644524Y-118664243D01*
X116789858Y-118620156D01*
X116865371Y-118612719D01*
X116903127Y-118609000D01*
X117538873Y-118609000D01*
X117576629Y-118612719D01*
X117576629Y-118612719D01*
G37*
G36*
X107416629Y-118612719D02*
G01*
X107492142Y-118620156D01*
X107637476Y-118664243D01*
X107637479Y-118664244D01*
X107771416Y-118735835D01*
X107888817Y-118832183D01*
X107985165Y-118949584D01*
X108056756Y-119083521D01*
X108056757Y-119083524D01*
X108100844Y-119228858D01*
X108115730Y-119380000D01*
X108100844Y-119531142D01*
X108059167Y-119668532D01*
X108056756Y-119676479D01*
X107985165Y-119810416D01*
X107888817Y-119927817D01*
X107771416Y-120024165D01*
X107637479Y-120095756D01*
X107637476Y-120095757D01*
X107492142Y-120139844D01*
X107416629Y-120147281D01*
X107378873Y-120151000D01*
X106743127Y-120151000D01*
X106705371Y-120147281D01*
X106629858Y-120139844D01*
X106484524Y-120095757D01*
X106484521Y-120095756D01*
X106350584Y-120024165D01*
X106233183Y-119927817D01*
X106136835Y-119810416D01*
X106065244Y-119676479D01*
X106062833Y-119668532D01*
X106021156Y-119531142D01*
X106006270Y-119380000D01*
X106021156Y-119228858D01*
X106065243Y-119083524D01*
X106065244Y-119083521D01*
X106136835Y-118949584D01*
X106233183Y-118832183D01*
X106350584Y-118735835D01*
X106484521Y-118664244D01*
X106484524Y-118664243D01*
X106629858Y-118620156D01*
X106705371Y-118612719D01*
X106743127Y-118609000D01*
X107378873Y-118609000D01*
X107416629Y-118612719D01*
X107416629Y-118612719D01*
G37*
G36*
X161429000Y-118376000D02*
G01*
X159627000Y-118376000D01*
X159627000Y-116574000D01*
X161429000Y-116574000D01*
X161429000Y-118376000D01*
X161429000Y-118376000D01*
G37*
G36*
X163178443Y-116580519D02*
G01*
X163244627Y-116587037D01*
X163414466Y-116638557D01*
X163570991Y-116722222D01*
X163606729Y-116751552D01*
X163708186Y-116834814D01*
X163791448Y-116936271D01*
X163820778Y-116972009D01*
X163904443Y-117128534D01*
X163955963Y-117298373D01*
X163973359Y-117475000D01*
X163955963Y-117651627D01*
X163904443Y-117821466D01*
X163820778Y-117977991D01*
X163791448Y-118013729D01*
X163708186Y-118115186D01*
X163606729Y-118198448D01*
X163570991Y-118227778D01*
X163414466Y-118311443D01*
X163244627Y-118362963D01*
X163178442Y-118369482D01*
X163112260Y-118376000D01*
X163023740Y-118376000D01*
X162957558Y-118369482D01*
X162891373Y-118362963D01*
X162721534Y-118311443D01*
X162565009Y-118227778D01*
X162529271Y-118198448D01*
X162427814Y-118115186D01*
X162344552Y-118013729D01*
X162315222Y-117977991D01*
X162231557Y-117821466D01*
X162180037Y-117651627D01*
X162162641Y-117475000D01*
X162180037Y-117298373D01*
X162231557Y-117128534D01*
X162315222Y-116972009D01*
X162344552Y-116936271D01*
X162427814Y-116834814D01*
X162529271Y-116751552D01*
X162565009Y-116722222D01*
X162721534Y-116638557D01*
X162891373Y-116587037D01*
X162957557Y-116580519D01*
X163023740Y-116574000D01*
X163112260Y-116574000D01*
X163178443Y-116580519D01*
X163178443Y-116580519D01*
G37*
G36*
X117576629Y-116072719D02*
G01*
X117652142Y-116080156D01*
X117797476Y-116124243D01*
X117797479Y-116124244D01*
X117931416Y-116195835D01*
X118048817Y-116292183D01*
X118145165Y-116409584D01*
X118216756Y-116543521D01*
X118216757Y-116543524D01*
X118260844Y-116688858D01*
X118275730Y-116840000D01*
X118260844Y-116991142D01*
X118219167Y-117128532D01*
X118216756Y-117136479D01*
X118145165Y-117270416D01*
X118048817Y-117387817D01*
X117931416Y-117484165D01*
X117797479Y-117555756D01*
X117797476Y-117555757D01*
X117652142Y-117599844D01*
X117576629Y-117607281D01*
X117538873Y-117611000D01*
X116903127Y-117611000D01*
X116865371Y-117607281D01*
X116789858Y-117599844D01*
X116644524Y-117555757D01*
X116644521Y-117555756D01*
X116510584Y-117484165D01*
X116393183Y-117387817D01*
X116296835Y-117270416D01*
X116225244Y-117136479D01*
X116222833Y-117128532D01*
X116181156Y-116991142D01*
X116166270Y-116840000D01*
X116181156Y-116688858D01*
X116225243Y-116543524D01*
X116225244Y-116543521D01*
X116296835Y-116409584D01*
X116393183Y-116292183D01*
X116510584Y-116195835D01*
X116644521Y-116124244D01*
X116644524Y-116124243D01*
X116789858Y-116080156D01*
X116865371Y-116072719D01*
X116903127Y-116069000D01*
X117538873Y-116069000D01*
X117576629Y-116072719D01*
X117576629Y-116072719D01*
G37*
G36*
X107416629Y-116072719D02*
G01*
X107492142Y-116080156D01*
X107637476Y-116124243D01*
X107637479Y-116124244D01*
X107771416Y-116195835D01*
X107888817Y-116292183D01*
X107985165Y-116409584D01*
X108056756Y-116543521D01*
X108056757Y-116543524D01*
X108100844Y-116688858D01*
X108115730Y-116840000D01*
X108100844Y-116991142D01*
X108059167Y-117128532D01*
X108056756Y-117136479D01*
X107985165Y-117270416D01*
X107888817Y-117387817D01*
X107771416Y-117484165D01*
X107637479Y-117555756D01*
X107637476Y-117555757D01*
X107492142Y-117599844D01*
X107416629Y-117607281D01*
X107378873Y-117611000D01*
X106743127Y-117611000D01*
X106705371Y-117607281D01*
X106629858Y-117599844D01*
X106484524Y-117555757D01*
X106484521Y-117555756D01*
X106350584Y-117484165D01*
X106233183Y-117387817D01*
X106136835Y-117270416D01*
X106065244Y-117136479D01*
X106062833Y-117128532D01*
X106021156Y-116991142D01*
X106006270Y-116840000D01*
X106021156Y-116688858D01*
X106065243Y-116543524D01*
X106065244Y-116543521D01*
X106136835Y-116409584D01*
X106233183Y-116292183D01*
X106350584Y-116195835D01*
X106484521Y-116124244D01*
X106484524Y-116124243D01*
X106629858Y-116080156D01*
X106705371Y-116072719D01*
X106743127Y-116069000D01*
X107378873Y-116069000D01*
X107416629Y-116072719D01*
X107416629Y-116072719D01*
G37*
G36*
X109956629Y-116072719D02*
G01*
X110032142Y-116080156D01*
X110177476Y-116124243D01*
X110177479Y-116124244D01*
X110311416Y-116195835D01*
X110428817Y-116292183D01*
X110525165Y-116409584D01*
X110596756Y-116543521D01*
X110596757Y-116543524D01*
X110640844Y-116688858D01*
X110655730Y-116840000D01*
X110640844Y-116991142D01*
X110599167Y-117128532D01*
X110596756Y-117136479D01*
X110525165Y-117270416D01*
X110428817Y-117387817D01*
X110311416Y-117484165D01*
X110177479Y-117555756D01*
X110177476Y-117555757D01*
X110032142Y-117599844D01*
X109956629Y-117607281D01*
X109918873Y-117611000D01*
X109283127Y-117611000D01*
X109245371Y-117607281D01*
X109169858Y-117599844D01*
X109024524Y-117555757D01*
X109024521Y-117555756D01*
X108890584Y-117484165D01*
X108773183Y-117387817D01*
X108676835Y-117270416D01*
X108605244Y-117136479D01*
X108602833Y-117128532D01*
X108561156Y-116991142D01*
X108546270Y-116840000D01*
X108561156Y-116688858D01*
X108605243Y-116543524D01*
X108605244Y-116543521D01*
X108676835Y-116409584D01*
X108773183Y-116292183D01*
X108890584Y-116195835D01*
X109024521Y-116124244D01*
X109024524Y-116124243D01*
X109169858Y-116080156D01*
X109245371Y-116072719D01*
X109283127Y-116069000D01*
X109918873Y-116069000D01*
X109956629Y-116072719D01*
X109956629Y-116072719D01*
G37*
G36*
X122656629Y-116072719D02*
G01*
X122732142Y-116080156D01*
X122877476Y-116124243D01*
X122877479Y-116124244D01*
X123011416Y-116195835D01*
X123128817Y-116292183D01*
X123225165Y-116409584D01*
X123296756Y-116543521D01*
X123296757Y-116543524D01*
X123340844Y-116688858D01*
X123355730Y-116840000D01*
X123340844Y-116991142D01*
X123299167Y-117128532D01*
X123296756Y-117136479D01*
X123225165Y-117270416D01*
X123128817Y-117387817D01*
X123011416Y-117484165D01*
X122877479Y-117555756D01*
X122877476Y-117555757D01*
X122732142Y-117599844D01*
X122656629Y-117607281D01*
X122618873Y-117611000D01*
X121983127Y-117611000D01*
X121945371Y-117607281D01*
X121869858Y-117599844D01*
X121724524Y-117555757D01*
X121724521Y-117555756D01*
X121590584Y-117484165D01*
X121473183Y-117387817D01*
X121376835Y-117270416D01*
X121305244Y-117136479D01*
X121302833Y-117128532D01*
X121261156Y-116991142D01*
X121246270Y-116840000D01*
X121261156Y-116688858D01*
X121305243Y-116543524D01*
X121305244Y-116543521D01*
X121376835Y-116409584D01*
X121473183Y-116292183D01*
X121590584Y-116195835D01*
X121724521Y-116124244D01*
X121724524Y-116124243D01*
X121869858Y-116080156D01*
X121945371Y-116072719D01*
X121983127Y-116069000D01*
X122618873Y-116069000D01*
X122656629Y-116072719D01*
X122656629Y-116072719D01*
G37*
G36*
X149109000Y-116619000D02*
G01*
X148007000Y-116619000D01*
X148007000Y-113717000D01*
X149109000Y-113717000D01*
X149109000Y-116619000D01*
X149109000Y-116619000D01*
G37*
G36*
X145109000Y-116619000D02*
G01*
X144007000Y-116619000D01*
X144007000Y-113717000D01*
X145109000Y-113717000D01*
X145109000Y-116619000D01*
X145109000Y-116619000D01*
G37*
G36*
X132115000Y-116479000D02*
G01*
X130013000Y-116479000D01*
X130013000Y-108502000D01*
X132115000Y-108502000D01*
X132115000Y-116479000D01*
X132115000Y-116479000D01*
G37*
G36*
X109956629Y-113532719D02*
G01*
X110032142Y-113540156D01*
X110177476Y-113584243D01*
X110177479Y-113584244D01*
X110311416Y-113655835D01*
X110428817Y-113752183D01*
X110525165Y-113869584D01*
X110596756Y-114003521D01*
X110596757Y-114003524D01*
X110640844Y-114148858D01*
X110655730Y-114300000D01*
X110640844Y-114451142D01*
X110596757Y-114596476D01*
X110596756Y-114596479D01*
X110525165Y-114730416D01*
X110428817Y-114847817D01*
X110311416Y-114944165D01*
X110177479Y-115015756D01*
X110177476Y-115015757D01*
X110032142Y-115059844D01*
X109956629Y-115067281D01*
X109918873Y-115071000D01*
X109283127Y-115071000D01*
X109245371Y-115067281D01*
X109169858Y-115059844D01*
X109024524Y-115015757D01*
X109024521Y-115015756D01*
X108890584Y-114944165D01*
X108773183Y-114847817D01*
X108676835Y-114730416D01*
X108605244Y-114596479D01*
X108605243Y-114596476D01*
X108561156Y-114451142D01*
X108546270Y-114300000D01*
X108561156Y-114148858D01*
X108605243Y-114003524D01*
X108605244Y-114003521D01*
X108676835Y-113869584D01*
X108773183Y-113752183D01*
X108890584Y-113655835D01*
X109024521Y-113584244D01*
X109024524Y-113584243D01*
X109169858Y-113540156D01*
X109245371Y-113532719D01*
X109283127Y-113529000D01*
X109918873Y-113529000D01*
X109956629Y-113532719D01*
X109956629Y-113532719D01*
G37*
G36*
X122656629Y-113532719D02*
G01*
X122732142Y-113540156D01*
X122877476Y-113584243D01*
X122877479Y-113584244D01*
X123011416Y-113655835D01*
X123128817Y-113752183D01*
X123225165Y-113869584D01*
X123296756Y-114003521D01*
X123296757Y-114003524D01*
X123340844Y-114148858D01*
X123355730Y-114300000D01*
X123340844Y-114451142D01*
X123296757Y-114596476D01*
X123296756Y-114596479D01*
X123225165Y-114730416D01*
X123128817Y-114847817D01*
X123011416Y-114944165D01*
X122877479Y-115015756D01*
X122877476Y-115015757D01*
X122732142Y-115059844D01*
X122656629Y-115067281D01*
X122618873Y-115071000D01*
X121983127Y-115071000D01*
X121945371Y-115067281D01*
X121869858Y-115059844D01*
X121724524Y-115015757D01*
X121724521Y-115015756D01*
X121590584Y-114944165D01*
X121473183Y-114847817D01*
X121376835Y-114730416D01*
X121305244Y-114596479D01*
X121305243Y-114596476D01*
X121261156Y-114451142D01*
X121246270Y-114300000D01*
X121261156Y-114148858D01*
X121305243Y-114003524D01*
X121305244Y-114003521D01*
X121376835Y-113869584D01*
X121473183Y-113752183D01*
X121590584Y-113655835D01*
X121724521Y-113584244D01*
X121724524Y-113584243D01*
X121869858Y-113540156D01*
X121945371Y-113532719D01*
X121983127Y-113529000D01*
X122618873Y-113529000D01*
X122656629Y-113532719D01*
X122656629Y-113532719D01*
G37*
G36*
X117576629Y-113532719D02*
G01*
X117652142Y-113540156D01*
X117797476Y-113584243D01*
X117797479Y-113584244D01*
X117931416Y-113655835D01*
X118048817Y-113752183D01*
X118145165Y-113869584D01*
X118216756Y-114003521D01*
X118216757Y-114003524D01*
X118260844Y-114148858D01*
X118275730Y-114300000D01*
X118260844Y-114451142D01*
X118216757Y-114596476D01*
X118216756Y-114596479D01*
X118145165Y-114730416D01*
X118048817Y-114847817D01*
X117931416Y-114944165D01*
X117797479Y-115015756D01*
X117797476Y-115015757D01*
X117652142Y-115059844D01*
X117576629Y-115067281D01*
X117538873Y-115071000D01*
X116903127Y-115071000D01*
X116865371Y-115067281D01*
X116789858Y-115059844D01*
X116644524Y-115015757D01*
X116644521Y-115015756D01*
X116510584Y-114944165D01*
X116393183Y-114847817D01*
X116296835Y-114730416D01*
X116225244Y-114596479D01*
X116225243Y-114596476D01*
X116181156Y-114451142D01*
X116166270Y-114300000D01*
X116181156Y-114148858D01*
X116225243Y-114003524D01*
X116225244Y-114003521D01*
X116296835Y-113869584D01*
X116393183Y-113752183D01*
X116510584Y-113655835D01*
X116644521Y-113584244D01*
X116644524Y-113584243D01*
X116789858Y-113540156D01*
X116865371Y-113532719D01*
X116903127Y-113529000D01*
X117538873Y-113529000D01*
X117576629Y-113532719D01*
X117576629Y-113532719D01*
G37*
G36*
X107416629Y-113532719D02*
G01*
X107492142Y-113540156D01*
X107637476Y-113584243D01*
X107637479Y-113584244D01*
X107771416Y-113655835D01*
X107888817Y-113752183D01*
X107985165Y-113869584D01*
X108056756Y-114003521D01*
X108056757Y-114003524D01*
X108100844Y-114148858D01*
X108115730Y-114300000D01*
X108100844Y-114451142D01*
X108056757Y-114596476D01*
X108056756Y-114596479D01*
X107985165Y-114730416D01*
X107888817Y-114847817D01*
X107771416Y-114944165D01*
X107637479Y-115015756D01*
X107637476Y-115015757D01*
X107492142Y-115059844D01*
X107416629Y-115067281D01*
X107378873Y-115071000D01*
X106743127Y-115071000D01*
X106705371Y-115067281D01*
X106629858Y-115059844D01*
X106484524Y-115015757D01*
X106484521Y-115015756D01*
X106350584Y-114944165D01*
X106233183Y-114847817D01*
X106136835Y-114730416D01*
X106065244Y-114596479D01*
X106065243Y-114596476D01*
X106021156Y-114451142D01*
X106006270Y-114300000D01*
X106021156Y-114148858D01*
X106065243Y-114003524D01*
X106065244Y-114003521D01*
X106136835Y-113869584D01*
X106233183Y-113752183D01*
X106350584Y-113655835D01*
X106484521Y-113584244D01*
X106484524Y-113584243D01*
X106629858Y-113540156D01*
X106705371Y-113532719D01*
X106743127Y-113529000D01*
X107378873Y-113529000D01*
X107416629Y-113532719D01*
X107416629Y-113532719D01*
G37*
G36*
X122656629Y-110992719D02*
G01*
X122732142Y-111000156D01*
X122863505Y-111040005D01*
X122877479Y-111044244D01*
X123011416Y-111115835D01*
X123128817Y-111212183D01*
X123225165Y-111329584D01*
X123296756Y-111463521D01*
X123296757Y-111463524D01*
X123340844Y-111608858D01*
X123355730Y-111760000D01*
X123340844Y-111911142D01*
X123299334Y-112047980D01*
X123296756Y-112056479D01*
X123225165Y-112190416D01*
X123128817Y-112307817D01*
X123011416Y-112404165D01*
X122877479Y-112475756D01*
X122877476Y-112475757D01*
X122732142Y-112519844D01*
X122656629Y-112527281D01*
X122618873Y-112531000D01*
X121983127Y-112531000D01*
X121945371Y-112527281D01*
X121869858Y-112519844D01*
X121724524Y-112475757D01*
X121724521Y-112475756D01*
X121590584Y-112404165D01*
X121473183Y-112307817D01*
X121376835Y-112190416D01*
X121305244Y-112056479D01*
X121302666Y-112047980D01*
X121261156Y-111911142D01*
X121246270Y-111760000D01*
X121261156Y-111608858D01*
X121305243Y-111463524D01*
X121305244Y-111463521D01*
X121376835Y-111329584D01*
X121473183Y-111212183D01*
X121590584Y-111115835D01*
X121724521Y-111044244D01*
X121738495Y-111040005D01*
X121869858Y-111000156D01*
X121945371Y-110992719D01*
X121983127Y-110989000D01*
X122618873Y-110989000D01*
X122656629Y-110992719D01*
X122656629Y-110992719D01*
G37*
G36*
X117576629Y-110992719D02*
G01*
X117652142Y-111000156D01*
X117783505Y-111040005D01*
X117797479Y-111044244D01*
X117931416Y-111115835D01*
X118048817Y-111212183D01*
X118145165Y-111329584D01*
X118216756Y-111463521D01*
X118216757Y-111463524D01*
X118260844Y-111608858D01*
X118275730Y-111760000D01*
X118260844Y-111911142D01*
X118219334Y-112047980D01*
X118216756Y-112056479D01*
X118145165Y-112190416D01*
X118048817Y-112307817D01*
X117931416Y-112404165D01*
X117797479Y-112475756D01*
X117797476Y-112475757D01*
X117652142Y-112519844D01*
X117576629Y-112527281D01*
X117538873Y-112531000D01*
X116903127Y-112531000D01*
X116865371Y-112527281D01*
X116789858Y-112519844D01*
X116644524Y-112475757D01*
X116644521Y-112475756D01*
X116510584Y-112404165D01*
X116393183Y-112307817D01*
X116296835Y-112190416D01*
X116225244Y-112056479D01*
X116222666Y-112047980D01*
X116181156Y-111911142D01*
X116166270Y-111760000D01*
X116181156Y-111608858D01*
X116225243Y-111463524D01*
X116225244Y-111463521D01*
X116296835Y-111329584D01*
X116393183Y-111212183D01*
X116510584Y-111115835D01*
X116644521Y-111044244D01*
X116658495Y-111040005D01*
X116789858Y-111000156D01*
X116865371Y-110992719D01*
X116903127Y-110989000D01*
X117538873Y-110989000D01*
X117576629Y-110992719D01*
X117576629Y-110992719D01*
G37*
G36*
X107416629Y-110992719D02*
G01*
X107492142Y-111000156D01*
X107623505Y-111040005D01*
X107637479Y-111044244D01*
X107771416Y-111115835D01*
X107888817Y-111212183D01*
X107985165Y-111329584D01*
X108056756Y-111463521D01*
X108056757Y-111463524D01*
X108100844Y-111608858D01*
X108115730Y-111760000D01*
X108100844Y-111911142D01*
X108059334Y-112047980D01*
X108056756Y-112056479D01*
X107985165Y-112190416D01*
X107888817Y-112307817D01*
X107771416Y-112404165D01*
X107637479Y-112475756D01*
X107637476Y-112475757D01*
X107492142Y-112519844D01*
X107416629Y-112527281D01*
X107378873Y-112531000D01*
X106743127Y-112531000D01*
X106705371Y-112527281D01*
X106629858Y-112519844D01*
X106484524Y-112475757D01*
X106484521Y-112475756D01*
X106350584Y-112404165D01*
X106233183Y-112307817D01*
X106136835Y-112190416D01*
X106065244Y-112056479D01*
X106062666Y-112047980D01*
X106021156Y-111911142D01*
X106006270Y-111760000D01*
X106021156Y-111608858D01*
X106065243Y-111463524D01*
X106065244Y-111463521D01*
X106136835Y-111329584D01*
X106233183Y-111212183D01*
X106350584Y-111115835D01*
X106484521Y-111044244D01*
X106498495Y-111040005D01*
X106629858Y-111000156D01*
X106705371Y-110992719D01*
X106743127Y-110989000D01*
X107378873Y-110989000D01*
X107416629Y-110992719D01*
X107416629Y-110992719D01*
G37*
G36*
X109956629Y-110992719D02*
G01*
X110032142Y-111000156D01*
X110163505Y-111040005D01*
X110177479Y-111044244D01*
X110311416Y-111115835D01*
X110428817Y-111212183D01*
X110525165Y-111329584D01*
X110596756Y-111463521D01*
X110596757Y-111463524D01*
X110640844Y-111608858D01*
X110655730Y-111760000D01*
X110640844Y-111911142D01*
X110599334Y-112047980D01*
X110596756Y-112056479D01*
X110525165Y-112190416D01*
X110428817Y-112307817D01*
X110311416Y-112404165D01*
X110177479Y-112475756D01*
X110177476Y-112475757D01*
X110032142Y-112519844D01*
X109956629Y-112527281D01*
X109918873Y-112531000D01*
X109283127Y-112531000D01*
X109245371Y-112527281D01*
X109169858Y-112519844D01*
X109024524Y-112475757D01*
X109024521Y-112475756D01*
X108890584Y-112404165D01*
X108773183Y-112307817D01*
X108676835Y-112190416D01*
X108605244Y-112056479D01*
X108602666Y-112047980D01*
X108561156Y-111911142D01*
X108546270Y-111760000D01*
X108561156Y-111608858D01*
X108605243Y-111463524D01*
X108605244Y-111463521D01*
X108676835Y-111329584D01*
X108773183Y-111212183D01*
X108890584Y-111115835D01*
X109024521Y-111044244D01*
X109038495Y-111040005D01*
X109169858Y-111000156D01*
X109245371Y-110992719D01*
X109283127Y-110989000D01*
X109918873Y-110989000D01*
X109956629Y-110992719D01*
X109956629Y-110992719D01*
G37*
G36*
X137524499Y-110920445D02*
G01*
X137561995Y-110931820D01*
X137596554Y-110950292D01*
X137626847Y-110975153D01*
X137651708Y-111005446D01*
X137670180Y-111040005D01*
X137681555Y-111077501D01*
X137686000Y-111122638D01*
X137686000Y-111861362D01*
X137681555Y-111906499D01*
X137670180Y-111943995D01*
X137651708Y-111978554D01*
X137626847Y-112008847D01*
X137596554Y-112033708D01*
X137561995Y-112052180D01*
X137524499Y-112063555D01*
X137479362Y-112068000D01*
X136840638Y-112068000D01*
X136795501Y-112063555D01*
X136758005Y-112052180D01*
X136723446Y-112033708D01*
X136693153Y-112008847D01*
X136668292Y-111978554D01*
X136649820Y-111943995D01*
X136638445Y-111906499D01*
X136634000Y-111861362D01*
X136634000Y-111122638D01*
X136638445Y-111077501D01*
X136649820Y-111040005D01*
X136668292Y-111005446D01*
X136693153Y-110975153D01*
X136723446Y-110950292D01*
X136758005Y-110931820D01*
X136795501Y-110920445D01*
X136840638Y-110916000D01*
X137479362Y-110916000D01*
X137524499Y-110920445D01*
X137524499Y-110920445D01*
G37*
G36*
X141842499Y-110920445D02*
G01*
X141879995Y-110931820D01*
X141914554Y-110950292D01*
X141944847Y-110975153D01*
X141969708Y-111005446D01*
X141988180Y-111040005D01*
X141999555Y-111077501D01*
X142004000Y-111122638D01*
X142004000Y-111861362D01*
X141999555Y-111906499D01*
X141988180Y-111943995D01*
X141969708Y-111978554D01*
X141944847Y-112008847D01*
X141914554Y-112033708D01*
X141879995Y-112052180D01*
X141842499Y-112063555D01*
X141797362Y-112068000D01*
X141158638Y-112068000D01*
X141113501Y-112063555D01*
X141076005Y-112052180D01*
X141041446Y-112033708D01*
X141011153Y-112008847D01*
X140986292Y-111978554D01*
X140967820Y-111943995D01*
X140956445Y-111906499D01*
X140952000Y-111861362D01*
X140952000Y-111122638D01*
X140956445Y-111077501D01*
X140967820Y-111040005D01*
X140986292Y-111005446D01*
X141011153Y-110975153D01*
X141041446Y-110950292D01*
X141076005Y-110931820D01*
X141113501Y-110920445D01*
X141158638Y-110916000D01*
X141797362Y-110916000D01*
X141842499Y-110920445D01*
X141842499Y-110920445D01*
G37*
G36*
X139683499Y-110920445D02*
G01*
X139720995Y-110931820D01*
X139755554Y-110950292D01*
X139785847Y-110975153D01*
X139810708Y-111005446D01*
X139829180Y-111040005D01*
X139840555Y-111077501D01*
X139845000Y-111122638D01*
X139845000Y-111861362D01*
X139840555Y-111906499D01*
X139829180Y-111943995D01*
X139810708Y-111978554D01*
X139785847Y-112008847D01*
X139755554Y-112033708D01*
X139720995Y-112052180D01*
X139683499Y-112063555D01*
X139638362Y-112068000D01*
X138999638Y-112068000D01*
X138954501Y-112063555D01*
X138917005Y-112052180D01*
X138882446Y-112033708D01*
X138852153Y-112008847D01*
X138827292Y-111978554D01*
X138808820Y-111943995D01*
X138797445Y-111906499D01*
X138793000Y-111861362D01*
X138793000Y-111122638D01*
X138797445Y-111077501D01*
X138808820Y-111040005D01*
X138827292Y-111005446D01*
X138852153Y-110975153D01*
X138882446Y-110950292D01*
X138917005Y-110931820D01*
X138954501Y-110920445D01*
X138999638Y-110916000D01*
X139638362Y-110916000D01*
X139683499Y-110920445D01*
X139683499Y-110920445D01*
G37*
G36*
X135365499Y-110920445D02*
G01*
X135402995Y-110931820D01*
X135437554Y-110950292D01*
X135467847Y-110975153D01*
X135492708Y-111005446D01*
X135511180Y-111040005D01*
X135522555Y-111077501D01*
X135527000Y-111122638D01*
X135527000Y-111861362D01*
X135522555Y-111906499D01*
X135511180Y-111943995D01*
X135492708Y-111978554D01*
X135467847Y-112008847D01*
X135437554Y-112033708D01*
X135402995Y-112052180D01*
X135365499Y-112063555D01*
X135320362Y-112068000D01*
X134681638Y-112068000D01*
X134636501Y-112063555D01*
X134599005Y-112052180D01*
X134564446Y-112033708D01*
X134534153Y-112008847D01*
X134509292Y-111978554D01*
X134490820Y-111943995D01*
X134479445Y-111906499D01*
X134475000Y-111861362D01*
X134475000Y-111122638D01*
X134479445Y-111077501D01*
X134490820Y-111040005D01*
X134509292Y-111005446D01*
X134534153Y-110975153D01*
X134564446Y-110950292D01*
X134599005Y-110931820D01*
X134636501Y-110920445D01*
X134681638Y-110916000D01*
X135320362Y-110916000D01*
X135365499Y-110920445D01*
X135365499Y-110920445D01*
G37*
G36*
X159834000Y-111222000D02*
G01*
X157732000Y-111222000D01*
X157732000Y-110520000D01*
X159834000Y-110520000D01*
X159834000Y-111222000D01*
X159834000Y-111222000D01*
G37*
G36*
X153926000Y-111222000D02*
G01*
X151824000Y-111222000D01*
X151824000Y-110520000D01*
X153926000Y-110520000D01*
X153926000Y-111222000D01*
X153926000Y-111222000D01*
G37*
G36*
X149109000Y-110819000D02*
G01*
X148007000Y-110819000D01*
X148007000Y-107917000D01*
X149109000Y-107917000D01*
X149109000Y-110819000D01*
X149109000Y-110819000D01*
G37*
G36*
X145109000Y-110819000D02*
G01*
X144007000Y-110819000D01*
X144007000Y-107917000D01*
X145109000Y-107917000D01*
X145109000Y-110819000D01*
X145109000Y-110819000D01*
G37*
G36*
X137524499Y-109170445D02*
G01*
X137561995Y-109181820D01*
X137596554Y-109200292D01*
X137626847Y-109225153D01*
X137651708Y-109255446D01*
X137670180Y-109290005D01*
X137681555Y-109327501D01*
X137686000Y-109372638D01*
X137686000Y-110111362D01*
X137681555Y-110156499D01*
X137670180Y-110193995D01*
X137651708Y-110228554D01*
X137626847Y-110258847D01*
X137596554Y-110283708D01*
X137561995Y-110302180D01*
X137524499Y-110313555D01*
X137479362Y-110318000D01*
X136840638Y-110318000D01*
X136795501Y-110313555D01*
X136758005Y-110302180D01*
X136723446Y-110283708D01*
X136693153Y-110258847D01*
X136668292Y-110228554D01*
X136649820Y-110193995D01*
X136638445Y-110156499D01*
X136634000Y-110111362D01*
X136634000Y-109372638D01*
X136638445Y-109327501D01*
X136649820Y-109290005D01*
X136668292Y-109255446D01*
X136693153Y-109225153D01*
X136723446Y-109200292D01*
X136758005Y-109181820D01*
X136795501Y-109170445D01*
X136840638Y-109166000D01*
X137479362Y-109166000D01*
X137524499Y-109170445D01*
X137524499Y-109170445D01*
G37*
G36*
X139683499Y-109170445D02*
G01*
X139720995Y-109181820D01*
X139755554Y-109200292D01*
X139785847Y-109225153D01*
X139810708Y-109255446D01*
X139829180Y-109290005D01*
X139840555Y-109327501D01*
X139845000Y-109372638D01*
X139845000Y-110111362D01*
X139840555Y-110156499D01*
X139829180Y-110193995D01*
X139810708Y-110228554D01*
X139785847Y-110258847D01*
X139755554Y-110283708D01*
X139720995Y-110302180D01*
X139683499Y-110313555D01*
X139638362Y-110318000D01*
X138999638Y-110318000D01*
X138954501Y-110313555D01*
X138917005Y-110302180D01*
X138882446Y-110283708D01*
X138852153Y-110258847D01*
X138827292Y-110228554D01*
X138808820Y-110193995D01*
X138797445Y-110156499D01*
X138793000Y-110111362D01*
X138793000Y-109372638D01*
X138797445Y-109327501D01*
X138808820Y-109290005D01*
X138827292Y-109255446D01*
X138852153Y-109225153D01*
X138882446Y-109200292D01*
X138917005Y-109181820D01*
X138954501Y-109170445D01*
X138999638Y-109166000D01*
X139638362Y-109166000D01*
X139683499Y-109170445D01*
X139683499Y-109170445D01*
G37*
G36*
X135365499Y-109170445D02*
G01*
X135402995Y-109181820D01*
X135437554Y-109200292D01*
X135467847Y-109225153D01*
X135492708Y-109255446D01*
X135511180Y-109290005D01*
X135522555Y-109327501D01*
X135527000Y-109372638D01*
X135527000Y-110111362D01*
X135522555Y-110156499D01*
X135511180Y-110193995D01*
X135492708Y-110228554D01*
X135467847Y-110258847D01*
X135437554Y-110283708D01*
X135402995Y-110302180D01*
X135365499Y-110313555D01*
X135320362Y-110318000D01*
X134681638Y-110318000D01*
X134636501Y-110313555D01*
X134599005Y-110302180D01*
X134564446Y-110283708D01*
X134534153Y-110258847D01*
X134509292Y-110228554D01*
X134490820Y-110193995D01*
X134479445Y-110156499D01*
X134475000Y-110111362D01*
X134475000Y-109372638D01*
X134479445Y-109327501D01*
X134490820Y-109290005D01*
X134509292Y-109255446D01*
X134534153Y-109225153D01*
X134564446Y-109200292D01*
X134599005Y-109181820D01*
X134636501Y-109170445D01*
X134681638Y-109166000D01*
X135320362Y-109166000D01*
X135365499Y-109170445D01*
X135365499Y-109170445D01*
G37*
G36*
X141842499Y-109170445D02*
G01*
X141879995Y-109181820D01*
X141914554Y-109200292D01*
X141944847Y-109225153D01*
X141969708Y-109255446D01*
X141988180Y-109290005D01*
X141999555Y-109327501D01*
X142004000Y-109372638D01*
X142004000Y-110111362D01*
X141999555Y-110156499D01*
X141988180Y-110193995D01*
X141969708Y-110228554D01*
X141944847Y-110258847D01*
X141914554Y-110283708D01*
X141879995Y-110302180D01*
X141842499Y-110313555D01*
X141797362Y-110318000D01*
X141158638Y-110318000D01*
X141113501Y-110313555D01*
X141076005Y-110302180D01*
X141041446Y-110283708D01*
X141011153Y-110258847D01*
X140986292Y-110228554D01*
X140967820Y-110193995D01*
X140956445Y-110156499D01*
X140952000Y-110111362D01*
X140952000Y-109372638D01*
X140956445Y-109327501D01*
X140967820Y-109290005D01*
X140986292Y-109255446D01*
X141011153Y-109225153D01*
X141041446Y-109200292D01*
X141076005Y-109181820D01*
X141113501Y-109170445D01*
X141158638Y-109166000D01*
X141797362Y-109166000D01*
X141842499Y-109170445D01*
X141842499Y-109170445D01*
G37*
G36*
X122656629Y-108452719D02*
G01*
X122732142Y-108460156D01*
X122870082Y-108502000D01*
X122877479Y-108504244D01*
X123011416Y-108575835D01*
X123128817Y-108672183D01*
X123225165Y-108789584D01*
X123296756Y-108923521D01*
X123296757Y-108923524D01*
X123340844Y-109068858D01*
X123355730Y-109220000D01*
X123340844Y-109371142D01*
X123305530Y-109487555D01*
X123296756Y-109516479D01*
X123225165Y-109650416D01*
X123128817Y-109767817D01*
X123011416Y-109864165D01*
X122877479Y-109935756D01*
X122877476Y-109935757D01*
X122732142Y-109979844D01*
X122656629Y-109987281D01*
X122618873Y-109991000D01*
X121983127Y-109991000D01*
X121945371Y-109987281D01*
X121869858Y-109979844D01*
X121724524Y-109935757D01*
X121724521Y-109935756D01*
X121590584Y-109864165D01*
X121473183Y-109767817D01*
X121376835Y-109650416D01*
X121305244Y-109516479D01*
X121296470Y-109487555D01*
X121261156Y-109371142D01*
X121246270Y-109220000D01*
X121261156Y-109068858D01*
X121305243Y-108923524D01*
X121305244Y-108923521D01*
X121376835Y-108789584D01*
X121473183Y-108672183D01*
X121590584Y-108575835D01*
X121724521Y-108504244D01*
X121731918Y-108502000D01*
X121869858Y-108460156D01*
X121945371Y-108452719D01*
X121983127Y-108449000D01*
X122618873Y-108449000D01*
X122656629Y-108452719D01*
X122656629Y-108452719D01*
G37*
G36*
X109956629Y-108452719D02*
G01*
X110032142Y-108460156D01*
X110170082Y-108502000D01*
X110177479Y-108504244D01*
X110311416Y-108575835D01*
X110428817Y-108672183D01*
X110525165Y-108789584D01*
X110596756Y-108923521D01*
X110596757Y-108923524D01*
X110640844Y-109068858D01*
X110655730Y-109220000D01*
X110640844Y-109371142D01*
X110605530Y-109487555D01*
X110596756Y-109516479D01*
X110525165Y-109650416D01*
X110428817Y-109767817D01*
X110311416Y-109864165D01*
X110177479Y-109935756D01*
X110177476Y-109935757D01*
X110032142Y-109979844D01*
X109956629Y-109987281D01*
X109918873Y-109991000D01*
X109283127Y-109991000D01*
X109245371Y-109987281D01*
X109169858Y-109979844D01*
X109024524Y-109935757D01*
X109024521Y-109935756D01*
X108890584Y-109864165D01*
X108773183Y-109767817D01*
X108676835Y-109650416D01*
X108605244Y-109516479D01*
X108596470Y-109487555D01*
X108561156Y-109371142D01*
X108546270Y-109220000D01*
X108561156Y-109068858D01*
X108605243Y-108923524D01*
X108605244Y-108923521D01*
X108676835Y-108789584D01*
X108773183Y-108672183D01*
X108890584Y-108575835D01*
X109024521Y-108504244D01*
X109031918Y-108502000D01*
X109169858Y-108460156D01*
X109245371Y-108452719D01*
X109283127Y-108449000D01*
X109918873Y-108449000D01*
X109956629Y-108452719D01*
X109956629Y-108452719D01*
G37*
G36*
X117576629Y-108452719D02*
G01*
X117652142Y-108460156D01*
X117790082Y-108502000D01*
X117797479Y-108504244D01*
X117931416Y-108575835D01*
X118048817Y-108672183D01*
X118145165Y-108789584D01*
X118216756Y-108923521D01*
X118216757Y-108923524D01*
X118260844Y-109068858D01*
X118275730Y-109220000D01*
X118260844Y-109371142D01*
X118225530Y-109487555D01*
X118216756Y-109516479D01*
X118145165Y-109650416D01*
X118048817Y-109767817D01*
X117931416Y-109864165D01*
X117797479Y-109935756D01*
X117797476Y-109935757D01*
X117652142Y-109979844D01*
X117576629Y-109987281D01*
X117538873Y-109991000D01*
X116903127Y-109991000D01*
X116865371Y-109987281D01*
X116789858Y-109979844D01*
X116644524Y-109935757D01*
X116644521Y-109935756D01*
X116510584Y-109864165D01*
X116393183Y-109767817D01*
X116296835Y-109650416D01*
X116225244Y-109516479D01*
X116216470Y-109487555D01*
X116181156Y-109371142D01*
X116166270Y-109220000D01*
X116181156Y-109068858D01*
X116225243Y-108923524D01*
X116225244Y-108923521D01*
X116296835Y-108789584D01*
X116393183Y-108672183D01*
X116510584Y-108575835D01*
X116644521Y-108504244D01*
X116651918Y-108502000D01*
X116789858Y-108460156D01*
X116865371Y-108452719D01*
X116903127Y-108449000D01*
X117538873Y-108449000D01*
X117576629Y-108452719D01*
X117576629Y-108452719D01*
G37*
G36*
X107416629Y-108452719D02*
G01*
X107492142Y-108460156D01*
X107630082Y-108502000D01*
X107637479Y-108504244D01*
X107771416Y-108575835D01*
X107888817Y-108672183D01*
X107985165Y-108789584D01*
X108056756Y-108923521D01*
X108056757Y-108923524D01*
X108100844Y-109068858D01*
X108115730Y-109220000D01*
X108100844Y-109371142D01*
X108065530Y-109487555D01*
X108056756Y-109516479D01*
X107985165Y-109650416D01*
X107888817Y-109767817D01*
X107771416Y-109864165D01*
X107637479Y-109935756D01*
X107637476Y-109935757D01*
X107492142Y-109979844D01*
X107416629Y-109987281D01*
X107378873Y-109991000D01*
X106743127Y-109991000D01*
X106705371Y-109987281D01*
X106629858Y-109979844D01*
X106484524Y-109935757D01*
X106484521Y-109935756D01*
X106350584Y-109864165D01*
X106233183Y-109767817D01*
X106136835Y-109650416D01*
X106065244Y-109516479D01*
X106056470Y-109487555D01*
X106021156Y-109371142D01*
X106006270Y-109220000D01*
X106021156Y-109068858D01*
X106065243Y-108923524D01*
X106065244Y-108923521D01*
X106136835Y-108789584D01*
X106233183Y-108672183D01*
X106350584Y-108575835D01*
X106484521Y-108504244D01*
X106491918Y-108502000D01*
X106629858Y-108460156D01*
X106705371Y-108452719D01*
X106743127Y-108449000D01*
X107378873Y-108449000D01*
X107416629Y-108452719D01*
X107416629Y-108452719D01*
G37*
G36*
X159834000Y-109952000D02*
G01*
X157732000Y-109952000D01*
X157732000Y-109250000D01*
X159834000Y-109250000D01*
X159834000Y-109952000D01*
X159834000Y-109952000D01*
G37*
G36*
X153926000Y-109952000D02*
G01*
X151824000Y-109952000D01*
X151824000Y-109250000D01*
X153926000Y-109250000D01*
X153926000Y-109952000D01*
X153926000Y-109952000D01*
G37*
G36*
X162861499Y-108444445D02*
G01*
X162898995Y-108455820D01*
X162933554Y-108474292D01*
X162963847Y-108499153D01*
X162988708Y-108529446D01*
X163007180Y-108564005D01*
X163018555Y-108601501D01*
X163023000Y-108646638D01*
X163023000Y-109285362D01*
X163018555Y-109330499D01*
X163007180Y-109367995D01*
X162988708Y-109402554D01*
X162963847Y-109432847D01*
X162933554Y-109457708D01*
X162898995Y-109476180D01*
X162861499Y-109487555D01*
X162816362Y-109492000D01*
X162077638Y-109492000D01*
X162032501Y-109487555D01*
X161995005Y-109476180D01*
X161960446Y-109457708D01*
X161930153Y-109432847D01*
X161905292Y-109402554D01*
X161886820Y-109367995D01*
X161875445Y-109330499D01*
X161871000Y-109285362D01*
X161871000Y-108646638D01*
X161875445Y-108601501D01*
X161886820Y-108564005D01*
X161905292Y-108529446D01*
X161930153Y-108499153D01*
X161960446Y-108474292D01*
X161995005Y-108455820D01*
X162032501Y-108444445D01*
X162077638Y-108440000D01*
X162816362Y-108440000D01*
X162861499Y-108444445D01*
X162861499Y-108444445D01*
G37*
G36*
X164611499Y-108444445D02*
G01*
X164648995Y-108455820D01*
X164683554Y-108474292D01*
X164713847Y-108499153D01*
X164738708Y-108529446D01*
X164757180Y-108564005D01*
X164768555Y-108601501D01*
X164773000Y-108646638D01*
X164773000Y-109285362D01*
X164768555Y-109330499D01*
X164757180Y-109367995D01*
X164738708Y-109402554D01*
X164713847Y-109432847D01*
X164683554Y-109457708D01*
X164648995Y-109476180D01*
X164611499Y-109487555D01*
X164566362Y-109492000D01*
X163827638Y-109492000D01*
X163782501Y-109487555D01*
X163745005Y-109476180D01*
X163710446Y-109457708D01*
X163680153Y-109432847D01*
X163655292Y-109402554D01*
X163636820Y-109367995D01*
X163625445Y-109330499D01*
X163621000Y-109285362D01*
X163621000Y-108646638D01*
X163625445Y-108601501D01*
X163636820Y-108564005D01*
X163655292Y-108529446D01*
X163680153Y-108499153D01*
X163710446Y-108474292D01*
X163745005Y-108455820D01*
X163782501Y-108444445D01*
X163827638Y-108440000D01*
X164566362Y-108440000D01*
X164611499Y-108444445D01*
X164611499Y-108444445D01*
G37*
G36*
X159834000Y-108682000D02*
G01*
X157732000Y-108682000D01*
X157732000Y-107980000D01*
X159834000Y-107980000D01*
X159834000Y-108682000D01*
X159834000Y-108682000D01*
G37*
G36*
X153926000Y-108682000D02*
G01*
X151824000Y-108682000D01*
X151824000Y-107980000D01*
X153926000Y-107980000D01*
X153926000Y-108682000D01*
X153926000Y-108682000D01*
G37*
G36*
X109956629Y-105912719D02*
G01*
X110032142Y-105920156D01*
X110177476Y-105964243D01*
X110177479Y-105964244D01*
X110311416Y-106035835D01*
X110428817Y-106132183D01*
X110525165Y-106249584D01*
X110596756Y-106383521D01*
X110596757Y-106383524D01*
X110640844Y-106528858D01*
X110655730Y-106680000D01*
X110640844Y-106831142D01*
X110596757Y-106976476D01*
X110596756Y-106976479D01*
X110525165Y-107110416D01*
X110428817Y-107227817D01*
X110311416Y-107324165D01*
X110177479Y-107395756D01*
X110177476Y-107395757D01*
X110032142Y-107439844D01*
X109956629Y-107447281D01*
X109918873Y-107451000D01*
X109283127Y-107451000D01*
X109245371Y-107447281D01*
X109169858Y-107439844D01*
X109024524Y-107395757D01*
X109024521Y-107395756D01*
X108890584Y-107324165D01*
X108773183Y-107227817D01*
X108676835Y-107110416D01*
X108605244Y-106976479D01*
X108605243Y-106976476D01*
X108561156Y-106831142D01*
X108546270Y-106680000D01*
X108561156Y-106528858D01*
X108605243Y-106383524D01*
X108605244Y-106383521D01*
X108676835Y-106249584D01*
X108773183Y-106132183D01*
X108890584Y-106035835D01*
X109024521Y-105964244D01*
X109024524Y-105964243D01*
X109169858Y-105920156D01*
X109245371Y-105912719D01*
X109283127Y-105909000D01*
X109918873Y-105909000D01*
X109956629Y-105912719D01*
X109956629Y-105912719D01*
G37*
G36*
X117576629Y-105912719D02*
G01*
X117652142Y-105920156D01*
X117797476Y-105964243D01*
X117797479Y-105964244D01*
X117931416Y-106035835D01*
X118048817Y-106132183D01*
X118145165Y-106249584D01*
X118216756Y-106383521D01*
X118216757Y-106383524D01*
X118260844Y-106528858D01*
X118275730Y-106680000D01*
X118260844Y-106831142D01*
X118216757Y-106976476D01*
X118216756Y-106976479D01*
X118145165Y-107110416D01*
X118048817Y-107227817D01*
X117931416Y-107324165D01*
X117797479Y-107395756D01*
X117797476Y-107395757D01*
X117652142Y-107439844D01*
X117576629Y-107447281D01*
X117538873Y-107451000D01*
X116903127Y-107451000D01*
X116865371Y-107447281D01*
X116789858Y-107439844D01*
X116644524Y-107395757D01*
X116644521Y-107395756D01*
X116510584Y-107324165D01*
X116393183Y-107227817D01*
X116296835Y-107110416D01*
X116225244Y-106976479D01*
X116225243Y-106976476D01*
X116181156Y-106831142D01*
X116166270Y-106680000D01*
X116181156Y-106528858D01*
X116225243Y-106383524D01*
X116225244Y-106383521D01*
X116296835Y-106249584D01*
X116393183Y-106132183D01*
X116510584Y-106035835D01*
X116644521Y-105964244D01*
X116644524Y-105964243D01*
X116789858Y-105920156D01*
X116865371Y-105912719D01*
X116903127Y-105909000D01*
X117538873Y-105909000D01*
X117576629Y-105912719D01*
X117576629Y-105912719D01*
G37*
G36*
X122656629Y-105912719D02*
G01*
X122732142Y-105920156D01*
X122877476Y-105964243D01*
X122877479Y-105964244D01*
X123011416Y-106035835D01*
X123128817Y-106132183D01*
X123225165Y-106249584D01*
X123296756Y-106383521D01*
X123296757Y-106383524D01*
X123340844Y-106528858D01*
X123355730Y-106680000D01*
X123340844Y-106831142D01*
X123296757Y-106976476D01*
X123296756Y-106976479D01*
X123225165Y-107110416D01*
X123128817Y-107227817D01*
X123011416Y-107324165D01*
X122877479Y-107395756D01*
X122877476Y-107395757D01*
X122732142Y-107439844D01*
X122656629Y-107447281D01*
X122618873Y-107451000D01*
X121983127Y-107451000D01*
X121945371Y-107447281D01*
X121869858Y-107439844D01*
X121724524Y-107395757D01*
X121724521Y-107395756D01*
X121590584Y-107324165D01*
X121473183Y-107227817D01*
X121376835Y-107110416D01*
X121305244Y-106976479D01*
X121305243Y-106976476D01*
X121261156Y-106831142D01*
X121246270Y-106680000D01*
X121261156Y-106528858D01*
X121305243Y-106383524D01*
X121305244Y-106383521D01*
X121376835Y-106249584D01*
X121473183Y-106132183D01*
X121590584Y-106035835D01*
X121724521Y-105964244D01*
X121724524Y-105964243D01*
X121869858Y-105920156D01*
X121945371Y-105912719D01*
X121983127Y-105909000D01*
X122618873Y-105909000D01*
X122656629Y-105912719D01*
X122656629Y-105912719D01*
G37*
G36*
X107416629Y-105912719D02*
G01*
X107492142Y-105920156D01*
X107637476Y-105964243D01*
X107637479Y-105964244D01*
X107771416Y-106035835D01*
X107888817Y-106132183D01*
X107985165Y-106249584D01*
X108056756Y-106383521D01*
X108056757Y-106383524D01*
X108100844Y-106528858D01*
X108115730Y-106680000D01*
X108100844Y-106831142D01*
X108056757Y-106976476D01*
X108056756Y-106976479D01*
X107985165Y-107110416D01*
X107888817Y-107227817D01*
X107771416Y-107324165D01*
X107637479Y-107395756D01*
X107637476Y-107395757D01*
X107492142Y-107439844D01*
X107416629Y-107447281D01*
X107378873Y-107451000D01*
X106743127Y-107451000D01*
X106705371Y-107447281D01*
X106629858Y-107439844D01*
X106484524Y-107395757D01*
X106484521Y-107395756D01*
X106350584Y-107324165D01*
X106233183Y-107227817D01*
X106136835Y-107110416D01*
X106065244Y-106976479D01*
X106065243Y-106976476D01*
X106021156Y-106831142D01*
X106006270Y-106680000D01*
X106021156Y-106528858D01*
X106065243Y-106383524D01*
X106065244Y-106383521D01*
X106136835Y-106249584D01*
X106233183Y-106132183D01*
X106350584Y-106035835D01*
X106484521Y-105964244D01*
X106484524Y-105964243D01*
X106629858Y-105920156D01*
X106705371Y-105912719D01*
X106743127Y-105909000D01*
X107378873Y-105909000D01*
X107416629Y-105912719D01*
X107416629Y-105912719D01*
G37*
G36*
X159834000Y-107412000D02*
G01*
X157732000Y-107412000D01*
X157732000Y-106710000D01*
X159834000Y-106710000D01*
X159834000Y-107412000D01*
X159834000Y-107412000D01*
G37*
G36*
X153926000Y-107412000D02*
G01*
X151824000Y-107412000D01*
X151824000Y-106710000D01*
X153926000Y-106710000D01*
X153926000Y-107412000D01*
X153926000Y-107412000D01*
G37*
G36*
X159834000Y-106142000D02*
G01*
X157732000Y-106142000D01*
X157732000Y-105440000D01*
X159834000Y-105440000D01*
X159834000Y-106142000D01*
X159834000Y-106142000D01*
G37*
G36*
X153926000Y-106142000D02*
G01*
X151824000Y-106142000D01*
X151824000Y-105440000D01*
X153926000Y-105440000D01*
X153926000Y-106142000D01*
X153926000Y-106142000D01*
G37*
G36*
X164611499Y-103999445D02*
G01*
X164648995Y-104010820D01*
X164683554Y-104029292D01*
X164713847Y-104054153D01*
X164738708Y-104084446D01*
X164757180Y-104119005D01*
X164768555Y-104156501D01*
X164773000Y-104201638D01*
X164773000Y-104840362D01*
X164768555Y-104885499D01*
X164757180Y-104922995D01*
X164738708Y-104957554D01*
X164713847Y-104987847D01*
X164683554Y-105012708D01*
X164648995Y-105031180D01*
X164611499Y-105042555D01*
X164566362Y-105047000D01*
X163827638Y-105047000D01*
X163782501Y-105042555D01*
X163745005Y-105031180D01*
X163710446Y-105012708D01*
X163680153Y-104987847D01*
X163655292Y-104957554D01*
X163636820Y-104922995D01*
X163625445Y-104885499D01*
X163621000Y-104840362D01*
X163621000Y-104201638D01*
X163625445Y-104156501D01*
X163636820Y-104119005D01*
X163655292Y-104084446D01*
X163680153Y-104054153D01*
X163710446Y-104029292D01*
X163745005Y-104010820D01*
X163782501Y-103999445D01*
X163827638Y-103995000D01*
X164566362Y-103995000D01*
X164611499Y-103999445D01*
X164611499Y-103999445D01*
G37*
G36*
X162861499Y-103999445D02*
G01*
X162898995Y-104010820D01*
X162933554Y-104029292D01*
X162963847Y-104054153D01*
X162988708Y-104084446D01*
X163007180Y-104119005D01*
X163018555Y-104156501D01*
X163023000Y-104201638D01*
X163023000Y-104840362D01*
X163018555Y-104885499D01*
X163007180Y-104922995D01*
X162988708Y-104957554D01*
X162963847Y-104987847D01*
X162933554Y-105012708D01*
X162898995Y-105031180D01*
X162861499Y-105042555D01*
X162816362Y-105047000D01*
X162077638Y-105047000D01*
X162032501Y-105042555D01*
X161995005Y-105031180D01*
X161960446Y-105012708D01*
X161930153Y-104987847D01*
X161905292Y-104957554D01*
X161886820Y-104922995D01*
X161875445Y-104885499D01*
X161871000Y-104840362D01*
X161871000Y-104201638D01*
X161875445Y-104156501D01*
X161886820Y-104119005D01*
X161905292Y-104084446D01*
X161930153Y-104054153D01*
X161960446Y-104029292D01*
X161995005Y-104010820D01*
X162032501Y-103999445D01*
X162077638Y-103995000D01*
X162816362Y-103995000D01*
X162861499Y-103999445D01*
X162861499Y-103999445D01*
G37*
G36*
X117576629Y-103372719D02*
G01*
X117652142Y-103380156D01*
X117797476Y-103424243D01*
X117797479Y-103424244D01*
X117931416Y-103495835D01*
X118048817Y-103592183D01*
X118145165Y-103709584D01*
X118216756Y-103843521D01*
X118216757Y-103843524D01*
X118260844Y-103988858D01*
X118275730Y-104140000D01*
X118260844Y-104291142D01*
X118216757Y-104436476D01*
X118216756Y-104436479D01*
X118145165Y-104570416D01*
X118048817Y-104687817D01*
X117931416Y-104784165D01*
X117797479Y-104855756D01*
X117797476Y-104855757D01*
X117652142Y-104899844D01*
X117576629Y-104907281D01*
X117538873Y-104911000D01*
X116903127Y-104911000D01*
X116865371Y-104907281D01*
X116789858Y-104899844D01*
X116644524Y-104855757D01*
X116644521Y-104855756D01*
X116510584Y-104784165D01*
X116393183Y-104687817D01*
X116296835Y-104570416D01*
X116225244Y-104436479D01*
X116225243Y-104436476D01*
X116181156Y-104291142D01*
X116166270Y-104140000D01*
X116181156Y-103988858D01*
X116225243Y-103843524D01*
X116225244Y-103843521D01*
X116296835Y-103709584D01*
X116393183Y-103592183D01*
X116510584Y-103495835D01*
X116644521Y-103424244D01*
X116644524Y-103424243D01*
X116789858Y-103380156D01*
X116865371Y-103372719D01*
X116903127Y-103369000D01*
X117538873Y-103369000D01*
X117576629Y-103372719D01*
X117576629Y-103372719D01*
G37*
G36*
X107416629Y-103372719D02*
G01*
X107492142Y-103380156D01*
X107637476Y-103424243D01*
X107637479Y-103424244D01*
X107771416Y-103495835D01*
X107888817Y-103592183D01*
X107985165Y-103709584D01*
X108056756Y-103843521D01*
X108056757Y-103843524D01*
X108100844Y-103988858D01*
X108115730Y-104140000D01*
X108100844Y-104291142D01*
X108056757Y-104436476D01*
X108056756Y-104436479D01*
X107985165Y-104570416D01*
X107888817Y-104687817D01*
X107771416Y-104784165D01*
X107637479Y-104855756D01*
X107637476Y-104855757D01*
X107492142Y-104899844D01*
X107416629Y-104907281D01*
X107378873Y-104911000D01*
X106743127Y-104911000D01*
X106705371Y-104907281D01*
X106629858Y-104899844D01*
X106484524Y-104855757D01*
X106484521Y-104855756D01*
X106350584Y-104784165D01*
X106233183Y-104687817D01*
X106136835Y-104570416D01*
X106065244Y-104436479D01*
X106065243Y-104436476D01*
X106021156Y-104291142D01*
X106006270Y-104140000D01*
X106021156Y-103988858D01*
X106065243Y-103843524D01*
X106065244Y-103843521D01*
X106136835Y-103709584D01*
X106233183Y-103592183D01*
X106350584Y-103495835D01*
X106484521Y-103424244D01*
X106484524Y-103424243D01*
X106629858Y-103380156D01*
X106705371Y-103372719D01*
X106743127Y-103369000D01*
X107378873Y-103369000D01*
X107416629Y-103372719D01*
X107416629Y-103372719D01*
G37*
G36*
X109956629Y-103372719D02*
G01*
X110032142Y-103380156D01*
X110177476Y-103424243D01*
X110177479Y-103424244D01*
X110311416Y-103495835D01*
X110428817Y-103592183D01*
X110525165Y-103709584D01*
X110596756Y-103843521D01*
X110596757Y-103843524D01*
X110640844Y-103988858D01*
X110655730Y-104140000D01*
X110640844Y-104291142D01*
X110596757Y-104436476D01*
X110596756Y-104436479D01*
X110525165Y-104570416D01*
X110428817Y-104687817D01*
X110311416Y-104784165D01*
X110177479Y-104855756D01*
X110177476Y-104855757D01*
X110032142Y-104899844D01*
X109956629Y-104907281D01*
X109918873Y-104911000D01*
X109283127Y-104911000D01*
X109245371Y-104907281D01*
X109169858Y-104899844D01*
X109024524Y-104855757D01*
X109024521Y-104855756D01*
X108890584Y-104784165D01*
X108773183Y-104687817D01*
X108676835Y-104570416D01*
X108605244Y-104436479D01*
X108605243Y-104436476D01*
X108561156Y-104291142D01*
X108546270Y-104140000D01*
X108561156Y-103988858D01*
X108605243Y-103843524D01*
X108605244Y-103843521D01*
X108676835Y-103709584D01*
X108773183Y-103592183D01*
X108890584Y-103495835D01*
X109024521Y-103424244D01*
X109024524Y-103424243D01*
X109169858Y-103380156D01*
X109245371Y-103372719D01*
X109283127Y-103369000D01*
X109918873Y-103369000D01*
X109956629Y-103372719D01*
X109956629Y-103372719D01*
G37*
G36*
X122656629Y-103372719D02*
G01*
X122732142Y-103380156D01*
X122877476Y-103424243D01*
X122877479Y-103424244D01*
X123011416Y-103495835D01*
X123128817Y-103592183D01*
X123225165Y-103709584D01*
X123296756Y-103843521D01*
X123296757Y-103843524D01*
X123340844Y-103988858D01*
X123355730Y-104140000D01*
X123340844Y-104291142D01*
X123296757Y-104436476D01*
X123296756Y-104436479D01*
X123225165Y-104570416D01*
X123128817Y-104687817D01*
X123011416Y-104784165D01*
X122877479Y-104855756D01*
X122877476Y-104855757D01*
X122732142Y-104899844D01*
X122656629Y-104907281D01*
X122618873Y-104911000D01*
X121983127Y-104911000D01*
X121945371Y-104907281D01*
X121869858Y-104899844D01*
X121724524Y-104855757D01*
X121724521Y-104855756D01*
X121590584Y-104784165D01*
X121473183Y-104687817D01*
X121376835Y-104570416D01*
X121305244Y-104436479D01*
X121305243Y-104436476D01*
X121261156Y-104291142D01*
X121246270Y-104140000D01*
X121261156Y-103988858D01*
X121305243Y-103843524D01*
X121305244Y-103843521D01*
X121376835Y-103709584D01*
X121473183Y-103592183D01*
X121590584Y-103495835D01*
X121724521Y-103424244D01*
X121724524Y-103424243D01*
X121869858Y-103380156D01*
X121945371Y-103372719D01*
X121983127Y-103369000D01*
X122618873Y-103369000D01*
X122656629Y-103372719D01*
X122656629Y-103372719D01*
G37*
G36*
X159834000Y-104872000D02*
G01*
X157732000Y-104872000D01*
X157732000Y-104170000D01*
X159834000Y-104170000D01*
X159834000Y-104872000D01*
X159834000Y-104872000D01*
G37*
G36*
X153926000Y-104872000D02*
G01*
X151824000Y-104872000D01*
X151824000Y-104170000D01*
X153926000Y-104170000D01*
X153926000Y-104872000D01*
X153926000Y-104872000D01*
G37*
G36*
X132115000Y-104604000D02*
G01*
X130013000Y-104604000D01*
X130013000Y-96627000D01*
X132115000Y-96627000D01*
X132115000Y-104604000D01*
X132115000Y-104604000D01*
G37*
G36*
X149303000Y-103853000D02*
G01*
X143051000Y-103853000D01*
X143051000Y-101751000D01*
X149303000Y-101751000D01*
X149303000Y-103853000D01*
X149303000Y-103853000D01*
G37*
G36*
X137941499Y-102602445D02*
G01*
X137978995Y-102613820D01*
X138013554Y-102632292D01*
X138043847Y-102657153D01*
X138068708Y-102687446D01*
X138087180Y-102722005D01*
X138098555Y-102759501D01*
X138103000Y-102804638D01*
X138103000Y-103443362D01*
X138098555Y-103488499D01*
X138087180Y-103525995D01*
X138068708Y-103560554D01*
X138043847Y-103590847D01*
X138013554Y-103615708D01*
X137978995Y-103634180D01*
X137941499Y-103645555D01*
X137896362Y-103650000D01*
X137157638Y-103650000D01*
X137112501Y-103645555D01*
X137075005Y-103634180D01*
X137040446Y-103615708D01*
X137010153Y-103590847D01*
X136985292Y-103560554D01*
X136966820Y-103525995D01*
X136955445Y-103488499D01*
X136951000Y-103443362D01*
X136951000Y-102804638D01*
X136955445Y-102759501D01*
X136966820Y-102722005D01*
X136985292Y-102687446D01*
X137010153Y-102657153D01*
X137040446Y-102632292D01*
X137075005Y-102613820D01*
X137112501Y-102602445D01*
X137157638Y-102598000D01*
X137896362Y-102598000D01*
X137941499Y-102602445D01*
X137941499Y-102602445D01*
G37*
G36*
X136191499Y-102602445D02*
G01*
X136228995Y-102613820D01*
X136263554Y-102632292D01*
X136293847Y-102657153D01*
X136318708Y-102687446D01*
X136337180Y-102722005D01*
X136348555Y-102759501D01*
X136353000Y-102804638D01*
X136353000Y-103443362D01*
X136348555Y-103488499D01*
X136337180Y-103525995D01*
X136318708Y-103560554D01*
X136293847Y-103590847D01*
X136263554Y-103615708D01*
X136228995Y-103634180D01*
X136191499Y-103645555D01*
X136146362Y-103650000D01*
X135407638Y-103650000D01*
X135362501Y-103645555D01*
X135325005Y-103634180D01*
X135290446Y-103615708D01*
X135260153Y-103590847D01*
X135235292Y-103560554D01*
X135216820Y-103525995D01*
X135205445Y-103488499D01*
X135201000Y-103443362D01*
X135201000Y-102804638D01*
X135205445Y-102759501D01*
X135216820Y-102722005D01*
X135235292Y-102687446D01*
X135260153Y-102657153D01*
X135290446Y-102632292D01*
X135325005Y-102613820D01*
X135362501Y-102602445D01*
X135407638Y-102598000D01*
X136146362Y-102598000D01*
X136191499Y-102602445D01*
X136191499Y-102602445D01*
G37*
G36*
X159834000Y-103602000D02*
G01*
X157732000Y-103602000D01*
X157732000Y-102900000D01*
X159834000Y-102900000D01*
X159834000Y-103602000D01*
X159834000Y-103602000D01*
G37*
G36*
X153926000Y-103602000D02*
G01*
X151824000Y-103602000D01*
X151824000Y-102900000D01*
X153926000Y-102900000D01*
X153926000Y-103602000D01*
X153926000Y-103602000D01*
G37*
G36*
X117576629Y-100832719D02*
G01*
X117652142Y-100840156D01*
X117797476Y-100884243D01*
X117797479Y-100884244D01*
X117931416Y-100955835D01*
X118048817Y-101052183D01*
X118145165Y-101169584D01*
X118216756Y-101303521D01*
X118216757Y-101303524D01*
X118260844Y-101448858D01*
X118275730Y-101600000D01*
X118260844Y-101751142D01*
X118216757Y-101896476D01*
X118216756Y-101896479D01*
X118145165Y-102030416D01*
X118048817Y-102147817D01*
X117931416Y-102244165D01*
X117797479Y-102315756D01*
X117797476Y-102315757D01*
X117652142Y-102359844D01*
X117576629Y-102367281D01*
X117538873Y-102371000D01*
X116903127Y-102371000D01*
X116865371Y-102367281D01*
X116789858Y-102359844D01*
X116644524Y-102315757D01*
X116644521Y-102315756D01*
X116510584Y-102244165D01*
X116393183Y-102147817D01*
X116296835Y-102030416D01*
X116225244Y-101896479D01*
X116225243Y-101896476D01*
X116181156Y-101751142D01*
X116166270Y-101600000D01*
X116181156Y-101448858D01*
X116225243Y-101303524D01*
X116225244Y-101303521D01*
X116296835Y-101169584D01*
X116393183Y-101052183D01*
X116510584Y-100955835D01*
X116644521Y-100884244D01*
X116644524Y-100884243D01*
X116789858Y-100840156D01*
X116865371Y-100832719D01*
X116903127Y-100829000D01*
X117538873Y-100829000D01*
X117576629Y-100832719D01*
X117576629Y-100832719D01*
G37*
G36*
X107416629Y-100832719D02*
G01*
X107492142Y-100840156D01*
X107637476Y-100884243D01*
X107637479Y-100884244D01*
X107771416Y-100955835D01*
X107888817Y-101052183D01*
X107985165Y-101169584D01*
X108056756Y-101303521D01*
X108056757Y-101303524D01*
X108100844Y-101448858D01*
X108115730Y-101600000D01*
X108100844Y-101751142D01*
X108056757Y-101896476D01*
X108056756Y-101896479D01*
X107985165Y-102030416D01*
X107888817Y-102147817D01*
X107771416Y-102244165D01*
X107637479Y-102315756D01*
X107637476Y-102315757D01*
X107492142Y-102359844D01*
X107416629Y-102367281D01*
X107378873Y-102371000D01*
X106743127Y-102371000D01*
X106705371Y-102367281D01*
X106629858Y-102359844D01*
X106484524Y-102315757D01*
X106484521Y-102315756D01*
X106350584Y-102244165D01*
X106233183Y-102147817D01*
X106136835Y-102030416D01*
X106065244Y-101896479D01*
X106065243Y-101896476D01*
X106021156Y-101751142D01*
X106006270Y-101600000D01*
X106021156Y-101448858D01*
X106065243Y-101303524D01*
X106065244Y-101303521D01*
X106136835Y-101169584D01*
X106233183Y-101052183D01*
X106350584Y-100955835D01*
X106484521Y-100884244D01*
X106484524Y-100884243D01*
X106629858Y-100840156D01*
X106705371Y-100832719D01*
X106743127Y-100829000D01*
X107378873Y-100829000D01*
X107416629Y-100832719D01*
X107416629Y-100832719D01*
G37*
G36*
X109956629Y-100832719D02*
G01*
X110032142Y-100840156D01*
X110177476Y-100884243D01*
X110177479Y-100884244D01*
X110311416Y-100955835D01*
X110428817Y-101052183D01*
X110525165Y-101169584D01*
X110596756Y-101303521D01*
X110596757Y-101303524D01*
X110640844Y-101448858D01*
X110655730Y-101600000D01*
X110640844Y-101751142D01*
X110596757Y-101896476D01*
X110596756Y-101896479D01*
X110525165Y-102030416D01*
X110428817Y-102147817D01*
X110311416Y-102244165D01*
X110177479Y-102315756D01*
X110177476Y-102315757D01*
X110032142Y-102359844D01*
X109956629Y-102367281D01*
X109918873Y-102371000D01*
X109283127Y-102371000D01*
X109245371Y-102367281D01*
X109169858Y-102359844D01*
X109024524Y-102315757D01*
X109024521Y-102315756D01*
X108890584Y-102244165D01*
X108773183Y-102147817D01*
X108676835Y-102030416D01*
X108605244Y-101896479D01*
X108605243Y-101896476D01*
X108561156Y-101751142D01*
X108546270Y-101600000D01*
X108561156Y-101448858D01*
X108605243Y-101303524D01*
X108605244Y-101303521D01*
X108676835Y-101169584D01*
X108773183Y-101052183D01*
X108890584Y-100955835D01*
X109024521Y-100884244D01*
X109024524Y-100884243D01*
X109169858Y-100840156D01*
X109245371Y-100832719D01*
X109283127Y-100829000D01*
X109918873Y-100829000D01*
X109956629Y-100832719D01*
X109956629Y-100832719D01*
G37*
G36*
X122656629Y-100832719D02*
G01*
X122732142Y-100840156D01*
X122877476Y-100884243D01*
X122877479Y-100884244D01*
X123011416Y-100955835D01*
X123128817Y-101052183D01*
X123225165Y-101169584D01*
X123296756Y-101303521D01*
X123296757Y-101303524D01*
X123340844Y-101448858D01*
X123355730Y-101600000D01*
X123340844Y-101751142D01*
X123296757Y-101896476D01*
X123296756Y-101896479D01*
X123225165Y-102030416D01*
X123128817Y-102147817D01*
X123011416Y-102244165D01*
X122877479Y-102315756D01*
X122877476Y-102315757D01*
X122732142Y-102359844D01*
X122656629Y-102367281D01*
X122618873Y-102371000D01*
X121983127Y-102371000D01*
X121945371Y-102367281D01*
X121869858Y-102359844D01*
X121724524Y-102315757D01*
X121724521Y-102315756D01*
X121590584Y-102244165D01*
X121473183Y-102147817D01*
X121376835Y-102030416D01*
X121305244Y-101896479D01*
X121305243Y-101896476D01*
X121261156Y-101751142D01*
X121246270Y-101600000D01*
X121261156Y-101448858D01*
X121305243Y-101303524D01*
X121305244Y-101303521D01*
X121376835Y-101169584D01*
X121473183Y-101052183D01*
X121590584Y-100955835D01*
X121724521Y-100884244D01*
X121724524Y-100884243D01*
X121869858Y-100840156D01*
X121945371Y-100832719D01*
X121983127Y-100829000D01*
X122618873Y-100829000D01*
X122656629Y-100832719D01*
X122656629Y-100832719D01*
G37*
G36*
X142783000Y-101424000D02*
G01*
X140681000Y-101424000D01*
X140681000Y-95172000D01*
X142783000Y-95172000D01*
X142783000Y-101424000D01*
X142783000Y-101424000D01*
G37*
G36*
X151732000Y-101424000D02*
G01*
X149630000Y-101424000D01*
X149630000Y-95172000D01*
X151732000Y-95172000D01*
X151732000Y-101424000D01*
X151732000Y-101424000D01*
G37*
G36*
X136191499Y-99681445D02*
G01*
X136228995Y-99692820D01*
X136263554Y-99711292D01*
X136293847Y-99736153D01*
X136318708Y-99766446D01*
X136337180Y-99801005D01*
X136348555Y-99838501D01*
X136353000Y-99883638D01*
X136353000Y-100522362D01*
X136348555Y-100567499D01*
X136337180Y-100604995D01*
X136318708Y-100639554D01*
X136293847Y-100669847D01*
X136263554Y-100694708D01*
X136228995Y-100713180D01*
X136191499Y-100724555D01*
X136146362Y-100729000D01*
X135407638Y-100729000D01*
X135362501Y-100724555D01*
X135325005Y-100713180D01*
X135290446Y-100694708D01*
X135260153Y-100669847D01*
X135235292Y-100639554D01*
X135216820Y-100604995D01*
X135205445Y-100567499D01*
X135201000Y-100522362D01*
X135201000Y-99883638D01*
X135205445Y-99838501D01*
X135216820Y-99801005D01*
X135235292Y-99766446D01*
X135260153Y-99736153D01*
X135290446Y-99711292D01*
X135325005Y-99692820D01*
X135362501Y-99681445D01*
X135407638Y-99677000D01*
X136146362Y-99677000D01*
X136191499Y-99681445D01*
X136191499Y-99681445D01*
G37*
G36*
X137941499Y-99681445D02*
G01*
X137978995Y-99692820D01*
X138013554Y-99711292D01*
X138043847Y-99736153D01*
X138068708Y-99766446D01*
X138087180Y-99801005D01*
X138098555Y-99838501D01*
X138103000Y-99883638D01*
X138103000Y-100522362D01*
X138098555Y-100567499D01*
X138087180Y-100604995D01*
X138068708Y-100639554D01*
X138043847Y-100669847D01*
X138013554Y-100694708D01*
X137978995Y-100713180D01*
X137941499Y-100724555D01*
X137896362Y-100729000D01*
X137157638Y-100729000D01*
X137112501Y-100724555D01*
X137075005Y-100713180D01*
X137040446Y-100694708D01*
X137010153Y-100669847D01*
X136985292Y-100639554D01*
X136966820Y-100604995D01*
X136955445Y-100567499D01*
X136951000Y-100522362D01*
X136951000Y-99883638D01*
X136955445Y-99838501D01*
X136966820Y-99801005D01*
X136985292Y-99766446D01*
X137010153Y-99736153D01*
X137040446Y-99711292D01*
X137075005Y-99692820D01*
X137112501Y-99681445D01*
X137157638Y-99677000D01*
X137896362Y-99677000D01*
X137941499Y-99681445D01*
X137941499Y-99681445D01*
G37*
G36*
X163858331Y-96597211D02*
G01*
X164186092Y-96732974D01*
X164481070Y-96930072D01*
X164731928Y-97180930D01*
X164929026Y-97475908D01*
X165064789Y-97803669D01*
X165134000Y-98151616D01*
X165134000Y-98506384D01*
X165064789Y-98854331D01*
X164929026Y-99182092D01*
X164731928Y-99477070D01*
X164481070Y-99727928D01*
X164186092Y-99925026D01*
X163858331Y-100060789D01*
X163510384Y-100130000D01*
X163155616Y-100130000D01*
X162807669Y-100060789D01*
X162479908Y-99925026D01*
X162184930Y-99727928D01*
X161934072Y-99477070D01*
X161736974Y-99182092D01*
X161601211Y-98854331D01*
X161532000Y-98506384D01*
X161532000Y-98151616D01*
X161601211Y-97803669D01*
X161736974Y-97475908D01*
X161934072Y-97180930D01*
X162184930Y-96930072D01*
X162479908Y-96732974D01*
X162807669Y-96597211D01*
X163155616Y-96528000D01*
X163510384Y-96528000D01*
X163858331Y-96597211D01*
X163858331Y-96597211D01*
G37*
G36*
X107416629Y-98292719D02*
G01*
X107492142Y-98300156D01*
X107637476Y-98344243D01*
X107637479Y-98344244D01*
X107771416Y-98415835D01*
X107888817Y-98512183D01*
X107985165Y-98629584D01*
X108056756Y-98763521D01*
X108056757Y-98763524D01*
X108100844Y-98908858D01*
X108115730Y-99060000D01*
X108100844Y-99211142D01*
X108056757Y-99356476D01*
X108056756Y-99356479D01*
X107985165Y-99490416D01*
X107888817Y-99607817D01*
X107771416Y-99704165D01*
X107637479Y-99775756D01*
X107637476Y-99775757D01*
X107492142Y-99819844D01*
X107416629Y-99827281D01*
X107378873Y-99831000D01*
X106743127Y-99831000D01*
X106705371Y-99827281D01*
X106629858Y-99819844D01*
X106484524Y-99775757D01*
X106484521Y-99775756D01*
X106350584Y-99704165D01*
X106233183Y-99607817D01*
X106136835Y-99490416D01*
X106065244Y-99356479D01*
X106065243Y-99356476D01*
X106021156Y-99211142D01*
X106006270Y-99060000D01*
X106021156Y-98908858D01*
X106065243Y-98763524D01*
X106065244Y-98763521D01*
X106136835Y-98629584D01*
X106233183Y-98512183D01*
X106350584Y-98415835D01*
X106484521Y-98344244D01*
X106484524Y-98344243D01*
X106629858Y-98300156D01*
X106705371Y-98292719D01*
X106743127Y-98289000D01*
X107378873Y-98289000D01*
X107416629Y-98292719D01*
X107416629Y-98292719D01*
G37*
G36*
X109956629Y-98292719D02*
G01*
X110032142Y-98300156D01*
X110177476Y-98344243D01*
X110177479Y-98344244D01*
X110311416Y-98415835D01*
X110428817Y-98512183D01*
X110525165Y-98629584D01*
X110596756Y-98763521D01*
X110596757Y-98763524D01*
X110640844Y-98908858D01*
X110655730Y-99060000D01*
X110640844Y-99211142D01*
X110596757Y-99356476D01*
X110596756Y-99356479D01*
X110525165Y-99490416D01*
X110428817Y-99607817D01*
X110311416Y-99704165D01*
X110177479Y-99775756D01*
X110177476Y-99775757D01*
X110032142Y-99819844D01*
X109956629Y-99827281D01*
X109918873Y-99831000D01*
X109283127Y-99831000D01*
X109245371Y-99827281D01*
X109169858Y-99819844D01*
X109024524Y-99775757D01*
X109024521Y-99775756D01*
X108890584Y-99704165D01*
X108773183Y-99607817D01*
X108676835Y-99490416D01*
X108605244Y-99356479D01*
X108605243Y-99356476D01*
X108561156Y-99211142D01*
X108546270Y-99060000D01*
X108561156Y-98908858D01*
X108605243Y-98763524D01*
X108605244Y-98763521D01*
X108676835Y-98629584D01*
X108773183Y-98512183D01*
X108890584Y-98415835D01*
X109024521Y-98344244D01*
X109024524Y-98344243D01*
X109169858Y-98300156D01*
X109245371Y-98292719D01*
X109283127Y-98289000D01*
X109918873Y-98289000D01*
X109956629Y-98292719D01*
X109956629Y-98292719D01*
G37*
G36*
X117576629Y-98292719D02*
G01*
X117652142Y-98300156D01*
X117797476Y-98344243D01*
X117797479Y-98344244D01*
X117931416Y-98415835D01*
X118048817Y-98512183D01*
X118145165Y-98629584D01*
X118216756Y-98763521D01*
X118216757Y-98763524D01*
X118260844Y-98908858D01*
X118275730Y-99060000D01*
X118260844Y-99211142D01*
X118216757Y-99356476D01*
X118216756Y-99356479D01*
X118145165Y-99490416D01*
X118048817Y-99607817D01*
X117931416Y-99704165D01*
X117797479Y-99775756D01*
X117797476Y-99775757D01*
X117652142Y-99819844D01*
X117576629Y-99827281D01*
X117538873Y-99831000D01*
X116903127Y-99831000D01*
X116865371Y-99827281D01*
X116789858Y-99819844D01*
X116644524Y-99775757D01*
X116644521Y-99775756D01*
X116510584Y-99704165D01*
X116393183Y-99607817D01*
X116296835Y-99490416D01*
X116225244Y-99356479D01*
X116225243Y-99356476D01*
X116181156Y-99211142D01*
X116166270Y-99060000D01*
X116181156Y-98908858D01*
X116225243Y-98763524D01*
X116225244Y-98763521D01*
X116296835Y-98629584D01*
X116393183Y-98512183D01*
X116510584Y-98415835D01*
X116644521Y-98344244D01*
X116644524Y-98344243D01*
X116789858Y-98300156D01*
X116865371Y-98292719D01*
X116903127Y-98289000D01*
X117538873Y-98289000D01*
X117576629Y-98292719D01*
X117576629Y-98292719D01*
G37*
G36*
X122656629Y-98292719D02*
G01*
X122732142Y-98300156D01*
X122877476Y-98344243D01*
X122877479Y-98344244D01*
X123011416Y-98415835D01*
X123128817Y-98512183D01*
X123225165Y-98629584D01*
X123296756Y-98763521D01*
X123296757Y-98763524D01*
X123340844Y-98908858D01*
X123355730Y-99060000D01*
X123340844Y-99211142D01*
X123296757Y-99356476D01*
X123296756Y-99356479D01*
X123225165Y-99490416D01*
X123128817Y-99607817D01*
X123011416Y-99704165D01*
X122877479Y-99775756D01*
X122877476Y-99775757D01*
X122732142Y-99819844D01*
X122656629Y-99827281D01*
X122618873Y-99831000D01*
X121983127Y-99831000D01*
X121945371Y-99827281D01*
X121869858Y-99819844D01*
X121724524Y-99775757D01*
X121724521Y-99775756D01*
X121590584Y-99704165D01*
X121473183Y-99607817D01*
X121376835Y-99490416D01*
X121305244Y-99356479D01*
X121305243Y-99356476D01*
X121261156Y-99211142D01*
X121246270Y-99060000D01*
X121261156Y-98908858D01*
X121305243Y-98763524D01*
X121305244Y-98763521D01*
X121376835Y-98629584D01*
X121473183Y-98512183D01*
X121590584Y-98415835D01*
X121724521Y-98344244D01*
X121724524Y-98344243D01*
X121869858Y-98300156D01*
X121945371Y-98292719D01*
X121983127Y-98289000D01*
X122618873Y-98289000D01*
X122656629Y-98292719D01*
X122656629Y-98292719D01*
G37*
G36*
X137941499Y-96760445D02*
G01*
X137978995Y-96771820D01*
X138013554Y-96790292D01*
X138043847Y-96815153D01*
X138068708Y-96845446D01*
X138087180Y-96880005D01*
X138098555Y-96917501D01*
X138103000Y-96962638D01*
X138103000Y-97601362D01*
X138098555Y-97646499D01*
X138087180Y-97683995D01*
X138068708Y-97718554D01*
X138043847Y-97748847D01*
X138013554Y-97773708D01*
X137978995Y-97792180D01*
X137941499Y-97803555D01*
X137896362Y-97808000D01*
X137157638Y-97808000D01*
X137112501Y-97803555D01*
X137075005Y-97792180D01*
X137040446Y-97773708D01*
X137010153Y-97748847D01*
X136985292Y-97718554D01*
X136966820Y-97683995D01*
X136955445Y-97646499D01*
X136951000Y-97601362D01*
X136951000Y-96962638D01*
X136955445Y-96917501D01*
X136966820Y-96880005D01*
X136985292Y-96845446D01*
X137010153Y-96815153D01*
X137040446Y-96790292D01*
X137075005Y-96771820D01*
X137112501Y-96760445D01*
X137157638Y-96756000D01*
X137896362Y-96756000D01*
X137941499Y-96760445D01*
X137941499Y-96760445D01*
G37*
G36*
X136191499Y-96760445D02*
G01*
X136228995Y-96771820D01*
X136263554Y-96790292D01*
X136293847Y-96815153D01*
X136318708Y-96845446D01*
X136337180Y-96880005D01*
X136348555Y-96917501D01*
X136353000Y-96962638D01*
X136353000Y-97601362D01*
X136348555Y-97646499D01*
X136337180Y-97683995D01*
X136318708Y-97718554D01*
X136293847Y-97748847D01*
X136263554Y-97773708D01*
X136228995Y-97792180D01*
X136191499Y-97803555D01*
X136146362Y-97808000D01*
X135407638Y-97808000D01*
X135362501Y-97803555D01*
X135325005Y-97792180D01*
X135290446Y-97773708D01*
X135260153Y-97748847D01*
X135235292Y-97718554D01*
X135216820Y-97683995D01*
X135205445Y-97646499D01*
X135201000Y-97601362D01*
X135201000Y-96962638D01*
X135205445Y-96917501D01*
X135216820Y-96880005D01*
X135235292Y-96845446D01*
X135260153Y-96815153D01*
X135290446Y-96790292D01*
X135325005Y-96771820D01*
X135362501Y-96760445D01*
X135407638Y-96756000D01*
X136146362Y-96756000D01*
X136191499Y-96760445D01*
X136191499Y-96760445D01*
G37*
G36*
X107416629Y-95752719D02*
G01*
X107492142Y-95760156D01*
X107637476Y-95804243D01*
X107637479Y-95804244D01*
X107771416Y-95875835D01*
X107888817Y-95972183D01*
X107985165Y-96089584D01*
X108056756Y-96223521D01*
X108056757Y-96223524D01*
X108100844Y-96368858D01*
X108115730Y-96520000D01*
X108100844Y-96671142D01*
X108070303Y-96771820D01*
X108056756Y-96816479D01*
X107985165Y-96950416D01*
X107888817Y-97067817D01*
X107771416Y-97164165D01*
X107637479Y-97235756D01*
X107637476Y-97235757D01*
X107492142Y-97279844D01*
X107416629Y-97287281D01*
X107378873Y-97291000D01*
X106743127Y-97291000D01*
X106705371Y-97287281D01*
X106629858Y-97279844D01*
X106484524Y-97235757D01*
X106484521Y-97235756D01*
X106350584Y-97164165D01*
X106233183Y-97067817D01*
X106136835Y-96950416D01*
X106065244Y-96816479D01*
X106051697Y-96771820D01*
X106021156Y-96671142D01*
X106006270Y-96520000D01*
X106021156Y-96368858D01*
X106065243Y-96223524D01*
X106065244Y-96223521D01*
X106136835Y-96089584D01*
X106233183Y-95972183D01*
X106350584Y-95875835D01*
X106484521Y-95804244D01*
X106484524Y-95804243D01*
X106629858Y-95760156D01*
X106705371Y-95752719D01*
X106743127Y-95749000D01*
X107378873Y-95749000D01*
X107416629Y-95752719D01*
X107416629Y-95752719D01*
G37*
G36*
X109956629Y-95752719D02*
G01*
X110032142Y-95760156D01*
X110177476Y-95804243D01*
X110177479Y-95804244D01*
X110311416Y-95875835D01*
X110428817Y-95972183D01*
X110525165Y-96089584D01*
X110596756Y-96223521D01*
X110596757Y-96223524D01*
X110640844Y-96368858D01*
X110655730Y-96520000D01*
X110640844Y-96671142D01*
X110610303Y-96771820D01*
X110596756Y-96816479D01*
X110525165Y-96950416D01*
X110428817Y-97067817D01*
X110311416Y-97164165D01*
X110177479Y-97235756D01*
X110177476Y-97235757D01*
X110032142Y-97279844D01*
X109956629Y-97287281D01*
X109918873Y-97291000D01*
X109283127Y-97291000D01*
X109245371Y-97287281D01*
X109169858Y-97279844D01*
X109024524Y-97235757D01*
X109024521Y-97235756D01*
X108890584Y-97164165D01*
X108773183Y-97067817D01*
X108676835Y-96950416D01*
X108605244Y-96816479D01*
X108591697Y-96771820D01*
X108561156Y-96671142D01*
X108546270Y-96520000D01*
X108561156Y-96368858D01*
X108605243Y-96223524D01*
X108605244Y-96223521D01*
X108676835Y-96089584D01*
X108773183Y-95972183D01*
X108890584Y-95875835D01*
X109024521Y-95804244D01*
X109024524Y-95804243D01*
X109169858Y-95760156D01*
X109245371Y-95752719D01*
X109283127Y-95749000D01*
X109918873Y-95749000D01*
X109956629Y-95752719D01*
X109956629Y-95752719D01*
G37*
G36*
X117576629Y-95752719D02*
G01*
X117652142Y-95760156D01*
X117797476Y-95804243D01*
X117797479Y-95804244D01*
X117931416Y-95875835D01*
X118048817Y-95972183D01*
X118145165Y-96089584D01*
X118216756Y-96223521D01*
X118216757Y-96223524D01*
X118260844Y-96368858D01*
X118275730Y-96520000D01*
X118260844Y-96671142D01*
X118230303Y-96771820D01*
X118216756Y-96816479D01*
X118145165Y-96950416D01*
X118048817Y-97067817D01*
X117931416Y-97164165D01*
X117797479Y-97235756D01*
X117797476Y-97235757D01*
X117652142Y-97279844D01*
X117576629Y-97287281D01*
X117538873Y-97291000D01*
X116903127Y-97291000D01*
X116865371Y-97287281D01*
X116789858Y-97279844D01*
X116644524Y-97235757D01*
X116644521Y-97235756D01*
X116510584Y-97164165D01*
X116393183Y-97067817D01*
X116296835Y-96950416D01*
X116225244Y-96816479D01*
X116211697Y-96771820D01*
X116181156Y-96671142D01*
X116166270Y-96520000D01*
X116181156Y-96368858D01*
X116225243Y-96223524D01*
X116225244Y-96223521D01*
X116296835Y-96089584D01*
X116393183Y-95972183D01*
X116510584Y-95875835D01*
X116644521Y-95804244D01*
X116644524Y-95804243D01*
X116789858Y-95760156D01*
X116865371Y-95752719D01*
X116903127Y-95749000D01*
X117538873Y-95749000D01*
X117576629Y-95752719D01*
X117576629Y-95752719D01*
G37*
G36*
X122656629Y-95752719D02*
G01*
X122732142Y-95760156D01*
X122877476Y-95804243D01*
X122877479Y-95804244D01*
X123011416Y-95875835D01*
X123128817Y-95972183D01*
X123225165Y-96089584D01*
X123296756Y-96223521D01*
X123296757Y-96223524D01*
X123340844Y-96368858D01*
X123355730Y-96520000D01*
X123340844Y-96671142D01*
X123310303Y-96771820D01*
X123296756Y-96816479D01*
X123225165Y-96950416D01*
X123128817Y-97067817D01*
X123011416Y-97164165D01*
X122877479Y-97235756D01*
X122877476Y-97235757D01*
X122732142Y-97279844D01*
X122656629Y-97287281D01*
X122618873Y-97291000D01*
X121983127Y-97291000D01*
X121945371Y-97287281D01*
X121869858Y-97279844D01*
X121724524Y-97235757D01*
X121724521Y-97235756D01*
X121590584Y-97164165D01*
X121473183Y-97067817D01*
X121376835Y-96950416D01*
X121305244Y-96816479D01*
X121291697Y-96771820D01*
X121261156Y-96671142D01*
X121246270Y-96520000D01*
X121261156Y-96368858D01*
X121305243Y-96223524D01*
X121305244Y-96223521D01*
X121376835Y-96089584D01*
X121473183Y-95972183D01*
X121590584Y-95875835D01*
X121724521Y-95804244D01*
X121724524Y-95804243D01*
X121869858Y-95760156D01*
X121945371Y-95752719D01*
X121983127Y-95749000D01*
X122618873Y-95749000D01*
X122656629Y-95752719D01*
X122656629Y-95752719D01*
G37*
G36*
X149303000Y-94845000D02*
G01*
X143051000Y-94845000D01*
X143051000Y-92743000D01*
X149303000Y-92743000D01*
X149303000Y-94845000D01*
X149303000Y-94845000D01*
G37*
G36*
X107416629Y-93212719D02*
G01*
X107492142Y-93220156D01*
X107637476Y-93264243D01*
X107637479Y-93264244D01*
X107771416Y-93335835D01*
X107888817Y-93432183D01*
X107985165Y-93549584D01*
X108056756Y-93683521D01*
X108056757Y-93683524D01*
X108100844Y-93828858D01*
X108115730Y-93980000D01*
X108100844Y-94131142D01*
X108062103Y-94258852D01*
X108056756Y-94276479D01*
X107985165Y-94410416D01*
X107888817Y-94527817D01*
X107771416Y-94624165D01*
X107637479Y-94695756D01*
X107637476Y-94695757D01*
X107492142Y-94739844D01*
X107416629Y-94747281D01*
X107378873Y-94751000D01*
X106743127Y-94751000D01*
X106705371Y-94747281D01*
X106629858Y-94739844D01*
X106484524Y-94695757D01*
X106484521Y-94695756D01*
X106350584Y-94624165D01*
X106233183Y-94527817D01*
X106136835Y-94410416D01*
X106065244Y-94276479D01*
X106059897Y-94258852D01*
X106021156Y-94131142D01*
X106006270Y-93980000D01*
X106021156Y-93828858D01*
X106065243Y-93683524D01*
X106065244Y-93683521D01*
X106136835Y-93549584D01*
X106233183Y-93432183D01*
X106350584Y-93335835D01*
X106484521Y-93264244D01*
X106484524Y-93264243D01*
X106629858Y-93220156D01*
X106705371Y-93212719D01*
X106743127Y-93209000D01*
X107378873Y-93209000D01*
X107416629Y-93212719D01*
X107416629Y-93212719D01*
G37*
G36*
X109956629Y-93212719D02*
G01*
X110032142Y-93220156D01*
X110177476Y-93264243D01*
X110177479Y-93264244D01*
X110311416Y-93335835D01*
X110428817Y-93432183D01*
X110525165Y-93549584D01*
X110596756Y-93683521D01*
X110596757Y-93683524D01*
X110640844Y-93828858D01*
X110655730Y-93980000D01*
X110640844Y-94131142D01*
X110602103Y-94258852D01*
X110596756Y-94276479D01*
X110525165Y-94410416D01*
X110428817Y-94527817D01*
X110311416Y-94624165D01*
X110177479Y-94695756D01*
X110177476Y-94695757D01*
X110032142Y-94739844D01*
X109956629Y-94747281D01*
X109918873Y-94751000D01*
X109283127Y-94751000D01*
X109245371Y-94747281D01*
X109169858Y-94739844D01*
X109024524Y-94695757D01*
X109024521Y-94695756D01*
X108890584Y-94624165D01*
X108773183Y-94527817D01*
X108676835Y-94410416D01*
X108605244Y-94276479D01*
X108599897Y-94258852D01*
X108561156Y-94131142D01*
X108546270Y-93980000D01*
X108561156Y-93828858D01*
X108605243Y-93683524D01*
X108605244Y-93683521D01*
X108676835Y-93549584D01*
X108773183Y-93432183D01*
X108890584Y-93335835D01*
X109024521Y-93264244D01*
X109024524Y-93264243D01*
X109169858Y-93220156D01*
X109245371Y-93212719D01*
X109283127Y-93209000D01*
X109918873Y-93209000D01*
X109956629Y-93212719D01*
X109956629Y-93212719D01*
G37*
G36*
X117576629Y-93212719D02*
G01*
X117652142Y-93220156D01*
X117797476Y-93264243D01*
X117797479Y-93264244D01*
X117931416Y-93335835D01*
X118048817Y-93432183D01*
X118145165Y-93549584D01*
X118216756Y-93683521D01*
X118216757Y-93683524D01*
X118260844Y-93828858D01*
X118275730Y-93980000D01*
X118260844Y-94131142D01*
X118222103Y-94258852D01*
X118216756Y-94276479D01*
X118145165Y-94410416D01*
X118048817Y-94527817D01*
X117931416Y-94624165D01*
X117797479Y-94695756D01*
X117797476Y-94695757D01*
X117652142Y-94739844D01*
X117576629Y-94747281D01*
X117538873Y-94751000D01*
X116903127Y-94751000D01*
X116865371Y-94747281D01*
X116789858Y-94739844D01*
X116644524Y-94695757D01*
X116644521Y-94695756D01*
X116510584Y-94624165D01*
X116393183Y-94527817D01*
X116296835Y-94410416D01*
X116225244Y-94276479D01*
X116219897Y-94258852D01*
X116181156Y-94131142D01*
X116166270Y-93980000D01*
X116181156Y-93828858D01*
X116225243Y-93683524D01*
X116225244Y-93683521D01*
X116296835Y-93549584D01*
X116393183Y-93432183D01*
X116510584Y-93335835D01*
X116644521Y-93264244D01*
X116644524Y-93264243D01*
X116789858Y-93220156D01*
X116865371Y-93212719D01*
X116903127Y-93209000D01*
X117538873Y-93209000D01*
X117576629Y-93212719D01*
X117576629Y-93212719D01*
G37*
G36*
X122656629Y-93212719D02*
G01*
X122732142Y-93220156D01*
X122877476Y-93264243D01*
X122877479Y-93264244D01*
X123011416Y-93335835D01*
X123128817Y-93432183D01*
X123225165Y-93549584D01*
X123296756Y-93683521D01*
X123296757Y-93683524D01*
X123340844Y-93828858D01*
X123355730Y-93980000D01*
X123340844Y-94131142D01*
X123302103Y-94258852D01*
X123296756Y-94276479D01*
X123225165Y-94410416D01*
X123128817Y-94527817D01*
X123011416Y-94624165D01*
X122877479Y-94695756D01*
X122877476Y-94695757D01*
X122732142Y-94739844D01*
X122656629Y-94747281D01*
X122618873Y-94751000D01*
X121983127Y-94751000D01*
X121945371Y-94747281D01*
X121869858Y-94739844D01*
X121724524Y-94695757D01*
X121724521Y-94695756D01*
X121590584Y-94624165D01*
X121473183Y-94527817D01*
X121376835Y-94410416D01*
X121305244Y-94276479D01*
X121299897Y-94258852D01*
X121261156Y-94131142D01*
X121246270Y-93980000D01*
X121261156Y-93828858D01*
X121305243Y-93683524D01*
X121305244Y-93683521D01*
X121376835Y-93549584D01*
X121473183Y-93432183D01*
X121590584Y-93335835D01*
X121724521Y-93264244D01*
X121724524Y-93264243D01*
X121869858Y-93220156D01*
X121945371Y-93212719D01*
X121983127Y-93209000D01*
X122618873Y-93209000D01*
X122656629Y-93212719D01*
X122656629Y-93212719D01*
G37*
G36*
X158736512Y-92662927D02*
G01*
X158885812Y-92692624D01*
X159049784Y-92760544D01*
X159197354Y-92859147D01*
X159322853Y-92984646D01*
X159421456Y-93132216D01*
X159489376Y-93296188D01*
X159500405Y-93351638D01*
X159507516Y-93375078D01*
X159519067Y-93396689D01*
X159534613Y-93415631D01*
X159553555Y-93431176D01*
X159575165Y-93442727D01*
X159598614Y-93449840D01*
X159623000Y-93452242D01*
X159647387Y-93449840D01*
X159670835Y-93442727D01*
X159692446Y-93431176D01*
X159711388Y-93415630D01*
X159726933Y-93396688D01*
X159738484Y-93375078D01*
X159745595Y-93351638D01*
X159756624Y-93296188D01*
X159824544Y-93132216D01*
X159923147Y-92984646D01*
X160048646Y-92859147D01*
X160196216Y-92760544D01*
X160360188Y-92692624D01*
X160509488Y-92662927D01*
X160534258Y-92658000D01*
X160711742Y-92658000D01*
X160736512Y-92662927D01*
X160885812Y-92692624D01*
X161049784Y-92760544D01*
X161197354Y-92859147D01*
X161322853Y-92984646D01*
X161421456Y-93132216D01*
X161489376Y-93296188D01*
X161509366Y-93396688D01*
X161520895Y-93454646D01*
X161524000Y-93470259D01*
X161524000Y-93647741D01*
X161489376Y-93821812D01*
X161421456Y-93985784D01*
X161322853Y-94133354D01*
X161197354Y-94258853D01*
X161049784Y-94357456D01*
X160885812Y-94425376D01*
X160736512Y-94455073D01*
X160711742Y-94460000D01*
X160534258Y-94460000D01*
X160509488Y-94455073D01*
X160360188Y-94425376D01*
X160196216Y-94357456D01*
X160048646Y-94258853D01*
X159923147Y-94133354D01*
X159824544Y-93985784D01*
X159756624Y-93821812D01*
X159745595Y-93766362D01*
X159738484Y-93742922D01*
X159726933Y-93721311D01*
X159711387Y-93702369D01*
X159692445Y-93686824D01*
X159670835Y-93675273D01*
X159647386Y-93668160D01*
X159623000Y-93665758D01*
X159598613Y-93668160D01*
X159575165Y-93675273D01*
X159553554Y-93686824D01*
X159534612Y-93702370D01*
X159519067Y-93721312D01*
X159507516Y-93742922D01*
X159500405Y-93766362D01*
X159489376Y-93821812D01*
X159421456Y-93985784D01*
X159322853Y-94133354D01*
X159197354Y-94258853D01*
X159049784Y-94357456D01*
X158885812Y-94425376D01*
X158736512Y-94455073D01*
X158711742Y-94460000D01*
X158534258Y-94460000D01*
X158509488Y-94455073D01*
X158360188Y-94425376D01*
X158196216Y-94357456D01*
X158048646Y-94258853D01*
X157923147Y-94133354D01*
X157824544Y-93985784D01*
X157756624Y-93821812D01*
X157722000Y-93647741D01*
X157722000Y-93470259D01*
X157725106Y-93454646D01*
X157736634Y-93396688D01*
X157756624Y-93296188D01*
X157824544Y-93132216D01*
X157923147Y-92984646D01*
X158048646Y-92859147D01*
X158196216Y-92760544D01*
X158360188Y-92692624D01*
X158509488Y-92662927D01*
X158534258Y-92658000D01*
X158711742Y-92658000D01*
X158736512Y-92662927D01*
X158736512Y-92662927D01*
G37*
G36*
X131464499Y-92569445D02*
G01*
X131501995Y-92580820D01*
X131536554Y-92599292D01*
X131566847Y-92624153D01*
X131591708Y-92654446D01*
X131610180Y-92689005D01*
X131621555Y-92726501D01*
X131626000Y-92771638D01*
X131626000Y-93410362D01*
X131621555Y-93455499D01*
X131610180Y-93492995D01*
X131591708Y-93527554D01*
X131566847Y-93557847D01*
X131536554Y-93582708D01*
X131501995Y-93601180D01*
X131464499Y-93612555D01*
X131419362Y-93617000D01*
X130680638Y-93617000D01*
X130635501Y-93612555D01*
X130598005Y-93601180D01*
X130563446Y-93582708D01*
X130533153Y-93557847D01*
X130508292Y-93527554D01*
X130489820Y-93492995D01*
X130478445Y-93455499D01*
X130474000Y-93410362D01*
X130474000Y-92771638D01*
X130478445Y-92726501D01*
X130489820Y-92689005D01*
X130508292Y-92654446D01*
X130533153Y-92624153D01*
X130563446Y-92599292D01*
X130598005Y-92580820D01*
X130635501Y-92569445D01*
X130680638Y-92565000D01*
X131419362Y-92565000D01*
X131464499Y-92569445D01*
X131464499Y-92569445D01*
G37*
G36*
X129714499Y-92569445D02*
G01*
X129751995Y-92580820D01*
X129786554Y-92599292D01*
X129816847Y-92624153D01*
X129841708Y-92654446D01*
X129860180Y-92689005D01*
X129871555Y-92726501D01*
X129876000Y-92771638D01*
X129876000Y-93410362D01*
X129871555Y-93455499D01*
X129860180Y-93492995D01*
X129841708Y-93527554D01*
X129816847Y-93557847D01*
X129786554Y-93582708D01*
X129751995Y-93601180D01*
X129714499Y-93612555D01*
X129669362Y-93617000D01*
X128930638Y-93617000D01*
X128885501Y-93612555D01*
X128848005Y-93601180D01*
X128813446Y-93582708D01*
X128783153Y-93557847D01*
X128758292Y-93527554D01*
X128739820Y-93492995D01*
X128728445Y-93455499D01*
X128724000Y-93410362D01*
X128724000Y-92771638D01*
X128728445Y-92726501D01*
X128739820Y-92689005D01*
X128758292Y-92654446D01*
X128783153Y-92624153D01*
X128813446Y-92599292D01*
X128848005Y-92580820D01*
X128885501Y-92569445D01*
X128930638Y-92565000D01*
X129669362Y-92565000D01*
X129714499Y-92569445D01*
X129714499Y-92569445D01*
G37*
G36*
X136584425Y-91010760D02*
G01*
X136584428Y-91010761D01*
X136584429Y-91010761D01*
X136763693Y-91065140D01*
X136763696Y-91065142D01*
X136763697Y-91065142D01*
X136928903Y-91153446D01*
X137073712Y-91272288D01*
X137192554Y-91417097D01*
X137280858Y-91582303D01*
X137280860Y-91582307D01*
X137335239Y-91761571D01*
X137335240Y-91761575D01*
X137353601Y-91948000D01*
X137335240Y-92134425D01*
X137335239Y-92134428D01*
X137335239Y-92134429D01*
X137280860Y-92313693D01*
X137280858Y-92313696D01*
X137280858Y-92313697D01*
X137192554Y-92478903D01*
X137073712Y-92623712D01*
X136928903Y-92742554D01*
X136769044Y-92828000D01*
X136763693Y-92830860D01*
X136584429Y-92885239D01*
X136584428Y-92885239D01*
X136584425Y-92885240D01*
X136444718Y-92899000D01*
X136351282Y-92899000D01*
X136211575Y-92885240D01*
X136211572Y-92885239D01*
X136211571Y-92885239D01*
X136032307Y-92830860D01*
X136026956Y-92828000D01*
X135867097Y-92742554D01*
X135722288Y-92623712D01*
X135603446Y-92478903D01*
X135515142Y-92313697D01*
X135515142Y-92313696D01*
X135515140Y-92313693D01*
X135460761Y-92134429D01*
X135460761Y-92134428D01*
X135460760Y-92134425D01*
X135442399Y-91948000D01*
X135460760Y-91761575D01*
X135460761Y-91761571D01*
X135515140Y-91582307D01*
X135515142Y-91582303D01*
X135603446Y-91417097D01*
X135722288Y-91272288D01*
X135867097Y-91153446D01*
X136032303Y-91065142D01*
X136032304Y-91065142D01*
X136032307Y-91065140D01*
X136211571Y-91010761D01*
X136211572Y-91010761D01*
X136211575Y-91010760D01*
X136351282Y-90997000D01*
X136444718Y-90997000D01*
X136584425Y-91010760D01*
X136584425Y-91010760D01*
G37*
G36*
X109956629Y-90672719D02*
G01*
X110032142Y-90680156D01*
X110177476Y-90724243D01*
X110177479Y-90724244D01*
X110311416Y-90795835D01*
X110428817Y-90892183D01*
X110525165Y-91009584D01*
X110596756Y-91143521D01*
X110596757Y-91143524D01*
X110640844Y-91288858D01*
X110655730Y-91440000D01*
X110640844Y-91591142D01*
X110628039Y-91633353D01*
X110596756Y-91736479D01*
X110525165Y-91870416D01*
X110428817Y-91987817D01*
X110311416Y-92084165D01*
X110177479Y-92155756D01*
X110177476Y-92155757D01*
X110032142Y-92199844D01*
X109956629Y-92207281D01*
X109918873Y-92211000D01*
X109283127Y-92211000D01*
X109245371Y-92207281D01*
X109169858Y-92199844D01*
X109024524Y-92155757D01*
X109024521Y-92155756D01*
X108890584Y-92084165D01*
X108773183Y-91987817D01*
X108676835Y-91870416D01*
X108605244Y-91736479D01*
X108573961Y-91633353D01*
X108561156Y-91591142D01*
X108546270Y-91440000D01*
X108561156Y-91288858D01*
X108605243Y-91143524D01*
X108605244Y-91143521D01*
X108676835Y-91009584D01*
X108773183Y-90892183D01*
X108890584Y-90795835D01*
X109024521Y-90724244D01*
X109024524Y-90724243D01*
X109169858Y-90680156D01*
X109245371Y-90672719D01*
X109283127Y-90669000D01*
X109918873Y-90669000D01*
X109956629Y-90672719D01*
X109956629Y-90672719D01*
G37*
G36*
X117576629Y-90672719D02*
G01*
X117652142Y-90680156D01*
X117797476Y-90724243D01*
X117797479Y-90724244D01*
X117931416Y-90795835D01*
X118048817Y-90892183D01*
X118145165Y-91009584D01*
X118216756Y-91143521D01*
X118216757Y-91143524D01*
X118260844Y-91288858D01*
X118275730Y-91440000D01*
X118260844Y-91591142D01*
X118248039Y-91633353D01*
X118216756Y-91736479D01*
X118145165Y-91870416D01*
X118048817Y-91987817D01*
X117931416Y-92084165D01*
X117797479Y-92155756D01*
X117797476Y-92155757D01*
X117652142Y-92199844D01*
X117576629Y-92207281D01*
X117538873Y-92211000D01*
X116903127Y-92211000D01*
X116865371Y-92207281D01*
X116789858Y-92199844D01*
X116644524Y-92155757D01*
X116644521Y-92155756D01*
X116510584Y-92084165D01*
X116393183Y-91987817D01*
X116296835Y-91870416D01*
X116225244Y-91736479D01*
X116193961Y-91633353D01*
X116181156Y-91591142D01*
X116166270Y-91440000D01*
X116181156Y-91288858D01*
X116225243Y-91143524D01*
X116225244Y-91143521D01*
X116296835Y-91009584D01*
X116393183Y-90892183D01*
X116510584Y-90795835D01*
X116644521Y-90724244D01*
X116644524Y-90724243D01*
X116789858Y-90680156D01*
X116865371Y-90672719D01*
X116903127Y-90669000D01*
X117538873Y-90669000D01*
X117576629Y-90672719D01*
X117576629Y-90672719D01*
G37*
G36*
X107416629Y-90672719D02*
G01*
X107492142Y-90680156D01*
X107637476Y-90724243D01*
X107637479Y-90724244D01*
X107771416Y-90795835D01*
X107888817Y-90892183D01*
X107985165Y-91009584D01*
X108056756Y-91143521D01*
X108056757Y-91143524D01*
X108100844Y-91288858D01*
X108115730Y-91440000D01*
X108100844Y-91591142D01*
X108088039Y-91633353D01*
X108056756Y-91736479D01*
X107985165Y-91870416D01*
X107888817Y-91987817D01*
X107771416Y-92084165D01*
X107637479Y-92155756D01*
X107637476Y-92155757D01*
X107492142Y-92199844D01*
X107416629Y-92207281D01*
X107378873Y-92211000D01*
X106743127Y-92211000D01*
X106705371Y-92207281D01*
X106629858Y-92199844D01*
X106484524Y-92155757D01*
X106484521Y-92155756D01*
X106350584Y-92084165D01*
X106233183Y-91987817D01*
X106136835Y-91870416D01*
X106065244Y-91736479D01*
X106033961Y-91633353D01*
X106021156Y-91591142D01*
X106006270Y-91440000D01*
X106021156Y-91288858D01*
X106065243Y-91143524D01*
X106065244Y-91143521D01*
X106136835Y-91009584D01*
X106233183Y-90892183D01*
X106350584Y-90795835D01*
X106484521Y-90724244D01*
X106484524Y-90724243D01*
X106629858Y-90680156D01*
X106705371Y-90672719D01*
X106743127Y-90669000D01*
X107378873Y-90669000D01*
X107416629Y-90672719D01*
X107416629Y-90672719D01*
G37*
G36*
X122656629Y-90672719D02*
G01*
X122732142Y-90680156D01*
X122877476Y-90724243D01*
X122877479Y-90724244D01*
X123011416Y-90795835D01*
X123128817Y-90892183D01*
X123225165Y-91009584D01*
X123296756Y-91143521D01*
X123296757Y-91143524D01*
X123340844Y-91288858D01*
X123355730Y-91440000D01*
X123340844Y-91591142D01*
X123328039Y-91633353D01*
X123296756Y-91736479D01*
X123225165Y-91870416D01*
X123128817Y-91987817D01*
X123011416Y-92084165D01*
X122877479Y-92155756D01*
X122877476Y-92155757D01*
X122732142Y-92199844D01*
X122656629Y-92207281D01*
X122618873Y-92211000D01*
X121983127Y-92211000D01*
X121945371Y-92207281D01*
X121869858Y-92199844D01*
X121724524Y-92155757D01*
X121724521Y-92155756D01*
X121590584Y-92084165D01*
X121473183Y-91987817D01*
X121376835Y-91870416D01*
X121305244Y-91736479D01*
X121273961Y-91633353D01*
X121261156Y-91591142D01*
X121246270Y-91440000D01*
X121261156Y-91288858D01*
X121305243Y-91143524D01*
X121305244Y-91143521D01*
X121376835Y-91009584D01*
X121473183Y-90892183D01*
X121590584Y-90795835D01*
X121724521Y-90724244D01*
X121724524Y-90724243D01*
X121869858Y-90680156D01*
X121945371Y-90672719D01*
X121983127Y-90669000D01*
X122618873Y-90669000D01*
X122656629Y-90672719D01*
X122656629Y-90672719D01*
G37*
G36*
X159524000Y-90729383D02*
G01*
X159526402Y-90753769D01*
X159533515Y-90777218D01*
X159545066Y-90798829D01*
X159560611Y-90817771D01*
X159579553Y-90833316D01*
X159601164Y-90844867D01*
X159624613Y-90851980D01*
X159648999Y-90854382D01*
X159673385Y-90851980D01*
X159696834Y-90844867D01*
X159718445Y-90833316D01*
X159737387Y-90817771D01*
X159752932Y-90798829D01*
X159764477Y-90777229D01*
X159824544Y-90632216D01*
X159923147Y-90484646D01*
X160048646Y-90359147D01*
X160196216Y-90260544D01*
X160360188Y-90192624D01*
X160509488Y-90162927D01*
X160534258Y-90158000D01*
X160711742Y-90158000D01*
X160736512Y-90162927D01*
X160885812Y-90192624D01*
X161049784Y-90260544D01*
X161197354Y-90359147D01*
X161322853Y-90484646D01*
X161421456Y-90632216D01*
X161489376Y-90796188D01*
X161524000Y-90970259D01*
X161524000Y-91147741D01*
X161489376Y-91321812D01*
X161421456Y-91485784D01*
X161322853Y-91633354D01*
X161197354Y-91758853D01*
X161049784Y-91857456D01*
X160885812Y-91925376D01*
X160736512Y-91955073D01*
X160711742Y-91960000D01*
X160534258Y-91960000D01*
X160509488Y-91955073D01*
X160360188Y-91925376D01*
X160196216Y-91857456D01*
X160048646Y-91758853D01*
X159923147Y-91633354D01*
X159824544Y-91485784D01*
X159764477Y-91340771D01*
X159752932Y-91319171D01*
X159737387Y-91300229D01*
X159718445Y-91284684D01*
X159696834Y-91273133D01*
X159673385Y-91266020D01*
X159648999Y-91263618D01*
X159624613Y-91266020D01*
X159601164Y-91273133D01*
X159579553Y-91284684D01*
X159560611Y-91300229D01*
X159545066Y-91319171D01*
X159533515Y-91340782D01*
X159526402Y-91364231D01*
X159524000Y-91388617D01*
X159524000Y-91960000D01*
X157722000Y-91960000D01*
X157722000Y-90158000D01*
X159524000Y-90158000D01*
X159524000Y-90729383D01*
X159524000Y-90729383D01*
G37*
G36*
X146704499Y-89521445D02*
G01*
X146741995Y-89532820D01*
X146776554Y-89551292D01*
X146806847Y-89576153D01*
X146831708Y-89606446D01*
X146850180Y-89641005D01*
X146861555Y-89678501D01*
X146866000Y-89723638D01*
X146866000Y-90362362D01*
X146861555Y-90407499D01*
X146850180Y-90444995D01*
X146831708Y-90479554D01*
X146806847Y-90509847D01*
X146776554Y-90534708D01*
X146741995Y-90553180D01*
X146704499Y-90564555D01*
X146659362Y-90569000D01*
X145920638Y-90569000D01*
X145875501Y-90564555D01*
X145838005Y-90553180D01*
X145803446Y-90534708D01*
X145773153Y-90509847D01*
X145748292Y-90479554D01*
X145729820Y-90444995D01*
X145718445Y-90407499D01*
X145714000Y-90362362D01*
X145714000Y-89723638D01*
X145718445Y-89678501D01*
X145729820Y-89641005D01*
X145748292Y-89606446D01*
X145773153Y-89576153D01*
X145803446Y-89551292D01*
X145838005Y-89532820D01*
X145875501Y-89521445D01*
X145920638Y-89517000D01*
X146659362Y-89517000D01*
X146704499Y-89521445D01*
X146704499Y-89521445D01*
G37*
G36*
X144954499Y-89521445D02*
G01*
X144991995Y-89532820D01*
X145026554Y-89551292D01*
X145056847Y-89576153D01*
X145081708Y-89606446D01*
X145100180Y-89641005D01*
X145111555Y-89678501D01*
X145116000Y-89723638D01*
X145116000Y-90362362D01*
X145111555Y-90407499D01*
X145100180Y-90444995D01*
X145081708Y-90479554D01*
X145056847Y-90509847D01*
X145026554Y-90534708D01*
X144991995Y-90553180D01*
X144954499Y-90564555D01*
X144909362Y-90569000D01*
X144170638Y-90569000D01*
X144125501Y-90564555D01*
X144088005Y-90553180D01*
X144053446Y-90534708D01*
X144023153Y-90509847D01*
X143998292Y-90479554D01*
X143979820Y-90444995D01*
X143968445Y-90407499D01*
X143964000Y-90362362D01*
X143964000Y-89723638D01*
X143968445Y-89678501D01*
X143979820Y-89641005D01*
X143998292Y-89606446D01*
X144023153Y-89576153D01*
X144053446Y-89551292D01*
X144088005Y-89532820D01*
X144125501Y-89521445D01*
X144170638Y-89517000D01*
X144909362Y-89517000D01*
X144954499Y-89521445D01*
X144954499Y-89521445D01*
G37*
G36*
X136584425Y-88470760D02*
G01*
X136584428Y-88470761D01*
X136584429Y-88470761D01*
X136763693Y-88525140D01*
X136763696Y-88525142D01*
X136763697Y-88525142D01*
X136928903Y-88613446D01*
X137073712Y-88732288D01*
X137192554Y-88877097D01*
X137280858Y-89042303D01*
X137280860Y-89042307D01*
X137327627Y-89196479D01*
X137335240Y-89221575D01*
X137353601Y-89408000D01*
X137335240Y-89594425D01*
X137335239Y-89594428D01*
X137335239Y-89594429D01*
X137280860Y-89773693D01*
X137280858Y-89773696D01*
X137280858Y-89773697D01*
X137192554Y-89938903D01*
X137073712Y-90083712D01*
X136928903Y-90202554D01*
X136763697Y-90290858D01*
X136763693Y-90290860D01*
X136584429Y-90345239D01*
X136584428Y-90345239D01*
X136584425Y-90345240D01*
X136444718Y-90359000D01*
X136351282Y-90359000D01*
X136211575Y-90345240D01*
X136211572Y-90345239D01*
X136211571Y-90345239D01*
X136032307Y-90290860D01*
X136032303Y-90290858D01*
X135867097Y-90202554D01*
X135722288Y-90083712D01*
X135603446Y-89938903D01*
X135515142Y-89773697D01*
X135515142Y-89773696D01*
X135515140Y-89773693D01*
X135460761Y-89594429D01*
X135460761Y-89594428D01*
X135460760Y-89594425D01*
X135442399Y-89408000D01*
X135460760Y-89221575D01*
X135468373Y-89196479D01*
X135515140Y-89042307D01*
X135515142Y-89042303D01*
X135603446Y-88877097D01*
X135722288Y-88732288D01*
X135867097Y-88613446D01*
X136032303Y-88525142D01*
X136032304Y-88525142D01*
X136032307Y-88525140D01*
X136211571Y-88470761D01*
X136211572Y-88470761D01*
X136211575Y-88470760D01*
X136351282Y-88457000D01*
X136444718Y-88457000D01*
X136584425Y-88470760D01*
X136584425Y-88470760D01*
G37*
G36*
X117576629Y-88132719D02*
G01*
X117652142Y-88140156D01*
X117797476Y-88184243D01*
X117797479Y-88184244D01*
X117931416Y-88255835D01*
X118048817Y-88352183D01*
X118145165Y-88469584D01*
X118216756Y-88603521D01*
X118216757Y-88603524D01*
X118260844Y-88748858D01*
X118275730Y-88900000D01*
X118260844Y-89051142D01*
X118216757Y-89196476D01*
X118216756Y-89196479D01*
X118145165Y-89330416D01*
X118048817Y-89447817D01*
X117931416Y-89544165D01*
X117797479Y-89615756D01*
X117797476Y-89615757D01*
X117652142Y-89659844D01*
X117576629Y-89667281D01*
X117538873Y-89671000D01*
X116903127Y-89671000D01*
X116865371Y-89667281D01*
X116789858Y-89659844D01*
X116644524Y-89615757D01*
X116644521Y-89615756D01*
X116510584Y-89544165D01*
X116393183Y-89447817D01*
X116296835Y-89330416D01*
X116225244Y-89196479D01*
X116225243Y-89196476D01*
X116181156Y-89051142D01*
X116166270Y-88900000D01*
X116181156Y-88748858D01*
X116225243Y-88603524D01*
X116225244Y-88603521D01*
X116296835Y-88469584D01*
X116393183Y-88352183D01*
X116510584Y-88255835D01*
X116644521Y-88184244D01*
X116644524Y-88184243D01*
X116789858Y-88140156D01*
X116865371Y-88132719D01*
X116903127Y-88129000D01*
X117538873Y-88129000D01*
X117576629Y-88132719D01*
X117576629Y-88132719D01*
G37*
G36*
X110652000Y-89671000D02*
G01*
X108550000Y-89671000D01*
X108550000Y-88129000D01*
X110652000Y-88129000D01*
X110652000Y-89671000D01*
X110652000Y-89671000D01*
G37*
G36*
X122656629Y-88132719D02*
G01*
X122732142Y-88140156D01*
X122877476Y-88184243D01*
X122877479Y-88184244D01*
X123011416Y-88255835D01*
X123128817Y-88352183D01*
X123225165Y-88469584D01*
X123296756Y-88603521D01*
X123296757Y-88603524D01*
X123340844Y-88748858D01*
X123355730Y-88900000D01*
X123340844Y-89051142D01*
X123296757Y-89196476D01*
X123296756Y-89196479D01*
X123225165Y-89330416D01*
X123128817Y-89447817D01*
X123011416Y-89544165D01*
X122877479Y-89615756D01*
X122877476Y-89615757D01*
X122732142Y-89659844D01*
X122656629Y-89667281D01*
X122618873Y-89671000D01*
X121983127Y-89671000D01*
X121945371Y-89667281D01*
X121869858Y-89659844D01*
X121724524Y-89615757D01*
X121724521Y-89615756D01*
X121590584Y-89544165D01*
X121473183Y-89447817D01*
X121376835Y-89330416D01*
X121305244Y-89196479D01*
X121305243Y-89196476D01*
X121261156Y-89051142D01*
X121246270Y-88900000D01*
X121261156Y-88748858D01*
X121305243Y-88603524D01*
X121305244Y-88603521D01*
X121376835Y-88469584D01*
X121473183Y-88352183D01*
X121590584Y-88255835D01*
X121724521Y-88184244D01*
X121724524Y-88184243D01*
X121869858Y-88140156D01*
X121945371Y-88132719D01*
X121983127Y-88129000D01*
X122618873Y-88129000D01*
X122656629Y-88132719D01*
X122656629Y-88132719D01*
G37*
G36*
X108112000Y-89671000D02*
G01*
X106010000Y-89671000D01*
X106010000Y-88129000D01*
X108112000Y-88129000D01*
X108112000Y-89671000D01*
X108112000Y-89671000D01*
G37*
G36*
X163858331Y-84557211D02*
G01*
X164186092Y-84692974D01*
X164481070Y-84890072D01*
X164731928Y-85140930D01*
X164929026Y-85435908D01*
X165064789Y-85763669D01*
X165134000Y-86111616D01*
X165134000Y-86466384D01*
X165064789Y-86814331D01*
X164929026Y-87142092D01*
X164731928Y-87437070D01*
X164481070Y-87687928D01*
X164186092Y-87885026D01*
X163858331Y-88020789D01*
X163510384Y-88090000D01*
X163155616Y-88090000D01*
X162807669Y-88020789D01*
X162479908Y-87885026D01*
X162184930Y-87687928D01*
X161934072Y-87437070D01*
X161736974Y-87142092D01*
X161601211Y-86814331D01*
X161532000Y-86466384D01*
X161532000Y-86111616D01*
X161601211Y-85763669D01*
X161736974Y-85435908D01*
X161934072Y-85140930D01*
X162184930Y-84890072D01*
X162479908Y-84692974D01*
X162807669Y-84557211D01*
X163155616Y-84488000D01*
X163510384Y-84488000D01*
X163858331Y-84557211D01*
X163858331Y-84557211D01*
G37*
G36*
X144954499Y-86981445D02*
G01*
X144991995Y-86992820D01*
X145026554Y-87011292D01*
X145056847Y-87036153D01*
X145081708Y-87066446D01*
X145100180Y-87101005D01*
X145111555Y-87138501D01*
X145116000Y-87183638D01*
X145116000Y-87822362D01*
X145111555Y-87867499D01*
X145100180Y-87904995D01*
X145081708Y-87939554D01*
X145056847Y-87969847D01*
X145026554Y-87994708D01*
X144991995Y-88013180D01*
X144954499Y-88024555D01*
X144909362Y-88029000D01*
X144170638Y-88029000D01*
X144125501Y-88024555D01*
X144088005Y-88013180D01*
X144053446Y-87994708D01*
X144023153Y-87969847D01*
X143998292Y-87939554D01*
X143979820Y-87904995D01*
X143968445Y-87867499D01*
X143964000Y-87822362D01*
X143964000Y-87183638D01*
X143968445Y-87138501D01*
X143979820Y-87101005D01*
X143998292Y-87066446D01*
X144023153Y-87036153D01*
X144053446Y-87011292D01*
X144088005Y-86992820D01*
X144125501Y-86981445D01*
X144170638Y-86977000D01*
X144909362Y-86977000D01*
X144954499Y-86981445D01*
X144954499Y-86981445D01*
G37*
G36*
X146704499Y-86981445D02*
G01*
X146741995Y-86992820D01*
X146776554Y-87011292D01*
X146806847Y-87036153D01*
X146831708Y-87066446D01*
X146850180Y-87101005D01*
X146861555Y-87138501D01*
X146866000Y-87183638D01*
X146866000Y-87822362D01*
X146861555Y-87867499D01*
X146850180Y-87904995D01*
X146831708Y-87939554D01*
X146806847Y-87969847D01*
X146776554Y-87994708D01*
X146741995Y-88013180D01*
X146704499Y-88024555D01*
X146659362Y-88029000D01*
X145920638Y-88029000D01*
X145875501Y-88024555D01*
X145838005Y-88013180D01*
X145803446Y-87994708D01*
X145773153Y-87969847D01*
X145748292Y-87939554D01*
X145729820Y-87904995D01*
X145718445Y-87867499D01*
X145714000Y-87822362D01*
X145714000Y-87183638D01*
X145718445Y-87138501D01*
X145729820Y-87101005D01*
X145748292Y-87066446D01*
X145773153Y-87036153D01*
X145803446Y-87011292D01*
X145838005Y-86992820D01*
X145875501Y-86981445D01*
X145920638Y-86977000D01*
X146659362Y-86977000D01*
X146704499Y-86981445D01*
X146704499Y-86981445D01*
G37*
G36*
X137349000Y-87819000D02*
G01*
X135447000Y-87819000D01*
X135447000Y-85917000D01*
X137349000Y-85917000D01*
X137349000Y-87819000D01*
X137349000Y-87819000D01*
G37*
G36*
X129714499Y-85457445D02*
G01*
X129751995Y-85468820D01*
X129786554Y-85487292D01*
X129816847Y-85512153D01*
X129841708Y-85542446D01*
X129860180Y-85577005D01*
X129871555Y-85614501D01*
X129876000Y-85659638D01*
X129876000Y-86298362D01*
X129871555Y-86343499D01*
X129860180Y-86380995D01*
X129841708Y-86415554D01*
X129816847Y-86445847D01*
X129786554Y-86470708D01*
X129751995Y-86489180D01*
X129714499Y-86500555D01*
X129669362Y-86505000D01*
X128930638Y-86505000D01*
X128885501Y-86500555D01*
X128848005Y-86489180D01*
X128813446Y-86470708D01*
X128783153Y-86445847D01*
X128758292Y-86415554D01*
X128739820Y-86380995D01*
X128728445Y-86343499D01*
X128724000Y-86298362D01*
X128724000Y-85659638D01*
X128728445Y-85614501D01*
X128739820Y-85577005D01*
X128758292Y-85542446D01*
X128783153Y-85512153D01*
X128813446Y-85487292D01*
X128848005Y-85468820D01*
X128885501Y-85457445D01*
X128930638Y-85453000D01*
X129669362Y-85453000D01*
X129714499Y-85457445D01*
X129714499Y-85457445D01*
G37*
G36*
X131464499Y-85457445D02*
G01*
X131501995Y-85468820D01*
X131536554Y-85487292D01*
X131566847Y-85512153D01*
X131591708Y-85542446D01*
X131610180Y-85577005D01*
X131621555Y-85614501D01*
X131626000Y-85659638D01*
X131626000Y-86298362D01*
X131621555Y-86343499D01*
X131610180Y-86380995D01*
X131591708Y-86415554D01*
X131566847Y-86445847D01*
X131536554Y-86470708D01*
X131501995Y-86489180D01*
X131464499Y-86500555D01*
X131419362Y-86505000D01*
X130680638Y-86505000D01*
X130635501Y-86500555D01*
X130598005Y-86489180D01*
X130563446Y-86470708D01*
X130533153Y-86445847D01*
X130508292Y-86415554D01*
X130489820Y-86380995D01*
X130478445Y-86343499D01*
X130474000Y-86298362D01*
X130474000Y-85659638D01*
X130478445Y-85614501D01*
X130489820Y-85577005D01*
X130508292Y-85542446D01*
X130533153Y-85512153D01*
X130563446Y-85487292D01*
X130598005Y-85468820D01*
X130635501Y-85457445D01*
X130680638Y-85453000D01*
X131419362Y-85453000D01*
X131464499Y-85457445D01*
X131464499Y-85457445D01*
G37*
G36*
X146704499Y-84441445D02*
G01*
X146741995Y-84452820D01*
X146776554Y-84471292D01*
X146806847Y-84496153D01*
X146831708Y-84526446D01*
X146850180Y-84561005D01*
X146861555Y-84598501D01*
X146866000Y-84643638D01*
X146866000Y-85282362D01*
X146861555Y-85327499D01*
X146850180Y-85364995D01*
X146831708Y-85399554D01*
X146806847Y-85429847D01*
X146776554Y-85454708D01*
X146741995Y-85473180D01*
X146704499Y-85484555D01*
X146659362Y-85489000D01*
X145920638Y-85489000D01*
X145875501Y-85484555D01*
X145838005Y-85473180D01*
X145803446Y-85454708D01*
X145773153Y-85429847D01*
X145748292Y-85399554D01*
X145729820Y-85364995D01*
X145718445Y-85327499D01*
X145714000Y-85282362D01*
X145714000Y-84643638D01*
X145718445Y-84598501D01*
X145729820Y-84561005D01*
X145748292Y-84526446D01*
X145773153Y-84496153D01*
X145803446Y-84471292D01*
X145838005Y-84452820D01*
X145875501Y-84441445D01*
X145920638Y-84437000D01*
X146659362Y-84437000D01*
X146704499Y-84441445D01*
X146704499Y-84441445D01*
G37*
G36*
X144954499Y-84441445D02*
G01*
X144991995Y-84452820D01*
X145026554Y-84471292D01*
X145056847Y-84496153D01*
X145081708Y-84526446D01*
X145100180Y-84561005D01*
X145111555Y-84598501D01*
X145116000Y-84643638D01*
X145116000Y-85282362D01*
X145111555Y-85327499D01*
X145100180Y-85364995D01*
X145081708Y-85399554D01*
X145056847Y-85429847D01*
X145026554Y-85454708D01*
X144991995Y-85473180D01*
X144954499Y-85484555D01*
X144909362Y-85489000D01*
X144170638Y-85489000D01*
X144125501Y-85484555D01*
X144088005Y-85473180D01*
X144053446Y-85454708D01*
X144023153Y-85429847D01*
X143998292Y-85399554D01*
X143979820Y-85364995D01*
X143968445Y-85327499D01*
X143964000Y-85282362D01*
X143964000Y-84643638D01*
X143968445Y-84598501D01*
X143979820Y-84561005D01*
X143998292Y-84526446D01*
X144023153Y-84496153D01*
X144053446Y-84471292D01*
X144088005Y-84452820D01*
X144125501Y-84441445D01*
X144170638Y-84437000D01*
X144909362Y-84437000D01*
X144954499Y-84441445D01*
X144954499Y-84441445D01*
G37*
M02*
