G04 #@! TF.GenerationSoftware,KiCad,Pcbnew,(5.1.0)-1*
G04 #@! TF.CreationDate,2019-05-24T23:33:48-04:00*
G04 #@! TF.ProjectId,f-ramune_avr,662d7261-6d75-46e6-955f-6176722e6b69,rev?*
G04 #@! TF.SameCoordinates,Original*
G04 #@! TF.FileFunction,Legend,Bot*
G04 #@! TF.FilePolarity,Positive*
%FSLAX46Y46*%
G04 Gerber Fmt 4.6, Leading zero omitted, Abs format (unit mm)*
G04 Created by KiCad (PCBNEW (5.1.0)-1) date 2019-05-24 23:33:48*
%MOMM*%
%LPD*%
G04 APERTURE LIST*
%ADD10C,0.120000*%
%ADD11C,0.150000*%
%ADD12C,0.010000*%
G04 APERTURE END LIST*
D10*
X150114000Y-85344000D02*
X150114000Y-89281000D01*
X156464000Y-85344000D02*
X150114000Y-85344000D01*
X156464000Y-89281000D02*
X156464000Y-85344000D01*
X150114000Y-89281000D02*
X156464000Y-89281000D01*
D11*
X164224642Y-124484380D02*
X163986547Y-125484380D01*
X163796071Y-124770095D01*
X163605595Y-125484380D01*
X163367500Y-124484380D01*
X162557976Y-125484380D02*
X162557976Y-124960571D01*
X162605595Y-124865333D01*
X162700833Y-124817714D01*
X162891309Y-124817714D01*
X162986547Y-124865333D01*
X162557976Y-125436761D02*
X162653214Y-125484380D01*
X162891309Y-125484380D01*
X162986547Y-125436761D01*
X163034166Y-125341523D01*
X163034166Y-125246285D01*
X162986547Y-125151047D01*
X162891309Y-125103428D01*
X162653214Y-125103428D01*
X162557976Y-125055809D01*
X162081785Y-125484380D02*
X162081785Y-124817714D01*
X162081785Y-125008190D02*
X162034166Y-124912952D01*
X161986547Y-124865333D01*
X161891309Y-124817714D01*
X161796071Y-124817714D01*
X161462738Y-124817714D02*
X161462738Y-125484380D01*
X161462738Y-124912952D02*
X161415119Y-124865333D01*
X161319880Y-124817714D01*
X161177023Y-124817714D01*
X161081785Y-124865333D01*
X161034166Y-124960571D01*
X161034166Y-125484380D01*
X160557976Y-125484380D02*
X160557976Y-124817714D01*
X160557976Y-124484380D02*
X160605595Y-124532000D01*
X160557976Y-124579619D01*
X160510357Y-124532000D01*
X160557976Y-124484380D01*
X160557976Y-124579619D01*
X160081785Y-124817714D02*
X160081785Y-125484380D01*
X160081785Y-124912952D02*
X160034166Y-124865333D01*
X159938928Y-124817714D01*
X159796071Y-124817714D01*
X159700833Y-124865333D01*
X159653214Y-124960571D01*
X159653214Y-125484380D01*
X158748452Y-124817714D02*
X158748452Y-125627238D01*
X158796071Y-125722476D01*
X158843690Y-125770095D01*
X158938928Y-125817714D01*
X159081785Y-125817714D01*
X159177023Y-125770095D01*
X158748452Y-125436761D02*
X158843690Y-125484380D01*
X159034166Y-125484380D01*
X159129404Y-125436761D01*
X159177023Y-125389142D01*
X159224642Y-125293904D01*
X159224642Y-125008190D01*
X159177023Y-124912952D01*
X159129404Y-124865333D01*
X159034166Y-124817714D01*
X158843690Y-124817714D01*
X158748452Y-124865333D01*
X158272261Y-125389142D02*
X158224642Y-125436761D01*
X158272261Y-125484380D01*
X158319880Y-125436761D01*
X158272261Y-125389142D01*
X158272261Y-125484380D01*
X158272261Y-124865333D02*
X158224642Y-124912952D01*
X158272261Y-124960571D01*
X158319880Y-124912952D01*
X158272261Y-124865333D01*
X158272261Y-124960571D01*
X157034166Y-125484380D02*
X157034166Y-124484380D01*
X156796071Y-124484380D01*
X156653214Y-124532000D01*
X156557976Y-124627238D01*
X156510357Y-124722476D01*
X156462738Y-124912952D01*
X156462738Y-125055809D01*
X156510357Y-125246285D01*
X156557976Y-125341523D01*
X156653214Y-125436761D01*
X156796071Y-125484380D01*
X157034166Y-125484380D01*
X155891309Y-125484380D02*
X155986547Y-125436761D01*
X156034166Y-125389142D01*
X156081785Y-125293904D01*
X156081785Y-125008190D01*
X156034166Y-124912952D01*
X155986547Y-124865333D01*
X155891309Y-124817714D01*
X155748452Y-124817714D01*
X155653214Y-124865333D01*
X155605595Y-124912952D01*
X155557976Y-125008190D01*
X155557976Y-125293904D01*
X155605595Y-125389142D01*
X155653214Y-125436761D01*
X155748452Y-125484380D01*
X155891309Y-125484380D01*
X154367500Y-124817714D02*
X154367500Y-125484380D01*
X154367500Y-124912952D02*
X154319880Y-124865333D01*
X154224642Y-124817714D01*
X154081785Y-124817714D01*
X153986547Y-124865333D01*
X153938928Y-124960571D01*
X153938928Y-125484380D01*
X153319880Y-125484380D02*
X153415119Y-125436761D01*
X153462738Y-125389142D01*
X153510357Y-125293904D01*
X153510357Y-125008190D01*
X153462738Y-124912952D01*
X153415119Y-124865333D01*
X153319880Y-124817714D01*
X153177023Y-124817714D01*
X153081785Y-124865333D01*
X153034166Y-124912952D01*
X152986547Y-125008190D01*
X152986547Y-125293904D01*
X153034166Y-125389142D01*
X153081785Y-125436761D01*
X153177023Y-125484380D01*
X153319880Y-125484380D01*
X152700833Y-124817714D02*
X152319880Y-124817714D01*
X152557976Y-124484380D02*
X152557976Y-125341523D01*
X152510357Y-125436761D01*
X152415119Y-125484380D01*
X152319880Y-125484380D01*
X150796071Y-124817714D02*
X150796071Y-125484380D01*
X151224642Y-124817714D02*
X151224642Y-125341523D01*
X151177023Y-125436761D01*
X151081785Y-125484380D01*
X150938928Y-125484380D01*
X150843690Y-125436761D01*
X150796071Y-125389142D01*
X150367500Y-125436761D02*
X150272261Y-125484380D01*
X150081785Y-125484380D01*
X149986547Y-125436761D01*
X149938928Y-125341523D01*
X149938928Y-125293904D01*
X149986547Y-125198666D01*
X150081785Y-125151047D01*
X150224642Y-125151047D01*
X150319880Y-125103428D01*
X150367500Y-125008190D01*
X150367500Y-124960571D01*
X150319880Y-124865333D01*
X150224642Y-124817714D01*
X150081785Y-124817714D01*
X149986547Y-124865333D01*
X149129404Y-125436761D02*
X149224642Y-125484380D01*
X149415119Y-125484380D01*
X149510357Y-125436761D01*
X149557976Y-125341523D01*
X149557976Y-124960571D01*
X149510357Y-124865333D01*
X149415119Y-124817714D01*
X149224642Y-124817714D01*
X149129404Y-124865333D01*
X149081785Y-124960571D01*
X149081785Y-125055809D01*
X149557976Y-125151047D01*
X147891309Y-124484380D02*
X147891309Y-125293904D01*
X147843690Y-125389142D01*
X147796071Y-125436761D01*
X147700833Y-125484380D01*
X147510357Y-125484380D01*
X147415119Y-125436761D01*
X147367500Y-125389142D01*
X147319880Y-125293904D01*
X147319880Y-124484380D01*
X146891309Y-125436761D02*
X146748452Y-125484380D01*
X146510357Y-125484380D01*
X146415119Y-125436761D01*
X146367500Y-125389142D01*
X146319880Y-125293904D01*
X146319880Y-125198666D01*
X146367500Y-125103428D01*
X146415119Y-125055809D01*
X146510357Y-125008190D01*
X146700833Y-124960571D01*
X146796071Y-124912952D01*
X146843690Y-124865333D01*
X146891309Y-124770095D01*
X146891309Y-124674857D01*
X146843690Y-124579619D01*
X146796071Y-124532000D01*
X146700833Y-124484380D01*
X146462738Y-124484380D01*
X146319880Y-124532000D01*
X145557976Y-124960571D02*
X145415119Y-125008190D01*
X145367500Y-125055809D01*
X145319880Y-125151047D01*
X145319880Y-125293904D01*
X145367500Y-125389142D01*
X145415119Y-125436761D01*
X145510357Y-125484380D01*
X145891309Y-125484380D01*
X145891309Y-124484380D01*
X145557976Y-124484380D01*
X145462738Y-124532000D01*
X145415119Y-124579619D01*
X145367500Y-124674857D01*
X145367500Y-124770095D01*
X145415119Y-124865333D01*
X145462738Y-124912952D01*
X145557976Y-124960571D01*
X145891309Y-124960571D01*
X143700833Y-125484380D02*
X143700833Y-124960571D01*
X143748452Y-124865333D01*
X143843690Y-124817714D01*
X144034166Y-124817714D01*
X144129404Y-124865333D01*
X143700833Y-125436761D02*
X143796071Y-125484380D01*
X144034166Y-125484380D01*
X144129404Y-125436761D01*
X144177023Y-125341523D01*
X144177023Y-125246285D01*
X144129404Y-125151047D01*
X144034166Y-125103428D01*
X143796071Y-125103428D01*
X143700833Y-125055809D01*
X143224642Y-124817714D02*
X143224642Y-125484380D01*
X143224642Y-124912952D02*
X143177023Y-124865333D01*
X143081785Y-124817714D01*
X142938928Y-124817714D01*
X142843690Y-124865333D01*
X142796071Y-124960571D01*
X142796071Y-125484380D01*
X141891309Y-125484380D02*
X141891309Y-124484380D01*
X141891309Y-125436761D02*
X141986547Y-125484380D01*
X142177023Y-125484380D01*
X142272261Y-125436761D01*
X142319880Y-125389142D01*
X142367500Y-125293904D01*
X142367500Y-125008190D01*
X142319880Y-124912952D01*
X142272261Y-124865333D01*
X142177023Y-124817714D01*
X141986547Y-124817714D01*
X141891309Y-124865333D01*
X140653214Y-125484380D02*
X140653214Y-124484380D01*
X140224642Y-125436761D02*
X140081785Y-125484380D01*
X139843690Y-125484380D01*
X139748452Y-125436761D01*
X139700833Y-125389142D01*
X139653214Y-125293904D01*
X139653214Y-125198666D01*
X139700833Y-125103428D01*
X139748452Y-125055809D01*
X139843690Y-125008190D01*
X140034166Y-124960571D01*
X140129404Y-124912952D01*
X140177023Y-124865333D01*
X140224642Y-124770095D01*
X140224642Y-124674857D01*
X140177023Y-124579619D01*
X140129404Y-124532000D01*
X140034166Y-124484380D01*
X139796071Y-124484380D01*
X139653214Y-124532000D01*
X139224642Y-125484380D02*
X139224642Y-124484380D01*
X138843690Y-124484380D01*
X138748452Y-124532000D01*
X138700833Y-124579619D01*
X138653214Y-124674857D01*
X138653214Y-124817714D01*
X138700833Y-124912952D01*
X138748452Y-124960571D01*
X138843690Y-125008190D01*
X139224642Y-125008190D01*
X137462738Y-125484380D02*
X137462738Y-124484380D01*
X137034166Y-125484380D02*
X137034166Y-124960571D01*
X137081785Y-124865333D01*
X137177023Y-124817714D01*
X137319880Y-124817714D01*
X137415119Y-124865333D01*
X137462738Y-124912952D01*
X136177023Y-125436761D02*
X136272261Y-125484380D01*
X136462738Y-125484380D01*
X136557976Y-125436761D01*
X136605595Y-125341523D01*
X136605595Y-124960571D01*
X136557976Y-124865333D01*
X136462738Y-124817714D01*
X136272261Y-124817714D01*
X136177023Y-124865333D01*
X136129404Y-124960571D01*
X136129404Y-125055809D01*
X136605595Y-125151047D01*
X135272261Y-125484380D02*
X135272261Y-124960571D01*
X135319880Y-124865333D01*
X135415119Y-124817714D01*
X135605595Y-124817714D01*
X135700833Y-124865333D01*
X135272261Y-125436761D02*
X135367500Y-125484380D01*
X135605595Y-125484380D01*
X135700833Y-125436761D01*
X135748452Y-125341523D01*
X135748452Y-125246285D01*
X135700833Y-125151047D01*
X135605595Y-125103428D01*
X135367500Y-125103428D01*
X135272261Y-125055809D01*
X134367500Y-125484380D02*
X134367500Y-124484380D01*
X134367500Y-125436761D02*
X134462738Y-125484380D01*
X134653214Y-125484380D01*
X134748452Y-125436761D01*
X134796071Y-125389142D01*
X134843690Y-125293904D01*
X134843690Y-125008190D01*
X134796071Y-124912952D01*
X134748452Y-124865333D01*
X134653214Y-124817714D01*
X134462738Y-124817714D01*
X134367500Y-124865333D01*
X133510357Y-125436761D02*
X133605595Y-125484380D01*
X133796071Y-125484380D01*
X133891309Y-125436761D01*
X133938928Y-125341523D01*
X133938928Y-124960571D01*
X133891309Y-124865333D01*
X133796071Y-124817714D01*
X133605595Y-124817714D01*
X133510357Y-124865333D01*
X133462738Y-124960571D01*
X133462738Y-125055809D01*
X133938928Y-125151047D01*
X133034166Y-125484380D02*
X133034166Y-124817714D01*
X133034166Y-125008190D02*
X132986547Y-124912952D01*
X132938928Y-124865333D01*
X132843690Y-124817714D01*
X132748452Y-124817714D01*
X131700833Y-125436761D02*
X131605595Y-125484380D01*
X131415119Y-125484380D01*
X131319880Y-125436761D01*
X131272261Y-125341523D01*
X131272261Y-125293904D01*
X131319880Y-125198666D01*
X131415119Y-125151047D01*
X131557976Y-125151047D01*
X131653214Y-125103428D01*
X131700833Y-125008190D01*
X131700833Y-124960571D01*
X131653214Y-124865333D01*
X131557976Y-124817714D01*
X131415119Y-124817714D01*
X131319880Y-124865333D01*
X130843690Y-125484380D02*
X130843690Y-124817714D01*
X130843690Y-124484380D02*
X130891309Y-124532000D01*
X130843690Y-124579619D01*
X130796071Y-124532000D01*
X130843690Y-124484380D01*
X130843690Y-124579619D01*
X130367500Y-125484380D02*
X130367500Y-124817714D01*
X130367500Y-124912952D02*
X130319880Y-124865333D01*
X130224642Y-124817714D01*
X130081785Y-124817714D01*
X129986547Y-124865333D01*
X129938928Y-124960571D01*
X129938928Y-125484380D01*
X129938928Y-124960571D02*
X129891309Y-124865333D01*
X129796071Y-124817714D01*
X129653214Y-124817714D01*
X129557976Y-124865333D01*
X129510357Y-124960571D01*
X129510357Y-125484380D01*
X128605595Y-124817714D02*
X128605595Y-125484380D01*
X129034166Y-124817714D02*
X129034166Y-125341523D01*
X128986547Y-125436761D01*
X128891309Y-125484380D01*
X128748452Y-125484380D01*
X128653214Y-125436761D01*
X128605595Y-125389142D01*
X127986547Y-125484380D02*
X128081785Y-125436761D01*
X128129404Y-125341523D01*
X128129404Y-124484380D01*
X127748452Y-124817714D02*
X127367500Y-124817714D01*
X127605595Y-124484380D02*
X127605595Y-125341523D01*
X127557976Y-125436761D01*
X127462738Y-125484380D01*
X127367500Y-125484380D01*
X126605595Y-125484380D02*
X126605595Y-124960571D01*
X126653214Y-124865333D01*
X126748452Y-124817714D01*
X126938928Y-124817714D01*
X127034166Y-124865333D01*
X126605595Y-125436761D02*
X126700833Y-125484380D01*
X126938928Y-125484380D01*
X127034166Y-125436761D01*
X127081785Y-125341523D01*
X127081785Y-125246285D01*
X127034166Y-125151047D01*
X126938928Y-125103428D01*
X126700833Y-125103428D01*
X126605595Y-125055809D01*
X126129404Y-124817714D02*
X126129404Y-125484380D01*
X126129404Y-124912952D02*
X126081785Y-124865333D01*
X125986547Y-124817714D01*
X125843690Y-124817714D01*
X125748452Y-124865333D01*
X125700833Y-124960571D01*
X125700833Y-125484380D01*
X124843690Y-125436761D02*
X124938928Y-125484380D01*
X125129404Y-125484380D01*
X125224642Y-125436761D01*
X125272261Y-125341523D01*
X125272261Y-124960571D01*
X125224642Y-124865333D01*
X125129404Y-124817714D01*
X124938928Y-124817714D01*
X124843690Y-124865333D01*
X124796071Y-124960571D01*
X124796071Y-125055809D01*
X125272261Y-125151047D01*
X124224642Y-125484380D02*
X124319880Y-125436761D01*
X124367500Y-125389142D01*
X124415119Y-125293904D01*
X124415119Y-125008190D01*
X124367500Y-124912952D01*
X124319880Y-124865333D01*
X124224642Y-124817714D01*
X124081785Y-124817714D01*
X123986547Y-124865333D01*
X123938928Y-124912952D01*
X123891309Y-125008190D01*
X123891309Y-125293904D01*
X123938928Y-125389142D01*
X123986547Y-125436761D01*
X124081785Y-125484380D01*
X124224642Y-125484380D01*
X123034166Y-124817714D02*
X123034166Y-125484380D01*
X123462738Y-124817714D02*
X123462738Y-125341523D01*
X123415119Y-125436761D01*
X123319880Y-125484380D01*
X123177023Y-125484380D01*
X123081785Y-125436761D01*
X123034166Y-125389142D01*
X122605595Y-125436761D02*
X122510357Y-125484380D01*
X122319880Y-125484380D01*
X122224642Y-125436761D01*
X122177023Y-125341523D01*
X122177023Y-125293904D01*
X122224642Y-125198666D01*
X122319880Y-125151047D01*
X122462738Y-125151047D01*
X122557976Y-125103428D01*
X122605595Y-125008190D01*
X122605595Y-124960571D01*
X122557976Y-124865333D01*
X122462738Y-124817714D01*
X122319880Y-124817714D01*
X122224642Y-124865333D01*
X121605595Y-125484380D02*
X121700833Y-125436761D01*
X121748452Y-125341523D01*
X121748452Y-124484380D01*
X121319880Y-124817714D02*
X121081785Y-125484380D01*
X120843690Y-124817714D02*
X121081785Y-125484380D01*
X121177023Y-125722476D01*
X121224642Y-125770095D01*
X121319880Y-125817714D01*
X120462738Y-125389142D02*
X120415119Y-125436761D01*
X120462738Y-125484380D01*
X120510357Y-125436761D01*
X120462738Y-125389142D01*
X120462738Y-125484380D01*
X120462738Y-125103428D02*
X120510357Y-124532000D01*
X120462738Y-124484380D01*
X120415119Y-124532000D01*
X120462738Y-125103428D01*
X120462738Y-124484380D01*
X164129404Y-127134380D02*
X164129404Y-126134380D01*
X163748452Y-126134380D01*
X163653214Y-126182000D01*
X163605595Y-126229619D01*
X163557976Y-126324857D01*
X163557976Y-126467714D01*
X163605595Y-126562952D01*
X163653214Y-126610571D01*
X163748452Y-126658190D01*
X164129404Y-126658190D01*
X162748452Y-127086761D02*
X162843690Y-127134380D01*
X163034166Y-127134380D01*
X163129404Y-127086761D01*
X163177023Y-126991523D01*
X163177023Y-126610571D01*
X163129404Y-126515333D01*
X163034166Y-126467714D01*
X162843690Y-126467714D01*
X162748452Y-126515333D01*
X162700833Y-126610571D01*
X162700833Y-126705809D01*
X163177023Y-126801047D01*
X162272261Y-127134380D02*
X162272261Y-126467714D01*
X162272261Y-126658190D02*
X162224642Y-126562952D01*
X162177023Y-126515333D01*
X162081785Y-126467714D01*
X161986547Y-126467714D01*
X161653214Y-127134380D02*
X161653214Y-126467714D01*
X161653214Y-126562952D02*
X161605595Y-126515333D01*
X161510357Y-126467714D01*
X161367500Y-126467714D01*
X161272261Y-126515333D01*
X161224642Y-126610571D01*
X161224642Y-127134380D01*
X161224642Y-126610571D02*
X161177023Y-126515333D01*
X161081785Y-126467714D01*
X160938928Y-126467714D01*
X160843690Y-126515333D01*
X160796071Y-126610571D01*
X160796071Y-127134380D01*
X159938928Y-127086761D02*
X160034166Y-127134380D01*
X160224642Y-127134380D01*
X160319880Y-127086761D01*
X160367500Y-126991523D01*
X160367500Y-126610571D01*
X160319880Y-126515333D01*
X160224642Y-126467714D01*
X160034166Y-126467714D01*
X159938928Y-126515333D01*
X159891309Y-126610571D01*
X159891309Y-126705809D01*
X160367500Y-126801047D01*
X159462738Y-126467714D02*
X159462738Y-127134380D01*
X159462738Y-126562952D02*
X159415119Y-126515333D01*
X159319880Y-126467714D01*
X159177023Y-126467714D01*
X159081785Y-126515333D01*
X159034166Y-126610571D01*
X159034166Y-127134380D01*
X158129404Y-127134380D02*
X158129404Y-126610571D01*
X158177023Y-126515333D01*
X158272261Y-126467714D01*
X158462738Y-126467714D01*
X158557976Y-126515333D01*
X158129404Y-127086761D02*
X158224642Y-127134380D01*
X158462738Y-127134380D01*
X158557976Y-127086761D01*
X158605595Y-126991523D01*
X158605595Y-126896285D01*
X158557976Y-126801047D01*
X158462738Y-126753428D01*
X158224642Y-126753428D01*
X158129404Y-126705809D01*
X157653214Y-126467714D02*
X157653214Y-127134380D01*
X157653214Y-126562952D02*
X157605595Y-126515333D01*
X157510357Y-126467714D01*
X157367500Y-126467714D01*
X157272261Y-126515333D01*
X157224642Y-126610571D01*
X157224642Y-127134380D01*
X156891309Y-126467714D02*
X156510357Y-126467714D01*
X156748452Y-126134380D02*
X156748452Y-126991523D01*
X156700833Y-127086761D01*
X156605595Y-127134380D01*
X156510357Y-127134380D01*
X154986547Y-127134380D02*
X154986547Y-126134380D01*
X154986547Y-127086761D02*
X155081785Y-127134380D01*
X155272261Y-127134380D01*
X155367500Y-127086761D01*
X155415119Y-127039142D01*
X155462738Y-126943904D01*
X155462738Y-126658190D01*
X155415119Y-126562952D01*
X155367500Y-126515333D01*
X155272261Y-126467714D01*
X155081785Y-126467714D01*
X154986547Y-126515333D01*
X154081785Y-127134380D02*
X154081785Y-126610571D01*
X154129404Y-126515333D01*
X154224642Y-126467714D01*
X154415119Y-126467714D01*
X154510357Y-126515333D01*
X154081785Y-127086761D02*
X154177023Y-127134380D01*
X154415119Y-127134380D01*
X154510357Y-127086761D01*
X154557976Y-126991523D01*
X154557976Y-126896285D01*
X154510357Y-126801047D01*
X154415119Y-126753428D01*
X154177023Y-126753428D01*
X154081785Y-126705809D01*
X153605595Y-127134380D02*
X153605595Y-126467714D01*
X153605595Y-126562952D02*
X153557976Y-126515333D01*
X153462738Y-126467714D01*
X153319880Y-126467714D01*
X153224642Y-126515333D01*
X153177023Y-126610571D01*
X153177023Y-127134380D01*
X153177023Y-126610571D02*
X153129404Y-126515333D01*
X153034166Y-126467714D01*
X152891309Y-126467714D01*
X152796071Y-126515333D01*
X152748452Y-126610571D01*
X152748452Y-127134380D01*
X151843690Y-127134380D02*
X151843690Y-126610571D01*
X151891309Y-126515333D01*
X151986547Y-126467714D01*
X152177023Y-126467714D01*
X152272261Y-126515333D01*
X151843690Y-127086761D02*
X151938928Y-127134380D01*
X152177023Y-127134380D01*
X152272261Y-127086761D01*
X152319880Y-126991523D01*
X152319880Y-126896285D01*
X152272261Y-126801047D01*
X152177023Y-126753428D01*
X151938928Y-126753428D01*
X151843690Y-126705809D01*
X150938928Y-126467714D02*
X150938928Y-127277238D01*
X150986547Y-127372476D01*
X151034166Y-127420095D01*
X151129404Y-127467714D01*
X151272261Y-127467714D01*
X151367500Y-127420095D01*
X150938928Y-127086761D02*
X151034166Y-127134380D01*
X151224642Y-127134380D01*
X151319880Y-127086761D01*
X151367500Y-127039142D01*
X151415119Y-126943904D01*
X151415119Y-126658190D01*
X151367500Y-126562952D01*
X151319880Y-126515333D01*
X151224642Y-126467714D01*
X151034166Y-126467714D01*
X150938928Y-126515333D01*
X150081785Y-127086761D02*
X150177023Y-127134380D01*
X150367500Y-127134380D01*
X150462738Y-127086761D01*
X150510357Y-126991523D01*
X150510357Y-126610571D01*
X150462738Y-126515333D01*
X150367500Y-126467714D01*
X150177023Y-126467714D01*
X150081785Y-126515333D01*
X150034166Y-126610571D01*
X150034166Y-126705809D01*
X150510357Y-126801047D01*
X148986547Y-126467714D02*
X148605595Y-126467714D01*
X148843690Y-126134380D02*
X148843690Y-126991523D01*
X148796071Y-127086761D01*
X148700833Y-127134380D01*
X148605595Y-127134380D01*
X148129404Y-127134380D02*
X148224642Y-127086761D01*
X148272261Y-127039142D01*
X148319880Y-126943904D01*
X148319880Y-126658190D01*
X148272261Y-126562952D01*
X148224642Y-126515333D01*
X148129404Y-126467714D01*
X147986547Y-126467714D01*
X147891309Y-126515333D01*
X147843690Y-126562952D01*
X147796071Y-126658190D01*
X147796071Y-126943904D01*
X147843690Y-127039142D01*
X147891309Y-127086761D01*
X147986547Y-127134380D01*
X148129404Y-127134380D01*
X146700833Y-126467714D02*
X146462738Y-127134380D01*
X146224642Y-126467714D02*
X146462738Y-127134380D01*
X146557976Y-127372476D01*
X146605595Y-127420095D01*
X146700833Y-127467714D01*
X145700833Y-127134380D02*
X145796071Y-127086761D01*
X145843690Y-127039142D01*
X145891309Y-126943904D01*
X145891309Y-126658190D01*
X145843690Y-126562952D01*
X145796071Y-126515333D01*
X145700833Y-126467714D01*
X145557976Y-126467714D01*
X145462738Y-126515333D01*
X145415119Y-126562952D01*
X145367500Y-126658190D01*
X145367500Y-126943904D01*
X145415119Y-127039142D01*
X145462738Y-127086761D01*
X145557976Y-127134380D01*
X145700833Y-127134380D01*
X144510357Y-126467714D02*
X144510357Y-127134380D01*
X144938928Y-126467714D02*
X144938928Y-126991523D01*
X144891309Y-127086761D01*
X144796071Y-127134380D01*
X144653214Y-127134380D01*
X144557976Y-127086761D01*
X144510357Y-127039142D01*
X144034166Y-127134380D02*
X144034166Y-126467714D01*
X144034166Y-126658190D02*
X143986547Y-126562952D01*
X143938928Y-126515333D01*
X143843690Y-126467714D01*
X143748452Y-126467714D01*
X142653214Y-126467714D02*
X142653214Y-127467714D01*
X142653214Y-126515333D02*
X142557976Y-126467714D01*
X142367500Y-126467714D01*
X142272261Y-126515333D01*
X142224642Y-126562952D01*
X142177023Y-126658190D01*
X142177023Y-126943904D01*
X142224642Y-127039142D01*
X142272261Y-127086761D01*
X142367500Y-127134380D01*
X142557976Y-127134380D01*
X142653214Y-127086761D01*
X141748452Y-127134380D02*
X141748452Y-126467714D01*
X141748452Y-126658190D02*
X141700833Y-126562952D01*
X141653214Y-126515333D01*
X141557976Y-126467714D01*
X141462738Y-126467714D01*
X140986547Y-127134380D02*
X141081785Y-127086761D01*
X141129404Y-127039142D01*
X141177023Y-126943904D01*
X141177023Y-126658190D01*
X141129404Y-126562952D01*
X141081785Y-126515333D01*
X140986547Y-126467714D01*
X140843690Y-126467714D01*
X140748452Y-126515333D01*
X140700833Y-126562952D01*
X140653214Y-126658190D01*
X140653214Y-126943904D01*
X140700833Y-127039142D01*
X140748452Y-127086761D01*
X140843690Y-127134380D01*
X140986547Y-127134380D01*
X139796071Y-126467714D02*
X139796071Y-127277238D01*
X139843690Y-127372476D01*
X139891309Y-127420095D01*
X139986547Y-127467714D01*
X140129404Y-127467714D01*
X140224642Y-127420095D01*
X139796071Y-127086761D02*
X139891309Y-127134380D01*
X140081785Y-127134380D01*
X140177023Y-127086761D01*
X140224642Y-127039142D01*
X140272261Y-126943904D01*
X140272261Y-126658190D01*
X140224642Y-126562952D01*
X140177023Y-126515333D01*
X140081785Y-126467714D01*
X139891309Y-126467714D01*
X139796071Y-126515333D01*
X139319880Y-127134380D02*
X139319880Y-126467714D01*
X139319880Y-126658190D02*
X139272261Y-126562952D01*
X139224642Y-126515333D01*
X139129404Y-126467714D01*
X139034166Y-126467714D01*
X138272261Y-127134380D02*
X138272261Y-126610571D01*
X138319880Y-126515333D01*
X138415119Y-126467714D01*
X138605595Y-126467714D01*
X138700833Y-126515333D01*
X138272261Y-127086761D02*
X138367500Y-127134380D01*
X138605595Y-127134380D01*
X138700833Y-127086761D01*
X138748452Y-126991523D01*
X138748452Y-126896285D01*
X138700833Y-126801047D01*
X138605595Y-126753428D01*
X138367500Y-126753428D01*
X138272261Y-126705809D01*
X137796071Y-127134380D02*
X137796071Y-126467714D01*
X137796071Y-126562952D02*
X137748452Y-126515333D01*
X137653214Y-126467714D01*
X137510357Y-126467714D01*
X137415119Y-126515333D01*
X137367500Y-126610571D01*
X137367500Y-127134380D01*
X137367500Y-126610571D02*
X137319880Y-126515333D01*
X137224642Y-126467714D01*
X137081785Y-126467714D01*
X136986547Y-126515333D01*
X136938928Y-126610571D01*
X136938928Y-127134380D01*
X136462738Y-127134380D02*
X136462738Y-126467714D01*
X136462738Y-126562952D02*
X136415119Y-126515333D01*
X136319880Y-126467714D01*
X136177023Y-126467714D01*
X136081785Y-126515333D01*
X136034166Y-126610571D01*
X136034166Y-127134380D01*
X136034166Y-126610571D02*
X135986547Y-126515333D01*
X135891309Y-126467714D01*
X135748452Y-126467714D01*
X135653214Y-126515333D01*
X135605595Y-126610571D01*
X135605595Y-127134380D01*
X134748452Y-127086761D02*
X134843690Y-127134380D01*
X135034166Y-127134380D01*
X135129404Y-127086761D01*
X135177023Y-126991523D01*
X135177023Y-126610571D01*
X135129404Y-126515333D01*
X135034166Y-126467714D01*
X134843690Y-126467714D01*
X134748452Y-126515333D01*
X134700833Y-126610571D01*
X134700833Y-126705809D01*
X135177023Y-126801047D01*
X134272261Y-127134380D02*
X134272261Y-126467714D01*
X134272261Y-126658190D02*
X134224642Y-126562952D01*
X134177023Y-126515333D01*
X134081785Y-126467714D01*
X133986547Y-126467714D01*
X133605595Y-127086761D02*
X133605595Y-127134380D01*
X133653214Y-127229619D01*
X133700833Y-127277238D01*
X132415119Y-127134380D02*
X132415119Y-126134380D01*
X132034166Y-126134380D01*
X131938928Y-126182000D01*
X131891309Y-126229619D01*
X131843690Y-126324857D01*
X131843690Y-126467714D01*
X131891309Y-126562952D01*
X131938928Y-126610571D01*
X132034166Y-126658190D01*
X132415119Y-126658190D01*
X130843690Y-127039142D02*
X130891309Y-127086761D01*
X131034166Y-127134380D01*
X131129404Y-127134380D01*
X131272261Y-127086761D01*
X131367500Y-126991523D01*
X131415119Y-126896285D01*
X131462738Y-126705809D01*
X131462738Y-126562952D01*
X131415119Y-126372476D01*
X131367500Y-126277238D01*
X131272261Y-126182000D01*
X131129404Y-126134380D01*
X131034166Y-126134380D01*
X130891309Y-126182000D01*
X130843690Y-126229619D01*
X130367500Y-127086761D02*
X130367500Y-127134380D01*
X130415119Y-127229619D01*
X130462738Y-127277238D01*
X129034166Y-127134380D02*
X129129404Y-127086761D01*
X129177023Y-127039142D01*
X129224642Y-126943904D01*
X129224642Y-126658190D01*
X129177023Y-126562952D01*
X129129404Y-126515333D01*
X129034166Y-126467714D01*
X128891309Y-126467714D01*
X128796071Y-126515333D01*
X128748452Y-126562952D01*
X128700833Y-126658190D01*
X128700833Y-126943904D01*
X128748452Y-127039142D01*
X128796071Y-127086761D01*
X128891309Y-127134380D01*
X129034166Y-127134380D01*
X128272261Y-127134380D02*
X128272261Y-126467714D01*
X128272261Y-126658190D02*
X128224642Y-126562952D01*
X128177023Y-126515333D01*
X128081785Y-126467714D01*
X127986547Y-126467714D01*
X126891309Y-127134380D02*
X126891309Y-126134380D01*
X126891309Y-126515333D02*
X126796071Y-126467714D01*
X126605595Y-126467714D01*
X126510357Y-126515333D01*
X126462738Y-126562952D01*
X126415119Y-126658190D01*
X126415119Y-126943904D01*
X126462738Y-127039142D01*
X126510357Y-127086761D01*
X126605595Y-127134380D01*
X126796071Y-127134380D01*
X126891309Y-127086761D01*
X125843690Y-127134380D02*
X125938928Y-127086761D01*
X125986547Y-127039142D01*
X126034166Y-126943904D01*
X126034166Y-126658190D01*
X125986547Y-126562952D01*
X125938928Y-126515333D01*
X125843690Y-126467714D01*
X125700833Y-126467714D01*
X125605595Y-126515333D01*
X125557976Y-126562952D01*
X125510357Y-126658190D01*
X125510357Y-126943904D01*
X125557976Y-127039142D01*
X125605595Y-127086761D01*
X125700833Y-127134380D01*
X125843690Y-127134380D01*
X125224642Y-126467714D02*
X124843690Y-126467714D01*
X125081785Y-126134380D02*
X125081785Y-126991523D01*
X125034166Y-127086761D01*
X124938928Y-127134380D01*
X124843690Y-127134380D01*
X124510357Y-127134380D02*
X124510357Y-126134380D01*
X124081785Y-127134380D02*
X124081785Y-126610571D01*
X124129404Y-126515333D01*
X124224642Y-126467714D01*
X124367500Y-126467714D01*
X124462738Y-126515333D01*
X124510357Y-126562952D01*
X122938928Y-126467714D02*
X122748452Y-127134380D01*
X122557976Y-126658190D01*
X122367500Y-127134380D01*
X122177023Y-126467714D01*
X121796071Y-127134380D02*
X121796071Y-126467714D01*
X121796071Y-126134380D02*
X121843690Y-126182000D01*
X121796071Y-126229619D01*
X121748452Y-126182000D01*
X121796071Y-126134380D01*
X121796071Y-126229619D01*
X121177023Y-127134380D02*
X121272261Y-127086761D01*
X121319880Y-126991523D01*
X121319880Y-126134380D01*
X120653214Y-127134380D02*
X120748452Y-127086761D01*
X120796071Y-126991523D01*
X120796071Y-126134380D01*
X119510357Y-127134380D02*
X119510357Y-126467714D01*
X119510357Y-126658190D02*
X119462738Y-126562952D01*
X119415119Y-126515333D01*
X119319880Y-126467714D01*
X119224642Y-126467714D01*
X118510357Y-127086761D02*
X118605595Y-127134380D01*
X118796071Y-127134380D01*
X118891309Y-127086761D01*
X118938928Y-126991523D01*
X118938928Y-126610571D01*
X118891309Y-126515333D01*
X118796071Y-126467714D01*
X118605595Y-126467714D01*
X118510357Y-126515333D01*
X118462738Y-126610571D01*
X118462738Y-126705809D01*
X118938928Y-126801047D01*
X118081785Y-127086761D02*
X117986547Y-127134380D01*
X117796071Y-127134380D01*
X117700833Y-127086761D01*
X117653214Y-126991523D01*
X117653214Y-126943904D01*
X117700833Y-126848666D01*
X117796071Y-126801047D01*
X117938928Y-126801047D01*
X118034166Y-126753428D01*
X118081785Y-126658190D01*
X118081785Y-126610571D01*
X118034166Y-126515333D01*
X117938928Y-126467714D01*
X117796071Y-126467714D01*
X117700833Y-126515333D01*
X116796071Y-126467714D02*
X116796071Y-127134380D01*
X117224642Y-126467714D02*
X117224642Y-126991523D01*
X117177023Y-127086761D01*
X117081785Y-127134380D01*
X116938928Y-127134380D01*
X116843690Y-127086761D01*
X116796071Y-127039142D01*
X116177023Y-127134380D02*
X116272261Y-127086761D01*
X116319880Y-126991523D01*
X116319880Y-126134380D01*
X115938928Y-126467714D02*
X115557976Y-126467714D01*
X115796071Y-126134380D02*
X115796071Y-126991523D01*
X115748452Y-127086761D01*
X115653214Y-127134380D01*
X115557976Y-127134380D01*
X115224642Y-127039142D02*
X115177023Y-127086761D01*
X115224642Y-127134380D01*
X115272261Y-127086761D01*
X115224642Y-127039142D01*
X115224642Y-127134380D01*
X159859071Y-96007571D02*
X160192404Y-96007571D01*
X160192404Y-96531380D02*
X160192404Y-95531380D01*
X159716214Y-95531380D01*
X159335261Y-96150428D02*
X158573357Y-96150428D01*
X157525738Y-96531380D02*
X157859071Y-96055190D01*
X158097166Y-96531380D02*
X158097166Y-95531380D01*
X157716214Y-95531380D01*
X157620976Y-95579000D01*
X157573357Y-95626619D01*
X157525738Y-95721857D01*
X157525738Y-95864714D01*
X157573357Y-95959952D01*
X157620976Y-96007571D01*
X157716214Y-96055190D01*
X158097166Y-96055190D01*
X156668595Y-96531380D02*
X156668595Y-96007571D01*
X156716214Y-95912333D01*
X156811452Y-95864714D01*
X157001928Y-95864714D01*
X157097166Y-95912333D01*
X156668595Y-96483761D02*
X156763833Y-96531380D01*
X157001928Y-96531380D01*
X157097166Y-96483761D01*
X157144785Y-96388523D01*
X157144785Y-96293285D01*
X157097166Y-96198047D01*
X157001928Y-96150428D01*
X156763833Y-96150428D01*
X156668595Y-96102809D01*
X156192404Y-96531380D02*
X156192404Y-95864714D01*
X156192404Y-95959952D02*
X156144785Y-95912333D01*
X156049547Y-95864714D01*
X155906690Y-95864714D01*
X155811452Y-95912333D01*
X155763833Y-96007571D01*
X155763833Y-96531380D01*
X155763833Y-96007571D02*
X155716214Y-95912333D01*
X155620976Y-95864714D01*
X155478119Y-95864714D01*
X155382880Y-95912333D01*
X155335261Y-96007571D01*
X155335261Y-96531380D01*
X154430500Y-95864714D02*
X154430500Y-96531380D01*
X154859071Y-95864714D02*
X154859071Y-96388523D01*
X154811452Y-96483761D01*
X154716214Y-96531380D01*
X154573357Y-96531380D01*
X154478119Y-96483761D01*
X154430500Y-96436142D01*
X153954309Y-95864714D02*
X153954309Y-96531380D01*
X153954309Y-95959952D02*
X153906690Y-95912333D01*
X153811452Y-95864714D01*
X153668595Y-95864714D01*
X153573357Y-95912333D01*
X153525738Y-96007571D01*
X153525738Y-96531380D01*
X152668595Y-96483761D02*
X152763833Y-96531380D01*
X152954309Y-96531380D01*
X153049547Y-96483761D01*
X153097166Y-96388523D01*
X153097166Y-96007571D01*
X153049547Y-95912333D01*
X152954309Y-95864714D01*
X152763833Y-95864714D01*
X152668595Y-95912333D01*
X152620976Y-96007571D01*
X152620976Y-96102809D01*
X153097166Y-96198047D01*
X150906690Y-96531380D02*
X151478119Y-96531380D01*
X151192404Y-96531380D02*
X151192404Y-95531380D01*
X151287642Y-95674238D01*
X151382880Y-95769476D01*
X151478119Y-95817095D01*
X150478119Y-96436142D02*
X150430500Y-96483761D01*
X150478119Y-96531380D01*
X150525738Y-96483761D01*
X150478119Y-96436142D01*
X150478119Y-96531380D01*
X149811452Y-95531380D02*
X149716214Y-95531380D01*
X149620976Y-95579000D01*
X149573357Y-95626619D01*
X149525738Y-95721857D01*
X149478119Y-95912333D01*
X149478119Y-96150428D01*
X149525738Y-96340904D01*
X149573357Y-96436142D01*
X149620976Y-96483761D01*
X149716214Y-96531380D01*
X149811452Y-96531380D01*
X149906690Y-96483761D01*
X149954309Y-96436142D01*
X150001928Y-96340904D01*
X150049547Y-96150428D01*
X150049547Y-95912333D01*
X150001928Y-95721857D01*
X149954309Y-95626619D01*
X149906690Y-95579000D01*
X149811452Y-95531380D01*
X147478119Y-95769476D02*
X147573357Y-95721857D01*
X147763833Y-95721857D01*
X147859071Y-95769476D01*
X147954309Y-95864714D01*
X148001928Y-95959952D01*
X148001928Y-96150428D01*
X147954309Y-96245666D01*
X147859071Y-96340904D01*
X147763833Y-96388523D01*
X147573357Y-96388523D01*
X147478119Y-96340904D01*
X147668595Y-95388523D02*
X147906690Y-95436142D01*
X148144785Y-95579000D01*
X148287642Y-95817095D01*
X148335261Y-96055190D01*
X148287642Y-96293285D01*
X148144785Y-96531380D01*
X147906690Y-96674238D01*
X147668595Y-96721857D01*
X147430500Y-96674238D01*
X147192404Y-96531380D01*
X147049547Y-96293285D01*
X147001928Y-96055190D01*
X147049547Y-95817095D01*
X147192404Y-95579000D01*
X147430500Y-95436142D01*
X147668595Y-95388523D01*
X146620976Y-95626619D02*
X146573357Y-95579000D01*
X146478119Y-95531380D01*
X146240023Y-95531380D01*
X146144785Y-95579000D01*
X146097166Y-95626619D01*
X146049547Y-95721857D01*
X146049547Y-95817095D01*
X146097166Y-95959952D01*
X146668595Y-96531380D01*
X146049547Y-96531380D01*
X145430500Y-95531380D02*
X145335261Y-95531380D01*
X145240023Y-95579000D01*
X145192404Y-95626619D01*
X145144785Y-95721857D01*
X145097166Y-95912333D01*
X145097166Y-96150428D01*
X145144785Y-96340904D01*
X145192404Y-96436142D01*
X145240023Y-96483761D01*
X145335261Y-96531380D01*
X145430500Y-96531380D01*
X145525738Y-96483761D01*
X145573357Y-96436142D01*
X145620976Y-96340904D01*
X145668595Y-96150428D01*
X145668595Y-95912333D01*
X145620976Y-95721857D01*
X145573357Y-95626619D01*
X145525738Y-95579000D01*
X145430500Y-95531380D01*
X144144785Y-96531380D02*
X144716214Y-96531380D01*
X144430500Y-96531380D02*
X144430500Y-95531380D01*
X144525738Y-95674238D01*
X144620976Y-95769476D01*
X144716214Y-95817095D01*
X143668595Y-96531380D02*
X143478119Y-96531380D01*
X143382880Y-96483761D01*
X143335261Y-96436142D01*
X143240023Y-96293285D01*
X143192404Y-96102809D01*
X143192404Y-95721857D01*
X143240023Y-95626619D01*
X143287642Y-95579000D01*
X143382880Y-95531380D01*
X143573357Y-95531380D01*
X143668595Y-95579000D01*
X143716214Y-95626619D01*
X143763833Y-95721857D01*
X143763833Y-95959952D01*
X143716214Y-96055190D01*
X143668595Y-96102809D01*
X143573357Y-96150428D01*
X143382880Y-96150428D01*
X143287642Y-96102809D01*
X143240023Y-96055190D01*
X143192404Y-95959952D01*
X141859071Y-96531380D02*
X141954309Y-96483761D01*
X142001928Y-96436142D01*
X142049547Y-96340904D01*
X142049547Y-96055190D01*
X142001928Y-95959952D01*
X141954309Y-95912333D01*
X141859071Y-95864714D01*
X141716214Y-95864714D01*
X141620976Y-95912333D01*
X141573357Y-95959952D01*
X141525738Y-96055190D01*
X141525738Y-96340904D01*
X141573357Y-96436142D01*
X141620976Y-96483761D01*
X141716214Y-96531380D01*
X141859071Y-96531380D01*
X141097166Y-96531380D02*
X141097166Y-95531380D01*
X141097166Y-95912333D02*
X141001928Y-95864714D01*
X140811452Y-95864714D01*
X140716214Y-95912333D01*
X140668595Y-95959952D01*
X140620976Y-96055190D01*
X140620976Y-96340904D01*
X140668595Y-96436142D01*
X140716214Y-96483761D01*
X140811452Y-96531380D01*
X141001928Y-96531380D01*
X141097166Y-96483761D01*
X140240023Y-96483761D02*
X140144785Y-96531380D01*
X139954309Y-96531380D01*
X139859071Y-96483761D01*
X139811452Y-96388523D01*
X139811452Y-96340904D01*
X139859071Y-96245666D01*
X139954309Y-96198047D01*
X140097166Y-96198047D01*
X140192404Y-96150428D01*
X140240023Y-96055190D01*
X140240023Y-96007571D01*
X140192404Y-95912333D01*
X140097166Y-95864714D01*
X139954309Y-95864714D01*
X139859071Y-95912333D01*
X139382880Y-96531380D02*
X139382880Y-95531380D01*
X139287642Y-96150428D02*
X139001928Y-96531380D01*
X139001928Y-95864714D02*
X139382880Y-96245666D01*
X138668595Y-95864714D02*
X138430500Y-96531380D01*
X138192404Y-95864714D02*
X138430500Y-96531380D01*
X138525738Y-96769476D01*
X138573357Y-96817095D01*
X138668595Y-96864714D01*
X137811452Y-96531380D02*
X137811452Y-95864714D01*
X137811452Y-96055190D02*
X137763833Y-95959952D01*
X137716214Y-95912333D01*
X137620976Y-95864714D01*
X137525738Y-95864714D01*
X160192404Y-98181380D02*
X160192404Y-97181380D01*
X159954309Y-97181380D01*
X159811452Y-97229000D01*
X159716214Y-97324238D01*
X159668595Y-97419476D01*
X159620976Y-97609952D01*
X159620976Y-97752809D01*
X159668595Y-97943285D01*
X159716214Y-98038523D01*
X159811452Y-98133761D01*
X159954309Y-98181380D01*
X160192404Y-98181380D01*
X158811452Y-98133761D02*
X158906690Y-98181380D01*
X159097166Y-98181380D01*
X159192404Y-98133761D01*
X159240023Y-98038523D01*
X159240023Y-97657571D01*
X159192404Y-97562333D01*
X159097166Y-97514714D01*
X158906690Y-97514714D01*
X158811452Y-97562333D01*
X158763833Y-97657571D01*
X158763833Y-97752809D01*
X159240023Y-97848047D01*
X158382880Y-98133761D02*
X158287642Y-98181380D01*
X158097166Y-98181380D01*
X158001928Y-98133761D01*
X157954309Y-98038523D01*
X157954309Y-97990904D01*
X158001928Y-97895666D01*
X158097166Y-97848047D01*
X158240023Y-97848047D01*
X158335261Y-97800428D01*
X158382880Y-97705190D01*
X158382880Y-97657571D01*
X158335261Y-97562333D01*
X158240023Y-97514714D01*
X158097166Y-97514714D01*
X158001928Y-97562333D01*
X157525738Y-98181380D02*
X157525738Y-97514714D01*
X157525738Y-97181380D02*
X157573357Y-97229000D01*
X157525738Y-97276619D01*
X157478119Y-97229000D01*
X157525738Y-97181380D01*
X157525738Y-97276619D01*
X156620976Y-97514714D02*
X156620976Y-98324238D01*
X156668595Y-98419476D01*
X156716214Y-98467095D01*
X156811452Y-98514714D01*
X156954309Y-98514714D01*
X157049547Y-98467095D01*
X156620976Y-98133761D02*
X156716214Y-98181380D01*
X156906690Y-98181380D01*
X157001928Y-98133761D01*
X157049547Y-98086142D01*
X157097166Y-97990904D01*
X157097166Y-97705190D01*
X157049547Y-97609952D01*
X157001928Y-97562333D01*
X156906690Y-97514714D01*
X156716214Y-97514714D01*
X156620976Y-97562333D01*
X156144785Y-97514714D02*
X156144785Y-98181380D01*
X156144785Y-97609952D02*
X156097166Y-97562333D01*
X156001928Y-97514714D01*
X155859071Y-97514714D01*
X155763833Y-97562333D01*
X155716214Y-97657571D01*
X155716214Y-98181380D01*
X154859071Y-98133761D02*
X154954309Y-98181380D01*
X155144785Y-98181380D01*
X155240023Y-98133761D01*
X155287642Y-98038523D01*
X155287642Y-97657571D01*
X155240023Y-97562333D01*
X155144785Y-97514714D01*
X154954309Y-97514714D01*
X154859071Y-97562333D01*
X154811452Y-97657571D01*
X154811452Y-97752809D01*
X155287642Y-97848047D01*
X153954309Y-98181380D02*
X153954309Y-97181380D01*
X153954309Y-98133761D02*
X154049547Y-98181380D01*
X154240023Y-98181380D01*
X154335261Y-98133761D01*
X154382880Y-98086142D01*
X154430500Y-97990904D01*
X154430500Y-97705190D01*
X154382880Y-97609952D01*
X154335261Y-97562333D01*
X154240023Y-97514714D01*
X154049547Y-97514714D01*
X153954309Y-97562333D01*
X152716214Y-98181380D02*
X152716214Y-97514714D01*
X152716214Y-97181380D02*
X152763833Y-97229000D01*
X152716214Y-97276619D01*
X152668595Y-97229000D01*
X152716214Y-97181380D01*
X152716214Y-97276619D01*
X152240023Y-97514714D02*
X152240023Y-98181380D01*
X152240023Y-97609952D02*
X152192404Y-97562333D01*
X152097166Y-97514714D01*
X151954309Y-97514714D01*
X151859071Y-97562333D01*
X151811452Y-97657571D01*
X151811452Y-98181380D01*
X150620976Y-98133761D02*
X150478119Y-98181380D01*
X150240023Y-98181380D01*
X150144785Y-98133761D01*
X150097166Y-98086142D01*
X150049547Y-97990904D01*
X150049547Y-97895666D01*
X150097166Y-97800428D01*
X150144785Y-97752809D01*
X150240023Y-97705190D01*
X150430500Y-97657571D01*
X150525738Y-97609952D01*
X150573357Y-97562333D01*
X150620976Y-97467095D01*
X150620976Y-97371857D01*
X150573357Y-97276619D01*
X150525738Y-97229000D01*
X150430500Y-97181380D01*
X150192404Y-97181380D01*
X150049547Y-97229000D01*
X149716214Y-97514714D02*
X149525738Y-98181380D01*
X149335261Y-97705190D01*
X149144785Y-98181380D01*
X148954309Y-97514714D01*
X148192404Y-98133761D02*
X148287642Y-98181380D01*
X148478119Y-98181380D01*
X148573357Y-98133761D01*
X148620976Y-98038523D01*
X148620976Y-97657571D01*
X148573357Y-97562333D01*
X148478119Y-97514714D01*
X148287642Y-97514714D01*
X148192404Y-97562333D01*
X148144785Y-97657571D01*
X148144785Y-97752809D01*
X148620976Y-97848047D01*
X147287642Y-98181380D02*
X147287642Y-97181380D01*
X147287642Y-98133761D02*
X147382880Y-98181380D01*
X147573357Y-98181380D01*
X147668595Y-98133761D01*
X147716214Y-98086142D01*
X147763833Y-97990904D01*
X147763833Y-97705190D01*
X147716214Y-97609952D01*
X147668595Y-97562333D01*
X147573357Y-97514714D01*
X147382880Y-97514714D01*
X147287642Y-97562333D01*
X146430500Y-98133761D02*
X146525738Y-98181380D01*
X146716214Y-98181380D01*
X146811452Y-98133761D01*
X146859071Y-98038523D01*
X146859071Y-97657571D01*
X146811452Y-97562333D01*
X146716214Y-97514714D01*
X146525738Y-97514714D01*
X146430500Y-97562333D01*
X146382880Y-97657571D01*
X146382880Y-97752809D01*
X146859071Y-97848047D01*
X145954309Y-97514714D02*
X145954309Y-98181380D01*
X145954309Y-97609952D02*
X145906690Y-97562333D01*
X145811452Y-97514714D01*
X145668595Y-97514714D01*
X145573357Y-97562333D01*
X145525738Y-97657571D01*
X145525738Y-98181380D01*
X160192404Y-99831380D02*
X160192404Y-98831380D01*
X159763833Y-99831380D02*
X159763833Y-99307571D01*
X159811452Y-99212333D01*
X159906690Y-99164714D01*
X160049547Y-99164714D01*
X160144785Y-99212333D01*
X160192404Y-99259952D01*
X159430500Y-99164714D02*
X159049547Y-99164714D01*
X159287642Y-98831380D02*
X159287642Y-99688523D01*
X159240023Y-99783761D01*
X159144785Y-99831380D01*
X159049547Y-99831380D01*
X158859071Y-99164714D02*
X158478119Y-99164714D01*
X158716214Y-98831380D02*
X158716214Y-99688523D01*
X158668595Y-99783761D01*
X158573357Y-99831380D01*
X158478119Y-99831380D01*
X158144785Y-99164714D02*
X158144785Y-100164714D01*
X158144785Y-99212333D02*
X158049547Y-99164714D01*
X157859071Y-99164714D01*
X157763833Y-99212333D01*
X157716214Y-99259952D01*
X157668595Y-99355190D01*
X157668595Y-99640904D01*
X157716214Y-99736142D01*
X157763833Y-99783761D01*
X157859071Y-99831380D01*
X158049547Y-99831380D01*
X158144785Y-99783761D01*
X157287642Y-99783761D02*
X157192404Y-99831380D01*
X157001928Y-99831380D01*
X156906690Y-99783761D01*
X156859071Y-99688523D01*
X156859071Y-99640904D01*
X156906690Y-99545666D01*
X157001928Y-99498047D01*
X157144785Y-99498047D01*
X157240023Y-99450428D01*
X157287642Y-99355190D01*
X157287642Y-99307571D01*
X157240023Y-99212333D01*
X157144785Y-99164714D01*
X157001928Y-99164714D01*
X156906690Y-99212333D01*
X156430500Y-99736142D02*
X156382880Y-99783761D01*
X156430500Y-99831380D01*
X156478119Y-99783761D01*
X156430500Y-99736142D01*
X156430500Y-99831380D01*
X156430500Y-99212333D02*
X156382880Y-99259952D01*
X156430500Y-99307571D01*
X156478119Y-99259952D01*
X156430500Y-99212333D01*
X156430500Y-99307571D01*
X155240023Y-98783761D02*
X156097166Y-100069476D01*
X154192404Y-98783761D02*
X155049547Y-100069476D01*
X153430500Y-99164714D02*
X153430500Y-99974238D01*
X153478119Y-100069476D01*
X153525738Y-100117095D01*
X153620976Y-100164714D01*
X153763833Y-100164714D01*
X153859071Y-100117095D01*
X153430500Y-99783761D02*
X153525738Y-99831380D01*
X153716214Y-99831380D01*
X153811452Y-99783761D01*
X153859071Y-99736142D01*
X153906690Y-99640904D01*
X153906690Y-99355190D01*
X153859071Y-99259952D01*
X153811452Y-99212333D01*
X153716214Y-99164714D01*
X153525738Y-99164714D01*
X153430500Y-99212333D01*
X152954309Y-99831380D02*
X152954309Y-99164714D01*
X152954309Y-98831380D02*
X153001928Y-98879000D01*
X152954309Y-98926619D01*
X152906690Y-98879000D01*
X152954309Y-98831380D01*
X152954309Y-98926619D01*
X152620976Y-99164714D02*
X152240023Y-99164714D01*
X152478119Y-98831380D02*
X152478119Y-99688523D01*
X152430500Y-99783761D01*
X152335261Y-99831380D01*
X152240023Y-99831380D01*
X151906690Y-99831380D02*
X151906690Y-98831380D01*
X151478119Y-99831380D02*
X151478119Y-99307571D01*
X151525738Y-99212333D01*
X151620976Y-99164714D01*
X151763833Y-99164714D01*
X151859071Y-99212333D01*
X151906690Y-99259952D01*
X150573357Y-99164714D02*
X150573357Y-99831380D01*
X151001928Y-99164714D02*
X151001928Y-99688523D01*
X150954309Y-99783761D01*
X150859071Y-99831380D01*
X150716214Y-99831380D01*
X150620976Y-99783761D01*
X150573357Y-99736142D01*
X150097166Y-99831380D02*
X150097166Y-98831380D01*
X150097166Y-99212333D02*
X150001928Y-99164714D01*
X149811452Y-99164714D01*
X149716214Y-99212333D01*
X149668595Y-99259952D01*
X149620976Y-99355190D01*
X149620976Y-99640904D01*
X149668595Y-99736142D01*
X149716214Y-99783761D01*
X149811452Y-99831380D01*
X150001928Y-99831380D01*
X150097166Y-99783761D01*
X149192404Y-99736142D02*
X149144785Y-99783761D01*
X149192404Y-99831380D01*
X149240023Y-99783761D01*
X149192404Y-99736142D01*
X149192404Y-99831380D01*
X148287642Y-99783761D02*
X148382880Y-99831380D01*
X148573357Y-99831380D01*
X148668595Y-99783761D01*
X148716214Y-99736142D01*
X148763833Y-99640904D01*
X148763833Y-99355190D01*
X148716214Y-99259952D01*
X148668595Y-99212333D01*
X148573357Y-99164714D01*
X148382880Y-99164714D01*
X148287642Y-99212333D01*
X147716214Y-99831380D02*
X147811452Y-99783761D01*
X147859071Y-99736142D01*
X147906690Y-99640904D01*
X147906690Y-99355190D01*
X147859071Y-99259952D01*
X147811452Y-99212333D01*
X147716214Y-99164714D01*
X147573357Y-99164714D01*
X147478119Y-99212333D01*
X147430500Y-99259952D01*
X147382880Y-99355190D01*
X147382880Y-99640904D01*
X147430500Y-99736142D01*
X147478119Y-99783761D01*
X147573357Y-99831380D01*
X147716214Y-99831380D01*
X146954309Y-99831380D02*
X146954309Y-99164714D01*
X146954309Y-99259952D02*
X146906690Y-99212333D01*
X146811452Y-99164714D01*
X146668595Y-99164714D01*
X146573357Y-99212333D01*
X146525738Y-99307571D01*
X146525738Y-99831380D01*
X146525738Y-99307571D02*
X146478119Y-99212333D01*
X146382880Y-99164714D01*
X146240023Y-99164714D01*
X146144785Y-99212333D01*
X146097166Y-99307571D01*
X146097166Y-99831380D01*
X144906690Y-98783761D02*
X145763833Y-100069476D01*
X144430500Y-99831380D02*
X144525738Y-99783761D01*
X144573357Y-99736142D01*
X144620976Y-99640904D01*
X144620976Y-99355190D01*
X144573357Y-99259952D01*
X144525738Y-99212333D01*
X144430500Y-99164714D01*
X144287642Y-99164714D01*
X144192404Y-99212333D01*
X144144785Y-99259952D01*
X144097166Y-99355190D01*
X144097166Y-99640904D01*
X144144785Y-99736142D01*
X144192404Y-99783761D01*
X144287642Y-99831380D01*
X144430500Y-99831380D01*
X143668595Y-99831380D02*
X143668595Y-98831380D01*
X143668595Y-99212333D02*
X143573357Y-99164714D01*
X143382880Y-99164714D01*
X143287642Y-99212333D01*
X143240023Y-99259952D01*
X143192404Y-99355190D01*
X143192404Y-99640904D01*
X143240023Y-99736142D01*
X143287642Y-99783761D01*
X143382880Y-99831380D01*
X143573357Y-99831380D01*
X143668595Y-99783761D01*
X142811452Y-99783761D02*
X142716214Y-99831380D01*
X142525738Y-99831380D01*
X142430500Y-99783761D01*
X142382880Y-99688523D01*
X142382880Y-99640904D01*
X142430500Y-99545666D01*
X142525738Y-99498047D01*
X142668595Y-99498047D01*
X142763833Y-99450428D01*
X142811452Y-99355190D01*
X142811452Y-99307571D01*
X142763833Y-99212333D01*
X142668595Y-99164714D01*
X142525738Y-99164714D01*
X142430500Y-99212333D01*
X141954309Y-99831380D02*
X141954309Y-98831380D01*
X141859071Y-99450428D02*
X141573357Y-99831380D01*
X141573357Y-99164714D02*
X141954309Y-99545666D01*
X141240023Y-99164714D02*
X141001928Y-99831380D01*
X140763833Y-99164714D02*
X141001928Y-99831380D01*
X141097166Y-100069476D01*
X141144785Y-100117095D01*
X141240023Y-100164714D01*
X140382880Y-99831380D02*
X140382880Y-99164714D01*
X140382880Y-99355190D02*
X140335261Y-99259952D01*
X140287642Y-99212333D01*
X140192404Y-99164714D01*
X140097166Y-99164714D01*
X139049547Y-98783761D02*
X139906690Y-100069476D01*
X138859071Y-99164714D02*
X138478119Y-99164714D01*
X138716214Y-99831380D02*
X138716214Y-98974238D01*
X138668595Y-98879000D01*
X138573357Y-98831380D01*
X138478119Y-98831380D01*
X138144785Y-99450428D02*
X137382880Y-99450428D01*
X136906690Y-99831380D02*
X136906690Y-99164714D01*
X136906690Y-99355190D02*
X136859071Y-99259952D01*
X136811452Y-99212333D01*
X136716214Y-99164714D01*
X136620976Y-99164714D01*
X135859071Y-99831380D02*
X135859071Y-99307571D01*
X135906690Y-99212333D01*
X136001928Y-99164714D01*
X136192404Y-99164714D01*
X136287642Y-99212333D01*
X135859071Y-99783761D02*
X135954309Y-99831380D01*
X136192404Y-99831380D01*
X136287642Y-99783761D01*
X136335261Y-99688523D01*
X136335261Y-99593285D01*
X136287642Y-99498047D01*
X136192404Y-99450428D01*
X135954309Y-99450428D01*
X135859071Y-99402809D01*
X135382880Y-99831380D02*
X135382880Y-99164714D01*
X135382880Y-99259952D02*
X135335261Y-99212333D01*
X135240023Y-99164714D01*
X135097166Y-99164714D01*
X135001928Y-99212333D01*
X134954309Y-99307571D01*
X134954309Y-99831380D01*
X134954309Y-99307571D02*
X134906690Y-99212333D01*
X134811452Y-99164714D01*
X134668595Y-99164714D01*
X134573357Y-99212333D01*
X134525738Y-99307571D01*
X134525738Y-99831380D01*
X133620976Y-99164714D02*
X133620976Y-99831380D01*
X134049547Y-99164714D02*
X134049547Y-99688523D01*
X134001928Y-99783761D01*
X133906690Y-99831380D01*
X133763833Y-99831380D01*
X133668595Y-99783761D01*
X133620976Y-99736142D01*
X133144785Y-99164714D02*
X133144785Y-99831380D01*
X133144785Y-99259952D02*
X133097166Y-99212333D01*
X133001928Y-99164714D01*
X132859071Y-99164714D01*
X132763833Y-99212333D01*
X132716214Y-99307571D01*
X132716214Y-99831380D01*
X131859071Y-99783761D02*
X131954309Y-99831380D01*
X132144785Y-99831380D01*
X132240023Y-99783761D01*
X132287642Y-99688523D01*
X132287642Y-99307571D01*
X132240023Y-99212333D01*
X132144785Y-99164714D01*
X131954309Y-99164714D01*
X131859071Y-99212333D01*
X131811452Y-99307571D01*
X131811452Y-99402809D01*
X132287642Y-99498047D01*
X130668595Y-98783761D02*
X131525738Y-100069476D01*
X160192404Y-103131380D02*
X160192404Y-102131380D01*
X159716214Y-102464714D02*
X159716214Y-103131380D01*
X159716214Y-102559952D02*
X159668595Y-102512333D01*
X159573357Y-102464714D01*
X159430500Y-102464714D01*
X159335261Y-102512333D01*
X159287642Y-102607571D01*
X159287642Y-103131380D01*
X158859071Y-103083761D02*
X158763833Y-103131380D01*
X158573357Y-103131380D01*
X158478119Y-103083761D01*
X158430500Y-102988523D01*
X158430500Y-102940904D01*
X158478119Y-102845666D01*
X158573357Y-102798047D01*
X158716214Y-102798047D01*
X158811452Y-102750428D01*
X158859071Y-102655190D01*
X158859071Y-102607571D01*
X158811452Y-102512333D01*
X158716214Y-102464714D01*
X158573357Y-102464714D01*
X158478119Y-102512333D01*
X157620976Y-103083761D02*
X157716214Y-103131380D01*
X157906690Y-103131380D01*
X158001928Y-103083761D01*
X158049547Y-102988523D01*
X158049547Y-102607571D01*
X158001928Y-102512333D01*
X157906690Y-102464714D01*
X157716214Y-102464714D01*
X157620976Y-102512333D01*
X157573357Y-102607571D01*
X157573357Y-102702809D01*
X158049547Y-102798047D01*
X157144785Y-103131380D02*
X157144785Y-102464714D01*
X157144785Y-102655190D02*
X157097166Y-102559952D01*
X157049547Y-102512333D01*
X156954309Y-102464714D01*
X156859071Y-102464714D01*
X156668595Y-102464714D02*
X156287642Y-102464714D01*
X156525738Y-102131380D02*
X156525738Y-102988523D01*
X156478119Y-103083761D01*
X156382880Y-103131380D01*
X156287642Y-103131380D01*
X154763833Y-103083761D02*
X154859071Y-103131380D01*
X155049547Y-103131380D01*
X155144785Y-103083761D01*
X155192404Y-103036142D01*
X155240023Y-102940904D01*
X155240023Y-102655190D01*
X155192404Y-102559952D01*
X155144785Y-102512333D01*
X155049547Y-102464714D01*
X154859071Y-102464714D01*
X154763833Y-102512333D01*
X154335261Y-103131380D02*
X154335261Y-102131380D01*
X153906690Y-103131380D02*
X153906690Y-102607571D01*
X153954309Y-102512333D01*
X154049547Y-102464714D01*
X154192404Y-102464714D01*
X154287642Y-102512333D01*
X154335261Y-102559952D01*
X153430500Y-103131380D02*
X153430500Y-102464714D01*
X153430500Y-102131380D02*
X153478119Y-102179000D01*
X153430500Y-102226619D01*
X153382880Y-102179000D01*
X153430500Y-102131380D01*
X153430500Y-102226619D01*
X152954309Y-102464714D02*
X152954309Y-103464714D01*
X152954309Y-102512333D02*
X152859071Y-102464714D01*
X152668595Y-102464714D01*
X152573357Y-102512333D01*
X152525738Y-102559952D01*
X152478119Y-102655190D01*
X152478119Y-102940904D01*
X152525738Y-103036142D01*
X152573357Y-103083761D01*
X152668595Y-103131380D01*
X152859071Y-103131380D01*
X152954309Y-103083761D01*
X151287642Y-103131380D02*
X151287642Y-102464714D01*
X151287642Y-102131380D02*
X151335261Y-102179000D01*
X151287642Y-102226619D01*
X151240023Y-102179000D01*
X151287642Y-102131380D01*
X151287642Y-102226619D01*
X150811452Y-102464714D02*
X150811452Y-103131380D01*
X150811452Y-102559952D02*
X150763833Y-102512333D01*
X150668595Y-102464714D01*
X150525738Y-102464714D01*
X150430500Y-102512333D01*
X150382880Y-102607571D01*
X150382880Y-103131380D01*
X150049547Y-102464714D02*
X149668595Y-102464714D01*
X149906690Y-102131380D02*
X149906690Y-102988523D01*
X149859071Y-103083761D01*
X149763833Y-103131380D01*
X149668595Y-103131380D01*
X149192404Y-103131380D02*
X149287642Y-103083761D01*
X149335261Y-103036142D01*
X149382880Y-102940904D01*
X149382880Y-102655190D01*
X149335261Y-102559952D01*
X149287642Y-102512333D01*
X149192404Y-102464714D01*
X149049547Y-102464714D01*
X148954309Y-102512333D01*
X148906690Y-102559952D01*
X148859071Y-102655190D01*
X148859071Y-102940904D01*
X148906690Y-103036142D01*
X148954309Y-103083761D01*
X149049547Y-103131380D01*
X149192404Y-103131380D01*
X147716214Y-103083761D02*
X147620976Y-103131380D01*
X147430500Y-103131380D01*
X147335261Y-103083761D01*
X147287642Y-102988523D01*
X147287642Y-102940904D01*
X147335261Y-102845666D01*
X147430500Y-102798047D01*
X147573357Y-102798047D01*
X147668595Y-102750428D01*
X147716214Y-102655190D01*
X147716214Y-102607571D01*
X147668595Y-102512333D01*
X147573357Y-102464714D01*
X147430500Y-102464714D01*
X147335261Y-102512333D01*
X146716214Y-103131380D02*
X146811452Y-103083761D01*
X146859071Y-103036142D01*
X146906690Y-102940904D01*
X146906690Y-102655190D01*
X146859071Y-102559952D01*
X146811452Y-102512333D01*
X146716214Y-102464714D01*
X146573357Y-102464714D01*
X146478119Y-102512333D01*
X146430500Y-102559952D01*
X146382880Y-102655190D01*
X146382880Y-102940904D01*
X146430500Y-103036142D01*
X146478119Y-103083761D01*
X146573357Y-103131380D01*
X146716214Y-103131380D01*
X145525738Y-103083761D02*
X145620976Y-103131380D01*
X145811452Y-103131380D01*
X145906690Y-103083761D01*
X145954309Y-103036142D01*
X146001928Y-102940904D01*
X146001928Y-102655190D01*
X145954309Y-102559952D01*
X145906690Y-102512333D01*
X145811452Y-102464714D01*
X145620976Y-102464714D01*
X145525738Y-102512333D01*
X145097166Y-103131380D02*
X145097166Y-102131380D01*
X145001928Y-102750428D02*
X144716214Y-103131380D01*
X144716214Y-102464714D02*
X145097166Y-102845666D01*
X143906690Y-103083761D02*
X144001928Y-103131380D01*
X144192404Y-103131380D01*
X144287642Y-103083761D01*
X144335261Y-102988523D01*
X144335261Y-102607571D01*
X144287642Y-102512333D01*
X144192404Y-102464714D01*
X144001928Y-102464714D01*
X143906690Y-102512333D01*
X143859071Y-102607571D01*
X143859071Y-102702809D01*
X144335261Y-102798047D01*
X143573357Y-102464714D02*
X143192404Y-102464714D01*
X143430500Y-102131380D02*
X143430500Y-102988523D01*
X143382880Y-103083761D01*
X143287642Y-103131380D01*
X143192404Y-103131380D01*
X142859071Y-103036142D02*
X142811452Y-103083761D01*
X142859071Y-103131380D01*
X142906690Y-103083761D01*
X142859071Y-103036142D01*
X142859071Y-103131380D01*
X141620976Y-103131380D02*
X141620976Y-102131380D01*
X141240023Y-102131380D01*
X141144785Y-102179000D01*
X141097166Y-102226619D01*
X141049547Y-102321857D01*
X141049547Y-102464714D01*
X141097166Y-102559952D01*
X141144785Y-102607571D01*
X141240023Y-102655190D01*
X141620976Y-102655190D01*
X140620976Y-103131380D02*
X140620976Y-102464714D01*
X140620976Y-102655190D02*
X140573357Y-102559952D01*
X140525738Y-102512333D01*
X140430500Y-102464714D01*
X140335261Y-102464714D01*
X139620976Y-103083761D02*
X139716214Y-103131380D01*
X139906690Y-103131380D01*
X140001928Y-103083761D01*
X140049547Y-102988523D01*
X140049547Y-102607571D01*
X140001928Y-102512333D01*
X139906690Y-102464714D01*
X139716214Y-102464714D01*
X139620976Y-102512333D01*
X139573357Y-102607571D01*
X139573357Y-102702809D01*
X140049547Y-102798047D01*
X139192404Y-103083761D02*
X139097166Y-103131380D01*
X138906690Y-103131380D01*
X138811452Y-103083761D01*
X138763833Y-102988523D01*
X138763833Y-102940904D01*
X138811452Y-102845666D01*
X138906690Y-102798047D01*
X139049547Y-102798047D01*
X139144785Y-102750428D01*
X139192404Y-102655190D01*
X139192404Y-102607571D01*
X139144785Y-102512333D01*
X139049547Y-102464714D01*
X138906690Y-102464714D01*
X138811452Y-102512333D01*
X138382880Y-103083761D02*
X138287642Y-103131380D01*
X138097166Y-103131380D01*
X138001928Y-103083761D01*
X137954309Y-102988523D01*
X137954309Y-102940904D01*
X138001928Y-102845666D01*
X138097166Y-102798047D01*
X138240023Y-102798047D01*
X138335261Y-102750428D01*
X138382880Y-102655190D01*
X138382880Y-102607571D01*
X138335261Y-102512333D01*
X138240023Y-102464714D01*
X138097166Y-102464714D01*
X138001928Y-102512333D01*
X136763833Y-103131380D02*
X136763833Y-102131380D01*
X136763833Y-102512333D02*
X136668595Y-102464714D01*
X136478119Y-102464714D01*
X136382880Y-102512333D01*
X136335261Y-102559952D01*
X136287642Y-102655190D01*
X136287642Y-102940904D01*
X136335261Y-103036142D01*
X136382880Y-103083761D01*
X136478119Y-103131380D01*
X136668595Y-103131380D01*
X136763833Y-103083761D01*
X135430500Y-102464714D02*
X135430500Y-103131380D01*
X135859071Y-102464714D02*
X135859071Y-102988523D01*
X135811452Y-103083761D01*
X135716214Y-103131380D01*
X135573357Y-103131380D01*
X135478119Y-103083761D01*
X135430500Y-103036142D01*
X135097166Y-102464714D02*
X134716214Y-102464714D01*
X134954309Y-102131380D02*
X134954309Y-102988523D01*
X134906690Y-103083761D01*
X134811452Y-103131380D01*
X134716214Y-103131380D01*
X134525738Y-102464714D02*
X134144785Y-102464714D01*
X134382880Y-102131380D02*
X134382880Y-102988523D01*
X134335261Y-103083761D01*
X134240023Y-103131380D01*
X134144785Y-103131380D01*
X133668595Y-103131380D02*
X133763833Y-103083761D01*
X133811452Y-103036142D01*
X133859071Y-102940904D01*
X133859071Y-102655190D01*
X133811452Y-102559952D01*
X133763833Y-102512333D01*
X133668595Y-102464714D01*
X133525738Y-102464714D01*
X133430500Y-102512333D01*
X133382880Y-102559952D01*
X133335261Y-102655190D01*
X133335261Y-102940904D01*
X133382880Y-103036142D01*
X133430500Y-103083761D01*
X133525738Y-103131380D01*
X133668595Y-103131380D01*
X132906690Y-102464714D02*
X132906690Y-103131380D01*
X132906690Y-102559952D02*
X132859071Y-102512333D01*
X132763833Y-102464714D01*
X132620976Y-102464714D01*
X132525738Y-102512333D01*
X132478119Y-102607571D01*
X132478119Y-103131380D01*
X131382880Y-102464714D02*
X131001928Y-102464714D01*
X131240023Y-102131380D02*
X131240023Y-102988523D01*
X131192404Y-103083761D01*
X131097166Y-103131380D01*
X131001928Y-103131380D01*
X130525738Y-103131380D02*
X130620976Y-103083761D01*
X130668595Y-103036142D01*
X130716214Y-102940904D01*
X130716214Y-102655190D01*
X130668595Y-102559952D01*
X130620976Y-102512333D01*
X130525738Y-102464714D01*
X130382880Y-102464714D01*
X130287642Y-102512333D01*
X130240023Y-102559952D01*
X130192404Y-102655190D01*
X130192404Y-102940904D01*
X130240023Y-103036142D01*
X130287642Y-103083761D01*
X130382880Y-103131380D01*
X130525738Y-103131380D01*
X129144785Y-102464714D02*
X128763833Y-102464714D01*
X129001928Y-102131380D02*
X129001928Y-102988523D01*
X128954309Y-103083761D01*
X128859071Y-103131380D01*
X128763833Y-103131380D01*
X128049547Y-103083761D02*
X128144785Y-103131380D01*
X128335261Y-103131380D01*
X128430500Y-103083761D01*
X128478119Y-102988523D01*
X128478119Y-102607571D01*
X128430500Y-102512333D01*
X128335261Y-102464714D01*
X128144785Y-102464714D01*
X128049547Y-102512333D01*
X128001928Y-102607571D01*
X128001928Y-102702809D01*
X128478119Y-102798047D01*
X127620976Y-103083761D02*
X127525738Y-103131380D01*
X127335261Y-103131380D01*
X127240023Y-103083761D01*
X127192404Y-102988523D01*
X127192404Y-102940904D01*
X127240023Y-102845666D01*
X127335261Y-102798047D01*
X127478119Y-102798047D01*
X127573357Y-102750428D01*
X127620976Y-102655190D01*
X127620976Y-102607571D01*
X127573357Y-102512333D01*
X127478119Y-102464714D01*
X127335261Y-102464714D01*
X127240023Y-102512333D01*
X126906690Y-102464714D02*
X126525738Y-102464714D01*
X126763833Y-102131380D02*
X126763833Y-102988523D01*
X126716214Y-103083761D01*
X126620976Y-103131380D01*
X126525738Y-103131380D01*
X126192404Y-103036142D02*
X126144785Y-103083761D01*
X126192404Y-103131380D01*
X126240023Y-103083761D01*
X126192404Y-103036142D01*
X126192404Y-103131380D01*
X159668595Y-103829000D02*
X159763833Y-103781380D01*
X159906690Y-103781380D01*
X160049547Y-103829000D01*
X160144785Y-103924238D01*
X160192404Y-104019476D01*
X160240023Y-104209952D01*
X160240023Y-104352809D01*
X160192404Y-104543285D01*
X160144785Y-104638523D01*
X160049547Y-104733761D01*
X159906690Y-104781380D01*
X159811452Y-104781380D01*
X159668595Y-104733761D01*
X159620976Y-104686142D01*
X159620976Y-104352809D01*
X159811452Y-104352809D01*
X158620976Y-104781380D02*
X158954309Y-104305190D01*
X159192404Y-104781380D02*
X159192404Y-103781380D01*
X158811452Y-103781380D01*
X158716214Y-103829000D01*
X158668595Y-103876619D01*
X158620976Y-103971857D01*
X158620976Y-104114714D01*
X158668595Y-104209952D01*
X158716214Y-104257571D01*
X158811452Y-104305190D01*
X159192404Y-104305190D01*
X158192404Y-104257571D02*
X157859071Y-104257571D01*
X157716214Y-104781380D02*
X158192404Y-104781380D01*
X158192404Y-103781380D01*
X157716214Y-103781380D01*
X157287642Y-104257571D02*
X156954309Y-104257571D01*
X156811452Y-104781380D02*
X157287642Y-104781380D01*
X157287642Y-103781380D01*
X156811452Y-103781380D01*
X156382880Y-104781380D02*
X156382880Y-103781380D01*
X155811452Y-104781380D01*
X155811452Y-103781380D01*
X155335261Y-104686142D02*
X155287642Y-104733761D01*
X155335261Y-104781380D01*
X155382880Y-104733761D01*
X155335261Y-104686142D01*
X155335261Y-104781380D01*
X155335261Y-104162333D02*
X155287642Y-104209952D01*
X155335261Y-104257571D01*
X155382880Y-104209952D01*
X155335261Y-104162333D01*
X155335261Y-104257571D01*
X153763833Y-104257571D02*
X154097166Y-104257571D01*
X154097166Y-104781380D02*
X154097166Y-103781380D01*
X153620976Y-103781380D01*
X152668595Y-104781380D02*
X153001928Y-104305190D01*
X153240023Y-104781380D02*
X153240023Y-103781380D01*
X152859071Y-103781380D01*
X152763833Y-103829000D01*
X152716214Y-103876619D01*
X152668595Y-103971857D01*
X152668595Y-104114714D01*
X152716214Y-104209952D01*
X152763833Y-104257571D01*
X152859071Y-104305190D01*
X153240023Y-104305190D01*
X152287642Y-104495666D02*
X151811452Y-104495666D01*
X152382880Y-104781380D02*
X152049547Y-103781380D01*
X151716214Y-104781380D01*
X151382880Y-104781380D02*
X151382880Y-103781380D01*
X151049547Y-104495666D01*
X150716214Y-103781380D01*
X150716214Y-104781380D01*
X149478119Y-104781380D02*
X149478119Y-104114714D01*
X149478119Y-103781380D02*
X149525738Y-103829000D01*
X149478119Y-103876619D01*
X149430500Y-103829000D01*
X149478119Y-103781380D01*
X149478119Y-103876619D01*
X149049547Y-104733761D02*
X148954309Y-104781380D01*
X148763833Y-104781380D01*
X148668595Y-104733761D01*
X148620976Y-104638523D01*
X148620976Y-104590904D01*
X148668595Y-104495666D01*
X148763833Y-104448047D01*
X148906690Y-104448047D01*
X149001928Y-104400428D01*
X149049547Y-104305190D01*
X149049547Y-104257571D01*
X149001928Y-104162333D01*
X148906690Y-104114714D01*
X148763833Y-104114714D01*
X148668595Y-104162333D01*
X147001928Y-104114714D02*
X147001928Y-104924238D01*
X147049547Y-105019476D01*
X147097166Y-105067095D01*
X147192404Y-105114714D01*
X147335261Y-105114714D01*
X147430500Y-105067095D01*
X147001928Y-104733761D02*
X147097166Y-104781380D01*
X147287642Y-104781380D01*
X147382880Y-104733761D01*
X147430500Y-104686142D01*
X147478119Y-104590904D01*
X147478119Y-104305190D01*
X147430500Y-104209952D01*
X147382880Y-104162333D01*
X147287642Y-104114714D01*
X147097166Y-104114714D01*
X147001928Y-104162333D01*
X146144785Y-104733761D02*
X146240023Y-104781380D01*
X146430500Y-104781380D01*
X146525738Y-104733761D01*
X146573357Y-104638523D01*
X146573357Y-104257571D01*
X146525738Y-104162333D01*
X146430500Y-104114714D01*
X146240023Y-104114714D01*
X146144785Y-104162333D01*
X146097166Y-104257571D01*
X146097166Y-104352809D01*
X146573357Y-104448047D01*
X145668595Y-104114714D02*
X145668595Y-104781380D01*
X145668595Y-104209952D02*
X145620976Y-104162333D01*
X145525738Y-104114714D01*
X145382880Y-104114714D01*
X145287642Y-104162333D01*
X145240023Y-104257571D01*
X145240023Y-104781380D01*
X144335261Y-104114714D02*
X144335261Y-104781380D01*
X144763833Y-104114714D02*
X144763833Y-104638523D01*
X144716214Y-104733761D01*
X144620976Y-104781380D01*
X144478119Y-104781380D01*
X144382880Y-104733761D01*
X144335261Y-104686142D01*
X143859071Y-104781380D02*
X143859071Y-104114714D01*
X143859071Y-103781380D02*
X143906690Y-103829000D01*
X143859071Y-103876619D01*
X143811452Y-103829000D01*
X143859071Y-103781380D01*
X143859071Y-103876619D01*
X143382880Y-104114714D02*
X143382880Y-104781380D01*
X143382880Y-104209952D02*
X143335261Y-104162333D01*
X143240023Y-104114714D01*
X143097166Y-104114714D01*
X143001928Y-104162333D01*
X142954309Y-104257571D01*
X142954309Y-104781380D01*
X142097166Y-104733761D02*
X142192404Y-104781380D01*
X142382880Y-104781380D01*
X142478119Y-104733761D01*
X142525738Y-104638523D01*
X142525738Y-104257571D01*
X142478119Y-104162333D01*
X142382880Y-104114714D01*
X142192404Y-104114714D01*
X142097166Y-104162333D01*
X142049547Y-104257571D01*
X142049547Y-104352809D01*
X142525738Y-104448047D01*
X141620976Y-104686142D02*
X141573357Y-104733761D01*
X141620976Y-104781380D01*
X141668595Y-104733761D01*
X141620976Y-104686142D01*
X141620976Y-104781380D01*
X159668595Y-105479000D02*
X159763833Y-105431380D01*
X159906690Y-105431380D01*
X160049547Y-105479000D01*
X160144785Y-105574238D01*
X160192404Y-105669476D01*
X160240023Y-105859952D01*
X160240023Y-106002809D01*
X160192404Y-106193285D01*
X160144785Y-106288523D01*
X160049547Y-106383761D01*
X159906690Y-106431380D01*
X159811452Y-106431380D01*
X159668595Y-106383761D01*
X159620976Y-106336142D01*
X159620976Y-106002809D01*
X159811452Y-106002809D01*
X158620976Y-106431380D02*
X158954309Y-105955190D01*
X159192404Y-106431380D02*
X159192404Y-105431380D01*
X158811452Y-105431380D01*
X158716214Y-105479000D01*
X158668595Y-105526619D01*
X158620976Y-105621857D01*
X158620976Y-105764714D01*
X158668595Y-105859952D01*
X158716214Y-105907571D01*
X158811452Y-105955190D01*
X159192404Y-105955190D01*
X158192404Y-105907571D02*
X157859071Y-105907571D01*
X157716214Y-106431380D02*
X158192404Y-106431380D01*
X158192404Y-105431380D01*
X157716214Y-105431380D01*
X157287642Y-105907571D02*
X156954309Y-105907571D01*
X156811452Y-106431380D02*
X157287642Y-106431380D01*
X157287642Y-105431380D01*
X156811452Y-105431380D01*
X156382880Y-106431380D02*
X156382880Y-105431380D01*
X155811452Y-106431380D01*
X155811452Y-105431380D01*
X155335261Y-106050428D02*
X154573357Y-106050428D01*
X154954309Y-106431380D02*
X154954309Y-105669476D01*
X153525738Y-106431380D02*
X153859071Y-105955190D01*
X154097166Y-106431380D02*
X154097166Y-105431380D01*
X153716214Y-105431380D01*
X153620976Y-105479000D01*
X153573357Y-105526619D01*
X153525738Y-105621857D01*
X153525738Y-105764714D01*
X153573357Y-105859952D01*
X153620976Y-105907571D01*
X153716214Y-105955190D01*
X154097166Y-105955190D01*
X153097166Y-105907571D02*
X152763833Y-105907571D01*
X152620976Y-106431380D02*
X153097166Y-106431380D01*
X153097166Y-105431380D01*
X152620976Y-105431380D01*
X152192404Y-106431380D02*
X152192404Y-105431380D01*
X151954309Y-105431380D01*
X151811452Y-105479000D01*
X151716214Y-105574238D01*
X151668595Y-105669476D01*
X151620976Y-105859952D01*
X151620976Y-106002809D01*
X151668595Y-106193285D01*
X151716214Y-106288523D01*
X151811452Y-106383761D01*
X151954309Y-106431380D01*
X152192404Y-106431380D01*
X151192404Y-106336142D02*
X151144785Y-106383761D01*
X151192404Y-106431380D01*
X151240023Y-106383761D01*
X151192404Y-106336142D01*
X151192404Y-106431380D01*
X151192404Y-105812333D02*
X151144785Y-105859952D01*
X151192404Y-105907571D01*
X151240023Y-105859952D01*
X151192404Y-105812333D01*
X151192404Y-105907571D01*
X149620976Y-105907571D02*
X149954309Y-105907571D01*
X149954309Y-106431380D02*
X149954309Y-105431380D01*
X149478119Y-105431380D01*
X148525738Y-106431380D02*
X148859071Y-105955190D01*
X149097166Y-106431380D02*
X149097166Y-105431380D01*
X148716214Y-105431380D01*
X148620976Y-105479000D01*
X148573357Y-105526619D01*
X148525738Y-105621857D01*
X148525738Y-105764714D01*
X148573357Y-105859952D01*
X148620976Y-105907571D01*
X148716214Y-105955190D01*
X149097166Y-105955190D01*
X148144785Y-106145666D02*
X147668595Y-106145666D01*
X148240023Y-106431380D02*
X147906690Y-105431380D01*
X147573357Y-106431380D01*
X147240023Y-106431380D02*
X147240023Y-105431380D01*
X146906690Y-106145666D01*
X146573357Y-105431380D01*
X146573357Y-106431380D01*
X145335261Y-106431380D02*
X145335261Y-105764714D01*
X145335261Y-105431380D02*
X145382880Y-105479000D01*
X145335261Y-105526619D01*
X145287642Y-105479000D01*
X145335261Y-105431380D01*
X145335261Y-105526619D01*
X144906690Y-106383761D02*
X144811452Y-106431380D01*
X144620976Y-106431380D01*
X144525738Y-106383761D01*
X144478119Y-106288523D01*
X144478119Y-106240904D01*
X144525738Y-106145666D01*
X144620976Y-106098047D01*
X144763833Y-106098047D01*
X144859071Y-106050428D01*
X144906690Y-105955190D01*
X144906690Y-105907571D01*
X144859071Y-105812333D01*
X144763833Y-105764714D01*
X144620976Y-105764714D01*
X144525738Y-105812333D01*
X143430500Y-105764714D02*
X143049547Y-105764714D01*
X143287642Y-106431380D02*
X143287642Y-105574238D01*
X143240023Y-105479000D01*
X143144785Y-105431380D01*
X143049547Y-105431380D01*
X142287642Y-106431380D02*
X142287642Y-105907571D01*
X142335261Y-105812333D01*
X142430500Y-105764714D01*
X142620976Y-105764714D01*
X142716214Y-105812333D01*
X142287642Y-106383761D02*
X142382880Y-106431380D01*
X142620976Y-106431380D01*
X142716214Y-106383761D01*
X142763833Y-106288523D01*
X142763833Y-106193285D01*
X142716214Y-106098047D01*
X142620976Y-106050428D01*
X142382880Y-106050428D01*
X142287642Y-106002809D01*
X141382880Y-105764714D02*
X141382880Y-106431380D01*
X141811452Y-105764714D02*
X141811452Y-106288523D01*
X141763833Y-106383761D01*
X141668595Y-106431380D01*
X141525738Y-106431380D01*
X141430500Y-106383761D01*
X141382880Y-106336142D01*
X140763833Y-106431380D02*
X140859071Y-106383761D01*
X140906690Y-106288523D01*
X140906690Y-105431380D01*
X140525738Y-105764714D02*
X140144785Y-105764714D01*
X140382880Y-105431380D02*
X140382880Y-106288523D01*
X140335261Y-106383761D01*
X140240023Y-106431380D01*
X140144785Y-106431380D01*
X139906690Y-105764714D02*
X139668595Y-106431380D01*
X139430500Y-105764714D02*
X139668595Y-106431380D01*
X139763833Y-106669476D01*
X139811452Y-106717095D01*
X139906690Y-106764714D01*
X139049547Y-106336142D02*
X139001928Y-106383761D01*
X139049547Y-106431380D01*
X139097166Y-106383761D01*
X139049547Y-106336142D01*
X139049547Y-106431380D01*
X159620976Y-108081380D02*
X159954309Y-107605190D01*
X160192404Y-108081380D02*
X160192404Y-107081380D01*
X159811452Y-107081380D01*
X159716214Y-107129000D01*
X159668595Y-107176619D01*
X159620976Y-107271857D01*
X159620976Y-107414714D01*
X159668595Y-107509952D01*
X159716214Y-107557571D01*
X159811452Y-107605190D01*
X160192404Y-107605190D01*
X159192404Y-107557571D02*
X158859071Y-107557571D01*
X158716214Y-108081380D02*
X159192404Y-108081380D01*
X159192404Y-107081380D01*
X158716214Y-107081380D01*
X158287642Y-108081380D02*
X158287642Y-107081380D01*
X158049547Y-107081380D01*
X157906690Y-107129000D01*
X157811452Y-107224238D01*
X157763833Y-107319476D01*
X157716214Y-107509952D01*
X157716214Y-107652809D01*
X157763833Y-107843285D01*
X157811452Y-107938523D01*
X157906690Y-108033761D01*
X158049547Y-108081380D01*
X158287642Y-108081380D01*
X157287642Y-107986142D02*
X157240023Y-108033761D01*
X157287642Y-108081380D01*
X157335261Y-108033761D01*
X157287642Y-107986142D01*
X157287642Y-108081380D01*
X157287642Y-107462333D02*
X157240023Y-107509952D01*
X157287642Y-107557571D01*
X157335261Y-107509952D01*
X157287642Y-107462333D01*
X157287642Y-107557571D01*
X155716214Y-107557571D02*
X156049547Y-107557571D01*
X156049547Y-108081380D02*
X156049547Y-107081380D01*
X155573357Y-107081380D01*
X154620976Y-108081380D02*
X154954309Y-107605190D01*
X155192404Y-108081380D02*
X155192404Y-107081380D01*
X154811452Y-107081380D01*
X154716214Y-107129000D01*
X154668595Y-107176619D01*
X154620976Y-107271857D01*
X154620976Y-107414714D01*
X154668595Y-107509952D01*
X154716214Y-107557571D01*
X154811452Y-107605190D01*
X155192404Y-107605190D01*
X154240023Y-107795666D02*
X153763833Y-107795666D01*
X154335261Y-108081380D02*
X154001928Y-107081380D01*
X153668595Y-108081380D01*
X153335261Y-108081380D02*
X153335261Y-107081380D01*
X153001928Y-107795666D01*
X152668595Y-107081380D01*
X152668595Y-108081380D01*
X151430500Y-108081380D02*
X151430500Y-107414714D01*
X151430500Y-107081380D02*
X151478119Y-107129000D01*
X151430500Y-107176619D01*
X151382880Y-107129000D01*
X151430500Y-107081380D01*
X151430500Y-107176619D01*
X151001928Y-108033761D02*
X150906690Y-108081380D01*
X150716214Y-108081380D01*
X150620976Y-108033761D01*
X150573357Y-107938523D01*
X150573357Y-107890904D01*
X150620976Y-107795666D01*
X150716214Y-107748047D01*
X150859071Y-107748047D01*
X150954309Y-107700428D01*
X151001928Y-107605190D01*
X151001928Y-107557571D01*
X150954309Y-107462333D01*
X150859071Y-107414714D01*
X150716214Y-107414714D01*
X150620976Y-107462333D01*
X148954309Y-108033761D02*
X149049547Y-108081380D01*
X149240023Y-108081380D01*
X149335261Y-108033761D01*
X149382880Y-107986142D01*
X149430500Y-107890904D01*
X149430500Y-107605190D01*
X149382880Y-107509952D01*
X149335261Y-107462333D01*
X149240023Y-107414714D01*
X149049547Y-107414714D01*
X148954309Y-107462333D01*
X148382880Y-108081380D02*
X148478119Y-108033761D01*
X148525738Y-107986142D01*
X148573357Y-107890904D01*
X148573357Y-107605190D01*
X148525738Y-107509952D01*
X148478119Y-107462333D01*
X148382880Y-107414714D01*
X148240023Y-107414714D01*
X148144785Y-107462333D01*
X148097166Y-107509952D01*
X148049547Y-107605190D01*
X148049547Y-107890904D01*
X148097166Y-107986142D01*
X148144785Y-108033761D01*
X148240023Y-108081380D01*
X148382880Y-108081380D01*
X147192404Y-107414714D02*
X147192404Y-108081380D01*
X147620976Y-107414714D02*
X147620976Y-107938523D01*
X147573357Y-108033761D01*
X147478119Y-108081380D01*
X147335261Y-108081380D01*
X147240023Y-108033761D01*
X147192404Y-107986142D01*
X146716214Y-107414714D02*
X146716214Y-108081380D01*
X146716214Y-107509952D02*
X146668595Y-107462333D01*
X146573357Y-107414714D01*
X146430500Y-107414714D01*
X146335261Y-107462333D01*
X146287642Y-107557571D01*
X146287642Y-108081380D01*
X145954309Y-107414714D02*
X145573357Y-107414714D01*
X145811452Y-107081380D02*
X145811452Y-107938523D01*
X145763833Y-108033761D01*
X145668595Y-108081380D01*
X145573357Y-108081380D01*
X144859071Y-108033761D02*
X144954309Y-108081380D01*
X145144785Y-108081380D01*
X145240023Y-108033761D01*
X145287642Y-107938523D01*
X145287642Y-107557571D01*
X145240023Y-107462333D01*
X145144785Y-107414714D01*
X144954309Y-107414714D01*
X144859071Y-107462333D01*
X144811452Y-107557571D01*
X144811452Y-107652809D01*
X145287642Y-107748047D01*
X144382880Y-108081380D02*
X144382880Y-107414714D01*
X144382880Y-107605190D02*
X144335261Y-107509952D01*
X144287642Y-107462333D01*
X144192404Y-107414714D01*
X144097166Y-107414714D01*
X143906690Y-107414714D02*
X143525738Y-107414714D01*
X143763833Y-108081380D02*
X143763833Y-107224238D01*
X143716214Y-107129000D01*
X143620976Y-107081380D01*
X143525738Y-107081380D01*
X142811452Y-108033761D02*
X142906690Y-108081380D01*
X143097166Y-108081380D01*
X143192404Y-108033761D01*
X143240023Y-107938523D01*
X143240023Y-107557571D01*
X143192404Y-107462333D01*
X143097166Y-107414714D01*
X142906690Y-107414714D01*
X142811452Y-107462333D01*
X142763833Y-107557571D01*
X142763833Y-107652809D01*
X143240023Y-107748047D01*
X142335261Y-108081380D02*
X142335261Y-107414714D01*
X142335261Y-107081380D02*
X142382880Y-107129000D01*
X142335261Y-107176619D01*
X142287642Y-107129000D01*
X142335261Y-107081380D01*
X142335261Y-107176619D01*
X142001928Y-107414714D02*
X141620976Y-107414714D01*
X141859071Y-107081380D02*
X141859071Y-107938523D01*
X141811452Y-108033761D01*
X141716214Y-108081380D01*
X141620976Y-108081380D01*
X141287642Y-107986142D02*
X141240023Y-108033761D01*
X141287642Y-108081380D01*
X141335261Y-108033761D01*
X141287642Y-107986142D01*
X141287642Y-108081380D01*
D12*
G36*
X142742813Y-84328103D02*
G01*
X142639979Y-84328477D01*
X142557755Y-84329215D01*
X142493745Y-84330412D01*
X142445554Y-84332162D01*
X142410787Y-84334559D01*
X142387049Y-84337697D01*
X142371945Y-84341671D01*
X142363079Y-84346575D01*
X142361558Y-84347957D01*
X142345605Y-84367606D01*
X142341600Y-84377136D01*
X142339348Y-84391284D01*
X142332929Y-84427617D01*
X142322853Y-84483357D01*
X142309627Y-84555723D01*
X142293760Y-84641934D01*
X142275761Y-84739212D01*
X142256137Y-84844775D01*
X142253059Y-84861293D01*
X142228355Y-84992403D01*
X142207418Y-85100255D01*
X142189846Y-85186647D01*
X142175237Y-85253377D01*
X142163189Y-85302241D01*
X142153299Y-85335038D01*
X142145165Y-85353565D01*
X142141934Y-85357760D01*
X142124584Y-85368017D01*
X142086881Y-85386217D01*
X142032080Y-85410928D01*
X141963434Y-85440717D01*
X141884196Y-85474150D01*
X141797619Y-85509795D01*
X141786984Y-85514116D01*
X141685658Y-85554927D01*
X141605159Y-85586601D01*
X141542965Y-85609995D01*
X141496553Y-85625969D01*
X141463400Y-85635381D01*
X141440984Y-85639091D01*
X141426782Y-85637957D01*
X141425034Y-85637356D01*
X141408154Y-85627720D01*
X141372882Y-85605287D01*
X141321707Y-85571718D01*
X141257122Y-85528673D01*
X141181615Y-85477815D01*
X141097679Y-85420803D01*
X141007803Y-85359299D01*
X140996505Y-85351537D01*
X140906868Y-85290163D01*
X140823542Y-85233575D01*
X140748893Y-85183347D01*
X140685289Y-85141050D01*
X140635096Y-85108257D01*
X140600683Y-85086540D01*
X140584414Y-85077472D01*
X140583670Y-85077300D01*
X140571918Y-85086000D01*
X140544290Y-85110816D01*
X140502788Y-85149821D01*
X140449415Y-85201088D01*
X140386172Y-85262688D01*
X140315061Y-85332696D01*
X140238084Y-85409182D01*
X140215626Y-85431624D01*
X140120319Y-85527376D01*
X140042187Y-85606812D01*
X139980066Y-85671195D01*
X139932795Y-85721785D01*
X139899212Y-85759846D01*
X139878154Y-85786638D01*
X139868460Y-85803423D01*
X139867670Y-85809449D01*
X139876074Y-85824949D01*
X139897313Y-85858866D01*
X139929753Y-85908740D01*
X139971763Y-85972109D01*
X140021711Y-86046514D01*
X140077964Y-86129494D01*
X140138889Y-86218588D01*
X140144379Y-86226580D01*
X140225882Y-86346024D01*
X140292447Y-86445442D01*
X140344298Y-86525189D01*
X140381658Y-86585615D01*
X140404753Y-86627075D01*
X140413804Y-86649923D01*
X140413961Y-86652030D01*
X140408691Y-86672756D01*
X140394517Y-86712862D01*
X140373032Y-86768617D01*
X140345829Y-86836293D01*
X140314503Y-86912160D01*
X140280647Y-86992487D01*
X140245856Y-87073546D01*
X140211723Y-87151607D01*
X140179842Y-87222940D01*
X140151807Y-87283815D01*
X140129212Y-87330503D01*
X140113651Y-87359275D01*
X140108886Y-87365899D01*
X140094280Y-87373637D01*
X140062923Y-87383591D01*
X140013415Y-87396072D01*
X139944353Y-87411393D01*
X139854336Y-87429865D01*
X139741963Y-87451801D01*
X139615064Y-87475787D01*
X139508551Y-87495837D01*
X139409731Y-87514724D01*
X139321428Y-87531889D01*
X139246465Y-87546770D01*
X139187666Y-87558805D01*
X139147854Y-87567433D01*
X139129855Y-87572093D01*
X139129289Y-87572362D01*
X139125371Y-87586488D01*
X139122139Y-87623858D01*
X139119583Y-87684868D01*
X139117691Y-87769912D01*
X139116454Y-87879386D01*
X139115860Y-88013685D01*
X139115800Y-88080044D01*
X139115934Y-88209300D01*
X139116385Y-88315374D01*
X139117231Y-88400483D01*
X139118548Y-88466845D01*
X139120414Y-88516677D01*
X139122905Y-88552195D01*
X139126098Y-88575617D01*
X139130071Y-88589160D01*
X139133628Y-88594185D01*
X139149836Y-88599836D01*
X139188128Y-88609413D01*
X139245600Y-88622303D01*
X139319344Y-88637890D01*
X139406455Y-88655562D01*
X139504028Y-88674704D01*
X139609155Y-88694702D01*
X139610147Y-88694888D01*
X139735352Y-88718748D01*
X139844097Y-88740315D01*
X139934789Y-88759239D01*
X140005837Y-88775172D01*
X140055650Y-88787767D01*
X140082634Y-88796674D01*
X140086675Y-88799122D01*
X140097073Y-88816823D01*
X140114852Y-88854693D01*
X140138572Y-88909080D01*
X140166793Y-88976335D01*
X140198076Y-89052806D01*
X140230979Y-89134842D01*
X140264065Y-89218793D01*
X140295893Y-89301008D01*
X140325023Y-89377837D01*
X140350015Y-89445627D01*
X140369431Y-89500730D01*
X140381829Y-89539494D01*
X140385800Y-89557607D01*
X140380416Y-89575799D01*
X140363808Y-89608424D01*
X140335296Y-89656567D01*
X140294199Y-89721312D01*
X140239836Y-89803743D01*
X140171527Y-89904945D01*
X140125450Y-89972377D01*
X140065670Y-90060100D01*
X140010724Y-90141780D01*
X139962230Y-90214934D01*
X139921805Y-90277077D01*
X139891065Y-90325724D01*
X139871627Y-90358391D01*
X139865100Y-90372446D01*
X139873826Y-90385654D01*
X139898710Y-90414638D01*
X139937815Y-90457354D01*
X139989202Y-90511755D01*
X140050931Y-90575795D01*
X140121066Y-90647428D01*
X140197667Y-90724608D01*
X140218497Y-90745424D01*
X140310654Y-90837085D01*
X140386663Y-90911978D01*
X140448094Y-90971535D01*
X140496520Y-91017187D01*
X140533510Y-91050363D01*
X140560638Y-91072494D01*
X140579475Y-91085010D01*
X140591591Y-91089342D01*
X140595771Y-91088831D01*
X140611556Y-91079679D01*
X140645660Y-91057799D01*
X140695511Y-91024908D01*
X140758538Y-90982726D01*
X140832169Y-90932973D01*
X140913833Y-90877368D01*
X140985828Y-90828034D01*
X141072211Y-90769178D01*
X141152840Y-90715210D01*
X141225131Y-90667784D01*
X141286502Y-90628554D01*
X141334371Y-90599177D01*
X141366154Y-90581307D01*
X141378500Y-90576400D01*
X141398712Y-90582142D01*
X141436519Y-90597944D01*
X141487235Y-90621667D01*
X141546173Y-90651171D01*
X141573250Y-90665300D01*
X141633592Y-90696539D01*
X141686973Y-90722976D01*
X141728942Y-90742497D01*
X141755049Y-90752988D01*
X141760462Y-90754200D01*
X141775896Y-90743105D01*
X141794883Y-90713817D01*
X141807276Y-90687525D01*
X141869415Y-90538563D01*
X141932140Y-90387703D01*
X141994691Y-90236804D01*
X142056309Y-90087727D01*
X142116233Y-89942330D01*
X142173705Y-89802475D01*
X142227964Y-89670021D01*
X142278250Y-89546828D01*
X142323805Y-89434755D01*
X142363868Y-89335662D01*
X142397679Y-89251410D01*
X142424480Y-89183858D01*
X142443509Y-89134866D01*
X142454008Y-89106295D01*
X142455900Y-89099624D01*
X142445875Y-89080758D01*
X142420368Y-89056905D01*
X142402790Y-89044591D01*
X142253806Y-88940158D01*
X142128510Y-88829273D01*
X142025629Y-88710170D01*
X141943887Y-88581085D01*
X141882011Y-88440251D01*
X141838724Y-88285906D01*
X141832490Y-88254876D01*
X141824185Y-88180975D01*
X141822849Y-88091728D01*
X141827957Y-87996058D01*
X141838980Y-87902886D01*
X141855392Y-87821135D01*
X141858886Y-87808291D01*
X141914957Y-87656433D01*
X141991489Y-87517859D01*
X142086467Y-87394089D01*
X142197875Y-87286646D01*
X142323699Y-87197050D01*
X142461922Y-87126824D01*
X142610530Y-87077489D01*
X142767507Y-87050568D01*
X142868650Y-87045799D01*
X143029823Y-87057987D01*
X143183883Y-87093537D01*
X143328812Y-87150925D01*
X143462598Y-87228632D01*
X143583224Y-87325134D01*
X143688675Y-87438911D01*
X143776936Y-87568440D01*
X143845992Y-87712200D01*
X143878415Y-87808291D01*
X143895743Y-87887031D01*
X143907777Y-87978802D01*
X143913991Y-88074681D01*
X143913858Y-88165747D01*
X143906848Y-88243076D01*
X143904811Y-88254876D01*
X143864916Y-88411991D01*
X143806673Y-88555259D01*
X143728807Y-88686442D01*
X143630045Y-88807308D01*
X143509110Y-88919620D01*
X143364729Y-89025144D01*
X143334511Y-89044591D01*
X143303549Y-89068196D01*
X143284408Y-89090608D01*
X143281400Y-89099624D01*
X143286157Y-89114430D01*
X143299922Y-89150823D01*
X143321934Y-89206944D01*
X143351434Y-89280932D01*
X143387662Y-89370928D01*
X143429859Y-89475071D01*
X143477264Y-89591503D01*
X143529119Y-89718362D01*
X143584663Y-89853789D01*
X143643137Y-89995925D01*
X143703781Y-90142910D01*
X143765834Y-90292883D01*
X143828539Y-90443984D01*
X143891134Y-90594355D01*
X143930025Y-90687525D01*
X143949053Y-90725514D01*
X143967298Y-90749251D01*
X143976839Y-90754200D01*
X143994285Y-90748501D01*
X144029612Y-90732814D01*
X144078369Y-90709252D01*
X144136105Y-90679928D01*
X144164050Y-90665300D01*
X144225108Y-90633944D01*
X144279984Y-90607438D01*
X144323994Y-90587920D01*
X144352453Y-90577529D01*
X144358801Y-90576400D01*
X144375178Y-90583396D01*
X144409797Y-90603280D01*
X144460074Y-90634399D01*
X144523427Y-90675096D01*
X144597273Y-90723717D01*
X144679030Y-90778607D01*
X144751473Y-90828034D01*
X144837849Y-90887188D01*
X144918325Y-90941917D01*
X144990330Y-90990501D01*
X145051292Y-91031220D01*
X145098640Y-91062355D01*
X145129803Y-91082187D01*
X145141530Y-91088831D01*
X145150764Y-91088201D01*
X145165898Y-91080134D01*
X145188503Y-91063199D01*
X145220150Y-91035966D01*
X145262412Y-90997003D01*
X145316860Y-90944881D01*
X145385066Y-90878170D01*
X145468600Y-90795438D01*
X145518804Y-90745424D01*
X145596775Y-90667132D01*
X145668785Y-90593853D01*
X145732897Y-90527633D01*
X145787172Y-90470517D01*
X145829671Y-90424552D01*
X145858456Y-90391784D01*
X145871589Y-90374258D01*
X145872200Y-90372446D01*
X145865229Y-90357593D01*
X145845392Y-90324357D01*
X145814306Y-90275224D01*
X145773588Y-90212678D01*
X145724855Y-90139202D01*
X145669723Y-90057282D01*
X145611850Y-89972377D01*
X145535175Y-89859838D01*
X145472840Y-89766696D01*
X145424164Y-89691868D01*
X145388466Y-89634269D01*
X145365065Y-89592813D01*
X145353281Y-89566417D01*
X145351500Y-89557607D01*
X145356153Y-89537144D01*
X145369149Y-89496976D01*
X145389051Y-89440754D01*
X145414418Y-89372128D01*
X145443810Y-89294749D01*
X145475787Y-89212267D01*
X145508910Y-89128334D01*
X145541740Y-89046600D01*
X145572835Y-88970716D01*
X145600757Y-88904333D01*
X145624066Y-88851102D01*
X145641322Y-88814673D01*
X145650626Y-88799122D01*
X145668056Y-88791783D01*
X145708949Y-88780618D01*
X145771713Y-88765975D01*
X145854756Y-88748203D01*
X145956487Y-88727650D01*
X146075314Y-88704663D01*
X146127154Y-88694888D01*
X146232337Y-88674885D01*
X146329992Y-88655733D01*
X146417212Y-88638044D01*
X146491093Y-88622435D01*
X146548727Y-88609517D01*
X146587209Y-88599907D01*
X146603633Y-88594217D01*
X146603673Y-88594185D01*
X146608284Y-88586625D01*
X146612057Y-88570858D01*
X146615071Y-88544667D01*
X146617401Y-88505834D01*
X146619125Y-88452142D01*
X146620319Y-88381375D01*
X146621061Y-88291315D01*
X146621427Y-88179745D01*
X146621501Y-88080044D01*
X146621184Y-87934808D01*
X146620229Y-87814570D01*
X146618624Y-87718933D01*
X146616358Y-87647503D01*
X146613421Y-87599885D01*
X146609804Y-87575683D01*
X146608012Y-87572362D01*
X146592868Y-87568225D01*
X146555567Y-87560052D01*
X146498934Y-87548402D01*
X146425791Y-87533839D01*
X146338965Y-87516922D01*
X146241277Y-87498215D01*
X146135552Y-87478277D01*
X146122237Y-87475787D01*
X145987632Y-87450322D01*
X145876697Y-87428612D01*
X145788032Y-87410346D01*
X145720233Y-87395212D01*
X145671901Y-87382898D01*
X145641632Y-87373092D01*
X145628415Y-87365899D01*
X145617118Y-87347860D01*
X145597962Y-87309975D01*
X145572543Y-87255974D01*
X145542453Y-87189585D01*
X145509286Y-87114539D01*
X145474636Y-87034566D01*
X145440098Y-86953394D01*
X145407264Y-86874754D01*
X145377729Y-86802375D01*
X145353087Y-86739987D01*
X145334931Y-86691320D01*
X145324856Y-86660102D01*
X145323340Y-86652030D01*
X145329962Y-86632397D01*
X145350587Y-86594213D01*
X145385440Y-86537124D01*
X145434744Y-86460778D01*
X145498723Y-86364821D01*
X145577601Y-86248899D01*
X145592922Y-86226580D01*
X145654178Y-86137068D01*
X145710904Y-86053456D01*
X145761468Y-85978204D01*
X145804236Y-85913773D01*
X145837578Y-85862622D01*
X145859860Y-85827213D01*
X145869450Y-85810006D01*
X145869631Y-85809449D01*
X145866530Y-85798346D01*
X145852800Y-85778035D01*
X145827281Y-85747254D01*
X145788809Y-85704741D01*
X145736223Y-85649236D01*
X145668362Y-85579475D01*
X145584062Y-85494198D01*
X145521675Y-85431624D01*
X145443408Y-85353660D01*
X145370443Y-85281633D01*
X145304782Y-85217471D01*
X145248427Y-85163100D01*
X145203380Y-85120447D01*
X145171643Y-85091441D01*
X145155218Y-85078008D01*
X145153631Y-85077300D01*
X145140383Y-85084270D01*
X145108622Y-85104132D01*
X145060717Y-85135314D01*
X144999033Y-85176243D01*
X144925939Y-85225346D01*
X144843800Y-85281053D01*
X144754985Y-85341789D01*
X144740796Y-85351537D01*
X144650363Y-85413476D01*
X144565565Y-85471128D01*
X144488892Y-85522829D01*
X144422835Y-85566921D01*
X144369884Y-85601740D01*
X144332530Y-85625627D01*
X144313263Y-85636919D01*
X144312267Y-85637356D01*
X144299191Y-85639215D01*
X144278323Y-85636374D01*
X144247138Y-85627974D01*
X144203116Y-85613155D01*
X144143733Y-85591060D01*
X144066466Y-85560829D01*
X143968794Y-85521603D01*
X143950317Y-85514116D01*
X143863079Y-85478299D01*
X143782787Y-85444519D01*
X143712696Y-85414208D01*
X143656061Y-85388801D01*
X143616136Y-85369732D01*
X143596175Y-85358435D01*
X143595284Y-85357677D01*
X143587815Y-85345125D01*
X143578808Y-85319295D01*
X143567856Y-85278370D01*
X143554552Y-85220531D01*
X143538488Y-85143962D01*
X143519257Y-85046844D01*
X143496452Y-84927359D01*
X143484159Y-84861755D01*
X143464338Y-84755227D01*
X143446065Y-84656541D01*
X143429850Y-84568485D01*
X143416202Y-84493844D01*
X143405630Y-84435405D01*
X143398643Y-84395952D01*
X143395750Y-84378274D01*
X143395700Y-84377682D01*
X143387678Y-84361843D01*
X143375743Y-84347957D01*
X143368062Y-84342806D01*
X143354741Y-84338608D01*
X143333384Y-84335270D01*
X143301596Y-84332696D01*
X143256983Y-84330794D01*
X143197149Y-84329467D01*
X143119700Y-84328624D01*
X143022239Y-84328168D01*
X142902372Y-84328005D01*
X142868650Y-84328000D01*
X142742813Y-84328103D01*
X142742813Y-84328103D01*
G37*
X142742813Y-84328103D02*
X142639979Y-84328477D01*
X142557755Y-84329215D01*
X142493745Y-84330412D01*
X142445554Y-84332162D01*
X142410787Y-84334559D01*
X142387049Y-84337697D01*
X142371945Y-84341671D01*
X142363079Y-84346575D01*
X142361558Y-84347957D01*
X142345605Y-84367606D01*
X142341600Y-84377136D01*
X142339348Y-84391284D01*
X142332929Y-84427617D01*
X142322853Y-84483357D01*
X142309627Y-84555723D01*
X142293760Y-84641934D01*
X142275761Y-84739212D01*
X142256137Y-84844775D01*
X142253059Y-84861293D01*
X142228355Y-84992403D01*
X142207418Y-85100255D01*
X142189846Y-85186647D01*
X142175237Y-85253377D01*
X142163189Y-85302241D01*
X142153299Y-85335038D01*
X142145165Y-85353565D01*
X142141934Y-85357760D01*
X142124584Y-85368017D01*
X142086881Y-85386217D01*
X142032080Y-85410928D01*
X141963434Y-85440717D01*
X141884196Y-85474150D01*
X141797619Y-85509795D01*
X141786984Y-85514116D01*
X141685658Y-85554927D01*
X141605159Y-85586601D01*
X141542965Y-85609995D01*
X141496553Y-85625969D01*
X141463400Y-85635381D01*
X141440984Y-85639091D01*
X141426782Y-85637957D01*
X141425034Y-85637356D01*
X141408154Y-85627720D01*
X141372882Y-85605287D01*
X141321707Y-85571718D01*
X141257122Y-85528673D01*
X141181615Y-85477815D01*
X141097679Y-85420803D01*
X141007803Y-85359299D01*
X140996505Y-85351537D01*
X140906868Y-85290163D01*
X140823542Y-85233575D01*
X140748893Y-85183347D01*
X140685289Y-85141050D01*
X140635096Y-85108257D01*
X140600683Y-85086540D01*
X140584414Y-85077472D01*
X140583670Y-85077300D01*
X140571918Y-85086000D01*
X140544290Y-85110816D01*
X140502788Y-85149821D01*
X140449415Y-85201088D01*
X140386172Y-85262688D01*
X140315061Y-85332696D01*
X140238084Y-85409182D01*
X140215626Y-85431624D01*
X140120319Y-85527376D01*
X140042187Y-85606812D01*
X139980066Y-85671195D01*
X139932795Y-85721785D01*
X139899212Y-85759846D01*
X139878154Y-85786638D01*
X139868460Y-85803423D01*
X139867670Y-85809449D01*
X139876074Y-85824949D01*
X139897313Y-85858866D01*
X139929753Y-85908740D01*
X139971763Y-85972109D01*
X140021711Y-86046514D01*
X140077964Y-86129494D01*
X140138889Y-86218588D01*
X140144379Y-86226580D01*
X140225882Y-86346024D01*
X140292447Y-86445442D01*
X140344298Y-86525189D01*
X140381658Y-86585615D01*
X140404753Y-86627075D01*
X140413804Y-86649923D01*
X140413961Y-86652030D01*
X140408691Y-86672756D01*
X140394517Y-86712862D01*
X140373032Y-86768617D01*
X140345829Y-86836293D01*
X140314503Y-86912160D01*
X140280647Y-86992487D01*
X140245856Y-87073546D01*
X140211723Y-87151607D01*
X140179842Y-87222940D01*
X140151807Y-87283815D01*
X140129212Y-87330503D01*
X140113651Y-87359275D01*
X140108886Y-87365899D01*
X140094280Y-87373637D01*
X140062923Y-87383591D01*
X140013415Y-87396072D01*
X139944353Y-87411393D01*
X139854336Y-87429865D01*
X139741963Y-87451801D01*
X139615064Y-87475787D01*
X139508551Y-87495837D01*
X139409731Y-87514724D01*
X139321428Y-87531889D01*
X139246465Y-87546770D01*
X139187666Y-87558805D01*
X139147854Y-87567433D01*
X139129855Y-87572093D01*
X139129289Y-87572362D01*
X139125371Y-87586488D01*
X139122139Y-87623858D01*
X139119583Y-87684868D01*
X139117691Y-87769912D01*
X139116454Y-87879386D01*
X139115860Y-88013685D01*
X139115800Y-88080044D01*
X139115934Y-88209300D01*
X139116385Y-88315374D01*
X139117231Y-88400483D01*
X139118548Y-88466845D01*
X139120414Y-88516677D01*
X139122905Y-88552195D01*
X139126098Y-88575617D01*
X139130071Y-88589160D01*
X139133628Y-88594185D01*
X139149836Y-88599836D01*
X139188128Y-88609413D01*
X139245600Y-88622303D01*
X139319344Y-88637890D01*
X139406455Y-88655562D01*
X139504028Y-88674704D01*
X139609155Y-88694702D01*
X139610147Y-88694888D01*
X139735352Y-88718748D01*
X139844097Y-88740315D01*
X139934789Y-88759239D01*
X140005837Y-88775172D01*
X140055650Y-88787767D01*
X140082634Y-88796674D01*
X140086675Y-88799122D01*
X140097073Y-88816823D01*
X140114852Y-88854693D01*
X140138572Y-88909080D01*
X140166793Y-88976335D01*
X140198076Y-89052806D01*
X140230979Y-89134842D01*
X140264065Y-89218793D01*
X140295893Y-89301008D01*
X140325023Y-89377837D01*
X140350015Y-89445627D01*
X140369431Y-89500730D01*
X140381829Y-89539494D01*
X140385800Y-89557607D01*
X140380416Y-89575799D01*
X140363808Y-89608424D01*
X140335296Y-89656567D01*
X140294199Y-89721312D01*
X140239836Y-89803743D01*
X140171527Y-89904945D01*
X140125450Y-89972377D01*
X140065670Y-90060100D01*
X140010724Y-90141780D01*
X139962230Y-90214934D01*
X139921805Y-90277077D01*
X139891065Y-90325724D01*
X139871627Y-90358391D01*
X139865100Y-90372446D01*
X139873826Y-90385654D01*
X139898710Y-90414638D01*
X139937815Y-90457354D01*
X139989202Y-90511755D01*
X140050931Y-90575795D01*
X140121066Y-90647428D01*
X140197667Y-90724608D01*
X140218497Y-90745424D01*
X140310654Y-90837085D01*
X140386663Y-90911978D01*
X140448094Y-90971535D01*
X140496520Y-91017187D01*
X140533510Y-91050363D01*
X140560638Y-91072494D01*
X140579475Y-91085010D01*
X140591591Y-91089342D01*
X140595771Y-91088831D01*
X140611556Y-91079679D01*
X140645660Y-91057799D01*
X140695511Y-91024908D01*
X140758538Y-90982726D01*
X140832169Y-90932973D01*
X140913833Y-90877368D01*
X140985828Y-90828034D01*
X141072211Y-90769178D01*
X141152840Y-90715210D01*
X141225131Y-90667784D01*
X141286502Y-90628554D01*
X141334371Y-90599177D01*
X141366154Y-90581307D01*
X141378500Y-90576400D01*
X141398712Y-90582142D01*
X141436519Y-90597944D01*
X141487235Y-90621667D01*
X141546173Y-90651171D01*
X141573250Y-90665300D01*
X141633592Y-90696539D01*
X141686973Y-90722976D01*
X141728942Y-90742497D01*
X141755049Y-90752988D01*
X141760462Y-90754200D01*
X141775896Y-90743105D01*
X141794883Y-90713817D01*
X141807276Y-90687525D01*
X141869415Y-90538563D01*
X141932140Y-90387703D01*
X141994691Y-90236804D01*
X142056309Y-90087727D01*
X142116233Y-89942330D01*
X142173705Y-89802475D01*
X142227964Y-89670021D01*
X142278250Y-89546828D01*
X142323805Y-89434755D01*
X142363868Y-89335662D01*
X142397679Y-89251410D01*
X142424480Y-89183858D01*
X142443509Y-89134866D01*
X142454008Y-89106295D01*
X142455900Y-89099624D01*
X142445875Y-89080758D01*
X142420368Y-89056905D01*
X142402790Y-89044591D01*
X142253806Y-88940158D01*
X142128510Y-88829273D01*
X142025629Y-88710170D01*
X141943887Y-88581085D01*
X141882011Y-88440251D01*
X141838724Y-88285906D01*
X141832490Y-88254876D01*
X141824185Y-88180975D01*
X141822849Y-88091728D01*
X141827957Y-87996058D01*
X141838980Y-87902886D01*
X141855392Y-87821135D01*
X141858886Y-87808291D01*
X141914957Y-87656433D01*
X141991489Y-87517859D01*
X142086467Y-87394089D01*
X142197875Y-87286646D01*
X142323699Y-87197050D01*
X142461922Y-87126824D01*
X142610530Y-87077489D01*
X142767507Y-87050568D01*
X142868650Y-87045799D01*
X143029823Y-87057987D01*
X143183883Y-87093537D01*
X143328812Y-87150925D01*
X143462598Y-87228632D01*
X143583224Y-87325134D01*
X143688675Y-87438911D01*
X143776936Y-87568440D01*
X143845992Y-87712200D01*
X143878415Y-87808291D01*
X143895743Y-87887031D01*
X143907777Y-87978802D01*
X143913991Y-88074681D01*
X143913858Y-88165747D01*
X143906848Y-88243076D01*
X143904811Y-88254876D01*
X143864916Y-88411991D01*
X143806673Y-88555259D01*
X143728807Y-88686442D01*
X143630045Y-88807308D01*
X143509110Y-88919620D01*
X143364729Y-89025144D01*
X143334511Y-89044591D01*
X143303549Y-89068196D01*
X143284408Y-89090608D01*
X143281400Y-89099624D01*
X143286157Y-89114430D01*
X143299922Y-89150823D01*
X143321934Y-89206944D01*
X143351434Y-89280932D01*
X143387662Y-89370928D01*
X143429859Y-89475071D01*
X143477264Y-89591503D01*
X143529119Y-89718362D01*
X143584663Y-89853789D01*
X143643137Y-89995925D01*
X143703781Y-90142910D01*
X143765834Y-90292883D01*
X143828539Y-90443984D01*
X143891134Y-90594355D01*
X143930025Y-90687525D01*
X143949053Y-90725514D01*
X143967298Y-90749251D01*
X143976839Y-90754200D01*
X143994285Y-90748501D01*
X144029612Y-90732814D01*
X144078369Y-90709252D01*
X144136105Y-90679928D01*
X144164050Y-90665300D01*
X144225108Y-90633944D01*
X144279984Y-90607438D01*
X144323994Y-90587920D01*
X144352453Y-90577529D01*
X144358801Y-90576400D01*
X144375178Y-90583396D01*
X144409797Y-90603280D01*
X144460074Y-90634399D01*
X144523427Y-90675096D01*
X144597273Y-90723717D01*
X144679030Y-90778607D01*
X144751473Y-90828034D01*
X144837849Y-90887188D01*
X144918325Y-90941917D01*
X144990330Y-90990501D01*
X145051292Y-91031220D01*
X145098640Y-91062355D01*
X145129803Y-91082187D01*
X145141530Y-91088831D01*
X145150764Y-91088201D01*
X145165898Y-91080134D01*
X145188503Y-91063199D01*
X145220150Y-91035966D01*
X145262412Y-90997003D01*
X145316860Y-90944881D01*
X145385066Y-90878170D01*
X145468600Y-90795438D01*
X145518804Y-90745424D01*
X145596775Y-90667132D01*
X145668785Y-90593853D01*
X145732897Y-90527633D01*
X145787172Y-90470517D01*
X145829671Y-90424552D01*
X145858456Y-90391784D01*
X145871589Y-90374258D01*
X145872200Y-90372446D01*
X145865229Y-90357593D01*
X145845392Y-90324357D01*
X145814306Y-90275224D01*
X145773588Y-90212678D01*
X145724855Y-90139202D01*
X145669723Y-90057282D01*
X145611850Y-89972377D01*
X145535175Y-89859838D01*
X145472840Y-89766696D01*
X145424164Y-89691868D01*
X145388466Y-89634269D01*
X145365065Y-89592813D01*
X145353281Y-89566417D01*
X145351500Y-89557607D01*
X145356153Y-89537144D01*
X145369149Y-89496976D01*
X145389051Y-89440754D01*
X145414418Y-89372128D01*
X145443810Y-89294749D01*
X145475787Y-89212267D01*
X145508910Y-89128334D01*
X145541740Y-89046600D01*
X145572835Y-88970716D01*
X145600757Y-88904333D01*
X145624066Y-88851102D01*
X145641322Y-88814673D01*
X145650626Y-88799122D01*
X145668056Y-88791783D01*
X145708949Y-88780618D01*
X145771713Y-88765975D01*
X145854756Y-88748203D01*
X145956487Y-88727650D01*
X146075314Y-88704663D01*
X146127154Y-88694888D01*
X146232337Y-88674885D01*
X146329992Y-88655733D01*
X146417212Y-88638044D01*
X146491093Y-88622435D01*
X146548727Y-88609517D01*
X146587209Y-88599907D01*
X146603633Y-88594217D01*
X146603673Y-88594185D01*
X146608284Y-88586625D01*
X146612057Y-88570858D01*
X146615071Y-88544667D01*
X146617401Y-88505834D01*
X146619125Y-88452142D01*
X146620319Y-88381375D01*
X146621061Y-88291315D01*
X146621427Y-88179745D01*
X146621501Y-88080044D01*
X146621184Y-87934808D01*
X146620229Y-87814570D01*
X146618624Y-87718933D01*
X146616358Y-87647503D01*
X146613421Y-87599885D01*
X146609804Y-87575683D01*
X146608012Y-87572362D01*
X146592868Y-87568225D01*
X146555567Y-87560052D01*
X146498934Y-87548402D01*
X146425791Y-87533839D01*
X146338965Y-87516922D01*
X146241277Y-87498215D01*
X146135552Y-87478277D01*
X146122237Y-87475787D01*
X145987632Y-87450322D01*
X145876697Y-87428612D01*
X145788032Y-87410346D01*
X145720233Y-87395212D01*
X145671901Y-87382898D01*
X145641632Y-87373092D01*
X145628415Y-87365899D01*
X145617118Y-87347860D01*
X145597962Y-87309975D01*
X145572543Y-87255974D01*
X145542453Y-87189585D01*
X145509286Y-87114539D01*
X145474636Y-87034566D01*
X145440098Y-86953394D01*
X145407264Y-86874754D01*
X145377729Y-86802375D01*
X145353087Y-86739987D01*
X145334931Y-86691320D01*
X145324856Y-86660102D01*
X145323340Y-86652030D01*
X145329962Y-86632397D01*
X145350587Y-86594213D01*
X145385440Y-86537124D01*
X145434744Y-86460778D01*
X145498723Y-86364821D01*
X145577601Y-86248899D01*
X145592922Y-86226580D01*
X145654178Y-86137068D01*
X145710904Y-86053456D01*
X145761468Y-85978204D01*
X145804236Y-85913773D01*
X145837578Y-85862622D01*
X145859860Y-85827213D01*
X145869450Y-85810006D01*
X145869631Y-85809449D01*
X145866530Y-85798346D01*
X145852800Y-85778035D01*
X145827281Y-85747254D01*
X145788809Y-85704741D01*
X145736223Y-85649236D01*
X145668362Y-85579475D01*
X145584062Y-85494198D01*
X145521675Y-85431624D01*
X145443408Y-85353660D01*
X145370443Y-85281633D01*
X145304782Y-85217471D01*
X145248427Y-85163100D01*
X145203380Y-85120447D01*
X145171643Y-85091441D01*
X145155218Y-85078008D01*
X145153631Y-85077300D01*
X145140383Y-85084270D01*
X145108622Y-85104132D01*
X145060717Y-85135314D01*
X144999033Y-85176243D01*
X144925939Y-85225346D01*
X144843800Y-85281053D01*
X144754985Y-85341789D01*
X144740796Y-85351537D01*
X144650363Y-85413476D01*
X144565565Y-85471128D01*
X144488892Y-85522829D01*
X144422835Y-85566921D01*
X144369884Y-85601740D01*
X144332530Y-85625627D01*
X144313263Y-85636919D01*
X144312267Y-85637356D01*
X144299191Y-85639215D01*
X144278323Y-85636374D01*
X144247138Y-85627974D01*
X144203116Y-85613155D01*
X144143733Y-85591060D01*
X144066466Y-85560829D01*
X143968794Y-85521603D01*
X143950317Y-85514116D01*
X143863079Y-85478299D01*
X143782787Y-85444519D01*
X143712696Y-85414208D01*
X143656061Y-85388801D01*
X143616136Y-85369732D01*
X143596175Y-85358435D01*
X143595284Y-85357677D01*
X143587815Y-85345125D01*
X143578808Y-85319295D01*
X143567856Y-85278370D01*
X143554552Y-85220531D01*
X143538488Y-85143962D01*
X143519257Y-85046844D01*
X143496452Y-84927359D01*
X143484159Y-84861755D01*
X143464338Y-84755227D01*
X143446065Y-84656541D01*
X143429850Y-84568485D01*
X143416202Y-84493844D01*
X143405630Y-84435405D01*
X143398643Y-84395952D01*
X143395750Y-84378274D01*
X143395700Y-84377682D01*
X143387678Y-84361843D01*
X143375743Y-84347957D01*
X143368062Y-84342806D01*
X143354741Y-84338608D01*
X143333384Y-84335270D01*
X143301596Y-84332696D01*
X143256983Y-84330794D01*
X143197149Y-84329467D01*
X143119700Y-84328624D01*
X143022239Y-84328168D01*
X142902372Y-84328005D01*
X142868650Y-84328000D01*
X142742813Y-84328103D01*
G36*
X139860090Y-91875198D02*
G01*
X139798347Y-91895619D01*
X139781864Y-91903329D01*
X139712229Y-91937399D01*
X139749630Y-91983974D01*
X139782730Y-92024619D01*
X139817411Y-92066383D01*
X139824241Y-92074481D01*
X139861451Y-92118412D01*
X139898201Y-92094292D01*
X139953164Y-92072361D01*
X140014094Y-92070723D01*
X140074351Y-92087621D01*
X140127291Y-92121299D01*
X140163101Y-92164349D01*
X140170914Y-92179211D01*
X140177053Y-92196211D01*
X140181771Y-92218571D01*
X140185320Y-92249514D01*
X140187954Y-92292262D01*
X140189925Y-92350037D01*
X140191486Y-92426063D01*
X140192890Y-92523560D01*
X140193201Y-92548075D01*
X140197451Y-92887800D01*
X140292024Y-92887800D01*
X140349559Y-92885736D01*
X140382951Y-92879448D01*
X140392703Y-92871889D01*
X140393980Y-92856012D01*
X140394996Y-92817596D01*
X140395736Y-92759502D01*
X140396183Y-92684590D01*
X140396322Y-92595721D01*
X140396138Y-92495754D01*
X140395613Y-92387550D01*
X140395479Y-92367064D01*
X140392150Y-91878150D01*
X140293725Y-91874440D01*
X140195300Y-91870731D01*
X140195300Y-91922065D01*
X140192412Y-91958760D01*
X140182631Y-91971640D01*
X140164290Y-91961750D01*
X140151913Y-91949174D01*
X140112310Y-91919137D01*
X140056011Y-91893766D01*
X139991668Y-91876122D01*
X139927935Y-91869267D01*
X139926019Y-91869259D01*
X139860090Y-91875198D01*
X139860090Y-91875198D01*
G37*
X139860090Y-91875198D02*
X139798347Y-91895619D01*
X139781864Y-91903329D01*
X139712229Y-91937399D01*
X139749630Y-91983974D01*
X139782730Y-92024619D01*
X139817411Y-92066383D01*
X139824241Y-92074481D01*
X139861451Y-92118412D01*
X139898201Y-92094292D01*
X139953164Y-92072361D01*
X140014094Y-92070723D01*
X140074351Y-92087621D01*
X140127291Y-92121299D01*
X140163101Y-92164349D01*
X140170914Y-92179211D01*
X140177053Y-92196211D01*
X140181771Y-92218571D01*
X140185320Y-92249514D01*
X140187954Y-92292262D01*
X140189925Y-92350037D01*
X140191486Y-92426063D01*
X140192890Y-92523560D01*
X140193201Y-92548075D01*
X140197451Y-92887800D01*
X140292024Y-92887800D01*
X140349559Y-92885736D01*
X140382951Y-92879448D01*
X140392703Y-92871889D01*
X140393980Y-92856012D01*
X140394996Y-92817596D01*
X140395736Y-92759502D01*
X140396183Y-92684590D01*
X140396322Y-92595721D01*
X140396138Y-92495754D01*
X140395613Y-92387550D01*
X140395479Y-92367064D01*
X140392150Y-91878150D01*
X140293725Y-91874440D01*
X140195300Y-91870731D01*
X140195300Y-91922065D01*
X140192412Y-91958760D01*
X140182631Y-91971640D01*
X140164290Y-91961750D01*
X140151913Y-91949174D01*
X140112310Y-91919137D01*
X140056011Y-91893766D01*
X139991668Y-91876122D01*
X139927935Y-91869267D01*
X139926019Y-91869259D01*
X139860090Y-91875198D01*
G36*
X144198906Y-91880528D02*
G01*
X144116307Y-91913585D01*
X144046480Y-91966548D01*
X143992686Y-92037371D01*
X143978527Y-92065382D01*
X143969928Y-92085286D01*
X143963151Y-92104446D01*
X143957977Y-92126061D01*
X143954188Y-92153329D01*
X143951565Y-92189449D01*
X143949889Y-92237619D01*
X143948943Y-92301039D01*
X143948506Y-92382908D01*
X143948360Y-92486423D01*
X143948349Y-92506800D01*
X143948150Y-92881450D01*
X144143122Y-92888834D01*
X144147236Y-92554942D01*
X144148611Y-92453235D01*
X144150106Y-92373603D01*
X144151987Y-92312719D01*
X144154521Y-92267258D01*
X144157972Y-92233895D01*
X144162608Y-92209303D01*
X144168693Y-92190157D01*
X144176494Y-92173132D01*
X144177989Y-92170250D01*
X144217658Y-92119027D01*
X144269950Y-92085842D01*
X144329511Y-92070786D01*
X144390986Y-92073952D01*
X144449023Y-92095432D01*
X144498266Y-92135320D01*
X144519201Y-92164349D01*
X144527011Y-92179191D01*
X144533142Y-92196137D01*
X144537845Y-92218410D01*
X144541369Y-92249232D01*
X144543964Y-92291825D01*
X144545882Y-92349413D01*
X144547371Y-92425217D01*
X144548682Y-92522461D01*
X144548983Y-92548075D01*
X144552915Y-92887800D01*
X144754600Y-92887800D01*
X144754600Y-91871800D01*
X144551400Y-91871800D01*
X144551400Y-91988731D01*
X144504699Y-91947726D01*
X144442846Y-91903294D01*
X144377242Y-91878291D01*
X144299182Y-91869525D01*
X144291015Y-91869423D01*
X144198906Y-91880528D01*
X144198906Y-91880528D01*
G37*
X144198906Y-91880528D02*
X144116307Y-91913585D01*
X144046480Y-91966548D01*
X143992686Y-92037371D01*
X143978527Y-92065382D01*
X143969928Y-92085286D01*
X143963151Y-92104446D01*
X143957977Y-92126061D01*
X143954188Y-92153329D01*
X143951565Y-92189449D01*
X143949889Y-92237619D01*
X143948943Y-92301039D01*
X143948506Y-92382908D01*
X143948360Y-92486423D01*
X143948349Y-92506800D01*
X143948150Y-92881450D01*
X144143122Y-92888834D01*
X144147236Y-92554942D01*
X144148611Y-92453235D01*
X144150106Y-92373603D01*
X144151987Y-92312719D01*
X144154521Y-92267258D01*
X144157972Y-92233895D01*
X144162608Y-92209303D01*
X144168693Y-92190157D01*
X144176494Y-92173132D01*
X144177989Y-92170250D01*
X144217658Y-92119027D01*
X144269950Y-92085842D01*
X144329511Y-92070786D01*
X144390986Y-92073952D01*
X144449023Y-92095432D01*
X144498266Y-92135320D01*
X144519201Y-92164349D01*
X144527011Y-92179191D01*
X144533142Y-92196137D01*
X144537845Y-92218410D01*
X144541369Y-92249232D01*
X144543964Y-92291825D01*
X144545882Y-92349413D01*
X144547371Y-92425217D01*
X144548682Y-92522461D01*
X144548983Y-92548075D01*
X144552915Y-92887800D01*
X144754600Y-92887800D01*
X144754600Y-91871800D01*
X144551400Y-91871800D01*
X144551400Y-91988731D01*
X144504699Y-91947726D01*
X144442846Y-91903294D01*
X144377242Y-91878291D01*
X144299182Y-91869525D01*
X144291015Y-91869423D01*
X144198906Y-91880528D01*
G36*
X138316952Y-91889569D02*
G01*
X138230082Y-91930000D01*
X138176516Y-91968565D01*
X138115123Y-92036785D01*
X138071283Y-92123345D01*
X138045005Y-92228217D01*
X138036300Y-92350718D01*
X138036300Y-92456000D01*
X138661904Y-92456000D01*
X138655299Y-92514600D01*
X138636540Y-92580780D01*
X138599214Y-92634002D01*
X138547328Y-92672955D01*
X138484887Y-92696326D01*
X138415898Y-92702805D01*
X138344367Y-92691078D01*
X138274299Y-92659835D01*
X138253671Y-92646105D01*
X138203056Y-92609439D01*
X138132378Y-92667625D01*
X138097766Y-92697338D01*
X138072572Y-92721288D01*
X138061793Y-92734695D01*
X138061700Y-92735256D01*
X138070946Y-92747524D01*
X138094901Y-92769615D01*
X138120607Y-92790595D01*
X138212899Y-92846704D01*
X138316223Y-92880743D01*
X138427974Y-92892069D01*
X138508860Y-92886274D01*
X138607822Y-92861367D01*
X138690979Y-92816767D01*
X138758031Y-92752900D01*
X138808678Y-92670192D01*
X138842619Y-92569069D01*
X138859553Y-92449956D01*
X138861553Y-92386150D01*
X138857698Y-92290900D01*
X138658600Y-92290900D01*
X138239500Y-92290900D01*
X138239500Y-92261840D01*
X138247495Y-92224209D01*
X138267893Y-92178299D01*
X138295315Y-92133970D01*
X138324381Y-92101078D01*
X138329383Y-92097125D01*
X138389873Y-92067900D01*
X138458297Y-92058787D01*
X138526944Y-92069890D01*
X138577401Y-92093767D01*
X138606957Y-92123847D01*
X138633704Y-92168875D01*
X138652482Y-92218508D01*
X138658322Y-92255975D01*
X138658600Y-92290900D01*
X138857698Y-92290900D01*
X138857430Y-92284297D01*
X138844054Y-92199095D01*
X138819765Y-92122957D01*
X138790845Y-92062521D01*
X138736371Y-91987114D01*
X138667060Y-91929569D01*
X138586688Y-91890465D01*
X138499030Y-91870379D01*
X138407859Y-91869888D01*
X138316952Y-91889569D01*
X138316952Y-91889569D01*
G37*
X138316952Y-91889569D02*
X138230082Y-91930000D01*
X138176516Y-91968565D01*
X138115123Y-92036785D01*
X138071283Y-92123345D01*
X138045005Y-92228217D01*
X138036300Y-92350718D01*
X138036300Y-92456000D01*
X138661904Y-92456000D01*
X138655299Y-92514600D01*
X138636540Y-92580780D01*
X138599214Y-92634002D01*
X138547328Y-92672955D01*
X138484887Y-92696326D01*
X138415898Y-92702805D01*
X138344367Y-92691078D01*
X138274299Y-92659835D01*
X138253671Y-92646105D01*
X138203056Y-92609439D01*
X138132378Y-92667625D01*
X138097766Y-92697338D01*
X138072572Y-92721288D01*
X138061793Y-92734695D01*
X138061700Y-92735256D01*
X138070946Y-92747524D01*
X138094901Y-92769615D01*
X138120607Y-92790595D01*
X138212899Y-92846704D01*
X138316223Y-92880743D01*
X138427974Y-92892069D01*
X138508860Y-92886274D01*
X138607822Y-92861367D01*
X138690979Y-92816767D01*
X138758031Y-92752900D01*
X138808678Y-92670192D01*
X138842619Y-92569069D01*
X138859553Y-92449956D01*
X138861553Y-92386150D01*
X138857698Y-92290900D01*
X138658600Y-92290900D01*
X138239500Y-92290900D01*
X138239500Y-92261840D01*
X138247495Y-92224209D01*
X138267893Y-92178299D01*
X138295315Y-92133970D01*
X138324381Y-92101078D01*
X138329383Y-92097125D01*
X138389873Y-92067900D01*
X138458297Y-92058787D01*
X138526944Y-92069890D01*
X138577401Y-92093767D01*
X138606957Y-92123847D01*
X138633704Y-92168875D01*
X138652482Y-92218508D01*
X138658322Y-92255975D01*
X138658600Y-92290900D01*
X138857698Y-92290900D01*
X138857430Y-92284297D01*
X138844054Y-92199095D01*
X138819765Y-92122957D01*
X138790845Y-92062521D01*
X138736371Y-91987114D01*
X138667060Y-91929569D01*
X138586688Y-91890465D01*
X138499030Y-91870379D01*
X138407859Y-91869888D01*
X138316952Y-91889569D01*
G36*
X139149529Y-91886011D02*
G01*
X139059763Y-91923052D01*
X139033250Y-91939285D01*
X138997115Y-91965792D01*
X138963199Y-91994483D01*
X138937375Y-92019974D01*
X138925513Y-92036880D01*
X138925300Y-92038294D01*
X138934275Y-92050563D01*
X138957895Y-92074079D01*
X138991204Y-92103931D01*
X138993993Y-92106322D01*
X139062686Y-92165008D01*
X139118683Y-92125537D01*
X139194919Y-92085613D01*
X139273994Y-92070126D01*
X139353171Y-92079231D01*
X139422037Y-92108452D01*
X139467066Y-92148562D01*
X139500822Y-92206332D01*
X139522995Y-92276508D01*
X139533275Y-92353836D01*
X139531351Y-92433064D01*
X139516914Y-92508938D01*
X139489652Y-92576206D01*
X139452626Y-92626327D01*
X139394253Y-92667738D01*
X139325756Y-92688339D01*
X139251726Y-92688024D01*
X139176751Y-92666687D01*
X139118683Y-92634062D01*
X139062686Y-92594591D01*
X138993993Y-92653277D01*
X138960150Y-92683411D01*
X138935619Y-92707581D01*
X138925357Y-92720878D01*
X138925300Y-92721305D01*
X138933805Y-92735210D01*
X138954801Y-92757634D01*
X138960225Y-92762730D01*
X139050198Y-92829993D01*
X139147282Y-92872879D01*
X139251805Y-92891492D01*
X139359640Y-92886589D01*
X139458404Y-92860470D01*
X139544186Y-92813257D01*
X139615685Y-92746409D01*
X139671600Y-92661387D01*
X139710630Y-92559651D01*
X139728061Y-92473094D01*
X139733675Y-92361763D01*
X139721861Y-92252525D01*
X139693995Y-92150560D01*
X139651455Y-92061046D01*
X139600912Y-91994527D01*
X139526920Y-91935279D01*
X139439799Y-91894318D01*
X139344535Y-91872130D01*
X139246115Y-91869199D01*
X139149529Y-91886011D01*
X139149529Y-91886011D01*
G37*
X139149529Y-91886011D02*
X139059763Y-91923052D01*
X139033250Y-91939285D01*
X138997115Y-91965792D01*
X138963199Y-91994483D01*
X138937375Y-92019974D01*
X138925513Y-92036880D01*
X138925300Y-92038294D01*
X138934275Y-92050563D01*
X138957895Y-92074079D01*
X138991204Y-92103931D01*
X138993993Y-92106322D01*
X139062686Y-92165008D01*
X139118683Y-92125537D01*
X139194919Y-92085613D01*
X139273994Y-92070126D01*
X139353171Y-92079231D01*
X139422037Y-92108452D01*
X139467066Y-92148562D01*
X139500822Y-92206332D01*
X139522995Y-92276508D01*
X139533275Y-92353836D01*
X139531351Y-92433064D01*
X139516914Y-92508938D01*
X139489652Y-92576206D01*
X139452626Y-92626327D01*
X139394253Y-92667738D01*
X139325756Y-92688339D01*
X139251726Y-92688024D01*
X139176751Y-92666687D01*
X139118683Y-92634062D01*
X139062686Y-92594591D01*
X138993993Y-92653277D01*
X138960150Y-92683411D01*
X138935619Y-92707581D01*
X138925357Y-92720878D01*
X138925300Y-92721305D01*
X138933805Y-92735210D01*
X138954801Y-92757634D01*
X138960225Y-92762730D01*
X139050198Y-92829993D01*
X139147282Y-92872879D01*
X139251805Y-92891492D01*
X139359640Y-92886589D01*
X139458404Y-92860470D01*
X139544186Y-92813257D01*
X139615685Y-92746409D01*
X139671600Y-92661387D01*
X139710630Y-92559651D01*
X139728061Y-92473094D01*
X139733675Y-92361763D01*
X139721861Y-92252525D01*
X139693995Y-92150560D01*
X139651455Y-92061046D01*
X139600912Y-91994527D01*
X139526920Y-91935279D01*
X139439799Y-91894318D01*
X139344535Y-91872130D01*
X139246115Y-91869199D01*
X139149529Y-91886011D01*
G36*
X141316075Y-91874440D02*
G01*
X141217650Y-91878150D01*
X141211300Y-92221050D01*
X141209080Y-92331326D01*
X141206561Y-92419194D01*
X141203151Y-92487642D01*
X141198256Y-92539659D01*
X141191284Y-92578234D01*
X141181642Y-92606357D01*
X141168739Y-92627017D01*
X141151981Y-92643202D01*
X141130775Y-92657903D01*
X141123834Y-92662238D01*
X141077252Y-92682526D01*
X141020675Y-92689097D01*
X141010727Y-92689068D01*
X140948555Y-92681070D01*
X140901186Y-92656714D01*
X140862990Y-92612365D01*
X140846175Y-92582740D01*
X140837459Y-92564649D01*
X140830721Y-92546423D01*
X140825707Y-92524654D01*
X140822164Y-92495932D01*
X140819837Y-92456848D01*
X140818472Y-92403992D01*
X140817815Y-92333957D01*
X140817612Y-92243332D01*
X140817600Y-92199309D01*
X140817600Y-91871800D01*
X140614400Y-91871800D01*
X140614400Y-92887800D01*
X140817600Y-92887800D01*
X140817600Y-92770544D01*
X140866741Y-92814939D01*
X140936994Y-92861771D01*
X141018854Y-92887535D01*
X141108334Y-92891215D01*
X141145937Y-92886170D01*
X141213515Y-92864696D01*
X141279018Y-92828333D01*
X141332270Y-92783093D01*
X141343971Y-92769169D01*
X141363097Y-92742678D01*
X141378429Y-92716627D01*
X141390381Y-92687918D01*
X141399372Y-92653449D01*
X141405817Y-92610119D01*
X141410134Y-92554828D01*
X141412739Y-92484475D01*
X141414049Y-92395960D01*
X141414480Y-92286181D01*
X141414500Y-92244319D01*
X141414500Y-91870731D01*
X141316075Y-91874440D01*
X141316075Y-91874440D01*
G37*
X141316075Y-91874440D02*
X141217650Y-91878150D01*
X141211300Y-92221050D01*
X141209080Y-92331326D01*
X141206561Y-92419194D01*
X141203151Y-92487642D01*
X141198256Y-92539659D01*
X141191284Y-92578234D01*
X141181642Y-92606357D01*
X141168739Y-92627017D01*
X141151981Y-92643202D01*
X141130775Y-92657903D01*
X141123834Y-92662238D01*
X141077252Y-92682526D01*
X141020675Y-92689097D01*
X141010727Y-92689068D01*
X140948555Y-92681070D01*
X140901186Y-92656714D01*
X140862990Y-92612365D01*
X140846175Y-92582740D01*
X140837459Y-92564649D01*
X140830721Y-92546423D01*
X140825707Y-92524654D01*
X140822164Y-92495932D01*
X140819837Y-92456848D01*
X140818472Y-92403992D01*
X140817815Y-92333957D01*
X140817612Y-92243332D01*
X140817600Y-92199309D01*
X140817600Y-91871800D01*
X140614400Y-91871800D01*
X140614400Y-92887800D01*
X140817600Y-92887800D01*
X140817600Y-92770544D01*
X140866741Y-92814939D01*
X140936994Y-92861771D01*
X141018854Y-92887535D01*
X141108334Y-92891215D01*
X141145937Y-92886170D01*
X141213515Y-92864696D01*
X141279018Y-92828333D01*
X141332270Y-92783093D01*
X141343971Y-92769169D01*
X141363097Y-92742678D01*
X141378429Y-92716627D01*
X141390381Y-92687918D01*
X141399372Y-92653449D01*
X141405817Y-92610119D01*
X141410134Y-92554828D01*
X141412739Y-92484475D01*
X141414049Y-92395960D01*
X141414480Y-92286181D01*
X141414500Y-92244319D01*
X141414500Y-91870731D01*
X141316075Y-91874440D01*
G36*
X141924498Y-91874483D02*
G01*
X141845442Y-91896052D01*
X141775686Y-91935431D01*
X141718783Y-91984958D01*
X141676227Y-92032110D01*
X141644682Y-92079213D01*
X141622650Y-92131183D01*
X141608636Y-92192937D01*
X141601145Y-92269393D01*
X141598680Y-92365465D01*
X141598650Y-92379800D01*
X141600567Y-92478814D01*
X141607313Y-92557565D01*
X141620384Y-92620969D01*
X141641278Y-92673944D01*
X141671488Y-92721405D01*
X141712513Y-92768271D01*
X141718783Y-92774641D01*
X141795329Y-92836248D01*
X141880599Y-92875091D01*
X141976411Y-92891732D01*
X142083018Y-92886944D01*
X142172012Y-92862721D01*
X142253407Y-92816823D01*
X142322719Y-92752784D01*
X142375465Y-92674136D01*
X142388097Y-92646500D01*
X142397184Y-92620183D01*
X142403640Y-92589690D01*
X142407877Y-92550335D01*
X142410305Y-92497434D01*
X142411333Y-92426302D01*
X142411450Y-92379800D01*
X142214600Y-92379800D01*
X142213930Y-92451012D01*
X142211506Y-92502203D01*
X142206708Y-92538725D01*
X142198916Y-92565932D01*
X142191087Y-92582789D01*
X142147937Y-92638968D01*
X142091299Y-92674913D01*
X142024254Y-92689641D01*
X141949882Y-92682170D01*
X141914219Y-92671069D01*
X141866472Y-92641213D01*
X141831255Y-92591811D01*
X141808193Y-92521934D01*
X141796912Y-92430656D01*
X141795571Y-92377351D01*
X141798575Y-92294816D01*
X141808471Y-92231371D01*
X141826775Y-92181281D01*
X141855000Y-92138811D01*
X141860201Y-92132723D01*
X141909154Y-92094955D01*
X141970031Y-92074528D01*
X142035652Y-92072047D01*
X142098834Y-92088117D01*
X142136129Y-92109490D01*
X142166739Y-92136865D01*
X142188527Y-92169100D01*
X142202829Y-92210794D01*
X142210979Y-92266546D01*
X142214315Y-92340955D01*
X142214600Y-92379800D01*
X142411450Y-92379800D01*
X142410996Y-92297153D01*
X142409358Y-92235210D01*
X142406128Y-92189287D01*
X142400894Y-92154698D01*
X142393248Y-92126760D01*
X142388097Y-92113100D01*
X142340039Y-92027411D01*
X142274073Y-91958068D01*
X142193287Y-91907117D01*
X142100769Y-91876608D01*
X142019133Y-91868285D01*
X141924498Y-91874483D01*
X141924498Y-91874483D01*
G37*
X141924498Y-91874483D02*
X141845442Y-91896052D01*
X141775686Y-91935431D01*
X141718783Y-91984958D01*
X141676227Y-92032110D01*
X141644682Y-92079213D01*
X141622650Y-92131183D01*
X141608636Y-92192937D01*
X141601145Y-92269393D01*
X141598680Y-92365465D01*
X141598650Y-92379800D01*
X141600567Y-92478814D01*
X141607313Y-92557565D01*
X141620384Y-92620969D01*
X141641278Y-92673944D01*
X141671488Y-92721405D01*
X141712513Y-92768271D01*
X141718783Y-92774641D01*
X141795329Y-92836248D01*
X141880599Y-92875091D01*
X141976411Y-92891732D01*
X142083018Y-92886944D01*
X142172012Y-92862721D01*
X142253407Y-92816823D01*
X142322719Y-92752784D01*
X142375465Y-92674136D01*
X142388097Y-92646500D01*
X142397184Y-92620183D01*
X142403640Y-92589690D01*
X142407877Y-92550335D01*
X142410305Y-92497434D01*
X142411333Y-92426302D01*
X142411450Y-92379800D01*
X142214600Y-92379800D01*
X142213930Y-92451012D01*
X142211506Y-92502203D01*
X142206708Y-92538725D01*
X142198916Y-92565932D01*
X142191087Y-92582789D01*
X142147937Y-92638968D01*
X142091299Y-92674913D01*
X142024254Y-92689641D01*
X141949882Y-92682170D01*
X141914219Y-92671069D01*
X141866472Y-92641213D01*
X141831255Y-92591811D01*
X141808193Y-92521934D01*
X141796912Y-92430656D01*
X141795571Y-92377351D01*
X141798575Y-92294816D01*
X141808471Y-92231371D01*
X141826775Y-92181281D01*
X141855000Y-92138811D01*
X141860201Y-92132723D01*
X141909154Y-92094955D01*
X141970031Y-92074528D01*
X142035652Y-92072047D01*
X142098834Y-92088117D01*
X142136129Y-92109490D01*
X142166739Y-92136865D01*
X142188527Y-92169100D01*
X142202829Y-92210794D01*
X142210979Y-92266546D01*
X142214315Y-92340955D01*
X142214600Y-92379800D01*
X142411450Y-92379800D01*
X142410996Y-92297153D01*
X142409358Y-92235210D01*
X142406128Y-92189287D01*
X142400894Y-92154698D01*
X142393248Y-92126760D01*
X142388097Y-92113100D01*
X142340039Y-92027411D01*
X142274073Y-91958068D01*
X142193287Y-91907117D01*
X142100769Y-91876608D01*
X142019133Y-91868285D01*
X141924498Y-91874483D01*
G36*
X142900437Y-91872272D02*
G01*
X142829407Y-91879129D01*
X142775405Y-91889699D01*
X142737194Y-91902971D01*
X142692572Y-91922615D01*
X142647550Y-91945399D01*
X142608141Y-91968091D01*
X142580357Y-91987459D01*
X142570200Y-92000024D01*
X142577713Y-92013365D01*
X142597487Y-92040439D01*
X142625373Y-92075592D01*
X142627731Y-92078463D01*
X142685261Y-92148345D01*
X142751794Y-92112309D01*
X142822318Y-92081685D01*
X142893338Y-92064182D01*
X142961130Y-92059177D01*
X143021973Y-92066047D01*
X143072144Y-92084171D01*
X143107921Y-92112925D01*
X143125581Y-92151688D01*
X143126427Y-92174941D01*
X143119599Y-92208033D01*
X143103380Y-92232793D01*
X143074341Y-92250849D01*
X143029053Y-92263831D01*
X142964089Y-92273366D01*
X142908207Y-92278609D01*
X142817077Y-92288416D01*
X142746460Y-92302125D01*
X142691571Y-92321351D01*
X142647628Y-92347708D01*
X142614557Y-92377718D01*
X142578211Y-92425931D01*
X142556409Y-92481175D01*
X142546742Y-92550554D01*
X142545767Y-92580455D01*
X142551429Y-92654142D01*
X142572663Y-92714568D01*
X142612825Y-92770739D01*
X142619275Y-92777838D01*
X142678591Y-92824952D01*
X142755999Y-92860802D01*
X142846193Y-92884004D01*
X142943868Y-92893176D01*
X143040100Y-92887450D01*
X143148296Y-92862405D01*
X143251393Y-92819688D01*
X143340964Y-92762937D01*
X143354847Y-92751640D01*
X143396544Y-92716315D01*
X143260336Y-92581799D01*
X143193754Y-92626606D01*
X143118121Y-92668852D01*
X143040943Y-92692354D01*
X142952373Y-92700016D01*
X142944850Y-92700033D01*
X142863865Y-92693319D01*
X142803932Y-92673836D01*
X142765463Y-92641826D01*
X142748874Y-92597534D01*
X142748195Y-92584206D01*
X142750846Y-92549134D01*
X142760753Y-92522988D01*
X142781361Y-92503935D01*
X142816113Y-92490144D01*
X142868453Y-92479781D01*
X142941826Y-92471014D01*
X142965236Y-92468726D01*
X143076399Y-92452577D01*
X143165220Y-92426696D01*
X143233268Y-92389910D01*
X143282114Y-92341049D01*
X143313329Y-92278942D01*
X143328483Y-92202419D01*
X143328895Y-92197601D01*
X143331256Y-92147050D01*
X143327028Y-92109015D01*
X143313929Y-92070981D01*
X143300602Y-92042421D01*
X143252923Y-91973116D01*
X143186399Y-91919860D01*
X143103081Y-91884268D01*
X143097446Y-91882689D01*
X143043921Y-91873846D01*
X142975097Y-91870442D01*
X142900437Y-91872272D01*
X142900437Y-91872272D01*
G37*
X142900437Y-91872272D02*
X142829407Y-91879129D01*
X142775405Y-91889699D01*
X142737194Y-91902971D01*
X142692572Y-91922615D01*
X142647550Y-91945399D01*
X142608141Y-91968091D01*
X142580357Y-91987459D01*
X142570200Y-92000024D01*
X142577713Y-92013365D01*
X142597487Y-92040439D01*
X142625373Y-92075592D01*
X142627731Y-92078463D01*
X142685261Y-92148345D01*
X142751794Y-92112309D01*
X142822318Y-92081685D01*
X142893338Y-92064182D01*
X142961130Y-92059177D01*
X143021973Y-92066047D01*
X143072144Y-92084171D01*
X143107921Y-92112925D01*
X143125581Y-92151688D01*
X143126427Y-92174941D01*
X143119599Y-92208033D01*
X143103380Y-92232793D01*
X143074341Y-92250849D01*
X143029053Y-92263831D01*
X142964089Y-92273366D01*
X142908207Y-92278609D01*
X142817077Y-92288416D01*
X142746460Y-92302125D01*
X142691571Y-92321351D01*
X142647628Y-92347708D01*
X142614557Y-92377718D01*
X142578211Y-92425931D01*
X142556409Y-92481175D01*
X142546742Y-92550554D01*
X142545767Y-92580455D01*
X142551429Y-92654142D01*
X142572663Y-92714568D01*
X142612825Y-92770739D01*
X142619275Y-92777838D01*
X142678591Y-92824952D01*
X142755999Y-92860802D01*
X142846193Y-92884004D01*
X142943868Y-92893176D01*
X143040100Y-92887450D01*
X143148296Y-92862405D01*
X143251393Y-92819688D01*
X143340964Y-92762937D01*
X143354847Y-92751640D01*
X143396544Y-92716315D01*
X143260336Y-92581799D01*
X143193754Y-92626606D01*
X143118121Y-92668852D01*
X143040943Y-92692354D01*
X142952373Y-92700016D01*
X142944850Y-92700033D01*
X142863865Y-92693319D01*
X142803932Y-92673836D01*
X142765463Y-92641826D01*
X142748874Y-92597534D01*
X142748195Y-92584206D01*
X142750846Y-92549134D01*
X142760753Y-92522988D01*
X142781361Y-92503935D01*
X142816113Y-92490144D01*
X142868453Y-92479781D01*
X142941826Y-92471014D01*
X142965236Y-92468726D01*
X143076399Y-92452577D01*
X143165220Y-92426696D01*
X143233268Y-92389910D01*
X143282114Y-92341049D01*
X143313329Y-92278942D01*
X143328483Y-92202419D01*
X143328895Y-92197601D01*
X143331256Y-92147050D01*
X143327028Y-92109015D01*
X143313929Y-92070981D01*
X143300602Y-92042421D01*
X143252923Y-91973116D01*
X143186399Y-91919860D01*
X143103081Y-91884268D01*
X143097446Y-91882689D01*
X143043921Y-91873846D01*
X142975097Y-91870442D01*
X142900437Y-91872272D01*
G36*
X145254814Y-91877891D02*
G01*
X145165265Y-91906279D01*
X145086053Y-91952531D01*
X145048671Y-91985585D01*
X144994393Y-92054416D01*
X144955705Y-92134476D01*
X144931520Y-92229122D01*
X144920750Y-92341714D01*
X144919956Y-92382975D01*
X144919700Y-92456000D01*
X145558024Y-92456000D01*
X145550607Y-92501702D01*
X145527531Y-92576334D01*
X145487169Y-92634794D01*
X145432748Y-92675894D01*
X145367492Y-92698444D01*
X145294627Y-92701256D01*
X145217379Y-92683140D01*
X145149395Y-92649603D01*
X145088180Y-92611550D01*
X145017526Y-92671842D01*
X144946871Y-92732133D01*
X144987261Y-92769872D01*
X145072198Y-92832318D01*
X145169057Y-92873620D01*
X145274260Y-92892756D01*
X145384228Y-92888701D01*
X145396378Y-92886810D01*
X145496632Y-92858888D01*
X145580605Y-92811493D01*
X145648221Y-92744714D01*
X145699400Y-92658640D01*
X145734066Y-92553360D01*
X145745896Y-92488531D01*
X145753527Y-92369808D01*
X145746690Y-92290900D01*
X145557527Y-92290900D01*
X145126311Y-92290900D01*
X145135163Y-92243275D01*
X145158356Y-92168004D01*
X145196766Y-92112656D01*
X145251368Y-92076120D01*
X145294064Y-92062364D01*
X145364334Y-92058332D01*
X145428636Y-92076967D01*
X145483264Y-92115637D01*
X145524511Y-92171710D01*
X145548672Y-92242554D01*
X145548804Y-92243275D01*
X145557527Y-92290900D01*
X145746690Y-92290900D01*
X145743726Y-92256704D01*
X145717712Y-92152450D01*
X145676704Y-92060277D01*
X145621920Y-91983416D01*
X145554579Y-91925098D01*
X145527355Y-91909192D01*
X145441672Y-91878420D01*
X145348887Y-91868295D01*
X145254814Y-91877891D01*
X145254814Y-91877891D01*
G37*
X145254814Y-91877891D02*
X145165265Y-91906279D01*
X145086053Y-91952531D01*
X145048671Y-91985585D01*
X144994393Y-92054416D01*
X144955705Y-92134476D01*
X144931520Y-92229122D01*
X144920750Y-92341714D01*
X144919956Y-92382975D01*
X144919700Y-92456000D01*
X145558024Y-92456000D01*
X145550607Y-92501702D01*
X145527531Y-92576334D01*
X145487169Y-92634794D01*
X145432748Y-92675894D01*
X145367492Y-92698444D01*
X145294627Y-92701256D01*
X145217379Y-92683140D01*
X145149395Y-92649603D01*
X145088180Y-92611550D01*
X145017526Y-92671842D01*
X144946871Y-92732133D01*
X144987261Y-92769872D01*
X145072198Y-92832318D01*
X145169057Y-92873620D01*
X145274260Y-92892756D01*
X145384228Y-92888701D01*
X145396378Y-92886810D01*
X145496632Y-92858888D01*
X145580605Y-92811493D01*
X145648221Y-92744714D01*
X145699400Y-92658640D01*
X145734066Y-92553360D01*
X145745896Y-92488531D01*
X145753527Y-92369808D01*
X145746690Y-92290900D01*
X145557527Y-92290900D01*
X145126311Y-92290900D01*
X145135163Y-92243275D01*
X145158356Y-92168004D01*
X145196766Y-92112656D01*
X145251368Y-92076120D01*
X145294064Y-92062364D01*
X145364334Y-92058332D01*
X145428636Y-92076967D01*
X145483264Y-92115637D01*
X145524511Y-92171710D01*
X145548672Y-92242554D01*
X145548804Y-92243275D01*
X145557527Y-92290900D01*
X145746690Y-92290900D01*
X145743726Y-92256704D01*
X145717712Y-92152450D01*
X145676704Y-92060277D01*
X145621920Y-91983416D01*
X145554579Y-91925098D01*
X145527355Y-91909192D01*
X145441672Y-91878420D01*
X145348887Y-91868295D01*
X145254814Y-91877891D01*
G36*
X147231618Y-91869441D02*
G01*
X147137753Y-91892134D01*
X147053014Y-91935338D01*
X146980520Y-91997742D01*
X146923390Y-92078036D01*
X146906478Y-92112688D01*
X146897048Y-92137732D01*
X146890327Y-92165637D01*
X146885881Y-92201107D01*
X146883278Y-92248846D01*
X146882084Y-92313556D01*
X146881850Y-92379800D01*
X146882239Y-92461250D01*
X146883693Y-92522012D01*
X146886646Y-92566789D01*
X146891533Y-92600283D01*
X146898786Y-92627198D01*
X146906478Y-92646911D01*
X146956007Y-92734285D01*
X147020733Y-92801904D01*
X147094908Y-92848041D01*
X147178197Y-92879392D01*
X147261413Y-92891781D01*
X147354224Y-92886718D01*
X147444449Y-92862884D01*
X147526463Y-92818209D01*
X147595914Y-92756299D01*
X147648452Y-92680764D01*
X147672491Y-92622828D01*
X147684710Y-92564909D01*
X147692474Y-92489549D01*
X147695799Y-92404312D01*
X147695211Y-92357401D01*
X147496865Y-92357401D01*
X147494836Y-92429082D01*
X147488455Y-92497079D01*
X147478133Y-92553691D01*
X147467402Y-92585431D01*
X147429276Y-92637518D01*
X147376240Y-92672624D01*
X147313367Y-92689449D01*
X147245730Y-92686693D01*
X147178401Y-92663056D01*
X147173950Y-92660652D01*
X147145086Y-92636383D01*
X147116793Y-92599804D01*
X147107275Y-92583193D01*
X147094515Y-92554784D01*
X147086194Y-92525595D01*
X147081428Y-92489268D01*
X147079328Y-92439442D01*
X147078979Y-92380284D01*
X147082578Y-92284715D01*
X147093983Y-92210807D01*
X147114718Y-92155608D01*
X147146311Y-92116167D01*
X147190285Y-92089533D01*
X147236703Y-92075168D01*
X147308871Y-92070619D01*
X147374218Y-92088804D01*
X147428808Y-92127220D01*
X147468705Y-92183366D01*
X147486217Y-92233776D01*
X147494129Y-92289732D01*
X147496865Y-92357401D01*
X147695211Y-92357401D01*
X147694701Y-92316759D01*
X147689194Y-92234455D01*
X147679293Y-92164962D01*
X147671509Y-92133392D01*
X147637459Y-92060651D01*
X147584539Y-91992431D01*
X147519146Y-91935273D01*
X147447676Y-91895716D01*
X147434255Y-91890834D01*
X147331492Y-91868571D01*
X147231618Y-91869441D01*
X147231618Y-91869441D01*
G37*
X147231618Y-91869441D02*
X147137753Y-91892134D01*
X147053014Y-91935338D01*
X146980520Y-91997742D01*
X146923390Y-92078036D01*
X146906478Y-92112688D01*
X146897048Y-92137732D01*
X146890327Y-92165637D01*
X146885881Y-92201107D01*
X146883278Y-92248846D01*
X146882084Y-92313556D01*
X146881850Y-92379800D01*
X146882239Y-92461250D01*
X146883693Y-92522012D01*
X146886646Y-92566789D01*
X146891533Y-92600283D01*
X146898786Y-92627198D01*
X146906478Y-92646911D01*
X146956007Y-92734285D01*
X147020733Y-92801904D01*
X147094908Y-92848041D01*
X147178197Y-92879392D01*
X147261413Y-92891781D01*
X147354224Y-92886718D01*
X147444449Y-92862884D01*
X147526463Y-92818209D01*
X147595914Y-92756299D01*
X147648452Y-92680764D01*
X147672491Y-92622828D01*
X147684710Y-92564909D01*
X147692474Y-92489549D01*
X147695799Y-92404312D01*
X147695211Y-92357401D01*
X147496865Y-92357401D01*
X147494836Y-92429082D01*
X147488455Y-92497079D01*
X147478133Y-92553691D01*
X147467402Y-92585431D01*
X147429276Y-92637518D01*
X147376240Y-92672624D01*
X147313367Y-92689449D01*
X147245730Y-92686693D01*
X147178401Y-92663056D01*
X147173950Y-92660652D01*
X147145086Y-92636383D01*
X147116793Y-92599804D01*
X147107275Y-92583193D01*
X147094515Y-92554784D01*
X147086194Y-92525595D01*
X147081428Y-92489268D01*
X147079328Y-92439442D01*
X147078979Y-92380284D01*
X147082578Y-92284715D01*
X147093983Y-92210807D01*
X147114718Y-92155608D01*
X147146311Y-92116167D01*
X147190285Y-92089533D01*
X147236703Y-92075168D01*
X147308871Y-92070619D01*
X147374218Y-92088804D01*
X147428808Y-92127220D01*
X147468705Y-92183366D01*
X147486217Y-92233776D01*
X147494129Y-92289732D01*
X147496865Y-92357401D01*
X147695211Y-92357401D01*
X147694701Y-92316759D01*
X147689194Y-92234455D01*
X147679293Y-92164962D01*
X147671509Y-92133392D01*
X147637459Y-92060651D01*
X147584539Y-91992431D01*
X147519146Y-91935273D01*
X147447676Y-91895716D01*
X147434255Y-91890834D01*
X147331492Y-91868571D01*
X147231618Y-91869441D01*
G36*
X140063500Y-93479796D02*
G01*
X139982699Y-93519727D01*
X139980389Y-93521261D01*
X139974395Y-93531032D01*
X139980074Y-93547972D01*
X139999494Y-93575889D01*
X140030644Y-93613801D01*
X140062471Y-93651378D01*
X140087417Y-93681019D01*
X140101363Y-93697820D01*
X140102841Y-93699701D01*
X140115515Y-93698288D01*
X140142276Y-93688044D01*
X140151441Y-93683826D01*
X140218635Y-93664179D01*
X140285414Y-93666851D01*
X140346427Y-93690387D01*
X140396324Y-93733333D01*
X140411269Y-93754458D01*
X140418867Y-93768406D01*
X140424772Y-93784449D01*
X140429197Y-93805786D01*
X140432354Y-93835615D01*
X140434454Y-93877136D01*
X140435711Y-93933547D01*
X140436336Y-94008046D01*
X140436542Y-94103831D01*
X140436553Y-94135575D01*
X140436600Y-94475300D01*
X140639800Y-94475300D01*
X140639800Y-93472000D01*
X140436600Y-93472000D01*
X140436600Y-93575579D01*
X140385269Y-93531641D01*
X140314678Y-93487192D01*
X140234308Y-93463652D01*
X140148976Y-93461146D01*
X140063500Y-93479796D01*
X140063500Y-93479796D01*
G37*
X140063500Y-93479796D02*
X139982699Y-93519727D01*
X139980389Y-93521261D01*
X139974395Y-93531032D01*
X139980074Y-93547972D01*
X139999494Y-93575889D01*
X140030644Y-93613801D01*
X140062471Y-93651378D01*
X140087417Y-93681019D01*
X140101363Y-93697820D01*
X140102841Y-93699701D01*
X140115515Y-93698288D01*
X140142276Y-93688044D01*
X140151441Y-93683826D01*
X140218635Y-93664179D01*
X140285414Y-93666851D01*
X140346427Y-93690387D01*
X140396324Y-93733333D01*
X140411269Y-93754458D01*
X140418867Y-93768406D01*
X140424772Y-93784449D01*
X140429197Y-93805786D01*
X140432354Y-93835615D01*
X140434454Y-93877136D01*
X140435711Y-93933547D01*
X140436336Y-94008046D01*
X140436542Y-94103831D01*
X140436553Y-94135575D01*
X140436600Y-94475300D01*
X140639800Y-94475300D01*
X140639800Y-93472000D01*
X140436600Y-93472000D01*
X140436600Y-93575579D01*
X140385269Y-93531641D01*
X140314678Y-93487192D01*
X140234308Y-93463652D01*
X140148976Y-93461146D01*
X140063500Y-93479796D01*
G36*
X142811032Y-93814900D02*
G01*
X142786650Y-93903771D01*
X142764137Y-93984080D01*
X142744405Y-94052721D01*
X142728362Y-94106586D01*
X142716919Y-94142565D01*
X142710986Y-94157553D01*
X142710642Y-94157800D01*
X142705008Y-94146210D01*
X142692686Y-94113471D01*
X142674729Y-94062622D01*
X142652188Y-93996706D01*
X142626115Y-93918764D01*
X142597562Y-93831838D01*
X142592054Y-93814900D01*
X142480740Y-93472000D01*
X142331355Y-93472000D01*
X142242382Y-93748225D01*
X142215230Y-93832660D01*
X142189287Y-93913589D01*
X142166058Y-93986299D01*
X142147047Y-94046081D01*
X142133757Y-94088222D01*
X142130477Y-94098772D01*
X142117090Y-94138484D01*
X142107575Y-94156230D01*
X142100111Y-94154801D01*
X142097331Y-94149572D01*
X142091337Y-94131322D01*
X142079730Y-94092073D01*
X142063508Y-94035349D01*
X142043672Y-93964675D01*
X142021218Y-93883576D01*
X141999525Y-93804324D01*
X141975868Y-93718004D01*
X141954191Y-93639994D01*
X141935430Y-93573575D01*
X141920521Y-93522032D01*
X141910402Y-93488648D01*
X141906094Y-93476760D01*
X141891543Y-93474469D01*
X141858078Y-93473569D01*
X141812154Y-93474186D01*
X141798285Y-93474635D01*
X141696314Y-93478350D01*
X141834846Y-93910150D01*
X141867855Y-94013165D01*
X141899186Y-94111187D01*
X141927791Y-94200922D01*
X141952625Y-94279074D01*
X141972639Y-94342350D01*
X141986786Y-94387453D01*
X141993291Y-94408625D01*
X142013203Y-94475300D01*
X142104377Y-94475228D01*
X142195550Y-94475156D01*
X142289714Y-94154553D01*
X142315548Y-94066916D01*
X142339592Y-93985967D01*
X142360755Y-93915322D01*
X142377950Y-93858600D01*
X142390089Y-93819415D01*
X142395764Y-93802200D01*
X142400199Y-93796049D01*
X142406275Y-93799756D01*
X142414788Y-93815480D01*
X142426532Y-93845381D01*
X142442302Y-93891617D01*
X142462894Y-93956348D01*
X142489103Y-94041734D01*
X142512644Y-94119700D01*
X142617636Y-94468950D01*
X142707417Y-94472665D01*
X142797197Y-94476380D01*
X142879827Y-94218665D01*
X142910246Y-94123736D01*
X142941943Y-94024724D01*
X142973824Y-93925055D01*
X143004796Y-93828153D01*
X143033763Y-93737445D01*
X143059634Y-93656354D01*
X143081314Y-93588307D01*
X143097709Y-93536728D01*
X143107726Y-93505043D01*
X143109123Y-93500575D01*
X143112372Y-93486692D01*
X143108431Y-93478240D01*
X143092679Y-93473872D01*
X143060496Y-93472241D01*
X143011081Y-93472000D01*
X142904149Y-93472000D01*
X142811032Y-93814900D01*
X142811032Y-93814900D01*
G37*
X142811032Y-93814900D02*
X142786650Y-93903771D01*
X142764137Y-93984080D01*
X142744405Y-94052721D01*
X142728362Y-94106586D01*
X142716919Y-94142565D01*
X142710986Y-94157553D01*
X142710642Y-94157800D01*
X142705008Y-94146210D01*
X142692686Y-94113471D01*
X142674729Y-94062622D01*
X142652188Y-93996706D01*
X142626115Y-93918764D01*
X142597562Y-93831838D01*
X142592054Y-93814900D01*
X142480740Y-93472000D01*
X142331355Y-93472000D01*
X142242382Y-93748225D01*
X142215230Y-93832660D01*
X142189287Y-93913589D01*
X142166058Y-93986299D01*
X142147047Y-94046081D01*
X142133757Y-94088222D01*
X142130477Y-94098772D01*
X142117090Y-94138484D01*
X142107575Y-94156230D01*
X142100111Y-94154801D01*
X142097331Y-94149572D01*
X142091337Y-94131322D01*
X142079730Y-94092073D01*
X142063508Y-94035349D01*
X142043672Y-93964675D01*
X142021218Y-93883576D01*
X141999525Y-93804324D01*
X141975868Y-93718004D01*
X141954191Y-93639994D01*
X141935430Y-93573575D01*
X141920521Y-93522032D01*
X141910402Y-93488648D01*
X141906094Y-93476760D01*
X141891543Y-93474469D01*
X141858078Y-93473569D01*
X141812154Y-93474186D01*
X141798285Y-93474635D01*
X141696314Y-93478350D01*
X141834846Y-93910150D01*
X141867855Y-94013165D01*
X141899186Y-94111187D01*
X141927791Y-94200922D01*
X141952625Y-94279074D01*
X141972639Y-94342350D01*
X141986786Y-94387453D01*
X141993291Y-94408625D01*
X142013203Y-94475300D01*
X142104377Y-94475228D01*
X142195550Y-94475156D01*
X142289714Y-94154553D01*
X142315548Y-94066916D01*
X142339592Y-93985967D01*
X142360755Y-93915322D01*
X142377950Y-93858600D01*
X142390089Y-93819415D01*
X142395764Y-93802200D01*
X142400199Y-93796049D01*
X142406275Y-93799756D01*
X142414788Y-93815480D01*
X142426532Y-93845381D01*
X142442302Y-93891617D01*
X142462894Y-93956348D01*
X142489103Y-94041734D01*
X142512644Y-94119700D01*
X142617636Y-94468950D01*
X142707417Y-94472665D01*
X142797197Y-94476380D01*
X142879827Y-94218665D01*
X142910246Y-94123736D01*
X142941943Y-94024724D01*
X142973824Y-93925055D01*
X143004796Y-93828153D01*
X143033763Y-93737445D01*
X143059634Y-93656354D01*
X143081314Y-93588307D01*
X143097709Y-93536728D01*
X143107726Y-93505043D01*
X143109123Y-93500575D01*
X143112372Y-93486692D01*
X143108431Y-93478240D01*
X143092679Y-93473872D01*
X143060496Y-93472241D01*
X143011081Y-93472000D01*
X142904149Y-93472000D01*
X142811032Y-93814900D01*
G36*
X144161617Y-93472535D02*
G01*
X144081190Y-93505661D01*
X144057126Y-93520825D01*
X144051045Y-93530669D01*
X144056146Y-93547578D01*
X144074452Y-93575457D01*
X144106969Y-93616952D01*
X144139417Y-93655033D01*
X144166991Y-93683922D01*
X144185159Y-93698995D01*
X144188493Y-93700149D01*
X144208792Y-93693951D01*
X144233900Y-93681550D01*
X144284096Y-93665276D01*
X144343047Y-93664213D01*
X144399602Y-93677791D01*
X144425697Y-93691328D01*
X144450380Y-93708964D01*
X144469939Y-93727245D01*
X144484967Y-93749226D01*
X144496060Y-93777966D01*
X144503810Y-93816521D01*
X144508813Y-93867947D01*
X144511663Y-93935302D01*
X144512953Y-94021642D01*
X144513278Y-94130024D01*
X144513281Y-94141925D01*
X144513300Y-94475300D01*
X144716500Y-94475300D01*
X144716500Y-93472000D01*
X144513300Y-93472000D01*
X144513300Y-93578352D01*
X144478375Y-93544974D01*
X144410372Y-93496722D01*
X144331430Y-93468366D01*
X144246771Y-93460204D01*
X144161617Y-93472535D01*
X144161617Y-93472535D01*
G37*
X144161617Y-93472535D02*
X144081190Y-93505661D01*
X144057126Y-93520825D01*
X144051045Y-93530669D01*
X144056146Y-93547578D01*
X144074452Y-93575457D01*
X144106969Y-93616952D01*
X144139417Y-93655033D01*
X144166991Y-93683922D01*
X144185159Y-93698995D01*
X144188493Y-93700149D01*
X144208792Y-93693951D01*
X144233900Y-93681550D01*
X144284096Y-93665276D01*
X144343047Y-93664213D01*
X144399602Y-93677791D01*
X144425697Y-93691328D01*
X144450380Y-93708964D01*
X144469939Y-93727245D01*
X144484967Y-93749226D01*
X144496060Y-93777966D01*
X144503810Y-93816521D01*
X144508813Y-93867947D01*
X144511663Y-93935302D01*
X144512953Y-94021642D01*
X144513278Y-94130024D01*
X144513281Y-94141925D01*
X144513300Y-94475300D01*
X144716500Y-94475300D01*
X144716500Y-93472000D01*
X144513300Y-93472000D01*
X144513300Y-93578352D01*
X144478375Y-93544974D01*
X144410372Y-93496722D01*
X144331430Y-93468366D01*
X144246771Y-93460204D01*
X144161617Y-93472535D01*
G36*
X146141727Y-91881415D02*
G01*
X146062209Y-91913226D01*
X145995266Y-91962945D01*
X145944439Y-92027874D01*
X145913270Y-92105314D01*
X145911470Y-92113179D01*
X145905687Y-92155545D01*
X145901516Y-92217056D01*
X145898959Y-92291509D01*
X145898013Y-92372699D01*
X145898681Y-92454423D01*
X145900961Y-92530477D01*
X145904854Y-92594658D01*
X145910360Y-92640762D01*
X145911470Y-92646420D01*
X145940020Y-92723869D01*
X145987197Y-92788402D01*
X146048958Y-92838568D01*
X146121262Y-92872913D01*
X146200070Y-92889986D01*
X146281340Y-92888334D01*
X146361030Y-92866503D01*
X146424650Y-92830895D01*
X146454350Y-92810038D01*
X146476789Y-92795186D01*
X146478625Y-92794075D01*
X146483214Y-92796240D01*
X146486883Y-92810151D01*
X146489718Y-92837933D01*
X146491806Y-92881713D01*
X146493236Y-92943616D01*
X146494094Y-93025769D01*
X146494467Y-93130299D01*
X146494500Y-93181526D01*
X146494500Y-93578352D01*
X146459575Y-93544974D01*
X146390412Y-93495036D01*
X146313213Y-93466547D01*
X146232084Y-93458649D01*
X146151134Y-93470483D01*
X146074470Y-93501190D01*
X146006200Y-93549911D01*
X145950431Y-93615788D01*
X145927919Y-93656150D01*
X145919331Y-93674976D01*
X145912555Y-93693158D01*
X145907376Y-93713849D01*
X145903577Y-93740202D01*
X145900942Y-93775373D01*
X145899257Y-93822514D01*
X145898305Y-93884780D01*
X145897870Y-93965324D01*
X145897736Y-94067301D01*
X145897725Y-94097475D01*
X145897600Y-94475300D01*
X146100800Y-94475300D01*
X146100820Y-94141925D01*
X146101001Y-94038977D01*
X146101654Y-93958202D01*
X146102972Y-93896371D01*
X146105142Y-93850259D01*
X146108356Y-93816637D01*
X146112804Y-93792280D01*
X146118674Y-93773961D01*
X146123045Y-93764353D01*
X146161679Y-93712498D01*
X146212923Y-93678603D01*
X146271479Y-93662679D01*
X146332046Y-93664736D01*
X146389327Y-93684787D01*
X146438021Y-93722842D01*
X146465925Y-93763615D01*
X146474643Y-93781946D01*
X146481382Y-93800380D01*
X146486396Y-93822334D01*
X146489939Y-93851226D01*
X146492266Y-93890470D01*
X146493631Y-93943484D01*
X146494287Y-94013685D01*
X146494490Y-94104489D01*
X146494500Y-94147790D01*
X146494500Y-94475300D01*
X146697700Y-94475300D01*
X146697700Y-92349579D01*
X146492318Y-92349579D01*
X146491054Y-92457700D01*
X146477841Y-92544105D01*
X146452307Y-92609685D01*
X146414080Y-92655332D01*
X146362788Y-92681939D01*
X146352455Y-92684701D01*
X146286242Y-92689389D01*
X146217327Y-92676102D01*
X146185527Y-92663010D01*
X146153355Y-92639565D01*
X146129803Y-92604389D01*
X146113926Y-92554302D01*
X146104781Y-92486127D01*
X146101422Y-92396687D01*
X146101358Y-92379800D01*
X146104653Y-92280626D01*
X146115549Y-92203772D01*
X146135565Y-92146897D01*
X146166219Y-92107661D01*
X146209030Y-92083722D01*
X146265515Y-92072739D01*
X146301419Y-92071371D01*
X146363990Y-92078811D01*
X146412751Y-92102279D01*
X146448882Y-92143492D01*
X146473562Y-92204169D01*
X146487971Y-92286029D01*
X146492318Y-92349579D01*
X146697700Y-92349579D01*
X146697700Y-91871800D01*
X146494500Y-91871800D01*
X146494500Y-91974692D01*
X146452542Y-91942689D01*
X146379844Y-91898710D01*
X146301377Y-91875503D01*
X146230280Y-91870212D01*
X146141727Y-91881415D01*
X146141727Y-91881415D01*
G37*
X146141727Y-91881415D02*
X146062209Y-91913226D01*
X145995266Y-91962945D01*
X145944439Y-92027874D01*
X145913270Y-92105314D01*
X145911470Y-92113179D01*
X145905687Y-92155545D01*
X145901516Y-92217056D01*
X145898959Y-92291509D01*
X145898013Y-92372699D01*
X145898681Y-92454423D01*
X145900961Y-92530477D01*
X145904854Y-92594658D01*
X145910360Y-92640762D01*
X145911470Y-92646420D01*
X145940020Y-92723869D01*
X145987197Y-92788402D01*
X146048958Y-92838568D01*
X146121262Y-92872913D01*
X146200070Y-92889986D01*
X146281340Y-92888334D01*
X146361030Y-92866503D01*
X146424650Y-92830895D01*
X146454350Y-92810038D01*
X146476789Y-92795186D01*
X146478625Y-92794075D01*
X146483214Y-92796240D01*
X146486883Y-92810151D01*
X146489718Y-92837933D01*
X146491806Y-92881713D01*
X146493236Y-92943616D01*
X146494094Y-93025769D01*
X146494467Y-93130299D01*
X146494500Y-93181526D01*
X146494500Y-93578352D01*
X146459575Y-93544974D01*
X146390412Y-93495036D01*
X146313213Y-93466547D01*
X146232084Y-93458649D01*
X146151134Y-93470483D01*
X146074470Y-93501190D01*
X146006200Y-93549911D01*
X145950431Y-93615788D01*
X145927919Y-93656150D01*
X145919331Y-93674976D01*
X145912555Y-93693158D01*
X145907376Y-93713849D01*
X145903577Y-93740202D01*
X145900942Y-93775373D01*
X145899257Y-93822514D01*
X145898305Y-93884780D01*
X145897870Y-93965324D01*
X145897736Y-94067301D01*
X145897725Y-94097475D01*
X145897600Y-94475300D01*
X146100800Y-94475300D01*
X146100820Y-94141925D01*
X146101001Y-94038977D01*
X146101654Y-93958202D01*
X146102972Y-93896371D01*
X146105142Y-93850259D01*
X146108356Y-93816637D01*
X146112804Y-93792280D01*
X146118674Y-93773961D01*
X146123045Y-93764353D01*
X146161679Y-93712498D01*
X146212923Y-93678603D01*
X146271479Y-93662679D01*
X146332046Y-93664736D01*
X146389327Y-93684787D01*
X146438021Y-93722842D01*
X146465925Y-93763615D01*
X146474643Y-93781946D01*
X146481382Y-93800380D01*
X146486396Y-93822334D01*
X146489939Y-93851226D01*
X146492266Y-93890470D01*
X146493631Y-93943484D01*
X146494287Y-94013685D01*
X146494490Y-94104489D01*
X146494500Y-94147790D01*
X146494500Y-94475300D01*
X146697700Y-94475300D01*
X146697700Y-92349579D01*
X146492318Y-92349579D01*
X146491054Y-92457700D01*
X146477841Y-92544105D01*
X146452307Y-92609685D01*
X146414080Y-92655332D01*
X146362788Y-92681939D01*
X146352455Y-92684701D01*
X146286242Y-92689389D01*
X146217327Y-92676102D01*
X146185527Y-92663010D01*
X146153355Y-92639565D01*
X146129803Y-92604389D01*
X146113926Y-92554302D01*
X146104781Y-92486127D01*
X146101422Y-92396687D01*
X146101358Y-92379800D01*
X146104653Y-92280626D01*
X146115549Y-92203772D01*
X146135565Y-92146897D01*
X146166219Y-92107661D01*
X146209030Y-92083722D01*
X146265515Y-92072739D01*
X146301419Y-92071371D01*
X146363990Y-92078811D01*
X146412751Y-92102279D01*
X146448882Y-92143492D01*
X146473562Y-92204169D01*
X146487971Y-92286029D01*
X146492318Y-92349579D01*
X146697700Y-92349579D01*
X146697700Y-91871800D01*
X146494500Y-91871800D01*
X146494500Y-91974692D01*
X146452542Y-91942689D01*
X146379844Y-91898710D01*
X146301377Y-91875503D01*
X146230280Y-91870212D01*
X146141727Y-91881415D01*
G36*
X139475256Y-93466250D02*
G01*
X139385710Y-93491332D01*
X139303191Y-93535603D01*
X139249661Y-93580286D01*
X139195802Y-93648367D01*
X139158240Y-93729785D01*
X139136102Y-93827199D01*
X139128514Y-93943265D01*
X139128500Y-93948875D01*
X139128500Y-94043500D01*
X139750800Y-94043500D01*
X139750800Y-94089395D01*
X139740249Y-94144702D01*
X139712475Y-94200371D01*
X139673303Y-94246082D01*
X139654508Y-94260044D01*
X139586799Y-94287600D01*
X139511233Y-94293992D01*
X139433395Y-94279604D01*
X139358869Y-94244826D01*
X139349906Y-94238957D01*
X139322155Y-94221883D01*
X139299512Y-94215469D01*
X139276271Y-94221356D01*
X139246724Y-94241185D01*
X139205164Y-94276596D01*
X139198529Y-94282477D01*
X139151075Y-94324605D01*
X139180291Y-94355704D01*
X139238738Y-94402990D01*
X139314538Y-94442335D01*
X139400158Y-94470888D01*
X139488064Y-94485801D01*
X139528044Y-94487286D01*
X139576684Y-94482733D01*
X139633654Y-94471780D01*
X139669484Y-94462022D01*
X139751830Y-94424618D01*
X139806539Y-94384988D01*
X139865346Y-94321785D01*
X139908220Y-94248210D01*
X139936350Y-94160940D01*
X139950924Y-94056649D01*
X139953699Y-93973650D01*
X139947046Y-93852222D01*
X139945454Y-93844309D01*
X139750800Y-93844309D01*
X139750800Y-93878400D01*
X139328525Y-93878400D01*
X139336727Y-93837391D01*
X139356649Y-93776152D01*
X139388276Y-93721060D01*
X139424120Y-93683358D01*
X139473847Y-93660046D01*
X139534926Y-93651273D01*
X139597664Y-93657355D01*
X139648021Y-93676063D01*
X139693919Y-93713754D01*
X139729378Y-93765347D01*
X139748786Y-93821652D01*
X139750800Y-93844309D01*
X139945454Y-93844309D01*
X139926388Y-93749576D01*
X139890681Y-93662646D01*
X139838876Y-93588367D01*
X139812813Y-93560928D01*
X139740607Y-93507695D01*
X139657249Y-93474275D01*
X139567284Y-93460512D01*
X139475256Y-93466250D01*
X139475256Y-93466250D01*
G37*
X139475256Y-93466250D02*
X139385710Y-93491332D01*
X139303191Y-93535603D01*
X139249661Y-93580286D01*
X139195802Y-93648367D01*
X139158240Y-93729785D01*
X139136102Y-93827199D01*
X139128514Y-93943265D01*
X139128500Y-93948875D01*
X139128500Y-94043500D01*
X139750800Y-94043500D01*
X139750800Y-94089395D01*
X139740249Y-94144702D01*
X139712475Y-94200371D01*
X139673303Y-94246082D01*
X139654508Y-94260044D01*
X139586799Y-94287600D01*
X139511233Y-94293992D01*
X139433395Y-94279604D01*
X139358869Y-94244826D01*
X139349906Y-94238957D01*
X139322155Y-94221883D01*
X139299512Y-94215469D01*
X139276271Y-94221356D01*
X139246724Y-94241185D01*
X139205164Y-94276596D01*
X139198529Y-94282477D01*
X139151075Y-94324605D01*
X139180291Y-94355704D01*
X139238738Y-94402990D01*
X139314538Y-94442335D01*
X139400158Y-94470888D01*
X139488064Y-94485801D01*
X139528044Y-94487286D01*
X139576684Y-94482733D01*
X139633654Y-94471780D01*
X139669484Y-94462022D01*
X139751830Y-94424618D01*
X139806539Y-94384988D01*
X139865346Y-94321785D01*
X139908220Y-94248210D01*
X139936350Y-94160940D01*
X139950924Y-94056649D01*
X139953699Y-93973650D01*
X139947046Y-93852222D01*
X139945454Y-93844309D01*
X139750800Y-93844309D01*
X139750800Y-93878400D01*
X139328525Y-93878400D01*
X139336727Y-93837391D01*
X139356649Y-93776152D01*
X139388276Y-93721060D01*
X139424120Y-93683358D01*
X139473847Y-93660046D01*
X139534926Y-93651273D01*
X139597664Y-93657355D01*
X139648021Y-93676063D01*
X139693919Y-93713754D01*
X139729378Y-93765347D01*
X139748786Y-93821652D01*
X139750800Y-93844309D01*
X139945454Y-93844309D01*
X139926388Y-93749576D01*
X139890681Y-93662646D01*
X139838876Y-93588367D01*
X139812813Y-93560928D01*
X139740607Y-93507695D01*
X139657249Y-93474275D01*
X139567284Y-93460512D01*
X139475256Y-93466250D01*
G36*
X141203226Y-93463817D02*
G01*
X141122228Y-93475468D01*
X141055524Y-93494426D01*
X141048823Y-93497208D01*
X140981755Y-93537484D01*
X140926638Y-93592387D01*
X140889392Y-93655622D01*
X140883140Y-93673402D01*
X140877989Y-93705041D01*
X140873931Y-93761754D01*
X140870975Y-93843239D01*
X140869131Y-93949193D01*
X140868411Y-94079314D01*
X140868400Y-94098948D01*
X140868400Y-94475300D01*
X141071600Y-94475300D01*
X141071600Y-94388909D01*
X141109330Y-94424153D01*
X141161619Y-94457585D01*
X141230083Y-94478858D01*
X141308205Y-94487227D01*
X141389466Y-94481943D01*
X141461078Y-94464491D01*
X141545080Y-94424631D01*
X141608179Y-94370482D01*
X141650154Y-94302344D01*
X141670782Y-94220519D01*
X141673040Y-94177446D01*
X141672170Y-94170886D01*
X141483505Y-94170886D01*
X141474676Y-94209431D01*
X141472016Y-94216034D01*
X141459340Y-94244217D01*
X141450949Y-94258969D01*
X141450074Y-94259591D01*
X141436970Y-94263745D01*
X141408600Y-94273953D01*
X141395450Y-94278845D01*
X141352343Y-94288861D01*
X141296725Y-94293508D01*
X141237007Y-94293019D01*
X141181601Y-94287627D01*
X141138917Y-94277565D01*
X141125802Y-94271389D01*
X141095614Y-94238826D01*
X141077689Y-94186127D01*
X141071605Y-94112029D01*
X141071600Y-94109740D01*
X141071600Y-94040070D01*
X141227175Y-94046109D01*
X141311846Y-94051098D01*
X141374803Y-94059395D01*
X141419649Y-94072257D01*
X141449989Y-94090942D01*
X141469426Y-94116709D01*
X141476341Y-94133098D01*
X141483505Y-94170886D01*
X141672170Y-94170886D01*
X141661608Y-94091275D01*
X141627658Y-94016705D01*
X141583939Y-93964798D01*
X141550437Y-93936784D01*
X141514306Y-93915963D01*
X141470929Y-93901149D01*
X141415690Y-93891151D01*
X141343973Y-93884781D01*
X141258925Y-93881085D01*
X141071600Y-93875256D01*
X141071600Y-93806143D01*
X141074071Y-93762081D01*
X141080389Y-93725255D01*
X141085323Y-93711389D01*
X141113634Y-93683153D01*
X141159750Y-93663323D01*
X141217467Y-93652012D01*
X141280583Y-93649332D01*
X141342894Y-93655396D01*
X141398198Y-93670317D01*
X141440291Y-93694208D01*
X141450790Y-93704753D01*
X141461484Y-93713932D01*
X141475013Y-93713614D01*
X141496464Y-93701698D01*
X141530920Y-93676087D01*
X141542865Y-93666747D01*
X141578880Y-93637230D01*
X141605405Y-93613162D01*
X141617450Y-93599118D01*
X141617700Y-93598116D01*
X141607172Y-93579447D01*
X141579649Y-93554363D01*
X141541225Y-93527033D01*
X141497994Y-93501629D01*
X141456048Y-93482322D01*
X141441208Y-93477302D01*
X141371794Y-93464273D01*
X141289441Y-93459931D01*
X141203226Y-93463817D01*
X141203226Y-93463817D01*
G37*
X141203226Y-93463817D02*
X141122228Y-93475468D01*
X141055524Y-93494426D01*
X141048823Y-93497208D01*
X140981755Y-93537484D01*
X140926638Y-93592387D01*
X140889392Y-93655622D01*
X140883140Y-93673402D01*
X140877989Y-93705041D01*
X140873931Y-93761754D01*
X140870975Y-93843239D01*
X140869131Y-93949193D01*
X140868411Y-94079314D01*
X140868400Y-94098948D01*
X140868400Y-94475300D01*
X141071600Y-94475300D01*
X141071600Y-94388909D01*
X141109330Y-94424153D01*
X141161619Y-94457585D01*
X141230083Y-94478858D01*
X141308205Y-94487227D01*
X141389466Y-94481943D01*
X141461078Y-94464491D01*
X141545080Y-94424631D01*
X141608179Y-94370482D01*
X141650154Y-94302344D01*
X141670782Y-94220519D01*
X141673040Y-94177446D01*
X141672170Y-94170886D01*
X141483505Y-94170886D01*
X141474676Y-94209431D01*
X141472016Y-94216034D01*
X141459340Y-94244217D01*
X141450949Y-94258969D01*
X141450074Y-94259591D01*
X141436970Y-94263745D01*
X141408600Y-94273953D01*
X141395450Y-94278845D01*
X141352343Y-94288861D01*
X141296725Y-94293508D01*
X141237007Y-94293019D01*
X141181601Y-94287627D01*
X141138917Y-94277565D01*
X141125802Y-94271389D01*
X141095614Y-94238826D01*
X141077689Y-94186127D01*
X141071605Y-94112029D01*
X141071600Y-94109740D01*
X141071600Y-94040070D01*
X141227175Y-94046109D01*
X141311846Y-94051098D01*
X141374803Y-94059395D01*
X141419649Y-94072257D01*
X141449989Y-94090942D01*
X141469426Y-94116709D01*
X141476341Y-94133098D01*
X141483505Y-94170886D01*
X141672170Y-94170886D01*
X141661608Y-94091275D01*
X141627658Y-94016705D01*
X141583939Y-93964798D01*
X141550437Y-93936784D01*
X141514306Y-93915963D01*
X141470929Y-93901149D01*
X141415690Y-93891151D01*
X141343973Y-93884781D01*
X141258925Y-93881085D01*
X141071600Y-93875256D01*
X141071600Y-93806143D01*
X141074071Y-93762081D01*
X141080389Y-93725255D01*
X141085323Y-93711389D01*
X141113634Y-93683153D01*
X141159750Y-93663323D01*
X141217467Y-93652012D01*
X141280583Y-93649332D01*
X141342894Y-93655396D01*
X141398198Y-93670317D01*
X141440291Y-93694208D01*
X141450790Y-93704753D01*
X141461484Y-93713932D01*
X141475013Y-93713614D01*
X141496464Y-93701698D01*
X141530920Y-93676087D01*
X141542865Y-93666747D01*
X141578880Y-93637230D01*
X141605405Y-93613162D01*
X141617450Y-93599118D01*
X141617700Y-93598116D01*
X141607172Y-93579447D01*
X141579649Y-93554363D01*
X141541225Y-93527033D01*
X141497994Y-93501629D01*
X141456048Y-93482322D01*
X141441208Y-93477302D01*
X141371794Y-93464273D01*
X141289441Y-93459931D01*
X141203226Y-93463817D01*
G36*
X143230600Y-94475300D02*
G01*
X143433800Y-94475300D01*
X143433800Y-94372503D01*
X143482845Y-94411916D01*
X143560238Y-94458432D01*
X143646484Y-94481976D01*
X143738562Y-94482034D01*
X143806672Y-94467274D01*
X143865337Y-94439135D01*
X143922371Y-94394451D01*
X143970651Y-94340203D01*
X144003052Y-94283370D01*
X144007583Y-94270422D01*
X144014711Y-94232823D01*
X144020035Y-94176574D01*
X144023588Y-94106699D01*
X144025403Y-94028219D01*
X144025475Y-93973650D01*
X143821150Y-93973650D01*
X143820736Y-94046688D01*
X143819103Y-94099358D01*
X143815669Y-94136681D01*
X143809848Y-94163682D01*
X143801058Y-94185384D01*
X143795318Y-94195900D01*
X143754196Y-94242675D01*
X143697476Y-94273471D01*
X143631700Y-94284757D01*
X143630650Y-94284760D01*
X143584374Y-94278792D01*
X143539751Y-94264252D01*
X143536272Y-94262555D01*
X143501215Y-94239856D01*
X143475421Y-94210102D01*
X143457657Y-94169506D01*
X143446692Y-94114283D01*
X143441292Y-94040648D01*
X143440150Y-93967300D01*
X143441474Y-93882361D01*
X143446328Y-93818427D01*
X143456039Y-93771197D01*
X143471934Y-93736369D01*
X143495339Y-93709645D01*
X143526492Y-93687385D01*
X143585345Y-93664803D01*
X143648818Y-93662223D01*
X143710267Y-93678016D01*
X143763046Y-93710553D01*
X143798309Y-93754013D01*
X143807812Y-93775625D01*
X143814343Y-93802822D01*
X143818406Y-93840452D01*
X143820507Y-93893362D01*
X143821147Y-93966398D01*
X143821150Y-93973650D01*
X144025475Y-93973650D01*
X144025512Y-93946158D01*
X144023947Y-93865538D01*
X144020742Y-93791381D01*
X144015928Y-93728711D01*
X144009538Y-93682550D01*
X144003638Y-93661576D01*
X143955937Y-93584318D01*
X143893283Y-93524869D01*
X143819626Y-93484129D01*
X143738919Y-93462998D01*
X143655112Y-93462375D01*
X143572157Y-93483161D01*
X143494006Y-93526254D01*
X143474980Y-93541207D01*
X143433800Y-93575857D01*
X143433800Y-93065600D01*
X143230600Y-93065600D01*
X143230600Y-94475300D01*
X143230600Y-94475300D01*
G37*
X143230600Y-94475300D02*
X143433800Y-94475300D01*
X143433800Y-94372503D01*
X143482845Y-94411916D01*
X143560238Y-94458432D01*
X143646484Y-94481976D01*
X143738562Y-94482034D01*
X143806672Y-94467274D01*
X143865337Y-94439135D01*
X143922371Y-94394451D01*
X143970651Y-94340203D01*
X144003052Y-94283370D01*
X144007583Y-94270422D01*
X144014711Y-94232823D01*
X144020035Y-94176574D01*
X144023588Y-94106699D01*
X144025403Y-94028219D01*
X144025475Y-93973650D01*
X143821150Y-93973650D01*
X143820736Y-94046688D01*
X143819103Y-94099358D01*
X143815669Y-94136681D01*
X143809848Y-94163682D01*
X143801058Y-94185384D01*
X143795318Y-94195900D01*
X143754196Y-94242675D01*
X143697476Y-94273471D01*
X143631700Y-94284757D01*
X143630650Y-94284760D01*
X143584374Y-94278792D01*
X143539751Y-94264252D01*
X143536272Y-94262555D01*
X143501215Y-94239856D01*
X143475421Y-94210102D01*
X143457657Y-94169506D01*
X143446692Y-94114283D01*
X143441292Y-94040648D01*
X143440150Y-93967300D01*
X143441474Y-93882361D01*
X143446328Y-93818427D01*
X143456039Y-93771197D01*
X143471934Y-93736369D01*
X143495339Y-93709645D01*
X143526492Y-93687385D01*
X143585345Y-93664803D01*
X143648818Y-93662223D01*
X143710267Y-93678016D01*
X143763046Y-93710553D01*
X143798309Y-93754013D01*
X143807812Y-93775625D01*
X143814343Y-93802822D01*
X143818406Y-93840452D01*
X143820507Y-93893362D01*
X143821147Y-93966398D01*
X143821150Y-93973650D01*
X144025475Y-93973650D01*
X144025512Y-93946158D01*
X144023947Y-93865538D01*
X144020742Y-93791381D01*
X144015928Y-93728711D01*
X144009538Y-93682550D01*
X144003638Y-93661576D01*
X143955937Y-93584318D01*
X143893283Y-93524869D01*
X143819626Y-93484129D01*
X143738919Y-93462998D01*
X143655112Y-93462375D01*
X143572157Y-93483161D01*
X143494006Y-93526254D01*
X143474980Y-93541207D01*
X143433800Y-93575857D01*
X143433800Y-93065600D01*
X143230600Y-93065600D01*
X143230600Y-94475300D01*
G36*
X145263158Y-93464330D02*
G01*
X145161994Y-93483682D01*
X145079442Y-93519803D01*
X145015756Y-93572589D01*
X144976856Y-93630068D01*
X144945100Y-93692887D01*
X144945100Y-94475300D01*
X145148300Y-94475300D01*
X145148300Y-94396842D01*
X145186795Y-94429232D01*
X145243693Y-94462333D01*
X145316110Y-94482166D01*
X145397521Y-94488086D01*
X145481401Y-94479446D01*
X145538855Y-94464126D01*
X145620413Y-94424565D01*
X145681923Y-94369487D01*
X145722910Y-94299556D01*
X145742901Y-94215433D01*
X145744922Y-94176365D01*
X145744175Y-94170500D01*
X145554700Y-94170500D01*
X145542982Y-94219329D01*
X145509969Y-94257948D01*
X145458876Y-94282819D01*
X145450755Y-94284934D01*
X145388248Y-94293973D01*
X145318643Y-94295274D01*
X145255019Y-94288876D01*
X145234400Y-94284235D01*
X145193344Y-94267082D01*
X145167048Y-94239896D01*
X145152910Y-94198005D01*
X145148333Y-94136740D01*
X145148300Y-94129574D01*
X145148300Y-94043500D01*
X145265775Y-94044053D01*
X145364233Y-94047517D01*
X145439903Y-94057452D01*
X145494775Y-94074725D01*
X145530838Y-94100208D01*
X145550079Y-94134772D01*
X145554700Y-94170500D01*
X145744175Y-94170500D01*
X145733956Y-94090338D01*
X145701425Y-94016777D01*
X145648875Y-93957616D01*
X145577855Y-93914790D01*
X145520735Y-93896204D01*
X145477091Y-93889041D01*
X145416855Y-93883270D01*
X145348828Y-93879582D01*
X145296945Y-93878598D01*
X145147140Y-93878400D01*
X145150895Y-93793980D01*
X145156980Y-93738187D01*
X145172001Y-93699318D01*
X145199824Y-93674204D01*
X145244314Y-93659679D01*
X145309336Y-93652576D01*
X145324423Y-93651800D01*
X145400622Y-93652847D01*
X145461061Y-93665145D01*
X145513607Y-93690620D01*
X145530528Y-93702226D01*
X145545073Y-93707505D01*
X145564848Y-93701857D01*
X145595069Y-93683053D01*
X145622603Y-93662855D01*
X145658014Y-93634968D01*
X145683661Y-93612572D01*
X145694347Y-93600230D01*
X145694400Y-93599850D01*
X145684118Y-93581443D01*
X145657337Y-93556199D01*
X145620153Y-93528881D01*
X145578665Y-93504250D01*
X145561050Y-93495685D01*
X145509274Y-93477720D01*
X145446544Y-93466696D01*
X145382678Y-93461854D01*
X145263158Y-93464330D01*
X145263158Y-93464330D01*
G37*
X145263158Y-93464330D02*
X145161994Y-93483682D01*
X145079442Y-93519803D01*
X145015756Y-93572589D01*
X144976856Y-93630068D01*
X144945100Y-93692887D01*
X144945100Y-94475300D01*
X145148300Y-94475300D01*
X145148300Y-94396842D01*
X145186795Y-94429232D01*
X145243693Y-94462333D01*
X145316110Y-94482166D01*
X145397521Y-94488086D01*
X145481401Y-94479446D01*
X145538855Y-94464126D01*
X145620413Y-94424565D01*
X145681923Y-94369487D01*
X145722910Y-94299556D01*
X145742901Y-94215433D01*
X145744922Y-94176365D01*
X145744175Y-94170500D01*
X145554700Y-94170500D01*
X145542982Y-94219329D01*
X145509969Y-94257948D01*
X145458876Y-94282819D01*
X145450755Y-94284934D01*
X145388248Y-94293973D01*
X145318643Y-94295274D01*
X145255019Y-94288876D01*
X145234400Y-94284235D01*
X145193344Y-94267082D01*
X145167048Y-94239896D01*
X145152910Y-94198005D01*
X145148333Y-94136740D01*
X145148300Y-94129574D01*
X145148300Y-94043500D01*
X145265775Y-94044053D01*
X145364233Y-94047517D01*
X145439903Y-94057452D01*
X145494775Y-94074725D01*
X145530838Y-94100208D01*
X145550079Y-94134772D01*
X145554700Y-94170500D01*
X145744175Y-94170500D01*
X145733956Y-94090338D01*
X145701425Y-94016777D01*
X145648875Y-93957616D01*
X145577855Y-93914790D01*
X145520735Y-93896204D01*
X145477091Y-93889041D01*
X145416855Y-93883270D01*
X145348828Y-93879582D01*
X145296945Y-93878598D01*
X145147140Y-93878400D01*
X145150895Y-93793980D01*
X145156980Y-93738187D01*
X145172001Y-93699318D01*
X145199824Y-93674204D01*
X145244314Y-93659679D01*
X145309336Y-93652576D01*
X145324423Y-93651800D01*
X145400622Y-93652847D01*
X145461061Y-93665145D01*
X145513607Y-93690620D01*
X145530528Y-93702226D01*
X145545073Y-93707505D01*
X145564848Y-93701857D01*
X145595069Y-93683053D01*
X145622603Y-93662855D01*
X145658014Y-93634968D01*
X145683661Y-93612572D01*
X145694347Y-93600230D01*
X145694400Y-93599850D01*
X145684118Y-93581443D01*
X145657337Y-93556199D01*
X145620153Y-93528881D01*
X145578665Y-93504250D01*
X145561050Y-93495685D01*
X145509274Y-93477720D01*
X145446544Y-93466696D01*
X145382678Y-93461854D01*
X145263158Y-93464330D01*
M02*
